<?xml version="1.0" encoding="us-ascii" standalone="no"?><svg xmlns="http://www.w3.org/2000/svg" xmlns:xlink="http://www.w3.org/1999/xlink" contentStyleType="text/css" height="622px" preserveAspectRatio="none" style="width:1854px;height:622px;background:#FFFFFF;" version="1.1" viewBox="0 0 1854 622" width="1854px" zoomAndPan="magnify"><defs/><g><!--class Namespace--><g id="elem_Namespace"><rect codeLine="7" fill="#CCFFFF" height="32" id="Namespace" rx="2.5" ry="2.5" style="stroke:#A9A9A9;stroke-width:0.5;" width="105" x="794.5" y="399"/><ellipse cx="809.5" cy="415" fill="#FFFFFF" rx="11" ry="11" style="stroke:#181818;stroke-width:1.0;"/><path d="M809.4375,410.8281 Q808.6875,410.8281 808.125,411.125 Q807.5625,411.4063 807.1719,411.9375 Q806.7813,412.4688 806.5781,413.25 Q806.3906,414.0156 806.3906,414.9688 Q806.3906,415.9375 806.5625,416.7031 Q806.75,417.4531 807.1094,417.9688 Q807.4844,418.4844 808.0625,418.7656 Q808.6406,419.0313 809.4375,419.0313 Q810.1719,419.0313 810.9063,418.8594 Q811.6563,418.6875 812.5313,418.3906 L812.5313,420.5469 Q812.125,420.7031 811.7344,420.8281 Q811.3438,420.9375 810.9375,421.0156 Q810.5313,421.0938 810.1094,421.125 Q809.6875,421.1719 809.1875,421.1719 Q807.7813,421.1719 806.75,420.7188 Q805.7344,420.2656 805.0625,419.4531 Q804.3906,418.6406 804.0625,417.5 Q803.7344,416.3438 803.7344,414.9531 Q803.7344,413.5781 804.1094,412.4219 Q804.4844,411.2656 805.2031,410.4375 Q805.9219,409.6094 806.9844,409.1563 Q808.0469,408.6875 809.4375,408.6875 Q810.3438,408.6875 811.25,408.9219 Q812.1563,409.1406 812.9844,409.5469 L812.1563,411.6406 Q811.4688,411.3125 810.7813,411.0781 Q810.0938,410.8281 809.4375,410.8281 Z " fill="#000000"/><text fill="#000000" font-family="sans-serif" font-size="14" lengthAdjust="spacing" textLength="73" x="823.5" y="419.8467">Namespace</text></g><!--class SourceTextAnchor--><g id="elem_SourceTextAnchor"><rect codeLine="9" fill="#CCFFFF" height="32" id="SourceTextAnchor" rx="2.5" ry="2.5" style="stroke:#A9A9A9;stroke-width:0.5;" width="147" x="70.5" y="191"/><ellipse cx="85.5" cy="207" fill="#FFFFFF" rx="11" ry="11" style="stroke:#181818;stroke-width:1.0;"/><path d="M85.4375,202.8281 Q84.6875,202.8281 84.125,203.125 Q83.5625,203.4063 83.1719,203.9375 Q82.7813,204.4688 82.5781,205.25 Q82.3906,206.0156 82.3906,206.9688 Q82.3906,207.9375 82.5625,208.7031 Q82.75,209.4531 83.1094,209.9688 Q83.4844,210.4844 84.0625,210.7656 Q84.6406,211.0313 85.4375,211.0313 Q86.1719,211.0313 86.9063,210.8594 Q87.6563,210.6875 88.5313,210.3906 L88.5313,212.5469 Q88.125,212.7031 87.7344,212.8281 Q87.3438,212.9375 86.9375,213.0156 Q86.5313,213.0938 86.1094,213.125 Q85.6875,213.1719 85.1875,213.1719 Q83.7813,213.1719 82.75,212.7188 Q81.7344,212.2656 81.0625,211.4531 Q80.3906,210.6406 80.0625,209.5 Q79.7344,208.3438 79.7344,206.9531 Q79.7344,205.5781 80.1094,204.4219 Q80.4844,203.2656 81.2031,202.4375 Q81.9219,201.6094 82.9844,201.1563 Q84.0469,200.6875 85.4375,200.6875 Q86.3438,200.6875 87.25,200.9219 Q88.1563,201.1406 88.9844,201.5469 L88.1563,203.6406 Q87.4688,203.3125 86.7813,203.0781 Q86.0938,202.8281 85.4375,202.8281 Z " fill="#000000"/><text fill="#000000" font-family="sans-serif" font-size="14" lengthAdjust="spacing" textLength="115" x="99.5" y="211.8467">SourceTextAnchor</text></g><!--class Class--><g id="elem_Class"><rect codeLine="11" fill="#CCFFFF" height="32" id="Class" rx="2.5" ry="2.5" style="stroke:#A9A9A9;stroke-width:0.5;" width="63" x="433.5" y="491"/><ellipse cx="448.5" cy="507" fill="#FFFFFF" rx="11" ry="11" style="stroke:#181818;stroke-width:1.0;"/><path d="M448.4375,502.8281 Q447.6875,502.8281 447.125,503.125 Q446.5625,503.4063 446.1719,503.9375 Q445.7813,504.4688 445.5781,505.25 Q445.3906,506.0156 445.3906,506.9688 Q445.3906,507.9375 445.5625,508.7031 Q445.75,509.4531 446.1094,509.9688 Q446.4844,510.4844 447.0625,510.7656 Q447.6406,511.0313 448.4375,511.0313 Q449.1719,511.0313 449.9063,510.8594 Q450.6563,510.6875 451.5313,510.3906 L451.5313,512.5469 Q451.125,512.7031 450.7344,512.8281 Q450.3438,512.9375 449.9375,513.0156 Q449.5313,513.0938 449.1094,513.125 Q448.6875,513.1719 448.1875,513.1719 Q446.7813,513.1719 445.75,512.7188 Q444.7344,512.2656 444.0625,511.4531 Q443.3906,510.6406 443.0625,509.5 Q442.7344,508.3438 442.7344,506.9531 Q442.7344,505.5781 443.1094,504.4219 Q443.4844,503.2656 444.2031,502.4375 Q444.9219,501.6094 445.9844,501.1563 Q447.0469,500.6875 448.4375,500.6875 Q449.3438,500.6875 450.25,500.9219 Q451.1563,501.1406 451.9844,501.5469 L451.1563,503.6406 Q450.4688,503.3125 449.7813,503.0781 Q449.0938,502.8281 448.4375,502.8281 Z " fill="#000000"/><text fill="#000000" font-family="sans-serif" font-size="14" lengthAdjust="spacing" textLength="31" x="462.5" y="511.8467">Class</text></g><!--class Decorator--><g id="elem_Decorator"><rect codeLine="13" fill="#CCFFFF" height="56.2969" id="Decorator" rx="2.5" ry="2.5" style="stroke:#A9A9A9;stroke-width:0.5;" width="122" x="413" y="283"/><ellipse cx="439.7" cy="299" fill="#FFFFFF" rx="11" ry="11" style="stroke:#181818;stroke-width:1.0;"/><path d="M439.6375,294.8281 Q438.8875,294.8281 438.325,295.125 Q437.7625,295.4063 437.3719,295.9375 Q436.9813,296.4688 436.7781,297.25 Q436.5906,298.0156 436.5906,298.9688 Q436.5906,299.9375 436.7625,300.7031 Q436.95,301.4531 437.3094,301.9688 Q437.6844,302.4844 438.2625,302.7656 Q438.8406,303.0313 439.6375,303.0313 Q440.3719,303.0313 441.1063,302.8594 Q441.8563,302.6875 442.7313,302.3906 L442.7313,304.5469 Q442.325,304.7031 441.9344,304.8281 Q441.5438,304.9375 441.1375,305.0156 Q440.7313,305.0938 440.3094,305.125 Q439.8875,305.1719 439.3875,305.1719 Q437.9813,305.1719 436.95,304.7188 Q435.9344,304.2656 435.2625,303.4531 Q434.5906,302.6406 434.2625,301.5 Q433.9344,300.3438 433.9344,298.9531 Q433.9344,297.5781 434.3094,296.4219 Q434.6844,295.2656 435.4031,294.4375 Q436.1219,293.6094 437.1844,293.1563 Q438.2469,292.6875 439.6375,292.6875 Q440.5438,292.6875 441.45,292.9219 Q442.3563,293.1406 443.1844,293.5469 L442.3563,295.6406 Q441.6688,295.3125 440.9813,295.0781 Q440.2938,294.8281 439.6375,294.8281 Z " fill="#000000"/><text fill="#000000" font-family="sans-serif" font-size="14" lengthAdjust="spacing" textLength="64" x="456.3" y="303.8467">Decorator</text><line style="stroke:#A9A9A9;stroke-width:0.5;" x1="414" x2="534" y1="315" y2="315"/><text fill="#000000" font-family="sans-serif" font-size="14" lengthAdjust="spacing" textLength="110" x="419" y="331.9951">String expression</text></g><!--class ParameterType--><g id="elem_ParameterType"><rect codeLine="16" fill="#CCFFFF" height="32" id="ParameterType" rx="2.5" ry="2.5" style="stroke:#A9A9A9;stroke-width:0.5;" width="130" x="533" y="491"/><ellipse cx="548" cy="507" fill="#FFFFFF" rx="11" ry="11" style="stroke:#181818;stroke-width:1.0;"/><path d="M547.9375,502.8281 Q547.1875,502.8281 546.625,503.125 Q546.0625,503.4063 545.6719,503.9375 Q545.2813,504.4688 545.0781,505.25 Q544.8906,506.0156 544.8906,506.9688 Q544.8906,507.9375 545.0625,508.7031 Q545.25,509.4531 545.6094,509.9688 Q545.9844,510.4844 546.5625,510.7656 Q547.1406,511.0313 547.9375,511.0313 Q548.6719,511.0313 549.4063,510.8594 Q550.1563,510.6875 551.0313,510.3906 L551.0313,512.5469 Q550.625,512.7031 550.2344,512.8281 Q549.8438,512.9375 549.4375,513.0156 Q549.0313,513.0938 548.6094,513.125 Q548.1875,513.1719 547.6875,513.1719 Q546.2813,513.1719 545.25,512.7188 Q544.2344,512.2656 543.5625,511.4531 Q542.8906,510.6406 542.5625,509.5 Q542.2344,508.3438 542.2344,506.9531 Q542.2344,505.5781 542.6094,504.4219 Q542.9844,503.2656 543.7031,502.4375 Q544.4219,501.6094 545.4844,501.1563 Q546.5469,500.6875 547.9375,500.6875 Q548.8438,500.6875 549.75,500.9219 Q550.6563,501.1406 551.4844,501.5469 L550.6563,503.6406 Q549.9688,503.3125 549.2813,503.0781 Q548.5938,502.8281 547.9375,502.8281 Z " fill="#000000"/><text fill="#000000" font-family="sans-serif" font-size="14" lengthAdjust="spacing" textLength="98" x="562" y="511.8467">ParameterType</text></g><!--class Variable--><g id="elem_Variable"><rect codeLine="18" fill="#CCFFFF" height="32" id="Variable" rx="2.5" ry="2.5" style="stroke:#A9A9A9;stroke-width:0.5;" width="84" x="570" y="295"/><ellipse cx="585" cy="311" fill="#FFFFFF" rx="11" ry="11" style="stroke:#181818;stroke-width:1.0;"/><path d="M584.9375,306.8281 Q584.1875,306.8281 583.625,307.125 Q583.0625,307.4063 582.6719,307.9375 Q582.2813,308.4688 582.0781,309.25 Q581.8906,310.0156 581.8906,310.9688 Q581.8906,311.9375 582.0625,312.7031 Q582.25,313.4531 582.6094,313.9688 Q582.9844,314.4844 583.5625,314.7656 Q584.1406,315.0313 584.9375,315.0313 Q585.6719,315.0313 586.4063,314.8594 Q587.1563,314.6875 588.0313,314.3906 L588.0313,316.5469 Q587.625,316.7031 587.2344,316.8281 Q586.8438,316.9375 586.4375,317.0156 Q586.0313,317.0938 585.6094,317.125 Q585.1875,317.1719 584.6875,317.1719 Q583.2813,317.1719 582.25,316.7188 Q581.2344,316.2656 580.5625,315.4531 Q579.8906,314.6406 579.5625,313.5 Q579.2344,312.3438 579.2344,310.9531 Q579.2344,309.5781 579.6094,308.4219 Q579.9844,307.2656 580.7031,306.4375 Q581.4219,305.6094 582.4844,305.1563 Q583.5469,304.6875 584.9375,304.6875 Q585.8438,304.6875 586.75,304.9219 Q587.6563,305.1406 588.4844,305.5469 L587.6563,307.6406 Q586.9688,307.3125 586.2813,307.0781 Q585.5938,306.8281 584.9375,306.8281 Z " fill="#000000"/><text fill="#000000" font-family="sans-serif" font-size="14" lengthAdjust="spacing" textLength="52" x="599" y="315.8467">Variable</text></g><!--class File--><g id="elem_File"><rect codeLine="20" fill="#CCFFFF" height="32" id="File" rx="2.5" ry="2.5" style="stroke:#A9A9A9;stroke-width:0.5;" width="55" x="689.5" y="295"/><ellipse cx="704.5" cy="311" fill="#FFFFFF" rx="11" ry="11" style="stroke:#181818;stroke-width:1.0;"/><path d="M704.4375,306.8281 Q703.6875,306.8281 703.125,307.125 Q702.5625,307.4063 702.1719,307.9375 Q701.7813,308.4688 701.5781,309.25 Q701.3906,310.0156 701.3906,310.9688 Q701.3906,311.9375 701.5625,312.7031 Q701.75,313.4531 702.1094,313.9688 Q702.4844,314.4844 703.0625,314.7656 Q703.6406,315.0313 704.4375,315.0313 Q705.1719,315.0313 705.9063,314.8594 Q706.6563,314.6875 707.5313,314.3906 L707.5313,316.5469 Q707.125,316.7031 706.7344,316.8281 Q706.3438,316.9375 705.9375,317.0156 Q705.5313,317.0938 705.1094,317.125 Q704.6875,317.1719 704.1875,317.1719 Q702.7813,317.1719 701.75,316.7188 Q700.7344,316.2656 700.0625,315.4531 Q699.3906,314.6406 699.0625,313.5 Q698.7344,312.3438 698.7344,310.9531 Q698.7344,309.5781 699.1094,308.4219 Q699.4844,307.2656 700.2031,306.4375 Q700.9219,305.6094 701.9844,305.1563 Q703.0469,304.6875 704.4375,304.6875 Q705.3438,304.6875 706.25,304.9219 Q707.1563,305.1406 707.9844,305.5469 L707.1563,307.6406 Q706.4688,307.3125 705.7813,307.0781 Q705.0938,306.8281 704.4375,306.8281 Z " fill="#000000"/><text fill="#000000" font-family="sans-serif" font-size="14" lengthAdjust="spacing" textLength="23" x="718.5" y="315.8467">File</text></g><!--class JSDoc--><g id="elem_JSDoc"><rect codeLine="22" fill="#CCFFFF" height="32" id="JSDoc" rx="2.5" ry="2.5" style="stroke:#A9A9A9;stroke-width:0.5;" width="67" x="795.5" y="191"/><ellipse cx="810.5" cy="207" fill="#FFFFFF" rx="11" ry="11" style="stroke:#181818;stroke-width:1.0;"/><path d="M810.4375,202.8281 Q809.6875,202.8281 809.125,203.125 Q808.5625,203.4063 808.1719,203.9375 Q807.7813,204.4688 807.5781,205.25 Q807.3906,206.0156 807.3906,206.9688 Q807.3906,207.9375 807.5625,208.7031 Q807.75,209.4531 808.1094,209.9688 Q808.4844,210.4844 809.0625,210.7656 Q809.6406,211.0313 810.4375,211.0313 Q811.1719,211.0313 811.9063,210.8594 Q812.6563,210.6875 813.5313,210.3906 L813.5313,212.5469 Q813.125,212.7031 812.7344,212.8281 Q812.3438,212.9375 811.9375,213.0156 Q811.5313,213.0938 811.1094,213.125 Q810.6875,213.1719 810.1875,213.1719 Q808.7813,213.1719 807.75,212.7188 Q806.7344,212.2656 806.0625,211.4531 Q805.3906,210.6406 805.0625,209.5 Q804.7344,208.3438 804.7344,206.9531 Q804.7344,205.5781 805.1094,204.4219 Q805.4844,203.2656 806.2031,202.4375 Q806.9219,201.6094 807.9844,201.1563 Q809.0469,200.6875 810.4375,200.6875 Q811.3438,200.6875 812.25,200.9219 Q813.1563,201.1406 813.9844,201.5469 L813.1563,203.6406 Q812.4688,203.3125 811.7813,203.0781 Q811.0938,202.8281 810.4375,202.8281 Z " fill="#000000"/><text fill="#000000" font-family="sans-serif" font-size="14" lengthAdjust="spacing" textLength="35" x="824.5" y="211.8467">JSDoc</text></g><!--class ParametricInterface--><g id="elem_ParametricInterface"><rect codeLine="24" fill="#CCFFFF" height="32" id="ParametricInterface" rx="2.5" ry="2.5" style="stroke:#A9A9A9;stroke-width:0.5;" width="160" x="1107" y="583"/><ellipse cx="1122" cy="599" fill="#FFFFFF" rx="11" ry="11" style="stroke:#181818;stroke-width:1.0;"/><path d="M1121.9375,594.8281 Q1121.1875,594.8281 1120.625,595.125 Q1120.0625,595.4063 1119.6719,595.9375 Q1119.2813,596.4688 1119.0781,597.25 Q1118.8906,598.0156 1118.8906,598.9688 Q1118.8906,599.9375 1119.0625,600.7031 Q1119.25,601.4531 1119.6094,601.9688 Q1119.9844,602.4844 1120.5625,602.7656 Q1121.1406,603.0313 1121.9375,603.0313 Q1122.6719,603.0313 1123.4063,602.8594 Q1124.1563,602.6875 1125.0313,602.3906 L1125.0313,604.5469 Q1124.625,604.7031 1124.2344,604.8281 Q1123.8438,604.9375 1123.4375,605.0156 Q1123.0313,605.0938 1122.6094,605.125 Q1122.1875,605.1719 1121.6875,605.1719 Q1120.2813,605.1719 1119.25,604.7188 Q1118.2344,604.2656 1117.5625,603.4531 Q1116.8906,602.6406 1116.5625,601.5 Q1116.2344,600.3438 1116.2344,598.9531 Q1116.2344,597.5781 1116.6094,596.4219 Q1116.9844,595.2656 1117.7031,594.4375 Q1118.4219,593.6094 1119.4844,593.1563 Q1120.5469,592.6875 1121.9375,592.6875 Q1122.8438,592.6875 1123.75,592.9219 Q1124.6563,593.1406 1125.4844,593.5469 L1124.6563,595.6406 Q1123.9688,595.3125 1123.2813,595.0781 Q1122.5938,594.8281 1121.9375,594.8281 Z " fill="#000000"/><text fill="#000000" font-family="sans-serif" font-size="14" lengthAdjust="spacing" textLength="128" x="1136" y="603.8467">ParametricInterface</text></g><!--class ParametricFunction--><g id="elem_ParametricFunction"><rect codeLine="26" fill="#CCFFFF" height="32" id="ParametricFunction" rx="2.5" ry="2.5" style="stroke:#A9A9A9;stroke-width:0.5;" width="156" x="1576" y="491"/><ellipse cx="1591" cy="507" fill="#FFFFFF" rx="11" ry="11" style="stroke:#181818;stroke-width:1.0;"/><path d="M1590.9375,502.8281 Q1590.1875,502.8281 1589.625,503.125 Q1589.0625,503.4063 1588.6719,503.9375 Q1588.2813,504.4688 1588.0781,505.25 Q1587.8906,506.0156 1587.8906,506.9688 Q1587.8906,507.9375 1588.0625,508.7031 Q1588.25,509.4531 1588.6094,509.9688 Q1588.9844,510.4844 1589.5625,510.7656 Q1590.1406,511.0313 1590.9375,511.0313 Q1591.6719,511.0313 1592.4063,510.8594 Q1593.1563,510.6875 1594.0313,510.3906 L1594.0313,512.5469 Q1593.625,512.7031 1593.2344,512.8281 Q1592.8438,512.9375 1592.4375,513.0156 Q1592.0313,513.0938 1591.6094,513.125 Q1591.1875,513.1719 1590.6875,513.1719 Q1589.2813,513.1719 1588.25,512.7188 Q1587.2344,512.2656 1586.5625,511.4531 Q1585.8906,510.6406 1585.5625,509.5 Q1585.2344,508.3438 1585.2344,506.9531 Q1585.2344,505.5781 1585.6094,504.4219 Q1585.9844,503.2656 1586.7031,502.4375 Q1587.4219,501.6094 1588.4844,501.1563 Q1589.5469,500.6875 1590.9375,500.6875 Q1591.8438,500.6875 1592.75,500.9219 Q1593.6563,501.1406 1594.4844,501.5469 L1593.6563,503.6406 Q1592.9688,503.3125 1592.2813,503.0781 Q1591.5938,502.8281 1590.9375,502.8281 Z " fill="#000000"/><text fill="#000000" font-family="sans-serif" font-size="14" lengthAdjust="spacing" textLength="124" x="1605" y="511.8467">ParametricFunction</text></g><!--class SourceLanguage--><g id="elem_SourceLanguage"><rect codeLine="28" fill="#CCFFFF" height="32" id="SourceLanguage" rx="2.5" ry="2.5" style="stroke:#A9A9A9;stroke-width:0.5;" width="134" x="7" y="99"/><ellipse cx="22" cy="115" fill="#FFFFFF" rx="11" ry="11" style="stroke:#181818;stroke-width:1.0;"/><path d="M21.9375,110.8281 Q21.1875,110.8281 20.625,111.125 Q20.0625,111.4063 19.6719,111.9375 Q19.2813,112.4688 19.0781,113.25 Q18.8906,114.0156 18.8906,114.9688 Q18.8906,115.9375 19.0625,116.7031 Q19.25,117.4531 19.6094,117.9688 Q19.9844,118.4844 20.5625,118.7656 Q21.1406,119.0313 21.9375,119.0313 Q22.6719,119.0313 23.4063,118.8594 Q24.1563,118.6875 25.0313,118.3906 L25.0313,120.5469 Q24.625,120.7031 24.2344,120.8281 Q23.8438,120.9375 23.4375,121.0156 Q23.0313,121.0938 22.6094,121.125 Q22.1875,121.1719 21.6875,121.1719 Q20.2813,121.1719 19.25,120.7188 Q18.2344,120.2656 17.5625,119.4531 Q16.8906,118.6406 16.5625,117.5 Q16.2344,116.3438 16.2344,114.9531 Q16.2344,113.5781 16.6094,112.4219 Q16.9844,111.2656 17.7031,110.4375 Q18.4219,109.6094 19.4844,109.1563 Q20.5469,108.6875 21.9375,108.6875 Q22.8438,108.6875 23.75,108.9219 Q24.6563,109.1406 25.4844,109.5469 L24.6563,111.6406 Q23.9688,111.3125 23.2813,111.0781 Q22.5938,110.8281 21.9375,110.8281 Z " fill="#000000"/><text fill="#000000" font-family="sans-serif" font-size="14" lengthAdjust="spacing" textLength="102" x="36" y="119.8467">SourceLanguage</text></g><!--class Attribute--><g id="elem_Attribute"><rect codeLine="30" fill="#CCFFFF" height="32" id="Attribute" rx="2.5" ry="2.5" style="stroke:#A9A9A9;stroke-width:0.5;" width="90" x="780" y="295"/><ellipse cx="795" cy="311" fill="#FFFFFF" rx="11" ry="11" style="stroke:#181818;stroke-width:1.0;"/><path d="M794.9375,306.8281 Q794.1875,306.8281 793.625,307.125 Q793.0625,307.4063 792.6719,307.9375 Q792.2813,308.4688 792.0781,309.25 Q791.8906,310.0156 791.8906,310.9688 Q791.8906,311.9375 792.0625,312.7031 Q792.25,313.4531 792.6094,313.9688 Q792.9844,314.4844 793.5625,314.7656 Q794.1406,315.0313 794.9375,315.0313 Q795.6719,315.0313 796.4063,314.8594 Q797.1563,314.6875 798.0313,314.3906 L798.0313,316.5469 Q797.625,316.7031 797.2344,316.8281 Q796.8438,316.9375 796.4375,317.0156 Q796.0313,317.0938 795.6094,317.125 Q795.1875,317.1719 794.6875,317.1719 Q793.2813,317.1719 792.25,316.7188 Q791.2344,316.2656 790.5625,315.4531 Q789.8906,314.6406 789.5625,313.5 Q789.2344,312.3438 789.2344,310.9531 Q789.2344,309.5781 789.6094,308.4219 Q789.9844,307.2656 790.7031,306.4375 Q791.4219,305.6094 792.4844,305.1563 Q793.5469,304.6875 794.9375,304.6875 Q795.8438,304.6875 796.75,304.9219 Q797.6563,305.1406 798.4844,305.5469 L797.6563,307.6406 Q796.9688,307.3125 796.2813,307.0781 Q795.5938,306.8281 794.9375,306.8281 Z " fill="#000000"/><text fill="#000000" font-family="sans-serif" font-size="14" lengthAdjust="spacing" textLength="58" x="809" y="315.8467">Attribute</text></g><!--class Type--><g id="elem_Type"><rect codeLine="32" fill="#CCFFFF" height="32" id="Type" rx="2.5" ry="2.5" style="stroke:#A9A9A9;stroke-width:0.5;" width="62" x="935" y="399"/><ellipse cx="950" cy="415" fill="#FFFFFF" rx="11" ry="11" style="stroke:#181818;stroke-width:1.0;"/><path d="M949.9375,410.8281 Q949.1875,410.8281 948.625,411.125 Q948.0625,411.4063 947.6719,411.9375 Q947.2813,412.4688 947.0781,413.25 Q946.8906,414.0156 946.8906,414.9688 Q946.8906,415.9375 947.0625,416.7031 Q947.25,417.4531 947.6094,417.9688 Q947.9844,418.4844 948.5625,418.7656 Q949.1406,419.0313 949.9375,419.0313 Q950.6719,419.0313 951.4063,418.8594 Q952.1563,418.6875 953.0313,418.3906 L953.0313,420.5469 Q952.625,420.7031 952.2344,420.8281 Q951.8438,420.9375 951.4375,421.0156 Q951.0313,421.0938 950.6094,421.125 Q950.1875,421.1719 949.6875,421.1719 Q948.2813,421.1719 947.25,420.7188 Q946.2344,420.2656 945.5625,419.4531 Q944.8906,418.6406 944.5625,417.5 Q944.2344,416.3438 944.2344,414.9531 Q944.2344,413.5781 944.6094,412.4219 Q944.9844,411.2656 945.7031,410.4375 Q946.4219,409.6094 947.4844,409.1563 Q948.5469,408.6875 949.9375,408.6875 Q950.8438,408.6875 951.75,408.9219 Q952.6563,409.1406 953.4844,409.5469 L952.6563,411.6406 Q951.9688,411.3125 951.2813,411.0781 Q950.5938,410.8281 949.9375,410.8281 Z " fill="#000000"/><text fill="#000000" font-family="sans-serif" font-size="14" lengthAdjust="spacing" textLength="30" x="964" y="419.8467">Type</text></g><!--class SourceAnchor--><g id="elem_SourceAnchor"><rect codeLine="34" fill="#CCFFFF" height="32" id="SourceAnchor" rx="2.5" ry="2.5" style="stroke:#A9A9A9;stroke-width:0.5;" width="120" x="176" y="99"/><ellipse cx="191" cy="115" fill="#FFFFFF" rx="11" ry="11" style="stroke:#181818;stroke-width:1.0;"/><path d="M190.9375,110.8281 Q190.1875,110.8281 189.625,111.125 Q189.0625,111.4063 188.6719,111.9375 Q188.2813,112.4688 188.0781,113.25 Q187.8906,114.0156 187.8906,114.9688 Q187.8906,115.9375 188.0625,116.7031 Q188.25,117.4531 188.6094,117.9688 Q188.9844,118.4844 189.5625,118.7656 Q190.1406,119.0313 190.9375,119.0313 Q191.6719,119.0313 192.4063,118.8594 Q193.1563,118.6875 194.0313,118.3906 L194.0313,120.5469 Q193.625,120.7031 193.2344,120.8281 Q192.8438,120.9375 192.4375,121.0156 Q192.0313,121.0938 191.6094,121.125 Q191.1875,121.1719 190.6875,121.1719 Q189.2813,121.1719 188.25,120.7188 Q187.2344,120.2656 186.5625,119.4531 Q185.8906,118.6406 185.5625,117.5 Q185.2344,116.3438 185.2344,114.9531 Q185.2344,113.5781 185.6094,112.4219 Q185.9844,111.2656 186.7031,110.4375 Q187.4219,109.6094 188.4844,109.1563 Q189.5469,108.6875 190.9375,108.6875 Q191.8438,108.6875 192.75,108.9219 Q193.6563,109.1406 194.4844,109.5469 L193.6563,111.6406 Q192.9688,111.3125 192.2813,111.0781 Q191.5938,110.8281 190.9375,110.8281 Z " fill="#000000"/><text fill="#000000" font-family="sans-serif" font-size="14" lengthAdjust="spacing" textLength="88" x="205" y="119.8467">SourceAnchor</text></g><!--class Inheritance--><g id="elem_Inheritance"><rect codeLine="36" fill="#CCFFFF" height="32" id="Inheritance" rx="2.5" ry="2.5" style="stroke:#A9A9A9;stroke-width:0.5;" width="105" x="331.5" y="99"/><ellipse cx="346.5" cy="115" fill="#FFFFFF" rx="11" ry="11" style="stroke:#181818;stroke-width:1.0;"/><path d="M346.4375,110.8281 Q345.6875,110.8281 345.125,111.125 Q344.5625,111.4063 344.1719,111.9375 Q343.7813,112.4688 343.5781,113.25 Q343.3906,114.0156 343.3906,114.9688 Q343.3906,115.9375 343.5625,116.7031 Q343.75,117.4531 344.1094,117.9688 Q344.4844,118.4844 345.0625,118.7656 Q345.6406,119.0313 346.4375,119.0313 Q347.1719,119.0313 347.9063,118.8594 Q348.6563,118.6875 349.5313,118.3906 L349.5313,120.5469 Q349.125,120.7031 348.7344,120.8281 Q348.3438,120.9375 347.9375,121.0156 Q347.5313,121.0938 347.1094,121.125 Q346.6875,121.1719 346.1875,121.1719 Q344.7813,121.1719 343.75,120.7188 Q342.7344,120.2656 342.0625,119.4531 Q341.3906,118.6406 341.0625,117.5 Q340.7344,116.3438 340.7344,114.9531 Q340.7344,113.5781 341.1094,112.4219 Q341.4844,111.2656 342.2031,110.4375 Q342.9219,109.6094 343.9844,109.1563 Q345.0469,108.6875 346.4375,108.6875 Q347.3438,108.6875 348.25,108.9219 Q349.1563,109.1406 349.9844,109.5469 L349.1563,111.6406 Q348.4688,111.3125 347.7813,111.0781 Q347.0938,110.8281 346.4375,110.8281 Z " fill="#000000"/><text fill="#000000" font-family="sans-serif" font-size="14" lengthAdjust="spacing" textLength="73" x="360.5" y="119.8467">Inheritance</text></g><!--class Entity--><g id="elem_Entity"><rect codeLine="38" fill="#CCFFFF" height="32" id="Entity" rx="2.5" ry="2.5" style="stroke:#A9A9A9;stroke-width:0.5;" width="68" x="778" y="7"/><ellipse cx="793" cy="23" fill="#FFFFFF" rx="11" ry="11" style="stroke:#181818;stroke-width:1.0;"/><path d="M792.9375,18.8281 Q792.1875,18.8281 791.625,19.125 Q791.0625,19.4063 790.6719,19.9375 Q790.2813,20.4688 790.0781,21.25 Q789.8906,22.0156 789.8906,22.9688 Q789.8906,23.9375 790.0625,24.7031 Q790.25,25.4531 790.6094,25.9688 Q790.9844,26.4844 791.5625,26.7656 Q792.1406,27.0313 792.9375,27.0313 Q793.6719,27.0313 794.4063,26.8594 Q795.1563,26.6875 796.0313,26.3906 L796.0313,28.5469 Q795.625,28.7031 795.2344,28.8281 Q794.8438,28.9375 794.4375,29.0156 Q794.0313,29.0938 793.6094,29.125 Q793.1875,29.1719 792.6875,29.1719 Q791.2813,29.1719 790.25,28.7188 Q789.2344,28.2656 788.5625,27.4531 Q787.8906,26.6406 787.5625,25.5 Q787.2344,24.3438 787.2344,22.9531 Q787.2344,21.5781 787.6094,20.4219 Q787.9844,19.2656 788.7031,18.4375 Q789.4219,17.6094 790.4844,17.1563 Q791.5469,16.6875 792.9375,16.6875 Q793.8438,16.6875 794.75,16.9219 Q795.6563,17.1406 796.4844,17.5469 L795.6563,19.6406 Q794.9688,19.3125 794.2813,19.0781 Q793.5938,18.8281 792.9375,18.8281 Z " fill="#000000"/><text fill="#000000" font-family="sans-serif" font-size="14" lengthAdjust="spacing" textLength="36" x="807" y="27.8467">Entity</text></g><!--class IndexedFileAnchor--><g id="elem_IndexedFileAnchor"><rect codeLine="40" fill="#CCFFFF" height="32" id="IndexedFileAnchor" rx="2.5" ry="2.5" style="stroke:#A9A9A9;stroke-width:0.5;" width="152" x="253" y="191"/><ellipse cx="268" cy="207" fill="#FFFFFF" rx="11" ry="11" style="stroke:#181818;stroke-width:1.0;"/><path d="M267.9375,202.8281 Q267.1875,202.8281 266.625,203.125 Q266.0625,203.4063 265.6719,203.9375 Q265.2813,204.4688 265.0781,205.25 Q264.8906,206.0156 264.8906,206.9688 Q264.8906,207.9375 265.0625,208.7031 Q265.25,209.4531 265.6094,209.9688 Q265.9844,210.4844 266.5625,210.7656 Q267.1406,211.0313 267.9375,211.0313 Q268.6719,211.0313 269.4063,210.8594 Q270.1563,210.6875 271.0313,210.3906 L271.0313,212.5469 Q270.625,212.7031 270.2344,212.8281 Q269.8438,212.9375 269.4375,213.0156 Q269.0313,213.0938 268.6094,213.125 Q268.1875,213.1719 267.6875,213.1719 Q266.2813,213.1719 265.25,212.7188 Q264.2344,212.2656 263.5625,211.4531 Q262.8906,210.6406 262.5625,209.5 Q262.2344,208.3438 262.2344,206.9531 Q262.2344,205.5781 262.6094,204.4219 Q262.9844,203.2656 263.7031,202.4375 Q264.4219,201.6094 265.4844,201.1563 Q266.5469,200.6875 267.9375,200.6875 Q268.8438,200.6875 269.75,200.9219 Q270.6563,201.1406 271.4844,201.5469 L270.6563,203.6406 Q269.9688,203.3125 269.2813,203.0781 Q268.5938,202.8281 267.9375,202.8281 Z " fill="#000000"/><text fill="#000000" font-family="sans-serif" font-size="14" lengthAdjust="spacing" textLength="120" x="282" y="211.8467">IndexedFileAnchor</text></g><!--class Concretization--><g id="elem_Concretization"><rect codeLine="42" fill="#CCFFFF" height="32" id="Concretization" rx="2.5" ry="2.5" style="stroke:#A9A9A9;stroke-width:0.5;" width="123" x="471.5" y="99"/><ellipse cx="486.5" cy="115" fill="#FFFFFF" rx="11" ry="11" style="stroke:#181818;stroke-width:1.0;"/><path d="M486.4375,110.8281 Q485.6875,110.8281 485.125,111.125 Q484.5625,111.4063 484.1719,111.9375 Q483.7813,112.4688 483.5781,113.25 Q483.3906,114.0156 483.3906,114.9688 Q483.3906,115.9375 483.5625,116.7031 Q483.75,117.4531 484.1094,117.9688 Q484.4844,118.4844 485.0625,118.7656 Q485.6406,119.0313 486.4375,119.0313 Q487.1719,119.0313 487.9063,118.8594 Q488.6563,118.6875 489.5313,118.3906 L489.5313,120.5469 Q489.125,120.7031 488.7344,120.8281 Q488.3438,120.9375 487.9375,121.0156 Q487.5313,121.0938 487.1094,121.125 Q486.6875,121.1719 486.1875,121.1719 Q484.7813,121.1719 483.75,120.7188 Q482.7344,120.2656 482.0625,119.4531 Q481.3906,118.6406 481.0625,117.5 Q480.7344,116.3438 480.7344,114.9531 Q480.7344,113.5781 481.1094,112.4219 Q481.4844,111.2656 482.2031,110.4375 Q482.9219,109.6094 483.9844,109.1563 Q485.0469,108.6875 486.4375,108.6875 Q487.3438,108.6875 488.25,108.9219 Q489.1563,109.1406 489.9844,109.5469 L489.1563,111.6406 Q488.4688,111.3125 487.7813,111.0781 Q487.0938,110.8281 486.4375,110.8281 Z " fill="#000000"/><text fill="#000000" font-family="sans-serif" font-size="14" lengthAdjust="spacing" textLength="91" x="500.5" y="119.8467">Concretization</text></g><!--class Module--><g id="elem_Module"><rect codeLine="44" fill="#CCFFFF" height="32" id="Module" rx="2.5" ry="2.5" style="stroke:#A9A9A9;stroke-width:0.5;" width="80" x="1767" y="491"/><ellipse cx="1782" cy="507" fill="#FFFFFF" rx="11" ry="11" style="stroke:#181818;stroke-width:1.0;"/><path d="M1781.9375,502.8281 Q1781.1875,502.8281 1780.625,503.125 Q1780.0625,503.4063 1779.6719,503.9375 Q1779.2813,504.4688 1779.0781,505.25 Q1778.8906,506.0156 1778.8906,506.9688 Q1778.8906,507.9375 1779.0625,508.7031 Q1779.25,509.4531 1779.6094,509.9688 Q1779.9844,510.4844 1780.5625,510.7656 Q1781.1406,511.0313 1781.9375,511.0313 Q1782.6719,511.0313 1783.4063,510.8594 Q1784.1563,510.6875 1785.0313,510.3906 L1785.0313,512.5469 Q1784.625,512.7031 1784.2344,512.8281 Q1783.8438,512.9375 1783.4375,513.0156 Q1783.0313,513.0938 1782.6094,513.125 Q1782.1875,513.1719 1781.6875,513.1719 Q1780.2813,513.1719 1779.25,512.7188 Q1778.2344,512.2656 1777.5625,511.4531 Q1776.8906,510.6406 1776.5625,509.5 Q1776.2344,508.3438 1776.2344,506.9531 Q1776.2344,505.5781 1776.6094,504.4219 Q1776.9844,503.2656 1777.7031,502.4375 Q1778.4219,501.6094 1779.4844,501.1563 Q1780.5469,500.6875 1781.9375,500.6875 Q1782.8438,500.6875 1783.75,500.9219 Q1784.6563,501.1406 1785.4844,501.5469 L1784.6563,503.6406 Q1783.9688,503.3125 1783.2813,503.0781 Q1782.5938,502.8281 1781.9375,502.8281 Z " fill="#000000"/><text fill="#000000" font-family="sans-serif" font-size="14" lengthAdjust="spacing" textLength="48" x="1796" y="511.8467">Module</text></g><!--class NamedEntity--><g id="elem_NamedEntity"><rect codeLine="46" fill="#CCFFFF" height="32" id="NamedEntity" rx="2.5" ry="2.5" style="stroke:#A9A9A9;stroke-width:0.5;" width="114" x="898" y="191"/><ellipse cx="913" cy="207" fill="#FFFFFF" rx="11" ry="11" style="stroke:#181818;stroke-width:1.0;"/><path d="M912.9375,202.8281 Q912.1875,202.8281 911.625,203.125 Q911.0625,203.4063 910.6719,203.9375 Q910.2813,204.4688 910.0781,205.25 Q909.8906,206.0156 909.8906,206.9688 Q909.8906,207.9375 910.0625,208.7031 Q910.25,209.4531 910.6094,209.9688 Q910.9844,210.4844 911.5625,210.7656 Q912.1406,211.0313 912.9375,211.0313 Q913.6719,211.0313 914.4063,210.8594 Q915.1563,210.6875 916.0313,210.3906 L916.0313,212.5469 Q915.625,212.7031 915.2344,212.8281 Q914.8438,212.9375 914.4375,213.0156 Q914.0313,213.0938 913.6094,213.125 Q913.1875,213.1719 912.6875,213.1719 Q911.2813,213.1719 910.25,212.7188 Q909.2344,212.2656 908.5625,211.4531 Q907.8906,210.6406 907.5625,209.5 Q907.2344,208.3438 907.2344,206.9531 Q907.2344,205.5781 907.6094,204.4219 Q907.9844,203.2656 908.7031,202.4375 Q909.4219,201.6094 910.4844,201.1563 Q911.5469,200.6875 912.9375,200.6875 Q913.8438,200.6875 914.75,200.9219 Q915.6563,201.1406 916.4844,201.5469 L915.6563,203.6406 Q914.9688,203.3125 914.2813,203.0781 Q913.5938,202.8281 912.9375,202.8281 Z " fill="#000000"/><text fill="#000000" font-family="sans-serif" font-size="14" lengthAdjust="spacing" textLength="82" x="927" y="211.8467">NamedEntity</text></g><!--class ContainerEntity--><g id="elem_ContainerEntity"><rect codeLine="48" fill="#CCFFFF" height="32" id="ContainerEntity" rx="2.5" ry="2.5" style="stroke:#A9A9A9;stroke-width:0.5;" width="130" x="1508" y="295"/><ellipse cx="1523" cy="311" fill="#FFFFFF" rx="11" ry="11" style="stroke:#181818;stroke-width:1.0;"/><path d="M1522.9375,306.8281 Q1522.1875,306.8281 1521.625,307.125 Q1521.0625,307.4063 1520.6719,307.9375 Q1520.2813,308.4688 1520.0781,309.25 Q1519.8906,310.0156 1519.8906,310.9688 Q1519.8906,311.9375 1520.0625,312.7031 Q1520.25,313.4531 1520.6094,313.9688 Q1520.9844,314.4844 1521.5625,314.7656 Q1522.1406,315.0313 1522.9375,315.0313 Q1523.6719,315.0313 1524.4063,314.8594 Q1525.1563,314.6875 1526.0313,314.3906 L1526.0313,316.5469 Q1525.625,316.7031 1525.2344,316.8281 Q1524.8438,316.9375 1524.4375,317.0156 Q1524.0313,317.0938 1523.6094,317.125 Q1523.1875,317.1719 1522.6875,317.1719 Q1521.2813,317.1719 1520.25,316.7188 Q1519.2344,316.2656 1518.5625,315.4531 Q1517.8906,314.6406 1517.5625,313.5 Q1517.2344,312.3438 1517.2344,310.9531 Q1517.2344,309.5781 1517.6094,308.4219 Q1517.9844,307.2656 1518.7031,306.4375 Q1519.4219,305.6094 1520.4844,305.1563 Q1521.5469,304.6875 1522.9375,304.6875 Q1523.8438,304.6875 1524.75,304.9219 Q1525.6563,305.1406 1526.4844,305.5469 L1525.6563,307.6406 Q1524.9688,307.3125 1524.2813,307.0781 Q1523.5938,306.8281 1522.9375,306.8281 Z " fill="#000000"/><text fill="#000000" font-family="sans-serif" font-size="14" lengthAdjust="spacing" textLength="98" x="1537" y="315.8467">ContainerEntity</text></g><!--class Accessor--><g id="elem_Accessor"><rect codeLine="50" fill="#CCFFFF" height="32" id="Accessor" rx="2.5" ry="2.5" style="stroke:#A9A9A9;stroke-width:0.5;" width="87" x="1267.5" y="491"/><ellipse cx="1282.5" cy="507" fill="#FFFFFF" rx="11" ry="11" style="stroke:#181818;stroke-width:1.0;"/><path d="M1282.4375,502.8281 Q1281.6875,502.8281 1281.125,503.125 Q1280.5625,503.4063 1280.1719,503.9375 Q1279.7813,504.4688 1279.5781,505.25 Q1279.3906,506.0156 1279.3906,506.9688 Q1279.3906,507.9375 1279.5625,508.7031 Q1279.75,509.4531 1280.1094,509.9688 Q1280.4844,510.4844 1281.0625,510.7656 Q1281.6406,511.0313 1282.4375,511.0313 Q1283.1719,511.0313 1283.9063,510.8594 Q1284.6563,510.6875 1285.5313,510.3906 L1285.5313,512.5469 Q1285.125,512.7031 1284.7344,512.8281 Q1284.3438,512.9375 1283.9375,513.0156 Q1283.5313,513.0938 1283.1094,513.125 Q1282.6875,513.1719 1282.1875,513.1719 Q1280.7813,513.1719 1279.75,512.7188 Q1278.7344,512.2656 1278.0625,511.4531 Q1277.3906,510.6406 1277.0625,509.5 Q1276.7344,508.3438 1276.7344,506.9531 Q1276.7344,505.5781 1277.1094,504.4219 Q1277.4844,503.2656 1278.2031,502.4375 Q1278.9219,501.6094 1279.9844,501.1563 Q1281.0469,500.6875 1282.4375,500.6875 Q1283.3438,500.6875 1284.25,500.9219 Q1285.1563,501.1406 1285.9844,501.5469 L1285.1563,503.6406 Q1284.4688,503.3125 1283.7813,503.0781 Q1283.0938,502.8281 1282.4375,502.8281 Z " fill="#000000"/><text fill="#000000" font-family="sans-serif" font-size="14" lengthAdjust="spacing" textLength="55" x="1296.5" y="511.8467">Accessor</text></g><!--class Invocation--><g id="elem_Invocation"><rect codeLine="52" fill="#CCFFFF" height="32" id="Invocation" rx="2.5" ry="2.5" style="stroke:#A9A9A9;stroke-width:0.5;" width="98" x="630" y="99"/><ellipse cx="645" cy="115" fill="#FFFFFF" rx="11" ry="11" style="stroke:#181818;stroke-width:1.0;"/><path d="M644.9375,110.8281 Q644.1875,110.8281 643.625,111.125 Q643.0625,111.4063 642.6719,111.9375 Q642.2813,112.4688 642.0781,113.25 Q641.8906,114.0156 641.8906,114.9688 Q641.8906,115.9375 642.0625,116.7031 Q642.25,117.4531 642.6094,117.9688 Q642.9844,118.4844 643.5625,118.7656 Q644.1406,119.0313 644.9375,119.0313 Q645.6719,119.0313 646.4063,118.8594 Q647.1563,118.6875 648.0313,118.3906 L648.0313,120.5469 Q647.625,120.7031 647.2344,120.8281 Q646.8438,120.9375 646.4375,121.0156 Q646.0313,121.0938 645.6094,121.125 Q645.1875,121.1719 644.6875,121.1719 Q643.2813,121.1719 642.25,120.7188 Q641.2344,120.2656 640.5625,119.4531 Q639.8906,118.6406 639.5625,117.5 Q639.2344,116.3438 639.2344,114.9531 Q639.2344,113.5781 639.6094,112.4219 Q639.9844,111.2656 640.7031,110.4375 Q641.4219,109.6094 642.4844,109.1563 Q643.5469,108.6875 644.9375,108.6875 Q645.8438,108.6875 646.75,108.9219 Q647.6563,109.1406 648.4844,109.5469 L647.6563,111.6406 Q646.9688,111.3125 646.2813,111.0781 Q645.5938,110.8281 644.9375,110.8281 Z " fill="#000000"/><text fill="#000000" font-family="sans-serif" font-size="14" lengthAdjust="spacing" textLength="66" x="659" y="119.8467">Invocation</text></g><!--class Reference--><g id="elem_Reference"><rect codeLine="54" fill="#CCFFFF" height="32" id="Reference" rx="2.5" ry="2.5" style="stroke:#A9A9A9;stroke-width:0.5;" width="97" x="763.5" y="99"/><ellipse cx="778.5" cy="115" fill="#FFFFFF" rx="11" ry="11" style="stroke:#181818;stroke-width:1.0;"/><path d="M778.4375,110.8281 Q777.6875,110.8281 777.125,111.125 Q776.5625,111.4063 776.1719,111.9375 Q775.7813,112.4688 775.5781,113.25 Q775.3906,114.0156 775.3906,114.9688 Q775.3906,115.9375 775.5625,116.7031 Q775.75,117.4531 776.1094,117.9688 Q776.4844,118.4844 777.0625,118.7656 Q777.6406,119.0313 778.4375,119.0313 Q779.1719,119.0313 779.9063,118.8594 Q780.6563,118.6875 781.5313,118.3906 L781.5313,120.5469 Q781.125,120.7031 780.7344,120.8281 Q780.3438,120.9375 779.9375,121.0156 Q779.5313,121.0938 779.1094,121.125 Q778.6875,121.1719 778.1875,121.1719 Q776.7813,121.1719 775.75,120.7188 Q774.7344,120.2656 774.0625,119.4531 Q773.3906,118.6406 773.0625,117.5 Q772.7344,116.3438 772.7344,114.9531 Q772.7344,113.5781 773.1094,112.4219 Q773.4844,111.2656 774.2031,110.4375 Q774.9219,109.6094 775.9844,109.1563 Q777.0469,108.6875 778.4375,108.6875 Q779.3438,108.6875 780.25,108.9219 Q781.1563,109.1406 781.9844,109.5469 L781.1563,111.6406 Q780.4688,111.3125 779.7813,111.0781 Q779.0938,110.8281 778.4375,110.8281 Z " fill="#000000"/><text fill="#000000" font-family="sans-serif" font-size="14" lengthAdjust="spacing" textLength="65" x="792.5" y="119.8467">Reference</text></g><!--class Parameter--><g id="elem_Parameter"><rect codeLine="56" fill="#CCFFFF" height="32" id="Parameter" rx="2.5" ry="2.5" style="stroke:#A9A9A9;stroke-width:0.5;" width="100" x="905" y="295"/><ellipse cx="920" cy="311" fill="#FFFFFF" rx="11" ry="11" style="stroke:#181818;stroke-width:1.0;"/><path d="M919.9375,306.8281 Q919.1875,306.8281 918.625,307.125 Q918.0625,307.4063 917.6719,307.9375 Q917.2813,308.4688 917.0781,309.25 Q916.8906,310.0156 916.8906,310.9688 Q916.8906,311.9375 917.0625,312.7031 Q917.25,313.4531 917.6094,313.9688 Q917.9844,314.4844 918.5625,314.7656 Q919.1406,315.0313 919.9375,315.0313 Q920.6719,315.0313 921.4063,314.8594 Q922.1563,314.6875 923.0313,314.3906 L923.0313,316.5469 Q922.625,316.7031 922.2344,316.8281 Q921.8438,316.9375 921.4375,317.0156 Q921.0313,317.0938 920.6094,317.125 Q920.1875,317.1719 919.6875,317.1719 Q918.2813,317.1719 917.25,316.7188 Q916.2344,316.2656 915.5625,315.4531 Q914.8906,314.6406 914.5625,313.5 Q914.2344,312.3438 914.2344,310.9531 Q914.2344,309.5781 914.6094,308.4219 Q914.9844,307.2656 915.7031,306.4375 Q916.4219,305.6094 917.4844,305.1563 Q918.5469,304.6875 919.9375,304.6875 Q920.8438,304.6875 921.75,304.9219 Q922.6563,305.1406 923.4844,305.5469 L922.6563,307.6406 Q921.9688,307.3125 921.2813,307.0781 Q920.5938,306.8281 919.9375,306.8281 Z " fill="#000000"/><text fill="#000000" font-family="sans-serif" font-size="14" lengthAdjust="spacing" textLength="68" x="934" y="315.8467">Parameter</text></g><!--class SourcedEntity--><g id="elem_SourcedEntity"><rect codeLine="58" fill="#CCFFFF" height="32" id="SourcedEntity" rx="2.5" ry="2.5" style="stroke:#A9A9A9;stroke-width:0.5;" width="119" x="895.5" y="99"/><ellipse cx="910.5" cy="115" fill="#FFFFFF" rx="11" ry="11" style="stroke:#181818;stroke-width:1.0;"/><path d="M910.4375,110.8281 Q909.6875,110.8281 909.125,111.125 Q908.5625,111.4063 908.1719,111.9375 Q907.7813,112.4688 907.5781,113.25 Q907.3906,114.0156 907.3906,114.9688 Q907.3906,115.9375 907.5625,116.7031 Q907.75,117.4531 908.1094,117.9688 Q908.4844,118.4844 909.0625,118.7656 Q909.6406,119.0313 910.4375,119.0313 Q911.1719,119.0313 911.9063,118.8594 Q912.6563,118.6875 913.5313,118.3906 L913.5313,120.5469 Q913.125,120.7031 912.7344,120.8281 Q912.3438,120.9375 911.9375,121.0156 Q911.5313,121.0938 911.1094,121.125 Q910.6875,121.1719 910.1875,121.1719 Q908.7813,121.1719 907.75,120.7188 Q906.7344,120.2656 906.0625,119.4531 Q905.3906,118.6406 905.0625,117.5 Q904.7344,116.3438 904.7344,114.9531 Q904.7344,113.5781 905.1094,112.4219 Q905.4844,111.2656 906.2031,110.4375 Q906.9219,109.6094 907.9844,109.1563 Q909.0469,108.6875 910.4375,108.6875 Q911.3438,108.6875 912.25,108.9219 Q913.1563,109.1406 913.9844,109.5469 L913.1563,111.6406 Q912.4688,111.3125 911.7813,111.0781 Q911.0938,110.8281 910.4375,110.8281 Z " fill="#000000"/><text fill="#000000" font-family="sans-serif" font-size="14" lengthAdjust="spacing" textLength="87" x="924.5" y="119.8467">SourcedEntity</text></g><!--class ParameterConcretization--><g id="elem_ParameterConcretization"><rect codeLine="60" fill="#CCFFFF" height="32" id="ParameterConcretization" rx="2.5" ry="2.5" style="stroke:#A9A9A9;stroke-width:0.5;" width="191" x="1049.5" y="99"/><ellipse cx="1064.5" cy="115" fill="#FFFFFF" rx="11" ry="11" style="stroke:#181818;stroke-width:1.0;"/><path d="M1064.4375,110.8281 Q1063.6875,110.8281 1063.125,111.125 Q1062.5625,111.4063 1062.1719,111.9375 Q1061.7813,112.4688 1061.5781,113.25 Q1061.3906,114.0156 1061.3906,114.9688 Q1061.3906,115.9375 1061.5625,116.7031 Q1061.75,117.4531 1062.1094,117.9688 Q1062.4844,118.4844 1063.0625,118.7656 Q1063.6406,119.0313 1064.4375,119.0313 Q1065.1719,119.0313 1065.9063,118.8594 Q1066.6563,118.6875 1067.5313,118.3906 L1067.5313,120.5469 Q1067.125,120.7031 1066.7344,120.8281 Q1066.3438,120.9375 1065.9375,121.0156 Q1065.5313,121.0938 1065.1094,121.125 Q1064.6875,121.1719 1064.1875,121.1719 Q1062.7813,121.1719 1061.75,120.7188 Q1060.7344,120.2656 1060.0625,119.4531 Q1059.3906,118.6406 1059.0625,117.5 Q1058.7344,116.3438 1058.7344,114.9531 Q1058.7344,113.5781 1059.1094,112.4219 Q1059.4844,111.2656 1060.2031,110.4375 Q1060.9219,109.6094 1061.9844,109.1563 Q1063.0469,108.6875 1064.4375,108.6875 Q1065.3438,108.6875 1066.25,108.9219 Q1067.1563,109.1406 1067.9844,109.5469 L1067.1563,111.6406 Q1066.4688,111.3125 1065.7813,111.0781 Q1065.0938,110.8281 1064.4375,110.8281 Z " fill="#000000"/><text fill="#000000" font-family="sans-serif" font-size="14" lengthAdjust="spacing" textLength="159" x="1078.5" y="119.8467">ParameterConcretization</text></g><!--class Implementation--><g id="elem_Implementation"><rect codeLine="62" fill="#CCFFFF" height="32" id="Implementation" rx="2.5" ry="2.5" style="stroke:#A9A9A9;stroke-width:0.5;" width="136" x="1276" y="99"/><ellipse cx="1291" cy="115" fill="#FFFFFF" rx="11" ry="11" style="stroke:#181818;stroke-width:1.0;"/><path d="M1290.9375,110.8281 Q1290.1875,110.8281 1289.625,111.125 Q1289.0625,111.4063 1288.6719,111.9375 Q1288.2813,112.4688 1288.0781,113.25 Q1287.8906,114.0156 1287.8906,114.9688 Q1287.8906,115.9375 1288.0625,116.7031 Q1288.25,117.4531 1288.6094,117.9688 Q1288.9844,118.4844 1289.5625,118.7656 Q1290.1406,119.0313 1290.9375,119.0313 Q1291.6719,119.0313 1292.4063,118.8594 Q1293.1563,118.6875 1294.0313,118.3906 L1294.0313,120.5469 Q1293.625,120.7031 1293.2344,120.8281 Q1292.8438,120.9375 1292.4375,121.0156 Q1292.0313,121.0938 1291.6094,121.125 Q1291.1875,121.1719 1290.6875,121.1719 Q1289.2813,121.1719 1288.25,120.7188 Q1287.2344,120.2656 1286.5625,119.4531 Q1285.8906,118.6406 1285.5625,117.5 Q1285.2344,116.3438 1285.2344,114.9531 Q1285.2344,113.5781 1285.6094,112.4219 Q1285.9844,111.2656 1286.7031,110.4375 Q1287.4219,109.6094 1288.4844,109.1563 Q1289.5469,108.6875 1290.9375,108.6875 Q1291.8438,108.6875 1292.75,108.9219 Q1293.6563,109.1406 1294.4844,109.5469 L1293.6563,111.6406 Q1292.9688,111.3125 1292.2813,111.0781 Q1291.5938,110.8281 1290.9375,110.8281 Z " fill="#000000"/><text fill="#000000" font-family="sans-serif" font-size="14" lengthAdjust="spacing" textLength="104" x="1305" y="119.8467">Implementation</text></g><!--class TEntityCreator--><g id="elem_TEntityCreator"><rect codeLine="64" fill="#CCFFFF" height="32" id="TEntityCreator" rx="2.5" ry="2.5" style="stroke:#A9A9A9;stroke-width:0.5;" width="123" x="1694.5" y="7"/><ellipse cx="1709.5" cy="23" fill="#FFFFFF" rx="11" ry="11" style="stroke:#181818;stroke-width:1.0;"/><path d="M1710.9531,29.75 L1708.3906,29.75 L1708.3906,19.75 L1705.3438,19.75 L1705.3438,17.6094 L1713.9844,17.6094 L1713.9844,19.75 L1710.9531,19.75 L1710.9531,29.75 Z " fill="#000000"/><text fill="#000000" font-family="sans-serif" font-size="14" lengthAdjust="spacing" textLength="91" x="1723.5" y="27.8467">TEntityCreator</text></g><!--class FamixTypeScriptModel--><g id="elem_FamixTypeScriptModel"><rect codeLine="66" fill="#CCFFFF" height="32" id="FamixTypeScriptModel" rx="2.5" ry="2.5" style="stroke:#A9A9A9;stroke-width:0.5;" width="176" x="1668" y="99"/><ellipse cx="1683" cy="115" fill="#FFFFFF" rx="11" ry="11" style="stroke:#181818;stroke-width:1.0;"/><path d="M1682.9375,110.8281 Q1682.1875,110.8281 1681.625,111.125 Q1681.0625,111.4063 1680.6719,111.9375 Q1680.2813,112.4688 1680.0781,113.25 Q1679.8906,114.0156 1679.8906,114.9688 Q1679.8906,115.9375 1680.0625,116.7031 Q1680.25,117.4531 1680.6094,117.9688 Q1680.9844,118.4844 1681.5625,118.7656 Q1682.1406,119.0313 1682.9375,119.0313 Q1683.6719,119.0313 1684.4063,118.8594 Q1685.1563,118.6875 1686.0313,118.3906 L1686.0313,120.5469 Q1685.625,120.7031 1685.2344,120.8281 Q1684.8438,120.9375 1684.4375,121.0156 Q1684.0313,121.0938 1683.6094,121.125 Q1683.1875,121.1719 1682.6875,121.1719 Q1681.2813,121.1719 1680.25,120.7188 Q1679.2344,120.2656 1678.5625,119.4531 Q1677.8906,118.6406 1677.5625,117.5 Q1677.2344,116.3438 1677.2344,114.9531 Q1677.2344,113.5781 1677.6094,112.4219 Q1677.9844,111.2656 1678.7031,110.4375 Q1679.4219,109.6094 1680.4844,109.1563 Q1681.5469,108.6875 1682.9375,108.6875 Q1683.8438,108.6875 1684.75,108.9219 Q1685.6563,109.1406 1686.4844,109.5469 L1685.6563,111.6406 Q1684.9688,111.3125 1684.2813,111.0781 Q1683.5938,110.8281 1682.9375,110.8281 Z " fill="#000000"/><text fill="#000000" font-family="sans-serif" font-size="14" lengthAdjust="spacing" textLength="144" x="1697" y="119.8467">FamixTypeScriptModel</text></g><!--class Import--><g id="elem_Import"><rect codeLine="68" fill="#CCFFFF" height="32" id="Import" rx="2.5" ry="2.5" style="stroke:#A9A9A9;stroke-width:0.5;" width="77" x="1447.5" y="99"/><ellipse cx="1462.5" cy="115" fill="#FFFFFF" rx="11" ry="11" style="stroke:#181818;stroke-width:1.0;"/><path d="M1462.4375,110.8281 Q1461.6875,110.8281 1461.125,111.125 Q1460.5625,111.4063 1460.1719,111.9375 Q1459.7813,112.4688 1459.5781,113.25 Q1459.3906,114.0156 1459.3906,114.9688 Q1459.3906,115.9375 1459.5625,116.7031 Q1459.75,117.4531 1460.1094,117.9688 Q1460.4844,118.4844 1461.0625,118.7656 Q1461.6406,119.0313 1462.4375,119.0313 Q1463.1719,119.0313 1463.9063,118.8594 Q1464.6563,118.6875 1465.5313,118.3906 L1465.5313,120.5469 Q1465.125,120.7031 1464.7344,120.8281 Q1464.3438,120.9375 1463.9375,121.0156 Q1463.5313,121.0938 1463.1094,121.125 Q1462.6875,121.1719 1462.1875,121.1719 Q1460.7813,121.1719 1459.75,120.7188 Q1458.7344,120.2656 1458.0625,119.4531 Q1457.3906,118.6406 1457.0625,117.5 Q1456.7344,116.3438 1456.7344,114.9531 Q1456.7344,113.5781 1457.1094,112.4219 Q1457.4844,111.2656 1458.2031,110.4375 Q1458.9219,109.6094 1459.9844,109.1563 Q1461.0469,108.6875 1462.4375,108.6875 Q1463.3438,108.6875 1464.25,108.9219 Q1465.1563,109.1406 1465.9844,109.5469 L1465.1563,111.6406 Q1464.4688,111.3125 1463.7813,111.0781 Q1463.0938,110.8281 1462.4375,110.8281 Z " fill="#000000"/><text fill="#000000" font-family="sans-serif" font-size="14" lengthAdjust="spacing" textLength="45" x="1476.5" y="119.8467">Import</text></g><!--class TClassMetrics--><g id="elem_TClassMetrics"><rect codeLine="70" fill="#CCFFFF" height="32" id="TClassMetrics" rx="2.5" ry="2.5" style="stroke:#A9A9A9;stroke-width:0.5;" width="117" x="405.5" y="399"/><ellipse cx="420.5" cy="415" fill="#FFFFFF" rx="11" ry="11" style="stroke:#181818;stroke-width:1.0;"/><path d="M421.9531,421.75 L419.3906,421.75 L419.3906,411.75 L416.3438,411.75 L416.3438,409.6094 L424.9844,409.6094 L424.9844,411.75 L421.9531,411.75 L421.9531,421.75 Z " fill="#000000"/><text fill="#000000" font-family="sans-serif" font-size="14" lengthAdjust="spacing" textLength="85" x="434.5" y="419.8467">TClassMetrics</text></g><!--class EnumValue--><g id="elem_EnumValue"><rect codeLine="72" fill="#CCFFFF" height="32" id="EnumValue" rx="2.5" ry="2.5" style="stroke:#A9A9A9;stroke-width:0.5;" width="103" x="1040.5" y="295"/><ellipse cx="1055.5" cy="311" fill="#FFFFFF" rx="11" ry="11" style="stroke:#181818;stroke-width:1.0;"/><path d="M1055.4375,306.8281 Q1054.6875,306.8281 1054.125,307.125 Q1053.5625,307.4063 1053.1719,307.9375 Q1052.7813,308.4688 1052.5781,309.25 Q1052.3906,310.0156 1052.3906,310.9688 Q1052.3906,311.9375 1052.5625,312.7031 Q1052.75,313.4531 1053.1094,313.9688 Q1053.4844,314.4844 1054.0625,314.7656 Q1054.6406,315.0313 1055.4375,315.0313 Q1056.1719,315.0313 1056.9063,314.8594 Q1057.6563,314.6875 1058.5313,314.3906 L1058.5313,316.5469 Q1058.125,316.7031 1057.7344,316.8281 Q1057.3438,316.9375 1056.9375,317.0156 Q1056.5313,317.0938 1056.1094,317.125 Q1055.6875,317.1719 1055.1875,317.1719 Q1053.7813,317.1719 1052.75,316.7188 Q1051.7344,316.2656 1051.0625,315.4531 Q1050.3906,314.6406 1050.0625,313.5 Q1049.7344,312.3438 1049.7344,310.9531 Q1049.7344,309.5781 1050.1094,308.4219 Q1050.4844,307.2656 1051.2031,306.4375 Q1051.9219,305.6094 1052.9844,305.1563 Q1054.0469,304.6875 1055.4375,304.6875 Q1056.3438,304.6875 1057.25,304.9219 Q1058.1563,305.1406 1058.9844,305.5469 L1058.1563,307.6406 Q1057.4688,307.3125 1056.7813,307.0781 Q1056.0938,306.8281 1055.4375,306.8281 Z " fill="#000000"/><text fill="#000000" font-family="sans-serif" font-size="14" lengthAdjust="spacing" textLength="71" x="1069.5" y="315.8467">EnumValue</text></g><!--class Access--><g id="elem_Access"><rect codeLine="74" fill="#CCFFFF" height="32" id="Access" rx="2.5" ry="2.5" style="stroke:#A9A9A9;stroke-width:0.5;" width="73" x="1559.5" y="99"/><ellipse cx="1574.5" cy="115" fill="#FFFFFF" rx="11" ry="11" style="stroke:#181818;stroke-width:1.0;"/><path d="M1574.4375,110.8281 Q1573.6875,110.8281 1573.125,111.125 Q1572.5625,111.4063 1572.1719,111.9375 Q1571.7813,112.4688 1571.5781,113.25 Q1571.3906,114.0156 1571.3906,114.9688 Q1571.3906,115.9375 1571.5625,116.7031 Q1571.75,117.4531 1572.1094,117.9688 Q1572.4844,118.4844 1573.0625,118.7656 Q1573.6406,119.0313 1574.4375,119.0313 Q1575.1719,119.0313 1575.9063,118.8594 Q1576.6563,118.6875 1577.5313,118.3906 L1577.5313,120.5469 Q1577.125,120.7031 1576.7344,120.8281 Q1576.3438,120.9375 1575.9375,121.0156 Q1575.5313,121.0938 1575.1094,121.125 Q1574.6875,121.1719 1574.1875,121.1719 Q1572.7813,121.1719 1571.75,120.7188 Q1570.7344,120.2656 1570.0625,119.4531 Q1569.3906,118.6406 1569.0625,117.5 Q1568.7344,116.3438 1568.7344,114.9531 Q1568.7344,113.5781 1569.1094,112.4219 Q1569.4844,111.2656 1570.2031,110.4375 Q1570.9219,109.6094 1571.9844,109.1563 Q1573.0469,108.6875 1574.4375,108.6875 Q1575.3438,108.6875 1576.25,108.9219 Q1577.1563,109.1406 1577.9844,109.5469 L1577.1563,111.6406 Q1576.4688,111.3125 1575.7813,111.0781 Q1575.0938,110.8281 1574.4375,110.8281 Z " fill="#000000"/><text fill="#000000" font-family="sans-serif" font-size="14" lengthAdjust="spacing" textLength="41" x="1588.5" y="119.8467">Access</text></g><!--class Method--><g id="elem_Method"><rect codeLine="76" fill="#CCFFFF" height="32" id="Method" rx="2.5" ry="2.5" style="stroke:#A9A9A9;stroke-width:0.5;" width="81" x="1424.5" y="399"/><ellipse cx="1439.5" cy="415" fill="#FFFFFF" rx="11" ry="11" style="stroke:#181818;stroke-width:1.0;"/><path d="M1439.4375,410.8281 Q1438.6875,410.8281 1438.125,411.125 Q1437.5625,411.4063 1437.1719,411.9375 Q1436.7813,412.4688 1436.5781,413.25 Q1436.3906,414.0156 1436.3906,414.9688 Q1436.3906,415.9375 1436.5625,416.7031 Q1436.75,417.4531 1437.1094,417.9688 Q1437.4844,418.4844 1438.0625,418.7656 Q1438.6406,419.0313 1439.4375,419.0313 Q1440.1719,419.0313 1440.9063,418.8594 Q1441.6563,418.6875 1442.5313,418.3906 L1442.5313,420.5469 Q1442.125,420.7031 1441.7344,420.8281 Q1441.3438,420.9375 1440.9375,421.0156 Q1440.5313,421.0938 1440.1094,421.125 Q1439.6875,421.1719 1439.1875,421.1719 Q1437.7813,421.1719 1436.75,420.7188 Q1435.7344,420.2656 1435.0625,419.4531 Q1434.3906,418.6406 1434.0625,417.5 Q1433.7344,416.3438 1433.7344,414.9531 Q1433.7344,413.5781 1434.1094,412.4219 Q1434.4844,411.2656 1435.2031,410.4375 Q1435.9219,409.6094 1436.9844,409.1563 Q1438.0469,408.6875 1439.4375,408.6875 Q1440.3438,408.6875 1441.25,408.9219 Q1442.1563,409.1406 1442.9844,409.5469 L1442.1563,411.6406 Q1441.4688,411.3125 1440.7813,411.0781 Q1440.0938,410.8281 1439.4375,410.8281 Z " fill="#000000"/><text fill="#000000" font-family="sans-serif" font-size="14" lengthAdjust="spacing" textLength="49" x="1453.5" y="419.8467">Method</text></g><!--class Enum--><g id="elem_Enum"><rect codeLine="78" fill="#CCFFFF" height="32" id="Enum" rx="2.5" ry="2.5" style="stroke:#A9A9A9;stroke-width:0.5;" width="68" x="698" y="491"/><ellipse cx="713" cy="507" fill="#FFFFFF" rx="11" ry="11" style="stroke:#181818;stroke-width:1.0;"/><path d="M712.9375,502.8281 Q712.1875,502.8281 711.625,503.125 Q711.0625,503.4063 710.6719,503.9375 Q710.2813,504.4688 710.0781,505.25 Q709.8906,506.0156 709.8906,506.9688 Q709.8906,507.9375 710.0625,508.7031 Q710.25,509.4531 710.6094,509.9688 Q710.9844,510.4844 711.5625,510.7656 Q712.1406,511.0313 712.9375,511.0313 Q713.6719,511.0313 714.4063,510.8594 Q715.1563,510.6875 716.0313,510.3906 L716.0313,512.5469 Q715.625,512.7031 715.2344,512.8281 Q714.8438,512.9375 714.4375,513.0156 Q714.0313,513.0938 713.6094,513.125 Q713.1875,513.1719 712.6875,513.1719 Q711.2813,513.1719 710.25,512.7188 Q709.2344,512.2656 708.5625,511.4531 Q707.8906,510.6406 707.5625,509.5 Q707.2344,508.3438 707.2344,506.9531 Q707.2344,505.5781 707.6094,504.4219 Q707.9844,503.2656 708.7031,502.4375 Q709.4219,501.6094 710.4844,501.1563 Q711.5469,500.6875 712.9375,500.6875 Q713.8438,500.6875 714.75,500.9219 Q715.6563,501.1406 716.4844,501.5469 L715.6563,503.6406 Q714.9688,503.3125 714.2813,503.0781 Q713.5938,502.8281 712.9375,502.8281 Z " fill="#000000"/><text fill="#000000" font-family="sans-serif" font-size="14" lengthAdjust="spacing" textLength="36" x="727" y="511.8467">Enum</text></g><!--class Function--><g id="elem_Function"><rect codeLine="80" fill="#CCFFFF" height="32" id="Function" rx="2.5" ry="2.5" style="stroke:#A9A9A9;stroke-width:0.5;" width="86" x="1553" y="399"/><ellipse cx="1568" cy="415" fill="#FFFFFF" rx="11" ry="11" style="stroke:#181818;stroke-width:1.0;"/><path d="M1567.9375,410.8281 Q1567.1875,410.8281 1566.625,411.125 Q1566.0625,411.4063 1565.6719,411.9375 Q1565.2813,412.4688 1565.0781,413.25 Q1564.8906,414.0156 1564.8906,414.9688 Q1564.8906,415.9375 1565.0625,416.7031 Q1565.25,417.4531 1565.6094,417.9688 Q1565.9844,418.4844 1566.5625,418.7656 Q1567.1406,419.0313 1567.9375,419.0313 Q1568.6719,419.0313 1569.4063,418.8594 Q1570.1563,418.6875 1571.0313,418.3906 L1571.0313,420.5469 Q1570.625,420.7031 1570.2344,420.8281 Q1569.8438,420.9375 1569.4375,421.0156 Q1569.0313,421.0938 1568.6094,421.125 Q1568.1875,421.1719 1567.6875,421.1719 Q1566.2813,421.1719 1565.25,420.7188 Q1564.2344,420.2656 1563.5625,419.4531 Q1562.8906,418.6406 1562.5625,417.5 Q1562.2344,416.3438 1562.2344,414.9531 Q1562.2344,413.5781 1562.6094,412.4219 Q1562.9844,411.2656 1563.7031,410.4375 Q1564.4219,409.6094 1565.4844,409.1563 Q1566.5469,408.6875 1567.9375,408.6875 Q1568.8438,408.6875 1569.75,408.9219 Q1570.6563,409.1406 1571.4844,409.5469 L1570.6563,411.6406 Q1569.9688,411.3125 1569.2813,411.0781 Q1568.5938,410.8281 1567.9375,410.8281 Z " fill="#000000"/><text fill="#000000" font-family="sans-serif" font-size="14" lengthAdjust="spacing" textLength="54" x="1582" y="419.8467">Function</text></g><!--class Alias--><g id="elem_Alias"><rect codeLine="82" fill="#CCFFFF" height="32" id="Alias" rx="2.5" ry="2.5" style="stroke:#A9A9A9;stroke-width:0.5;" width="62" x="1179" y="295"/><ellipse cx="1194" cy="311" fill="#FFFFFF" rx="11" ry="11" style="stroke:#181818;stroke-width:1.0;"/><path d="M1193.9375,306.8281 Q1193.1875,306.8281 1192.625,307.125 Q1192.0625,307.4063 1191.6719,307.9375 Q1191.2813,308.4688 1191.0781,309.25 Q1190.8906,310.0156 1190.8906,310.9688 Q1190.8906,311.9375 1191.0625,312.7031 Q1191.25,313.4531 1191.6094,313.9688 Q1191.9844,314.4844 1192.5625,314.7656 Q1193.1406,315.0313 1193.9375,315.0313 Q1194.6719,315.0313 1195.4063,314.8594 Q1196.1563,314.6875 1197.0313,314.3906 L1197.0313,316.5469 Q1196.625,316.7031 1196.2344,316.8281 Q1195.8438,316.9375 1195.4375,317.0156 Q1195.0313,317.0938 1194.6094,317.125 Q1194.1875,317.1719 1193.6875,317.1719 Q1192.2813,317.1719 1191.25,316.7188 Q1190.2344,316.2656 1189.5625,315.4531 Q1188.8906,314.6406 1188.5625,313.5 Q1188.2344,312.3438 1188.2344,310.9531 Q1188.2344,309.5781 1188.6094,308.4219 Q1188.9844,307.2656 1189.7031,306.4375 Q1190.4219,305.6094 1191.4844,305.1563 Q1192.5469,304.6875 1193.9375,304.6875 Q1194.8438,304.6875 1195.75,304.9219 Q1196.6563,305.1406 1197.4844,305.5469 L1196.6563,307.6406 Q1195.9688,307.3125 1195.2813,307.0781 Q1194.5938,306.8281 1193.9375,306.8281 Z " fill="#000000"/><text fill="#000000" font-family="sans-serif" font-size="14" lengthAdjust="spacing" textLength="30" x="1208" y="315.8467">Alias</text></g><!--class Comment--><g id="elem_Comment"><rect codeLine="84" fill="#CCFFFF" height="32" id="Comment" rx="2.5" ry="2.5" style="stroke:#A9A9A9;stroke-width:0.5;" width="95" x="1047.5" y="191"/><ellipse cx="1062.5" cy="207" fill="#FFFFFF" rx="11" ry="11" style="stroke:#181818;stroke-width:1.0;"/><path d="M1062.4375,202.8281 Q1061.6875,202.8281 1061.125,203.125 Q1060.5625,203.4063 1060.1719,203.9375 Q1059.7813,204.4688 1059.5781,205.25 Q1059.3906,206.0156 1059.3906,206.9688 Q1059.3906,207.9375 1059.5625,208.7031 Q1059.75,209.4531 1060.1094,209.9688 Q1060.4844,210.4844 1061.0625,210.7656 Q1061.6406,211.0313 1062.4375,211.0313 Q1063.1719,211.0313 1063.9063,210.8594 Q1064.6563,210.6875 1065.5313,210.3906 L1065.5313,212.5469 Q1065.125,212.7031 1064.7344,212.8281 Q1064.3438,212.9375 1063.9375,213.0156 Q1063.5313,213.0938 1063.1094,213.125 Q1062.6875,213.1719 1062.1875,213.1719 Q1060.7813,213.1719 1059.75,212.7188 Q1058.7344,212.2656 1058.0625,211.4531 Q1057.3906,210.6406 1057.0625,209.5 Q1056.7344,208.3438 1056.7344,206.9531 Q1056.7344,205.5781 1057.1094,204.4219 Q1057.4844,203.2656 1058.2031,202.4375 Q1058.9219,201.6094 1059.9844,201.1563 Q1061.0469,200.6875 1062.4375,200.6875 Q1063.3438,200.6875 1064.25,200.9219 Q1065.1563,201.1406 1065.9844,201.5469 L1065.1563,203.6406 Q1064.4688,203.3125 1063.7813,203.0781 Q1063.0938,202.8281 1062.4375,202.8281 Z " fill="#000000"/><text fill="#000000" font-family="sans-serif" font-size="14" lengthAdjust="spacing" textLength="63" x="1076.5" y="211.8467">Comment</text></g><!--class PrimitiveType--><g id="elem_PrimitiveType"><rect codeLine="86" fill="#CCFFFF" height="32" id="PrimitiveType" rx="2.5" ry="2.5" style="stroke:#A9A9A9;stroke-width:0.5;" width="121" x="801.5" y="491"/><ellipse cx="816.5" cy="507" fill="#FFFFFF" rx="11" ry="11" style="stroke:#181818;stroke-width:1.0;"/><path d="M816.4375,502.8281 Q815.6875,502.8281 815.125,503.125 Q814.5625,503.4063 814.1719,503.9375 Q813.7813,504.4688 813.5781,505.25 Q813.3906,506.0156 813.3906,506.9688 Q813.3906,507.9375 813.5625,508.7031 Q813.75,509.4531 814.1094,509.9688 Q814.4844,510.4844 815.0625,510.7656 Q815.6406,511.0313 816.4375,511.0313 Q817.1719,511.0313 817.9063,510.8594 Q818.6563,510.6875 819.5313,510.3906 L819.5313,512.5469 Q819.125,512.7031 818.7344,512.8281 Q818.3438,512.9375 817.9375,513.0156 Q817.5313,513.0938 817.1094,513.125 Q816.6875,513.1719 816.1875,513.1719 Q814.7813,513.1719 813.75,512.7188 Q812.7344,512.2656 812.0625,511.4531 Q811.3906,510.6406 811.0625,509.5 Q810.7344,508.3438 810.7344,506.9531 Q810.7344,505.5781 811.1094,504.4219 Q811.4844,503.2656 812.2031,502.4375 Q812.9219,501.6094 813.9844,501.1563 Q815.0469,500.6875 816.4375,500.6875 Q817.3438,500.6875 818.25,500.9219 Q819.1563,501.1406 819.9844,501.5469 L819.1563,503.6406 Q818.4688,503.3125 817.7813,503.0781 Q817.0938,502.8281 816.4375,502.8281 Z " fill="#000000"/><text fill="#000000" font-family="sans-serif" font-size="14" lengthAdjust="spacing" textLength="89" x="830.5" y="511.8467">PrimitiveType</text></g><!--class TWithInterfaces--><g id="elem_TWithInterfaces"><rect codeLine="88" fill="#CCFFFF" height="32" id="TWithInterfaces" rx="2.5" ry="2.5" style="stroke:#A9A9A9;stroke-width:0.5;" width="132" x="1507" y="191"/><ellipse cx="1522" cy="207" fill="#FFFFFF" rx="11" ry="11" style="stroke:#181818;stroke-width:1.0;"/><path d="M1523.4531,213.75 L1520.8906,213.75 L1520.8906,203.75 L1517.8438,203.75 L1517.8438,201.6094 L1526.4844,201.6094 L1526.4844,203.75 L1523.4531,203.75 L1523.4531,213.75 Z " fill="#000000"/><text fill="#000000" font-family="sans-serif" font-size="14" lengthAdjust="spacing" textLength="100" x="1536" y="211.8467">TWithInterfaces</text></g><!--class ParametricClass--><g id="elem_ParametricClass"><rect codeLine="90" fill="#CCFFFF" height="32" id="ParametricClass" rx="2.5" ry="2.5" style="stroke:#A9A9A9;stroke-width:0.5;" width="133" x="398.5" y="583"/><ellipse cx="413.5" cy="599" fill="#FFFFFF" rx="11" ry="11" style="stroke:#181818;stroke-width:1.0;"/><path d="M413.4375,594.8281 Q412.6875,594.8281 412.125,595.125 Q411.5625,595.4063 411.1719,595.9375 Q410.7813,596.4688 410.5781,597.25 Q410.3906,598.0156 410.3906,598.9688 Q410.3906,599.9375 410.5625,600.7031 Q410.75,601.4531 411.1094,601.9688 Q411.4844,602.4844 412.0625,602.7656 Q412.6406,603.0313 413.4375,603.0313 Q414.1719,603.0313 414.9063,602.8594 Q415.6563,602.6875 416.5313,602.3906 L416.5313,604.5469 Q416.125,604.7031 415.7344,604.8281 Q415.3438,604.9375 414.9375,605.0156 Q414.5313,605.0938 414.1094,605.125 Q413.6875,605.1719 413.1875,605.1719 Q411.7813,605.1719 410.75,604.7188 Q409.7344,604.2656 409.0625,603.4531 Q408.3906,602.6406 408.0625,601.5 Q407.7344,600.3438 407.7344,598.9531 Q407.7344,597.5781 408.1094,596.4219 Q408.4844,595.2656 409.2031,594.4375 Q409.9219,593.6094 410.9844,593.1563 Q412.0469,592.6875 413.4375,592.6875 Q414.3438,592.6875 415.25,592.9219 Q416.1563,593.1406 416.9844,593.5469 L416.1563,595.6406 Q415.4688,595.3125 414.7813,595.0781 Q414.0938,594.8281 413.4375,594.8281 Z " fill="#000000"/><text fill="#000000" font-family="sans-serif" font-size="14" lengthAdjust="spacing" textLength="101" x="427.5" y="603.8467">ParametricClass</text></g><!--class implicitVariable--><g id="elem_implicitVariable"><rect codeLine="92" fill="#CCFFFF" height="32" id="implicitVariable" rx="2.5" ry="2.5" style="stroke:#A9A9A9;stroke-width:0.5;" width="132" x="558" y="399"/><ellipse cx="573" cy="415" fill="#FFFFFF" rx="11" ry="11" style="stroke:#181818;stroke-width:1.0;"/><path d="M572.9375,410.8281 Q572.1875,410.8281 571.625,411.125 Q571.0625,411.4063 570.6719,411.9375 Q570.2813,412.4688 570.0781,413.25 Q569.8906,414.0156 569.8906,414.9688 Q569.8906,415.9375 570.0625,416.7031 Q570.25,417.4531 570.6094,417.9688 Q570.9844,418.4844 571.5625,418.7656 Q572.1406,419.0313 572.9375,419.0313 Q573.6719,419.0313 574.4063,418.8594 Q575.1563,418.6875 576.0313,418.3906 L576.0313,420.5469 Q575.625,420.7031 575.2344,420.8281 Q574.8438,420.9375 574.4375,421.0156 Q574.0313,421.0938 573.6094,421.125 Q573.1875,421.1719 572.6875,421.1719 Q571.2813,421.1719 570.25,420.7188 Q569.2344,420.2656 568.5625,419.4531 Q567.8906,418.6406 567.5625,417.5 Q567.2344,416.3438 567.2344,414.9531 Q567.2344,413.5781 567.6094,412.4219 Q567.9844,411.2656 568.7031,410.4375 Q569.4219,409.6094 570.4844,409.1563 Q571.5469,408.6875 572.9375,408.6875 Q573.8438,408.6875 574.75,408.9219 Q575.6563,409.1406 576.4844,409.5469 L575.6563,411.6406 Q574.9688,411.3125 574.2813,411.0781 Q573.5938,410.8281 572.9375,410.8281 Z " fill="#000000"/><text fill="#000000" font-family="sans-serif" font-size="14" lengthAdjust="spacing" textLength="100" x="587" y="419.8467">implicitVariable</text></g><!--class ParametricMethod--><g id="elem_ParametricMethod"><rect codeLine="94" fill="#CCFFFF" height="32" id="ParametricMethod" rx="2.5" ry="2.5" style="stroke:#A9A9A9;stroke-width:0.5;" width="151" x="1389.5" y="491"/><ellipse cx="1404.5" cy="507" fill="#FFFFFF" rx="11" ry="11" style="stroke:#181818;stroke-width:1.0;"/><path d="M1404.4375,502.8281 Q1403.6875,502.8281 1403.125,503.125 Q1402.5625,503.4063 1402.1719,503.9375 Q1401.7813,504.4688 1401.5781,505.25 Q1401.3906,506.0156 1401.3906,506.9688 Q1401.3906,507.9375 1401.5625,508.7031 Q1401.75,509.4531 1402.1094,509.9688 Q1402.4844,510.4844 1403.0625,510.7656 Q1403.6406,511.0313 1404.4375,511.0313 Q1405.1719,511.0313 1405.9063,510.8594 Q1406.6563,510.6875 1407.5313,510.3906 L1407.5313,512.5469 Q1407.125,512.7031 1406.7344,512.8281 Q1406.3438,512.9375 1405.9375,513.0156 Q1405.5313,513.0938 1405.1094,513.125 Q1404.6875,513.1719 1404.1875,513.1719 Q1402.7813,513.1719 1401.75,512.7188 Q1400.7344,512.2656 1400.0625,511.4531 Q1399.3906,510.6406 1399.0625,509.5 Q1398.7344,508.3438 1398.7344,506.9531 Q1398.7344,505.5781 1399.1094,504.4219 Q1399.4844,503.2656 1400.2031,502.4375 Q1400.9219,501.6094 1401.9844,501.1563 Q1403.0469,500.6875 1404.4375,500.6875 Q1405.3438,500.6875 1406.25,500.9219 Q1407.1563,501.1406 1407.9844,501.5469 L1407.1563,503.6406 Q1406.4688,503.3125 1405.7813,503.0781 Q1405.0938,502.8281 1404.4375,502.8281 Z " fill="#000000"/><text fill="#000000" font-family="sans-serif" font-size="14" lengthAdjust="spacing" textLength="119" x="1418.5" y="511.8467">ParametricMethod</text></g><!--class Property--><g id="elem_Property"><rect codeLine="96" fill="#CCFFFF" height="32" id="Property" rx="2.5" ry="2.5" style="stroke:#A9A9A9;stroke-width:0.5;" width="88" x="1276" y="295"/><ellipse cx="1291" cy="311" fill="#FFFFFF" rx="11" ry="11" style="stroke:#181818;stroke-width:1.0;"/><path d="M1290.9375,306.8281 Q1290.1875,306.8281 1289.625,307.125 Q1289.0625,307.4063 1288.6719,307.9375 Q1288.2813,308.4688 1288.0781,309.25 Q1287.8906,310.0156 1287.8906,310.9688 Q1287.8906,311.9375 1288.0625,312.7031 Q1288.25,313.4531 1288.6094,313.9688 Q1288.9844,314.4844 1289.5625,314.7656 Q1290.1406,315.0313 1290.9375,315.0313 Q1291.6719,315.0313 1292.4063,314.8594 Q1293.1563,314.6875 1294.0313,314.3906 L1294.0313,316.5469 Q1293.625,316.7031 1293.2344,316.8281 Q1292.8438,316.9375 1292.4375,317.0156 Q1292.0313,317.0938 1291.6094,317.125 Q1291.1875,317.1719 1290.6875,317.1719 Q1289.2813,317.1719 1288.25,316.7188 Q1287.2344,316.2656 1286.5625,315.4531 Q1285.8906,314.6406 1285.5625,313.5 Q1285.2344,312.3438 1285.2344,310.9531 Q1285.2344,309.5781 1285.6094,308.4219 Q1285.9844,307.2656 1286.7031,306.4375 Q1287.4219,305.6094 1288.4844,305.1563 Q1289.5469,304.6875 1290.9375,304.6875 Q1291.8438,304.6875 1292.75,304.9219 Q1293.6563,305.1406 1294.4844,305.5469 L1293.6563,307.6406 Q1292.9688,307.3125 1292.2813,307.0781 Q1291.5938,306.8281 1290.9375,306.8281 Z " fill="#000000"/><text fill="#000000" font-family="sans-serif" font-size="14" lengthAdjust="spacing" textLength="56" x="1305" y="315.8467">Property</text></g><!--class VariableStatement--><g id="elem_VariableStatement"><rect codeLine="98" fill="#CCFFFF" height="32" id="VariableStatement" rx="2.5" ry="2.5" style="stroke:#A9A9A9;stroke-width:0.5;" width="150" x="957" y="491"/><ellipse cx="972" cy="507" fill="#FFFFFF" rx="11" ry="11" style="stroke:#181818;stroke-width:1.0;"/><path d="M971.9375,502.8281 Q971.1875,502.8281 970.625,503.125 Q970.0625,503.4063 969.6719,503.9375 Q969.2813,504.4688 969.0781,505.25 Q968.8906,506.0156 968.8906,506.9688 Q968.8906,507.9375 969.0625,508.7031 Q969.25,509.4531 969.6094,509.9688 Q969.9844,510.4844 970.5625,510.7656 Q971.1406,511.0313 971.9375,511.0313 Q972.6719,511.0313 973.4063,510.8594 Q974.1563,510.6875 975.0313,510.3906 L975.0313,512.5469 Q974.625,512.7031 974.2344,512.8281 Q973.8438,512.9375 973.4375,513.0156 Q973.0313,513.0938 972.6094,513.125 Q972.1875,513.1719 971.6875,513.1719 Q970.2813,513.1719 969.25,512.7188 Q968.2344,512.2656 967.5625,511.4531 Q966.8906,510.6406 966.5625,509.5 Q966.2344,508.3438 966.2344,506.9531 Q966.2344,505.5781 966.6094,504.4219 Q966.9844,503.2656 967.7031,502.4375 Q968.4219,501.6094 969.4844,501.1563 Q970.5469,500.6875 971.9375,500.6875 Q972.8438,500.6875 973.75,500.9219 Q974.6563,501.1406 975.4844,501.5469 L974.6563,503.6406 Q973.9688,503.3125 973.2813,503.0781 Q972.5938,502.8281 971.9375,502.8281 Z " fill="#000000"/><text fill="#000000" font-family="sans-serif" font-size="14" lengthAdjust="spacing" textLength="118" x="986" y="511.8467">VariableStatement</text></g><!--class Folder--><g id="elem_Folder"><rect codeLine="100" fill="#CCFFFF" height="32" id="Folder" rx="2.5" ry="2.5" style="stroke:#A9A9A9;stroke-width:0.5;" width="73" x="1399.5" y="295"/><ellipse cx="1414.5" cy="311" fill="#FFFFFF" rx="11" ry="11" style="stroke:#181818;stroke-width:1.0;"/><path d="M1414.4375,306.8281 Q1413.6875,306.8281 1413.125,307.125 Q1412.5625,307.4063 1412.1719,307.9375 Q1411.7813,308.4688 1411.5781,309.25 Q1411.3906,310.0156 1411.3906,310.9688 Q1411.3906,311.9375 1411.5625,312.7031 Q1411.75,313.4531 1412.1094,313.9688 Q1412.4844,314.4844 1413.0625,314.7656 Q1413.6406,315.0313 1414.4375,315.0313 Q1415.1719,315.0313 1415.9063,314.8594 Q1416.6563,314.6875 1417.5313,314.3906 L1417.5313,316.5469 Q1417.125,316.7031 1416.7344,316.8281 Q1416.3438,316.9375 1415.9375,317.0156 Q1415.5313,317.0938 1415.1094,317.125 Q1414.6875,317.1719 1414.1875,317.1719 Q1412.7813,317.1719 1411.75,316.7188 Q1410.7344,316.2656 1410.0625,315.4531 Q1409.3906,314.6406 1409.0625,313.5 Q1408.7344,312.3438 1408.7344,310.9531 Q1408.7344,309.5781 1409.1094,308.4219 Q1409.4844,307.2656 1410.2031,306.4375 Q1410.9219,305.6094 1411.9844,305.1563 Q1413.0469,304.6875 1414.4375,304.6875 Q1415.3438,304.6875 1416.25,304.9219 Q1417.1563,305.1406 1417.9844,305.5469 L1417.1563,307.6406 Q1416.4688,307.3125 1415.7813,307.0781 Q1415.0938,306.8281 1414.4375,306.8281 Z " fill="#000000"/><text fill="#000000" font-family="sans-serif" font-size="14" lengthAdjust="spacing" textLength="41" x="1428.5" y="315.8467">Folder</text></g><!--class ScriptEntity--><g id="elem_ScriptEntity"><rect codeLine="102" fill="#CCFFFF" height="32" id="ScriptEntity" rx="2.5" ry="2.5" style="stroke:#A9A9A9;stroke-width:0.5;" width="104" x="1719" y="399"/><ellipse cx="1734" cy="415" fill="#FFFFFF" rx="11" ry="11" style="stroke:#181818;stroke-width:1.0;"/><path d="M1733.9375,410.8281 Q1733.1875,410.8281 1732.625,411.125 Q1732.0625,411.4063 1731.6719,411.9375 Q1731.2813,412.4688 1731.0781,413.25 Q1730.8906,414.0156 1730.8906,414.9688 Q1730.8906,415.9375 1731.0625,416.7031 Q1731.25,417.4531 1731.6094,417.9688 Q1731.9844,418.4844 1732.5625,418.7656 Q1733.1406,419.0313 1733.9375,419.0313 Q1734.6719,419.0313 1735.4063,418.8594 Q1736.1563,418.6875 1737.0313,418.3906 L1737.0313,420.5469 Q1736.625,420.7031 1736.2344,420.8281 Q1735.8438,420.9375 1735.4375,421.0156 Q1735.0313,421.0938 1734.6094,421.125 Q1734.1875,421.1719 1733.6875,421.1719 Q1732.2813,421.1719 1731.25,420.7188 Q1730.2344,420.2656 1729.5625,419.4531 Q1728.8906,418.6406 1728.5625,417.5 Q1728.2344,416.3438 1728.2344,414.9531 Q1728.2344,413.5781 1728.6094,412.4219 Q1728.9844,411.2656 1729.7031,410.4375 Q1730.4219,409.6094 1731.4844,409.1563 Q1732.5469,408.6875 1733.9375,408.6875 Q1734.8438,408.6875 1735.75,408.9219 Q1736.6563,409.1406 1737.4844,409.5469 L1736.6563,411.6406 Q1735.9688,411.3125 1735.2813,411.0781 Q1734.5938,410.8281 1733.9375,410.8281 Z " fill="#000000"/><text fill="#000000" font-family="sans-serif" font-size="14" lengthAdjust="spacing" textLength="72" x="1748" y="419.8467">ScriptEntity</text></g><!--class Interface--><g id="elem_Interface"><rect codeLine="104" fill="#CCFFFF" height="32" id="Interface" rx="2.5" ry="2.5" style="stroke:#A9A9A9;stroke-width:0.5;" width="90" x="1142" y="491"/><ellipse cx="1157" cy="507" fill="#FFFFFF" rx="11" ry="11" style="stroke:#181818;stroke-width:1.0;"/><path d="M1156.9375,502.8281 Q1156.1875,502.8281 1155.625,503.125 Q1155.0625,503.4063 1154.6719,503.9375 Q1154.2813,504.4688 1154.0781,505.25 Q1153.8906,506.0156 1153.8906,506.9688 Q1153.8906,507.9375 1154.0625,508.7031 Q1154.25,509.4531 1154.6094,509.9688 Q1154.9844,510.4844 1155.5625,510.7656 Q1156.1406,511.0313 1156.9375,511.0313 Q1157.6719,511.0313 1158.4063,510.8594 Q1159.1563,510.6875 1160.0313,510.3906 L1160.0313,512.5469 Q1159.625,512.7031 1159.2344,512.8281 Q1158.8438,512.9375 1158.4375,513.0156 Q1158.0313,513.0938 1157.6094,513.125 Q1157.1875,513.1719 1156.6875,513.1719 Q1155.2813,513.1719 1154.25,512.7188 Q1153.2344,512.2656 1152.5625,511.4531 Q1151.8906,510.6406 1151.5625,509.5 Q1151.2344,508.3438 1151.2344,506.9531 Q1151.2344,505.5781 1151.6094,504.4219 Q1151.9844,503.2656 1152.7031,502.4375 Q1153.4219,501.6094 1154.4844,501.1563 Q1155.5469,500.6875 1156.9375,500.6875 Q1157.8438,500.6875 1158.75,500.9219 Q1159.6563,501.1406 1160.4844,501.5469 L1159.6563,503.6406 Q1158.9688,503.3125 1158.2813,503.0781 Q1157.5938,502.8281 1156.9375,502.8281 Z " fill="#000000"/><text fill="#000000" font-family="sans-serif" font-size="14" lengthAdjust="spacing" textLength="58" x="1171" y="511.8467">Interface</text></g><!--reverse link SourceAnchor to SourceTextAnchor--><g id="link_SourceAnchor_SourceTextAnchor"><path codeLine="106" d="M206.06,145.29 C190.47,160.54 172.07,178.54 159.38,190.96 " fill="none" id="SourceAnchor-backto-SourceTextAnchor" style="stroke:#000000;stroke-width:1.0;"/><polygon fill="none" points="201.2,140.25,220.39,131.27,210.99,150.26,201.2,140.25" style="stroke:#000000;stroke-width:1.0;"/></g><!--reverse link ContainerEntity to Namespace--><g id="link_ContainerEntity_Namespace"><path codeLine="107" d="M1513.21,333.09 C1505.47,335.34 1497.59,337.39 1490,339 C1239.54,392.23 1169.88,358.78 917,399 C911.35,399.9 905.48,400.96 899.63,402.09 " fill="none" id="ContainerEntity-backto-Namespace" style="stroke:#000000;stroke-width:1.0;"/><polygon fill="none" points="1511.34,326.34,1532.51,327.05,1515.52,339.71,1511.34,326.34" style="stroke:#000000;stroke-width:1.0;"/></g><!--reverse link NamedEntity to Decorator--><g id="link_NamedEntity_Decorator"><path codeLine="108" d="M877.97,220.11 C872.87,221.1 867.85,222.07 863,223 C717.45,250.87 678.33,245.32 535,283 C534.86,283.04 534.72,283.07 534.58,283.11 " fill="none" id="NamedEntity-backto-Decorator" style="stroke:#000000;stroke-width:1.0;"/><polygon fill="none" points="876.81,213.2,897.78,216.3,879.46,226.95,876.81,213.2" style="stroke:#000000;stroke-width:1.0;"/></g><!--link Decorator to NamedEntity--><g id="link_Decorator_NamedEntity"><path codeLine="153" d="M535.21,293.54 C546.84,289.74 558.77,285.95 570,283 C713.19,245.36 752.37,250.86 897.57,223.08 " fill="none" id="Decorator-NamedEntity" style="stroke:#000000;stroke-width:1.0;"/><text fill="#000000" font-family="sans-serif" font-size="13" lengthAdjust="spacing" textLength="71" x="537.1444" y="283.9898">decorators*</text><text fill="#000000" font-family="sans-serif" font-size="13" lengthAdjust="spacing" textLength="92" x="812.8964" y="243.029">decoratedEntity</text></g><!--reverse link NamedEntity to Variable--><g id="link_NamedEntity_Variable"><path codeLine="109" d="M878.07,224.78 C820.57,238.2 740.41,258.73 672,283 C662.42,286.4 652.25,290.7 643.05,294.86 " fill="none" id="NamedEntity-backto-Variable" style="stroke:#000000;stroke-width:1.0;"/><polygon fill="none" points="876.73,217.91,897.79,220.26,879.86,231.56,876.73,217.91" style="stroke:#000000;stroke-width:1.0;"/></g><!--reverse link Type to ParameterType--><g id="link_Type_ParameterType"><path codeLine="110" d="M915.59,431.08 C817.28,457.43 723.79,478.69 663.08,492.02 " fill="none" id="Type-backto-ParameterType" style="stroke:#000000;stroke-width:1.0;"/><polygon fill="none" points="913.85,424.3,934.98,425.83,917.51,437.81,913.85,424.3" style="stroke:#000000;stroke-width:1.0;"/></g><!--reverse link Type to Class--><g id="link_Type_Class"><path codeLine="111" d="M915.15,430.71 C737.23,469.62 685.19,452.98 515,491 C508.99,492.34 502.64,494.03 496.56,495.79 " fill="none" id="Type-backto-Class" style="stroke:#000000;stroke-width:1.0;"/><polygon fill="none" points="913.77,423.85,934.82,426.3,916.84,437.51,913.77,423.85" style="stroke:#000000;stroke-width:1.0;"/></g><!--reverse link NamedEntity to File--><g id="link_NamedEntity_File"><path codeLine="112" d="M891.14,229.72 C852.98,243.46 803.92,262.46 762,283 C754.8,286.53 747.23,290.82 740.4,294.94 " fill="none" id="NamedEntity-backto-File" style="stroke:#000000;stroke-width:1.0;"/><polygon fill="none" points="888.82,223.12,910.01,223.04,893.49,236.32,888.82,223.12" style="stroke:#000000;stroke-width:1.0;"/></g><!--reverse link Interface to ParametricInterface--><g id="link_Interface_ParametricInterface"><path codeLine="113" d="M1187,543.61 C1187,557.31 1187,572.22 1187,582.96 " fill="none" id="Interface-backto-ParametricInterface" style="stroke:#000000;stroke-width:1.0;"/><polygon fill="none" points="1180,543.27,1187,523.27,1194,543.27,1180,543.27" style="stroke:#000000;stroke-width:1.0;"/></g><!--reverse link SourcedEntity to JSDoc--><g id="link_SourcedEntity_JSDoc"><path codeLine="114" d="M917.59,142.72 C895.57,158.45 868.53,177.76 850.16,190.89 " fill="none" id="SourcedEntity-backto-JSDoc" style="stroke:#000000;stroke-width:1.0;"/><polygon fill="none" points="913.57,136.99,933.91,131.06,921.7,148.38,913.57,136.99" style="stroke:#000000;stroke-width:1.0;"/></g><!--reverse link Function to ParametricFunction--><g id="link_Function_ParametricFunction"><path codeLine="115" d="M1616.74,448.18 C1626.14,462.77 1636.8,479.31 1644.31,490.96 " fill="none" id="Function-backto-ParametricFunction" style="stroke:#000000;stroke-width:1.0;"/><polygon fill="none" points="1610.79,451.87,1605.84,431.27,1622.56,444.29,1610.79,451.87" style="stroke:#000000;stroke-width:1.0;"/></g><!--reverse link Entity to SourceLanguage--><g id="link_Entity_SourceLanguage"><path codeLine="116" d="M757.83,29.06 C645.64,39.78 379.8,66.51 158,99 C152.58,99.79 146.97,100.67 141.34,101.59 " fill="none" id="Entity-backto-SourceLanguage" style="stroke:#000000;stroke-width:1.0;"/><polygon fill="none" points="757.29,22.08,777.86,27.16,758.61,36.01,757.29,22.08" style="stroke:#000000;stroke-width:1.0;"/></g><!--reverse link NamedEntity to Attribute--><g id="link_NamedEntity_Attribute"><path codeLine="117" d="M920,235.46 C895.67,254.55 864.17,279.27 844.26,294.89 " fill="none" id="NamedEntity-backto-Attribute" style="stroke:#000000;stroke-width:1.0;"/><polygon fill="none" points="915.76,229.89,935.82,223.05,924.4,240.9,915.76,229.89" style="stroke:#000000;stroke-width:1.0;"/></g><!--reverse link ContainerEntity to Type--><g id="link_ContainerEntity_Type"><path codeLine="118" d="M1512.33,333.06 C1504.86,335.26 1497.29,337.31 1490,339 C1305.6,381.85 1078.67,404.3 997.06,411.44 " fill="none" id="ContainerEntity-backto-Type" style="stroke:#000000;stroke-width:1.0;"/><polygon fill="none" points="1510.42,326.32,1531.6,327.02,1514.61,339.68,1510.42,326.32" style="stroke:#000000;stroke-width:1.0;"/></g><!--reverse link Entity to SourceAnchor--><g id="link_Entity_SourceAnchor"><path codeLine="119" d="M757.76,31.43 C666.14,44.16 474.96,71.41 314,99 C308.29,99.98 302.36,101.04 296.42,102.13 " fill="none" id="Entity-backto-SourceAnchor" style="stroke:#000000;stroke-width:1.0;"/><polygon fill="none" points="757.04,24.47,777.81,28.66,758.96,38.34,757.04,24.47" style="stroke:#000000;stroke-width:1.0;"/></g><!--reverse link Entity to Inheritance--><g id="link_Entity_Inheritance"><path codeLine="120" d="M758.06,35.22 C687.98,49.82 561.81,76.16 454,99 C448.41,100.19 442.56,101.43 436.74,102.67 " fill="none" id="Entity-backto-Inheritance" style="stroke:#000000;stroke-width:1.0;"/><polygon fill="none" points="756.92,28.31,777.93,31.08,759.78,42.01,756.92,28.31" style="stroke:#000000;stroke-width:1.0;"/></g><!--reverse link SourceAnchor to IndexedFileAnchor--><g id="link_SourceAnchor_IndexedFileAnchor"><path codeLine="121" d="M266.27,145.29 C282.02,160.54 300.62,178.54 313.46,190.96 " fill="none" id="SourceAnchor-backto-IndexedFileAnchor" style="stroke:#000000;stroke-width:1.0;"/><polygon fill="none" points="261.28,150.21,251.78,131.27,271.02,140.15,261.28,150.21" style="stroke:#000000;stroke-width:1.0;"/></g><!--reverse link Entity to Concretization--><g id="link_Entity_Concretization"><path codeLine="122" d="M758.66,41.21 C706.85,57.92 628.97,83.04 579.58,98.97 " fill="none" id="Entity-backto-Concretization" style="stroke:#000000;stroke-width:1.0;"/><polygon fill="none" points="756.61,34.51,777.79,35.04,760.9,47.84,756.61,34.51" style="stroke:#000000;stroke-width:1.0;"/></g><!--reverse link ScriptEntity to Module--><g id="link_ScriptEntity_Module"><path codeLine="123" d="M1784.65,450.13 C1790.29,464.23 1796.53,479.83 1800.98,490.96 " fill="none" id="ScriptEntity-backto-Module" style="stroke:#000000;stroke-width:1.0;"/><polygon fill="none" points="1778.04,452.44,1777.11,431.27,1791.03,447.24,1778.04,452.44" style="stroke:#000000;stroke-width:1.0;"/></g><!--reverse link SourcedEntity to NamedEntity--><g id="link_SourcedEntity_NamedEntity"><path codeLine="124" d="M955,151.61 C955,165.31 955,180.22 955,190.96 " fill="none" id="SourcedEntity-backto-NamedEntity" style="stroke:#000000;stroke-width:1.0;"/><polygon fill="none" points="948,151.27,955,131.27,962,151.27,948,151.27" style="stroke:#000000;stroke-width:1.0;"/></g><!--reverse link NamedEntity to ContainerEntity--><g id="link_NamedEntity_ContainerEntity"><path codeLine="125" d="M1032.2,223.1 C1236.98,255.46 1295.07,238.98 1490,283 C1503.75,286.1 1518.46,290.52 1531.62,294.88 " fill="none" id="NamedEntity-backto-ContainerEntity" style="stroke:#000000;stroke-width:1.0;"/><polygon fill="none" points="1030.88,229.97,1012.25,219.87,1033.12,216.16,1030.88,229.97" style="stroke:#000000;stroke-width:1.0;"/></g><!--reverse link Method to Accessor--><g id="link_Method_Accessor"><path codeLine="126" d="M1421.66,441.33 C1394.34,457.29 1359.98,477.37 1336.86,490.89 " fill="none" id="Method-backto-Accessor" style="stroke:#000000;stroke-width:1.0;"/><polygon fill="none" points="1418.42,435.11,1439.22,431.06,1425.49,447.2,1418.42,435.11" style="stroke:#000000;stroke-width:1.0;"/></g><!--reverse link Entity to Invocation--><g id="link_Entity_Invocation"><path codeLine="127" d="M772.86,50.49 C749.56,66.26 720.83,85.7 701.33,98.89 " fill="none" id="Entity-backto-Invocation" style="stroke:#000000;stroke-width:1.0;"/><polygon fill="none" points="769.25,44.48,789.74,39.06,777.1,56.07,769.25,44.48" style="stroke:#000000;stroke-width:1.0;"/></g><!--reverse link Entity to Reference--><g id="link_Entity_Reference"><path codeLine="128" d="M812,59.61 C812,73.31 812,88.22 812,98.96 " fill="none" id="Entity-backto-Reference" style="stroke:#000000;stroke-width:1.0;"/><polygon fill="none" points="805,59.27,812,39.27,819,59.27,805,59.27" style="stroke:#000000;stroke-width:1.0;"/></g><!--reverse link NamedEntity to Parameter--><g id="link_NamedEntity_Parameter"><path codeLine="129" d="M955,243.19 C955,260.84 955,281.31 955,294.89 " fill="none" id="NamedEntity-backto-Parameter" style="stroke:#000000;stroke-width:1.0;"/><polygon fill="none" points="948,243.05,955,223.05,962,243.05,948,243.05" style="stroke:#000000;stroke-width:1.0;"/></g><!--reverse link Entity to SourcedEntity--><g id="link_Entity_SourcedEntity"><path codeLine="130" d="M852.98,49.79 C878.22,65.68 909.72,85.5 930.99,98.89 " fill="none" id="Entity-backto-SourcedEntity" style="stroke:#000000;stroke-width:1.0;"/><polygon fill="none" points="849.13,55.64,835.93,39.06,856.59,43.79,849.13,55.64" style="stroke:#000000;stroke-width:1.0;"/></g><!--reverse link Entity to ParameterConcretization--><g id="link_Entity_ParameterConcretization"><path codeLine="131" d="M865.69,38.51 C927.14,55.12 1027.3,82.19 1089.5,99 " fill="none" id="Entity-backto-ParameterConcretization" style="stroke:#000000;stroke-width:1.0;"/><polygon fill="none" points="863.55,45.18,846.07,33.21,867.21,31.67,863.55,45.18" style="stroke:#000000;stroke-width:1.0;"/></g><!--reverse link Entity to Implementation--><g id="link_Entity_Implementation"><path codeLine="132" d="M866.11,32.99 C950.04,46.96 1116.68,74.79 1258,99 C1263.83,100 1269.87,101.04 1275.94,102.09 " fill="none" id="Entity-backto-Implementation" style="stroke:#000000;stroke-width:1.0;"/><polygon fill="none" points="864.72,39.86,846.14,29.67,867.02,26.05,864.72,39.86" style="stroke:#000000;stroke-width:1.0;"/></g><!--reverse link Entity to Import--><g id="link_Entity_Import"><path codeLine="133" d="M866.26,28.09 C974.16,36.78 1223.01,59.57 1429,99 C1434.93,100.14 1441.15,101.54 1447.22,103.04 " fill="none" id="Entity-backto-Import" style="stroke:#000000;stroke-width:1.0;"/><polygon fill="none" points="865.42,35.05,846.03,26.5,866.52,21.09,865.42,35.05" style="stroke:#000000;stroke-width:1.0;"/></g><!--reverse link NamedEntity to EnumValue--><g id="link_NamedEntity_EnumValue"><path codeLine="134" d="M991.51,235.19 C1017.2,254.31 1050.62,279.19 1071.7,294.89 " fill="none" id="NamedEntity-backto-EnumValue" style="stroke:#000000;stroke-width:1.0;"/><polygon fill="none" points="987.08,240.61,975.21,223.05,995.44,229.38,987.08,240.61" style="stroke:#000000;stroke-width:1.0;"/></g><!--reverse link Entity to Access--><g id="link_Entity_Access"><path codeLine="135" d="M866.39,26.45 C988.27,32.62 1292.18,51.82 1542,99 C1547.64,100.07 1553.55,101.44 1559.3,102.92 " fill="none" id="Entity-backto-Access" style="stroke:#000000;stroke-width:1.0;"/><polygon fill="none" points="865.77,33.43,846.13,25.46,866.45,19.44,865.77,33.43" style="stroke:#000000;stroke-width:1.0;"/></g><!--reverse link ContainerEntity to Method--><g id="link_ContainerEntity_Method"><path codeLine="136" d="M1542.45,340.85 C1522.45,359.74 1497.14,383.65 1481,398.89 " fill="none" id="ContainerEntity-backto-Method" style="stroke:#000000;stroke-width:1.0;"/><polygon fill="none" points="1537.72,335.69,1557.06,327.05,1547.33,345.87,1537.72,335.69" style="stroke:#000000;stroke-width:1.0;"/></g><!--reverse link Type to Enum--><g id="link_Type_Enum"><path codeLine="137" d="M916.07,435.2 C870.94,452.56 805.72,477.65 766.24,492.83 " fill="none" id="Type-backto-Enum" style="stroke:#000000;stroke-width:1.0;"/><polygon fill="none" points="913.75,428.6,934.93,427.95,918.77,441.66,913.75,428.6" style="stroke:#000000;stroke-width:1.0;"/></g><!--reverse link ContainerEntity to Function--><g id="link_ContainerEntity_Function"><path codeLine="138" d="M1580.8,346.6 C1584.81,364.39 1589.5,385.16 1592.59,398.89 " fill="none" id="ContainerEntity-backto-Function" style="stroke:#000000;stroke-width:1.0;"/><polygon fill="none" points="1573.96,348.1,1576.39,327.05,1587.62,345.02,1573.96,348.1" style="stroke:#000000;stroke-width:1.0;"/></g><!--reverse link NamedEntity to Alias--><g id="link_NamedEntity_Alias"><path codeLine="139" d="M1021.86,229.42 C1062.68,243.21 1115.59,262.37 1161,283 C1168.78,286.54 1177,290.83 1184.44,294.95 " fill="none" id="NamedEntity-backto-Alias" style="stroke:#000000;stroke-width:1.0;"/><polygon fill="none" points="1019.64,236.05,1002.88,223.09,1024.06,222.77,1019.64,236.05" style="stroke:#000000;stroke-width:1.0;"/></g><!--reverse link SourcedEntity to Comment--><g id="link_SourcedEntity_Comment"><path codeLine="140" d="M995.48,142.02 C1020.13,157.87 1050.77,177.57 1071.49,190.89 " fill="none" id="SourcedEntity-backto-Comment" style="stroke:#000000;stroke-width:1.0;"/><polygon fill="none" points="991.47,147.77,978.43,131.06,999.04,135.99,991.47,147.77" style="stroke:#000000;stroke-width:1.0;"/></g><!--reverse link Type to PrimitiveType--><g id="link_Type_PrimitiveType"><path codeLine="141" d="M932.98,444.58 C915.19,459.97 893.96,478.34 879.38,490.96 " fill="none" id="Type-backto-PrimitiveType" style="stroke:#000000;stroke-width:1.0;"/><polygon fill="none" points="928.65,439.06,948.36,431.27,937.82,449.65,928.65,439.06" style="stroke:#000000;stroke-width:1.0;"/></g><!--reverse link Class to ParametricClass--><g id="link_Class_ParametricClass"><path codeLine="142" d="M465,543.61 C465,557.31 465,572.22 465,582.96 " fill="none" id="Class-backto-ParametricClass" style="stroke:#000000;stroke-width:1.0;"/><polygon fill="none" points="458,543.27,465,523.27,472,543.27,458,543.27" style="stroke:#000000;stroke-width:1.0;"/></g><!--reverse link Variable to implicitVariable--><g id="link_Variable_implicitVariable"><path codeLine="143" d="M616.14,347.19 C618.22,364.84 620.62,385.31 622.22,398.89 " fill="none" id="Variable-backto-implicitVariable" style="stroke:#000000;stroke-width:1.0;"/><polygon fill="none" points="609.16,347.73,613.77,327.05,623.06,346.1,609.16,347.73" style="stroke:#000000;stroke-width:1.0;"/></g><!--reverse link Method to ParametricMethod--><g id="link_Method_ParametricMethod"><path codeLine="144" d="M1465,451.61 C1465,465.31 1465,480.22 1465,490.96 " fill="none" id="Method-backto-ParametricMethod" style="stroke:#000000;stroke-width:1.0;"/><polygon fill="none" points="1458,451.27,1465,431.27,1472,451.27,1458,451.27" style="stroke:#000000;stroke-width:1.0;"/></g><!--reverse link NamedEntity to Property--><g id="link_NamedEntity_Property"><path codeLine="145" d="M1031.83,225.46 C1107.19,242.87 1216.63,268.98 1258,283 C1268.01,286.39 1278.64,290.73 1288.22,294.94 " fill="none" id="NamedEntity-backto-Property" style="stroke:#000000;stroke-width:1.0;"/><polygon fill="none" points="1029.96,232.22,1012.04,220.91,1033.1,218.57,1029.96,232.22" style="stroke:#000000;stroke-width:1.0;"/></g><!--reverse link Type to VariableStatement--><g id="link_Type_VariableStatement"><path codeLine="146" d="M989.24,447.69 C1000.02,462.4 1012.34,479.18 1020.97,490.96 " fill="none" id="Type-backto-VariableStatement" style="stroke:#000000;stroke-width:1.0;"/><polygon fill="none" points="983.38,451.53,977.2,431.27,994.67,443.26,983.38,451.53" style="stroke:#000000;stroke-width:1.0;"/></g><!--reverse link NamedEntity to Folder--><g id="link_NamedEntity_Folder"><path codeLine="147" d="M1032.03,223.19 C1189.27,250.58 1236.3,236.2 1381,283 C1390.51,286.08 1400.46,290.53 1409.23,294.94 " fill="none" id="NamedEntity-backto-Folder" style="stroke:#000000;stroke-width:1.0;"/><polygon fill="none" points="1030.74,230.07,1012.3,219.63,1033.22,216.29,1030.74,230.07" style="stroke:#000000;stroke-width:1.0;"/></g><!--reverse link ContainerEntity to ScriptEntity--><g id="link_ContainerEntity_ScriptEntity"><path codeLine="148" d="M1620.24,336.34 C1657.97,355.77 1709.66,382.4 1741.66,398.89 " fill="none" id="ContainerEntity-backto-ScriptEntity" style="stroke:#000000;stroke-width:1.0;"/><polygon fill="none" points="1616.79,342.43,1602.22,327.05,1623.2,329.99,1616.79,342.43" style="stroke:#000000;stroke-width:1.0;"/></g><!--reverse link Type to Interface--><g id="link_Type_Interface"><path codeLine="149" d="M1015.76,436.26 C1056.52,452.86 1113.27,475.97 1150.07,490.96 " fill="none" id="Type-backto-Interface" style="stroke:#000000;stroke-width:1.0;"/><polygon fill="none" points="1013.08,442.73,997.2,428.7,1018.36,429.76,1013.08,442.73" style="stroke:#000000;stroke-width:1.0;"/></g><!--reverse link TClassMetrics to Class--><g id="link_TClassMetrics_Class"><path codeLine="150" d="M464.4,451.61 C464.55,465.31 464.71,480.22 464.83,490.96 " fill="none" id="TClassMetrics-backto-Class" style="stroke:#000000;stroke-width:1.0;stroke-dasharray:7.0,7.0;"/><polygon fill="none" points="457.39,451.34,464.17,431.27,471.39,451.19,457.39,451.34" style="stroke:#000000;stroke-width:1.0;"/></g><!--reverse link TWithInterfaces to ContainerEntity--><g id="link_TWithInterfaces_ContainerEntity"><path codeLine="151" d="M1573,243.19 C1573,260.84 1573,281.31 1573,294.89 " fill="none" id="TWithInterfaces-backto-ContainerEntity" style="stroke:#000000;stroke-width:1.0;stroke-dasharray:7.0,7.0;"/><polygon fill="none" points="1566,243.05,1573,223.05,1580,243.05,1566,243.05" style="stroke:#000000;stroke-width:1.0;"/></g><!--reverse link TEntityCreator to FamixTypeScriptModel--><g id="link_TEntityCreator_FamixTypeScriptModel"><path codeLine="152" d="M1756,59.61 C1756,73.31 1756,88.22 1756,98.96 " fill="none" id="TEntityCreator-backto-FamixTypeScriptModel" style="stroke:#000000;stroke-width:1.0;stroke-dasharray:7.0,7.0;"/><polygon fill="none" points="1749,59.27,1756,39.27,1763,59.27,1749,59.27" style="stroke:#000000;stroke-width:1.0;"/></g><!--SRC=[bLVRRXCn47ttLwpA2o3QBwWgXRH1HHHL989dnpjDhExQgrblcqBvT-ozskjLFUGXYkpnU2vdpd6ECeSCoigyP2MKUy2QrOzILHnvcOc2rtNsXsNPPouU3wWRbQzreJ5xFae3Tds5g9-xfNrXRPofnXomMyivFdv1_iB-iixNTrv2NN41sUNb-_Mdris7gwlitNgziHzxrs2vrGqAsC79h9GuMb-f0-lsEsLr3K8ZDs_uoxAjGQaE6PmgXBgMMesdxrrPm03kNgfq2ZyvIhulqeORIJ3wkhtM8cdLHuXIt2eRvmEbrDEPJQE4iGaJk_EDgqF33-aRLiPwtpScRKagR7Sx4HUtwWWe3LU4Ijme8-qaf5tcS8BSjOqAJgq4Wf6_EQcyTpfl291mqvGJOxOH62uL8D5-9OG5Fwc-JrhGqle13u2Ww90496A1MeNHxtysvBQi2YZ1bf1alkl2MICCLBDxS_vvAKyE-Lk1iZAs-r1GGj9eqg6ql7ZNZdUTZEH6DULFNZH0n4SQoM2EEYSCNbEcQPBAJgj2yfem4QNhQ1epA4jfv1EGk6dtIvhZoBtfYa_aInCmQP4eXJHaSPak8FRY7dK5I1Yc8OIjdGeWbNAZYvmoq-qOaCauhNEXOBoUdqVF2nRnexCQdoiie5gtDJuaugsXBgm3Z5iA7WxUUjlps8DJ5kObvhdmbPtDoC-PjSy4DerAU7HOP_wHKCpZQ4RrNYvIcrBihw-hl-59yK9B8bKDpeQ4pKA8E8DECvTAuYKK9pTBYGr3qYRUQ-0iYK7lWkLHs-8hnkOlL6c8Qz5-bdCGHI18yoqh374O8xS7rbsEovtjQk71rRbODXs15QF7aV5IMth-zQV4PrhMys48u6vW9l9pktDA37eufx-5zlHyvmKICTl2YBPKjbmC7voUrsbkPwByUd7HCq6a7ktM3ABpruMpMNf2iEdFpba-_Am_dcKsbc5XIEhCdv9_]--></g></svg>