<?xml version="1.0" encoding="us-ascii" standalone="no"?><svg xmlns="http://www.w3.org/2000/svg" xmlns:xlink="http://www.w3.org/1999/xlink" contentStyleType="text/css" height="719px" preserveAspectRatio="none" style="width:2523px;height:719px;background:#FFFFFF;" version="1.1" viewBox="0 0 2523 719" width="2523px" zoomAndPan="magnify"><defs/><g><!--class TWithInterfaces--><g id="elem_TWithInterfaces"><rect codeLine="7" fill="#CCFFFF" height="32" id="TWithInterfaces" rx="2.5" ry="2.5" style="stroke:#A9A9A9;stroke-width:0.5;" width="132" x="1098" y="203"/><ellipse cx="1113" cy="219" fill="#FFFFFF" rx="11" ry="11" style="stroke:#181818;stroke-width:1.0;"/><path d="M1114.4531,225.75 L1111.8906,225.75 L1111.8906,215.75 L1108.8438,215.75 L1108.8438,213.6094 L1117.4844,213.6094 L1117.4844,215.75 L1114.4531,215.75 L1114.4531,225.75 Z " fill="#000000"/><text fill="#000000" font-family="sans-serif" font-size="14" lengthAdjust="spacing" textLength="100" x="1127" y="223.8467">TWithInterfaces</text></g><!--class Concretization--><g id="elem_Concretization"><rect codeLine="9" fill="#CCFFFF" height="32" id="Concretization" rx="2.5" ry="2.5" style="stroke:#A9A9A9;stroke-width:0.5;" width="123" x="637.5" y="99"/><ellipse cx="652.5" cy="115" fill="#FFFFFF" rx="11" ry="11" style="stroke:#181818;stroke-width:1.0;"/><path d="M652.4375,110.8281 Q651.6875,110.8281 651.125,111.125 Q650.5625,111.4063 650.1719,111.9375 Q649.7813,112.4688 649.5781,113.25 Q649.3906,114.0156 649.3906,114.9688 Q649.3906,115.9375 649.5625,116.7031 Q649.75,117.4531 650.1094,117.9688 Q650.4844,118.4844 651.0625,118.7656 Q651.6406,119.0313 652.4375,119.0313 Q653.1719,119.0313 653.9063,118.8594 Q654.6563,118.6875 655.5313,118.3906 L655.5313,120.5469 Q655.125,120.7031 654.7344,120.8281 Q654.3438,120.9375 653.9375,121.0156 Q653.5313,121.0938 653.1094,121.125 Q652.6875,121.1719 652.1875,121.1719 Q650.7813,121.1719 649.75,120.7188 Q648.7344,120.2656 648.0625,119.4531 Q647.3906,118.6406 647.0625,117.5 Q646.7344,116.3438 646.7344,114.9531 Q646.7344,113.5781 647.1094,112.4219 Q647.4844,111.2656 648.2031,110.4375 Q648.9219,109.6094 649.9844,109.1563 Q651.0469,108.6875 652.4375,108.6875 Q653.3438,108.6875 654.25,108.9219 Q655.1563,109.1406 655.9844,109.5469 L655.1563,111.6406 Q654.4688,111.3125 653.7813,111.0781 Q653.0938,110.8281 652.4375,110.8281 Z " fill="#000000"/><text fill="#000000" font-family="sans-serif" font-size="14" lengthAdjust="spacing" textLength="91" x="666.5" y="119.8467">Concretization</text></g><!--class Module--><g id="elem_Module"><rect codeLine="11" fill="#CCFFFF" height="32" id="Module" rx="2.5" ry="2.5" style="stroke:#A9A9A9;stroke-width:0.5;" width="80" x="1359" y="680"/><ellipse cx="1374" cy="696" fill="#FFFFFF" rx="11" ry="11" style="stroke:#181818;stroke-width:1.0;"/><path d="M1373.9375,691.8281 Q1373.1875,691.8281 1372.625,692.125 Q1372.0625,692.4063 1371.6719,692.9375 Q1371.2813,693.4688 1371.0781,694.25 Q1370.8906,695.0156 1370.8906,695.9688 Q1370.8906,696.9375 1371.0625,697.7031 Q1371.25,698.4531 1371.6094,698.9688 Q1371.9844,699.4844 1372.5625,699.7656 Q1373.1406,700.0313 1373.9375,700.0313 Q1374.6719,700.0313 1375.4063,699.8594 Q1376.1563,699.6875 1377.0313,699.3906 L1377.0313,701.5469 Q1376.625,701.7031 1376.2344,701.8281 Q1375.8438,701.9375 1375.4375,702.0156 Q1375.0313,702.0938 1374.6094,702.125 Q1374.1875,702.1719 1373.6875,702.1719 Q1372.2813,702.1719 1371.25,701.7188 Q1370.2344,701.2656 1369.5625,700.4531 Q1368.8906,699.6406 1368.5625,698.5 Q1368.2344,697.3438 1368.2344,695.9531 Q1368.2344,694.5781 1368.6094,693.4219 Q1368.9844,692.2656 1369.7031,691.4375 Q1370.4219,690.6094 1371.4844,690.1563 Q1372.5469,689.6875 1373.9375,689.6875 Q1374.8438,689.6875 1375.75,689.9219 Q1376.6563,690.1406 1377.4844,690.5469 L1376.6563,692.6406 Q1375.9688,692.3125 1375.2813,692.0781 Q1374.5938,691.8281 1373.9375,691.8281 Z " fill="#000000"/><text fill="#000000" font-family="sans-serif" font-size="14" lengthAdjust="spacing" textLength="48" x="1388" y="700.8467">Module</text></g><!--class FamixTypeScriptModel--><g id="elem_FamixTypeScriptModel"><rect codeLine="13" fill="#CCFFFF" height="32" id="FamixTypeScriptModel" rx="2.5" ry="2.5" style="stroke:#A9A9A9;stroke-width:0.5;" width="176" x="2340" y="99"/><ellipse cx="2355" cy="115" fill="#FFFFFF" rx="11" ry="11" style="stroke:#181818;stroke-width:1.0;"/><path d="M2354.9375,110.8281 Q2354.1875,110.8281 2353.625,111.125 Q2353.0625,111.4063 2352.6719,111.9375 Q2352.2813,112.4688 2352.0781,113.25 Q2351.8906,114.0156 2351.8906,114.9688 Q2351.8906,115.9375 2352.0625,116.7031 Q2352.25,117.4531 2352.6094,117.9688 Q2352.9844,118.4844 2353.5625,118.7656 Q2354.1406,119.0313 2354.9375,119.0313 Q2355.6719,119.0313 2356.4063,118.8594 Q2357.1563,118.6875 2358.0313,118.3906 L2358.0313,120.5469 Q2357.625,120.7031 2357.2344,120.8281 Q2356.8438,120.9375 2356.4375,121.0156 Q2356.0313,121.0938 2355.6094,121.125 Q2355.1875,121.1719 2354.6875,121.1719 Q2353.2813,121.1719 2352.25,120.7188 Q2351.2344,120.2656 2350.5625,119.4531 Q2349.8906,118.6406 2349.5625,117.5 Q2349.2344,116.3438 2349.2344,114.9531 Q2349.2344,113.5781 2349.6094,112.4219 Q2349.9844,111.2656 2350.7031,110.4375 Q2351.4219,109.6094 2352.4844,109.1563 Q2353.5469,108.6875 2354.9375,108.6875 Q2355.8438,108.6875 2356.75,108.9219 Q2357.6563,109.1406 2358.4844,109.5469 L2357.6563,111.6406 Q2356.9688,111.3125 2356.2813,111.0781 Q2355.5938,110.8281 2354.9375,110.8281 Z " fill="#000000"/><text fill="#000000" font-family="sans-serif" font-size="14" lengthAdjust="spacing" textLength="144" x="2369" y="119.8467">FamixTypeScriptModel</text></g><!--class Implementation--><g id="elem_Implementation"><rect codeLine="15" fill="#CCFFFF" height="32" id="Implementation" rx="2.5" ry="2.5" style="stroke:#A9A9A9;stroke-width:0.5;" width="136" x="796" y="99"/><ellipse cx="811" cy="115" fill="#FFFFFF" rx="11" ry="11" style="stroke:#181818;stroke-width:1.0;"/><path d="M810.9375,110.8281 Q810.1875,110.8281 809.625,111.125 Q809.0625,111.4063 808.6719,111.9375 Q808.2813,112.4688 808.0781,113.25 Q807.8906,114.0156 807.8906,114.9688 Q807.8906,115.9375 808.0625,116.7031 Q808.25,117.4531 808.6094,117.9688 Q808.9844,118.4844 809.5625,118.7656 Q810.1406,119.0313 810.9375,119.0313 Q811.6719,119.0313 812.4063,118.8594 Q813.1563,118.6875 814.0313,118.3906 L814.0313,120.5469 Q813.625,120.7031 813.2344,120.8281 Q812.8438,120.9375 812.4375,121.0156 Q812.0313,121.0938 811.6094,121.125 Q811.1875,121.1719 810.6875,121.1719 Q809.2813,121.1719 808.25,120.7188 Q807.2344,120.2656 806.5625,119.4531 Q805.8906,118.6406 805.5625,117.5 Q805.2344,116.3438 805.2344,114.9531 Q805.2344,113.5781 805.6094,112.4219 Q805.9844,111.2656 806.7031,110.4375 Q807.4219,109.6094 808.4844,109.1563 Q809.5469,108.6875 810.9375,108.6875 Q811.8438,108.6875 812.75,108.9219 Q813.6563,109.1406 814.4844,109.5469 L813.6563,111.6406 Q812.9688,111.3125 812.2813,111.0781 Q811.5938,110.8281 810.9375,110.8281 Z " fill="#000000"/><text fill="#000000" font-family="sans-serif" font-size="14" lengthAdjust="spacing" textLength="104" x="825" y="119.8467">Implementation</text></g><!--class Interface--><g id="elem_Interface"><rect codeLine="17" fill="#CCFFFF" height="32" id="Interface" rx="2.5" ry="2.5" style="stroke:#A9A9A9;stroke-width:0.5;" width="90" x="42" y="588"/><ellipse cx="57" cy="604" fill="#FFFFFF" rx="11" ry="11" style="stroke:#181818;stroke-width:1.0;"/><path d="M56.9375,599.8281 Q56.1875,599.8281 55.625,600.125 Q55.0625,600.4063 54.6719,600.9375 Q54.2813,601.4688 54.0781,602.25 Q53.8906,603.0156 53.8906,603.9688 Q53.8906,604.9375 54.0625,605.7031 Q54.25,606.4531 54.6094,606.9688 Q54.9844,607.4844 55.5625,607.7656 Q56.1406,608.0313 56.9375,608.0313 Q57.6719,608.0313 58.4063,607.8594 Q59.1563,607.6875 60.0313,607.3906 L60.0313,609.5469 Q59.625,609.7031 59.2344,609.8281 Q58.8438,609.9375 58.4375,610.0156 Q58.0313,610.0938 57.6094,610.125 Q57.1875,610.1719 56.6875,610.1719 Q55.2813,610.1719 54.25,609.7188 Q53.2344,609.2656 52.5625,608.4531 Q51.8906,607.6406 51.5625,606.5 Q51.2344,605.3438 51.2344,603.9531 Q51.2344,602.5781 51.6094,601.4219 Q51.9844,600.2656 52.7031,599.4375 Q53.4219,598.6094 54.4844,598.1563 Q55.5469,597.6875 56.9375,597.6875 Q57.8438,597.6875 58.75,597.9219 Q59.6563,598.1406 60.4844,598.5469 L59.6563,600.6406 Q58.9688,600.3125 58.2813,600.0781 Q57.5938,599.8281 56.9375,599.8281 Z " fill="#000000"/><text fill="#000000" font-family="sans-serif" font-size="14" lengthAdjust="spacing" textLength="58" x="71" y="608.8467">Interface</text></g><!--class ParameterType--><g id="elem_ParameterType"><rect codeLine="19" fill="#CCFFFF" height="32" id="ParameterType" rx="2.5" ry="2.5" style="stroke:#A9A9A9;stroke-width:0.5;" width="130" x="167" y="588"/><ellipse cx="182" cy="604" fill="#FFFFFF" rx="11" ry="11" style="stroke:#181818;stroke-width:1.0;"/><path d="M181.9375,599.8281 Q181.1875,599.8281 180.625,600.125 Q180.0625,600.4063 179.6719,600.9375 Q179.2813,601.4688 179.0781,602.25 Q178.8906,603.0156 178.8906,603.9688 Q178.8906,604.9375 179.0625,605.7031 Q179.25,606.4531 179.6094,606.9688 Q179.9844,607.4844 180.5625,607.7656 Q181.1406,608.0313 181.9375,608.0313 Q182.6719,608.0313 183.4063,607.8594 Q184.1563,607.6875 185.0313,607.3906 L185.0313,609.5469 Q184.625,609.7031 184.2344,609.8281 Q183.8438,609.9375 183.4375,610.0156 Q183.0313,610.0938 182.6094,610.125 Q182.1875,610.1719 181.6875,610.1719 Q180.2813,610.1719 179.25,609.7188 Q178.2344,609.2656 177.5625,608.4531 Q176.8906,607.6406 176.5625,606.5 Q176.2344,605.3438 176.2344,603.9531 Q176.2344,602.5781 176.6094,601.4219 Q176.9844,600.2656 177.7031,599.4375 Q178.4219,598.6094 179.4844,598.1563 Q180.5469,597.6875 181.9375,597.6875 Q182.8438,597.6875 183.75,597.9219 Q184.6563,598.1406 185.4844,598.5469 L184.6563,600.6406 Q183.9688,600.3125 183.2813,600.0781 Q182.5938,599.8281 181.9375,599.8281 Z " fill="#000000"/><text fill="#000000" font-family="sans-serif" font-size="14" lengthAdjust="spacing" textLength="98" x="196" y="608.8467">ParameterType</text></g><!--class TClassMetrics--><g id="elem_TClassMetrics"><rect codeLine="21" fill="#CCFFFF" height="32" id="TClassMetrics" rx="2.5" ry="2.5" style="stroke:#A9A9A9;stroke-width:0.5;" width="117" x="565.5" y="459.5"/><ellipse cx="580.5" cy="475.5" fill="#FFFFFF" rx="11" ry="11" style="stroke:#181818;stroke-width:1.0;"/><path d="M581.9531,482.25 L579.3906,482.25 L579.3906,472.25 L576.3438,472.25 L576.3438,470.1094 L584.9844,470.1094 L584.9844,472.25 L581.9531,472.25 L581.9531,482.25 Z " fill="#000000"/><text fill="#000000" font-family="sans-serif" font-size="14" lengthAdjust="spacing" textLength="85" x="594.5" y="480.3467">TClassMetrics</text></g><!--class IndexedFileAnchor--><g id="elem_IndexedFileAnchor"><rect codeLine="23" fill="#CCFFFF" height="32" id="IndexedFileAnchor" rx="2.5" ry="2.5" style="stroke:#A9A9A9;stroke-width:0.5;" width="152" x="1308" y="203"/><ellipse cx="1323" cy="219" fill="#FFFFFF" rx="11" ry="11" style="stroke:#181818;stroke-width:1.0;"/><path d="M1322.9375,214.8281 Q1322.1875,214.8281 1321.625,215.125 Q1321.0625,215.4063 1320.6719,215.9375 Q1320.2813,216.4688 1320.0781,217.25 Q1319.8906,218.0156 1319.8906,218.9688 Q1319.8906,219.9375 1320.0625,220.7031 Q1320.25,221.4531 1320.6094,221.9688 Q1320.9844,222.4844 1321.5625,222.7656 Q1322.1406,223.0313 1322.9375,223.0313 Q1323.6719,223.0313 1324.4063,222.8594 Q1325.1563,222.6875 1326.0313,222.3906 L1326.0313,224.5469 Q1325.625,224.7031 1325.2344,224.8281 Q1324.8438,224.9375 1324.4375,225.0156 Q1324.0313,225.0938 1323.6094,225.125 Q1323.1875,225.1719 1322.6875,225.1719 Q1321.2813,225.1719 1320.25,224.7188 Q1319.2344,224.2656 1318.5625,223.4531 Q1317.8906,222.6406 1317.5625,221.5 Q1317.2344,220.3438 1317.2344,218.9531 Q1317.2344,217.5781 1317.6094,216.4219 Q1317.9844,215.2656 1318.7031,214.4375 Q1319.4219,213.6094 1320.4844,213.1563 Q1321.5469,212.6875 1322.9375,212.6875 Q1323.8438,212.6875 1324.75,212.9219 Q1325.6563,213.1406 1326.4844,213.5469 L1325.6563,215.6406 Q1324.9688,215.3125 1324.2813,215.0781 Q1323.5938,214.8281 1322.9375,214.8281 Z " fill="#000000"/><text fill="#000000" font-family="sans-serif" font-size="14" lengthAdjust="spacing" textLength="120" x="1337" y="223.8467">IndexedFileAnchor</text></g><!--class SourceTextAnchor--><g id="elem_SourceTextAnchor"><rect codeLine="25" fill="#CCFFFF" height="32" id="SourceTextAnchor" rx="2.5" ry="2.5" style="stroke:#A9A9A9;stroke-width:0.5;" width="147" x="1495.5" y="203"/><ellipse cx="1510.5" cy="219" fill="#FFFFFF" rx="11" ry="11" style="stroke:#181818;stroke-width:1.0;"/><path d="M1510.4375,214.8281 Q1509.6875,214.8281 1509.125,215.125 Q1508.5625,215.4063 1508.1719,215.9375 Q1507.7813,216.4688 1507.5781,217.25 Q1507.3906,218.0156 1507.3906,218.9688 Q1507.3906,219.9375 1507.5625,220.7031 Q1507.75,221.4531 1508.1094,221.9688 Q1508.4844,222.4844 1509.0625,222.7656 Q1509.6406,223.0313 1510.4375,223.0313 Q1511.1719,223.0313 1511.9063,222.8594 Q1512.6563,222.6875 1513.5313,222.3906 L1513.5313,224.5469 Q1513.125,224.7031 1512.7344,224.8281 Q1512.3438,224.9375 1511.9375,225.0156 Q1511.5313,225.0938 1511.1094,225.125 Q1510.6875,225.1719 1510.1875,225.1719 Q1508.7813,225.1719 1507.75,224.7188 Q1506.7344,224.2656 1506.0625,223.4531 Q1505.3906,222.6406 1505.0625,221.5 Q1504.7344,220.3438 1504.7344,218.9531 Q1504.7344,217.5781 1505.1094,216.4219 Q1505.4844,215.2656 1506.2031,214.4375 Q1506.9219,213.6094 1507.9844,213.1563 Q1509.0469,212.6875 1510.4375,212.6875 Q1511.3438,212.6875 1512.25,212.9219 Q1513.1563,213.1406 1513.9844,213.5469 L1513.1563,215.6406 Q1512.4688,215.3125 1511.7813,215.0781 Q1511.0938,214.8281 1510.4375,214.8281 Z " fill="#000000"/><text fill="#000000" font-family="sans-serif" font-size="14" lengthAdjust="spacing" textLength="115" x="1524.5" y="223.8467">SourceTextAnchor</text></g><!--class PrimitiveType--><g id="elem_PrimitiveType"><rect codeLine="27" fill="#CCFFFF" height="32" id="PrimitiveType" rx="2.5" ry="2.5" style="stroke:#A9A9A9;stroke-width:0.5;" width="121" x="332.5" y="588"/><ellipse cx="347.5" cy="604" fill="#FFFFFF" rx="11" ry="11" style="stroke:#181818;stroke-width:1.0;"/><path d="M347.4375,599.8281 Q346.6875,599.8281 346.125,600.125 Q345.5625,600.4063 345.1719,600.9375 Q344.7813,601.4688 344.5781,602.25 Q344.3906,603.0156 344.3906,603.9688 Q344.3906,604.9375 344.5625,605.7031 Q344.75,606.4531 345.1094,606.9688 Q345.4844,607.4844 346.0625,607.7656 Q346.6406,608.0313 347.4375,608.0313 Q348.1719,608.0313 348.9063,607.8594 Q349.6563,607.6875 350.5313,607.3906 L350.5313,609.5469 Q350.125,609.7031 349.7344,609.8281 Q349.3438,609.9375 348.9375,610.0156 Q348.5313,610.0938 348.1094,610.125 Q347.6875,610.1719 347.1875,610.1719 Q345.7813,610.1719 344.75,609.7188 Q343.7344,609.2656 343.0625,608.4531 Q342.3906,607.6406 342.0625,606.5 Q341.7344,605.3438 341.7344,603.9531 Q341.7344,602.5781 342.1094,601.4219 Q342.4844,600.2656 343.2031,599.4375 Q343.9219,598.6094 344.9844,598.1563 Q346.0469,597.6875 347.4375,597.6875 Q348.3438,597.6875 349.25,597.9219 Q350.1563,598.1406 350.9844,598.5469 L350.1563,600.6406 Q349.4688,600.3125 348.7813,600.0781 Q348.0938,599.8281 347.4375,599.8281 Z " fill="#000000"/><text fill="#000000" font-family="sans-serif" font-size="14" lengthAdjust="spacing" textLength="89" x="361.5" y="608.8467">PrimitiveType</text></g><!--class Access--><g id="elem_Access"><rect codeLine="29" fill="#CCFFFF" height="32" id="Access" rx="2.5" ry="2.5" style="stroke:#A9A9A9;stroke-width:0.5;" width="73" x="967.5" y="99"/><ellipse cx="982.5" cy="115" fill="#FFFFFF" rx="11" ry="11" style="stroke:#181818;stroke-width:1.0;"/><path d="M982.4375,110.8281 Q981.6875,110.8281 981.125,111.125 Q980.5625,111.4063 980.1719,111.9375 Q979.7813,112.4688 979.5781,113.25 Q979.3906,114.0156 979.3906,114.9688 Q979.3906,115.9375 979.5625,116.7031 Q979.75,117.4531 980.1094,117.9688 Q980.4844,118.4844 981.0625,118.7656 Q981.6406,119.0313 982.4375,119.0313 Q983.1719,119.0313 983.9063,118.8594 Q984.6563,118.6875 985.5313,118.3906 L985.5313,120.5469 Q985.125,120.7031 984.7344,120.8281 Q984.3438,120.9375 983.9375,121.0156 Q983.5313,121.0938 983.1094,121.125 Q982.6875,121.1719 982.1875,121.1719 Q980.7813,121.1719 979.75,120.7188 Q978.7344,120.2656 978.0625,119.4531 Q977.3906,118.6406 977.0625,117.5 Q976.7344,116.3438 976.7344,114.9531 Q976.7344,113.5781 977.1094,112.4219 Q977.4844,111.2656 978.2031,110.4375 Q978.9219,109.6094 979.9844,109.1563 Q981.0469,108.6875 982.4375,108.6875 Q983.3438,108.6875 984.25,108.9219 Q985.1563,109.1406 985.9844,109.5469 L985.1563,111.6406 Q984.4688,111.3125 983.7813,111.0781 Q983.0938,110.8281 982.4375,110.8281 Z " fill="#000000"/><text fill="#000000" font-family="sans-serif" font-size="14" lengthAdjust="spacing" textLength="41" x="996.5" y="119.8467">Access</text></g><!--class StructuralEntity--><g id="elem_StructuralEntity"><rect codeLine="31" fill="#CCFFFF" height="32" id="StructuralEntity" rx="2.5" ry="2.5" style="stroke:#A9A9A9;stroke-width:0.5;" width="130" x="1523" y="319"/><ellipse cx="1538" cy="335" fill="#FFFFFF" rx="11" ry="11" style="stroke:#181818;stroke-width:1.0;"/><path d="M1537.9375,330.8281 Q1537.1875,330.8281 1536.625,331.125 Q1536.0625,331.4063 1535.6719,331.9375 Q1535.2813,332.4688 1535.0781,333.25 Q1534.8906,334.0156 1534.8906,334.9688 Q1534.8906,335.9375 1535.0625,336.7031 Q1535.25,337.4531 1535.6094,337.9688 Q1535.9844,338.4844 1536.5625,338.7656 Q1537.1406,339.0313 1537.9375,339.0313 Q1538.6719,339.0313 1539.4063,338.8594 Q1540.1563,338.6875 1541.0313,338.3906 L1541.0313,340.5469 Q1540.625,340.7031 1540.2344,340.8281 Q1539.8438,340.9375 1539.4375,341.0156 Q1539.0313,341.0938 1538.6094,341.125 Q1538.1875,341.1719 1537.6875,341.1719 Q1536.2813,341.1719 1535.25,340.7188 Q1534.2344,340.2656 1533.5625,339.4531 Q1532.8906,338.6406 1532.5625,337.5 Q1532.2344,336.3438 1532.2344,334.9531 Q1532.2344,333.5781 1532.6094,332.4219 Q1532.9844,331.2656 1533.7031,330.4375 Q1534.4219,329.6094 1535.4844,329.1563 Q1536.5469,328.6875 1537.9375,328.6875 Q1538.8438,328.6875 1539.75,328.9219 Q1540.6563,329.1406 1541.4844,329.5469 L1540.6563,331.6406 Q1539.9688,331.3125 1539.2813,331.0781 Q1538.5938,330.8281 1537.9375,330.8281 Z " fill="#000000"/><text fill="#000000" font-family="sans-serif" font-size="14" lengthAdjust="spacing" textLength="98" x="1552" y="339.8467">StructuralEntity</text></g><!--class NamedEntity--><g id="elem_NamedEntity"><rect codeLine="33" fill="#CCFFFF" height="32" id="NamedEntity" rx="2.5" ry="2.5" style="stroke:#A9A9A9;stroke-width:0.5;" width="114" x="1753" y="203"/><ellipse cx="1768" cy="219" fill="#FFFFFF" rx="11" ry="11" style="stroke:#181818;stroke-width:1.0;"/><path d="M1767.9375,214.8281 Q1767.1875,214.8281 1766.625,215.125 Q1766.0625,215.4063 1765.6719,215.9375 Q1765.2813,216.4688 1765.0781,217.25 Q1764.8906,218.0156 1764.8906,218.9688 Q1764.8906,219.9375 1765.0625,220.7031 Q1765.25,221.4531 1765.6094,221.9688 Q1765.9844,222.4844 1766.5625,222.7656 Q1767.1406,223.0313 1767.9375,223.0313 Q1768.6719,223.0313 1769.4063,222.8594 Q1770.1563,222.6875 1771.0313,222.3906 L1771.0313,224.5469 Q1770.625,224.7031 1770.2344,224.8281 Q1769.8438,224.9375 1769.4375,225.0156 Q1769.0313,225.0938 1768.6094,225.125 Q1768.1875,225.1719 1767.6875,225.1719 Q1766.2813,225.1719 1765.25,224.7188 Q1764.2344,224.2656 1763.5625,223.4531 Q1762.8906,222.6406 1762.5625,221.5 Q1762.2344,220.3438 1762.2344,218.9531 Q1762.2344,217.5781 1762.6094,216.4219 Q1762.9844,215.2656 1763.7031,214.4375 Q1764.4219,213.6094 1765.4844,213.1563 Q1766.5469,212.6875 1767.9375,212.6875 Q1768.8438,212.6875 1769.75,212.9219 Q1770.6563,213.1406 1771.4844,213.5469 L1770.6563,215.6406 Q1769.9688,215.3125 1769.2813,215.0781 Q1768.5938,214.8281 1767.9375,214.8281 Z " fill="#000000"/><text fill="#000000" font-family="sans-serif" font-size="14" lengthAdjust="spacing" textLength="82" x="1782" y="223.8467">NamedEntity</text></g><!--class Parameter--><g id="elem_Parameter"><rect codeLine="35" fill="#CCFFFF" height="32" id="Parameter" rx="2.5" ry="2.5" style="stroke:#A9A9A9;stroke-width:0.5;" width="100" x="1411" y="459.5"/><ellipse cx="1426" cy="475.5" fill="#FFFFFF" rx="11" ry="11" style="stroke:#181818;stroke-width:1.0;"/><path d="M1425.9375,471.3281 Q1425.1875,471.3281 1424.625,471.625 Q1424.0625,471.9063 1423.6719,472.4375 Q1423.2813,472.9688 1423.0781,473.75 Q1422.8906,474.5156 1422.8906,475.4688 Q1422.8906,476.4375 1423.0625,477.2031 Q1423.25,477.9531 1423.6094,478.4688 Q1423.9844,478.9844 1424.5625,479.2656 Q1425.1406,479.5313 1425.9375,479.5313 Q1426.6719,479.5313 1427.4063,479.3594 Q1428.1563,479.1875 1429.0313,478.8906 L1429.0313,481.0469 Q1428.625,481.2031 1428.2344,481.3281 Q1427.8438,481.4375 1427.4375,481.5156 Q1427.0313,481.5938 1426.6094,481.625 Q1426.1875,481.6719 1425.6875,481.6719 Q1424.2813,481.6719 1423.25,481.2188 Q1422.2344,480.7656 1421.5625,479.9531 Q1420.8906,479.1406 1420.5625,478 Q1420.2344,476.8438 1420.2344,475.4531 Q1420.2344,474.0781 1420.6094,472.9219 Q1420.9844,471.7656 1421.7031,470.9375 Q1422.4219,470.1094 1423.4844,469.6563 Q1424.5469,469.1875 1425.9375,469.1875 Q1426.8438,469.1875 1427.75,469.4219 Q1428.6563,469.6406 1429.4844,470.0469 L1428.6563,472.1406 Q1427.9688,471.8125 1427.2813,471.5781 Q1426.5938,471.3281 1425.9375,471.3281 Z " fill="#000000"/><text fill="#000000" font-family="sans-serif" font-size="14" lengthAdjust="spacing" textLength="68" x="1440" y="480.3467">Parameter</text></g><!--class implicitVariable--><g id="elem_implicitVariable"><rect codeLine="37" fill="#CCFFFF" height="32" id="implicitVariable" rx="2.5" ry="2.5" style="stroke:#A9A9A9;stroke-width:0.5;" width="132" x="1534" y="588"/><ellipse cx="1549" cy="604" fill="#FFFFFF" rx="11" ry="11" style="stroke:#181818;stroke-width:1.0;"/><path d="M1548.9375,599.8281 Q1548.1875,599.8281 1547.625,600.125 Q1547.0625,600.4063 1546.6719,600.9375 Q1546.2813,601.4688 1546.0781,602.25 Q1545.8906,603.0156 1545.8906,603.9688 Q1545.8906,604.9375 1546.0625,605.7031 Q1546.25,606.4531 1546.6094,606.9688 Q1546.9844,607.4844 1547.5625,607.7656 Q1548.1406,608.0313 1548.9375,608.0313 Q1549.6719,608.0313 1550.4063,607.8594 Q1551.1563,607.6875 1552.0313,607.3906 L1552.0313,609.5469 Q1551.625,609.7031 1551.2344,609.8281 Q1550.8438,609.9375 1550.4375,610.0156 Q1550.0313,610.0938 1549.6094,610.125 Q1549.1875,610.1719 1548.6875,610.1719 Q1547.2813,610.1719 1546.25,609.7188 Q1545.2344,609.2656 1544.5625,608.4531 Q1543.8906,607.6406 1543.5625,606.5 Q1543.2344,605.3438 1543.2344,603.9531 Q1543.2344,602.5781 1543.6094,601.4219 Q1543.9844,600.2656 1544.7031,599.4375 Q1545.4219,598.6094 1546.4844,598.1563 Q1547.5469,597.6875 1548.9375,597.6875 Q1549.8438,597.6875 1550.75,597.9219 Q1551.6563,598.1406 1552.4844,598.5469 L1551.6563,600.6406 Q1550.9688,600.3125 1550.2813,600.0781 Q1549.5938,599.8281 1548.9375,599.8281 Z " fill="#000000"/><text fill="#000000" font-family="sans-serif" font-size="14" lengthAdjust="spacing" textLength="100" x="1563" y="608.8467">implicitVariable</text></g><!--class Method--><g id="elem_Method"><rect codeLine="39" fill="#CCFFFF" height="32" id="Method" rx="2.5" ry="2.5" style="stroke:#A9A9A9;stroke-width:0.5;" width="81" x="786.5" y="588"/><ellipse cx="801.5" cy="604" fill="#FFFFFF" rx="11" ry="11" style="stroke:#181818;stroke-width:1.0;"/><path d="M801.4375,599.8281 Q800.6875,599.8281 800.125,600.125 Q799.5625,600.4063 799.1719,600.9375 Q798.7813,601.4688 798.5781,602.25 Q798.3906,603.0156 798.3906,603.9688 Q798.3906,604.9375 798.5625,605.7031 Q798.75,606.4531 799.1094,606.9688 Q799.4844,607.4844 800.0625,607.7656 Q800.6406,608.0313 801.4375,608.0313 Q802.1719,608.0313 802.9063,607.8594 Q803.6563,607.6875 804.5313,607.3906 L804.5313,609.5469 Q804.125,609.7031 803.7344,609.8281 Q803.3438,609.9375 802.9375,610.0156 Q802.5313,610.0938 802.1094,610.125 Q801.6875,610.1719 801.1875,610.1719 Q799.7813,610.1719 798.75,609.7188 Q797.7344,609.2656 797.0625,608.4531 Q796.3906,607.6406 796.0625,606.5 Q795.7344,605.3438 795.7344,603.9531 Q795.7344,602.5781 796.1094,601.4219 Q796.4844,600.2656 797.2031,599.4375 Q797.9219,598.6094 798.9844,598.1563 Q800.0469,597.6875 801.4375,597.6875 Q802.3438,597.6875 803.25,597.9219 Q804.1563,598.1406 804.9844,598.5469 L804.1563,600.6406 Q803.4688,600.3125 802.7813,600.0781 Q802.0938,599.8281 801.4375,599.8281 Z " fill="#000000"/><text fill="#000000" font-family="sans-serif" font-size="14" lengthAdjust="spacing" textLength="49" x="815.5" y="608.8467">Method</text></g><!--class File--><g id="elem_File"><rect codeLine="41" fill="#CCFFFF" height="32" id="File" rx="2.5" ry="2.5" style="stroke:#A9A9A9;stroke-width:0.5;" width="55" x="1688.5" y="319"/><ellipse cx="1703.5" cy="335" fill="#FFFFFF" rx="11" ry="11" style="stroke:#181818;stroke-width:1.0;"/><path d="M1703.4375,330.8281 Q1702.6875,330.8281 1702.125,331.125 Q1701.5625,331.4063 1701.1719,331.9375 Q1700.7813,332.4688 1700.5781,333.25 Q1700.3906,334.0156 1700.3906,334.9688 Q1700.3906,335.9375 1700.5625,336.7031 Q1700.75,337.4531 1701.1094,337.9688 Q1701.4844,338.4844 1702.0625,338.7656 Q1702.6406,339.0313 1703.4375,339.0313 Q1704.1719,339.0313 1704.9063,338.8594 Q1705.6563,338.6875 1706.5313,338.3906 L1706.5313,340.5469 Q1706.125,340.7031 1705.7344,340.8281 Q1705.3438,340.9375 1704.9375,341.0156 Q1704.5313,341.0938 1704.1094,341.125 Q1703.6875,341.1719 1703.1875,341.1719 Q1701.7813,341.1719 1700.75,340.7188 Q1699.7344,340.2656 1699.0625,339.4531 Q1698.3906,338.6406 1698.0625,337.5 Q1697.7344,336.3438 1697.7344,334.9531 Q1697.7344,333.5781 1698.1094,332.4219 Q1698.4844,331.2656 1699.2031,330.4375 Q1699.9219,329.6094 1700.9844,329.1563 Q1702.0469,328.6875 1703.4375,328.6875 Q1704.3438,328.6875 1705.25,328.9219 Q1706.1563,329.1406 1706.9844,329.5469 L1706.1563,331.6406 Q1705.4688,331.3125 1704.7813,331.0781 Q1704.0938,330.8281 1703.4375,330.8281 Z " fill="#000000"/><text fill="#000000" font-family="sans-serif" font-size="14" lengthAdjust="spacing" textLength="23" x="1717.5" y="339.8467">File</text></g><!--class Entity--><g id="elem_Entity"><rect codeLine="43" fill="#CCFFFF" height="32" id="Entity" rx="2.5" ry="2.5" style="stroke:#A9A9A9;stroke-width:0.5;" width="68" x="1460" y="7"/><ellipse cx="1475" cy="23" fill="#FFFFFF" rx="11" ry="11" style="stroke:#181818;stroke-width:1.0;"/><path d="M1474.9375,18.8281 Q1474.1875,18.8281 1473.625,19.125 Q1473.0625,19.4063 1472.6719,19.9375 Q1472.2813,20.4688 1472.0781,21.25 Q1471.8906,22.0156 1471.8906,22.9688 Q1471.8906,23.9375 1472.0625,24.7031 Q1472.25,25.4531 1472.6094,25.9688 Q1472.9844,26.4844 1473.5625,26.7656 Q1474.1406,27.0313 1474.9375,27.0313 Q1475.6719,27.0313 1476.4063,26.8594 Q1477.1563,26.6875 1478.0313,26.3906 L1478.0313,28.5469 Q1477.625,28.7031 1477.2344,28.8281 Q1476.8438,28.9375 1476.4375,29.0156 Q1476.0313,29.0938 1475.6094,29.125 Q1475.1875,29.1719 1474.6875,29.1719 Q1473.2813,29.1719 1472.25,28.7188 Q1471.2344,28.2656 1470.5625,27.4531 Q1469.8906,26.6406 1469.5625,25.5 Q1469.2344,24.3438 1469.2344,22.9531 Q1469.2344,21.5781 1469.6094,20.4219 Q1469.9844,19.2656 1470.7031,18.4375 Q1471.4219,17.6094 1472.4844,17.1563 Q1473.5469,16.6875 1474.9375,16.6875 Q1475.8438,16.6875 1476.75,16.9219 Q1477.6563,17.1406 1478.4844,17.5469 L1477.6563,19.6406 Q1476.9688,19.3125 1476.2813,19.0781 Q1475.5938,18.8281 1474.9375,18.8281 Z " fill="#000000"/><text fill="#000000" font-family="sans-serif" font-size="14" lengthAdjust="spacing" textLength="36" x="1489" y="27.8467">Entity</text></g><!--class ScriptEntity--><g id="elem_ScriptEntity"><rect codeLine="45" fill="#CCFFFF" height="32" id="ScriptEntity" rx="2.5" ry="2.5" style="stroke:#A9A9A9;stroke-width:0.5;" width="104" x="1254" y="588"/><ellipse cx="1269" cy="604" fill="#FFFFFF" rx="11" ry="11" style="stroke:#181818;stroke-width:1.0;"/><path d="M1268.9375,599.8281 Q1268.1875,599.8281 1267.625,600.125 Q1267.0625,600.4063 1266.6719,600.9375 Q1266.2813,601.4688 1266.0781,602.25 Q1265.8906,603.0156 1265.8906,603.9688 Q1265.8906,604.9375 1266.0625,605.7031 Q1266.25,606.4531 1266.6094,606.9688 Q1266.9844,607.4844 1267.5625,607.7656 Q1268.1406,608.0313 1268.9375,608.0313 Q1269.6719,608.0313 1270.4063,607.8594 Q1271.1563,607.6875 1272.0313,607.3906 L1272.0313,609.5469 Q1271.625,609.7031 1271.2344,609.8281 Q1270.8438,609.9375 1270.4375,610.0156 Q1270.0313,610.0938 1269.6094,610.125 Q1269.1875,610.1719 1268.6875,610.1719 Q1267.2813,610.1719 1266.25,609.7188 Q1265.2344,609.2656 1264.5625,608.4531 Q1263.8906,607.6406 1263.5625,606.5 Q1263.2344,605.3438 1263.2344,603.9531 Q1263.2344,602.5781 1263.6094,601.4219 Q1263.9844,600.2656 1264.7031,599.4375 Q1265.4219,598.6094 1266.4844,598.1563 Q1267.5469,597.6875 1268.9375,597.6875 Q1269.8438,597.6875 1270.75,597.9219 Q1271.6563,598.1406 1272.4844,598.5469 L1271.6563,600.6406 Q1270.9688,600.3125 1270.2813,600.0781 Q1269.5938,599.8281 1268.9375,599.8281 Z " fill="#000000"/><text fill="#000000" font-family="sans-serif" font-size="14" lengthAdjust="spacing" textLength="72" x="1283" y="608.8467">ScriptEntity</text></g><!--class Reference--><g id="elem_Reference"><rect codeLine="47" fill="#CCFFFF" height="32" id="Reference" rx="2.5" ry="2.5" style="stroke:#A9A9A9;stroke-width:0.5;" width="97" x="1075.5" y="99"/><ellipse cx="1090.5" cy="115" fill="#FFFFFF" rx="11" ry="11" style="stroke:#181818;stroke-width:1.0;"/><path d="M1090.4375,110.8281 Q1089.6875,110.8281 1089.125,111.125 Q1088.5625,111.4063 1088.1719,111.9375 Q1087.7813,112.4688 1087.5781,113.25 Q1087.3906,114.0156 1087.3906,114.9688 Q1087.3906,115.9375 1087.5625,116.7031 Q1087.75,117.4531 1088.1094,117.9688 Q1088.4844,118.4844 1089.0625,118.7656 Q1089.6406,119.0313 1090.4375,119.0313 Q1091.1719,119.0313 1091.9063,118.8594 Q1092.6563,118.6875 1093.5313,118.3906 L1093.5313,120.5469 Q1093.125,120.7031 1092.7344,120.8281 Q1092.3438,120.9375 1091.9375,121.0156 Q1091.5313,121.0938 1091.1094,121.125 Q1090.6875,121.1719 1090.1875,121.1719 Q1088.7813,121.1719 1087.75,120.7188 Q1086.7344,120.2656 1086.0625,119.4531 Q1085.3906,118.6406 1085.0625,117.5 Q1084.7344,116.3438 1084.7344,114.9531 Q1084.7344,113.5781 1085.1094,112.4219 Q1085.4844,111.2656 1086.2031,110.4375 Q1086.9219,109.6094 1087.9844,109.1563 Q1089.0469,108.6875 1090.4375,108.6875 Q1091.3438,108.6875 1092.25,108.9219 Q1093.1563,109.1406 1093.9844,109.5469 L1093.1563,111.6406 Q1092.4688,111.3125 1091.7813,111.0781 Q1091.0938,110.8281 1090.4375,110.8281 Z " fill="#000000"/><text fill="#000000" font-family="sans-serif" font-size="14" lengthAdjust="spacing" textLength="65" x="1104.5" y="119.8467">Reference</text></g><!--class ContainerEntity--><g id="elem_ContainerEntity"><rect codeLine="49" fill="#CCFFFF" height="32" id="ContainerEntity" rx="2.5" ry="2.5" style="stroke:#A9A9A9;stroke-width:0.5;" width="130" x="1099" y="319"/><ellipse cx="1114" cy="335" fill="#FFFFFF" rx="11" ry="11" style="stroke:#181818;stroke-width:1.0;"/><path d="M1113.9375,330.8281 Q1113.1875,330.8281 1112.625,331.125 Q1112.0625,331.4063 1111.6719,331.9375 Q1111.2813,332.4688 1111.0781,333.25 Q1110.8906,334.0156 1110.8906,334.9688 Q1110.8906,335.9375 1111.0625,336.7031 Q1111.25,337.4531 1111.6094,337.9688 Q1111.9844,338.4844 1112.5625,338.7656 Q1113.1406,339.0313 1113.9375,339.0313 Q1114.6719,339.0313 1115.4063,338.8594 Q1116.1563,338.6875 1117.0313,338.3906 L1117.0313,340.5469 Q1116.625,340.7031 1116.2344,340.8281 Q1115.8438,340.9375 1115.4375,341.0156 Q1115.0313,341.0938 1114.6094,341.125 Q1114.1875,341.1719 1113.6875,341.1719 Q1112.2813,341.1719 1111.25,340.7188 Q1110.2344,340.2656 1109.5625,339.4531 Q1108.8906,338.6406 1108.5625,337.5 Q1108.2344,336.3438 1108.2344,334.9531 Q1108.2344,333.5781 1108.6094,332.4219 Q1108.9844,331.2656 1109.7031,330.4375 Q1110.4219,329.6094 1111.4844,329.1563 Q1112.5469,328.6875 1113.9375,328.6875 Q1114.8438,328.6875 1115.75,328.9219 Q1116.6563,329.1406 1117.4844,329.5469 L1116.6563,331.6406 Q1115.9688,331.3125 1115.2813,331.0781 Q1114.5938,330.8281 1113.9375,330.8281 Z " fill="#000000"/><text fill="#000000" font-family="sans-serif" font-size="14" lengthAdjust="spacing" textLength="98" x="1128" y="339.8467">ContainerEntity</text></g><!--class Enum--><g id="elem_Enum"><rect codeLine="51" fill="#CCFFFF" height="32" id="Enum" rx="2.5" ry="2.5" style="stroke:#A9A9A9;stroke-width:0.5;" width="68" x="489" y="588"/><ellipse cx="504" cy="604" fill="#FFFFFF" rx="11" ry="11" style="stroke:#181818;stroke-width:1.0;"/><path d="M503.9375,599.8281 Q503.1875,599.8281 502.625,600.125 Q502.0625,600.4063 501.6719,600.9375 Q501.2813,601.4688 501.0781,602.25 Q500.8906,603.0156 500.8906,603.9688 Q500.8906,604.9375 501.0625,605.7031 Q501.25,606.4531 501.6094,606.9688 Q501.9844,607.4844 502.5625,607.7656 Q503.1406,608.0313 503.9375,608.0313 Q504.6719,608.0313 505.4063,607.8594 Q506.1563,607.6875 507.0313,607.3906 L507.0313,609.5469 Q506.625,609.7031 506.2344,609.8281 Q505.8438,609.9375 505.4375,610.0156 Q505.0313,610.0938 504.6094,610.125 Q504.1875,610.1719 503.6875,610.1719 Q502.2813,610.1719 501.25,609.7188 Q500.2344,609.2656 499.5625,608.4531 Q498.8906,607.6406 498.5625,606.5 Q498.2344,605.3438 498.2344,603.9531 Q498.2344,602.5781 498.6094,601.4219 Q498.9844,600.2656 499.7031,599.4375 Q500.4219,598.6094 501.4844,598.1563 Q502.5469,597.6875 503.9375,597.6875 Q504.8438,597.6875 505.75,597.9219 Q506.6563,598.1406 507.4844,598.5469 L506.6563,600.6406 Q505.9688,600.3125 505.2813,600.0781 Q504.5938,599.8281 503.9375,599.8281 Z " fill="#000000"/><text fill="#000000" font-family="sans-serif" font-size="14" lengthAdjust="spacing" textLength="36" x="518" y="608.8467">Enum</text></g><!--class Accessor--><g id="elem_Accessor"><rect codeLine="53" fill="#CCFFFF" height="32" id="Accessor" rx="2.5" ry="2.5" style="stroke:#A9A9A9;stroke-width:0.5;" width="87" x="629.5" y="680"/><ellipse cx="644.5" cy="696" fill="#FFFFFF" rx="11" ry="11" style="stroke:#181818;stroke-width:1.0;"/><path d="M644.4375,691.8281 Q643.6875,691.8281 643.125,692.125 Q642.5625,692.4063 642.1719,692.9375 Q641.7813,693.4688 641.5781,694.25 Q641.3906,695.0156 641.3906,695.9688 Q641.3906,696.9375 641.5625,697.7031 Q641.75,698.4531 642.1094,698.9688 Q642.4844,699.4844 643.0625,699.7656 Q643.6406,700.0313 644.4375,700.0313 Q645.1719,700.0313 645.9063,699.8594 Q646.6563,699.6875 647.5313,699.3906 L647.5313,701.5469 Q647.125,701.7031 646.7344,701.8281 Q646.3438,701.9375 645.9375,702.0156 Q645.5313,702.0938 645.1094,702.125 Q644.6875,702.1719 644.1875,702.1719 Q642.7813,702.1719 641.75,701.7188 Q640.7344,701.2656 640.0625,700.4531 Q639.3906,699.6406 639.0625,698.5 Q638.7344,697.3438 638.7344,695.9531 Q638.7344,694.5781 639.1094,693.4219 Q639.4844,692.2656 640.2031,691.4375 Q640.9219,690.6094 641.9844,690.1563 Q643.0469,689.6875 644.4375,689.6875 Q645.3438,689.6875 646.25,689.9219 Q647.1563,690.1406 647.9844,690.5469 L647.1563,692.6406 Q646.4688,692.3125 645.7813,692.0781 Q645.0938,691.8281 644.4375,691.8281 Z " fill="#000000"/><text fill="#000000" font-family="sans-serif" font-size="14" lengthAdjust="spacing" textLength="55" x="658.5" y="700.8467">Accessor</text></g><!--class ParametricArrowFunction--><g id="elem_ParametricArrowFunction"><rect codeLine="55" fill="#CCFFFF" height="32" id="ParametricArrowFunction" rx="2.5" ry="2.5" style="stroke:#A9A9A9;stroke-width:0.5;" width="195" x="937.5" y="680"/><ellipse cx="952.5" cy="696" fill="#FFFFFF" rx="11" ry="11" style="stroke:#181818;stroke-width:1.0;"/><path d="M952.4375,691.8281 Q951.6875,691.8281 951.125,692.125 Q950.5625,692.4063 950.1719,692.9375 Q949.7813,693.4688 949.5781,694.25 Q949.3906,695.0156 949.3906,695.9688 Q949.3906,696.9375 949.5625,697.7031 Q949.75,698.4531 950.1094,698.9688 Q950.4844,699.4844 951.0625,699.7656 Q951.6406,700.0313 952.4375,700.0313 Q953.1719,700.0313 953.9063,699.8594 Q954.6563,699.6875 955.5313,699.3906 L955.5313,701.5469 Q955.125,701.7031 954.7344,701.8281 Q954.3438,701.9375 953.9375,702.0156 Q953.5313,702.0938 953.1094,702.125 Q952.6875,702.1719 952.1875,702.1719 Q950.7813,702.1719 949.75,701.7188 Q948.7344,701.2656 948.0625,700.4531 Q947.3906,699.6406 947.0625,698.5 Q946.7344,697.3438 946.7344,695.9531 Q946.7344,694.5781 947.1094,693.4219 Q947.4844,692.2656 948.2031,691.4375 Q948.9219,690.6094 949.9844,690.1563 Q951.0469,689.6875 952.4375,689.6875 Q953.3438,689.6875 954.25,689.9219 Q955.1563,690.1406 955.9844,690.5469 L955.1563,692.6406 Q954.4688,692.3125 953.7813,692.0781 Q953.0938,691.8281 952.4375,691.8281 Z " fill="#000000"/><text fill="#000000" font-family="sans-serif" font-size="14" lengthAdjust="spacing" textLength="163" x="966.5" y="700.8467">ParametricArrowFunction</text></g><!--class TEntityCreator--><g id="elem_TEntityCreator"><rect codeLine="57" fill="#CCFFFF" height="32" id="TEntityCreator" rx="2.5" ry="2.5" style="stroke:#A9A9A9;stroke-width:0.5;" width="123" x="2366.5" y="7"/><ellipse cx="2381.5" cy="23" fill="#FFFFFF" rx="11" ry="11" style="stroke:#181818;stroke-width:1.0;"/><path d="M2382.9531,29.75 L2380.3906,29.75 L2380.3906,19.75 L2377.3438,19.75 L2377.3438,17.6094 L2385.9844,17.6094 L2385.9844,19.75 L2382.9531,19.75 L2382.9531,29.75 Z " fill="#000000"/><text fill="#000000" font-family="sans-serif" font-size="14" lengthAdjust="spacing" textLength="91" x="2395.5" y="27.8467">TEntityCreator</text></g><!--class ParametricInterface--><g id="elem_ParametricInterface"><rect codeLine="59" fill="#CCFFFF" height="32" id="ParametricInterface" rx="2.5" ry="2.5" style="stroke:#A9A9A9;stroke-width:0.5;" width="160" x="7" y="680"/><ellipse cx="22" cy="696" fill="#FFFFFF" rx="11" ry="11" style="stroke:#181818;stroke-width:1.0;"/><path d="M21.9375,691.8281 Q21.1875,691.8281 20.625,692.125 Q20.0625,692.4063 19.6719,692.9375 Q19.2813,693.4688 19.0781,694.25 Q18.8906,695.0156 18.8906,695.9688 Q18.8906,696.9375 19.0625,697.7031 Q19.25,698.4531 19.6094,698.9688 Q19.9844,699.4844 20.5625,699.7656 Q21.1406,700.0313 21.9375,700.0313 Q22.6719,700.0313 23.4063,699.8594 Q24.1563,699.6875 25.0313,699.3906 L25.0313,701.5469 Q24.625,701.7031 24.2344,701.8281 Q23.8438,701.9375 23.4375,702.0156 Q23.0313,702.0938 22.6094,702.125 Q22.1875,702.1719 21.6875,702.1719 Q20.2813,702.1719 19.25,701.7188 Q18.2344,701.2656 17.5625,700.4531 Q16.8906,699.6406 16.5625,698.5 Q16.2344,697.3438 16.2344,695.9531 Q16.2344,694.5781 16.6094,693.4219 Q16.9844,692.2656 17.7031,691.4375 Q18.4219,690.6094 19.4844,690.1563 Q20.5469,689.6875 21.9375,689.6875 Q22.8438,689.6875 23.75,689.9219 Q24.6563,690.1406 25.4844,690.5469 L24.6563,692.6406 Q23.9688,692.3125 23.2813,692.0781 Q22.5938,691.8281 21.9375,691.8281 Z " fill="#000000"/><text fill="#000000" font-family="sans-serif" font-size="14" lengthAdjust="spacing" textLength="128" x="36" y="700.8467">ParametricInterface</text></g><!--class Type--><g id="elem_Type"><rect codeLine="61" fill="#CCFFFF" height="32" id="Type" rx="2.5" ry="2.5" style="stroke:#A9A9A9;stroke-width:0.5;" width="62" x="415" y="459.5"/><ellipse cx="430" cy="475.5" fill="#FFFFFF" rx="11" ry="11" style="stroke:#181818;stroke-width:1.0;"/><path d="M429.9375,471.3281 Q429.1875,471.3281 428.625,471.625 Q428.0625,471.9063 427.6719,472.4375 Q427.2813,472.9688 427.0781,473.75 Q426.8906,474.5156 426.8906,475.4688 Q426.8906,476.4375 427.0625,477.2031 Q427.25,477.9531 427.6094,478.4688 Q427.9844,478.9844 428.5625,479.2656 Q429.1406,479.5313 429.9375,479.5313 Q430.6719,479.5313 431.4063,479.3594 Q432.1563,479.1875 433.0313,478.8906 L433.0313,481.0469 Q432.625,481.2031 432.2344,481.3281 Q431.8438,481.4375 431.4375,481.5156 Q431.0313,481.5938 430.6094,481.625 Q430.1875,481.6719 429.6875,481.6719 Q428.2813,481.6719 427.25,481.2188 Q426.2344,480.7656 425.5625,479.9531 Q424.8906,479.1406 424.5625,478 Q424.2344,476.8438 424.2344,475.4531 Q424.2344,474.0781 424.6094,472.9219 Q424.9844,471.7656 425.7031,470.9375 Q426.4219,470.1094 427.4844,469.6563 Q428.5469,469.1875 429.9375,469.1875 Q430.8438,469.1875 431.75,469.4219 Q432.6563,469.6406 433.4844,470.0469 L432.6563,472.1406 Q431.9688,471.8125 431.2813,471.5781 Q430.5938,471.3281 429.9375,471.3281 Z " fill="#000000"/><text fill="#000000" font-family="sans-serif" font-size="14" lengthAdjust="spacing" textLength="30" x="444" y="480.3467">Type</text></g><!--class Alias--><g id="elem_Alias"><rect codeLine="63" fill="#CCFFFF" height="32" id="Alias" rx="2.5" ry="2.5" style="stroke:#A9A9A9;stroke-width:0.5;" width="62" x="1779" y="319"/><ellipse cx="1794" cy="335" fill="#FFFFFF" rx="11" ry="11" style="stroke:#181818;stroke-width:1.0;"/><path d="M1793.9375,330.8281 Q1793.1875,330.8281 1792.625,331.125 Q1792.0625,331.4063 1791.6719,331.9375 Q1791.2813,332.4688 1791.0781,333.25 Q1790.8906,334.0156 1790.8906,334.9688 Q1790.8906,335.9375 1791.0625,336.7031 Q1791.25,337.4531 1791.6094,337.9688 Q1791.9844,338.4844 1792.5625,338.7656 Q1793.1406,339.0313 1793.9375,339.0313 Q1794.6719,339.0313 1795.4063,338.8594 Q1796.1563,338.6875 1797.0313,338.3906 L1797.0313,340.5469 Q1796.625,340.7031 1796.2344,340.8281 Q1795.8438,340.9375 1795.4375,341.0156 Q1795.0313,341.0938 1794.6094,341.125 Q1794.1875,341.1719 1793.6875,341.1719 Q1792.2813,341.1719 1791.25,340.7188 Q1790.2344,340.2656 1789.5625,339.4531 Q1788.8906,338.6406 1788.5625,337.5 Q1788.2344,336.3438 1788.2344,334.9531 Q1788.2344,333.5781 1788.6094,332.4219 Q1788.9844,331.2656 1789.7031,330.4375 Q1790.4219,329.6094 1791.4844,329.1563 Q1792.5469,328.6875 1793.9375,328.6875 Q1794.8438,328.6875 1795.75,328.9219 Q1796.6563,329.1406 1797.4844,329.5469 L1796.6563,331.6406 Q1795.9688,331.3125 1795.2813,331.0781 Q1794.5938,330.8281 1793.9375,330.8281 Z " fill="#000000"/><text fill="#000000" font-family="sans-serif" font-size="14" lengthAdjust="spacing" textLength="30" x="1808" y="339.8467">Alias</text></g><!--class ParametricClass--><g id="elem_ParametricClass"><rect codeLine="65" fill="#CCFFFF" height="32" id="ParametricClass" rx="2.5" ry="2.5" style="stroke:#A9A9A9;stroke-width:0.5;" width="133" x="461.5" y="680"/><ellipse cx="476.5" cy="696" fill="#FFFFFF" rx="11" ry="11" style="stroke:#181818;stroke-width:1.0;"/><path d="M476.4375,691.8281 Q475.6875,691.8281 475.125,692.125 Q474.5625,692.4063 474.1719,692.9375 Q473.7813,693.4688 473.5781,694.25 Q473.3906,695.0156 473.3906,695.9688 Q473.3906,696.9375 473.5625,697.7031 Q473.75,698.4531 474.1094,698.9688 Q474.4844,699.4844 475.0625,699.7656 Q475.6406,700.0313 476.4375,700.0313 Q477.1719,700.0313 477.9063,699.8594 Q478.6563,699.6875 479.5313,699.3906 L479.5313,701.5469 Q479.125,701.7031 478.7344,701.8281 Q478.3438,701.9375 477.9375,702.0156 Q477.5313,702.0938 477.1094,702.125 Q476.6875,702.1719 476.1875,702.1719 Q474.7813,702.1719 473.75,701.7188 Q472.7344,701.2656 472.0625,700.4531 Q471.3906,699.6406 471.0625,698.5 Q470.7344,697.3438 470.7344,695.9531 Q470.7344,694.5781 471.1094,693.4219 Q471.4844,692.2656 472.2031,691.4375 Q472.9219,690.6094 473.9844,690.1563 Q475.0469,689.6875 476.4375,689.6875 Q477.3438,689.6875 478.25,689.9219 Q479.1563,690.1406 479.9844,690.5469 L479.1563,692.6406 Q478.4688,692.3125 477.7813,692.0781 Q477.0938,691.8281 476.4375,691.8281 Z " fill="#000000"/><text fill="#000000" font-family="sans-serif" font-size="14" lengthAdjust="spacing" textLength="101" x="490.5" y="700.8467">ParametricClass</text></g><!--class ParametricMethod--><g id="elem_ParametricMethod"><rect codeLine="67" fill="#CCFFFF" height="32" id="ParametricMethod" rx="2.5" ry="2.5" style="stroke:#A9A9A9;stroke-width:0.5;" width="151" x="751.5" y="680"/><ellipse cx="766.5" cy="696" fill="#FFFFFF" rx="11" ry="11" style="stroke:#181818;stroke-width:1.0;"/><path d="M766.4375,691.8281 Q765.6875,691.8281 765.125,692.125 Q764.5625,692.4063 764.1719,692.9375 Q763.7813,693.4688 763.5781,694.25 Q763.3906,695.0156 763.3906,695.9688 Q763.3906,696.9375 763.5625,697.7031 Q763.75,698.4531 764.1094,698.9688 Q764.4844,699.4844 765.0625,699.7656 Q765.6406,700.0313 766.4375,700.0313 Q767.1719,700.0313 767.9063,699.8594 Q768.6563,699.6875 769.5313,699.3906 L769.5313,701.5469 Q769.125,701.7031 768.7344,701.8281 Q768.3438,701.9375 767.9375,702.0156 Q767.5313,702.0938 767.1094,702.125 Q766.6875,702.1719 766.1875,702.1719 Q764.7813,702.1719 763.75,701.7188 Q762.7344,701.2656 762.0625,700.4531 Q761.3906,699.6406 761.0625,698.5 Q760.7344,697.3438 760.7344,695.9531 Q760.7344,694.5781 761.1094,693.4219 Q761.4844,692.2656 762.2031,691.4375 Q762.9219,690.6094 763.9844,690.1563 Q765.0469,689.6875 766.4375,689.6875 Q767.3438,689.6875 768.25,689.9219 Q769.1563,690.1406 769.9844,690.5469 L769.1563,692.6406 Q768.4688,692.3125 767.7813,692.0781 Q767.0938,691.8281 766.4375,691.8281 Z " fill="#000000"/><text fill="#000000" font-family="sans-serif" font-size="14" lengthAdjust="spacing" textLength="119" x="780.5" y="700.8467">ParametricMethod</text></g><!--class Decorator--><g id="elem_Decorator"><rect codeLine="69" fill="#CCFFFF" height="56.2969" id="Decorator" rx="2.5" ry="2.5" style="stroke:#A9A9A9;stroke-width:0.5;" width="122" x="1876" y="307"/><ellipse cx="1902.7" cy="323" fill="#FFFFFF" rx="11" ry="11" style="stroke:#181818;stroke-width:1.0;"/><path d="M1902.6375,318.8281 Q1901.8875,318.8281 1901.325,319.125 Q1900.7625,319.4063 1900.3719,319.9375 Q1899.9813,320.4688 1899.7781,321.25 Q1899.5906,322.0156 1899.5906,322.9688 Q1899.5906,323.9375 1899.7625,324.7031 Q1899.95,325.4531 1900.3094,325.9688 Q1900.6844,326.4844 1901.2625,326.7656 Q1901.8406,327.0313 1902.6375,327.0313 Q1903.3719,327.0313 1904.1063,326.8594 Q1904.8563,326.6875 1905.7313,326.3906 L1905.7313,328.5469 Q1905.325,328.7031 1904.9344,328.8281 Q1904.5438,328.9375 1904.1375,329.0156 Q1903.7313,329.0938 1903.3094,329.125 Q1902.8875,329.1719 1902.3875,329.1719 Q1900.9813,329.1719 1899.95,328.7188 Q1898.9344,328.2656 1898.2625,327.4531 Q1897.5906,326.6406 1897.2625,325.5 Q1896.9344,324.3438 1896.9344,322.9531 Q1896.9344,321.5781 1897.3094,320.4219 Q1897.6844,319.2656 1898.4031,318.4375 Q1899.1219,317.6094 1900.1844,317.1563 Q1901.2469,316.6875 1902.6375,316.6875 Q1903.5438,316.6875 1904.45,316.9219 Q1905.3563,317.1406 1906.1844,317.5469 L1905.3563,319.6406 Q1904.6688,319.3125 1903.9813,319.0781 Q1903.2938,318.8281 1902.6375,318.8281 Z " fill="#000000"/><text fill="#000000" font-family="sans-serif" font-size="14" lengthAdjust="spacing" textLength="64" x="1919.3" y="327.8467">Decorator</text><line style="stroke:#A9A9A9;stroke-width:0.5;" x1="1877" x2="1997" y1="339" y2="339"/><text fill="#000000" font-family="sans-serif" font-size="14" lengthAdjust="spacing" textLength="110" x="1882" y="355.9951">String expression</text></g><!--class ParameterConcretization--><g id="elem_ParameterConcretization"><rect codeLine="72" fill="#CCFFFF" height="32" id="ParameterConcretization" rx="2.5" ry="2.5" style="stroke:#A9A9A9;stroke-width:0.5;" width="191" x="1207.5" y="99"/><ellipse cx="1222.5" cy="115" fill="#FFFFFF" rx="11" ry="11" style="stroke:#181818;stroke-width:1.0;"/><path d="M1222.4375,110.8281 Q1221.6875,110.8281 1221.125,111.125 Q1220.5625,111.4063 1220.1719,111.9375 Q1219.7813,112.4688 1219.5781,113.25 Q1219.3906,114.0156 1219.3906,114.9688 Q1219.3906,115.9375 1219.5625,116.7031 Q1219.75,117.4531 1220.1094,117.9688 Q1220.4844,118.4844 1221.0625,118.7656 Q1221.6406,119.0313 1222.4375,119.0313 Q1223.1719,119.0313 1223.9063,118.8594 Q1224.6563,118.6875 1225.5313,118.3906 L1225.5313,120.5469 Q1225.125,120.7031 1224.7344,120.8281 Q1224.3438,120.9375 1223.9375,121.0156 Q1223.5313,121.0938 1223.1094,121.125 Q1222.6875,121.1719 1222.1875,121.1719 Q1220.7813,121.1719 1219.75,120.7188 Q1218.7344,120.2656 1218.0625,119.4531 Q1217.3906,118.6406 1217.0625,117.5 Q1216.7344,116.3438 1216.7344,114.9531 Q1216.7344,113.5781 1217.1094,112.4219 Q1217.4844,111.2656 1218.2031,110.4375 Q1218.9219,109.6094 1219.9844,109.1563 Q1221.0469,108.6875 1222.4375,108.6875 Q1223.3438,108.6875 1224.25,108.9219 Q1225.1563,109.1406 1225.9844,109.5469 L1225.1563,111.6406 Q1224.4688,111.3125 1223.7813,111.0781 Q1223.0938,110.8281 1222.4375,110.8281 Z " fill="#000000"/><text fill="#000000" font-family="sans-serif" font-size="14" lengthAdjust="spacing" textLength="159" x="1236.5" y="119.8467">ParameterConcretization</text></g><!--class SourceAnchor--><g id="elem_SourceAnchor"><rect codeLine="74" fill="#CCFFFF" height="32" id="SourceAnchor" rx="2.5" ry="2.5" style="stroke:#A9A9A9;stroke-width:0.5;" width="120" x="1434" y="99"/><ellipse cx="1449" cy="115" fill="#FFFFFF" rx="11" ry="11" style="stroke:#181818;stroke-width:1.0;"/><path d="M1448.9375,110.8281 Q1448.1875,110.8281 1447.625,111.125 Q1447.0625,111.4063 1446.6719,111.9375 Q1446.2813,112.4688 1446.0781,113.25 Q1445.8906,114.0156 1445.8906,114.9688 Q1445.8906,115.9375 1446.0625,116.7031 Q1446.25,117.4531 1446.6094,117.9688 Q1446.9844,118.4844 1447.5625,118.7656 Q1448.1406,119.0313 1448.9375,119.0313 Q1449.6719,119.0313 1450.4063,118.8594 Q1451.1563,118.6875 1452.0313,118.3906 L1452.0313,120.5469 Q1451.625,120.7031 1451.2344,120.8281 Q1450.8438,120.9375 1450.4375,121.0156 Q1450.0313,121.0938 1449.6094,121.125 Q1449.1875,121.1719 1448.6875,121.1719 Q1447.2813,121.1719 1446.25,120.7188 Q1445.2344,120.2656 1444.5625,119.4531 Q1443.8906,118.6406 1443.5625,117.5 Q1443.2344,116.3438 1443.2344,114.9531 Q1443.2344,113.5781 1443.6094,112.4219 Q1443.9844,111.2656 1444.7031,110.4375 Q1445.4219,109.6094 1446.4844,109.1563 Q1447.5469,108.6875 1448.9375,108.6875 Q1449.8438,108.6875 1450.75,108.9219 Q1451.6563,109.1406 1452.4844,109.5469 L1451.6563,111.6406 Q1450.9688,111.3125 1450.2813,111.0781 Q1449.5938,110.8281 1448.9375,110.8281 Z " fill="#000000"/><text fill="#000000" font-family="sans-serif" font-size="14" lengthAdjust="spacing" textLength="88" x="1463" y="119.8467">SourceAnchor</text></g><!--class BehaviouralEntity--><g id="elem_BehaviouralEntity"><rect codeLine="76" fill="#CCFFFF" height="32" id="BehaviouralEntity" rx="2.5" ry="2.5" style="stroke:#A9A9A9;stroke-width:0.5;" width="144" x="1006" y="459.5"/><ellipse cx="1021" cy="475.5" fill="#FFFFFF" rx="11" ry="11" style="stroke:#181818;stroke-width:1.0;"/><path d="M1020.9375,471.3281 Q1020.1875,471.3281 1019.625,471.625 Q1019.0625,471.9063 1018.6719,472.4375 Q1018.2813,472.9688 1018.0781,473.75 Q1017.8906,474.5156 1017.8906,475.4688 Q1017.8906,476.4375 1018.0625,477.2031 Q1018.25,477.9531 1018.6094,478.4688 Q1018.9844,478.9844 1019.5625,479.2656 Q1020.1406,479.5313 1020.9375,479.5313 Q1021.6719,479.5313 1022.4063,479.3594 Q1023.1563,479.1875 1024.0313,478.8906 L1024.0313,481.0469 Q1023.625,481.2031 1023.2344,481.3281 Q1022.8438,481.4375 1022.4375,481.5156 Q1022.0313,481.5938 1021.6094,481.625 Q1021.1875,481.6719 1020.6875,481.6719 Q1019.2813,481.6719 1018.25,481.2188 Q1017.2344,480.7656 1016.5625,479.9531 Q1015.8906,479.1406 1015.5625,478 Q1015.2344,476.8438 1015.2344,475.4531 Q1015.2344,474.0781 1015.6094,472.9219 Q1015.9844,471.7656 1016.7031,470.9375 Q1017.4219,470.1094 1018.4844,469.6563 Q1019.5469,469.1875 1020.9375,469.1875 Q1021.8438,469.1875 1022.75,469.4219 Q1023.6563,469.6406 1024.4844,470.0469 L1023.6563,472.1406 Q1022.9688,471.8125 1022.2813,471.5781 Q1021.5938,471.3281 1020.9375,471.3281 Z " fill="#000000"/><text fill="#000000" font-family="sans-serif" font-size="14" lengthAdjust="spacing" textLength="112" x="1035" y="480.3467">BehaviouralEntity</text></g><!--class Variable--><g id="elem_Variable"><rect codeLine="78" fill="#CCFFFF" height="32" id="Variable" rx="2.5" ry="2.5" style="stroke:#A9A9A9;stroke-width:0.5;" width="84" x="1546" y="459.5"/><ellipse cx="1561" cy="475.5" fill="#FFFFFF" rx="11" ry="11" style="stroke:#181818;stroke-width:1.0;"/><path d="M1560.9375,471.3281 Q1560.1875,471.3281 1559.625,471.625 Q1559.0625,471.9063 1558.6719,472.4375 Q1558.2813,472.9688 1558.0781,473.75 Q1557.8906,474.5156 1557.8906,475.4688 Q1557.8906,476.4375 1558.0625,477.2031 Q1558.25,477.9531 1558.6094,478.4688 Q1558.9844,478.9844 1559.5625,479.2656 Q1560.1406,479.5313 1560.9375,479.5313 Q1561.6719,479.5313 1562.4063,479.3594 Q1563.1563,479.1875 1564.0313,478.8906 L1564.0313,481.0469 Q1563.625,481.2031 1563.2344,481.3281 Q1562.8438,481.4375 1562.4375,481.5156 Q1562.0313,481.5938 1561.6094,481.625 Q1561.1875,481.6719 1560.6875,481.6719 Q1559.2813,481.6719 1558.25,481.2188 Q1557.2344,480.7656 1556.5625,479.9531 Q1555.8906,479.1406 1555.5625,478 Q1555.2344,476.8438 1555.2344,475.4531 Q1555.2344,474.0781 1555.6094,472.9219 Q1555.9844,471.7656 1556.7031,470.9375 Q1557.4219,470.1094 1558.4844,469.6563 Q1559.5469,469.1875 1560.9375,469.1875 Q1561.8438,469.1875 1562.75,469.4219 Q1563.6563,469.6406 1564.4844,470.0469 L1563.6563,472.1406 Q1562.9688,471.8125 1562.2813,471.5781 Q1561.5938,471.3281 1560.9375,471.3281 Z " fill="#000000"/><text fill="#000000" font-family="sans-serif" font-size="14" lengthAdjust="spacing" textLength="52" x="1575" y="480.3467">Variable</text></g><!--class Folder--><g id="elem_Folder"><rect codeLine="80" fill="#CCFFFF" height="32" id="Folder" rx="2.5" ry="2.5" style="stroke:#A9A9A9;stroke-width:0.5;" width="73" x="2033.5" y="319"/><ellipse cx="2048.5" cy="335" fill="#FFFFFF" rx="11" ry="11" style="stroke:#181818;stroke-width:1.0;"/><path d="M2048.4375,330.8281 Q2047.6875,330.8281 2047.125,331.125 Q2046.5625,331.4063 2046.1719,331.9375 Q2045.7813,332.4688 2045.5781,333.25 Q2045.3906,334.0156 2045.3906,334.9688 Q2045.3906,335.9375 2045.5625,336.7031 Q2045.75,337.4531 2046.1094,337.9688 Q2046.4844,338.4844 2047.0625,338.7656 Q2047.6406,339.0313 2048.4375,339.0313 Q2049.1719,339.0313 2049.9063,338.8594 Q2050.6563,338.6875 2051.5313,338.3906 L2051.5313,340.5469 Q2051.125,340.7031 2050.7344,340.8281 Q2050.3438,340.9375 2049.9375,341.0156 Q2049.5313,341.0938 2049.1094,341.125 Q2048.6875,341.1719 2048.1875,341.1719 Q2046.7813,341.1719 2045.75,340.7188 Q2044.7344,340.2656 2044.0625,339.4531 Q2043.3906,338.6406 2043.0625,337.5 Q2042.7344,336.3438 2042.7344,334.9531 Q2042.7344,333.5781 2043.1094,332.4219 Q2043.4844,331.2656 2044.2031,330.4375 Q2044.9219,329.6094 2045.9844,329.1563 Q2047.0469,328.6875 2048.4375,328.6875 Q2049.3438,328.6875 2050.25,328.9219 Q2051.1563,329.1406 2051.9844,329.5469 L2051.1563,331.6406 Q2050.4688,331.3125 2049.7813,331.0781 Q2049.0938,330.8281 2048.4375,330.8281 Z " fill="#000000"/><text fill="#000000" font-family="sans-serif" font-size="14" lengthAdjust="spacing" textLength="41" x="2062.5" y="339.8467">Folder</text></g><!--class Property--><g id="elem_Property"><rect codeLine="82" fill="#CCFFFF" height="105.1875" id="Property" rx="2.5" ry="2.5" style="stroke:#A9A9A9;stroke-width:0.5;" width="197" x="1665.5" y="423"/><ellipse cx="1731.75" cy="439" fill="#FFFFFF" rx="11" ry="11" style="stroke:#181818;stroke-width:1.0;"/><path d="M1731.6875,434.8281 Q1730.9375,434.8281 1730.375,435.125 Q1729.8125,435.4063 1729.4219,435.9375 Q1729.0313,436.4688 1728.8281,437.25 Q1728.6406,438.0156 1728.6406,438.9688 Q1728.6406,439.9375 1728.8125,440.7031 Q1729,441.4531 1729.3594,441.9688 Q1729.7344,442.4844 1730.3125,442.7656 Q1730.8906,443.0313 1731.6875,443.0313 Q1732.4219,443.0313 1733.1563,442.8594 Q1733.9063,442.6875 1734.7813,442.3906 L1734.7813,444.5469 Q1734.375,444.7031 1733.9844,444.8281 Q1733.5938,444.9375 1733.1875,445.0156 Q1732.7813,445.0938 1732.3594,445.125 Q1731.9375,445.1719 1731.4375,445.1719 Q1730.0313,445.1719 1729,444.7188 Q1727.9844,444.2656 1727.3125,443.4531 Q1726.6406,442.6406 1726.3125,441.5 Q1725.9844,440.3438 1725.9844,438.9531 Q1725.9844,437.5781 1726.3594,436.4219 Q1726.7344,435.2656 1727.4531,434.4375 Q1728.1719,433.6094 1729.2344,433.1563 Q1730.2969,432.6875 1731.6875,432.6875 Q1732.5938,432.6875 1733.5,432.9219 Q1734.4063,433.1406 1735.2344,433.5469 L1734.4063,435.6406 Q1733.7188,435.3125 1733.0313,435.0781 Q1732.3438,434.8281 1731.6875,434.8281 Z " fill="#000000"/><text fill="#000000" font-family="sans-serif" font-size="14" lengthAdjust="spacing" textLength="56" x="1752.25" y="443.8467">Property</text><line style="stroke:#A9A9A9;stroke-width:0.5;" x1="1666.5" x2="1861.5" y1="455" y2="455"/><text fill="#000000" font-family="sans-serif" font-size="14" lengthAdjust="spacing" textLength="185" x="1671.5" y="471.9951">Boolean isDefinitelyAssigned</text><text fill="#000000" font-family="sans-serif" font-size="14" lengthAdjust="spacing" textLength="120" x="1671.5" y="488.292">Boolean isOptional</text><text fill="#000000" font-family="sans-serif" font-size="14" lengthAdjust="spacing" textLength="114" x="1671.5" y="504.5889">Boolean readOnly</text><text fill="#000000" font-family="sans-serif" font-size="14" lengthAdjust="spacing" textLength="172" x="1671.5" y="520.8857">Boolean isJavaScriptPrivate</text></g><!--class Inheritance--><g id="elem_Inheritance"><rect codeLine="88" fill="#CCFFFF" height="32" id="Inheritance" rx="2.5" ry="2.5" style="stroke:#A9A9A9;stroke-width:0.5;" width="105" x="1589.5" y="99"/><ellipse cx="1604.5" cy="115" fill="#FFFFFF" rx="11" ry="11" style="stroke:#181818;stroke-width:1.0;"/><path d="M1604.4375,110.8281 Q1603.6875,110.8281 1603.125,111.125 Q1602.5625,111.4063 1602.1719,111.9375 Q1601.7813,112.4688 1601.5781,113.25 Q1601.3906,114.0156 1601.3906,114.9688 Q1601.3906,115.9375 1601.5625,116.7031 Q1601.75,117.4531 1602.1094,117.9688 Q1602.4844,118.4844 1603.0625,118.7656 Q1603.6406,119.0313 1604.4375,119.0313 Q1605.1719,119.0313 1605.9063,118.8594 Q1606.6563,118.6875 1607.5313,118.3906 L1607.5313,120.5469 Q1607.125,120.7031 1606.7344,120.8281 Q1606.3438,120.9375 1605.9375,121.0156 Q1605.5313,121.0938 1605.1094,121.125 Q1604.6875,121.1719 1604.1875,121.1719 Q1602.7813,121.1719 1601.75,120.7188 Q1600.7344,120.2656 1600.0625,119.4531 Q1599.3906,118.6406 1599.0625,117.5 Q1598.7344,116.3438 1598.7344,114.9531 Q1598.7344,113.5781 1599.1094,112.4219 Q1599.4844,111.2656 1600.2031,110.4375 Q1600.9219,109.6094 1601.9844,109.1563 Q1603.0469,108.6875 1604.4375,108.6875 Q1605.3438,108.6875 1606.25,108.9219 Q1607.1563,109.1406 1607.9844,109.5469 L1607.1563,111.6406 Q1606.4688,111.3125 1605.7813,111.0781 Q1605.0938,110.8281 1604.4375,110.8281 Z " fill="#000000"/><text fill="#000000" font-family="sans-serif" font-size="14" lengthAdjust="spacing" textLength="73" x="1618.5" y="119.8467">Inheritance</text></g><!--class Comment--><g id="elem_Comment"><rect codeLine="90" fill="#CCFFFF" height="56.2969" id="Comment" rx="2.5" ry="2.5" style="stroke:#A9A9A9;stroke-width:0.5;" width="113" x="1902.5" y="191"/><ellipse cx="1925.6" cy="207" fill="#FFFFFF" rx="11" ry="11" style="stroke:#181818;stroke-width:1.0;"/><path d="M1925.5375,202.8281 Q1924.7875,202.8281 1924.225,203.125 Q1923.6625,203.4063 1923.2719,203.9375 Q1922.8813,204.4688 1922.6781,205.25 Q1922.4906,206.0156 1922.4906,206.9688 Q1922.4906,207.9375 1922.6625,208.7031 Q1922.85,209.4531 1923.2094,209.9688 Q1923.5844,210.4844 1924.1625,210.7656 Q1924.7406,211.0313 1925.5375,211.0313 Q1926.2719,211.0313 1927.0063,210.8594 Q1927.7563,210.6875 1928.6313,210.3906 L1928.6313,212.5469 Q1928.225,212.7031 1927.8344,212.8281 Q1927.4438,212.9375 1927.0375,213.0156 Q1926.6313,213.0938 1926.2094,213.125 Q1925.7875,213.1719 1925.2875,213.1719 Q1923.8813,213.1719 1922.85,212.7188 Q1921.8344,212.2656 1921.1625,211.4531 Q1920.4906,210.6406 1920.1625,209.5 Q1919.8344,208.3438 1919.8344,206.9531 Q1919.8344,205.5781 1920.2094,204.4219 Q1920.5844,203.2656 1921.3031,202.4375 Q1922.0219,201.6094 1923.0844,201.1563 Q1924.1469,200.6875 1925.5375,200.6875 Q1926.4438,200.6875 1927.35,200.9219 Q1928.2563,201.1406 1929.0844,201.5469 L1928.2563,203.6406 Q1927.5688,203.3125 1926.8813,203.0781 Q1926.1938,202.8281 1925.5375,202.8281 Z " fill="#000000"/><text fill="#000000" font-family="sans-serif" font-size="14" lengthAdjust="spacing" textLength="63" x="1941.4" y="211.8467">Comment</text><line style="stroke:#A9A9A9;stroke-width:0.5;" x1="1903.5" x2="2014.5" y1="223" y2="223"/><text fill="#000000" font-family="sans-serif" font-size="14" lengthAdjust="spacing" textLength="101" x="1908.5" y="239.9951">Boolean isJSDoc</text></g><!--class Class--><g id="elem_Class"><rect codeLine="93" fill="#CCFFFF" height="32" id="Class" rx="2.5" ry="2.5" style="stroke:#A9A9A9;stroke-width:0.5;" width="63" x="592.5" y="588"/><ellipse cx="607.5" cy="604" fill="#FFFFFF" rx="11" ry="11" style="stroke:#181818;stroke-width:1.0;"/><path d="M607.4375,599.8281 Q606.6875,599.8281 606.125,600.125 Q605.5625,600.4063 605.1719,600.9375 Q604.7813,601.4688 604.5781,602.25 Q604.3906,603.0156 604.3906,603.9688 Q604.3906,604.9375 604.5625,605.7031 Q604.75,606.4531 605.1094,606.9688 Q605.4844,607.4844 606.0625,607.7656 Q606.6406,608.0313 607.4375,608.0313 Q608.1719,608.0313 608.9063,607.8594 Q609.6563,607.6875 610.5313,607.3906 L610.5313,609.5469 Q610.125,609.7031 609.7344,609.8281 Q609.3438,609.9375 608.9375,610.0156 Q608.5313,610.0938 608.1094,610.125 Q607.6875,610.1719 607.1875,610.1719 Q605.7813,610.1719 604.75,609.7188 Q603.7344,609.2656 603.0625,608.4531 Q602.3906,607.6406 602.0625,606.5 Q601.7344,605.3438 601.7344,603.9531 Q601.7344,602.5781 602.1094,601.4219 Q602.4844,600.2656 603.2031,599.4375 Q603.9219,598.6094 604.9844,598.1563 Q606.0469,597.6875 607.4375,597.6875 Q608.3438,597.6875 609.25,597.9219 Q610.1563,598.1406 610.9844,598.5469 L610.1563,600.6406 Q609.4688,600.3125 608.7813,600.0781 Q608.0938,599.8281 607.4375,599.8281 Z " fill="#000000"/><text fill="#000000" font-family="sans-serif" font-size="14" lengthAdjust="spacing" textLength="31" x="621.5" y="608.8467">Class</text></g><!--class SourceLanguage--><g id="elem_SourceLanguage"><rect codeLine="95" fill="#CCFFFF" height="32" id="SourceLanguage" rx="2.5" ry="2.5" style="stroke:#A9A9A9;stroke-width:0.5;" width="134" x="1730" y="99"/><ellipse cx="1745" cy="115" fill="#FFFFFF" rx="11" ry="11" style="stroke:#181818;stroke-width:1.0;"/><path d="M1744.9375,110.8281 Q1744.1875,110.8281 1743.625,111.125 Q1743.0625,111.4063 1742.6719,111.9375 Q1742.2813,112.4688 1742.0781,113.25 Q1741.8906,114.0156 1741.8906,114.9688 Q1741.8906,115.9375 1742.0625,116.7031 Q1742.25,117.4531 1742.6094,117.9688 Q1742.9844,118.4844 1743.5625,118.7656 Q1744.1406,119.0313 1744.9375,119.0313 Q1745.6719,119.0313 1746.4063,118.8594 Q1747.1563,118.6875 1748.0313,118.3906 L1748.0313,120.5469 Q1747.625,120.7031 1747.2344,120.8281 Q1746.8438,120.9375 1746.4375,121.0156 Q1746.0313,121.0938 1745.6094,121.125 Q1745.1875,121.1719 1744.6875,121.1719 Q1743.2813,121.1719 1742.25,120.7188 Q1741.2344,120.2656 1740.5625,119.4531 Q1739.8906,118.6406 1739.5625,117.5 Q1739.2344,116.3438 1739.2344,114.9531 Q1739.2344,113.5781 1739.6094,112.4219 Q1739.9844,111.2656 1740.7031,110.4375 Q1741.4219,109.6094 1742.4844,109.1563 Q1743.5469,108.6875 1744.9375,108.6875 Q1745.8438,108.6875 1746.75,108.9219 Q1747.6563,109.1406 1748.4844,109.5469 L1747.6563,111.6406 Q1746.9688,111.3125 1746.2813,111.0781 Q1745.5938,110.8281 1744.9375,110.8281 Z " fill="#000000"/><text fill="#000000" font-family="sans-serif" font-size="14" lengthAdjust="spacing" textLength="102" x="1759" y="119.8467">SourceLanguage</text></g><!--class ScopingEntity--><g id="elem_ScopingEntity"><rect codeLine="97" fill="#CCFFFF" height="32" id="ScopingEntity" rx="2.5" ry="2.5" style="stroke:#A9A9A9;stroke-width:0.5;" width="116" x="1248" y="459.5"/><ellipse cx="1263" cy="475.5" fill="#FFFFFF" rx="11" ry="11" style="stroke:#181818;stroke-width:1.0;"/><path d="M1262.9375,471.3281 Q1262.1875,471.3281 1261.625,471.625 Q1261.0625,471.9063 1260.6719,472.4375 Q1260.2813,472.9688 1260.0781,473.75 Q1259.8906,474.5156 1259.8906,475.4688 Q1259.8906,476.4375 1260.0625,477.2031 Q1260.25,477.9531 1260.6094,478.4688 Q1260.9844,478.9844 1261.5625,479.2656 Q1262.1406,479.5313 1262.9375,479.5313 Q1263.6719,479.5313 1264.4063,479.3594 Q1265.1563,479.1875 1266.0313,478.8906 L1266.0313,481.0469 Q1265.625,481.2031 1265.2344,481.3281 Q1264.8438,481.4375 1264.4375,481.5156 Q1264.0313,481.5938 1263.6094,481.625 Q1263.1875,481.6719 1262.6875,481.6719 Q1261.2813,481.6719 1260.25,481.2188 Q1259.2344,480.7656 1258.5625,479.9531 Q1257.8906,479.1406 1257.5625,478 Q1257.2344,476.8438 1257.2344,475.4531 Q1257.2344,474.0781 1257.6094,472.9219 Q1257.9844,471.7656 1258.7031,470.9375 Q1259.4219,470.1094 1260.4844,469.6563 Q1261.5469,469.1875 1262.9375,469.1875 Q1263.8438,469.1875 1264.75,469.4219 Q1265.6563,469.6406 1266.4844,470.0469 L1265.6563,472.1406 Q1264.9688,471.8125 1264.2813,471.5781 Q1263.5938,471.3281 1262.9375,471.3281 Z " fill="#000000"/><text fill="#000000" font-family="sans-serif" font-size="14" lengthAdjust="spacing" textLength="84" x="1277" y="480.3467">ScopingEntity</text></g><!--class ArrowFunction--><g id="elem_ArrowFunction"><rect codeLine="99" fill="#CCFFFF" height="32" id="ArrowFunction" rx="2.5" ry="2.5" style="stroke:#A9A9A9;stroke-width:0.5;" width="125" x="972.5" y="588"/><ellipse cx="987.5" cy="604" fill="#FFFFFF" rx="11" ry="11" style="stroke:#181818;stroke-width:1.0;"/><path d="M987.4375,599.8281 Q986.6875,599.8281 986.125,600.125 Q985.5625,600.4063 985.1719,600.9375 Q984.7813,601.4688 984.5781,602.25 Q984.3906,603.0156 984.3906,603.9688 Q984.3906,604.9375 984.5625,605.7031 Q984.75,606.4531 985.1094,606.9688 Q985.4844,607.4844 986.0625,607.7656 Q986.6406,608.0313 987.4375,608.0313 Q988.1719,608.0313 988.9063,607.8594 Q989.6563,607.6875 990.5313,607.3906 L990.5313,609.5469 Q990.125,609.7031 989.7344,609.8281 Q989.3438,609.9375 988.9375,610.0156 Q988.5313,610.0938 988.1094,610.125 Q987.6875,610.1719 987.1875,610.1719 Q985.7813,610.1719 984.75,609.7188 Q983.7344,609.2656 983.0625,608.4531 Q982.3906,607.6406 982.0625,606.5 Q981.7344,605.3438 981.7344,603.9531 Q981.7344,602.5781 982.1094,601.4219 Q982.4844,600.2656 983.2031,599.4375 Q983.9219,598.6094 984.9844,598.1563 Q986.0469,597.6875 987.4375,597.6875 Q988.3438,597.6875 989.25,597.9219 Q990.1563,598.1406 990.9844,598.5469 L990.1563,600.6406 Q989.4688,600.3125 988.7813,600.0781 Q988.0938,599.8281 987.4375,599.8281 Z " fill="#000000"/><text fill="#000000" font-family="sans-serif" font-size="14" lengthAdjust="spacing" textLength="93" x="1001.5" y="608.8467">ArrowFunction</text></g><!--class JSDoc--><g id="elem_JSDoc"><rect codeLine="101" fill="#CCFFFF" height="32" id="JSDoc" rx="2.5" ry="2.5" style="stroke:#A9A9A9;stroke-width:0.5;" width="67" x="2050.5" y="203"/><ellipse cx="2065.5" cy="219" fill="#FFFFFF" rx="11" ry="11" style="stroke:#181818;stroke-width:1.0;"/><path d="M2065.4375,214.8281 Q2064.6875,214.8281 2064.125,215.125 Q2063.5625,215.4063 2063.1719,215.9375 Q2062.7813,216.4688 2062.5781,217.25 Q2062.3906,218.0156 2062.3906,218.9688 Q2062.3906,219.9375 2062.5625,220.7031 Q2062.75,221.4531 2063.1094,221.9688 Q2063.4844,222.4844 2064.0625,222.7656 Q2064.6406,223.0313 2065.4375,223.0313 Q2066.1719,223.0313 2066.9063,222.8594 Q2067.6563,222.6875 2068.5313,222.3906 L2068.5313,224.5469 Q2068.125,224.7031 2067.7344,224.8281 Q2067.3438,224.9375 2066.9375,225.0156 Q2066.5313,225.0938 2066.1094,225.125 Q2065.6875,225.1719 2065.1875,225.1719 Q2063.7813,225.1719 2062.75,224.7188 Q2061.7344,224.2656 2061.0625,223.4531 Q2060.3906,222.6406 2060.0625,221.5 Q2059.7344,220.3438 2059.7344,218.9531 Q2059.7344,217.5781 2060.1094,216.4219 Q2060.4844,215.2656 2061.2031,214.4375 Q2061.9219,213.6094 2062.9844,213.1563 Q2064.0469,212.6875 2065.4375,212.6875 Q2066.3438,212.6875 2067.25,212.9219 Q2068.1563,213.1406 2068.9844,213.5469 L2068.1563,215.6406 Q2067.4688,215.3125 2066.7813,215.0781 Q2066.0938,214.8281 2065.4375,214.8281 Z " fill="#000000"/><text fill="#000000" font-family="sans-serif" font-size="14" lengthAdjust="spacing" textLength="35" x="2079.5" y="223.8467">JSDoc</text></g><!--class EnumValue--><g id="elem_EnumValue"><rect codeLine="103" fill="#CCFFFF" height="32" id="EnumValue" rx="2.5" ry="2.5" style="stroke:#A9A9A9;stroke-width:0.5;" width="103" x="1897.5" y="459.5"/><ellipse cx="1912.5" cy="475.5" fill="#FFFFFF" rx="11" ry="11" style="stroke:#181818;stroke-width:1.0;"/><path d="M1912.4375,471.3281 Q1911.6875,471.3281 1911.125,471.625 Q1910.5625,471.9063 1910.1719,472.4375 Q1909.7813,472.9688 1909.5781,473.75 Q1909.3906,474.5156 1909.3906,475.4688 Q1909.3906,476.4375 1909.5625,477.2031 Q1909.75,477.9531 1910.1094,478.4688 Q1910.4844,478.9844 1911.0625,479.2656 Q1911.6406,479.5313 1912.4375,479.5313 Q1913.1719,479.5313 1913.9063,479.3594 Q1914.6563,479.1875 1915.5313,478.8906 L1915.5313,481.0469 Q1915.125,481.2031 1914.7344,481.3281 Q1914.3438,481.4375 1913.9375,481.5156 Q1913.5313,481.5938 1913.1094,481.625 Q1912.6875,481.6719 1912.1875,481.6719 Q1910.7813,481.6719 1909.75,481.2188 Q1908.7344,480.7656 1908.0625,479.9531 Q1907.3906,479.1406 1907.0625,478 Q1906.7344,476.8438 1906.7344,475.4531 Q1906.7344,474.0781 1907.1094,472.9219 Q1907.4844,471.7656 1908.2031,470.9375 Q1908.9219,470.1094 1909.9844,469.6563 Q1911.0469,469.1875 1912.4375,469.1875 Q1913.3438,469.1875 1914.25,469.4219 Q1915.1563,469.6406 1915.9844,470.0469 L1915.1563,472.1406 Q1914.4688,471.8125 1913.7813,471.5781 Q1913.0938,471.3281 1912.4375,471.3281 Z " fill="#000000"/><text fill="#000000" font-family="sans-serif" font-size="14" lengthAdjust="spacing" textLength="71" x="1926.5" y="480.3467">EnumValue</text></g><!--class SourcedEntity--><g id="elem_SourcedEntity"><rect codeLine="105" fill="#CCFFFF" height="32" id="SourcedEntity" rx="2.5" ry="2.5" style="stroke:#A9A9A9;stroke-width:0.5;" width="119" x="1899.5" y="99"/><ellipse cx="1914.5" cy="115" fill="#FFFFFF" rx="11" ry="11" style="stroke:#181818;stroke-width:1.0;"/><path d="M1914.4375,110.8281 Q1913.6875,110.8281 1913.125,111.125 Q1912.5625,111.4063 1912.1719,111.9375 Q1911.7813,112.4688 1911.5781,113.25 Q1911.3906,114.0156 1911.3906,114.9688 Q1911.3906,115.9375 1911.5625,116.7031 Q1911.75,117.4531 1912.1094,117.9688 Q1912.4844,118.4844 1913.0625,118.7656 Q1913.6406,119.0313 1914.4375,119.0313 Q1915.1719,119.0313 1915.9063,118.8594 Q1916.6563,118.6875 1917.5313,118.3906 L1917.5313,120.5469 Q1917.125,120.7031 1916.7344,120.8281 Q1916.3438,120.9375 1915.9375,121.0156 Q1915.5313,121.0938 1915.1094,121.125 Q1914.6875,121.1719 1914.1875,121.1719 Q1912.7813,121.1719 1911.75,120.7188 Q1910.7344,120.2656 1910.0625,119.4531 Q1909.3906,118.6406 1909.0625,117.5 Q1908.7344,116.3438 1908.7344,114.9531 Q1908.7344,113.5781 1909.1094,112.4219 Q1909.4844,111.2656 1910.2031,110.4375 Q1910.9219,109.6094 1911.9844,109.1563 Q1913.0469,108.6875 1914.4375,108.6875 Q1915.3438,108.6875 1916.25,108.9219 Q1917.1563,109.1406 1917.9844,109.5469 L1917.1563,111.6406 Q1916.4688,111.3125 1915.7813,111.0781 Q1915.0938,110.8281 1914.4375,110.8281 Z " fill="#000000"/><text fill="#000000" font-family="sans-serif" font-size="14" lengthAdjust="spacing" textLength="87" x="1928.5" y="119.8467">SourcedEntity</text></g><!--class Function--><g id="elem_Function"><rect codeLine="107" fill="#CCFFFF" height="32" id="Function" rx="2.5" ry="2.5" style="stroke:#A9A9A9;stroke-width:0.5;" width="86" x="1133" y="588"/><ellipse cx="1148" cy="604" fill="#FFFFFF" rx="11" ry="11" style="stroke:#181818;stroke-width:1.0;"/><path d="M1147.9375,599.8281 Q1147.1875,599.8281 1146.625,600.125 Q1146.0625,600.4063 1145.6719,600.9375 Q1145.2813,601.4688 1145.0781,602.25 Q1144.8906,603.0156 1144.8906,603.9688 Q1144.8906,604.9375 1145.0625,605.7031 Q1145.25,606.4531 1145.6094,606.9688 Q1145.9844,607.4844 1146.5625,607.7656 Q1147.1406,608.0313 1147.9375,608.0313 Q1148.6719,608.0313 1149.4063,607.8594 Q1150.1563,607.6875 1151.0313,607.3906 L1151.0313,609.5469 Q1150.625,609.7031 1150.2344,609.8281 Q1149.8438,609.9375 1149.4375,610.0156 Q1149.0313,610.0938 1148.6094,610.125 Q1148.1875,610.1719 1147.6875,610.1719 Q1146.2813,610.1719 1145.25,609.7188 Q1144.2344,609.2656 1143.5625,608.4531 Q1142.8906,607.6406 1142.5625,606.5 Q1142.2344,605.3438 1142.2344,603.9531 Q1142.2344,602.5781 1142.6094,601.4219 Q1142.9844,600.2656 1143.7031,599.4375 Q1144.4219,598.6094 1145.4844,598.1563 Q1146.5469,597.6875 1147.9375,597.6875 Q1148.8438,597.6875 1149.75,597.9219 Q1150.6563,598.1406 1151.4844,598.5469 L1150.6563,600.6406 Q1149.9688,600.3125 1149.2813,600.0781 Q1148.5938,599.8281 1147.9375,599.8281 Z " fill="#000000"/><text fill="#000000" font-family="sans-serif" font-size="14" lengthAdjust="spacing" textLength="54" x="1162" y="608.8467">Function</text></g><!--class Invocation--><g id="elem_Invocation"><rect codeLine="109" fill="#CCFFFF" height="32" id="Invocation" rx="2.5" ry="2.5" style="stroke:#A9A9A9;stroke-width:0.5;" width="98" x="2054" y="99"/><ellipse cx="2069" cy="115" fill="#FFFFFF" rx="11" ry="11" style="stroke:#181818;stroke-width:1.0;"/><path d="M2068.9375,110.8281 Q2068.1875,110.8281 2067.625,111.125 Q2067.0625,111.4063 2066.6719,111.9375 Q2066.2813,112.4688 2066.0781,113.25 Q2065.8906,114.0156 2065.8906,114.9688 Q2065.8906,115.9375 2066.0625,116.7031 Q2066.25,117.4531 2066.6094,117.9688 Q2066.9844,118.4844 2067.5625,118.7656 Q2068.1406,119.0313 2068.9375,119.0313 Q2069.6719,119.0313 2070.4063,118.8594 Q2071.1563,118.6875 2072.0313,118.3906 L2072.0313,120.5469 Q2071.625,120.7031 2071.2344,120.8281 Q2070.8438,120.9375 2070.4375,121.0156 Q2070.0313,121.0938 2069.6094,121.125 Q2069.1875,121.1719 2068.6875,121.1719 Q2067.2813,121.1719 2066.25,120.7188 Q2065.2344,120.2656 2064.5625,119.4531 Q2063.8906,118.6406 2063.5625,117.5 Q2063.2344,116.3438 2063.2344,114.9531 Q2063.2344,113.5781 2063.6094,112.4219 Q2063.9844,111.2656 2064.7031,110.4375 Q2065.4219,109.6094 2066.4844,109.1563 Q2067.5469,108.6875 2068.9375,108.6875 Q2069.8438,108.6875 2070.75,108.9219 Q2071.6563,109.1406 2072.4844,109.5469 L2071.6563,111.6406 Q2070.9688,111.3125 2070.2813,111.0781 Q2069.5938,110.8281 2068.9375,110.8281 Z " fill="#000000"/><text fill="#000000" font-family="sans-serif" font-size="14" lengthAdjust="spacing" textLength="66" x="2083" y="119.8467">Invocation</text></g><!--class ParametricFunction--><g id="elem_ParametricFunction"><rect codeLine="111" fill="#CCFFFF" height="32" id="ParametricFunction" rx="2.5" ry="2.5" style="stroke:#A9A9A9;stroke-width:0.5;" width="156" x="1168" y="680"/><ellipse cx="1183" cy="696" fill="#FFFFFF" rx="11" ry="11" style="stroke:#181818;stroke-width:1.0;"/><path d="M1182.9375,691.8281 Q1182.1875,691.8281 1181.625,692.125 Q1181.0625,692.4063 1180.6719,692.9375 Q1180.2813,693.4688 1180.0781,694.25 Q1179.8906,695.0156 1179.8906,695.9688 Q1179.8906,696.9375 1180.0625,697.7031 Q1180.25,698.4531 1180.6094,698.9688 Q1180.9844,699.4844 1181.5625,699.7656 Q1182.1406,700.0313 1182.9375,700.0313 Q1183.6719,700.0313 1184.4063,699.8594 Q1185.1563,699.6875 1186.0313,699.3906 L1186.0313,701.5469 Q1185.625,701.7031 1185.2344,701.8281 Q1184.8438,701.9375 1184.4375,702.0156 Q1184.0313,702.0938 1183.6094,702.125 Q1183.1875,702.1719 1182.6875,702.1719 Q1181.2813,702.1719 1180.25,701.7188 Q1179.2344,701.2656 1178.5625,700.4531 Q1177.8906,699.6406 1177.5625,698.5 Q1177.2344,697.3438 1177.2344,695.9531 Q1177.2344,694.5781 1177.6094,693.4219 Q1177.9844,692.2656 1178.7031,691.4375 Q1179.4219,690.6094 1180.4844,690.1563 Q1181.5469,689.6875 1182.9375,689.6875 Q1183.8438,689.6875 1184.75,689.9219 Q1185.6563,690.1406 1186.4844,690.5469 L1185.6563,692.6406 Q1184.9688,692.3125 1184.2813,692.0781 Q1183.5938,691.8281 1182.9375,691.8281 Z " fill="#000000"/><text fill="#000000" font-family="sans-serif" font-size="14" lengthAdjust="spacing" textLength="124" x="1197" y="700.8467">ParametricFunction</text></g><!--class ImportClause--><g id="elem_ImportClause"><rect codeLine="113" fill="#CCFFFF" height="32" id="ImportClause" rx="2.5" ry="2.5" style="stroke:#A9A9A9;stroke-width:0.5;" width="118" x="2187" y="99"/><ellipse cx="2202" cy="115" fill="#FFFFFF" rx="11" ry="11" style="stroke:#181818;stroke-width:1.0;"/><path d="M2201.9375,110.8281 Q2201.1875,110.8281 2200.625,111.125 Q2200.0625,111.4063 2199.6719,111.9375 Q2199.2813,112.4688 2199.0781,113.25 Q2198.8906,114.0156 2198.8906,114.9688 Q2198.8906,115.9375 2199.0625,116.7031 Q2199.25,117.4531 2199.6094,117.9688 Q2199.9844,118.4844 2200.5625,118.7656 Q2201.1406,119.0313 2201.9375,119.0313 Q2202.6719,119.0313 2203.4063,118.8594 Q2204.1563,118.6875 2205.0313,118.3906 L2205.0313,120.5469 Q2204.625,120.7031 2204.2344,120.8281 Q2203.8438,120.9375 2203.4375,121.0156 Q2203.0313,121.0938 2202.6094,121.125 Q2202.1875,121.1719 2201.6875,121.1719 Q2200.2813,121.1719 2199.25,120.7188 Q2198.2344,120.2656 2197.5625,119.4531 Q2196.8906,118.6406 2196.5625,117.5 Q2196.2344,116.3438 2196.2344,114.9531 Q2196.2344,113.5781 2196.6094,112.4219 Q2196.9844,111.2656 2197.7031,110.4375 Q2198.4219,109.6094 2199.4844,109.1563 Q2200.5469,108.6875 2201.9375,108.6875 Q2202.8438,108.6875 2203.75,108.9219 Q2204.6563,109.1406 2205.4844,109.5469 L2204.6563,111.6406 Q2203.9688,111.3125 2203.2813,111.0781 Q2202.5938,110.8281 2201.9375,110.8281 Z " fill="#000000"/><text fill="#000000" font-family="sans-serif" font-size="14" lengthAdjust="spacing" textLength="86" x="2216" y="119.8467">ImportClause</text></g><!--class Namespace--><g id="elem_Namespace"><rect codeLine="115" fill="#CCFFFF" height="32" id="Namespace" rx="2.5" ry="2.5" style="stroke:#A9A9A9;stroke-width:0.5;" width="105" x="1393.5" y="588"/><ellipse cx="1408.5" cy="604" fill="#FFFFFF" rx="11" ry="11" style="stroke:#181818;stroke-width:1.0;"/><path d="M1408.4375,599.8281 Q1407.6875,599.8281 1407.125,600.125 Q1406.5625,600.4063 1406.1719,600.9375 Q1405.7813,601.4688 1405.5781,602.25 Q1405.3906,603.0156 1405.3906,603.9688 Q1405.3906,604.9375 1405.5625,605.7031 Q1405.75,606.4531 1406.1094,606.9688 Q1406.4844,607.4844 1407.0625,607.7656 Q1407.6406,608.0313 1408.4375,608.0313 Q1409.1719,608.0313 1409.9063,607.8594 Q1410.6563,607.6875 1411.5313,607.3906 L1411.5313,609.5469 Q1411.125,609.7031 1410.7344,609.8281 Q1410.3438,609.9375 1409.9375,610.0156 Q1409.5313,610.0938 1409.1094,610.125 Q1408.6875,610.1719 1408.1875,610.1719 Q1406.7813,610.1719 1405.75,609.7188 Q1404.7344,609.2656 1404.0625,608.4531 Q1403.3906,607.6406 1403.0625,606.5 Q1402.7344,605.3438 1402.7344,603.9531 Q1402.7344,602.5781 1403.1094,601.4219 Q1403.4844,600.2656 1404.2031,599.4375 Q1404.9219,598.6094 1405.9844,598.1563 Q1407.0469,597.6875 1408.4375,597.6875 Q1409.3438,597.6875 1410.25,597.9219 Q1411.1563,598.1406 1411.9844,598.5469 L1411.1563,600.6406 Q1410.4688,600.3125 1409.7813,600.0781 Q1409.0938,599.8281 1408.4375,599.8281 Z " fill="#000000"/><text fill="#000000" font-family="sans-serif" font-size="14" lengthAdjust="spacing" textLength="73" x="1422.5" y="608.8467">Namespace</text></g><!--reverse link Entity to Concretization--><g id="link_Entity_Concretization"><path codeLine="117" d="M1439.69,28.14 C1319.85,37.6 1023.92,62.84 778,99 C772.34,99.83 766.46,100.78 760.59,101.79 " fill="none" id="Entity-backto-Concretization" style="stroke:#000000;stroke-width:1.0;"/><polygon fill="none" points="1439.48,21.13,1459.96,26.55,1440.56,35.09,1439.48,21.13" style="stroke:#000000;stroke-width:1.0;"/></g><!--reverse link ScriptEntity to Module--><g id="link_ScriptEntity_Module"><path codeLine="118" d="M1336.27,634.29 C1352.02,649.54 1370.62,667.54 1383.46,679.96 " fill="none" id="ScriptEntity-backto-Module" style="stroke:#000000;stroke-width:1.0;"/><polygon fill="none" points="1331.28,639.21,1321.78,620.27,1341.02,629.15,1331.28,639.21" style="stroke:#000000;stroke-width:1.0;"/></g><!--reverse link Type to Interface--><g id="link_Type_Interface"><path codeLine="119" d="M395.51,494.29 C324.45,519.33 196.19,564.53 129.64,587.97 " fill="none" id="Type-backto-Interface" style="stroke:#000000;stroke-width:1.0;"/><polygon fill="none" points="393.58,487.55,414.77,487.5,398.23,500.75,393.58,487.55" style="stroke:#000000;stroke-width:1.0;"/></g><!--reverse link Entity to Implementation--><g id="link_Entity_Implementation"><path codeLine="120" d="M1439.99,30.8 C1342.14,43.26 1129.06,71.05 950,99 C944.16,99.91 938.1,100.89 932.03,101.9 " fill="none" id="Entity-backto-Implementation" style="stroke:#000000;stroke-width:1.0;"/><polygon fill="none" points="1439.16,23.85,1459.88,28.27,1440.92,37.73,1439.16,23.85" style="stroke:#000000;stroke-width:1.0;"/></g><!--reverse link Type to ParameterType--><g id="link_Type_ParameterType"><path codeLine="121" d="M403.22,501.79 C359.71,527.51 293.72,566.52 257.69,587.81 " fill="none" id="Type-backto-ParameterType" style="stroke:#000000;stroke-width:1.0;"/><polygon fill="none" points="399.83,495.66,420.61,491.51,406.96,507.71,399.83,495.66" style="stroke:#000000;stroke-width:1.0;"/></g><!--reverse link SourceAnchor to IndexedFileAnchor--><g id="link_SourceAnchor_IndexedFileAnchor"><path codeLine="122" d="M1462.88,144.85 C1442.52,163.74 1416.73,187.65 1400.3,202.89 " fill="none" id="SourceAnchor-backto-IndexedFileAnchor" style="stroke:#000000;stroke-width:1.0;"/><polygon fill="none" points="1458.34,139.52,1477.77,131.05,1467.86,149.78,1458.34,139.52" style="stroke:#000000;stroke-width:1.0;"/></g><!--reverse link SourceAnchor to SourceTextAnchor--><g id="link_SourceAnchor_SourceTextAnchor"><path codeLine="123" d="M1517.09,147.41 C1530.66,165.85 1547.18,188.33 1557.89,202.89 " fill="none" id="SourceAnchor-backto-SourceTextAnchor" style="stroke:#000000;stroke-width:1.0;"/><polygon fill="none" points="1511.27,151.31,1505.07,131.05,1522.55,143.02,1511.27,151.31" style="stroke:#000000;stroke-width:1.0;"/></g><!--reverse link Type to PrimitiveType--><g id="link_Type_PrimitiveType"><path codeLine="124" d="M431.86,510.25 C421.33,535.38 407.45,568.51 399.45,587.62 " fill="none" id="Type-backto-PrimitiveType" style="stroke:#000000;stroke-width:1.0;"/><polygon fill="none" points="425.53,507.25,439.71,491.51,438.44,512.66,425.53,507.25" style="stroke:#000000;stroke-width:1.0;"/></g><!--reverse link Entity to Access--><g id="link_Entity_Access"><path codeLine="125" d="M1439.89,31.52 C1357.14,43.42 1194.36,68.41 1058,99 C1052.4,100.26 1046.51,101.73 1040.77,103.26 " fill="none" id="Entity-backto-Access" style="stroke:#000000;stroke-width:1.0;"/><polygon fill="none" points="1439.06,24.57,1459.85,28.68,1441.04,38.43,1439.06,24.57" style="stroke:#000000;stroke-width:1.0;"/></g><!--reverse link NamedEntity to StructuralEntity--><g id="link_NamedEntity_StructuralEntity"><path codeLine="126" d="M1762.73,244.28 C1718.65,266.91 1654.31,299.95 1617.25,318.98 " fill="none" id="NamedEntity-backto-StructuralEntity" style="stroke:#000000;stroke-width:1.0;"/><polygon fill="none" points="1759.53,238.05,1780.52,235.14,1765.93,250.5,1759.53,238.05" style="stroke:#000000;stroke-width:1.0;"/></g><!--reverse link SourcedEntity to NamedEntity--><g id="link_SourcedEntity_NamedEntity"><path codeLine="127" d="M1920.49,142.36 C1892.4,161.59 1855.33,186.97 1832.08,202.89 " fill="none" id="SourcedEntity-backto-NamedEntity" style="stroke:#000000;stroke-width:1.0;"/><polygon fill="none" points="1916.56,136.57,1937.01,131.05,1924.47,148.12,1916.56,136.57" style="stroke:#000000;stroke-width:1.0;"/></g><!--reverse link StructuralEntity to Parameter--><g id="link_StructuralEntity_Parameter"><path codeLine="128" d="M1560.64,365.84 C1534.23,394.64 1495.32,437.07 1474.82,459.43 " fill="none" id="StructuralEntity-backto-Parameter" style="stroke:#000000;stroke-width:1.0;"/><polygon fill="none" points="1555.49,361.1,1574.17,351.09,1565.81,370.56,1555.49,361.1" style="stroke:#000000;stroke-width:1.0;"/></g><!--reverse link NamedEntity to File--><g id="link_NamedEntity_File"><path codeLine="129" d="M1784.47,250.96 C1766.31,272.99 1742.69,301.63 1728.48,318.87 " fill="none" id="NamedEntity-backto-File" style="stroke:#000000;stroke-width:1.0;"/><polygon fill="none" points="1779.2,246.35,1797.32,235.37,1790,255.26,1779.2,246.35" style="stroke:#000000;stroke-width:1.0;"/></g><!--reverse link ScopingEntity to ScriptEntity--><g id="link_ScopingEntity_ScriptEntity"><path codeLine="130" d="M1306,511.77 C1306,536.7 1306,568.9 1306,587.62 " fill="none" id="ScopingEntity-backto-ScriptEntity" style="stroke:#000000;stroke-width:1.0;"/><polygon fill="none" points="1299,511.51,1306,491.51,1313,511.51,1299,511.51" style="stroke:#000000;stroke-width:1.0;"/></g><!--reverse link Variable to implicitVariable--><g id="link_Variable_implicitVariable"><path codeLine="131" d="M1591.35,511.77 C1593.71,536.7 1596.76,568.9 1598.54,587.62 " fill="none" id="Variable-backto-implicitVariable" style="stroke:#000000;stroke-width:1.0;"/><polygon fill="none" points="1584.34,512.08,1589.42,491.51,1598.28,510.76,1584.34,512.08" style="stroke:#000000;stroke-width:1.0;"/></g><!--reverse link Entity to Reference--><g id="link_Entity_Reference"><path codeLine="132" d="M1440.25,37.07 C1368.29,54.58 1241.7,85.37 1172.51,102.2 " fill="none" id="Entity-backto-Reference" style="stroke:#000000;stroke-width:1.0;"/><polygon fill="none" points="1438.77,30.23,1459.85,32.31,1442.08,43.83,1438.77,30.23" style="stroke:#000000;stroke-width:1.0;"/></g><!--reverse link NamedEntity to ContainerEntity--><g id="link_NamedEntity_ContainerEntity"><path codeLine="133" d="M1732.84,233.96 C1709.45,238.17 1683.68,242.79 1660,247 C1505.49,274.46 1323.8,306.18 1229.01,322.69 " fill="none" id="NamedEntity-backto-ContainerEntity" style="stroke:#000000;stroke-width:1.0;"/><polygon fill="none" points="1731.75,227.04,1752.67,230.38,1734.23,240.82,1731.75,227.04" style="stroke:#000000;stroke-width:1.0;"/></g><!--reverse link Type to Enum--><g id="link_Type_Enum"><path codeLine="134" d="M465.63,508.75 C481.03,534.05 501.78,568.13 513.64,587.62 " fill="none" id="Type-backto-Enum" style="stroke:#000000;stroke-width:1.0;"/><polygon fill="none" points="459.55,512.23,455.14,491.51,471.51,504.95,459.55,512.23" style="stroke:#000000;stroke-width:1.0;"/></g><!--reverse link BehaviouralEntity to Method--><g id="link_BehaviouralEntity_Method"><path codeLine="135" d="M1030.2,500.59 C979.22,526.28 900.05,566.18 857.13,587.81 " fill="none" id="BehaviouralEntity-backto-Method" style="stroke:#000000;stroke-width:1.0;"/><polygon fill="none" points="1027.21,494.26,1048.22,491.51,1033.51,506.76,1027.21,494.26" style="stroke:#000000;stroke-width:1.0;"/></g><!--reverse link Method to Accessor--><g id="link_Method_Accessor"><path codeLine="136" d="M783.66,630.33 C756.34,646.29 721.98,666.37 698.86,679.89 " fill="none" id="Method-backto-Accessor" style="stroke:#000000;stroke-width:1.0;"/><polygon fill="none" points="780.42,624.11,801.22,620.06,787.49,636.2,780.42,624.11" style="stroke:#000000;stroke-width:1.0;"/></g><!--reverse link ArrowFunction to ParametricArrowFunction--><g id="link_ArrowFunction_ParametricArrowFunction"><path codeLine="137" d="M1035,640.61 C1035,654.31 1035,669.22 1035,679.96 " fill="none" id="ArrowFunction-backto-ParametricArrowFunction" style="stroke:#000000;stroke-width:1.0;"/><polygon fill="none" points="1028,640.27,1035,620.27,1042,640.27,1028,640.27" style="stroke:#000000;stroke-width:1.0;"/></g><!--reverse link Interface to ParametricInterface--><g id="link_Interface_ParametricInterface"><path codeLine="138" d="M87,640.61 C87,654.31 87,669.22 87,679.96 " fill="none" id="Interface-backto-ParametricInterface" style="stroke:#000000;stroke-width:1.0;"/><polygon fill="none" points="80,640.27,87,620.27,94,640.27,80,640.27" style="stroke:#000000;stroke-width:1.0;"/></g><!--reverse link NamedEntity to Alias--><g id="link_NamedEntity_Alias"><path codeLine="139" d="M1810,255.6 C1810,276.88 1810,302.82 1810,318.87 " fill="none" id="NamedEntity-backto-Alias" style="stroke:#000000;stroke-width:1.0;"/><polygon fill="none" points="1803,255.37,1810,235.37,1817,255.37,1803,255.37" style="stroke:#000000;stroke-width:1.0;"/></g><!--reverse link ContainerEntity to Type--><g id="link_ContainerEntity_Type"><path codeLine="140" d="M1078.39,339.28 C957.61,345.88 731.45,365.46 548,423 C519.99,431.79 490.27,447.63 470.19,459.43 " fill="none" id="ContainerEntity-backto-Type" style="stroke:#000000;stroke-width:1.0;"/><polygon fill="none" points="1078.29,332.28,1098.62,338.25,1079.01,346.26,1078.29,332.28" style="stroke:#000000;stroke-width:1.0;"/></g><!--reverse link Class to ParametricClass--><g id="link_Class_ParametricClass"><path codeLine="141" d="M593.01,634.05 C576.69,649.35 557.36,667.47 544.04,679.96 " fill="none" id="Class-backto-ParametricClass" style="stroke:#000000;stroke-width:1.0;"/><polygon fill="none" points="588.34,628.84,607.71,620.27,597.91,639.05,588.34,628.84" style="stroke:#000000;stroke-width:1.0;"/></g><!--reverse link Method to ParametricMethod--><g id="link_Method_ParametricMethod"><path codeLine="142" d="M827,640.61 C827,654.31 827,669.22 827,679.96 " fill="none" id="Method-backto-ParametricMethod" style="stroke:#000000;stroke-width:1.0;"/><polygon fill="none" points="820,640.27,827,620.27,834,640.27,820,640.27" style="stroke:#000000;stroke-width:1.0;"/></g><!--reverse link Entity to ParameterConcretization--><g id="link_Entity_ParameterConcretization"><path codeLine="143" d="M1443.64,47.73 C1409.25,63.94 1364.72,84.92 1335.07,98.89 " fill="none" id="Entity-backto-ParameterConcretization" style="stroke:#000000;stroke-width:1.0;"/><polygon fill="none" points="1440.96,41.26,1462.03,39.06,1446.92,53.92,1440.96,41.26" style="stroke:#000000;stroke-width:1.0;"/></g><!--reverse link NamedEntity to Decorator--><g id="link_NamedEntity_Decorator"><path codeLine="144" d="M1832.08,250.04 C1849.79,267.67 1874.53,289.77 1895.74,306.88 " fill="none" id="NamedEntity-backto-Decorator" style="stroke:#000000;stroke-width:1.0;"/><polygon fill="none" points="1826.83,254.68,1818.08,235.37,1836.95,245.01,1826.83,254.68" style="stroke:#000000;stroke-width:1.0;"/></g><!--link NamedEntity to Decorator--><g id="link_NamedEntity_Decorator"><path codeLine="167" d="M1836.38,235.14 C1861.21,253.43 1896.59,284.54 1918.58,306.98 " fill="none" id="NamedEntity-Decorator" style="stroke:#000000;stroke-width:1.0;"/><text fill="#000000" font-family="sans-serif" font-size="13" lengthAdjust="spacing" textLength="92" x="1737.8809" y="255.0596">decoratedEntity</text><text fill="#000000" font-family="sans-serif" font-size="13" lengthAdjust="spacing" textLength="71" x="1835.111" y="295.8139">decorators*</text></g><!--reverse link ContainerEntity to BehaviouralEntity--><g id="link_ContainerEntity_BehaviouralEntity"><path codeLine="145" d="M1143.95,368.28 C1126.13,396.99 1100.85,437.69 1087.36,459.43 " fill="none" id="ContainerEntity-backto-BehaviouralEntity" style="stroke:#000000;stroke-width:1.0;"/><polygon fill="none" points="1138.14,364.38,1154.63,351.09,1150.03,371.77,1138.14,364.38" style="stroke:#000000;stroke-width:1.0;"/></g><!--reverse link Entity to SourceAnchor--><g id="link_Entity_SourceAnchor"><path codeLine="146" d="M1494,59.61 C1494,73.31 1494,88.22 1494,98.96 " fill="none" id="Entity-backto-SourceAnchor" style="stroke:#000000;stroke-width:1.0;"/><polygon fill="none" points="1487,59.27,1494,39.27,1501,59.27,1487,59.27" style="stroke:#000000;stroke-width:1.0;"/></g><!--reverse link StructuralEntity to Variable--><g id="link_StructuralEntity_Variable"><path codeLine="147" d="M1588,371.21 C1588,399.7 1588,438.42 1588,459.43 " fill="none" id="StructuralEntity-backto-Variable" style="stroke:#000000;stroke-width:1.0;"/><polygon fill="none" points="1581,371.09,1588,351.09,1595,371.09,1581,371.09" style="stroke:#000000;stroke-width:1.0;"/></g><!--reverse link NamedEntity to Folder--><g id="link_NamedEntity_Folder"><path codeLine="148" d="M1865.94,242.77 C1907.36,259.86 1965.03,284.15 2015,307 C2023.22,310.76 2032.05,315 2040.17,318.99 " fill="none" id="NamedEntity-backto-Folder" style="stroke:#000000;stroke-width:1.0;"/><polygon fill="none" points="1863.14,249.18,1847.3,235.11,1868.46,236.23,1863.14,249.18" style="stroke:#000000;stroke-width:1.0;"/></g><!--reverse link StructuralEntity to Property--><g id="link_StructuralEntity_Property"><path codeLine="149" d="M1623.13,363.64 C1644.63,380.56 1672.83,402.75 1698.34,422.83 " fill="none" id="StructuralEntity-backto-Property" style="stroke:#000000;stroke-width:1.0;"/><polygon fill="none" points="1618.56,368.95,1607.17,351.09,1627.22,357.95,1618.56,368.95" style="stroke:#000000;stroke-width:1.0;"/></g><!--reverse link Entity to Inheritance--><g id="link_Entity_Inheritance"><path codeLine="150" d="M1536.03,49.56 C1562.22,65.49 1595.03,85.44 1617.15,98.89 " fill="none" id="Entity-backto-Inheritance" style="stroke:#000000;stroke-width:1.0;"/><polygon fill="none" points="1532.22,55.44,1518.77,39.06,1539.5,43.47,1532.22,55.44" style="stroke:#000000;stroke-width:1.0;"/></g><!--reverse link SourcedEntity to Comment--><g id="link_SourcedEntity_Comment"><path codeLine="151" d="M1959,151.4 C1959,164.38 1959,178.86 1959,190.99 " fill="none" id="SourcedEntity-backto-Comment" style="stroke:#000000;stroke-width:1.0;"/><polygon fill="none" points="1952,151.05,1959,131.05,1966,151.05,1952,151.05" style="stroke:#000000;stroke-width:1.0;"/></g><!--reverse link Type to Class--><g id="link_Type_Class"><path codeLine="152" d="M483.79,503.36 C519.97,529.07 573.27,566.95 602.63,587.81 " fill="none" id="Type-backto-Class" style="stroke:#000000;stroke-width:1.0;"/><polygon fill="none" points="479.37,508.8,467.12,491.51,487.48,497.39,479.37,508.8" style="stroke:#000000;stroke-width:1.0;"/></g><!--reverse link Entity to SourceLanguage--><g id="link_Entity_SourceLanguage"><path codeLine="153" d="M1547.68,39.94 C1603.85,56.63 1691.35,82.62 1746.36,98.96 " fill="none" id="Entity-backto-SourceLanguage" style="stroke:#000000;stroke-width:1.0;"/><polygon fill="none" points="1545.35,46.55,1528.17,34.15,1549.33,33.13,1545.35,46.55" style="stroke:#000000;stroke-width:1.0;"/></g><!--reverse link ContainerEntity to ScopingEntity--><g id="link_ContainerEntity_ScopingEntity"><path codeLine="154" d="M1194.18,365.44 C1223.72,394.24 1267.52,436.97 1290.55,459.43 " fill="none" id="ContainerEntity-backto-ScopingEntity" style="stroke:#000000;stroke-width:1.0;"/><polygon fill="none" points="1188.9,370.06,1179.47,351.09,1198.67,360.04,1188.9,370.06" style="stroke:#000000;stroke-width:1.0;"/></g><!--reverse link BehaviouralEntity to ArrowFunction--><g id="link_BehaviouralEntity_ArrowFunction"><path codeLine="155" d="M1066.4,510.63 C1057.87,535.71 1046.69,568.61 1040.23,587.62 " fill="none" id="BehaviouralEntity-backto-ArrowFunction" style="stroke:#000000;stroke-width:1.0;"/><polygon fill="none" points="1059.83,508.19,1072.9,491.51,1073.09,512.7,1059.83,508.19" style="stroke:#000000;stroke-width:1.0;"/></g><!--reverse link SourcedEntity to JSDoc--><g id="link_SourcedEntity_JSDoc"><path codeLine="156" d="M1992.99,143.74 C2016.34,162.79 2046.43,187.35 2065.48,202.89 " fill="none" id="SourcedEntity-backto-JSDoc" style="stroke:#000000;stroke-width:1.0;"/><polygon fill="none" points="1988.51,149.12,1977.44,131.05,1997.37,138.27,1988.51,149.12" style="stroke:#000000;stroke-width:1.0;"/></g><!--reverse link BehaviouralEntity to Function--><g id="link_BehaviouralEntity_Function"><path codeLine="157" d="M1102.13,507.64 C1121.8,533.04 1148.77,567.84 1164.08,587.62 " fill="none" id="BehaviouralEntity-backto-Function" style="stroke:#000000;stroke-width:1.0;"/><polygon fill="none" points="1096.34,511.61,1089.63,491.51,1107.41,503.03,1096.34,511.61" style="stroke:#000000;stroke-width:1.0;"/></g><!--reverse link StructuralEntity to EnumValue--><g id="link_StructuralEntity_EnumValue"><path codeLine="158" d="M1652.35,357.18 C1658.64,359.17 1664.94,361.14 1671,363 C1763.41,391.29 1793.42,380.06 1880,423 C1899.42,432.63 1918.98,447.87 1932.28,459.28 " fill="none" id="StructuralEntity-backto-EnumValue" style="stroke:#000000;stroke-width:1.0;"/><polygon fill="none" points="1650.04,363.79,1633.14,351,1654.32,350.46,1650.04,363.79" style="stroke:#000000;stroke-width:1.0;"/></g><!--reverse link Entity to SourcedEntity--><g id="link_Entity_SourcedEntity"><path codeLine="159" d="M1548.06,34.46 C1635.76,51.44 1808.38,84.85 1899.47,102.48 " fill="none" id="Entity-backto-SourcedEntity" style="stroke:#000000;stroke-width:1.0;"/><polygon fill="none" points="1546.5,41.29,1528.19,30.62,1549.16,27.55,1546.5,41.29" style="stroke:#000000;stroke-width:1.0;"/></g><!--reverse link Function to ParametricFunction--><g id="link_Function_ParametricFunction"><path codeLine="160" d="M1200.27,636.21 C1211.8,651.03 1225.04,668.06 1234.3,679.96 " fill="none" id="Function-backto-ParametricFunction" style="stroke:#000000;stroke-width:1.0;"/><polygon fill="none" points="1194.63,640.35,1187.87,620.27,1205.68,631.76,1194.63,640.35" style="stroke:#000000;stroke-width:1.0;"/></g><!--reverse link Entity to Invocation--><g id="link_Entity_Invocation"><path codeLine="161" d="M1548.26,30 C1646.11,41.16 1858.5,66.91 2036,99 C2041.75,100.04 2047.75,101.23 2053.7,102.48 " fill="none" id="Entity-backto-Invocation" style="stroke:#000000;stroke-width:1.0;"/><polygon fill="none" points="1547.17,36.92,1528.08,27.72,1548.74,23.01,1547.17,36.92" style="stroke:#000000;stroke-width:1.0;"/></g><!--reverse link Entity to ImportClause--><g id="link_Entity_ImportClause"><path codeLine="162" d="M1548.36,28.52 C1663.3,38.41 1939.32,63.93 2169,99 C2174.79,99.88 2180.81,100.89 2186.81,101.96 " fill="none" id="Entity-backto-ImportClause" style="stroke:#000000;stroke-width:1.0;"/><polygon fill="none" points="1547.53,35.48,1528.2,26.8,1548.72,21.53,1547.53,35.48" style="stroke:#000000;stroke-width:1.0;"/></g><!--reverse link ScopingEntity to Namespace--><g id="link_ScopingEntity_Namespace"><path codeLine="163" d="M1337.65,505.1 C1365.95,530.67 1406.35,567.18 1428.98,587.62 " fill="none" id="ScopingEntity-backto-Namespace" style="stroke:#000000;stroke-width:1.0;"/><polygon fill="none" points="1332.76,510.11,1322.61,491.51,1342.14,499.72,1332.76,510.11" style="stroke:#000000;stroke-width:1.0;"/></g><!--reverse link TEntityCreator to FamixTypeScriptModel--><g id="link_TEntityCreator_FamixTypeScriptModel"><path codeLine="164" d="M2428,59.61 C2428,73.31 2428,88.22 2428,98.96 " fill="none" id="TEntityCreator-backto-FamixTypeScriptModel" style="stroke:#000000;stroke-width:1.0;stroke-dasharray:7.0,7.0;"/><polygon fill="none" points="2421,59.27,2428,39.27,2435,59.27,2421,59.27" style="stroke:#000000;stroke-width:1.0;"/></g><!--reverse link TWithInterfaces to ContainerEntity--><g id="link_TWithInterfaces_ContainerEntity"><path codeLine="165" d="M1164,255.6 C1164,276.88 1164,302.82 1164,318.87 " fill="none" id="TWithInterfaces-backto-ContainerEntity" style="stroke:#000000;stroke-width:1.0;stroke-dasharray:7.0,7.0;"/><polygon fill="none" points="1157,255.37,1164,235.37,1171,255.37,1157,255.37" style="stroke:#000000;stroke-width:1.0;"/></g><!--reverse link TClassMetrics to Class--><g id="link_TClassMetrics_Class"><path codeLine="166" d="M624,511.77 C624,536.7 624,568.9 624,587.62 " fill="none" id="TClassMetrics-backto-Class" style="stroke:#000000;stroke-width:1.0;stroke-dasharray:7.0,7.0;"/><polygon fill="none" points="617,511.51,624,491.51,631,511.51,617,511.51" style="stroke:#000000;stroke-width:1.0;"/></g><!--SRC=[bLVRJjmm47ttLqJqfQqANu2GbeMj5fM2IaIVZJDiB1mxSfnbjwN_NZic5pjPCiiBalTuF9SpPoOvpo21eZJxf83Y2NH5gXSkIwffaJ11gohvIvBaahANZLQrp9PAA9syvjo0FLzehLxzqPEm60TLEWFjppAgNxvhkYV_YBUL_kOcNqi3-faog9Bpyy_fjyRObukBvDDokR9_ziKMlrIIQJ3y3pLSIGTVVWI_LLajO1QseWNVfViI7fZcfR6tGCnUMXUbW0AamRdI1JcBl7Uv1ejs7isYqwNxTmj6SpQVlxNCO0VPYWjOI9RRaipPVr2rPf32pY0lt6jUSCEtW79_mMpPgtalZAwPgJKLrz9mIywv2pzj2ZCajaluB9BRcdF6pIFLd3uXc6Nhagjide0SOGiPZUSm4lmBda63HB3ITfwXN896MhwMTO6iFePKlaIMuut2h6h9K5sNUc-N6gZnpwIuP_3jYgEvuBGw8igcgO_08tbs1KpfDXEJoCIr6fUR17QbjhMnIHxtoP4gx2K4AH-NaDCjLqUqEhePLqfaW14mLOB-u64tqvG0AXDUNS4pbnOXzWkRh8s4BFZvhdGPec9mQAcOtKcn3t0tT4jzurhvt58xItl5pa5pGt4zMhY1X7Byvk5AiVucYc- -a3-etDHq0mWbKgMb4hACnpLsupvAX1wfg04P6dPYeDrSowrYk2xfcnbllIYLDhPsTGMeYLYL7ojQ6_xRwMcqQf5mh3Y0Nww8rpztq6bcO2VSamRmOCyXeKXuSz6kCe69jvEX-U4U4dZafmu9LeJ6MBHaa8WK3ZEuHCPBIH3M-04N2ecwedbua5lIovdxATuuWa2wwJr-AXhNWxoudY0JAjkKj1aZf9qcVR9iPgF-78GQJsKo69uXh6V8oE5cGfBHbk5-QWhuhb2XlUOmS3SUYMIoD16tHyvqStBQeL7sWbU6B3t0aQwQOueqC-eGjTudKzXV_O2O8kpxJ1WGm2Tjx76hwzCn1xGzn9-G1XFU-Abpu7P_SJBwJimdV6zRyX0_EzDXvbfnZWMhKzMfRks4bCJRvTlPsUIt91bzvZhag4N3Bxa6qfHgI9AJp5EpFJX9h4VjeTBLrvEUlFy1]--></g></svg>