<?xml version="1.0" encoding="us-ascii" standalone="no"?><svg xmlns="http://www.w3.org/2000/svg" xmlns:xlink="http://www.w3.org/1999/xlink" contentStyleType="text/css" height="622px" preserveAspectRatio="none" style="width:2233px;height:622px;background:#FFFFFF;" version="1.1" viewBox="0 0 2233 622" width="2233px" zoomAndPan="magnify"><defs/><g><!--class SourceTextAnchor--><g id="elem_SourceTextAnchor"><rect codeLine="7" fill="#CCFFFF" height="32" id="SourceTextAnchor" rx="2.5" ry="2.5" style="stroke:#A9A9A9;stroke-width:0.5;" width="147" x="872.5" y="191"/><ellipse cx="887.5" cy="207" fill="#FFFFFF" rx="11" ry="11" style="stroke:#181818;stroke-width:1.0;"/><path d="M887.4375,202.8281 Q886.6875,202.8281 886.125,203.125 Q885.5625,203.4063 885.1719,203.9375 Q884.7813,204.4688 884.5781,205.25 Q884.3906,206.0156 884.3906,206.9688 Q884.3906,207.9375 884.5625,208.7031 Q884.75,209.4531 885.1094,209.9688 Q885.4844,210.4844 886.0625,210.7656 Q886.6406,211.0313 887.4375,211.0313 Q888.1719,211.0313 888.9063,210.8594 Q889.6563,210.6875 890.5313,210.3906 L890.5313,212.5469 Q890.125,212.7031 889.7344,212.8281 Q889.3438,212.9375 888.9375,213.0156 Q888.5313,213.0938 888.1094,213.125 Q887.6875,213.1719 887.1875,213.1719 Q885.7813,213.1719 884.75,212.7188 Q883.7344,212.2656 883.0625,211.4531 Q882.3906,210.6406 882.0625,209.5 Q881.7344,208.3438 881.7344,206.9531 Q881.7344,205.5781 882.1094,204.4219 Q882.4844,203.2656 883.2031,202.4375 Q883.9219,201.6094 884.9844,201.1563 Q886.0469,200.6875 887.4375,200.6875 Q888.3438,200.6875 889.25,200.9219 Q890.1563,201.1406 890.9844,201.5469 L890.1563,203.6406 Q889.4688,203.3125 888.7813,203.0781 Q888.0938,202.8281 887.4375,202.8281 Z " fill="#000000"/><text fill="#000000" font-family="sans-serif" font-size="14" lengthAdjust="spacing" textLength="115" x="901.5" y="211.8467">SourceTextAnchor</text></g><!--class PrimitiveType--><g id="elem_PrimitiveType"><rect codeLine="9" fill="#CCFFFF" height="32" id="PrimitiveType" rx="2.5" ry="2.5" style="stroke:#A9A9A9;stroke-width:0.5;" width="121" x="1491.5" y="491"/><ellipse cx="1506.5" cy="507" fill="#FFFFFF" rx="11" ry="11" style="stroke:#181818;stroke-width:1.0;"/><path d="M1506.4375,502.8281 Q1505.6875,502.8281 1505.125,503.125 Q1504.5625,503.4063 1504.1719,503.9375 Q1503.7813,504.4688 1503.5781,505.25 Q1503.3906,506.0156 1503.3906,506.9688 Q1503.3906,507.9375 1503.5625,508.7031 Q1503.75,509.4531 1504.1094,509.9688 Q1504.4844,510.4844 1505.0625,510.7656 Q1505.6406,511.0313 1506.4375,511.0313 Q1507.1719,511.0313 1507.9063,510.8594 Q1508.6563,510.6875 1509.5313,510.3906 L1509.5313,512.5469 Q1509.125,512.7031 1508.7344,512.8281 Q1508.3438,512.9375 1507.9375,513.0156 Q1507.5313,513.0938 1507.1094,513.125 Q1506.6875,513.1719 1506.1875,513.1719 Q1504.7813,513.1719 1503.75,512.7188 Q1502.7344,512.2656 1502.0625,511.4531 Q1501.3906,510.6406 1501.0625,509.5 Q1500.7344,508.3438 1500.7344,506.9531 Q1500.7344,505.5781 1501.1094,504.4219 Q1501.4844,503.2656 1502.2031,502.4375 Q1502.9219,501.6094 1503.9844,501.1563 Q1505.0469,500.6875 1506.4375,500.6875 Q1507.3438,500.6875 1508.25,500.9219 Q1509.1563,501.1406 1509.9844,501.5469 L1509.1563,503.6406 Q1508.4688,503.3125 1507.7813,503.0781 Q1507.0938,502.8281 1506.4375,502.8281 Z " fill="#000000"/><text fill="#000000" font-family="sans-serif" font-size="14" lengthAdjust="spacing" textLength="89" x="1520.5" y="511.8467">PrimitiveType</text></g><!--class Accessor--><g id="elem_Accessor"><rect codeLine="11" fill="#CCFFFF" height="32" id="Accessor" rx="2.5" ry="2.5" style="stroke:#A9A9A9;stroke-width:0.5;" width="87" x="778.5" y="491"/><ellipse cx="793.5" cy="507" fill="#FFFFFF" rx="11" ry="11" style="stroke:#181818;stroke-width:1.0;"/><path d="M793.4375,502.8281 Q792.6875,502.8281 792.125,503.125 Q791.5625,503.4063 791.1719,503.9375 Q790.7813,504.4688 790.5781,505.25 Q790.3906,506.0156 790.3906,506.9688 Q790.3906,507.9375 790.5625,508.7031 Q790.75,509.4531 791.1094,509.9688 Q791.4844,510.4844 792.0625,510.7656 Q792.6406,511.0313 793.4375,511.0313 Q794.1719,511.0313 794.9063,510.8594 Q795.6563,510.6875 796.5313,510.3906 L796.5313,512.5469 Q796.125,512.7031 795.7344,512.8281 Q795.3438,512.9375 794.9375,513.0156 Q794.5313,513.0938 794.1094,513.125 Q793.6875,513.1719 793.1875,513.1719 Q791.7813,513.1719 790.75,512.7188 Q789.7344,512.2656 789.0625,511.4531 Q788.3906,510.6406 788.0625,509.5 Q787.7344,508.3438 787.7344,506.9531 Q787.7344,505.5781 788.1094,504.4219 Q788.4844,503.2656 789.2031,502.4375 Q789.9219,501.6094 790.9844,501.1563 Q792.0469,500.6875 793.4375,500.6875 Q794.3438,500.6875 795.25,500.9219 Q796.1563,501.1406 796.9844,501.5469 L796.1563,503.6406 Q795.4688,503.3125 794.7813,503.0781 Q794.0938,502.8281 793.4375,502.8281 Z " fill="#000000"/><text fill="#000000" font-family="sans-serif" font-size="14" lengthAdjust="spacing" textLength="55" x="807.5" y="511.8467">Accessor</text></g><!--class Type--><g id="elem_Type"><rect codeLine="13" fill="#CCFFFF" height="32" id="Type" rx="2.5" ry="2.5" style="stroke:#A9A9A9;stroke-width:0.5;" width="62" x="1604" y="399"/><ellipse cx="1619" cy="415" fill="#FFFFFF" rx="11" ry="11" style="stroke:#181818;stroke-width:1.0;"/><path d="M1618.9375,410.8281 Q1618.1875,410.8281 1617.625,411.125 Q1617.0625,411.4063 1616.6719,411.9375 Q1616.2813,412.4688 1616.0781,413.25 Q1615.8906,414.0156 1615.8906,414.9688 Q1615.8906,415.9375 1616.0625,416.7031 Q1616.25,417.4531 1616.6094,417.9688 Q1616.9844,418.4844 1617.5625,418.7656 Q1618.1406,419.0313 1618.9375,419.0313 Q1619.6719,419.0313 1620.4063,418.8594 Q1621.1563,418.6875 1622.0313,418.3906 L1622.0313,420.5469 Q1621.625,420.7031 1621.2344,420.8281 Q1620.8438,420.9375 1620.4375,421.0156 Q1620.0313,421.0938 1619.6094,421.125 Q1619.1875,421.1719 1618.6875,421.1719 Q1617.2813,421.1719 1616.25,420.7188 Q1615.2344,420.2656 1614.5625,419.4531 Q1613.8906,418.6406 1613.5625,417.5 Q1613.2344,416.3438 1613.2344,414.9531 Q1613.2344,413.5781 1613.6094,412.4219 Q1613.9844,411.2656 1614.7031,410.4375 Q1615.4219,409.6094 1616.4844,409.1563 Q1617.5469,408.6875 1618.9375,408.6875 Q1619.8438,408.6875 1620.75,408.9219 Q1621.6563,409.1406 1622.4844,409.5469 L1621.6563,411.6406 Q1620.9688,411.3125 1620.2813,411.0781 Q1619.5938,410.8281 1618.9375,410.8281 Z " fill="#000000"/><text fill="#000000" font-family="sans-serif" font-size="14" lengthAdjust="spacing" textLength="30" x="1633" y="419.8467">Type</text></g><!--class IndexedFileAnchor--><g id="elem_IndexedFileAnchor"><rect codeLine="15" fill="#CCFFFF" height="32" id="IndexedFileAnchor" rx="2.5" ry="2.5" style="stroke:#A9A9A9;stroke-width:0.5;" width="152" x="1055" y="191"/><ellipse cx="1070" cy="207" fill="#FFFFFF" rx="11" ry="11" style="stroke:#181818;stroke-width:1.0;"/><path d="M1069.9375,202.8281 Q1069.1875,202.8281 1068.625,203.125 Q1068.0625,203.4063 1067.6719,203.9375 Q1067.2813,204.4688 1067.0781,205.25 Q1066.8906,206.0156 1066.8906,206.9688 Q1066.8906,207.9375 1067.0625,208.7031 Q1067.25,209.4531 1067.6094,209.9688 Q1067.9844,210.4844 1068.5625,210.7656 Q1069.1406,211.0313 1069.9375,211.0313 Q1070.6719,211.0313 1071.4063,210.8594 Q1072.1563,210.6875 1073.0313,210.3906 L1073.0313,212.5469 Q1072.625,212.7031 1072.2344,212.8281 Q1071.8438,212.9375 1071.4375,213.0156 Q1071.0313,213.0938 1070.6094,213.125 Q1070.1875,213.1719 1069.6875,213.1719 Q1068.2813,213.1719 1067.25,212.7188 Q1066.2344,212.2656 1065.5625,211.4531 Q1064.8906,210.6406 1064.5625,209.5 Q1064.2344,208.3438 1064.2344,206.9531 Q1064.2344,205.5781 1064.6094,204.4219 Q1064.9844,203.2656 1065.7031,202.4375 Q1066.4219,201.6094 1067.4844,201.1563 Q1068.5469,200.6875 1069.9375,200.6875 Q1070.8438,200.6875 1071.75,200.9219 Q1072.6563,201.1406 1073.4844,201.5469 L1072.6563,203.6406 Q1071.9688,203.3125 1071.2813,203.0781 Q1070.5938,202.8281 1069.9375,202.8281 Z " fill="#000000"/><text fill="#000000" font-family="sans-serif" font-size="14" lengthAdjust="spacing" textLength="120" x="1084" y="211.8467">IndexedFileAnchor</text></g><!--class Entity--><g id="elem_Entity"><rect codeLine="17" fill="#CCFFFF" height="32" id="Entity" rx="2.5" ry="2.5" style="stroke:#A9A9A9;stroke-width:0.5;" width="68" x="746" y="7"/><ellipse cx="761" cy="23" fill="#FFFFFF" rx="11" ry="11" style="stroke:#181818;stroke-width:1.0;"/><path d="M760.9375,18.8281 Q760.1875,18.8281 759.625,19.125 Q759.0625,19.4063 758.6719,19.9375 Q758.2813,20.4688 758.0781,21.25 Q757.8906,22.0156 757.8906,22.9688 Q757.8906,23.9375 758.0625,24.7031 Q758.25,25.4531 758.6094,25.9688 Q758.9844,26.4844 759.5625,26.7656 Q760.1406,27.0313 760.9375,27.0313 Q761.6719,27.0313 762.4063,26.8594 Q763.1563,26.6875 764.0313,26.3906 L764.0313,28.5469 Q763.625,28.7031 763.2344,28.8281 Q762.8438,28.9375 762.4375,29.0156 Q762.0313,29.0938 761.6094,29.125 Q761.1875,29.1719 760.6875,29.1719 Q759.2813,29.1719 758.25,28.7188 Q757.2344,28.2656 756.5625,27.4531 Q755.8906,26.6406 755.5625,25.5 Q755.2344,24.3438 755.2344,22.9531 Q755.2344,21.5781 755.6094,20.4219 Q755.9844,19.2656 756.7031,18.4375 Q757.4219,17.6094 758.4844,17.1563 Q759.5469,16.6875 760.9375,16.6875 Q761.8438,16.6875 762.75,16.9219 Q763.6563,17.1406 764.4844,17.5469 L763.6563,19.6406 Q762.9688,19.3125 762.2813,19.0781 Q761.5938,18.8281 760.9375,18.8281 Z " fill="#000000"/><text fill="#000000" font-family="sans-serif" font-size="14" lengthAdjust="spacing" textLength="36" x="775" y="27.8467">Entity</text></g><!--class Invocation--><g id="elem_Invocation"><rect codeLine="19" fill="#CCFFFF" height="32" id="Invocation" rx="2.5" ry="2.5" style="stroke:#A9A9A9;stroke-width:0.5;" width="98" x="7" y="99"/><ellipse cx="22" cy="115" fill="#FFFFFF" rx="11" ry="11" style="stroke:#181818;stroke-width:1.0;"/><path d="M21.9375,110.8281 Q21.1875,110.8281 20.625,111.125 Q20.0625,111.4063 19.6719,111.9375 Q19.2813,112.4688 19.0781,113.25 Q18.8906,114.0156 18.8906,114.9688 Q18.8906,115.9375 19.0625,116.7031 Q19.25,117.4531 19.6094,117.9688 Q19.9844,118.4844 20.5625,118.7656 Q21.1406,119.0313 21.9375,119.0313 Q22.6719,119.0313 23.4063,118.8594 Q24.1563,118.6875 25.0313,118.3906 L25.0313,120.5469 Q24.625,120.7031 24.2344,120.8281 Q23.8438,120.9375 23.4375,121.0156 Q23.0313,121.0938 22.6094,121.125 Q22.1875,121.1719 21.6875,121.1719 Q20.2813,121.1719 19.25,120.7188 Q18.2344,120.2656 17.5625,119.4531 Q16.8906,118.6406 16.5625,117.5 Q16.2344,116.3438 16.2344,114.9531 Q16.2344,113.5781 16.6094,112.4219 Q16.9844,111.2656 17.7031,110.4375 Q18.4219,109.6094 19.4844,109.1563 Q20.5469,108.6875 21.9375,108.6875 Q22.8438,108.6875 23.75,108.9219 Q24.6563,109.1406 25.4844,109.5469 L24.6563,111.6406 Q23.9688,111.3125 23.2813,111.0781 Q22.5938,110.8281 21.9375,110.8281 Z " fill="#000000"/><text fill="#000000" font-family="sans-serif" font-size="14" lengthAdjust="spacing" textLength="66" x="36" y="119.8467">Invocation</text></g><!--class TClassMetrics--><g id="elem_TClassMetrics"><rect codeLine="21" fill="#CCFFFF" height="32" id="TClassMetrics" rx="2.5" ry="2.5" style="stroke:#A9A9A9;stroke-width:0.5;" width="117" x="1399.5" y="399"/><ellipse cx="1414.5" cy="415" fill="#FFFFFF" rx="11" ry="11" style="stroke:#181818;stroke-width:1.0;"/><path d="M1415.9531,421.75 L1413.3906,421.75 L1413.3906,411.75 L1410.3438,411.75 L1410.3438,409.6094 L1418.9844,409.6094 L1418.9844,411.75 L1415.9531,411.75 L1415.9531,421.75 Z " fill="#000000"/><text fill="#000000" font-family="sans-serif" font-size="14" lengthAdjust="spacing" textLength="85" x="1428.5" y="419.8467">TClassMetrics</text></g><!--class Enum--><g id="elem_Enum"><rect codeLine="23" fill="#CCFFFF" height="32" id="Enum" rx="2.5" ry="2.5" style="stroke:#A9A9A9;stroke-width:0.5;" width="68" x="1648" y="491"/><ellipse cx="1663" cy="507" fill="#FFFFFF" rx="11" ry="11" style="stroke:#181818;stroke-width:1.0;"/><path d="M1662.9375,502.8281 Q1662.1875,502.8281 1661.625,503.125 Q1661.0625,503.4063 1660.6719,503.9375 Q1660.2813,504.4688 1660.0781,505.25 Q1659.8906,506.0156 1659.8906,506.9688 Q1659.8906,507.9375 1660.0625,508.7031 Q1660.25,509.4531 1660.6094,509.9688 Q1660.9844,510.4844 1661.5625,510.7656 Q1662.1406,511.0313 1662.9375,511.0313 Q1663.6719,511.0313 1664.4063,510.8594 Q1665.1563,510.6875 1666.0313,510.3906 L1666.0313,512.5469 Q1665.625,512.7031 1665.2344,512.8281 Q1664.8438,512.9375 1664.4375,513.0156 Q1664.0313,513.0938 1663.6094,513.125 Q1663.1875,513.1719 1662.6875,513.1719 Q1661.2813,513.1719 1660.25,512.7188 Q1659.2344,512.2656 1658.5625,511.4531 Q1657.8906,510.6406 1657.5625,509.5 Q1657.2344,508.3438 1657.2344,506.9531 Q1657.2344,505.5781 1657.6094,504.4219 Q1657.9844,503.2656 1658.7031,502.4375 Q1659.4219,501.6094 1660.4844,501.1563 Q1661.5469,500.6875 1662.9375,500.6875 Q1663.8438,500.6875 1664.75,500.9219 Q1665.6563,501.1406 1666.4844,501.5469 L1665.6563,503.6406 Q1664.9688,503.3125 1664.2813,503.0781 Q1663.5938,502.8281 1662.9375,502.8281 Z " fill="#000000"/><text fill="#000000" font-family="sans-serif" font-size="14" lengthAdjust="spacing" textLength="36" x="1677" y="511.8467">Enum</text></g><!--class Variable--><g id="elem_Variable"><rect codeLine="25" fill="#CCFFFF" height="32" id="Variable" rx="2.5" ry="2.5" style="stroke:#A9A9A9;stroke-width:0.5;" width="84" x="277" y="295"/><ellipse cx="292" cy="311" fill="#FFFFFF" rx="11" ry="11" style="stroke:#181818;stroke-width:1.0;"/><path d="M291.9375,306.8281 Q291.1875,306.8281 290.625,307.125 Q290.0625,307.4063 289.6719,307.9375 Q289.2813,308.4688 289.0781,309.25 Q288.8906,310.0156 288.8906,310.9688 Q288.8906,311.9375 289.0625,312.7031 Q289.25,313.4531 289.6094,313.9688 Q289.9844,314.4844 290.5625,314.7656 Q291.1406,315.0313 291.9375,315.0313 Q292.6719,315.0313 293.4063,314.8594 Q294.1563,314.6875 295.0313,314.3906 L295.0313,316.5469 Q294.625,316.7031 294.2344,316.8281 Q293.8438,316.9375 293.4375,317.0156 Q293.0313,317.0938 292.6094,317.125 Q292.1875,317.1719 291.6875,317.1719 Q290.2813,317.1719 289.25,316.7188 Q288.2344,316.2656 287.5625,315.4531 Q286.8906,314.6406 286.5625,313.5 Q286.2344,312.3438 286.2344,310.9531 Q286.2344,309.5781 286.6094,308.4219 Q286.9844,307.2656 287.7031,306.4375 Q288.4219,305.6094 289.4844,305.1563 Q290.5469,304.6875 291.9375,304.6875 Q292.8438,304.6875 293.75,304.9219 Q294.6563,305.1406 295.4844,305.5469 L294.6563,307.6406 Q293.9688,307.3125 293.2813,307.0781 Q292.5938,306.8281 291.9375,306.8281 Z " fill="#000000"/><text fill="#000000" font-family="sans-serif" font-size="14" lengthAdjust="spacing" textLength="52" x="306" y="315.8467">Variable</text></g><!--class ParametricInterface--><g id="elem_ParametricInterface"><rect codeLine="27" fill="#CCFFFF" height="32" id="ParametricInterface" rx="2.5" ry="2.5" style="stroke:#A9A9A9;stroke-width:0.5;" width="160" x="2066" y="583"/><ellipse cx="2081" cy="599" fill="#FFFFFF" rx="11" ry="11" style="stroke:#181818;stroke-width:1.0;"/><path d="M2080.9375,594.8281 Q2080.1875,594.8281 2079.625,595.125 Q2079.0625,595.4063 2078.6719,595.9375 Q2078.2813,596.4688 2078.0781,597.25 Q2077.8906,598.0156 2077.8906,598.9688 Q2077.8906,599.9375 2078.0625,600.7031 Q2078.25,601.4531 2078.6094,601.9688 Q2078.9844,602.4844 2079.5625,602.7656 Q2080.1406,603.0313 2080.9375,603.0313 Q2081.6719,603.0313 2082.4063,602.8594 Q2083.1563,602.6875 2084.0313,602.3906 L2084.0313,604.5469 Q2083.625,604.7031 2083.2344,604.8281 Q2082.8438,604.9375 2082.4375,605.0156 Q2082.0313,605.0938 2081.6094,605.125 Q2081.1875,605.1719 2080.6875,605.1719 Q2079.2813,605.1719 2078.25,604.7188 Q2077.2344,604.2656 2076.5625,603.4531 Q2075.8906,602.6406 2075.5625,601.5 Q2075.2344,600.3438 2075.2344,598.9531 Q2075.2344,597.5781 2075.6094,596.4219 Q2075.9844,595.2656 2076.7031,594.4375 Q2077.4219,593.6094 2078.4844,593.1563 Q2079.5469,592.6875 2080.9375,592.6875 Q2081.8438,592.6875 2082.75,592.9219 Q2083.6563,593.1406 2084.4844,593.5469 L2083.6563,595.6406 Q2082.9688,595.3125 2082.2813,595.0781 Q2081.5938,594.8281 2080.9375,594.8281 Z " fill="#000000"/><text fill="#000000" font-family="sans-serif" font-size="14" lengthAdjust="spacing" textLength="128" x="2095" y="603.8467">ParametricInterface</text></g><!--class Property--><g id="elem_Property"><rect codeLine="29" fill="#CCFFFF" height="32" id="Property" rx="2.5" ry="2.5" style="stroke:#A9A9A9;stroke-width:0.5;" width="88" x="396" y="295"/><ellipse cx="411" cy="311" fill="#FFFFFF" rx="11" ry="11" style="stroke:#181818;stroke-width:1.0;"/><path d="M410.9375,306.8281 Q410.1875,306.8281 409.625,307.125 Q409.0625,307.4063 408.6719,307.9375 Q408.2813,308.4688 408.0781,309.25 Q407.8906,310.0156 407.8906,310.9688 Q407.8906,311.9375 408.0625,312.7031 Q408.25,313.4531 408.6094,313.9688 Q408.9844,314.4844 409.5625,314.7656 Q410.1406,315.0313 410.9375,315.0313 Q411.6719,315.0313 412.4063,314.8594 Q413.1563,314.6875 414.0313,314.3906 L414.0313,316.5469 Q413.625,316.7031 413.2344,316.8281 Q412.8438,316.9375 412.4375,317.0156 Q412.0313,317.0938 411.6094,317.125 Q411.1875,317.1719 410.6875,317.1719 Q409.2813,317.1719 408.25,316.7188 Q407.2344,316.2656 406.5625,315.4531 Q405.8906,314.6406 405.5625,313.5 Q405.2344,312.3438 405.2344,310.9531 Q405.2344,309.5781 405.6094,308.4219 Q405.9844,307.2656 406.7031,306.4375 Q407.4219,305.6094 408.4844,305.1563 Q409.5469,304.6875 410.9375,304.6875 Q411.8438,304.6875 412.75,304.9219 Q413.6563,305.1406 414.4844,305.5469 L413.6563,307.6406 Q412.9688,307.3125 412.2813,307.0781 Q411.5938,306.8281 410.9375,306.8281 Z " fill="#000000"/><text fill="#000000" font-family="sans-serif" font-size="14" lengthAdjust="spacing" textLength="56" x="425" y="315.8467">Property</text></g><!--class ParametricClass--><g id="elem_ParametricClass"><rect codeLine="31" fill="#CCFFFF" height="32" id="ParametricClass" rx="2.5" ry="2.5" style="stroke:#A9A9A9;stroke-width:0.5;" width="133" x="1358.5" y="583"/><ellipse cx="1373.5" cy="599" fill="#FFFFFF" rx="11" ry="11" style="stroke:#181818;stroke-width:1.0;"/><path d="M1373.4375,594.8281 Q1372.6875,594.8281 1372.125,595.125 Q1371.5625,595.4063 1371.1719,595.9375 Q1370.7813,596.4688 1370.5781,597.25 Q1370.3906,598.0156 1370.3906,598.9688 Q1370.3906,599.9375 1370.5625,600.7031 Q1370.75,601.4531 1371.1094,601.9688 Q1371.4844,602.4844 1372.0625,602.7656 Q1372.6406,603.0313 1373.4375,603.0313 Q1374.1719,603.0313 1374.9063,602.8594 Q1375.6563,602.6875 1376.5313,602.3906 L1376.5313,604.5469 Q1376.125,604.7031 1375.7344,604.8281 Q1375.3438,604.9375 1374.9375,605.0156 Q1374.5313,605.0938 1374.1094,605.125 Q1373.6875,605.1719 1373.1875,605.1719 Q1371.7813,605.1719 1370.75,604.7188 Q1369.7344,604.2656 1369.0625,603.4531 Q1368.3906,602.6406 1368.0625,601.5 Q1367.7344,600.3438 1367.7344,598.9531 Q1367.7344,597.5781 1368.1094,596.4219 Q1368.4844,595.2656 1369.2031,594.4375 Q1369.9219,593.6094 1370.9844,593.1563 Q1372.0469,592.6875 1373.4375,592.6875 Q1374.3438,592.6875 1375.25,592.9219 Q1376.1563,593.1406 1376.9844,593.5469 L1376.1563,595.6406 Q1375.4688,595.3125 1374.7813,595.0781 Q1374.0938,594.8281 1373.4375,594.8281 Z " fill="#000000"/><text fill="#000000" font-family="sans-serif" font-size="14" lengthAdjust="spacing" textLength="101" x="1387.5" y="603.8467">ParametricClass</text></g><!--class Namespace--><g id="elem_Namespace"><rect codeLine="33" fill="#CCFFFF" height="32" id="Namespace" rx="2.5" ry="2.5" style="stroke:#A9A9A9;stroke-width:0.5;" width="105" x="1701.5" y="399"/><ellipse cx="1716.5" cy="415" fill="#FFFFFF" rx="11" ry="11" style="stroke:#181818;stroke-width:1.0;"/><path d="M1716.4375,410.8281 Q1715.6875,410.8281 1715.125,411.125 Q1714.5625,411.4063 1714.1719,411.9375 Q1713.7813,412.4688 1713.5781,413.25 Q1713.3906,414.0156 1713.3906,414.9688 Q1713.3906,415.9375 1713.5625,416.7031 Q1713.75,417.4531 1714.1094,417.9688 Q1714.4844,418.4844 1715.0625,418.7656 Q1715.6406,419.0313 1716.4375,419.0313 Q1717.1719,419.0313 1717.9063,418.8594 Q1718.6563,418.6875 1719.5313,418.3906 L1719.5313,420.5469 Q1719.125,420.7031 1718.7344,420.8281 Q1718.3438,420.9375 1717.9375,421.0156 Q1717.5313,421.0938 1717.1094,421.125 Q1716.6875,421.1719 1716.1875,421.1719 Q1714.7813,421.1719 1713.75,420.7188 Q1712.7344,420.2656 1712.0625,419.4531 Q1711.3906,418.6406 1711.0625,417.5 Q1710.7344,416.3438 1710.7344,414.9531 Q1710.7344,413.5781 1711.1094,412.4219 Q1711.4844,411.2656 1712.2031,410.4375 Q1712.9219,409.6094 1713.9844,409.1563 Q1715.0469,408.6875 1716.4375,408.6875 Q1717.3438,408.6875 1718.25,408.9219 Q1719.1563,409.1406 1719.9844,409.5469 L1719.1563,411.6406 Q1718.4688,411.3125 1717.7813,411.0781 Q1717.0938,410.8281 1716.4375,410.8281 Z " fill="#000000"/><text fill="#000000" font-family="sans-serif" font-size="14" lengthAdjust="spacing" textLength="73" x="1730.5" y="419.8467">Namespace</text></g><!--class Method--><g id="elem_Method"><rect codeLine="35" fill="#CCFFFF" height="32" id="Method" rx="2.5" ry="2.5" style="stroke:#A9A9A9;stroke-width:0.5;" width="81" x="935.5" y="399"/><ellipse cx="950.5" cy="415" fill="#FFFFFF" rx="11" ry="11" style="stroke:#181818;stroke-width:1.0;"/><path d="M950.4375,410.8281 Q949.6875,410.8281 949.125,411.125 Q948.5625,411.4063 948.1719,411.9375 Q947.7813,412.4688 947.5781,413.25 Q947.3906,414.0156 947.3906,414.9688 Q947.3906,415.9375 947.5625,416.7031 Q947.75,417.4531 948.1094,417.9688 Q948.4844,418.4844 949.0625,418.7656 Q949.6406,419.0313 950.4375,419.0313 Q951.1719,419.0313 951.9063,418.8594 Q952.6563,418.6875 953.5313,418.3906 L953.5313,420.5469 Q953.125,420.7031 952.7344,420.8281 Q952.3438,420.9375 951.9375,421.0156 Q951.5313,421.0938 951.1094,421.125 Q950.6875,421.1719 950.1875,421.1719 Q948.7813,421.1719 947.75,420.7188 Q946.7344,420.2656 946.0625,419.4531 Q945.3906,418.6406 945.0625,417.5 Q944.7344,416.3438 944.7344,414.9531 Q944.7344,413.5781 945.1094,412.4219 Q945.4844,411.2656 946.2031,410.4375 Q946.9219,409.6094 947.9844,409.1563 Q949.0469,408.6875 950.4375,408.6875 Q951.3438,408.6875 952.25,408.9219 Q953.1563,409.1406 953.9844,409.5469 L953.1563,411.6406 Q952.4688,411.3125 951.7813,411.0781 Q951.0938,410.8281 950.4375,410.8281 Z " fill="#000000"/><text fill="#000000" font-family="sans-serif" font-size="14" lengthAdjust="spacing" textLength="49" x="964.5" y="419.8467">Method</text></g><!--class ContainerEntity--><g id="elem_ContainerEntity"><rect codeLine="37" fill="#CCFFFF" height="32" id="ContainerEntity" rx="2.5" ry="2.5" style="stroke:#A9A9A9;stroke-width:0.5;" width="130" x="1247" y="295"/><ellipse cx="1262" cy="311" fill="#FFFFFF" rx="11" ry="11" style="stroke:#181818;stroke-width:1.0;"/><path d="M1261.9375,306.8281 Q1261.1875,306.8281 1260.625,307.125 Q1260.0625,307.4063 1259.6719,307.9375 Q1259.2813,308.4688 1259.0781,309.25 Q1258.8906,310.0156 1258.8906,310.9688 Q1258.8906,311.9375 1259.0625,312.7031 Q1259.25,313.4531 1259.6094,313.9688 Q1259.9844,314.4844 1260.5625,314.7656 Q1261.1406,315.0313 1261.9375,315.0313 Q1262.6719,315.0313 1263.4063,314.8594 Q1264.1563,314.6875 1265.0313,314.3906 L1265.0313,316.5469 Q1264.625,316.7031 1264.2344,316.8281 Q1263.8438,316.9375 1263.4375,317.0156 Q1263.0313,317.0938 1262.6094,317.125 Q1262.1875,317.1719 1261.6875,317.1719 Q1260.2813,317.1719 1259.25,316.7188 Q1258.2344,316.2656 1257.5625,315.4531 Q1256.8906,314.6406 1256.5625,313.5 Q1256.2344,312.3438 1256.2344,310.9531 Q1256.2344,309.5781 1256.6094,308.4219 Q1256.9844,307.2656 1257.7031,306.4375 Q1258.4219,305.6094 1259.4844,305.1563 Q1260.5469,304.6875 1261.9375,304.6875 Q1262.8438,304.6875 1263.75,304.9219 Q1264.6563,305.1406 1265.4844,305.5469 L1264.6563,307.6406 Q1263.9688,307.3125 1263.2813,307.0781 Q1262.5938,306.8281 1261.9375,306.8281 Z " fill="#000000"/><text fill="#000000" font-family="sans-serif" font-size="14" lengthAdjust="spacing" textLength="98" x="1276" y="315.8467">ContainerEntity</text></g><!--class Comment--><g id="elem_Comment"><rect codeLine="39" fill="#CCFFFF" height="32" id="Comment" rx="2.5" ry="2.5" style="stroke:#A9A9A9;stroke-width:0.5;" width="95" x="490.5" y="191"/><ellipse cx="505.5" cy="207" fill="#FFFFFF" rx="11" ry="11" style="stroke:#181818;stroke-width:1.0;"/><path d="M505.4375,202.8281 Q504.6875,202.8281 504.125,203.125 Q503.5625,203.4063 503.1719,203.9375 Q502.7813,204.4688 502.5781,205.25 Q502.3906,206.0156 502.3906,206.9688 Q502.3906,207.9375 502.5625,208.7031 Q502.75,209.4531 503.1094,209.9688 Q503.4844,210.4844 504.0625,210.7656 Q504.6406,211.0313 505.4375,211.0313 Q506.1719,211.0313 506.9063,210.8594 Q507.6563,210.6875 508.5313,210.3906 L508.5313,212.5469 Q508.125,212.7031 507.7344,212.8281 Q507.3438,212.9375 506.9375,213.0156 Q506.5313,213.0938 506.1094,213.125 Q505.6875,213.1719 505.1875,213.1719 Q503.7813,213.1719 502.75,212.7188 Q501.7344,212.2656 501.0625,211.4531 Q500.3906,210.6406 500.0625,209.5 Q499.7344,208.3438 499.7344,206.9531 Q499.7344,205.5781 500.1094,204.4219 Q500.4844,203.2656 501.2031,202.4375 Q501.9219,201.6094 502.9844,201.1563 Q504.0469,200.6875 505.4375,200.6875 Q506.3438,200.6875 507.25,200.9219 Q508.1563,201.1406 508.9844,201.5469 L508.1563,203.6406 Q507.4688,203.3125 506.7813,203.0781 Q506.0938,202.8281 505.4375,202.8281 Z " fill="#000000"/><text fill="#000000" font-family="sans-serif" font-size="14" lengthAdjust="spacing" textLength="63" x="519.5" y="211.8467">Comment</text></g><!--class FamixTypeScriptModel--><g id="elem_FamixTypeScriptModel"><rect codeLine="41" fill="#CCFFFF" height="32" id="FamixTypeScriptModel" rx="2.5" ry="2.5" style="stroke:#A9A9A9;stroke-width:0.5;" width="176" x="1667" y="99"/><ellipse cx="1682" cy="115" fill="#FFFFFF" rx="11" ry="11" style="stroke:#181818;stroke-width:1.0;"/><path d="M1681.9375,110.8281 Q1681.1875,110.8281 1680.625,111.125 Q1680.0625,111.4063 1679.6719,111.9375 Q1679.2813,112.4688 1679.0781,113.25 Q1678.8906,114.0156 1678.8906,114.9688 Q1678.8906,115.9375 1679.0625,116.7031 Q1679.25,117.4531 1679.6094,117.9688 Q1679.9844,118.4844 1680.5625,118.7656 Q1681.1406,119.0313 1681.9375,119.0313 Q1682.6719,119.0313 1683.4063,118.8594 Q1684.1563,118.6875 1685.0313,118.3906 L1685.0313,120.5469 Q1684.625,120.7031 1684.2344,120.8281 Q1683.8438,120.9375 1683.4375,121.0156 Q1683.0313,121.0938 1682.6094,121.125 Q1682.1875,121.1719 1681.6875,121.1719 Q1680.2813,121.1719 1679.25,120.7188 Q1678.2344,120.2656 1677.5625,119.4531 Q1676.8906,118.6406 1676.5625,117.5 Q1676.2344,116.3438 1676.2344,114.9531 Q1676.2344,113.5781 1676.6094,112.4219 Q1676.9844,111.2656 1677.7031,110.4375 Q1678.4219,109.6094 1679.4844,109.1563 Q1680.5469,108.6875 1681.9375,108.6875 Q1682.8438,108.6875 1683.75,108.9219 Q1684.6563,109.1406 1685.4844,109.5469 L1684.6563,111.6406 Q1683.9688,111.3125 1683.2813,111.0781 Q1682.5938,110.8281 1681.9375,110.8281 Z " fill="#000000"/><text fill="#000000" font-family="sans-serif" font-size="14" lengthAdjust="spacing" textLength="144" x="1696" y="119.8467">FamixTypeScriptModel</text></g><!--class Folder--><g id="elem_Folder"><rect codeLine="43" fill="#CCFFFF" height="32" id="Folder" rx="2.5" ry="2.5" style="stroke:#A9A9A9;stroke-width:0.5;" width="73" x="519.5" y="295"/><ellipse cx="534.5" cy="311" fill="#FFFFFF" rx="11" ry="11" style="stroke:#181818;stroke-width:1.0;"/><path d="M534.4375,306.8281 Q533.6875,306.8281 533.125,307.125 Q532.5625,307.4063 532.1719,307.9375 Q531.7813,308.4688 531.5781,309.25 Q531.3906,310.0156 531.3906,310.9688 Q531.3906,311.9375 531.5625,312.7031 Q531.75,313.4531 532.1094,313.9688 Q532.4844,314.4844 533.0625,314.7656 Q533.6406,315.0313 534.4375,315.0313 Q535.1719,315.0313 535.9063,314.8594 Q536.6563,314.6875 537.5313,314.3906 L537.5313,316.5469 Q537.125,316.7031 536.7344,316.8281 Q536.3438,316.9375 535.9375,317.0156 Q535.5313,317.0938 535.1094,317.125 Q534.6875,317.1719 534.1875,317.1719 Q532.7813,317.1719 531.75,316.7188 Q530.7344,316.2656 530.0625,315.4531 Q529.3906,314.6406 529.0625,313.5 Q528.7344,312.3438 528.7344,310.9531 Q528.7344,309.5781 529.1094,308.4219 Q529.4844,307.2656 530.2031,306.4375 Q530.9219,305.6094 531.9844,305.1563 Q533.0469,304.6875 534.4375,304.6875 Q535.3438,304.6875 536.25,304.9219 Q537.1563,305.1406 537.9844,305.5469 L537.1563,307.6406 Q536.4688,307.3125 535.7813,307.0781 Q535.0938,306.8281 534.4375,306.8281 Z " fill="#000000"/><text fill="#000000" font-family="sans-serif" font-size="14" lengthAdjust="spacing" textLength="41" x="548.5" y="315.8467">Folder</text></g><!--class ParameterType--><g id="elem_ParameterType"><rect codeLine="45" fill="#CCFFFF" height="32" id="ParameterType" rx="2.5" ry="2.5" style="stroke:#A9A9A9;stroke-width:0.5;" width="130" x="1751" y="491"/><ellipse cx="1766" cy="507" fill="#FFFFFF" rx="11" ry="11" style="stroke:#181818;stroke-width:1.0;"/><path d="M1765.9375,502.8281 Q1765.1875,502.8281 1764.625,503.125 Q1764.0625,503.4063 1763.6719,503.9375 Q1763.2813,504.4688 1763.0781,505.25 Q1762.8906,506.0156 1762.8906,506.9688 Q1762.8906,507.9375 1763.0625,508.7031 Q1763.25,509.4531 1763.6094,509.9688 Q1763.9844,510.4844 1764.5625,510.7656 Q1765.1406,511.0313 1765.9375,511.0313 Q1766.6719,511.0313 1767.4063,510.8594 Q1768.1563,510.6875 1769.0313,510.3906 L1769.0313,512.5469 Q1768.625,512.7031 1768.2344,512.8281 Q1767.8438,512.9375 1767.4375,513.0156 Q1767.0313,513.0938 1766.6094,513.125 Q1766.1875,513.1719 1765.6875,513.1719 Q1764.2813,513.1719 1763.25,512.7188 Q1762.2344,512.2656 1761.5625,511.4531 Q1760.8906,510.6406 1760.5625,509.5 Q1760.2344,508.3438 1760.2344,506.9531 Q1760.2344,505.5781 1760.6094,504.4219 Q1760.9844,503.2656 1761.7031,502.4375 Q1762.4219,501.6094 1763.4844,501.1563 Q1764.5469,500.6875 1765.9375,500.6875 Q1766.8438,500.6875 1767.75,500.9219 Q1768.6563,501.1406 1769.4844,501.5469 L1768.6563,503.6406 Q1767.9688,503.3125 1767.2813,503.0781 Q1766.5938,502.8281 1765.9375,502.8281 Z " fill="#000000"/><text fill="#000000" font-family="sans-serif" font-size="14" lengthAdjust="spacing" textLength="98" x="1780" y="511.8467">ParameterType</text></g><!--class TEntityCreator--><g id="elem_TEntityCreator"><rect codeLine="47" fill="#CCFFFF" height="32" id="TEntityCreator" rx="2.5" ry="2.5" style="stroke:#A9A9A9;stroke-width:0.5;" width="123" x="1693.5" y="7"/><ellipse cx="1708.5" cy="23" fill="#FFFFFF" rx="11" ry="11" style="stroke:#181818;stroke-width:1.0;"/><path d="M1709.9531,29.75 L1707.3906,29.75 L1707.3906,19.75 L1704.3438,19.75 L1704.3438,17.6094 L1712.9844,17.6094 L1712.9844,19.75 L1709.9531,19.75 L1709.9531,29.75 Z " fill="#000000"/><text fill="#000000" font-family="sans-serif" font-size="14" lengthAdjust="spacing" textLength="91" x="1722.5" y="27.8467">TEntityCreator</text></g><!--class SourceLanguage--><g id="elem_SourceLanguage"><rect codeLine="49" fill="#CCFFFF" height="32" id="SourceLanguage" rx="2.5" ry="2.5" style="stroke:#A9A9A9;stroke-width:0.5;" width="134" x="140" y="99"/><ellipse cx="155" cy="115" fill="#FFFFFF" rx="11" ry="11" style="stroke:#181818;stroke-width:1.0;"/><path d="M154.9375,110.8281 Q154.1875,110.8281 153.625,111.125 Q153.0625,111.4063 152.6719,111.9375 Q152.2813,112.4688 152.0781,113.25 Q151.8906,114.0156 151.8906,114.9688 Q151.8906,115.9375 152.0625,116.7031 Q152.25,117.4531 152.6094,117.9688 Q152.9844,118.4844 153.5625,118.7656 Q154.1406,119.0313 154.9375,119.0313 Q155.6719,119.0313 156.4063,118.8594 Q157.1563,118.6875 158.0313,118.3906 L158.0313,120.5469 Q157.625,120.7031 157.2344,120.8281 Q156.8438,120.9375 156.4375,121.0156 Q156.0313,121.0938 155.6094,121.125 Q155.1875,121.1719 154.6875,121.1719 Q153.2813,121.1719 152.25,120.7188 Q151.2344,120.2656 150.5625,119.4531 Q149.8906,118.6406 149.5625,117.5 Q149.2344,116.3438 149.2344,114.9531 Q149.2344,113.5781 149.6094,112.4219 Q149.9844,111.2656 150.7031,110.4375 Q151.4219,109.6094 152.4844,109.1563 Q153.5469,108.6875 154.9375,108.6875 Q155.8438,108.6875 156.75,108.9219 Q157.6563,109.1406 158.4844,109.5469 L157.6563,111.6406 Q156.9688,111.3125 156.2813,111.0781 Q155.5938,110.8281 154.9375,110.8281 Z " fill="#000000"/><text fill="#000000" font-family="sans-serif" font-size="14" lengthAdjust="spacing" textLength="102" x="169" y="119.8467">SourceLanguage</text></g><!--class Implementation--><g id="elem_Implementation"><rect codeLine="51" fill="#CCFFFF" height="32" id="Implementation" rx="2.5" ry="2.5" style="stroke:#A9A9A9;stroke-width:0.5;" width="136" x="309" y="99"/><ellipse cx="324" cy="115" fill="#FFFFFF" rx="11" ry="11" style="stroke:#181818;stroke-width:1.0;"/><path d="M323.9375,110.8281 Q323.1875,110.8281 322.625,111.125 Q322.0625,111.4063 321.6719,111.9375 Q321.2813,112.4688 321.0781,113.25 Q320.8906,114.0156 320.8906,114.9688 Q320.8906,115.9375 321.0625,116.7031 Q321.25,117.4531 321.6094,117.9688 Q321.9844,118.4844 322.5625,118.7656 Q323.1406,119.0313 323.9375,119.0313 Q324.6719,119.0313 325.4063,118.8594 Q326.1563,118.6875 327.0313,118.3906 L327.0313,120.5469 Q326.625,120.7031 326.2344,120.8281 Q325.8438,120.9375 325.4375,121.0156 Q325.0313,121.0938 324.6094,121.125 Q324.1875,121.1719 323.6875,121.1719 Q322.2813,121.1719 321.25,120.7188 Q320.2344,120.2656 319.5625,119.4531 Q318.8906,118.6406 318.5625,117.5 Q318.2344,116.3438 318.2344,114.9531 Q318.2344,113.5781 318.6094,112.4219 Q318.9844,111.2656 319.7031,110.4375 Q320.4219,109.6094 321.4844,109.1563 Q322.5469,108.6875 323.9375,108.6875 Q324.8438,108.6875 325.75,108.9219 Q326.6563,109.1406 327.4844,109.5469 L326.6563,111.6406 Q325.9688,111.3125 325.2813,111.0781 Q324.5938,110.8281 323.9375,110.8281 Z " fill="#000000"/><text fill="#000000" font-family="sans-serif" font-size="14" lengthAdjust="spacing" textLength="104" x="338" y="119.8467">Implementation</text></g><!--class ParametricFunction--><g id="elem_ParametricFunction"><rect codeLine="53" fill="#CCFFFF" height="32" id="ParametricFunction" rx="2.5" ry="2.5" style="stroke:#A9A9A9;stroke-width:0.5;" width="156" x="1087" y="491"/><ellipse cx="1102" cy="507" fill="#FFFFFF" rx="11" ry="11" style="stroke:#181818;stroke-width:1.0;"/><path d="M1101.9375,502.8281 Q1101.1875,502.8281 1100.625,503.125 Q1100.0625,503.4063 1099.6719,503.9375 Q1099.2813,504.4688 1099.0781,505.25 Q1098.8906,506.0156 1098.8906,506.9688 Q1098.8906,507.9375 1099.0625,508.7031 Q1099.25,509.4531 1099.6094,509.9688 Q1099.9844,510.4844 1100.5625,510.7656 Q1101.1406,511.0313 1101.9375,511.0313 Q1102.6719,511.0313 1103.4063,510.8594 Q1104.1563,510.6875 1105.0313,510.3906 L1105.0313,512.5469 Q1104.625,512.7031 1104.2344,512.8281 Q1103.8438,512.9375 1103.4375,513.0156 Q1103.0313,513.0938 1102.6094,513.125 Q1102.1875,513.1719 1101.6875,513.1719 Q1100.2813,513.1719 1099.25,512.7188 Q1098.2344,512.2656 1097.5625,511.4531 Q1096.8906,510.6406 1096.5625,509.5 Q1096.2344,508.3438 1096.2344,506.9531 Q1096.2344,505.5781 1096.6094,504.4219 Q1096.9844,503.2656 1097.7031,502.4375 Q1098.4219,501.6094 1099.4844,501.1563 Q1100.5469,500.6875 1101.9375,500.6875 Q1102.8438,500.6875 1103.75,500.9219 Q1104.6563,501.1406 1105.4844,501.5469 L1104.6563,503.6406 Q1103.9688,503.3125 1103.2813,503.0781 Q1102.5938,502.8281 1101.9375,502.8281 Z " fill="#000000"/><text fill="#000000" font-family="sans-serif" font-size="14" lengthAdjust="spacing" textLength="124" x="1116" y="511.8467">ParametricFunction</text></g><!--class Access--><g id="elem_Access"><rect codeLine="55" fill="#CCFFFF" height="32" id="Access" rx="2.5" ry="2.5" style="stroke:#A9A9A9;stroke-width:0.5;" width="73" x="480.5" y="99"/><ellipse cx="495.5" cy="115" fill="#FFFFFF" rx="11" ry="11" style="stroke:#181818;stroke-width:1.0;"/><path d="M495.4375,110.8281 Q494.6875,110.8281 494.125,111.125 Q493.5625,111.4063 493.1719,111.9375 Q492.7813,112.4688 492.5781,113.25 Q492.3906,114.0156 492.3906,114.9688 Q492.3906,115.9375 492.5625,116.7031 Q492.75,117.4531 493.1094,117.9688 Q493.4844,118.4844 494.0625,118.7656 Q494.6406,119.0313 495.4375,119.0313 Q496.1719,119.0313 496.9063,118.8594 Q497.6563,118.6875 498.5313,118.3906 L498.5313,120.5469 Q498.125,120.7031 497.7344,120.8281 Q497.3438,120.9375 496.9375,121.0156 Q496.5313,121.0938 496.1094,121.125 Q495.6875,121.1719 495.1875,121.1719 Q493.7813,121.1719 492.75,120.7188 Q491.7344,120.2656 491.0625,119.4531 Q490.3906,118.6406 490.0625,117.5 Q489.7344,116.3438 489.7344,114.9531 Q489.7344,113.5781 490.1094,112.4219 Q490.4844,111.2656 491.2031,110.4375 Q491.9219,109.6094 492.9844,109.1563 Q494.0469,108.6875 495.4375,108.6875 Q496.3438,108.6875 497.25,108.9219 Q498.1563,109.1406 498.9844,109.5469 L498.1563,111.6406 Q497.4688,111.3125 496.7813,111.0781 Q496.0938,110.8281 495.4375,110.8281 Z " fill="#000000"/><text fill="#000000" font-family="sans-serif" font-size="14" lengthAdjust="spacing" textLength="41" x="509.5" y="119.8467">Access</text></g><!--class Alias--><g id="elem_Alias"><rect codeLine="57" fill="#CCFFFF" height="32" id="Alias" rx="2.5" ry="2.5" style="stroke:#A9A9A9;stroke-width:0.5;" width="62" x="628" y="295"/><ellipse cx="643" cy="311" fill="#FFFFFF" rx="11" ry="11" style="stroke:#181818;stroke-width:1.0;"/><path d="M642.9375,306.8281 Q642.1875,306.8281 641.625,307.125 Q641.0625,307.4063 640.6719,307.9375 Q640.2813,308.4688 640.0781,309.25 Q639.8906,310.0156 639.8906,310.9688 Q639.8906,311.9375 640.0625,312.7031 Q640.25,313.4531 640.6094,313.9688 Q640.9844,314.4844 641.5625,314.7656 Q642.1406,315.0313 642.9375,315.0313 Q643.6719,315.0313 644.4063,314.8594 Q645.1563,314.6875 646.0313,314.3906 L646.0313,316.5469 Q645.625,316.7031 645.2344,316.8281 Q644.8438,316.9375 644.4375,317.0156 Q644.0313,317.0938 643.6094,317.125 Q643.1875,317.1719 642.6875,317.1719 Q641.2813,317.1719 640.25,316.7188 Q639.2344,316.2656 638.5625,315.4531 Q637.8906,314.6406 637.5625,313.5 Q637.2344,312.3438 637.2344,310.9531 Q637.2344,309.5781 637.6094,308.4219 Q637.9844,307.2656 638.7031,306.4375 Q639.4219,305.6094 640.4844,305.1563 Q641.5469,304.6875 642.9375,304.6875 Q643.8438,304.6875 644.75,304.9219 Q645.6563,305.1406 646.4844,305.5469 L645.6563,307.6406 Q644.9688,307.3125 644.2813,307.0781 Q643.5938,306.8281 642.9375,306.8281 Z " fill="#000000"/><text fill="#000000" font-family="sans-serif" font-size="14" lengthAdjust="spacing" textLength="30" x="657" y="315.8467">Alias</text></g><!--class TWithInterfaces--><g id="elem_TWithInterfaces"><rect codeLine="59" fill="#CCFFFF" height="32" id="TWithInterfaces" rx="2.5" ry="2.5" style="stroke:#A9A9A9;stroke-width:0.5;" width="132" x="1246" y="191"/><ellipse cx="1261" cy="207" fill="#FFFFFF" rx="11" ry="11" style="stroke:#181818;stroke-width:1.0;"/><path d="M1262.4531,213.75 L1259.8906,213.75 L1259.8906,203.75 L1256.8438,203.75 L1256.8438,201.6094 L1265.4844,201.6094 L1265.4844,203.75 L1262.4531,203.75 L1262.4531,213.75 Z " fill="#000000"/><text fill="#000000" font-family="sans-serif" font-size="14" lengthAdjust="spacing" textLength="100" x="1275" y="211.8467">TWithInterfaces</text></g><!--class ParametricMethod--><g id="elem_ParametricMethod"><rect codeLine="61" fill="#CCFFFF" height="32" id="ParametricMethod" rx="2.5" ry="2.5" style="stroke:#A9A9A9;stroke-width:0.5;" width="151" x="900.5" y="491"/><ellipse cx="915.5" cy="507" fill="#FFFFFF" rx="11" ry="11" style="stroke:#181818;stroke-width:1.0;"/><path d="M915.4375,502.8281 Q914.6875,502.8281 914.125,503.125 Q913.5625,503.4063 913.1719,503.9375 Q912.7813,504.4688 912.5781,505.25 Q912.3906,506.0156 912.3906,506.9688 Q912.3906,507.9375 912.5625,508.7031 Q912.75,509.4531 913.1094,509.9688 Q913.4844,510.4844 914.0625,510.7656 Q914.6406,511.0313 915.4375,511.0313 Q916.1719,511.0313 916.9063,510.8594 Q917.6563,510.6875 918.5313,510.3906 L918.5313,512.5469 Q918.125,512.7031 917.7344,512.8281 Q917.3438,512.9375 916.9375,513.0156 Q916.5313,513.0938 916.1094,513.125 Q915.6875,513.1719 915.1875,513.1719 Q913.7813,513.1719 912.75,512.7188 Q911.7344,512.2656 911.0625,511.4531 Q910.3906,510.6406 910.0625,509.5 Q909.7344,508.3438 909.7344,506.9531 Q909.7344,505.5781 910.1094,504.4219 Q910.4844,503.2656 911.2031,502.4375 Q911.9219,501.6094 912.9844,501.1563 Q914.0469,500.6875 915.4375,500.6875 Q916.3438,500.6875 917.25,500.9219 Q918.1563,501.1406 918.9844,501.5469 L918.1563,503.6406 Q917.4688,503.3125 916.7813,503.0781 Q916.0938,502.8281 915.4375,502.8281 Z " fill="#000000"/><text fill="#000000" font-family="sans-serif" font-size="14" lengthAdjust="spacing" textLength="119" x="929.5" y="511.8467">ParametricMethod</text></g><!--class Class--><g id="elem_Class"><rect codeLine="63" fill="#CCFFFF" height="32" id="Class" rx="2.5" ry="2.5" style="stroke:#A9A9A9;stroke-width:0.5;" width="63" x="1393.5" y="491"/><ellipse cx="1408.5" cy="507" fill="#FFFFFF" rx="11" ry="11" style="stroke:#181818;stroke-width:1.0;"/><path d="M1408.4375,502.8281 Q1407.6875,502.8281 1407.125,503.125 Q1406.5625,503.4063 1406.1719,503.9375 Q1405.7813,504.4688 1405.5781,505.25 Q1405.3906,506.0156 1405.3906,506.9688 Q1405.3906,507.9375 1405.5625,508.7031 Q1405.75,509.4531 1406.1094,509.9688 Q1406.4844,510.4844 1407.0625,510.7656 Q1407.6406,511.0313 1408.4375,511.0313 Q1409.1719,511.0313 1409.9063,510.8594 Q1410.6563,510.6875 1411.5313,510.3906 L1411.5313,512.5469 Q1411.125,512.7031 1410.7344,512.8281 Q1410.3438,512.9375 1409.9375,513.0156 Q1409.5313,513.0938 1409.1094,513.125 Q1408.6875,513.1719 1408.1875,513.1719 Q1406.7813,513.1719 1405.75,512.7188 Q1404.7344,512.2656 1404.0625,511.4531 Q1403.3906,510.6406 1403.0625,509.5 Q1402.7344,508.3438 1402.7344,506.9531 Q1402.7344,505.5781 1403.1094,504.4219 Q1403.4844,503.2656 1404.2031,502.4375 Q1404.9219,501.6094 1405.9844,501.1563 Q1407.0469,500.6875 1408.4375,500.6875 Q1409.3438,500.6875 1410.25,500.9219 Q1411.1563,501.1406 1411.9844,501.5469 L1411.1563,503.6406 Q1410.4688,503.3125 1409.7813,503.0781 Q1409.0938,502.8281 1408.4375,502.8281 Z " fill="#000000"/><text fill="#000000" font-family="sans-serif" font-size="14" lengthAdjust="spacing" textLength="31" x="1422.5" y="511.8467">Class</text></g><!--class implicitVariable--><g id="elem_implicitVariable"><rect codeLine="65" fill="#CCFFFF" height="32" id="implicitVariable" rx="2.5" ry="2.5" style="stroke:#A9A9A9;stroke-width:0.5;" width="132" x="253" y="399"/><ellipse cx="268" cy="415" fill="#FFFFFF" rx="11" ry="11" style="stroke:#181818;stroke-width:1.0;"/><path d="M267.9375,410.8281 Q267.1875,410.8281 266.625,411.125 Q266.0625,411.4063 265.6719,411.9375 Q265.2813,412.4688 265.0781,413.25 Q264.8906,414.0156 264.8906,414.9688 Q264.8906,415.9375 265.0625,416.7031 Q265.25,417.4531 265.6094,417.9688 Q265.9844,418.4844 266.5625,418.7656 Q267.1406,419.0313 267.9375,419.0313 Q268.6719,419.0313 269.4063,418.8594 Q270.1563,418.6875 271.0313,418.3906 L271.0313,420.5469 Q270.625,420.7031 270.2344,420.8281 Q269.8438,420.9375 269.4375,421.0156 Q269.0313,421.0938 268.6094,421.125 Q268.1875,421.1719 267.6875,421.1719 Q266.2813,421.1719 265.25,420.7188 Q264.2344,420.2656 263.5625,419.4531 Q262.8906,418.6406 262.5625,417.5 Q262.2344,416.3438 262.2344,414.9531 Q262.2344,413.5781 262.6094,412.4219 Q262.9844,411.2656 263.7031,410.4375 Q264.4219,409.6094 265.4844,409.1563 Q266.5469,408.6875 267.9375,408.6875 Q268.8438,408.6875 269.75,408.9219 Q270.6563,409.1406 271.4844,409.5469 L270.6563,411.6406 Q269.9688,411.3125 269.2813,411.0781 Q268.5938,410.8281 267.9375,410.8281 Z " fill="#000000"/><text fill="#000000" font-family="sans-serif" font-size="14" lengthAdjust="spacing" textLength="100" x="282" y="419.8467">implicitVariable</text></g><!--class Reference--><g id="elem_Reference"><rect codeLine="67" fill="#CCFFFF" height="32" id="Reference" rx="2.5" ry="2.5" style="stroke:#A9A9A9;stroke-width:0.5;" width="97" x="588.5" y="99"/><ellipse cx="603.5" cy="115" fill="#FFFFFF" rx="11" ry="11" style="stroke:#181818;stroke-width:1.0;"/><path d="M603.4375,110.8281 Q602.6875,110.8281 602.125,111.125 Q601.5625,111.4063 601.1719,111.9375 Q600.7813,112.4688 600.5781,113.25 Q600.3906,114.0156 600.3906,114.9688 Q600.3906,115.9375 600.5625,116.7031 Q600.75,117.4531 601.1094,117.9688 Q601.4844,118.4844 602.0625,118.7656 Q602.6406,119.0313 603.4375,119.0313 Q604.1719,119.0313 604.9063,118.8594 Q605.6563,118.6875 606.5313,118.3906 L606.5313,120.5469 Q606.125,120.7031 605.7344,120.8281 Q605.3438,120.9375 604.9375,121.0156 Q604.5313,121.0938 604.1094,121.125 Q603.6875,121.1719 603.1875,121.1719 Q601.7813,121.1719 600.75,120.7188 Q599.7344,120.2656 599.0625,119.4531 Q598.3906,118.6406 598.0625,117.5 Q597.7344,116.3438 597.7344,114.9531 Q597.7344,113.5781 598.1094,112.4219 Q598.4844,111.2656 599.2031,110.4375 Q599.9219,109.6094 600.9844,109.1563 Q602.0469,108.6875 603.4375,108.6875 Q604.3438,108.6875 605.25,108.9219 Q606.1563,109.1406 606.9844,109.5469 L606.1563,111.6406 Q605.4688,111.3125 604.7813,111.0781 Q604.0938,110.8281 603.4375,110.8281 Z " fill="#000000"/><text fill="#000000" font-family="sans-serif" font-size="14" lengthAdjust="spacing" textLength="65" x="617.5" y="119.8467">Reference</text></g><!--class Function--><g id="elem_Function"><rect codeLine="69" fill="#CCFFFF" height="32" id="Function" rx="2.5" ry="2.5" style="stroke:#A9A9A9;stroke-width:0.5;" width="86" x="1128" y="399"/><ellipse cx="1143" cy="415" fill="#FFFFFF" rx="11" ry="11" style="stroke:#181818;stroke-width:1.0;"/><path d="M1142.9375,410.8281 Q1142.1875,410.8281 1141.625,411.125 Q1141.0625,411.4063 1140.6719,411.9375 Q1140.2813,412.4688 1140.0781,413.25 Q1139.8906,414.0156 1139.8906,414.9688 Q1139.8906,415.9375 1140.0625,416.7031 Q1140.25,417.4531 1140.6094,417.9688 Q1140.9844,418.4844 1141.5625,418.7656 Q1142.1406,419.0313 1142.9375,419.0313 Q1143.6719,419.0313 1144.4063,418.8594 Q1145.1563,418.6875 1146.0313,418.3906 L1146.0313,420.5469 Q1145.625,420.7031 1145.2344,420.8281 Q1144.8438,420.9375 1144.4375,421.0156 Q1144.0313,421.0938 1143.6094,421.125 Q1143.1875,421.1719 1142.6875,421.1719 Q1141.2813,421.1719 1140.25,420.7188 Q1139.2344,420.2656 1138.5625,419.4531 Q1137.8906,418.6406 1137.5625,417.5 Q1137.2344,416.3438 1137.2344,414.9531 Q1137.2344,413.5781 1137.6094,412.4219 Q1137.9844,411.2656 1138.7031,410.4375 Q1139.4219,409.6094 1140.4844,409.1563 Q1141.5469,408.6875 1142.9375,408.6875 Q1143.8438,408.6875 1144.75,408.9219 Q1145.6563,409.1406 1146.4844,409.5469 L1145.6563,411.6406 Q1144.9688,411.3125 1144.2813,411.0781 Q1143.5938,410.8281 1142.9375,410.8281 Z " fill="#000000"/><text fill="#000000" font-family="sans-serif" font-size="14" lengthAdjust="spacing" textLength="54" x="1157" y="419.8467">Function</text></g><!--class SourcedEntity--><g id="elem_SourcedEntity"><rect codeLine="71" fill="#CCFFFF" height="32" id="SourcedEntity" rx="2.5" ry="2.5" style="stroke:#A9A9A9;stroke-width:0.5;" width="119" x="720.5" y="99"/><ellipse cx="735.5" cy="115" fill="#FFFFFF" rx="11" ry="11" style="stroke:#181818;stroke-width:1.0;"/><path d="M735.4375,110.8281 Q734.6875,110.8281 734.125,111.125 Q733.5625,111.4063 733.1719,111.9375 Q732.7813,112.4688 732.5781,113.25 Q732.3906,114.0156 732.3906,114.9688 Q732.3906,115.9375 732.5625,116.7031 Q732.75,117.4531 733.1094,117.9688 Q733.4844,118.4844 734.0625,118.7656 Q734.6406,119.0313 735.4375,119.0313 Q736.1719,119.0313 736.9063,118.8594 Q737.6563,118.6875 738.5313,118.3906 L738.5313,120.5469 Q738.125,120.7031 737.7344,120.8281 Q737.3438,120.9375 736.9375,121.0156 Q736.5313,121.0938 736.1094,121.125 Q735.6875,121.1719 735.1875,121.1719 Q733.7813,121.1719 732.75,120.7188 Q731.7344,120.2656 731.0625,119.4531 Q730.3906,118.6406 730.0625,117.5 Q729.7344,116.3438 729.7344,114.9531 Q729.7344,113.5781 730.1094,112.4219 Q730.4844,111.2656 731.2031,110.4375 Q731.9219,109.6094 732.9844,109.1563 Q734.0469,108.6875 735.4375,108.6875 Q736.3438,108.6875 737.25,108.9219 Q738.1563,109.1406 738.9844,109.5469 L738.1563,111.6406 Q737.4688,111.3125 736.7813,111.0781 Q736.0938,110.8281 735.4375,110.8281 Z " fill="#000000"/><text fill="#000000" font-family="sans-serif" font-size="14" lengthAdjust="spacing" textLength="87" x="749.5" y="119.8467">SourcedEntity</text></g><!--class ScriptEntity--><g id="elem_ScriptEntity"><rect codeLine="73" fill="#CCFFFF" height="32" id="ScriptEntity" rx="2.5" ry="2.5" style="stroke:#A9A9A9;stroke-width:0.5;" width="104" x="1260" y="399"/><ellipse cx="1275" cy="415" fill="#FFFFFF" rx="11" ry="11" style="stroke:#181818;stroke-width:1.0;"/><path d="M1274.9375,410.8281 Q1274.1875,410.8281 1273.625,411.125 Q1273.0625,411.4063 1272.6719,411.9375 Q1272.2813,412.4688 1272.0781,413.25 Q1271.8906,414.0156 1271.8906,414.9688 Q1271.8906,415.9375 1272.0625,416.7031 Q1272.25,417.4531 1272.6094,417.9688 Q1272.9844,418.4844 1273.5625,418.7656 Q1274.1406,419.0313 1274.9375,419.0313 Q1275.6719,419.0313 1276.4063,418.8594 Q1277.1563,418.6875 1278.0313,418.3906 L1278.0313,420.5469 Q1277.625,420.7031 1277.2344,420.8281 Q1276.8438,420.9375 1276.4375,421.0156 Q1276.0313,421.0938 1275.6094,421.125 Q1275.1875,421.1719 1274.6875,421.1719 Q1273.2813,421.1719 1272.25,420.7188 Q1271.2344,420.2656 1270.5625,419.4531 Q1269.8906,418.6406 1269.5625,417.5 Q1269.2344,416.3438 1269.2344,414.9531 Q1269.2344,413.5781 1269.6094,412.4219 Q1269.9844,411.2656 1270.7031,410.4375 Q1271.4219,409.6094 1272.4844,409.1563 Q1273.5469,408.6875 1274.9375,408.6875 Q1275.8438,408.6875 1276.75,408.9219 Q1277.6563,409.1406 1278.4844,409.5469 L1277.6563,411.6406 Q1276.9688,411.3125 1276.2813,411.0781 Q1275.5938,410.8281 1274.9375,410.8281 Z " fill="#000000"/><text fill="#000000" font-family="sans-serif" font-size="14" lengthAdjust="spacing" textLength="72" x="1289" y="419.8467">ScriptEntity</text></g><!--class Decorator--><g id="elem_Decorator"><rect codeLine="75" fill="#CCFFFF" height="56.2969" id="Decorator" rx="2.5" ry="2.5" style="stroke:#A9A9A9;stroke-width:0.5;" width="122" x="1090" y="283"/><ellipse cx="1116.7" cy="299" fill="#FFFFFF" rx="11" ry="11" style="stroke:#181818;stroke-width:1.0;"/><path d="M1116.6375,294.8281 Q1115.8875,294.8281 1115.325,295.125 Q1114.7625,295.4063 1114.3719,295.9375 Q1113.9813,296.4688 1113.7781,297.25 Q1113.5906,298.0156 1113.5906,298.9688 Q1113.5906,299.9375 1113.7625,300.7031 Q1113.95,301.4531 1114.3094,301.9688 Q1114.6844,302.4844 1115.2625,302.7656 Q1115.8406,303.0313 1116.6375,303.0313 Q1117.3719,303.0313 1118.1063,302.8594 Q1118.8563,302.6875 1119.7313,302.3906 L1119.7313,304.5469 Q1119.325,304.7031 1118.9344,304.8281 Q1118.5438,304.9375 1118.1375,305.0156 Q1117.7313,305.0938 1117.3094,305.125 Q1116.8875,305.1719 1116.3875,305.1719 Q1114.9813,305.1719 1113.95,304.7188 Q1112.9344,304.2656 1112.2625,303.4531 Q1111.5906,302.6406 1111.2625,301.5 Q1110.9344,300.3438 1110.9344,298.9531 Q1110.9344,297.5781 1111.3094,296.4219 Q1111.6844,295.2656 1112.4031,294.4375 Q1113.1219,293.6094 1114.1844,293.1563 Q1115.2469,292.6875 1116.6375,292.6875 Q1117.5438,292.6875 1118.45,292.9219 Q1119.3563,293.1406 1120.1844,293.5469 L1119.3563,295.6406 Q1118.6688,295.3125 1117.9813,295.0781 Q1117.2938,294.8281 1116.6375,294.8281 Z " fill="#000000"/><text fill="#000000" font-family="sans-serif" font-size="14" lengthAdjust="spacing" textLength="64" x="1133.3" y="303.8467">Decorator</text><line style="stroke:#A9A9A9;stroke-width:0.5;" x1="1091" x2="1211" y1="315" y2="315"/><text fill="#000000" font-family="sans-serif" font-size="14" lengthAdjust="spacing" textLength="110" x="1096" y="331.9951">String expression</text></g><!--class SourceAnchor--><g id="elem_SourceAnchor"><rect codeLine="78" fill="#CCFFFF" height="32" id="SourceAnchor" rx="2.5" ry="2.5" style="stroke:#A9A9A9;stroke-width:0.5;" width="120" x="875" y="99"/><ellipse cx="890" cy="115" fill="#FFFFFF" rx="11" ry="11" style="stroke:#181818;stroke-width:1.0;"/><path d="M889.9375,110.8281 Q889.1875,110.8281 888.625,111.125 Q888.0625,111.4063 887.6719,111.9375 Q887.2813,112.4688 887.0781,113.25 Q886.8906,114.0156 886.8906,114.9688 Q886.8906,115.9375 887.0625,116.7031 Q887.25,117.4531 887.6094,117.9688 Q887.9844,118.4844 888.5625,118.7656 Q889.1406,119.0313 889.9375,119.0313 Q890.6719,119.0313 891.4063,118.8594 Q892.1563,118.6875 893.0313,118.3906 L893.0313,120.5469 Q892.625,120.7031 892.2344,120.8281 Q891.8438,120.9375 891.4375,121.0156 Q891.0313,121.0938 890.6094,121.125 Q890.1875,121.1719 889.6875,121.1719 Q888.2813,121.1719 887.25,120.7188 Q886.2344,120.2656 885.5625,119.4531 Q884.8906,118.6406 884.5625,117.5 Q884.2344,116.3438 884.2344,114.9531 Q884.2344,113.5781 884.6094,112.4219 Q884.9844,111.2656 885.7031,110.4375 Q886.4219,109.6094 887.4844,109.1563 Q888.5469,108.6875 889.9375,108.6875 Q890.8438,108.6875 891.75,108.9219 Q892.6563,109.1406 893.4844,109.5469 L892.6563,111.6406 Q891.9688,111.3125 891.2813,111.0781 Q890.5938,110.8281 889.9375,110.8281 Z " fill="#000000"/><text fill="#000000" font-family="sans-serif" font-size="14" lengthAdjust="spacing" textLength="88" x="904" y="119.8467">SourceAnchor</text></g><!--class Module--><g id="elem_Module"><rect codeLine="80" fill="#CCFFFF" height="32" id="Module" rx="2.5" ry="2.5" style="stroke:#A9A9A9;stroke-width:0.5;" width="80" x="1278" y="491"/><ellipse cx="1293" cy="507" fill="#FFFFFF" rx="11" ry="11" style="stroke:#181818;stroke-width:1.0;"/><path d="M1292.9375,502.8281 Q1292.1875,502.8281 1291.625,503.125 Q1291.0625,503.4063 1290.6719,503.9375 Q1290.2813,504.4688 1290.0781,505.25 Q1289.8906,506.0156 1289.8906,506.9688 Q1289.8906,507.9375 1290.0625,508.7031 Q1290.25,509.4531 1290.6094,509.9688 Q1290.9844,510.4844 1291.5625,510.7656 Q1292.1406,511.0313 1292.9375,511.0313 Q1293.6719,511.0313 1294.4063,510.8594 Q1295.1563,510.6875 1296.0313,510.3906 L1296.0313,512.5469 Q1295.625,512.7031 1295.2344,512.8281 Q1294.8438,512.9375 1294.4375,513.0156 Q1294.0313,513.0938 1293.6094,513.125 Q1293.1875,513.1719 1292.6875,513.1719 Q1291.2813,513.1719 1290.25,512.7188 Q1289.2344,512.2656 1288.5625,511.4531 Q1287.8906,510.6406 1287.5625,509.5 Q1287.2344,508.3438 1287.2344,506.9531 Q1287.2344,505.5781 1287.6094,504.4219 Q1287.9844,503.2656 1288.7031,502.4375 Q1289.4219,501.6094 1290.4844,501.1563 Q1291.5469,500.6875 1292.9375,500.6875 Q1293.8438,500.6875 1294.75,500.9219 Q1295.6563,501.1406 1296.4844,501.5469 L1295.6563,503.6406 Q1294.9688,503.3125 1294.2813,503.0781 Q1293.5938,502.8281 1292.9375,502.8281 Z " fill="#000000"/><text fill="#000000" font-family="sans-serif" font-size="14" lengthAdjust="spacing" textLength="48" x="1307" y="511.8467">Module</text></g><!--class EnumValue--><g id="elem_EnumValue"><rect codeLine="82" fill="#CCFFFF" height="32" id="EnumValue" rx="2.5" ry="2.5" style="stroke:#A9A9A9;stroke-width:0.5;" width="103" x="725.5" y="295"/><ellipse cx="740.5" cy="311" fill="#FFFFFF" rx="11" ry="11" style="stroke:#181818;stroke-width:1.0;"/><path d="M740.4375,306.8281 Q739.6875,306.8281 739.125,307.125 Q738.5625,307.4063 738.1719,307.9375 Q737.7813,308.4688 737.5781,309.25 Q737.3906,310.0156 737.3906,310.9688 Q737.3906,311.9375 737.5625,312.7031 Q737.75,313.4531 738.1094,313.9688 Q738.4844,314.4844 739.0625,314.7656 Q739.6406,315.0313 740.4375,315.0313 Q741.1719,315.0313 741.9063,314.8594 Q742.6563,314.6875 743.5313,314.3906 L743.5313,316.5469 Q743.125,316.7031 742.7344,316.8281 Q742.3438,316.9375 741.9375,317.0156 Q741.5313,317.0938 741.1094,317.125 Q740.6875,317.1719 740.1875,317.1719 Q738.7813,317.1719 737.75,316.7188 Q736.7344,316.2656 736.0625,315.4531 Q735.3906,314.6406 735.0625,313.5 Q734.7344,312.3438 734.7344,310.9531 Q734.7344,309.5781 735.1094,308.4219 Q735.4844,307.2656 736.2031,306.4375 Q736.9219,305.6094 737.9844,305.1563 Q739.0469,304.6875 740.4375,304.6875 Q741.3438,304.6875 742.25,304.9219 Q743.1563,305.1406 743.9844,305.5469 L743.1563,307.6406 Q742.4688,307.3125 741.7813,307.0781 Q741.0938,306.8281 740.4375,306.8281 Z " fill="#000000"/><text fill="#000000" font-family="sans-serif" font-size="14" lengthAdjust="spacing" textLength="71" x="754.5" y="315.8467">EnumValue</text></g><!--class Inheritance--><g id="elem_Inheritance"><rect codeLine="84" fill="#CCFFFF" height="32" id="Inheritance" rx="2.5" ry="2.5" style="stroke:#A9A9A9;stroke-width:0.5;" width="105" x="1030.5" y="99"/><ellipse cx="1045.5" cy="115" fill="#FFFFFF" rx="11" ry="11" style="stroke:#181818;stroke-width:1.0;"/><path d="M1045.4375,110.8281 Q1044.6875,110.8281 1044.125,111.125 Q1043.5625,111.4063 1043.1719,111.9375 Q1042.7813,112.4688 1042.5781,113.25 Q1042.3906,114.0156 1042.3906,114.9688 Q1042.3906,115.9375 1042.5625,116.7031 Q1042.75,117.4531 1043.1094,117.9688 Q1043.4844,118.4844 1044.0625,118.7656 Q1044.6406,119.0313 1045.4375,119.0313 Q1046.1719,119.0313 1046.9063,118.8594 Q1047.6563,118.6875 1048.5313,118.3906 L1048.5313,120.5469 Q1048.125,120.7031 1047.7344,120.8281 Q1047.3438,120.9375 1046.9375,121.0156 Q1046.5313,121.0938 1046.1094,121.125 Q1045.6875,121.1719 1045.1875,121.1719 Q1043.7813,121.1719 1042.75,120.7188 Q1041.7344,120.2656 1041.0625,119.4531 Q1040.3906,118.6406 1040.0625,117.5 Q1039.7344,116.3438 1039.7344,114.9531 Q1039.7344,113.5781 1040.1094,112.4219 Q1040.4844,111.2656 1041.2031,110.4375 Q1041.9219,109.6094 1042.9844,109.1563 Q1044.0469,108.6875 1045.4375,108.6875 Q1046.3438,108.6875 1047.25,108.9219 Q1048.1563,109.1406 1048.9844,109.5469 L1048.1563,111.6406 Q1047.4688,111.3125 1046.7813,111.0781 Q1046.0938,110.8281 1045.4375,110.8281 Z " fill="#000000"/><text fill="#000000" font-family="sans-serif" font-size="14" lengthAdjust="spacing" textLength="73" x="1059.5" y="119.8467">Inheritance</text></g><!--class JSDoc--><g id="elem_JSDoc"><rect codeLine="86" fill="#CCFFFF" height="32" id="JSDoc" rx="2.5" ry="2.5" style="stroke:#A9A9A9;stroke-width:0.5;" width="67" x="620.5" y="191"/><ellipse cx="635.5" cy="207" fill="#FFFFFF" rx="11" ry="11" style="stroke:#181818;stroke-width:1.0;"/><path d="M635.4375,202.8281 Q634.6875,202.8281 634.125,203.125 Q633.5625,203.4063 633.1719,203.9375 Q632.7813,204.4688 632.5781,205.25 Q632.3906,206.0156 632.3906,206.9688 Q632.3906,207.9375 632.5625,208.7031 Q632.75,209.4531 633.1094,209.9688 Q633.4844,210.4844 634.0625,210.7656 Q634.6406,211.0313 635.4375,211.0313 Q636.1719,211.0313 636.9063,210.8594 Q637.6563,210.6875 638.5313,210.3906 L638.5313,212.5469 Q638.125,212.7031 637.7344,212.8281 Q637.3438,212.9375 636.9375,213.0156 Q636.5313,213.0938 636.1094,213.125 Q635.6875,213.1719 635.1875,213.1719 Q633.7813,213.1719 632.75,212.7188 Q631.7344,212.2656 631.0625,211.4531 Q630.3906,210.6406 630.0625,209.5 Q629.7344,208.3438 629.7344,206.9531 Q629.7344,205.5781 630.1094,204.4219 Q630.4844,203.2656 631.2031,202.4375 Q631.9219,201.6094 632.9844,201.1563 Q634.0469,200.6875 635.4375,200.6875 Q636.3438,200.6875 637.25,200.9219 Q638.1563,201.1406 638.9844,201.5469 L638.1563,203.6406 Q637.4688,203.3125 636.7813,203.0781 Q636.0938,202.8281 635.4375,202.8281 Z " fill="#000000"/><text fill="#000000" font-family="sans-serif" font-size="14" lengthAdjust="spacing" textLength="35" x="649.5" y="211.8467">JSDoc</text></g><!--class Import--><g id="elem_Import"><rect codeLine="88" fill="#CCFFFF" height="32" id="Import" rx="2.5" ry="2.5" style="stroke:#A9A9A9;stroke-width:0.5;" width="77" x="1170.5" y="99"/><ellipse cx="1185.5" cy="115" fill="#FFFFFF" rx="11" ry="11" style="stroke:#181818;stroke-width:1.0;"/><path d="M1185.4375,110.8281 Q1184.6875,110.8281 1184.125,111.125 Q1183.5625,111.4063 1183.1719,111.9375 Q1182.7813,112.4688 1182.5781,113.25 Q1182.3906,114.0156 1182.3906,114.9688 Q1182.3906,115.9375 1182.5625,116.7031 Q1182.75,117.4531 1183.1094,117.9688 Q1183.4844,118.4844 1184.0625,118.7656 Q1184.6406,119.0313 1185.4375,119.0313 Q1186.1719,119.0313 1186.9063,118.8594 Q1187.6563,118.6875 1188.5313,118.3906 L1188.5313,120.5469 Q1188.125,120.7031 1187.7344,120.8281 Q1187.3438,120.9375 1186.9375,121.0156 Q1186.5313,121.0938 1186.1094,121.125 Q1185.6875,121.1719 1185.1875,121.1719 Q1183.7813,121.1719 1182.75,120.7188 Q1181.7344,120.2656 1181.0625,119.4531 Q1180.3906,118.6406 1180.0625,117.5 Q1179.7344,116.3438 1179.7344,114.9531 Q1179.7344,113.5781 1180.1094,112.4219 Q1180.4844,111.2656 1181.2031,110.4375 Q1181.9219,109.6094 1182.9844,109.1563 Q1184.0469,108.6875 1185.4375,108.6875 Q1186.3438,108.6875 1187.25,108.9219 Q1188.1563,109.1406 1188.9844,109.5469 L1188.1563,111.6406 Q1187.4688,111.3125 1186.7813,111.0781 Q1186.0938,110.8281 1185.4375,110.8281 Z " fill="#000000"/><text fill="#000000" font-family="sans-serif" font-size="14" lengthAdjust="spacing" textLength="45" x="1199.5" y="119.8467">Import</text></g><!--class ParameterConcretization--><g id="elem_ParameterConcretization"><rect codeLine="90" fill="#CCFFFF" height="32" id="ParameterConcretization" rx="2.5" ry="2.5" style="stroke:#A9A9A9;stroke-width:0.5;" width="191" x="1282.5" y="99"/><ellipse cx="1297.5" cy="115" fill="#FFFFFF" rx="11" ry="11" style="stroke:#181818;stroke-width:1.0;"/><path d="M1297.4375,110.8281 Q1296.6875,110.8281 1296.125,111.125 Q1295.5625,111.4063 1295.1719,111.9375 Q1294.7813,112.4688 1294.5781,113.25 Q1294.3906,114.0156 1294.3906,114.9688 Q1294.3906,115.9375 1294.5625,116.7031 Q1294.75,117.4531 1295.1094,117.9688 Q1295.4844,118.4844 1296.0625,118.7656 Q1296.6406,119.0313 1297.4375,119.0313 Q1298.1719,119.0313 1298.9063,118.8594 Q1299.6563,118.6875 1300.5313,118.3906 L1300.5313,120.5469 Q1300.125,120.7031 1299.7344,120.8281 Q1299.3438,120.9375 1298.9375,121.0156 Q1298.5313,121.0938 1298.1094,121.125 Q1297.6875,121.1719 1297.1875,121.1719 Q1295.7813,121.1719 1294.75,120.7188 Q1293.7344,120.2656 1293.0625,119.4531 Q1292.3906,118.6406 1292.0625,117.5 Q1291.7344,116.3438 1291.7344,114.9531 Q1291.7344,113.5781 1292.1094,112.4219 Q1292.4844,111.2656 1293.2031,110.4375 Q1293.9219,109.6094 1294.9844,109.1563 Q1296.0469,108.6875 1297.4375,108.6875 Q1298.3438,108.6875 1299.25,108.9219 Q1300.1563,109.1406 1300.9844,109.5469 L1300.1563,111.6406 Q1299.4688,111.3125 1298.7813,111.0781 Q1298.0938,110.8281 1297.4375,110.8281 Z " fill="#000000"/><text fill="#000000" font-family="sans-serif" font-size="14" lengthAdjust="spacing" textLength="159" x="1311.5" y="119.8467">ParameterConcretization</text></g><!--class Parameter--><g id="elem_Parameter"><rect codeLine="92" fill="#CCFFFF" height="32" id="Parameter" rx="2.5" ry="2.5" style="stroke:#A9A9A9;stroke-width:0.5;" width="100" x="864" y="295"/><ellipse cx="879" cy="311" fill="#FFFFFF" rx="11" ry="11" style="stroke:#181818;stroke-width:1.0;"/><path d="M878.9375,306.8281 Q878.1875,306.8281 877.625,307.125 Q877.0625,307.4063 876.6719,307.9375 Q876.2813,308.4688 876.0781,309.25 Q875.8906,310.0156 875.8906,310.9688 Q875.8906,311.9375 876.0625,312.7031 Q876.25,313.4531 876.6094,313.9688 Q876.9844,314.4844 877.5625,314.7656 Q878.1406,315.0313 878.9375,315.0313 Q879.6719,315.0313 880.4063,314.8594 Q881.1563,314.6875 882.0313,314.3906 L882.0313,316.5469 Q881.625,316.7031 881.2344,316.8281 Q880.8438,316.9375 880.4375,317.0156 Q880.0313,317.0938 879.6094,317.125 Q879.1875,317.1719 878.6875,317.1719 Q877.2813,317.1719 876.25,316.7188 Q875.2344,316.2656 874.5625,315.4531 Q873.8906,314.6406 873.5625,313.5 Q873.2344,312.3438 873.2344,310.9531 Q873.2344,309.5781 873.6094,308.4219 Q873.9844,307.2656 874.7031,306.4375 Q875.4219,305.6094 876.4844,305.1563 Q877.5469,304.6875 878.9375,304.6875 Q879.8438,304.6875 880.75,304.9219 Q881.6563,305.1406 882.4844,305.5469 L881.6563,307.6406 Q880.9688,307.3125 880.2813,307.0781 Q879.5938,306.8281 878.9375,306.8281 Z " fill="#000000"/><text fill="#000000" font-family="sans-serif" font-size="14" lengthAdjust="spacing" textLength="68" x="893" y="315.8467">Parameter</text></g><!--class VariableStatement--><g id="elem_VariableStatement"><rect codeLine="94" fill="#CCFFFF" height="32" id="VariableStatement" rx="2.5" ry="2.5" style="stroke:#A9A9A9;stroke-width:0.5;" width="150" x="1916" y="491"/><ellipse cx="1931" cy="507" fill="#FFFFFF" rx="11" ry="11" style="stroke:#181818;stroke-width:1.0;"/><path d="M1930.9375,502.8281 Q1930.1875,502.8281 1929.625,503.125 Q1929.0625,503.4063 1928.6719,503.9375 Q1928.2813,504.4688 1928.0781,505.25 Q1927.8906,506.0156 1927.8906,506.9688 Q1927.8906,507.9375 1928.0625,508.7031 Q1928.25,509.4531 1928.6094,509.9688 Q1928.9844,510.4844 1929.5625,510.7656 Q1930.1406,511.0313 1930.9375,511.0313 Q1931.6719,511.0313 1932.4063,510.8594 Q1933.1563,510.6875 1934.0313,510.3906 L1934.0313,512.5469 Q1933.625,512.7031 1933.2344,512.8281 Q1932.8438,512.9375 1932.4375,513.0156 Q1932.0313,513.0938 1931.6094,513.125 Q1931.1875,513.1719 1930.6875,513.1719 Q1929.2813,513.1719 1928.25,512.7188 Q1927.2344,512.2656 1926.5625,511.4531 Q1925.8906,510.6406 1925.5625,509.5 Q1925.2344,508.3438 1925.2344,506.9531 Q1925.2344,505.5781 1925.6094,504.4219 Q1925.9844,503.2656 1926.7031,502.4375 Q1927.4219,501.6094 1928.4844,501.1563 Q1929.5469,500.6875 1930.9375,500.6875 Q1931.8438,500.6875 1932.75,500.9219 Q1933.6563,501.1406 1934.4844,501.5469 L1933.6563,503.6406 Q1932.9688,503.3125 1932.2813,503.0781 Q1931.5938,502.8281 1930.9375,502.8281 Z " fill="#000000"/><text fill="#000000" font-family="sans-serif" font-size="14" lengthAdjust="spacing" textLength="118" x="1945" y="511.8467">VariableStatement</text></g><!--class NamedEntity--><g id="elem_NamedEntity"><rect codeLine="96" fill="#CCFFFF" height="32" id="NamedEntity" rx="2.5" ry="2.5" style="stroke:#A9A9A9;stroke-width:0.5;" width="114" x="723" y="191"/><ellipse cx="738" cy="207" fill="#FFFFFF" rx="11" ry="11" style="stroke:#181818;stroke-width:1.0;"/><path d="M737.9375,202.8281 Q737.1875,202.8281 736.625,203.125 Q736.0625,203.4063 735.6719,203.9375 Q735.2813,204.4688 735.0781,205.25 Q734.8906,206.0156 734.8906,206.9688 Q734.8906,207.9375 735.0625,208.7031 Q735.25,209.4531 735.6094,209.9688 Q735.9844,210.4844 736.5625,210.7656 Q737.1406,211.0313 737.9375,211.0313 Q738.6719,211.0313 739.4063,210.8594 Q740.1563,210.6875 741.0313,210.3906 L741.0313,212.5469 Q740.625,212.7031 740.2344,212.8281 Q739.8438,212.9375 739.4375,213.0156 Q739.0313,213.0938 738.6094,213.125 Q738.1875,213.1719 737.6875,213.1719 Q736.2813,213.1719 735.25,212.7188 Q734.2344,212.2656 733.5625,211.4531 Q732.8906,210.6406 732.5625,209.5 Q732.2344,208.3438 732.2344,206.9531 Q732.2344,205.5781 732.6094,204.4219 Q732.9844,203.2656 733.7031,202.4375 Q734.4219,201.6094 735.4844,201.1563 Q736.5469,200.6875 737.9375,200.6875 Q738.8438,200.6875 739.75,200.9219 Q740.6563,201.1406 741.4844,201.5469 L740.6563,203.6406 Q739.9688,203.3125 739.2813,203.0781 Q738.5938,202.8281 737.9375,202.8281 Z " fill="#000000"/><text fill="#000000" font-family="sans-serif" font-size="14" lengthAdjust="spacing" textLength="82" x="752" y="211.8467">NamedEntity</text></g><!--class Concretization--><g id="elem_Concretization"><rect codeLine="98" fill="#CCFFFF" height="32" id="Concretization" rx="2.5" ry="2.5" style="stroke:#A9A9A9;stroke-width:0.5;" width="123" x="1508.5" y="99"/><ellipse cx="1523.5" cy="115" fill="#FFFFFF" rx="11" ry="11" style="stroke:#181818;stroke-width:1.0;"/><path d="M1523.4375,110.8281 Q1522.6875,110.8281 1522.125,111.125 Q1521.5625,111.4063 1521.1719,111.9375 Q1520.7813,112.4688 1520.5781,113.25 Q1520.3906,114.0156 1520.3906,114.9688 Q1520.3906,115.9375 1520.5625,116.7031 Q1520.75,117.4531 1521.1094,117.9688 Q1521.4844,118.4844 1522.0625,118.7656 Q1522.6406,119.0313 1523.4375,119.0313 Q1524.1719,119.0313 1524.9063,118.8594 Q1525.6563,118.6875 1526.5313,118.3906 L1526.5313,120.5469 Q1526.125,120.7031 1525.7344,120.8281 Q1525.3438,120.9375 1524.9375,121.0156 Q1524.5313,121.0938 1524.1094,121.125 Q1523.6875,121.1719 1523.1875,121.1719 Q1521.7813,121.1719 1520.75,120.7188 Q1519.7344,120.2656 1519.0625,119.4531 Q1518.3906,118.6406 1518.0625,117.5 Q1517.7344,116.3438 1517.7344,114.9531 Q1517.7344,113.5781 1518.1094,112.4219 Q1518.4844,111.2656 1519.2031,110.4375 Q1519.9219,109.6094 1520.9844,109.1563 Q1522.0469,108.6875 1523.4375,108.6875 Q1524.3438,108.6875 1525.25,108.9219 Q1526.1563,109.1406 1526.9844,109.5469 L1526.1563,111.6406 Q1525.4688,111.3125 1524.7813,111.0781 Q1524.0938,110.8281 1523.4375,110.8281 Z " fill="#000000"/><text fill="#000000" font-family="sans-serif" font-size="14" lengthAdjust="spacing" textLength="91" x="1537.5" y="119.8467">Concretization</text></g><!--class Interface--><g id="elem_Interface"><rect codeLine="100" fill="#CCFFFF" height="32" id="Interface" rx="2.5" ry="2.5" style="stroke:#A9A9A9;stroke-width:0.5;" width="90" x="2101" y="491"/><ellipse cx="2116" cy="507" fill="#FFFFFF" rx="11" ry="11" style="stroke:#181818;stroke-width:1.0;"/><path d="M2115.9375,502.8281 Q2115.1875,502.8281 2114.625,503.125 Q2114.0625,503.4063 2113.6719,503.9375 Q2113.2813,504.4688 2113.0781,505.25 Q2112.8906,506.0156 2112.8906,506.9688 Q2112.8906,507.9375 2113.0625,508.7031 Q2113.25,509.4531 2113.6094,509.9688 Q2113.9844,510.4844 2114.5625,510.7656 Q2115.1406,511.0313 2115.9375,511.0313 Q2116.6719,511.0313 2117.4063,510.8594 Q2118.1563,510.6875 2119.0313,510.3906 L2119.0313,512.5469 Q2118.625,512.7031 2118.2344,512.8281 Q2117.8438,512.9375 2117.4375,513.0156 Q2117.0313,513.0938 2116.6094,513.125 Q2116.1875,513.1719 2115.6875,513.1719 Q2114.2813,513.1719 2113.25,512.7188 Q2112.2344,512.2656 2111.5625,511.4531 Q2110.8906,510.6406 2110.5625,509.5 Q2110.2344,508.3438 2110.2344,506.9531 Q2110.2344,505.5781 2110.6094,504.4219 Q2110.9844,503.2656 2111.7031,502.4375 Q2112.4219,501.6094 2113.4844,501.1563 Q2114.5469,500.6875 2115.9375,500.6875 Q2116.8438,500.6875 2117.75,500.9219 Q2118.6563,501.1406 2119.4844,501.5469 L2118.6563,503.6406 Q2117.9688,503.3125 2117.2813,503.0781 Q2116.5938,502.8281 2115.9375,502.8281 Z " fill="#000000"/><text fill="#000000" font-family="sans-serif" font-size="14" lengthAdjust="spacing" textLength="58" x="2130" y="511.8467">Interface</text></g><!--class File--><g id="elem_File"><rect codeLine="102" fill="#CCFFFF" height="32" id="File" rx="2.5" ry="2.5" style="stroke:#A9A9A9;stroke-width:0.5;" width="55" x="999.5" y="295"/><ellipse cx="1014.5" cy="311" fill="#FFFFFF" rx="11" ry="11" style="stroke:#181818;stroke-width:1.0;"/><path d="M1014.4375,306.8281 Q1013.6875,306.8281 1013.125,307.125 Q1012.5625,307.4063 1012.1719,307.9375 Q1011.7813,308.4688 1011.5781,309.25 Q1011.3906,310.0156 1011.3906,310.9688 Q1011.3906,311.9375 1011.5625,312.7031 Q1011.75,313.4531 1012.1094,313.9688 Q1012.4844,314.4844 1013.0625,314.7656 Q1013.6406,315.0313 1014.4375,315.0313 Q1015.1719,315.0313 1015.9063,314.8594 Q1016.6563,314.6875 1017.5313,314.3906 L1017.5313,316.5469 Q1017.125,316.7031 1016.7344,316.8281 Q1016.3438,316.9375 1015.9375,317.0156 Q1015.5313,317.0938 1015.1094,317.125 Q1014.6875,317.1719 1014.1875,317.1719 Q1012.7813,317.1719 1011.75,316.7188 Q1010.7344,316.2656 1010.0625,315.4531 Q1009.3906,314.6406 1009.0625,313.5 Q1008.7344,312.3438 1008.7344,310.9531 Q1008.7344,309.5781 1009.1094,308.4219 Q1009.4844,307.2656 1010.2031,306.4375 Q1010.9219,305.6094 1011.9844,305.1563 Q1013.0469,304.6875 1014.4375,304.6875 Q1015.3438,304.6875 1016.25,304.9219 Q1017.1563,305.1406 1017.9844,305.5469 L1017.1563,307.6406 Q1016.4688,307.3125 1015.7813,307.0781 Q1015.0938,306.8281 1014.4375,306.8281 Z " fill="#000000"/><text fill="#000000" font-family="sans-serif" font-size="14" lengthAdjust="spacing" textLength="23" x="1028.5" y="315.8467">File</text></g><!--reverse link SourceAnchor to SourceTextAnchor--><g id="link_SourceAnchor_SourceTextAnchor"><path codeLine="104" d="M939.29,151.12 C940.98,164.95 942.83,180.09 944.16,190.96 " fill="none" id="SourceAnchor-backto-SourceTextAnchor" style="stroke:#000000;stroke-width:1.0;"/><polygon fill="none" points="932.34,151.97,936.87,131.27,946.24,150.27,932.34,151.97" style="stroke:#000000;stroke-width:1.0;"/></g><!--reverse link Type to PrimitiveType--><g id="link_Type_PrimitiveType"><path codeLine="105" d="M1607.11,446.25 C1593.24,461.29 1577.09,478.8 1565.87,490.96 " fill="none" id="Type-backto-PrimitiveType" style="stroke:#000000;stroke-width:1.0;"/><polygon fill="none" points="1602.22,441.22,1620.92,431.27,1612.51,450.72,1602.22,441.22" style="stroke:#000000;stroke-width:1.0;"/></g><!--reverse link Method to Accessor--><g id="link_Method_Accessor"><path codeLine="106" d="M932.66,441.33 C905.34,457.29 870.98,477.37 847.86,490.89 " fill="none" id="Method-backto-Accessor" style="stroke:#000000;stroke-width:1.0;"/><polygon fill="none" points="929.42,435.11,950.22,431.06,936.49,447.2,929.42,435.11" style="stroke:#000000;stroke-width:1.0;"/></g><!--reverse link ContainerEntity to Type--><g id="link_ContainerEntity_Type"><path codeLine="107" d="M1378.93,333.14 C1447.79,354.88 1552.07,387.81 1603.73,404.12 " fill="none" id="ContainerEntity-backto-Type" style="stroke:#000000;stroke-width:1.0;"/><polygon fill="none" points="1376.62,339.75,1359.66,327.05,1380.84,326.4,1376.62,339.75" style="stroke:#000000;stroke-width:1.0;"/></g><!--reverse link SourceAnchor to IndexedFileAnchor--><g id="link_SourceAnchor_IndexedFileAnchor"><path codeLine="108" d="M986.19,139.51 C1021.54,155.74 1067.52,176.85 1098.09,190.89 " fill="none" id="SourceAnchor-backto-IndexedFileAnchor" style="stroke:#000000;stroke-width:1.0;"/><polygon fill="none" points="983.06,145.77,967.81,131.06,988.9,133.05,983.06,145.77" style="stroke:#000000;stroke-width:1.0;"/></g><!--reverse link Entity to Invocation--><g id="link_Entity_Invocation"><path codeLine="109" d="M725.77,28.15 C612.87,37.23 344.59,61.14 122,99 C116.56,99.93 110.89,101.02 105.26,102.18 " fill="none" id="Entity-backto-Invocation" style="stroke:#000000;stroke-width:1.0;"/><polygon fill="none" points="725.42,21.15,745.91,26.55,726.53,35.11,725.42,21.15" style="stroke:#000000;stroke-width:1.0;"/></g><!--reverse link Type to Enum--><g id="link_Type_Enum"><path codeLine="110" d="M1652.31,449.15 C1659.8,463.5 1668.2,479.57 1674.14,490.96 " fill="none" id="Type-backto-Enum" style="stroke:#000000;stroke-width:1.0;"/><polygon fill="none" points="1646.03,452.24,1642.97,431.27,1658.44,445.76,1646.03,452.24" style="stroke:#000000;stroke-width:1.0;"/></g><!--reverse link NamedEntity to Variable--><g id="link_NamedEntity_Variable"><path codeLine="111" d="M702.81,223.28 C556.27,249.9 513.01,240.45 378,283 C368.01,286.15 357.49,290.57 348.15,294.93 " fill="none" id="NamedEntity-backto-Variable" style="stroke:#000000;stroke-width:1.0;"/><polygon fill="none" points="701.74,216.35,722.69,219.56,704.32,230.11,701.74,216.35" style="stroke:#000000;stroke-width:1.0;"/></g><!--reverse link Interface to ParametricInterface--><g id="link_Interface_ParametricInterface"><path codeLine="112" d="M2146,543.61 C2146,557.31 2146,572.22 2146,582.96 " fill="none" id="Interface-backto-ParametricInterface" style="stroke:#000000;stroke-width:1.0;"/><polygon fill="none" points="2139,543.27,2146,523.27,2153,543.27,2139,543.27" style="stroke:#000000;stroke-width:1.0;"/></g><!--reverse link NamedEntity to Property--><g id="link_NamedEntity_Property"><path codeLine="113" d="M703.1,225.52 C646.77,239.13 568.81,259.59 502,283 C492.14,286.46 481.64,290.77 472.14,294.93 " fill="none" id="NamedEntity-backto-Property" style="stroke:#000000;stroke-width:1.0;"/><polygon fill="none" points="701.74,218.65,722.82,220.82,704.98,232.26,701.74,218.65" style="stroke:#000000;stroke-width:1.0;"/></g><!--reverse link Class to ParametricClass--><g id="link_Class_ParametricClass"><path codeLine="114" d="M1425,543.61 C1425,557.31 1425,572.22 1425,582.96 " fill="none" id="Class-backto-ParametricClass" style="stroke:#000000;stroke-width:1.0;"/><polygon fill="none" points="1418,543.27,1425,523.27,1432,543.27,1418,543.27" style="stroke:#000000;stroke-width:1.0;"/></g><!--reverse link ContainerEntity to Method--><g id="link_ContainerEntity_Method"><path codeLine="115" d="M1247.12,333.29 C1241,335.24 1234.89,337.17 1229,339 C1154.41,362.18 1066.95,387.75 1016.85,402.25 " fill="none" id="ContainerEntity-backto-Method" style="stroke:#000000;stroke-width:1.0;"/><polygon fill="none" points="1245.22,326.54,1266.41,327.07,1249.52,339.87,1245.22,326.54" style="stroke:#000000;stroke-width:1.0;"/></g><!--reverse link ContainerEntity to Namespace--><g id="link_ContainerEntity_Namespace"><path codeLine="116" d="M1396.73,331.55 C1486.67,352.31 1626,384.46 1701.33,401.85 " fill="none" id="ContainerEntity-backto-Namespace" style="stroke:#000000;stroke-width:1.0;"/><polygon fill="none" points="1395.13,338.37,1377.22,327.05,1398.28,324.73,1395.13,338.37" style="stroke:#000000;stroke-width:1.0;"/></g><!--reverse link NamedEntity to ContainerEntity--><g id="link_NamedEntity_ContainerEntity"><path codeLine="117" d="M857.14,223.21 C1024.16,252.22 1071.42,244.97 1229,283 C1242.55,286.27 1257.08,290.68 1270.14,294.98 " fill="none" id="NamedEntity-backto-ContainerEntity" style="stroke:#000000;stroke-width:1.0;"/><polygon fill="none" points="855.76,230.08,837.28,219.69,858.2,216.29,855.76,230.08" style="stroke:#000000;stroke-width:1.0;"/></g><!--reverse link SourcedEntity to Comment--><g id="link_SourcedEntity_Comment"><path codeLine="118" d="M720.7,138.05 C676.58,154.46 617.51,176.43 578.64,190.89 " fill="none" id="SourcedEntity-backto-Comment" style="stroke:#000000;stroke-width:1.0;"/><polygon fill="none" points="718.31,131.47,739.49,131.06,723.19,144.6,718.31,131.47" style="stroke:#000000;stroke-width:1.0;"/></g><!--reverse link NamedEntity to Folder--><g id="link_NamedEntity_Folder"><path codeLine="119" d="M726.16,230.96 C692.58,245.48 648.56,264.87 610,283 C602.03,286.75 593.48,290.94 585.58,294.89 " fill="none" id="NamedEntity-backto-Folder" style="stroke:#000000;stroke-width:1.0;"/><polygon fill="none" points="723.47,224.5,744.61,223.02,729.01,237.36,723.47,224.5" style="stroke:#000000;stroke-width:1.0;"/></g><!--reverse link Type to ParameterType--><g id="link_Type_ParameterType"><path codeLine="120" d="M1683.64,440.18 C1716.1,456.32 1757.77,477.05 1785.61,490.89 " fill="none" id="Type-backto-ParameterType" style="stroke:#000000;stroke-width:1.0;"/><polygon fill="none" points="1680.09,446.24,1665.3,431.06,1686.32,433.7,1680.09,446.24" style="stroke:#000000;stroke-width:1.0;"/></g><!--reverse link Entity to SourceLanguage--><g id="link_Entity_SourceLanguage"><path codeLine="121" d="M725.83,31.87 C635.56,45.07 448.7,72.83 291,99 C285.59,99.9 279.99,100.85 274.37,101.82 " fill="none" id="Entity-backto-SourceLanguage" style="stroke:#000000;stroke-width:1.0;"/><polygon fill="none" points="725.06,24.9,745.87,28.94,727.09,38.76,725.06,24.9" style="stroke:#000000;stroke-width:1.0;"/></g><!--reverse link Entity to Implementation--><g id="link_Entity_Implementation"><path codeLine="122" d="M726.21,36.01 C653.46,52.26 523.71,81.24 444.5,98.93 " fill="none" id="Entity-backto-Implementation" style="stroke:#000000;stroke-width:1.0;"/><polygon fill="none" points="724.94,29.12,745.99,31.6,727.99,42.79,724.94,29.12" style="stroke:#000000;stroke-width:1.0;"/></g><!--reverse link Function to ParametricFunction--><g id="link_Function_ParametricFunction"><path codeLine="123" d="M1168.63,451.61 C1167.71,465.31 1166.72,480.22 1166,490.96 " fill="none" id="Function-backto-ParametricFunction" style="stroke:#000000;stroke-width:1.0;"/><polygon fill="none" points="1161.67,450.76,1169.98,431.27,1175.64,451.69,1161.67,450.76" style="stroke:#000000;stroke-width:1.0;"/></g><!--reverse link Entity to Access--><g id="link_Entity_Access"><path codeLine="124" d="M726.84,42.19 C675.33,59.82 598.59,86.08 553.59,101.48 " fill="none" id="Entity-backto-Access" style="stroke:#000000;stroke-width:1.0;"/><polygon fill="none" points="724.7,35.53,745.89,35.67,729.23,48.77,724.7,35.53" style="stroke:#000000;stroke-width:1.0;"/></g><!--reverse link NamedEntity to Alias--><g id="link_NamedEntity_Alias"><path codeLine="125" d="M746.76,236.02 C724.21,255.03 695.27,279.42 676.93,294.89 " fill="none" id="NamedEntity-backto-Alias" style="stroke:#000000;stroke-width:1.0;"/><polygon fill="none" points="742.34,230.59,762.15,223.05,751.37,241.29,742.34,230.59" style="stroke:#000000;stroke-width:1.0;"/></g><!--reverse link Method to ParametricMethod--><g id="link_Method_ParametricMethod"><path codeLine="126" d="M976,451.61 C976,465.31 976,480.22 976,490.96 " fill="none" id="Method-backto-ParametricMethod" style="stroke:#000000;stroke-width:1.0;"/><polygon fill="none" points="969,451.27,976,431.27,983,451.27,969,451.27" style="stroke:#000000;stroke-width:1.0;"/></g><!--reverse link Type to Class--><g id="link_Type_Class"><path codeLine="127" d="M1585.08,437.39 C1545.26,454.46 1490.69,477.85 1456.65,492.43 " fill="none" id="Type-backto-Class" style="stroke:#000000;stroke-width:1.0;"/><polygon fill="none" points="1582.42,430.92,1603.56,429.47,1587.94,443.79,1582.42,430.92" style="stroke:#000000;stroke-width:1.0;"/></g><!--reverse link Variable to implicitVariable--><g id="link_Variable_implicitVariable"><path codeLine="128" d="M319,347.19 C319,364.84 319,385.31 319,398.89 " fill="none" id="Variable-backto-implicitVariable" style="stroke:#000000;stroke-width:1.0;"/><polygon fill="none" points="312,347.05,319,327.05,326,347.05,312,347.05" style="stroke:#000000;stroke-width:1.0;"/></g><!--reverse link Entity to Reference--><g id="link_Entity_Reference"><path codeLine="129" d="M739.02,49.79 C713.78,65.68 682.28,85.5 661.01,98.89 " fill="none" id="Entity-backto-Reference" style="stroke:#000000;stroke-width:1.0;"/><polygon fill="none" points="735.41,43.79,756.07,39.06,742.87,55.64,735.41,43.79" style="stroke:#000000;stroke-width:1.0;"/></g><!--reverse link ContainerEntity to Function--><g id="link_ContainerEntity_Function"><path codeLine="130" d="M1274.8,338.91 C1248.31,358.07 1213.69,383.12 1191.89,398.89 " fill="none" id="ContainerEntity-backto-Function" style="stroke:#000000;stroke-width:1.0;"/><polygon fill="none" points="1270.89,333.1,1291.19,327.05,1279.09,344.44,1270.89,333.1" style="stroke:#000000;stroke-width:1.0;"/></g><!--reverse link Entity to SourcedEntity--><g id="link_Entity_SourcedEntity"><path codeLine="131" d="M780,59.61 C780,73.31 780,88.22 780,98.96 " fill="none" id="Entity-backto-SourcedEntity" style="stroke:#000000;stroke-width:1.0;"/><polygon fill="none" points="773,59.27,780,39.27,787,59.27,773,59.27" style="stroke:#000000;stroke-width:1.0;"/></g><!--reverse link ContainerEntity to ScriptEntity--><g id="link_ContainerEntity_ScriptEntity"><path codeLine="132" d="M1312,347.19 C1312,364.84 1312,385.31 1312,398.89 " fill="none" id="ContainerEntity-backto-ScriptEntity" style="stroke:#000000;stroke-width:1.0;"/><polygon fill="none" points="1305,347.05,1312,327.05,1319,347.05,1305,347.05" style="stroke:#000000;stroke-width:1.0;"/></g><!--reverse link NamedEntity to Decorator--><g id="link_NamedEntity_Decorator"><path codeLine="133" d="M850.69,227.99 C906.55,242.19 985.88,262.35 1055,283 C1066.11,286.32 1077.99,290.2 1089.6,293.97 " fill="none" id="NamedEntity-backto-Decorator" style="stroke:#000000;stroke-width:1.0;"/><polygon fill="none" points="848.89,234.75,831.24,223.03,852.34,221.19,848.89,234.75" style="stroke:#000000;stroke-width:1.0;"/></g><!--link Decorator to NamedEntity--><g id="link_Decorator_NamedEntity"><path codeLine="150" d="M1090.42,283.12 C1090.28,283.08 1090.14,283.04 1090,283 C1003.24,257.08 900.39,231.94 837.27,218.36 " fill="none" id="Decorator-NamedEntity" style="stroke:#000000;stroke-width:1.0;"/><text fill="#000000" font-family="sans-serif" font-size="13" lengthAdjust="spacing" textLength="71" x="1010.8629" y="277.0286">decorators*</text><text fill="#000000" font-family="sans-serif" font-size="13" lengthAdjust="spacing" textLength="92" x="796.0006" y="243.1131">decoratedEntity</text></g><!--reverse link Entity to SourceAnchor--><g id="link_Entity_SourceAnchor"><path codeLine="134" d="M823.62,49.33 C851.12,65.29 885.7,85.37 908.97,98.89 " fill="none" id="Entity-backto-SourceAnchor" style="stroke:#000000;stroke-width:1.0;"/><polygon fill="none" points="819.72,55.16,805.94,39.06,826.75,43.05,819.72,55.16" style="stroke:#000000;stroke-width:1.0;"/></g><!--reverse link ScriptEntity to Module--><g id="link_ScriptEntity_Module"><path codeLine="135" d="M1314.37,451.61 C1315.29,465.31 1316.28,480.22 1317,490.96 " fill="none" id="ScriptEntity-backto-Module" style="stroke:#000000;stroke-width:1.0;"/><polygon fill="none" points="1307.36,451.69,1313.02,431.27,1321.33,450.76,1307.36,451.69" style="stroke:#000000;stroke-width:1.0;"/></g><!--reverse link NamedEntity to EnumValue--><g id="link_NamedEntity_EnumValue"><path codeLine="136" d="M778.97,243.19 C778.45,260.84 777.84,281.31 777.44,294.89 " fill="none" id="NamedEntity-backto-EnumValue" style="stroke:#000000;stroke-width:1.0;"/><polygon fill="none" points="771.97,242.84,779.56,223.05,785.97,243.25,771.97,242.84" style="stroke:#000000;stroke-width:1.0;"/></g><!--reverse link Entity to Inheritance--><g id="link_Entity_Inheritance"><path codeLine="137" d="M833.68,39.94 C889.85,56.63 977.35,82.62 1032.36,98.96 " fill="none" id="Entity-backto-Inheritance" style="stroke:#000000;stroke-width:1.0;"/><polygon fill="none" points="831.35,46.55,814.17,34.15,835.33,33.13,831.35,46.55" style="stroke:#000000;stroke-width:1.0;"/></g><!--reverse link SourcedEntity to JSDoc--><g id="link_SourcedEntity_JSDoc"><path codeLine="138" d="M742.59,142.72 C720.57,158.45 693.53,177.76 675.16,190.89 " fill="none" id="SourcedEntity-backto-JSDoc" style="stroke:#000000;stroke-width:1.0;"/><polygon fill="none" points="738.57,136.99,758.91,131.06,746.7,148.38,738.57,136.99" style="stroke:#000000;stroke-width:1.0;"/></g><!--reverse link Entity to Import--><g id="link_Entity_Import"><path codeLine="139" d="M834.24,33.79 C907.05,47.19 1040.27,72.6 1153,99 C1158.59,100.31 1164.46,101.78 1170.22,103.27 " fill="none" id="Entity-backto-Import" style="stroke:#000000;stroke-width:1.0;"/><polygon fill="none" points="832.51,40.59,814.1,30.11,835.03,26.82,832.51,40.59" style="stroke:#000000;stroke-width:1.0;"/></g><!--reverse link Entity to ParameterConcretization--><g id="link_Entity_ParameterConcretization"><path codeLine="140" d="M834.38,32.18 C935.92,47.47 1155.53,80.52 1282.36,99.61 " fill="none" id="Entity-backto-ParameterConcretization" style="stroke:#000000;stroke-width:1.0;"/><polygon fill="none" points="833.03,39.06,814.3,29.16,835.12,25.22,833.03,39.06" style="stroke:#000000;stroke-width:1.0;"/></g><!--reverse link NamedEntity to Parameter--><g id="link_NamedEntity_Parameter"><path codeLine="141" d="M815.71,235.19 C840.84,254.31 873.53,279.19 894.15,294.89 " fill="none" id="NamedEntity-backto-Parameter" style="stroke:#000000;stroke-width:1.0;"/><polygon fill="none" points="811.45,240.73,799.77,223.05,819.93,229.59,811.45,240.73" style="stroke:#000000;stroke-width:1.0;"/></g><!--reverse link Type to VariableStatement--><g id="link_Type_VariableStatement"><path codeLine="142" d="M1685.4,431.12 C1778.76,456.61 1866.5,477.51 1924.84,491 " fill="none" id="Type-backto-VariableStatement" style="stroke:#000000;stroke-width:1.0;"/><polygon fill="none" points="1683.45,437.85,1666.03,425.79,1687.17,424.35,1683.45,437.85" style="stroke:#000000;stroke-width:1.0;"/></g><!--reverse link SourcedEntity to NamedEntity--><g id="link_SourcedEntity_NamedEntity"><path codeLine="143" d="M780,151.61 C780,165.31 780,180.22 780,190.96 " fill="none" id="SourcedEntity-backto-NamedEntity" style="stroke:#000000;stroke-width:1.0;"/><polygon fill="none" points="773,151.27,780,131.27,787,151.27,773,151.27" style="stroke:#000000;stroke-width:1.0;"/></g><!--reverse link Entity to Concretization--><g id="link_Entity_Concretization"><path codeLine="144" d="M834.36,28.19 C953.62,37.73 1247.08,63.04 1491,99 C1496.66,99.83 1502.54,100.79 1508.41,101.8 " fill="none" id="Entity-backto-Concretization" style="stroke:#000000;stroke-width:1.0;"/><polygon fill="none" points="833.55,35.15,814.17,26.6,834.66,21.19,833.55,35.15" style="stroke:#000000;stroke-width:1.0;"/></g><!--reverse link Type to Interface--><g id="link_Type_Interface"><path codeLine="145" d="M1685.71,430.71 C1862.37,469.79 1913.05,458.05 2083,491 C2088.74,492.11 2094.75,493.39 2100.68,494.73 " fill="none" id="Type-backto-Interface" style="stroke:#000000;stroke-width:1.0;"/><polygon fill="none" points="1684.15,437.53,1666.18,426.3,1687.23,423.88,1684.15,437.53" style="stroke:#000000;stroke-width:1.0;"/></g><!--reverse link NamedEntity to File--><g id="link_NamedEntity_File"><path codeLine="146" d="M846.34,229.5 C886.1,243.18 937.26,262.2 981,283 C988.36,286.5 996.09,290.78 1003.08,294.9 " fill="none" id="NamedEntity-backto-File" style="stroke:#000000;stroke-width:1.0;"/><polygon fill="none" points="843.95,236.08,827.25,223.04,848.44,222.82,843.95,236.08" style="stroke:#000000;stroke-width:1.0;"/></g><!--reverse link TWithInterfaces to ContainerEntity--><g id="link_TWithInterfaces_ContainerEntity"><path codeLine="147" d="M1312,243.19 C1312,260.84 1312,281.31 1312,294.89 " fill="none" id="TWithInterfaces-backto-ContainerEntity" style="stroke:#000000;stroke-width:1.0;stroke-dasharray:7.0,7.0;"/><polygon fill="none" points="1305,243.05,1312,223.05,1319,243.05,1305,243.05" style="stroke:#000000;stroke-width:1.0;"/></g><!--reverse link TEntityCreator to FamixTypeScriptModel--><g id="link_TEntityCreator_FamixTypeScriptModel"><path codeLine="148" d="M1755,59.61 C1755,73.31 1755,88.22 1755,98.96 " fill="none" id="TEntityCreator-backto-FamixTypeScriptModel" style="stroke:#000000;stroke-width:1.0;stroke-dasharray:7.0,7.0;"/><polygon fill="none" points="1748,59.27,1755,39.27,1762,59.27,1748,59.27" style="stroke:#000000;stroke-width:1.0;"/></g><!--reverse link TClassMetrics to Class--><g id="link_TClassMetrics_Class"><path codeLine="149" d="M1445.48,450.13 C1440.32,464.23 1434.6,479.83 1430.52,490.96 " fill="none" id="TClassMetrics-backto-Class" style="stroke:#000000;stroke-width:1.0;stroke-dasharray:7.0,7.0;"/><polygon fill="none" points="1438.94,447.64,1452.4,431.27,1452.09,452.45,1438.94,447.64" style="stroke:#000000;stroke-width:1.0;"/></g><!--SRC=[bLRRRjim37tNLnZTopQi_OAYGESkGuTrA9QWUrPaDX5YImOjjydM_VjqgMFBycAsBodeGueY3m-rbGLaKDNca5LGhG4RrkoagZdoAXCbRvhi3ykoprpiDgXRLUIwr9WzRwK1Qxz6rC_1j2ujna4r5e31Ld3SVKL-O7zPYBNKBGfOmTvSAx6rYClBz_ad7-t3rLNsBiyNziyUsJdSewoaaK-mEjGmYxuM0fg649OKxLOLi8TY8KiWPlj56MahEH_uIGjkf5RpYURkvmuCIj4uzEhq-Mqr6_A1e-JhSlx-zuu4_kHRPG0VkI3ueAu12JNeW_iRpk9_M7HJKrAmnThgOXQMQsMuL834fkMwga2PMTo2LtBl-BKKA6jpfmievvrqQOU6MZH04dzNuMOv0ZU1l2V94sRpErURbcy8qr7L9RYAq8ZSztlHAa5o2TCy3oibdqUjVacpFV9uVfJwVAby8j5Osgf98Grv27_28o0e0k_9TGsDBeYy3pGcWcz0QEpODedCigKjgjfaiA_HjjScF4gCgBLsi5f2_PmaFl2ofSZz5b0QJgdrj-MD5fGHqMZeKsqbII0O-VjD8qNGZOvjIpkiG58n9xS5MHdVb3PzcRZDUm8Kq-Nb_3nvNh2Wa-vJz91WtKoxBzsZWIKRmNtryFIav6t0XaxzWXzau9Z8ehewQzSQDYYBppTTlgbpjstPg_Z4ZjuuVQjm_-blnqsRdZV2iv6I18XVawblM773ZWoNMLI-U1F5bOss3kirBxvwPuzyGwFJpFm2YIWn5lz1rg6elNmxsrZKerEF0ZvTxSbCexfE-mrbERtIKOSdmhxoDTPrJmglg6cmeuIEE7wKooaUU8KSjywgOMJwZ_9D4Bq33ZgHYDfK6eD8RCJauO5zr1FJveQT9U-8bukBP2x6Bo-7cNeNij7ptiVo1EiNwLdH_TjyFCji6fsXI-viUCb_]--></g></svg>