<?xml version="1.0" encoding="us-ascii" standalone="no"?><svg xmlns="http://www.w3.org/2000/svg" xmlns:xlink="http://www.w3.org/1999/xlink" contentStyleType="text/css" height="719px" preserveAspectRatio="none" style="width:3363px;height:719px;background:#FFFFFF;" version="1.1" viewBox="0 0 3363 719" width="3363px" zoomAndPan="magnify"><defs/><g><!--class PrimitiveType--><g id="elem_PrimitiveType"><rect codeLine="7" fill="#CCFFFF" height="32" id="PrimitiveType" rx="2.5" ry="2.5" style="stroke:#A9A9A9;stroke-width:0.5;" width="121" x="140" y="588"/><ellipse cx="155" cy="604" fill="#FFFFFF" rx="11" ry="11" style="stroke:#181818;stroke-width:1.0;"/><path d="M154.9375,599.8281 Q154.1875,599.8281 153.625,600.125 Q153.0625,600.4063 152.6719,600.9375 Q152.2813,601.4688 152.0781,602.25 Q151.8906,603.0156 151.8906,603.9688 Q151.8906,604.9375 152.0625,605.7031 Q152.25,606.4531 152.6094,606.9688 Q152.9844,607.4844 153.5625,607.7656 Q154.1406,608.0313 154.9375,608.0313 Q155.6719,608.0313 156.4063,607.8594 Q157.1563,607.6875 158.0313,607.3906 L158.0313,609.5469 Q157.625,609.7031 157.2344,609.8281 Q156.8438,609.9375 156.4375,610.0156 Q156.0313,610.0938 155.6094,610.125 Q155.1875,610.1719 154.6875,610.1719 Q153.2813,610.1719 152.25,609.7188 Q151.2344,609.2656 150.5625,608.4531 Q149.8906,607.6406 149.5625,606.5 Q149.2344,605.3438 149.2344,603.9531 Q149.2344,602.5781 149.6094,601.4219 Q149.9844,600.2656 150.7031,599.4375 Q151.4219,598.6094 152.4844,598.1563 Q153.5469,597.6875 154.9375,597.6875 Q155.8438,597.6875 156.75,597.9219 Q157.6563,598.1406 158.4844,598.5469 L157.6563,600.6406 Q156.9688,600.3125 156.2813,600.0781 Q155.5938,599.8281 154.9375,599.8281 Z " fill="#000000"/><text fill="#000000" font-family="sans-serif" font-size="14" lengthAdjust="spacing" textLength="89" x="169" y="608.8467">PrimitiveType</text></g><!--class ImportClause--><g id="elem_ImportClause"><rect codeLine="9" fill="#CCFFFF" height="32" id="ImportClause" rx="2.5" ry="2.5" style="stroke:#A9A9A9;stroke-width:0.5;" width="118" x="1633.5" y="99"/><ellipse cx="1648.5" cy="115" fill="#FFFFFF" rx="11" ry="11" style="stroke:#181818;stroke-width:1.0;"/><path d="M1648.4375,110.8281 Q1647.6875,110.8281 1647.125,111.125 Q1646.5625,111.4063 1646.1719,111.9375 Q1645.7813,112.4688 1645.5781,113.25 Q1645.3906,114.0156 1645.3906,114.9688 Q1645.3906,115.9375 1645.5625,116.7031 Q1645.75,117.4531 1646.1094,117.9688 Q1646.4844,118.4844 1647.0625,118.7656 Q1647.6406,119.0313 1648.4375,119.0313 Q1649.1719,119.0313 1649.9063,118.8594 Q1650.6563,118.6875 1651.5313,118.3906 L1651.5313,120.5469 Q1651.125,120.7031 1650.7344,120.8281 Q1650.3438,120.9375 1649.9375,121.0156 Q1649.5313,121.0938 1649.1094,121.125 Q1648.6875,121.1719 1648.1875,121.1719 Q1646.7813,121.1719 1645.75,120.7188 Q1644.7344,120.2656 1644.0625,119.4531 Q1643.3906,118.6406 1643.0625,117.5 Q1642.7344,116.3438 1642.7344,114.9531 Q1642.7344,113.5781 1643.1094,112.4219 Q1643.4844,111.2656 1644.2031,110.4375 Q1644.9219,109.6094 1645.9844,109.1563 Q1647.0469,108.6875 1648.4375,108.6875 Q1649.3438,108.6875 1650.25,108.9219 Q1651.1563,109.1406 1651.9844,109.5469 L1651.1563,111.6406 Q1650.4688,111.3125 1649.7813,111.0781 Q1649.0938,110.8281 1648.4375,110.8281 Z " fill="#000000"/><text fill="#000000" font-family="sans-serif" font-size="14" lengthAdjust="spacing" textLength="86" x="1662.5" y="119.8467">ImportClause</text></g><!--class ScriptEntity--><g id="elem_ScriptEntity"><rect codeLine="11" fill="#CCFFFF" height="32" id="ScriptEntity" rx="2.5" ry="2.5" style="stroke:#A9A9A9;stroke-width:0.5;" width="104" x="1127.5" y="588"/><ellipse cx="1142.5" cy="604" fill="#FFFFFF" rx="11" ry="11" style="stroke:#181818;stroke-width:1.0;"/><path d="M1142.4375,599.8281 Q1141.6875,599.8281 1141.125,600.125 Q1140.5625,600.4063 1140.1719,600.9375 Q1139.7813,601.4688 1139.5781,602.25 Q1139.3906,603.0156 1139.3906,603.9688 Q1139.3906,604.9375 1139.5625,605.7031 Q1139.75,606.4531 1140.1094,606.9688 Q1140.4844,607.4844 1141.0625,607.7656 Q1141.6406,608.0313 1142.4375,608.0313 Q1143.1719,608.0313 1143.9063,607.8594 Q1144.6563,607.6875 1145.5313,607.3906 L1145.5313,609.5469 Q1145.125,609.7031 1144.7344,609.8281 Q1144.3438,609.9375 1143.9375,610.0156 Q1143.5313,610.0938 1143.1094,610.125 Q1142.6875,610.1719 1142.1875,610.1719 Q1140.7813,610.1719 1139.75,609.7188 Q1138.7344,609.2656 1138.0625,608.4531 Q1137.3906,607.6406 1137.0625,606.5 Q1136.7344,605.3438 1136.7344,603.9531 Q1136.7344,602.5781 1137.1094,601.4219 Q1137.4844,600.2656 1138.2031,599.4375 Q1138.9219,598.6094 1139.9844,598.1563 Q1141.0469,597.6875 1142.4375,597.6875 Q1143.3438,597.6875 1144.25,597.9219 Q1145.1563,598.1406 1145.9844,598.5469 L1145.1563,600.6406 Q1144.4688,600.3125 1143.7813,600.0781 Q1143.0938,599.8281 1142.4375,599.8281 Z " fill="#000000"/><text fill="#000000" font-family="sans-serif" font-size="14" lengthAdjust="spacing" textLength="72" x="1156.5" y="608.8467">ScriptEntity</text></g><!--class ArrowFunction--><g id="elem_ArrowFunction"><rect codeLine="13" fill="#CCFFFF" height="32" id="ArrowFunction" rx="2.5" ry="2.5" style="stroke:#A9A9A9;stroke-width:0.5;" width="125" x="712" y="588"/><ellipse cx="727" cy="604" fill="#FFFFFF" rx="11" ry="11" style="stroke:#181818;stroke-width:1.0;"/><path d="M726.9375,599.8281 Q726.1875,599.8281 725.625,600.125 Q725.0625,600.4063 724.6719,600.9375 Q724.2813,601.4688 724.0781,602.25 Q723.8906,603.0156 723.8906,603.9688 Q723.8906,604.9375 724.0625,605.7031 Q724.25,606.4531 724.6094,606.9688 Q724.9844,607.4844 725.5625,607.7656 Q726.1406,608.0313 726.9375,608.0313 Q727.6719,608.0313 728.4063,607.8594 Q729.1563,607.6875 730.0313,607.3906 L730.0313,609.5469 Q729.625,609.7031 729.2344,609.8281 Q728.8438,609.9375 728.4375,610.0156 Q728.0313,610.0938 727.6094,610.125 Q727.1875,610.1719 726.6875,610.1719 Q725.2813,610.1719 724.25,609.7188 Q723.2344,609.2656 722.5625,608.4531 Q721.8906,607.6406 721.5625,606.5 Q721.2344,605.3438 721.2344,603.9531 Q721.2344,602.5781 721.6094,601.4219 Q721.9844,600.2656 722.7031,599.4375 Q723.4219,598.6094 724.4844,598.1563 Q725.5469,597.6875 726.9375,597.6875 Q727.8438,597.6875 728.75,597.9219 Q729.6563,598.1406 730.4844,598.5469 L729.6563,600.6406 Q728.9688,600.3125 728.2813,600.0781 Q727.5938,599.8281 726.9375,599.8281 Z " fill="#000000"/><text fill="#000000" font-family="sans-serif" font-size="14" lengthAdjust="spacing" textLength="93" x="741" y="608.8467">ArrowFunction</text></g><!--class SourceTextAnchor--><g id="elem_SourceTextAnchor"><rect codeLine="15" fill="#CCFFFF" height="32" id="SourceTextAnchor" rx="2.5" ry="2.5" style="stroke:#A9A9A9;stroke-width:0.5;" width="147" x="2750" y="203"/><ellipse cx="2765" cy="219" fill="#FFFFFF" rx="11" ry="11" style="stroke:#181818;stroke-width:1.0;"/><path d="M2764.9375,214.8281 Q2764.1875,214.8281 2763.625,215.125 Q2763.0625,215.4063 2762.6719,215.9375 Q2762.2813,216.4688 2762.0781,217.25 Q2761.8906,218.0156 2761.8906,218.9688 Q2761.8906,219.9375 2762.0625,220.7031 Q2762.25,221.4531 2762.6094,221.9688 Q2762.9844,222.4844 2763.5625,222.7656 Q2764.1406,223.0313 2764.9375,223.0313 Q2765.6719,223.0313 2766.4063,222.8594 Q2767.1563,222.6875 2768.0313,222.3906 L2768.0313,224.5469 Q2767.625,224.7031 2767.2344,224.8281 Q2766.8438,224.9375 2766.4375,225.0156 Q2766.0313,225.0938 2765.6094,225.125 Q2765.1875,225.1719 2764.6875,225.1719 Q2763.2813,225.1719 2762.25,224.7188 Q2761.2344,224.2656 2760.5625,223.4531 Q2759.8906,222.6406 2759.5625,221.5 Q2759.2344,220.3438 2759.2344,218.9531 Q2759.2344,217.5781 2759.6094,216.4219 Q2759.9844,215.2656 2760.7031,214.4375 Q2761.4219,213.6094 2762.4844,213.1563 Q2763.5469,212.6875 2764.9375,212.6875 Q2765.8438,212.6875 2766.75,212.9219 Q2767.6563,213.1406 2768.4844,213.5469 L2767.6563,215.6406 Q2766.9688,215.3125 2766.2813,215.0781 Q2765.5938,214.8281 2764.9375,214.8281 Z " fill="#000000"/><text fill="#000000" font-family="sans-serif" font-size="14" lengthAdjust="spacing" textLength="115" x="2779" y="223.8467">SourceTextAnchor</text></g><!--class Comment--><g id="elem_Comment"><rect codeLine="17" fill="#CCFFFF" height="56.2969" id="Comment" rx="2.5" ry="2.5" style="stroke:#A9A9A9;stroke-width:0.5;" width="113" x="1482" y="191"/><ellipse cx="1505.1" cy="207" fill="#FFFFFF" rx="11" ry="11" style="stroke:#181818;stroke-width:1.0;"/><path d="M1505.0375,202.8281 Q1504.2875,202.8281 1503.725,203.125 Q1503.1625,203.4063 1502.7719,203.9375 Q1502.3813,204.4688 1502.1781,205.25 Q1501.9906,206.0156 1501.9906,206.9688 Q1501.9906,207.9375 1502.1625,208.7031 Q1502.35,209.4531 1502.7094,209.9688 Q1503.0844,210.4844 1503.6625,210.7656 Q1504.2406,211.0313 1505.0375,211.0313 Q1505.7719,211.0313 1506.5063,210.8594 Q1507.2563,210.6875 1508.1313,210.3906 L1508.1313,212.5469 Q1507.725,212.7031 1507.3344,212.8281 Q1506.9438,212.9375 1506.5375,213.0156 Q1506.1313,213.0938 1505.7094,213.125 Q1505.2875,213.1719 1504.7875,213.1719 Q1503.3813,213.1719 1502.35,212.7188 Q1501.3344,212.2656 1500.6625,211.4531 Q1499.9906,210.6406 1499.6625,209.5 Q1499.3344,208.3438 1499.3344,206.9531 Q1499.3344,205.5781 1499.7094,204.4219 Q1500.0844,203.2656 1500.8031,202.4375 Q1501.5219,201.6094 1502.5844,201.1563 Q1503.6469,200.6875 1505.0375,200.6875 Q1505.9438,200.6875 1506.85,200.9219 Q1507.7563,201.1406 1508.5844,201.5469 L1507.7563,203.6406 Q1507.0688,203.3125 1506.3813,203.0781 Q1505.6938,202.8281 1505.0375,202.8281 Z " fill="#000000"/><text fill="#000000" font-family="sans-serif" font-size="14" lengthAdjust="spacing" textLength="63" x="1520.9" y="211.8467">Comment</text><line style="stroke:#A9A9A9;stroke-width:0.5;" x1="1483" x2="1594" y1="223" y2="223"/><text fill="#000000" font-family="sans-serif" font-size="14" lengthAdjust="spacing" textLength="101" x="1488" y="239.9951">Boolean isJSDoc</text></g><!--class Entity--><g id="elem_Entity"><rect codeLine="20" fill="#CCFFFF" height="32" id="Entity" rx="2.5" ry="2.5" style="stroke:#A9A9A9;stroke-width:0.5;" width="68" x="2297.5" y="7"/><ellipse cx="2312.5" cy="23" fill="#FFFFFF" rx="11" ry="11" style="stroke:#181818;stroke-width:1.0;"/><path d="M2312.4375,18.8281 Q2311.6875,18.8281 2311.125,19.125 Q2310.5625,19.4063 2310.1719,19.9375 Q2309.7813,20.4688 2309.5781,21.25 Q2309.3906,22.0156 2309.3906,22.9688 Q2309.3906,23.9375 2309.5625,24.7031 Q2309.75,25.4531 2310.1094,25.9688 Q2310.4844,26.4844 2311.0625,26.7656 Q2311.6406,27.0313 2312.4375,27.0313 Q2313.1719,27.0313 2313.9063,26.8594 Q2314.6563,26.6875 2315.5313,26.3906 L2315.5313,28.5469 Q2315.125,28.7031 2314.7344,28.8281 Q2314.3438,28.9375 2313.9375,29.0156 Q2313.5313,29.0938 2313.1094,29.125 Q2312.6875,29.1719 2312.1875,29.1719 Q2310.7813,29.1719 2309.75,28.7188 Q2308.7344,28.2656 2308.0625,27.4531 Q2307.3906,26.6406 2307.0625,25.5 Q2306.7344,24.3438 2306.7344,22.9531 Q2306.7344,21.5781 2307.1094,20.4219 Q2307.4844,19.2656 2308.2031,18.4375 Q2308.9219,17.6094 2309.9844,17.1563 Q2311.0469,16.6875 2312.4375,16.6875 Q2313.3438,16.6875 2314.25,16.9219 Q2315.1563,17.1406 2315.9844,17.5469 L2315.1563,19.6406 Q2314.4688,19.3125 2313.7813,19.0781 Q2313.0938,18.8281 2312.4375,18.8281 Z " fill="#000000"/><text fill="#000000" font-family="sans-serif" font-size="14" lengthAdjust="spacing" textLength="36" x="2326.5" y="27.8467">Entity</text></g><!--class Access--><g id="elem_Access"><rect codeLine="22" fill="#CCFFFF" height="32" id="Access" rx="2.5" ry="2.5" style="stroke:#A9A9A9;stroke-width:0.5;" width="73" x="1787" y="99"/><ellipse cx="1802" cy="115" fill="#FFFFFF" rx="11" ry="11" style="stroke:#181818;stroke-width:1.0;"/><path d="M1801.9375,110.8281 Q1801.1875,110.8281 1800.625,111.125 Q1800.0625,111.4063 1799.6719,111.9375 Q1799.2813,112.4688 1799.0781,113.25 Q1798.8906,114.0156 1798.8906,114.9688 Q1798.8906,115.9375 1799.0625,116.7031 Q1799.25,117.4531 1799.6094,117.9688 Q1799.9844,118.4844 1800.5625,118.7656 Q1801.1406,119.0313 1801.9375,119.0313 Q1802.6719,119.0313 1803.4063,118.8594 Q1804.1563,118.6875 1805.0313,118.3906 L1805.0313,120.5469 Q1804.625,120.7031 1804.2344,120.8281 Q1803.8438,120.9375 1803.4375,121.0156 Q1803.0313,121.0938 1802.6094,121.125 Q1802.1875,121.1719 1801.6875,121.1719 Q1800.2813,121.1719 1799.25,120.7188 Q1798.2344,120.2656 1797.5625,119.4531 Q1796.8906,118.6406 1796.5625,117.5 Q1796.2344,116.3438 1796.2344,114.9531 Q1796.2344,113.5781 1796.6094,112.4219 Q1796.9844,111.2656 1797.7031,110.4375 Q1798.4219,109.6094 1799.4844,109.1563 Q1800.5469,108.6875 1801.9375,108.6875 Q1802.8438,108.6875 1803.75,108.9219 Q1804.6563,109.1406 1805.4844,109.5469 L1804.6563,111.6406 Q1803.9688,111.3125 1803.2813,111.0781 Q1802.5938,110.8281 1801.9375,110.8281 Z " fill="#000000"/><text fill="#000000" font-family="sans-serif" font-size="14" lengthAdjust="spacing" textLength="41" x="1816" y="119.8467">Access</text></g><!--class ParameterConcretization--><g id="elem_ParameterConcretization"><rect codeLine="24" fill="#CCFFFF" height="32" id="ParameterConcretization" rx="2.5" ry="2.5" style="stroke:#A9A9A9;stroke-width:0.5;" width="191" x="1895" y="99"/><ellipse cx="1910" cy="115" fill="#FFFFFF" rx="11" ry="11" style="stroke:#181818;stroke-width:1.0;"/><path d="M1909.9375,110.8281 Q1909.1875,110.8281 1908.625,111.125 Q1908.0625,111.4063 1907.6719,111.9375 Q1907.2813,112.4688 1907.0781,113.25 Q1906.8906,114.0156 1906.8906,114.9688 Q1906.8906,115.9375 1907.0625,116.7031 Q1907.25,117.4531 1907.6094,117.9688 Q1907.9844,118.4844 1908.5625,118.7656 Q1909.1406,119.0313 1909.9375,119.0313 Q1910.6719,119.0313 1911.4063,118.8594 Q1912.1563,118.6875 1913.0313,118.3906 L1913.0313,120.5469 Q1912.625,120.7031 1912.2344,120.8281 Q1911.8438,120.9375 1911.4375,121.0156 Q1911.0313,121.0938 1910.6094,121.125 Q1910.1875,121.1719 1909.6875,121.1719 Q1908.2813,121.1719 1907.25,120.7188 Q1906.2344,120.2656 1905.5625,119.4531 Q1904.8906,118.6406 1904.5625,117.5 Q1904.2344,116.3438 1904.2344,114.9531 Q1904.2344,113.5781 1904.6094,112.4219 Q1904.9844,111.2656 1905.7031,110.4375 Q1906.4219,109.6094 1907.4844,109.1563 Q1908.5469,108.6875 1909.9375,108.6875 Q1910.8438,108.6875 1911.75,108.9219 Q1912.6563,109.1406 1913.4844,109.5469 L1912.6563,111.6406 Q1911.9688,111.3125 1911.2813,111.0781 Q1910.5938,110.8281 1909.9375,110.8281 Z " fill="#000000"/><text fill="#000000" font-family="sans-serif" font-size="14" lengthAdjust="spacing" textLength="159" x="1924" y="119.8467">ParameterConcretization</text></g><!--class NamedEntity--><g id="elem_NamedEntity"><rect codeLine="26" fill="#CCFFFF" height="32" id="NamedEntity" rx="2.5" ry="2.5" style="stroke:#A9A9A9;stroke-width:0.5;" width="114" x="1332.5" y="203"/><ellipse cx="1347.5" cy="219" fill="#FFFFFF" rx="11" ry="11" style="stroke:#181818;stroke-width:1.0;"/><path d="M1347.4375,214.8281 Q1346.6875,214.8281 1346.125,215.125 Q1345.5625,215.4063 1345.1719,215.9375 Q1344.7813,216.4688 1344.5781,217.25 Q1344.3906,218.0156 1344.3906,218.9688 Q1344.3906,219.9375 1344.5625,220.7031 Q1344.75,221.4531 1345.1094,221.9688 Q1345.4844,222.4844 1346.0625,222.7656 Q1346.6406,223.0313 1347.4375,223.0313 Q1348.1719,223.0313 1348.9063,222.8594 Q1349.6563,222.6875 1350.5313,222.3906 L1350.5313,224.5469 Q1350.125,224.7031 1349.7344,224.8281 Q1349.3438,224.9375 1348.9375,225.0156 Q1348.5313,225.0938 1348.1094,225.125 Q1347.6875,225.1719 1347.1875,225.1719 Q1345.7813,225.1719 1344.75,224.7188 Q1343.7344,224.2656 1343.0625,223.4531 Q1342.3906,222.6406 1342.0625,221.5 Q1341.7344,220.3438 1341.7344,218.9531 Q1341.7344,217.5781 1342.1094,216.4219 Q1342.4844,215.2656 1343.2031,214.4375 Q1343.9219,213.6094 1344.9844,213.1563 Q1346.0469,212.6875 1347.4375,212.6875 Q1348.3438,212.6875 1349.25,212.9219 Q1350.1563,213.1406 1350.9844,213.5469 L1350.1563,215.6406 Q1349.4688,215.3125 1348.7813,215.0781 Q1348.0938,214.8281 1347.4375,214.8281 Z " fill="#000000"/><text fill="#000000" font-family="sans-serif" font-size="14" lengthAdjust="spacing" textLength="82" x="1361.5" y="223.8467">NamedEntity</text></g><!--class ParametricInterface--><g id="elem_ParametricInterface"><rect codeLine="28" fill="#CCFFFF" height="32" id="ParametricInterface" rx="2.5" ry="2.5" style="stroke:#A9A9A9;stroke-width:0.5;" width="160" x="361.5" y="680"/><ellipse cx="376.5" cy="696" fill="#FFFFFF" rx="11" ry="11" style="stroke:#181818;stroke-width:1.0;"/><path d="M376.4375,691.8281 Q375.6875,691.8281 375.125,692.125 Q374.5625,692.4063 374.1719,692.9375 Q373.7813,693.4688 373.5781,694.25 Q373.3906,695.0156 373.3906,695.9688 Q373.3906,696.9375 373.5625,697.7031 Q373.75,698.4531 374.1094,698.9688 Q374.4844,699.4844 375.0625,699.7656 Q375.6406,700.0313 376.4375,700.0313 Q377.1719,700.0313 377.9063,699.8594 Q378.6563,699.6875 379.5313,699.3906 L379.5313,701.5469 Q379.125,701.7031 378.7344,701.8281 Q378.3438,701.9375 377.9375,702.0156 Q377.5313,702.0938 377.1094,702.125 Q376.6875,702.1719 376.1875,702.1719 Q374.7813,702.1719 373.75,701.7188 Q372.7344,701.2656 372.0625,700.4531 Q371.3906,699.6406 371.0625,698.5 Q370.7344,697.3438 370.7344,695.9531 Q370.7344,694.5781 371.1094,693.4219 Q371.4844,692.2656 372.2031,691.4375 Q372.9219,690.6094 373.9844,690.1563 Q375.0469,689.6875 376.4375,689.6875 Q377.3438,689.6875 378.25,689.9219 Q379.1563,690.1406 379.9844,690.5469 L379.1563,692.6406 Q378.4688,692.3125 377.7813,692.0781 Q377.0938,691.8281 376.4375,691.8281 Z " fill="#000000"/><text fill="#000000" font-family="sans-serif" font-size="14" lengthAdjust="spacing" textLength="128" x="390.5" y="700.8467">ParametricInterface</text></g><!--class IndexedFileAnchor--><g id="elem_IndexedFileAnchor"><rect codeLine="30" fill="#CCFFFF" height="32" id="IndexedFileAnchor" rx="2.5" ry="2.5" style="stroke:#A9A9A9;stroke-width:0.5;" width="152" x="2932.5" y="203"/><ellipse cx="2947.5" cy="219" fill="#FFFFFF" rx="11" ry="11" style="stroke:#181818;stroke-width:1.0;"/><path d="M2947.4375,214.8281 Q2946.6875,214.8281 2946.125,215.125 Q2945.5625,215.4063 2945.1719,215.9375 Q2944.7813,216.4688 2944.5781,217.25 Q2944.3906,218.0156 2944.3906,218.9688 Q2944.3906,219.9375 2944.5625,220.7031 Q2944.75,221.4531 2945.1094,221.9688 Q2945.4844,222.4844 2946.0625,222.7656 Q2946.6406,223.0313 2947.4375,223.0313 Q2948.1719,223.0313 2948.9063,222.8594 Q2949.6563,222.6875 2950.5313,222.3906 L2950.5313,224.5469 Q2950.125,224.7031 2949.7344,224.8281 Q2949.3438,224.9375 2948.9375,225.0156 Q2948.5313,225.0938 2948.1094,225.125 Q2947.6875,225.1719 2947.1875,225.1719 Q2945.7813,225.1719 2944.75,224.7188 Q2943.7344,224.2656 2943.0625,223.4531 Q2942.3906,222.6406 2942.0625,221.5 Q2941.7344,220.3438 2941.7344,218.9531 Q2941.7344,217.5781 2942.1094,216.4219 Q2942.4844,215.2656 2943.2031,214.4375 Q2943.9219,213.6094 2944.9844,213.1563 Q2946.0469,212.6875 2947.4375,212.6875 Q2948.3438,212.6875 2949.25,212.9219 Q2950.1563,213.1406 2950.9844,213.5469 L2950.1563,215.6406 Q2949.4688,215.3125 2948.7813,215.0781 Q2948.0938,214.8281 2947.4375,214.8281 Z " fill="#000000"/><text fill="#000000" font-family="sans-serif" font-size="14" lengthAdjust="spacing" textLength="120" x="2961.5" y="223.8467">IndexedFileAnchor</text></g><!--class Folder--><g id="elem_Folder"><rect codeLine="32" fill="#CCFFFF" height="32" id="Folder" rx="2.5" ry="2.5" style="stroke:#A9A9A9;stroke-width:0.5;" width="73" x="1160" y="319"/><ellipse cx="1175" cy="335" fill="#FFFFFF" rx="11" ry="11" style="stroke:#181818;stroke-width:1.0;"/><path d="M1174.9375,330.8281 Q1174.1875,330.8281 1173.625,331.125 Q1173.0625,331.4063 1172.6719,331.9375 Q1172.2813,332.4688 1172.0781,333.25 Q1171.8906,334.0156 1171.8906,334.9688 Q1171.8906,335.9375 1172.0625,336.7031 Q1172.25,337.4531 1172.6094,337.9688 Q1172.9844,338.4844 1173.5625,338.7656 Q1174.1406,339.0313 1174.9375,339.0313 Q1175.6719,339.0313 1176.4063,338.8594 Q1177.1563,338.6875 1178.0313,338.3906 L1178.0313,340.5469 Q1177.625,340.7031 1177.2344,340.8281 Q1176.8438,340.9375 1176.4375,341.0156 Q1176.0313,341.0938 1175.6094,341.125 Q1175.1875,341.1719 1174.6875,341.1719 Q1173.2813,341.1719 1172.25,340.7188 Q1171.2344,340.2656 1170.5625,339.4531 Q1169.8906,338.6406 1169.5625,337.5 Q1169.2344,336.3438 1169.2344,334.9531 Q1169.2344,333.5781 1169.6094,332.4219 Q1169.9844,331.2656 1170.7031,330.4375 Q1171.4219,329.6094 1172.4844,329.1563 Q1173.5469,328.6875 1174.9375,328.6875 Q1175.8438,328.6875 1176.75,328.9219 Q1177.6563,329.1406 1178.4844,329.5469 L1177.6563,331.6406 Q1176.9688,331.3125 1176.2813,331.0781 Q1175.5938,330.8281 1174.9375,330.8281 Z " fill="#000000"/><text fill="#000000" font-family="sans-serif" font-size="14" lengthAdjust="spacing" textLength="41" x="1189" y="339.8467">Folder</text></g><!--class ParametricMethod--><g id="elem_ParametricMethod"><rect codeLine="34" fill="#CCFFFF" height="32" id="ParametricMethod" rx="2.5" ry="2.5" style="stroke:#A9A9A9;stroke-width:0.5;" width="151" x="979" y="680"/><ellipse cx="994" cy="696" fill="#FFFFFF" rx="11" ry="11" style="stroke:#181818;stroke-width:1.0;"/><path d="M993.9375,691.8281 Q993.1875,691.8281 992.625,692.125 Q992.0625,692.4063 991.6719,692.9375 Q991.2813,693.4688 991.0781,694.25 Q990.8906,695.0156 990.8906,695.9688 Q990.8906,696.9375 991.0625,697.7031 Q991.25,698.4531 991.6094,698.9688 Q991.9844,699.4844 992.5625,699.7656 Q993.1406,700.0313 993.9375,700.0313 Q994.6719,700.0313 995.4063,699.8594 Q996.1563,699.6875 997.0313,699.3906 L997.0313,701.5469 Q996.625,701.7031 996.2344,701.8281 Q995.8438,701.9375 995.4375,702.0156 Q995.0313,702.0938 994.6094,702.125 Q994.1875,702.1719 993.6875,702.1719 Q992.2813,702.1719 991.25,701.7188 Q990.2344,701.2656 989.5625,700.4531 Q988.8906,699.6406 988.5625,698.5 Q988.2344,697.3438 988.2344,695.9531 Q988.2344,694.5781 988.6094,693.4219 Q988.9844,692.2656 989.7031,691.4375 Q990.4219,690.6094 991.4844,690.1563 Q992.5469,689.6875 993.9375,689.6875 Q994.8438,689.6875 995.75,689.9219 Q996.6563,690.1406 997.4844,690.5469 L996.6563,692.6406 Q995.9688,692.3125 995.2813,692.0781 Q994.5938,691.8281 993.9375,691.8281 Z " fill="#000000"/><text fill="#000000" font-family="sans-serif" font-size="14" lengthAdjust="spacing" textLength="119" x="1008" y="700.8467">ParametricMethod</text></g><!--class Class--><g id="elem_Class"><rect codeLine="36" fill="#CCFFFF" height="32" id="Class" rx="2.5" ry="2.5" style="stroke:#A9A9A9;stroke-width:0.5;" width="63" x="42" y="588"/><ellipse cx="57" cy="604" fill="#FFFFFF" rx="11" ry="11" style="stroke:#181818;stroke-width:1.0;"/><path d="M56.9375,599.8281 Q56.1875,599.8281 55.625,600.125 Q55.0625,600.4063 54.6719,600.9375 Q54.2813,601.4688 54.0781,602.25 Q53.8906,603.0156 53.8906,603.9688 Q53.8906,604.9375 54.0625,605.7031 Q54.25,606.4531 54.6094,606.9688 Q54.9844,607.4844 55.5625,607.7656 Q56.1406,608.0313 56.9375,608.0313 Q57.6719,608.0313 58.4063,607.8594 Q59.1563,607.6875 60.0313,607.3906 L60.0313,609.5469 Q59.625,609.7031 59.2344,609.8281 Q58.8438,609.9375 58.4375,610.0156 Q58.0313,610.0938 57.6094,610.125 Q57.1875,610.1719 56.6875,610.1719 Q55.2813,610.1719 54.25,609.7188 Q53.2344,609.2656 52.5625,608.4531 Q51.8906,607.6406 51.5625,606.5 Q51.2344,605.3438 51.2344,603.9531 Q51.2344,602.5781 51.6094,601.4219 Q51.9844,600.2656 52.7031,599.4375 Q53.4219,598.6094 54.4844,598.1563 Q55.5469,597.6875 56.9375,597.6875 Q57.8438,597.6875 58.75,597.9219 Q59.6563,598.1406 60.4844,598.5469 L59.6563,600.6406 Q58.9688,600.3125 58.2813,600.0781 Q57.5938,599.8281 56.9375,599.8281 Z " fill="#000000"/><text fill="#000000" font-family="sans-serif" font-size="14" lengthAdjust="spacing" textLength="31" x="71" y="608.8467">Class</text></g><!--class Enum--><g id="elem_Enum"><rect codeLine="38" fill="#CCFFFF" height="32" id="Enum" rx="2.5" ry="2.5" style="stroke:#A9A9A9;stroke-width:0.5;" width="68" x="296.5" y="588"/><ellipse cx="311.5" cy="604" fill="#FFFFFF" rx="11" ry="11" style="stroke:#181818;stroke-width:1.0;"/><path d="M311.4375,599.8281 Q310.6875,599.8281 310.125,600.125 Q309.5625,600.4063 309.1719,600.9375 Q308.7813,601.4688 308.5781,602.25 Q308.3906,603.0156 308.3906,603.9688 Q308.3906,604.9375 308.5625,605.7031 Q308.75,606.4531 309.1094,606.9688 Q309.4844,607.4844 310.0625,607.7656 Q310.6406,608.0313 311.4375,608.0313 Q312.1719,608.0313 312.9063,607.8594 Q313.6563,607.6875 314.5313,607.3906 L314.5313,609.5469 Q314.125,609.7031 313.7344,609.8281 Q313.3438,609.9375 312.9375,610.0156 Q312.5313,610.0938 312.1094,610.125 Q311.6875,610.1719 311.1875,610.1719 Q309.7813,610.1719 308.75,609.7188 Q307.7344,609.2656 307.0625,608.4531 Q306.3906,607.6406 306.0625,606.5 Q305.7344,605.3438 305.7344,603.9531 Q305.7344,602.5781 306.1094,601.4219 Q306.4844,600.2656 307.2031,599.4375 Q307.9219,598.6094 308.9844,598.1563 Q310.0469,597.6875 311.4375,597.6875 Q312.3438,597.6875 313.25,597.9219 Q314.1563,598.1406 314.9844,598.5469 L314.1563,600.6406 Q313.4688,600.3125 312.7813,600.0781 Q312.0938,599.8281 311.4375,599.8281 Z " fill="#000000"/><text fill="#000000" font-family="sans-serif" font-size="14" lengthAdjust="spacing" textLength="36" x="325.5" y="608.8467">Enum</text></g><!--class Namespace--><g id="elem_Namespace"><rect codeLine="40" fill="#CCFFFF" height="32" id="Namespace" rx="2.5" ry="2.5" style="stroke:#A9A9A9;stroke-width:0.5;" width="105" x="1267" y="588"/><ellipse cx="1282" cy="604" fill="#FFFFFF" rx="11" ry="11" style="stroke:#181818;stroke-width:1.0;"/><path d="M1281.9375,599.8281 Q1281.1875,599.8281 1280.625,600.125 Q1280.0625,600.4063 1279.6719,600.9375 Q1279.2813,601.4688 1279.0781,602.25 Q1278.8906,603.0156 1278.8906,603.9688 Q1278.8906,604.9375 1279.0625,605.7031 Q1279.25,606.4531 1279.6094,606.9688 Q1279.9844,607.4844 1280.5625,607.7656 Q1281.1406,608.0313 1281.9375,608.0313 Q1282.6719,608.0313 1283.4063,607.8594 Q1284.1563,607.6875 1285.0313,607.3906 L1285.0313,609.5469 Q1284.625,609.7031 1284.2344,609.8281 Q1283.8438,609.9375 1283.4375,610.0156 Q1283.0313,610.0938 1282.6094,610.125 Q1282.1875,610.1719 1281.6875,610.1719 Q1280.2813,610.1719 1279.25,609.7188 Q1278.2344,609.2656 1277.5625,608.4531 Q1276.8906,607.6406 1276.5625,606.5 Q1276.2344,605.3438 1276.2344,603.9531 Q1276.2344,602.5781 1276.6094,601.4219 Q1276.9844,600.2656 1277.7031,599.4375 Q1278.4219,598.6094 1279.4844,598.1563 Q1280.5469,597.6875 1281.9375,597.6875 Q1282.8438,597.6875 1283.75,597.9219 Q1284.6563,598.1406 1285.4844,598.5469 L1284.6563,600.6406 Q1283.9688,600.3125 1283.2813,600.0781 Q1282.5938,599.8281 1281.9375,599.8281 Z " fill="#000000"/><text fill="#000000" font-family="sans-serif" font-size="14" lengthAdjust="spacing" textLength="73" x="1296" y="608.8467">Namespace</text></g><!--class Accessor--><g id="elem_Accessor"><rect codeLine="42" fill="#CCFFFF" height="32" id="Accessor" rx="2.5" ry="2.5" style="stroke:#A9A9A9;stroke-width:0.5;" width="87" x="1165" y="680"/><ellipse cx="1180" cy="696" fill="#FFFFFF" rx="11" ry="11" style="stroke:#181818;stroke-width:1.0;"/><path d="M1179.9375,691.8281 Q1179.1875,691.8281 1178.625,692.125 Q1178.0625,692.4063 1177.6719,692.9375 Q1177.2813,693.4688 1177.0781,694.25 Q1176.8906,695.0156 1176.8906,695.9688 Q1176.8906,696.9375 1177.0625,697.7031 Q1177.25,698.4531 1177.6094,698.9688 Q1177.9844,699.4844 1178.5625,699.7656 Q1179.1406,700.0313 1179.9375,700.0313 Q1180.6719,700.0313 1181.4063,699.8594 Q1182.1563,699.6875 1183.0313,699.3906 L1183.0313,701.5469 Q1182.625,701.7031 1182.2344,701.8281 Q1181.8438,701.9375 1181.4375,702.0156 Q1181.0313,702.0938 1180.6094,702.125 Q1180.1875,702.1719 1179.6875,702.1719 Q1178.2813,702.1719 1177.25,701.7188 Q1176.2344,701.2656 1175.5625,700.4531 Q1174.8906,699.6406 1174.5625,698.5 Q1174.2344,697.3438 1174.2344,695.9531 Q1174.2344,694.5781 1174.6094,693.4219 Q1174.9844,692.2656 1175.7031,691.4375 Q1176.4219,690.6094 1177.4844,690.1563 Q1178.5469,689.6875 1179.9375,689.6875 Q1180.8438,689.6875 1181.75,689.9219 Q1182.6563,690.1406 1183.4844,690.5469 L1182.6563,692.6406 Q1181.9688,692.3125 1181.2813,692.0781 Q1180.5938,691.8281 1179.9375,691.8281 Z " fill="#000000"/><text fill="#000000" font-family="sans-serif" font-size="14" lengthAdjust="spacing" textLength="55" x="1194" y="700.8467">Accessor</text></g><!--class File--><g id="elem_File"><rect codeLine="44" fill="#CCFFFF" height="32" id="File" rx="2.5" ry="2.5" style="stroke:#A9A9A9;stroke-width:0.5;" width="55" x="1268" y="319"/><ellipse cx="1283" cy="335" fill="#FFFFFF" rx="11" ry="11" style="stroke:#181818;stroke-width:1.0;"/><path d="M1282.9375,330.8281 Q1282.1875,330.8281 1281.625,331.125 Q1281.0625,331.4063 1280.6719,331.9375 Q1280.2813,332.4688 1280.0781,333.25 Q1279.8906,334.0156 1279.8906,334.9688 Q1279.8906,335.9375 1280.0625,336.7031 Q1280.25,337.4531 1280.6094,337.9688 Q1280.9844,338.4844 1281.5625,338.7656 Q1282.1406,339.0313 1282.9375,339.0313 Q1283.6719,339.0313 1284.4063,338.8594 Q1285.1563,338.6875 1286.0313,338.3906 L1286.0313,340.5469 Q1285.625,340.7031 1285.2344,340.8281 Q1284.8438,340.9375 1284.4375,341.0156 Q1284.0313,341.0938 1283.6094,341.125 Q1283.1875,341.1719 1282.6875,341.1719 Q1281.2813,341.1719 1280.25,340.7188 Q1279.2344,340.2656 1278.5625,339.4531 Q1277.8906,338.6406 1277.5625,337.5 Q1277.2344,336.3438 1277.2344,334.9531 Q1277.2344,333.5781 1277.6094,332.4219 Q1277.9844,331.2656 1278.7031,330.4375 Q1279.4219,329.6094 1280.4844,329.1563 Q1281.5469,328.6875 1282.9375,328.6875 Q1283.8438,328.6875 1284.75,328.9219 Q1285.6563,329.1406 1286.4844,329.5469 L1285.6563,331.6406 Q1284.9688,331.3125 1284.2813,331.0781 Q1283.5938,330.8281 1282.9375,330.8281 Z " fill="#000000"/><text fill="#000000" font-family="sans-serif" font-size="14" lengthAdjust="spacing" textLength="23" x="1297" y="339.8467">File</text></g><!--class Variable--><g id="elem_Variable"><rect codeLine="46" fill="#CCFFFF" height="32" id="Variable" rx="2.5" ry="2.5" style="stroke:#A9A9A9;stroke-width:0.5;" width="84" x="1351.5" y="459.5"/><ellipse cx="1366.5" cy="475.5" fill="#FFFFFF" rx="11" ry="11" style="stroke:#181818;stroke-width:1.0;"/><path d="M1366.4375,471.3281 Q1365.6875,471.3281 1365.125,471.625 Q1364.5625,471.9063 1364.1719,472.4375 Q1363.7813,472.9688 1363.5781,473.75 Q1363.3906,474.5156 1363.3906,475.4688 Q1363.3906,476.4375 1363.5625,477.2031 Q1363.75,477.9531 1364.1094,478.4688 Q1364.4844,478.9844 1365.0625,479.2656 Q1365.6406,479.5313 1366.4375,479.5313 Q1367.1719,479.5313 1367.9063,479.3594 Q1368.6563,479.1875 1369.5313,478.8906 L1369.5313,481.0469 Q1369.125,481.2031 1368.7344,481.3281 Q1368.3438,481.4375 1367.9375,481.5156 Q1367.5313,481.5938 1367.1094,481.625 Q1366.6875,481.6719 1366.1875,481.6719 Q1364.7813,481.6719 1363.75,481.2188 Q1362.7344,480.7656 1362.0625,479.9531 Q1361.3906,479.1406 1361.0625,478 Q1360.7344,476.8438 1360.7344,475.4531 Q1360.7344,474.0781 1361.1094,472.9219 Q1361.4844,471.7656 1362.2031,470.9375 Q1362.9219,470.1094 1363.9844,469.6563 Q1365.0469,469.1875 1366.4375,469.1875 Q1367.3438,469.1875 1368.25,469.4219 Q1369.1563,469.6406 1369.9844,470.0469 L1369.1563,472.1406 Q1368.4688,471.8125 1367.7813,471.5781 Q1367.0938,471.3281 1366.4375,471.3281 Z " fill="#000000"/><text fill="#000000" font-family="sans-serif" font-size="14" lengthAdjust="spacing" textLength="52" x="1380.5" y="480.3467">Variable</text></g><!--class FamixTypeScriptModel--><g id="elem_FamixTypeScriptModel"><rect codeLine="48" fill="#CCFFFF" height="32" id="FamixTypeScriptModel" rx="2.5" ry="2.5" style="stroke:#A9A9A9;stroke-width:0.5;" width="176" x="3180.5" y="99"/><ellipse cx="3195.5" cy="115" fill="#FFFFFF" rx="11" ry="11" style="stroke:#181818;stroke-width:1.0;"/><path d="M3195.4375,110.8281 Q3194.6875,110.8281 3194.125,111.125 Q3193.5625,111.4063 3193.1719,111.9375 Q3192.7813,112.4688 3192.5781,113.25 Q3192.3906,114.0156 3192.3906,114.9688 Q3192.3906,115.9375 3192.5625,116.7031 Q3192.75,117.4531 3193.1094,117.9688 Q3193.4844,118.4844 3194.0625,118.7656 Q3194.6406,119.0313 3195.4375,119.0313 Q3196.1719,119.0313 3196.9063,118.8594 Q3197.6563,118.6875 3198.5313,118.3906 L3198.5313,120.5469 Q3198.125,120.7031 3197.7344,120.8281 Q3197.3438,120.9375 3196.9375,121.0156 Q3196.5313,121.0938 3196.1094,121.125 Q3195.6875,121.1719 3195.1875,121.1719 Q3193.7813,121.1719 3192.75,120.7188 Q3191.7344,120.2656 3191.0625,119.4531 Q3190.3906,118.6406 3190.0625,117.5 Q3189.7344,116.3438 3189.7344,114.9531 Q3189.7344,113.5781 3190.1094,112.4219 Q3190.4844,111.2656 3191.2031,110.4375 Q3191.9219,109.6094 3192.9844,109.1563 Q3194.0469,108.6875 3195.4375,108.6875 Q3196.3438,108.6875 3197.25,108.9219 Q3198.1563,109.1406 3198.9844,109.5469 L3198.1563,111.6406 Q3197.4688,111.3125 3196.7813,111.0781 Q3196.0938,110.8281 3195.4375,110.8281 Z " fill="#000000"/><text fill="#000000" font-family="sans-serif" font-size="14" lengthAdjust="spacing" textLength="144" x="3209.5" y="119.8467">FamixTypeScriptModel</text></g><!--class Concretization--><g id="elem_Concretization"><rect codeLine="50" fill="#CCFFFF" height="32" id="Concretization" rx="2.5" ry="2.5" style="stroke:#A9A9A9;stroke-width:0.5;" width="123" x="2121" y="99"/><ellipse cx="2136" cy="115" fill="#FFFFFF" rx="11" ry="11" style="stroke:#181818;stroke-width:1.0;"/><path d="M2135.9375,110.8281 Q2135.1875,110.8281 2134.625,111.125 Q2134.0625,111.4063 2133.6719,111.9375 Q2133.2813,112.4688 2133.0781,113.25 Q2132.8906,114.0156 2132.8906,114.9688 Q2132.8906,115.9375 2133.0625,116.7031 Q2133.25,117.4531 2133.6094,117.9688 Q2133.9844,118.4844 2134.5625,118.7656 Q2135.1406,119.0313 2135.9375,119.0313 Q2136.6719,119.0313 2137.4063,118.8594 Q2138.1563,118.6875 2139.0313,118.3906 L2139.0313,120.5469 Q2138.625,120.7031 2138.2344,120.8281 Q2137.8438,120.9375 2137.4375,121.0156 Q2137.0313,121.0938 2136.6094,121.125 Q2136.1875,121.1719 2135.6875,121.1719 Q2134.2813,121.1719 2133.25,120.7188 Q2132.2344,120.2656 2131.5625,119.4531 Q2130.8906,118.6406 2130.5625,117.5 Q2130.2344,116.3438 2130.2344,114.9531 Q2130.2344,113.5781 2130.6094,112.4219 Q2130.9844,111.2656 2131.7031,110.4375 Q2132.4219,109.6094 2133.4844,109.1563 Q2134.5469,108.6875 2135.9375,108.6875 Q2136.8438,108.6875 2137.75,108.9219 Q2138.6563,109.1406 2139.4844,109.5469 L2138.6563,111.6406 Q2137.9688,111.3125 2137.2813,111.0781 Q2136.5938,110.8281 2135.9375,110.8281 Z " fill="#000000"/><text fill="#000000" font-family="sans-serif" font-size="14" lengthAdjust="spacing" textLength="91" x="2150" y="119.8467">Concretization</text></g><!--class Module--><g id="elem_Module"><rect codeLine="52" fill="#CCFFFF" height="32" id="Module" rx="2.5" ry="2.5" style="stroke:#A9A9A9;stroke-width:0.5;" width="80" x="1287.5" y="680"/><ellipse cx="1302.5" cy="696" fill="#FFFFFF" rx="11" ry="11" style="stroke:#181818;stroke-width:1.0;"/><path d="M1302.4375,691.8281 Q1301.6875,691.8281 1301.125,692.125 Q1300.5625,692.4063 1300.1719,692.9375 Q1299.7813,693.4688 1299.5781,694.25 Q1299.3906,695.0156 1299.3906,695.9688 Q1299.3906,696.9375 1299.5625,697.7031 Q1299.75,698.4531 1300.1094,698.9688 Q1300.4844,699.4844 1301.0625,699.7656 Q1301.6406,700.0313 1302.4375,700.0313 Q1303.1719,700.0313 1303.9063,699.8594 Q1304.6563,699.6875 1305.5313,699.3906 L1305.5313,701.5469 Q1305.125,701.7031 1304.7344,701.8281 Q1304.3438,701.9375 1303.9375,702.0156 Q1303.5313,702.0938 1303.1094,702.125 Q1302.6875,702.1719 1302.1875,702.1719 Q1300.7813,702.1719 1299.75,701.7188 Q1298.7344,701.2656 1298.0625,700.4531 Q1297.3906,699.6406 1297.0625,698.5 Q1296.7344,697.3438 1296.7344,695.9531 Q1296.7344,694.5781 1297.1094,693.4219 Q1297.4844,692.2656 1298.2031,691.4375 Q1298.9219,690.6094 1299.9844,690.1563 Q1301.0469,689.6875 1302.4375,689.6875 Q1303.3438,689.6875 1304.25,689.9219 Q1305.1563,690.1406 1305.9844,690.5469 L1305.1563,692.6406 Q1304.4688,692.3125 1303.7813,692.0781 Q1303.0938,691.8281 1302.4375,691.8281 Z " fill="#000000"/><text fill="#000000" font-family="sans-serif" font-size="14" lengthAdjust="spacing" textLength="48" x="1316.5" y="700.8467">Module</text></g><!--class ParametricClass--><g id="elem_ParametricClass"><rect codeLine="54" fill="#CCFFFF" height="32" id="ParametricClass" rx="2.5" ry="2.5" style="stroke:#A9A9A9;stroke-width:0.5;" width="133" x="7" y="680"/><ellipse cx="22" cy="696" fill="#FFFFFF" rx="11" ry="11" style="stroke:#181818;stroke-width:1.0;"/><path d="M21.9375,691.8281 Q21.1875,691.8281 20.625,692.125 Q20.0625,692.4063 19.6719,692.9375 Q19.2813,693.4688 19.0781,694.25 Q18.8906,695.0156 18.8906,695.9688 Q18.8906,696.9375 19.0625,697.7031 Q19.25,698.4531 19.6094,698.9688 Q19.9844,699.4844 20.5625,699.7656 Q21.1406,700.0313 21.9375,700.0313 Q22.6719,700.0313 23.4063,699.8594 Q24.1563,699.6875 25.0313,699.3906 L25.0313,701.5469 Q24.625,701.7031 24.2344,701.8281 Q23.8438,701.9375 23.4375,702.0156 Q23.0313,702.0938 22.6094,702.125 Q22.1875,702.1719 21.6875,702.1719 Q20.2813,702.1719 19.25,701.7188 Q18.2344,701.2656 17.5625,700.4531 Q16.8906,699.6406 16.5625,698.5 Q16.2344,697.3438 16.2344,695.9531 Q16.2344,694.5781 16.6094,693.4219 Q16.9844,692.2656 17.7031,691.4375 Q18.4219,690.6094 19.4844,690.1563 Q20.5469,689.6875 21.9375,689.6875 Q22.8438,689.6875 23.75,689.9219 Q24.6563,690.1406 25.4844,690.5469 L24.6563,692.6406 Q23.9688,692.3125 23.2813,692.0781 Q22.5938,691.8281 21.9375,691.8281 Z " fill="#000000"/><text fill="#000000" font-family="sans-serif" font-size="14" lengthAdjust="spacing" textLength="101" x="36" y="700.8467">ParametricClass</text></g><!--class TClassMetrics--><g id="elem_TClassMetrics"><rect codeLine="56" fill="#CCFFFF" height="32" id="TClassMetrics" rx="2.5" ry="2.5" style="stroke:#A9A9A9;stroke-width:0.5;" width="117" x="15" y="459.5"/><ellipse cx="30" cy="475.5" fill="#FFFFFF" rx="11" ry="11" style="stroke:#181818;stroke-width:1.0;"/><path d="M31.4531,482.25 L28.8906,482.25 L28.8906,472.25 L25.8438,472.25 L25.8438,470.1094 L34.4844,470.1094 L34.4844,472.25 L31.4531,472.25 L31.4531,482.25 Z " fill="#000000"/><text fill="#000000" font-family="sans-serif" font-size="14" lengthAdjust="spacing" textLength="85" x="44" y="480.3467">TClassMetrics</text></g><!--class Inheritance--><g id="elem_Inheritance"><rect codeLine="58" fill="#CCFFFF" height="32" id="Inheritance" rx="2.5" ry="2.5" style="stroke:#A9A9A9;stroke-width:0.5;" width="105" x="2279" y="99"/><ellipse cx="2294" cy="115" fill="#FFFFFF" rx="11" ry="11" style="stroke:#181818;stroke-width:1.0;"/><path d="M2293.9375,110.8281 Q2293.1875,110.8281 2292.625,111.125 Q2292.0625,111.4063 2291.6719,111.9375 Q2291.2813,112.4688 2291.0781,113.25 Q2290.8906,114.0156 2290.8906,114.9688 Q2290.8906,115.9375 2291.0625,116.7031 Q2291.25,117.4531 2291.6094,117.9688 Q2291.9844,118.4844 2292.5625,118.7656 Q2293.1406,119.0313 2293.9375,119.0313 Q2294.6719,119.0313 2295.4063,118.8594 Q2296.1563,118.6875 2297.0313,118.3906 L2297.0313,120.5469 Q2296.625,120.7031 2296.2344,120.8281 Q2295.8438,120.9375 2295.4375,121.0156 Q2295.0313,121.0938 2294.6094,121.125 Q2294.1875,121.1719 2293.6875,121.1719 Q2292.2813,121.1719 2291.25,120.7188 Q2290.2344,120.2656 2289.5625,119.4531 Q2288.8906,118.6406 2288.5625,117.5 Q2288.2344,116.3438 2288.2344,114.9531 Q2288.2344,113.5781 2288.6094,112.4219 Q2288.9844,111.2656 2289.7031,110.4375 Q2290.4219,109.6094 2291.4844,109.1563 Q2292.5469,108.6875 2293.9375,108.6875 Q2294.8438,108.6875 2295.75,108.9219 Q2296.6563,109.1406 2297.4844,109.5469 L2296.6563,111.6406 Q2295.9688,111.3125 2295.2813,111.0781 Q2294.5938,110.8281 2293.9375,110.8281 Z " fill="#000000"/><text fill="#000000" font-family="sans-serif" font-size="14" lengthAdjust="spacing" textLength="73" x="2308" y="119.8467">Inheritance</text></g><!--class Invocation--><g id="elem_Invocation"><rect codeLine="60" fill="#CCFFFF" height="32" id="Invocation" rx="2.5" ry="2.5" style="stroke:#A9A9A9;stroke-width:0.5;" width="98" x="2419.5" y="99"/><ellipse cx="2434.5" cy="115" fill="#FFFFFF" rx="11" ry="11" style="stroke:#181818;stroke-width:1.0;"/><path d="M2434.4375,110.8281 Q2433.6875,110.8281 2433.125,111.125 Q2432.5625,111.4063 2432.1719,111.9375 Q2431.7813,112.4688 2431.5781,113.25 Q2431.3906,114.0156 2431.3906,114.9688 Q2431.3906,115.9375 2431.5625,116.7031 Q2431.75,117.4531 2432.1094,117.9688 Q2432.4844,118.4844 2433.0625,118.7656 Q2433.6406,119.0313 2434.4375,119.0313 Q2435.1719,119.0313 2435.9063,118.8594 Q2436.6563,118.6875 2437.5313,118.3906 L2437.5313,120.5469 Q2437.125,120.7031 2436.7344,120.8281 Q2436.3438,120.9375 2435.9375,121.0156 Q2435.5313,121.0938 2435.1094,121.125 Q2434.6875,121.1719 2434.1875,121.1719 Q2432.7813,121.1719 2431.75,120.7188 Q2430.7344,120.2656 2430.0625,119.4531 Q2429.3906,118.6406 2429.0625,117.5 Q2428.7344,116.3438 2428.7344,114.9531 Q2428.7344,113.5781 2429.1094,112.4219 Q2429.4844,111.2656 2430.2031,110.4375 Q2430.9219,109.6094 2431.9844,109.1563 Q2433.0469,108.6875 2434.4375,108.6875 Q2435.3438,108.6875 2436.25,108.9219 Q2437.1563,109.1406 2437.9844,109.5469 L2437.1563,111.6406 Q2436.4688,111.3125 2435.7813,111.0781 Q2435.0938,110.8281 2434.4375,110.8281 Z " fill="#000000"/><text fill="#000000" font-family="sans-serif" font-size="14" lengthAdjust="spacing" textLength="66" x="2448.5" y="119.8467">Invocation</text></g><!--class implicitVariable--><g id="elem_implicitVariable"><rect codeLine="62" fill="#CCFFFF" height="32" id="implicitVariable" rx="2.5" ry="2.5" style="stroke:#A9A9A9;stroke-width:0.5;" width="132" x="1407.5" y="588"/><ellipse cx="1422.5" cy="604" fill="#FFFFFF" rx="11" ry="11" style="stroke:#181818;stroke-width:1.0;"/><path d="M1422.4375,599.8281 Q1421.6875,599.8281 1421.125,600.125 Q1420.5625,600.4063 1420.1719,600.9375 Q1419.7813,601.4688 1419.5781,602.25 Q1419.3906,603.0156 1419.3906,603.9688 Q1419.3906,604.9375 1419.5625,605.7031 Q1419.75,606.4531 1420.1094,606.9688 Q1420.4844,607.4844 1421.0625,607.7656 Q1421.6406,608.0313 1422.4375,608.0313 Q1423.1719,608.0313 1423.9063,607.8594 Q1424.6563,607.6875 1425.5313,607.3906 L1425.5313,609.5469 Q1425.125,609.7031 1424.7344,609.8281 Q1424.3438,609.9375 1423.9375,610.0156 Q1423.5313,610.0938 1423.1094,610.125 Q1422.6875,610.1719 1422.1875,610.1719 Q1420.7813,610.1719 1419.75,609.7188 Q1418.7344,609.2656 1418.0625,608.4531 Q1417.3906,607.6406 1417.0625,606.5 Q1416.7344,605.3438 1416.7344,603.9531 Q1416.7344,602.5781 1417.1094,601.4219 Q1417.4844,600.2656 1418.2031,599.4375 Q1418.9219,598.6094 1419.9844,598.1563 Q1421.0469,597.6875 1422.4375,597.6875 Q1423.3438,597.6875 1424.25,597.9219 Q1425.1563,598.1406 1425.9844,598.5469 L1425.1563,600.6406 Q1424.4688,600.3125 1423.7813,600.0781 Q1423.0938,599.8281 1422.4375,599.8281 Z " fill="#000000"/><text fill="#000000" font-family="sans-serif" font-size="14" lengthAdjust="spacing" textLength="100" x="1436.5" y="608.8467">implicitVariable</text></g><!--class Function--><g id="elem_Function"><rect codeLine="64" fill="#CCFFFF" height="32" id="Function" rx="2.5" ry="2.5" style="stroke:#A9A9A9;stroke-width:0.5;" width="86" x="883.5" y="588"/><ellipse cx="898.5" cy="604" fill="#FFFFFF" rx="11" ry="11" style="stroke:#181818;stroke-width:1.0;"/><path d="M898.4375,599.8281 Q897.6875,599.8281 897.125,600.125 Q896.5625,600.4063 896.1719,600.9375 Q895.7813,601.4688 895.5781,602.25 Q895.3906,603.0156 895.3906,603.9688 Q895.3906,604.9375 895.5625,605.7031 Q895.75,606.4531 896.1094,606.9688 Q896.4844,607.4844 897.0625,607.7656 Q897.6406,608.0313 898.4375,608.0313 Q899.1719,608.0313 899.9063,607.8594 Q900.6563,607.6875 901.5313,607.3906 L901.5313,609.5469 Q901.125,609.7031 900.7344,609.8281 Q900.3438,609.9375 899.9375,610.0156 Q899.5313,610.0938 899.1094,610.125 Q898.6875,610.1719 898.1875,610.1719 Q896.7813,610.1719 895.75,609.7188 Q894.7344,609.2656 894.0625,608.4531 Q893.3906,607.6406 893.0625,606.5 Q892.7344,605.3438 892.7344,603.9531 Q892.7344,602.5781 893.1094,601.4219 Q893.4844,600.2656 894.2031,599.4375 Q894.9219,598.6094 895.9844,598.1563 Q897.0469,597.6875 898.4375,597.6875 Q899.3438,597.6875 900.25,597.9219 Q901.1563,598.1406 901.9844,598.5469 L901.1563,600.6406 Q900.4688,600.3125 899.7813,600.0781 Q899.0938,599.8281 898.4375,599.8281 Z " fill="#000000"/><text fill="#000000" font-family="sans-serif" font-size="14" lengthAdjust="spacing" textLength="54" x="912.5" y="608.8467">Function</text></g><!--class Method--><g id="elem_Method"><rect codeLine="66" fill="#CCFFFF" height="32" id="Method" rx="2.5" ry="2.5" style="stroke:#A9A9A9;stroke-width:0.5;" width="81" x="1011" y="588"/><ellipse cx="1026" cy="604" fill="#FFFFFF" rx="11" ry="11" style="stroke:#181818;stroke-width:1.0;"/><path d="M1025.9375,599.8281 Q1025.1875,599.8281 1024.625,600.125 Q1024.0625,600.4063 1023.6719,600.9375 Q1023.2813,601.4688 1023.0781,602.25 Q1022.8906,603.0156 1022.8906,603.9688 Q1022.8906,604.9375 1023.0625,605.7031 Q1023.25,606.4531 1023.6094,606.9688 Q1023.9844,607.4844 1024.5625,607.7656 Q1025.1406,608.0313 1025.9375,608.0313 Q1026.6719,608.0313 1027.4063,607.8594 Q1028.1563,607.6875 1029.0313,607.3906 L1029.0313,609.5469 Q1028.625,609.7031 1028.2344,609.8281 Q1027.8438,609.9375 1027.4375,610.0156 Q1027.0313,610.0938 1026.6094,610.125 Q1026.1875,610.1719 1025.6875,610.1719 Q1024.2813,610.1719 1023.25,609.7188 Q1022.2344,609.2656 1021.5625,608.4531 Q1020.8906,607.6406 1020.5625,606.5 Q1020.2344,605.3438 1020.2344,603.9531 Q1020.2344,602.5781 1020.6094,601.4219 Q1020.9844,600.2656 1021.7031,599.4375 Q1022.4219,598.6094 1023.4844,598.1563 Q1024.5469,597.6875 1025.9375,597.6875 Q1026.8438,597.6875 1027.75,597.9219 Q1028.6563,598.1406 1029.4844,598.5469 L1028.6563,600.6406 Q1027.9688,600.3125 1027.2813,600.0781 Q1026.5938,599.8281 1025.9375,599.8281 Z " fill="#000000"/><text fill="#000000" font-family="sans-serif" font-size="14" lengthAdjust="spacing" textLength="49" x="1040" y="608.8467">Method</text></g><!--class JSDoc--><g id="elem_JSDoc"><rect codeLine="68" fill="#CCFFFF" height="32" id="JSDoc" rx="2.5" ry="2.5" style="stroke:#A9A9A9;stroke-width:0.5;" width="67" x="1630" y="203"/><ellipse cx="1645" cy="219" fill="#FFFFFF" rx="11" ry="11" style="stroke:#181818;stroke-width:1.0;"/><path d="M1644.9375,214.8281 Q1644.1875,214.8281 1643.625,215.125 Q1643.0625,215.4063 1642.6719,215.9375 Q1642.2813,216.4688 1642.0781,217.25 Q1641.8906,218.0156 1641.8906,218.9688 Q1641.8906,219.9375 1642.0625,220.7031 Q1642.25,221.4531 1642.6094,221.9688 Q1642.9844,222.4844 1643.5625,222.7656 Q1644.1406,223.0313 1644.9375,223.0313 Q1645.6719,223.0313 1646.4063,222.8594 Q1647.1563,222.6875 1648.0313,222.3906 L1648.0313,224.5469 Q1647.625,224.7031 1647.2344,224.8281 Q1646.8438,224.9375 1646.4375,225.0156 Q1646.0313,225.0938 1645.6094,225.125 Q1645.1875,225.1719 1644.6875,225.1719 Q1643.2813,225.1719 1642.25,224.7188 Q1641.2344,224.2656 1640.5625,223.4531 Q1639.8906,222.6406 1639.5625,221.5 Q1639.2344,220.3438 1639.2344,218.9531 Q1639.2344,217.5781 1639.6094,216.4219 Q1639.9844,215.2656 1640.7031,214.4375 Q1641.4219,213.6094 1642.4844,213.1563 Q1643.5469,212.6875 1644.9375,212.6875 Q1645.8438,212.6875 1646.75,212.9219 Q1647.6563,213.1406 1648.4844,213.5469 L1647.6563,215.6406 Q1646.9688,215.3125 1646.2813,215.0781 Q1645.5938,214.8281 1644.9375,214.8281 Z " fill="#000000"/><text fill="#000000" font-family="sans-serif" font-size="14" lengthAdjust="spacing" textLength="35" x="1659" y="223.8467">JSDoc</text></g><!--class Parameter--><g id="elem_Parameter"><rect codeLine="70" fill="#CCFFFF" height="32" id="Parameter" rx="2.5" ry="2.5" style="stroke:#A9A9A9;stroke-width:0.5;" width="100" x="1470.5" y="459.5"/><ellipse cx="1485.5" cy="475.5" fill="#FFFFFF" rx="11" ry="11" style="stroke:#181818;stroke-width:1.0;"/><path d="M1485.4375,471.3281 Q1484.6875,471.3281 1484.125,471.625 Q1483.5625,471.9063 1483.1719,472.4375 Q1482.7813,472.9688 1482.5781,473.75 Q1482.3906,474.5156 1482.3906,475.4688 Q1482.3906,476.4375 1482.5625,477.2031 Q1482.75,477.9531 1483.1094,478.4688 Q1483.4844,478.9844 1484.0625,479.2656 Q1484.6406,479.5313 1485.4375,479.5313 Q1486.1719,479.5313 1486.9063,479.3594 Q1487.6563,479.1875 1488.5313,478.8906 L1488.5313,481.0469 Q1488.125,481.2031 1487.7344,481.3281 Q1487.3438,481.4375 1486.9375,481.5156 Q1486.5313,481.5938 1486.1094,481.625 Q1485.6875,481.6719 1485.1875,481.6719 Q1483.7813,481.6719 1482.75,481.2188 Q1481.7344,480.7656 1481.0625,479.9531 Q1480.3906,479.1406 1480.0625,478 Q1479.7344,476.8438 1479.7344,475.4531 Q1479.7344,474.0781 1480.1094,472.9219 Q1480.4844,471.7656 1481.2031,470.9375 Q1481.9219,470.1094 1482.9844,469.6563 Q1484.0469,469.1875 1485.4375,469.1875 Q1486.3438,469.1875 1487.25,469.4219 Q1488.1563,469.6406 1488.9844,470.0469 L1488.1563,472.1406 Q1487.4688,471.8125 1486.7813,471.5781 Q1486.0938,471.3281 1485.4375,471.3281 Z " fill="#000000"/><text fill="#000000" font-family="sans-serif" font-size="14" lengthAdjust="spacing" textLength="68" x="1499.5" y="480.3467">Parameter</text></g><!--class TWithInterfaces--><g id="elem_TWithInterfaces"><rect codeLine="72" fill="#CCFFFF" height="32" id="TWithInterfaces" rx="2.5" ry="2.5" style="stroke:#A9A9A9;stroke-width:0.5;" width="132" x="969.5" y="203"/><ellipse cx="984.5" cy="219" fill="#FFFFFF" rx="11" ry="11" style="stroke:#181818;stroke-width:1.0;"/><path d="M985.9531,225.75 L983.3906,225.75 L983.3906,215.75 L980.3438,215.75 L980.3438,213.6094 L988.9844,213.6094 L988.9844,215.75 L985.9531,215.75 L985.9531,225.75 Z " fill="#000000"/><text fill="#000000" font-family="sans-serif" font-size="14" lengthAdjust="spacing" textLength="100" x="998.5" y="223.8467">TWithInterfaces</text></g><!--class Property--><g id="elem_Property"><rect codeLine="74" fill="#CCFFFF" height="105.1875" id="Property" rx="2.5" ry="2.5" style="stroke:#A9A9A9;stroke-width:0.5;" width="197" x="1606" y="423"/><ellipse cx="1672.25" cy="439" fill="#FFFFFF" rx="11" ry="11" style="stroke:#181818;stroke-width:1.0;"/><path d="M1672.1875,434.8281 Q1671.4375,434.8281 1670.875,435.125 Q1670.3125,435.4063 1669.9219,435.9375 Q1669.5313,436.4688 1669.3281,437.25 Q1669.1406,438.0156 1669.1406,438.9688 Q1669.1406,439.9375 1669.3125,440.7031 Q1669.5,441.4531 1669.8594,441.9688 Q1670.2344,442.4844 1670.8125,442.7656 Q1671.3906,443.0313 1672.1875,443.0313 Q1672.9219,443.0313 1673.6563,442.8594 Q1674.4063,442.6875 1675.2813,442.3906 L1675.2813,444.5469 Q1674.875,444.7031 1674.4844,444.8281 Q1674.0938,444.9375 1673.6875,445.0156 Q1673.2813,445.0938 1672.8594,445.125 Q1672.4375,445.1719 1671.9375,445.1719 Q1670.5313,445.1719 1669.5,444.7188 Q1668.4844,444.2656 1667.8125,443.4531 Q1667.1406,442.6406 1666.8125,441.5 Q1666.4844,440.3438 1666.4844,438.9531 Q1666.4844,437.5781 1666.8594,436.4219 Q1667.2344,435.2656 1667.9531,434.4375 Q1668.6719,433.6094 1669.7344,433.1563 Q1670.7969,432.6875 1672.1875,432.6875 Q1673.0938,432.6875 1674,432.9219 Q1674.9063,433.1406 1675.7344,433.5469 L1674.9063,435.6406 Q1674.2188,435.3125 1673.5313,435.0781 Q1672.8438,434.8281 1672.1875,434.8281 Z " fill="#000000"/><text fill="#000000" font-family="sans-serif" font-size="14" lengthAdjust="spacing" textLength="56" x="1692.75" y="443.8467">Property</text><line style="stroke:#A9A9A9;stroke-width:0.5;" x1="1607" x2="1802" y1="455" y2="455"/><text fill="#000000" font-family="sans-serif" font-size="14" lengthAdjust="spacing" textLength="172" x="1612" y="471.9951">Boolean isJavaScriptPrivate</text><text fill="#000000" font-family="sans-serif" font-size="14" lengthAdjust="spacing" textLength="114" x="1612" y="488.292">Boolean readOnly</text><text fill="#000000" font-family="sans-serif" font-size="14" lengthAdjust="spacing" textLength="120" x="1612" y="504.5889">Boolean isOptional</text><text fill="#000000" font-family="sans-serif" font-size="14" lengthAdjust="spacing" textLength="185" x="1612" y="520.8857">Boolean isDefinitelyAssigned</text></g><!--class ContainerEntity--><g id="elem_ContainerEntity"><rect codeLine="80" fill="#CCFFFF" height="32" id="ContainerEntity" rx="2.5" ry="2.5" style="stroke:#A9A9A9;stroke-width:0.5;" width="130" x="970.5" y="319"/><ellipse cx="985.5" cy="335" fill="#FFFFFF" rx="11" ry="11" style="stroke:#181818;stroke-width:1.0;"/><path d="M985.4375,330.8281 Q984.6875,330.8281 984.125,331.125 Q983.5625,331.4063 983.1719,331.9375 Q982.7813,332.4688 982.5781,333.25 Q982.3906,334.0156 982.3906,334.9688 Q982.3906,335.9375 982.5625,336.7031 Q982.75,337.4531 983.1094,337.9688 Q983.4844,338.4844 984.0625,338.7656 Q984.6406,339.0313 985.4375,339.0313 Q986.1719,339.0313 986.9063,338.8594 Q987.6563,338.6875 988.5313,338.3906 L988.5313,340.5469 Q988.125,340.7031 987.7344,340.8281 Q987.3438,340.9375 986.9375,341.0156 Q986.5313,341.0938 986.1094,341.125 Q985.6875,341.1719 985.1875,341.1719 Q983.7813,341.1719 982.75,340.7188 Q981.7344,340.2656 981.0625,339.4531 Q980.3906,338.6406 980.0625,337.5 Q979.7344,336.3438 979.7344,334.9531 Q979.7344,333.5781 980.1094,332.4219 Q980.4844,331.2656 981.2031,330.4375 Q981.9219,329.6094 982.9844,329.1563 Q984.0469,328.6875 985.4375,328.6875 Q986.3438,328.6875 987.25,328.9219 Q988.1563,329.1406 988.9844,329.5469 L988.1563,331.6406 Q987.4688,331.3125 986.7813,331.0781 Q986.0938,330.8281 985.4375,330.8281 Z " fill="#000000"/><text fill="#000000" font-family="sans-serif" font-size="14" lengthAdjust="spacing" textLength="98" x="999.5" y="339.8467">ContainerEntity</text></g><!--class Alias--><g id="elem_Alias"><rect codeLine="82" fill="#CCFFFF" height="32" id="Alias" rx="2.5" ry="2.5" style="stroke:#A9A9A9;stroke-width:0.5;" width="62" x="1358.5" y="319"/><ellipse cx="1373.5" cy="335" fill="#FFFFFF" rx="11" ry="11" style="stroke:#181818;stroke-width:1.0;"/><path d="M1373.4375,330.8281 Q1372.6875,330.8281 1372.125,331.125 Q1371.5625,331.4063 1371.1719,331.9375 Q1370.7813,332.4688 1370.5781,333.25 Q1370.3906,334.0156 1370.3906,334.9688 Q1370.3906,335.9375 1370.5625,336.7031 Q1370.75,337.4531 1371.1094,337.9688 Q1371.4844,338.4844 1372.0625,338.7656 Q1372.6406,339.0313 1373.4375,339.0313 Q1374.1719,339.0313 1374.9063,338.8594 Q1375.6563,338.6875 1376.5313,338.3906 L1376.5313,340.5469 Q1376.125,340.7031 1375.7344,340.8281 Q1375.3438,340.9375 1374.9375,341.0156 Q1374.5313,341.0938 1374.1094,341.125 Q1373.6875,341.1719 1373.1875,341.1719 Q1371.7813,341.1719 1370.75,340.7188 Q1369.7344,340.2656 1369.0625,339.4531 Q1368.3906,338.6406 1368.0625,337.5 Q1367.7344,336.3438 1367.7344,334.9531 Q1367.7344,333.5781 1368.1094,332.4219 Q1368.4844,331.2656 1369.2031,330.4375 Q1369.9219,329.6094 1370.9844,329.1563 Q1372.0469,328.6875 1373.4375,328.6875 Q1374.3438,328.6875 1375.25,328.9219 Q1376.1563,329.1406 1376.9844,329.5469 L1376.1563,331.6406 Q1375.4688,331.3125 1374.7813,331.0781 Q1374.0938,330.8281 1373.4375,330.8281 Z " fill="#000000"/><text fill="#000000" font-family="sans-serif" font-size="14" lengthAdjust="spacing" textLength="30" x="1387.5" y="339.8467">Alias</text></g><!--class StructuralEntity--><g id="elem_StructuralEntity"><rect codeLine="84" fill="#CCFFFF" height="32" id="StructuralEntity" rx="2.5" ry="2.5" style="stroke:#A9A9A9;stroke-width:0.5;" width="130" x="1455.5" y="319"/><ellipse cx="1470.5" cy="335" fill="#FFFFFF" rx="11" ry="11" style="stroke:#181818;stroke-width:1.0;"/><path d="M1470.4375,330.8281 Q1469.6875,330.8281 1469.125,331.125 Q1468.5625,331.4063 1468.1719,331.9375 Q1467.7813,332.4688 1467.5781,333.25 Q1467.3906,334.0156 1467.3906,334.9688 Q1467.3906,335.9375 1467.5625,336.7031 Q1467.75,337.4531 1468.1094,337.9688 Q1468.4844,338.4844 1469.0625,338.7656 Q1469.6406,339.0313 1470.4375,339.0313 Q1471.1719,339.0313 1471.9063,338.8594 Q1472.6563,338.6875 1473.5313,338.3906 L1473.5313,340.5469 Q1473.125,340.7031 1472.7344,340.8281 Q1472.3438,340.9375 1471.9375,341.0156 Q1471.5313,341.0938 1471.1094,341.125 Q1470.6875,341.1719 1470.1875,341.1719 Q1468.7813,341.1719 1467.75,340.7188 Q1466.7344,340.2656 1466.0625,339.4531 Q1465.3906,338.6406 1465.0625,337.5 Q1464.7344,336.3438 1464.7344,334.9531 Q1464.7344,333.5781 1465.1094,332.4219 Q1465.4844,331.2656 1466.2031,330.4375 Q1466.9219,329.6094 1467.9844,329.1563 Q1469.0469,328.6875 1470.4375,328.6875 Q1471.3438,328.6875 1472.25,328.9219 Q1473.1563,329.1406 1473.9844,329.5469 L1473.1563,331.6406 Q1472.4688,331.3125 1471.7813,331.0781 Q1471.0938,330.8281 1470.4375,330.8281 Z " fill="#000000"/><text fill="#000000" font-family="sans-serif" font-size="14" lengthAdjust="spacing" textLength="98" x="1484.5" y="339.8467">StructuralEntity</text></g><!--class Interface--><g id="elem_Interface"><rect codeLine="86" fill="#CCFFFF" height="32" id="Interface" rx="2.5" ry="2.5" style="stroke:#A9A9A9;stroke-width:0.5;" width="90" x="399.5" y="588"/><ellipse cx="414.5" cy="604" fill="#FFFFFF" rx="11" ry="11" style="stroke:#181818;stroke-width:1.0;"/><path d="M414.4375,599.8281 Q413.6875,599.8281 413.125,600.125 Q412.5625,600.4063 412.1719,600.9375 Q411.7813,601.4688 411.5781,602.25 Q411.3906,603.0156 411.3906,603.9688 Q411.3906,604.9375 411.5625,605.7031 Q411.75,606.4531 412.1094,606.9688 Q412.4844,607.4844 413.0625,607.7656 Q413.6406,608.0313 414.4375,608.0313 Q415.1719,608.0313 415.9063,607.8594 Q416.6563,607.6875 417.5313,607.3906 L417.5313,609.5469 Q417.125,609.7031 416.7344,609.8281 Q416.3438,609.9375 415.9375,610.0156 Q415.5313,610.0938 415.1094,610.125 Q414.6875,610.1719 414.1875,610.1719 Q412.7813,610.1719 411.75,609.7188 Q410.7344,609.2656 410.0625,608.4531 Q409.3906,607.6406 409.0625,606.5 Q408.7344,605.3438 408.7344,603.9531 Q408.7344,602.5781 409.1094,601.4219 Q409.4844,600.2656 410.2031,599.4375 Q410.9219,598.6094 411.9844,598.1563 Q413.0469,597.6875 414.4375,597.6875 Q415.3438,597.6875 416.25,597.9219 Q417.1563,598.1406 417.9844,598.5469 L417.1563,600.6406 Q416.4688,600.3125 415.7813,600.0781 Q415.0938,599.8281 414.4375,599.8281 Z " fill="#000000"/><text fill="#000000" font-family="sans-serif" font-size="14" lengthAdjust="spacing" textLength="58" x="428.5" y="608.8467">Interface</text></g><!--class Implementation--><g id="elem_Implementation"><rect codeLine="88" fill="#CCFFFF" height="32" id="Implementation" rx="2.5" ry="2.5" style="stroke:#A9A9A9;stroke-width:0.5;" width="136" x="2552.5" y="99"/><ellipse cx="2567.5" cy="115" fill="#FFFFFF" rx="11" ry="11" style="stroke:#181818;stroke-width:1.0;"/><path d="M2567.4375,110.8281 Q2566.6875,110.8281 2566.125,111.125 Q2565.5625,111.4063 2565.1719,111.9375 Q2564.7813,112.4688 2564.5781,113.25 Q2564.3906,114.0156 2564.3906,114.9688 Q2564.3906,115.9375 2564.5625,116.7031 Q2564.75,117.4531 2565.1094,117.9688 Q2565.4844,118.4844 2566.0625,118.7656 Q2566.6406,119.0313 2567.4375,119.0313 Q2568.1719,119.0313 2568.9063,118.8594 Q2569.6563,118.6875 2570.5313,118.3906 L2570.5313,120.5469 Q2570.125,120.7031 2569.7344,120.8281 Q2569.3438,120.9375 2568.9375,121.0156 Q2568.5313,121.0938 2568.1094,121.125 Q2567.6875,121.1719 2567.1875,121.1719 Q2565.7813,121.1719 2564.75,120.7188 Q2563.7344,120.2656 2563.0625,119.4531 Q2562.3906,118.6406 2562.0625,117.5 Q2561.7344,116.3438 2561.7344,114.9531 Q2561.7344,113.5781 2562.1094,112.4219 Q2562.4844,111.2656 2563.2031,110.4375 Q2563.9219,109.6094 2564.9844,109.1563 Q2566.0469,108.6875 2567.4375,108.6875 Q2568.3438,108.6875 2569.25,108.9219 Q2570.1563,109.1406 2570.9844,109.5469 L2570.1563,111.6406 Q2569.4688,111.3125 2568.7813,111.0781 Q2568.0938,110.8281 2567.4375,110.8281 Z " fill="#000000"/><text fill="#000000" font-family="sans-serif" font-size="14" lengthAdjust="spacing" textLength="104" x="2581.5" y="119.8467">Implementation</text></g><!--class Type--><g id="elem_Type"><rect codeLine="90" fill="#CCFFFF" height="32" id="Type" rx="2.5" ry="2.5" style="stroke:#A9A9A9;stroke-width:0.5;" width="62" x="356.5" y="459.5"/><ellipse cx="371.5" cy="475.5" fill="#FFFFFF" rx="11" ry="11" style="stroke:#181818;stroke-width:1.0;"/><path d="M371.4375,471.3281 Q370.6875,471.3281 370.125,471.625 Q369.5625,471.9063 369.1719,472.4375 Q368.7813,472.9688 368.5781,473.75 Q368.3906,474.5156 368.3906,475.4688 Q368.3906,476.4375 368.5625,477.2031 Q368.75,477.9531 369.1094,478.4688 Q369.4844,478.9844 370.0625,479.2656 Q370.6406,479.5313 371.4375,479.5313 Q372.1719,479.5313 372.9063,479.3594 Q373.6563,479.1875 374.5313,478.8906 L374.5313,481.0469 Q374.125,481.2031 373.7344,481.3281 Q373.3438,481.4375 372.9375,481.5156 Q372.5313,481.5938 372.1094,481.625 Q371.6875,481.6719 371.1875,481.6719 Q369.7813,481.6719 368.75,481.2188 Q367.7344,480.7656 367.0625,479.9531 Q366.3906,479.1406 366.0625,478 Q365.7344,476.8438 365.7344,475.4531 Q365.7344,474.0781 366.1094,472.9219 Q366.4844,471.7656 367.2031,470.9375 Q367.9219,470.1094 368.9844,469.6563 Q370.0469,469.1875 371.4375,469.1875 Q372.3438,469.1875 373.25,469.4219 Q374.1563,469.6406 374.9844,470.0469 L374.1563,472.1406 Q373.4688,471.8125 372.7813,471.5781 Q372.0938,471.3281 371.4375,471.3281 Z " fill="#000000"/><text fill="#000000" font-family="sans-serif" font-size="14" lengthAdjust="spacing" textLength="30" x="385.5" y="480.3467">Type</text></g><!--class ParameterType--><g id="elem_ParameterType"><rect codeLine="92" fill="#CCFFFF" height="32" id="ParameterType" rx="2.5" ry="2.5" style="stroke:#A9A9A9;stroke-width:0.5;" width="130" x="524.5" y="588"/><ellipse cx="539.5" cy="604" fill="#FFFFFF" rx="11" ry="11" style="stroke:#181818;stroke-width:1.0;"/><path d="M539.4375,599.8281 Q538.6875,599.8281 538.125,600.125 Q537.5625,600.4063 537.1719,600.9375 Q536.7813,601.4688 536.5781,602.25 Q536.3906,603.0156 536.3906,603.9688 Q536.3906,604.9375 536.5625,605.7031 Q536.75,606.4531 537.1094,606.9688 Q537.4844,607.4844 538.0625,607.7656 Q538.6406,608.0313 539.4375,608.0313 Q540.1719,608.0313 540.9063,607.8594 Q541.6563,607.6875 542.5313,607.3906 L542.5313,609.5469 Q542.125,609.7031 541.7344,609.8281 Q541.3438,609.9375 540.9375,610.0156 Q540.5313,610.0938 540.1094,610.125 Q539.6875,610.1719 539.1875,610.1719 Q537.7813,610.1719 536.75,609.7188 Q535.7344,609.2656 535.0625,608.4531 Q534.3906,607.6406 534.0625,606.5 Q533.7344,605.3438 533.7344,603.9531 Q533.7344,602.5781 534.1094,601.4219 Q534.4844,600.2656 535.2031,599.4375 Q535.9219,598.6094 536.9844,598.1563 Q538.0469,597.6875 539.4375,597.6875 Q540.3438,597.6875 541.25,597.9219 Q542.1563,598.1406 542.9844,598.5469 L542.1563,600.6406 Q541.4688,600.3125 540.7813,600.0781 Q540.0938,599.8281 539.4375,599.8281 Z " fill="#000000"/><text fill="#000000" font-family="sans-serif" font-size="14" lengthAdjust="spacing" textLength="98" x="553.5" y="608.8467">ParameterType</text></g><!--class Reference--><g id="elem_Reference"><rect codeLine="94" fill="#CCFFFF" height="32" id="Reference" rx="2.5" ry="2.5" style="stroke:#A9A9A9;stroke-width:0.5;" width="97" x="2724" y="99"/><ellipse cx="2739" cy="115" fill="#FFFFFF" rx="11" ry="11" style="stroke:#181818;stroke-width:1.0;"/><path d="M2738.9375,110.8281 Q2738.1875,110.8281 2737.625,111.125 Q2737.0625,111.4063 2736.6719,111.9375 Q2736.2813,112.4688 2736.0781,113.25 Q2735.8906,114.0156 2735.8906,114.9688 Q2735.8906,115.9375 2736.0625,116.7031 Q2736.25,117.4531 2736.6094,117.9688 Q2736.9844,118.4844 2737.5625,118.7656 Q2738.1406,119.0313 2738.9375,119.0313 Q2739.6719,119.0313 2740.4063,118.8594 Q2741.1563,118.6875 2742.0313,118.3906 L2742.0313,120.5469 Q2741.625,120.7031 2741.2344,120.8281 Q2740.8438,120.9375 2740.4375,121.0156 Q2740.0313,121.0938 2739.6094,121.125 Q2739.1875,121.1719 2738.6875,121.1719 Q2737.2813,121.1719 2736.25,120.7188 Q2735.2344,120.2656 2734.5625,119.4531 Q2733.8906,118.6406 2733.5625,117.5 Q2733.2344,116.3438 2733.2344,114.9531 Q2733.2344,113.5781 2733.6094,112.4219 Q2733.9844,111.2656 2734.7031,110.4375 Q2735.4219,109.6094 2736.4844,109.1563 Q2737.5469,108.6875 2738.9375,108.6875 Q2739.8438,108.6875 2740.75,108.9219 Q2741.6563,109.1406 2742.4844,109.5469 L2741.6563,111.6406 Q2740.9688,111.3125 2740.2813,111.0781 Q2739.5938,110.8281 2738.9375,110.8281 Z " fill="#000000"/><text fill="#000000" font-family="sans-serif" font-size="14" lengthAdjust="spacing" textLength="65" x="2753" y="119.8467">Reference</text></g><!--class EnumValue--><g id="elem_EnumValue"><rect codeLine="96" fill="#CCFFFF" height="32" id="EnumValue" rx="2.5" ry="2.5" style="stroke:#A9A9A9;stroke-width:0.5;" width="103" x="1838" y="459.5"/><ellipse cx="1853" cy="475.5" fill="#FFFFFF" rx="11" ry="11" style="stroke:#181818;stroke-width:1.0;"/><path d="M1852.9375,471.3281 Q1852.1875,471.3281 1851.625,471.625 Q1851.0625,471.9063 1850.6719,472.4375 Q1850.2813,472.9688 1850.0781,473.75 Q1849.8906,474.5156 1849.8906,475.4688 Q1849.8906,476.4375 1850.0625,477.2031 Q1850.25,477.9531 1850.6094,478.4688 Q1850.9844,478.9844 1851.5625,479.2656 Q1852.1406,479.5313 1852.9375,479.5313 Q1853.6719,479.5313 1854.4063,479.3594 Q1855.1563,479.1875 1856.0313,478.8906 L1856.0313,481.0469 Q1855.625,481.2031 1855.2344,481.3281 Q1854.8438,481.4375 1854.4375,481.5156 Q1854.0313,481.5938 1853.6094,481.625 Q1853.1875,481.6719 1852.6875,481.6719 Q1851.2813,481.6719 1850.25,481.2188 Q1849.2344,480.7656 1848.5625,479.9531 Q1847.8906,479.1406 1847.5625,478 Q1847.2344,476.8438 1847.2344,475.4531 Q1847.2344,474.0781 1847.6094,472.9219 Q1847.9844,471.7656 1848.7031,470.9375 Q1849.4219,470.1094 1850.4844,469.6563 Q1851.5469,469.1875 1852.9375,469.1875 Q1853.8438,469.1875 1854.75,469.4219 Q1855.6563,469.6406 1856.4844,470.0469 L1855.6563,472.1406 Q1854.9688,471.8125 1854.2813,471.5781 Q1853.5938,471.3281 1852.9375,471.3281 Z " fill="#000000"/><text fill="#000000" font-family="sans-serif" font-size="14" lengthAdjust="spacing" textLength="71" x="1867" y="480.3467">EnumValue</text></g><!--class BehaviouralEntity--><g id="elem_BehaviouralEntity"><rect codeLine="98" fill="#CCFFFF" height="32" id="BehaviouralEntity" rx="2.5" ry="2.5" style="stroke:#A9A9A9;stroke-width:0.5;" width="144" x="898.5" y="459.5"/><ellipse cx="913.5" cy="475.5" fill="#FFFFFF" rx="11" ry="11" style="stroke:#181818;stroke-width:1.0;"/><path d="M913.4375,471.3281 Q912.6875,471.3281 912.125,471.625 Q911.5625,471.9063 911.1719,472.4375 Q910.7813,472.9688 910.5781,473.75 Q910.3906,474.5156 910.3906,475.4688 Q910.3906,476.4375 910.5625,477.2031 Q910.75,477.9531 911.1094,478.4688 Q911.4844,478.9844 912.0625,479.2656 Q912.6406,479.5313 913.4375,479.5313 Q914.1719,479.5313 914.9063,479.3594 Q915.6563,479.1875 916.5313,478.8906 L916.5313,481.0469 Q916.125,481.2031 915.7344,481.3281 Q915.3438,481.4375 914.9375,481.5156 Q914.5313,481.5938 914.1094,481.625 Q913.6875,481.6719 913.1875,481.6719 Q911.7813,481.6719 910.75,481.2188 Q909.7344,480.7656 909.0625,479.9531 Q908.3906,479.1406 908.0625,478 Q907.7344,476.8438 907.7344,475.4531 Q907.7344,474.0781 908.1094,472.9219 Q908.4844,471.7656 909.2031,470.9375 Q909.9219,470.1094 910.9844,469.6563 Q912.0469,469.1875 913.4375,469.1875 Q914.3438,469.1875 915.25,469.4219 Q916.1563,469.6406 916.9844,470.0469 L916.1563,472.1406 Q915.4688,471.8125 914.7813,471.5781 Q914.0938,471.3281 913.4375,471.3281 Z " fill="#000000"/><text fill="#000000" font-family="sans-serif" font-size="14" lengthAdjust="spacing" textLength="112" x="927.5" y="480.3467">BehaviouralEntity</text></g><!--class ParametricFunction--><g id="elem_ParametricFunction"><rect codeLine="100" fill="#CCFFFF" height="32" id="ParametricFunction" rx="2.5" ry="2.5" style="stroke:#A9A9A9;stroke-width:0.5;" width="156" x="787.5" y="680"/><ellipse cx="802.5" cy="696" fill="#FFFFFF" rx="11" ry="11" style="stroke:#181818;stroke-width:1.0;"/><path d="M802.4375,691.8281 Q801.6875,691.8281 801.125,692.125 Q800.5625,692.4063 800.1719,692.9375 Q799.7813,693.4688 799.5781,694.25 Q799.3906,695.0156 799.3906,695.9688 Q799.3906,696.9375 799.5625,697.7031 Q799.75,698.4531 800.1094,698.9688 Q800.4844,699.4844 801.0625,699.7656 Q801.6406,700.0313 802.4375,700.0313 Q803.1719,700.0313 803.9063,699.8594 Q804.6563,699.6875 805.5313,699.3906 L805.5313,701.5469 Q805.125,701.7031 804.7344,701.8281 Q804.3438,701.9375 803.9375,702.0156 Q803.5313,702.0938 803.1094,702.125 Q802.6875,702.1719 802.1875,702.1719 Q800.7813,702.1719 799.75,701.7188 Q798.7344,701.2656 798.0625,700.4531 Q797.3906,699.6406 797.0625,698.5 Q796.7344,697.3438 796.7344,695.9531 Q796.7344,694.5781 797.1094,693.4219 Q797.4844,692.2656 798.2031,691.4375 Q798.9219,690.6094 799.9844,690.1563 Q801.0469,689.6875 802.4375,689.6875 Q803.3438,689.6875 804.25,689.9219 Q805.1563,690.1406 805.9844,690.5469 L805.1563,692.6406 Q804.4688,692.3125 803.7813,692.0781 Q803.0938,691.8281 802.4375,691.8281 Z " fill="#000000"/><text fill="#000000" font-family="sans-serif" font-size="14" lengthAdjust="spacing" textLength="124" x="816.5" y="700.8467">ParametricFunction</text></g><!--class SourceAnchor--><g id="elem_SourceAnchor"><rect codeLine="102" fill="#CCFFFF" height="32" id="SourceAnchor" rx="2.5" ry="2.5" style="stroke:#A9A9A9;stroke-width:0.5;" width="120" x="2856.5" y="99"/><ellipse cx="2871.5" cy="115" fill="#FFFFFF" rx="11" ry="11" style="stroke:#181818;stroke-width:1.0;"/><path d="M2871.4375,110.8281 Q2870.6875,110.8281 2870.125,111.125 Q2869.5625,111.4063 2869.1719,111.9375 Q2868.7813,112.4688 2868.5781,113.25 Q2868.3906,114.0156 2868.3906,114.9688 Q2868.3906,115.9375 2868.5625,116.7031 Q2868.75,117.4531 2869.1094,117.9688 Q2869.4844,118.4844 2870.0625,118.7656 Q2870.6406,119.0313 2871.4375,119.0313 Q2872.1719,119.0313 2872.9063,118.8594 Q2873.6563,118.6875 2874.5313,118.3906 L2874.5313,120.5469 Q2874.125,120.7031 2873.7344,120.8281 Q2873.3438,120.9375 2872.9375,121.0156 Q2872.5313,121.0938 2872.1094,121.125 Q2871.6875,121.1719 2871.1875,121.1719 Q2869.7813,121.1719 2868.75,120.7188 Q2867.7344,120.2656 2867.0625,119.4531 Q2866.3906,118.6406 2866.0625,117.5 Q2865.7344,116.3438 2865.7344,114.9531 Q2865.7344,113.5781 2866.1094,112.4219 Q2866.4844,111.2656 2867.2031,110.4375 Q2867.9219,109.6094 2868.9844,109.1563 Q2870.0469,108.6875 2871.4375,108.6875 Q2872.3438,108.6875 2873.25,108.9219 Q2874.1563,109.1406 2874.9844,109.5469 L2874.1563,111.6406 Q2873.4688,111.3125 2872.7813,111.0781 Q2872.0938,110.8281 2871.4375,110.8281 Z " fill="#000000"/><text fill="#000000" font-family="sans-serif" font-size="14" lengthAdjust="spacing" textLength="88" x="2885.5" y="119.8467">SourceAnchor</text></g><!--class ScopingEntity--><g id="elem_ScopingEntity"><rect codeLine="104" fill="#CCFFFF" height="32" id="ScopingEntity" rx="2.5" ry="2.5" style="stroke:#A9A9A9;stroke-width:0.5;" width="116" x="1121.5" y="459.5"/><ellipse cx="1136.5" cy="475.5" fill="#FFFFFF" rx="11" ry="11" style="stroke:#181818;stroke-width:1.0;"/><path d="M1136.4375,471.3281 Q1135.6875,471.3281 1135.125,471.625 Q1134.5625,471.9063 1134.1719,472.4375 Q1133.7813,472.9688 1133.5781,473.75 Q1133.3906,474.5156 1133.3906,475.4688 Q1133.3906,476.4375 1133.5625,477.2031 Q1133.75,477.9531 1134.1094,478.4688 Q1134.4844,478.9844 1135.0625,479.2656 Q1135.6406,479.5313 1136.4375,479.5313 Q1137.1719,479.5313 1137.9063,479.3594 Q1138.6563,479.1875 1139.5313,478.8906 L1139.5313,481.0469 Q1139.125,481.2031 1138.7344,481.3281 Q1138.3438,481.4375 1137.9375,481.5156 Q1137.5313,481.5938 1137.1094,481.625 Q1136.6875,481.6719 1136.1875,481.6719 Q1134.7813,481.6719 1133.75,481.2188 Q1132.7344,480.7656 1132.0625,479.9531 Q1131.3906,479.1406 1131.0625,478 Q1130.7344,476.8438 1130.7344,475.4531 Q1130.7344,474.0781 1131.1094,472.9219 Q1131.4844,471.7656 1132.2031,470.9375 Q1132.9219,470.1094 1133.9844,469.6563 Q1135.0469,469.1875 1136.4375,469.1875 Q1137.3438,469.1875 1138.25,469.4219 Q1139.1563,469.6406 1139.9844,470.0469 L1139.1563,472.1406 Q1138.4688,471.8125 1137.7813,471.5781 Q1137.0938,471.3281 1136.4375,471.3281 Z " fill="#000000"/><text fill="#000000" font-family="sans-serif" font-size="14" lengthAdjust="spacing" textLength="84" x="1150.5" y="480.3467">ScopingEntity</text></g><!--class Decorator--><g id="elem_Decorator"><rect codeLine="106" fill="#CCFFFF" height="56.2969" id="Decorator" rx="2.5" ry="2.5" style="stroke:#A9A9A9;stroke-width:0.5;" width="122" x="1620.5" y="307"/><ellipse cx="1647.2" cy="323" fill="#FFFFFF" rx="11" ry="11" style="stroke:#181818;stroke-width:1.0;"/><path d="M1647.1375,318.8281 Q1646.3875,318.8281 1645.825,319.125 Q1645.2625,319.4063 1644.8719,319.9375 Q1644.4813,320.4688 1644.2781,321.25 Q1644.0906,322.0156 1644.0906,322.9688 Q1644.0906,323.9375 1644.2625,324.7031 Q1644.45,325.4531 1644.8094,325.9688 Q1645.1844,326.4844 1645.7625,326.7656 Q1646.3406,327.0313 1647.1375,327.0313 Q1647.8719,327.0313 1648.6063,326.8594 Q1649.3563,326.6875 1650.2313,326.3906 L1650.2313,328.5469 Q1649.825,328.7031 1649.4344,328.8281 Q1649.0438,328.9375 1648.6375,329.0156 Q1648.2313,329.0938 1647.8094,329.125 Q1647.3875,329.1719 1646.8875,329.1719 Q1645.4813,329.1719 1644.45,328.7188 Q1643.4344,328.2656 1642.7625,327.4531 Q1642.0906,326.6406 1641.7625,325.5 Q1641.4344,324.3438 1641.4344,322.9531 Q1641.4344,321.5781 1641.8094,320.4219 Q1642.1844,319.2656 1642.9031,318.4375 Q1643.6219,317.6094 1644.6844,317.1563 Q1645.7469,316.6875 1647.1375,316.6875 Q1648.0438,316.6875 1648.95,316.9219 Q1649.8563,317.1406 1650.6844,317.5469 L1649.8563,319.6406 Q1649.1688,319.3125 1648.4813,319.0781 Q1647.7938,318.8281 1647.1375,318.8281 Z " fill="#000000"/><text fill="#000000" font-family="sans-serif" font-size="14" lengthAdjust="spacing" textLength="64" x="1663.8" y="327.8467">Decorator</text><line style="stroke:#A9A9A9;stroke-width:0.5;" x1="1621.5" x2="1741.5" y1="339" y2="339"/><text fill="#000000" font-family="sans-serif" font-size="14" lengthAdjust="spacing" textLength="110" x="1626.5" y="355.9951">String expression</text></g><!--class TEntityCreator--><g id="elem_TEntityCreator"><rect codeLine="109" fill="#CCFFFF" height="32" id="TEntityCreator" rx="2.5" ry="2.5" style="stroke:#A9A9A9;stroke-width:0.5;" width="123" x="3207" y="7"/><ellipse cx="3222" cy="23" fill="#FFFFFF" rx="11" ry="11" style="stroke:#181818;stroke-width:1.0;"/><path d="M3223.4531,29.75 L3220.8906,29.75 L3220.8906,19.75 L3217.8438,19.75 L3217.8438,17.6094 L3226.4844,17.6094 L3226.4844,19.75 L3223.4531,19.75 L3223.4531,29.75 Z " fill="#000000"/><text fill="#000000" font-family="sans-serif" font-size="14" lengthAdjust="spacing" textLength="91" x="3236" y="27.8467">TEntityCreator</text></g><!--class SourcedEntity--><g id="elem_SourcedEntity"><rect codeLine="111" fill="#CCFFFF" height="32" id="SourcedEntity" rx="2.5" ry="2.5" style="stroke:#A9A9A9;stroke-width:0.5;" width="119" x="1479" y="99"/><ellipse cx="1494" cy="115" fill="#FFFFFF" rx="11" ry="11" style="stroke:#181818;stroke-width:1.0;"/><path d="M1493.9375,110.8281 Q1493.1875,110.8281 1492.625,111.125 Q1492.0625,111.4063 1491.6719,111.9375 Q1491.2813,112.4688 1491.0781,113.25 Q1490.8906,114.0156 1490.8906,114.9688 Q1490.8906,115.9375 1491.0625,116.7031 Q1491.25,117.4531 1491.6094,117.9688 Q1491.9844,118.4844 1492.5625,118.7656 Q1493.1406,119.0313 1493.9375,119.0313 Q1494.6719,119.0313 1495.4063,118.8594 Q1496.1563,118.6875 1497.0313,118.3906 L1497.0313,120.5469 Q1496.625,120.7031 1496.2344,120.8281 Q1495.8438,120.9375 1495.4375,121.0156 Q1495.0313,121.0938 1494.6094,121.125 Q1494.1875,121.1719 1493.6875,121.1719 Q1492.2813,121.1719 1491.25,120.7188 Q1490.2344,120.2656 1489.5625,119.4531 Q1488.8906,118.6406 1488.5625,117.5 Q1488.2344,116.3438 1488.2344,114.9531 Q1488.2344,113.5781 1488.6094,112.4219 Q1488.9844,111.2656 1489.7031,110.4375 Q1490.4219,109.6094 1491.4844,109.1563 Q1492.5469,108.6875 1493.9375,108.6875 Q1494.8438,108.6875 1495.75,108.9219 Q1496.6563,109.1406 1497.4844,109.5469 L1496.6563,111.6406 Q1495.9688,111.3125 1495.2813,111.0781 Q1494.5938,110.8281 1493.9375,110.8281 Z " fill="#000000"/><text fill="#000000" font-family="sans-serif" font-size="14" lengthAdjust="spacing" textLength="87" x="1508" y="119.8467">SourcedEntity</text></g><!--class ParametricArrowFunction--><g id="elem_ParametricArrowFunction"><rect codeLine="113" fill="#CCFFFF" height="32" id="ParametricArrowFunction" rx="2.5" ry="2.5" style="stroke:#A9A9A9;stroke-width:0.5;" width="195" x="557" y="680"/><ellipse cx="572" cy="696" fill="#FFFFFF" rx="11" ry="11" style="stroke:#181818;stroke-width:1.0;"/><path d="M571.9375,691.8281 Q571.1875,691.8281 570.625,692.125 Q570.0625,692.4063 569.6719,692.9375 Q569.2813,693.4688 569.0781,694.25 Q568.8906,695.0156 568.8906,695.9688 Q568.8906,696.9375 569.0625,697.7031 Q569.25,698.4531 569.6094,698.9688 Q569.9844,699.4844 570.5625,699.7656 Q571.1406,700.0313 571.9375,700.0313 Q572.6719,700.0313 573.4063,699.8594 Q574.1563,699.6875 575.0313,699.3906 L575.0313,701.5469 Q574.625,701.7031 574.2344,701.8281 Q573.8438,701.9375 573.4375,702.0156 Q573.0313,702.0938 572.6094,702.125 Q572.1875,702.1719 571.6875,702.1719 Q570.2813,702.1719 569.25,701.7188 Q568.2344,701.2656 567.5625,700.4531 Q566.8906,699.6406 566.5625,698.5 Q566.2344,697.3438 566.2344,695.9531 Q566.2344,694.5781 566.6094,693.4219 Q566.9844,692.2656 567.7031,691.4375 Q568.4219,690.6094 569.4844,690.1563 Q570.5469,689.6875 571.9375,689.6875 Q572.8438,689.6875 573.75,689.9219 Q574.6563,690.1406 575.4844,690.5469 L574.6563,692.6406 Q573.9688,692.3125 573.2813,692.0781 Q572.5938,691.8281 571.9375,691.8281 Z " fill="#000000"/><text fill="#000000" font-family="sans-serif" font-size="14" lengthAdjust="spacing" textLength="163" x="586" y="700.8467">ParametricArrowFunction</text></g><!--class SourceLanguage--><g id="elem_SourceLanguage"><rect codeLine="115" fill="#CCFFFF" height="32" id="SourceLanguage" rx="2.5" ry="2.5" style="stroke:#A9A9A9;stroke-width:0.5;" width="134" x="3011.5" y="99"/><ellipse cx="3026.5" cy="115" fill="#FFFFFF" rx="11" ry="11" style="stroke:#181818;stroke-width:1.0;"/><path d="M3026.4375,110.8281 Q3025.6875,110.8281 3025.125,111.125 Q3024.5625,111.4063 3024.1719,111.9375 Q3023.7813,112.4688 3023.5781,113.25 Q3023.3906,114.0156 3023.3906,114.9688 Q3023.3906,115.9375 3023.5625,116.7031 Q3023.75,117.4531 3024.1094,117.9688 Q3024.4844,118.4844 3025.0625,118.7656 Q3025.6406,119.0313 3026.4375,119.0313 Q3027.1719,119.0313 3027.9063,118.8594 Q3028.6563,118.6875 3029.5313,118.3906 L3029.5313,120.5469 Q3029.125,120.7031 3028.7344,120.8281 Q3028.3438,120.9375 3027.9375,121.0156 Q3027.5313,121.0938 3027.1094,121.125 Q3026.6875,121.1719 3026.1875,121.1719 Q3024.7813,121.1719 3023.75,120.7188 Q3022.7344,120.2656 3022.0625,119.4531 Q3021.3906,118.6406 3021.0625,117.5 Q3020.7344,116.3438 3020.7344,114.9531 Q3020.7344,113.5781 3021.1094,112.4219 Q3021.4844,111.2656 3022.2031,110.4375 Q3022.9219,109.6094 3023.9844,109.1563 Q3025.0469,108.6875 3026.4375,108.6875 Q3027.3438,108.6875 3028.25,108.9219 Q3029.1563,109.1406 3029.9844,109.5469 L3029.1563,111.6406 Q3028.4688,111.3125 3027.7813,111.0781 Q3027.0938,110.8281 3026.4375,110.8281 Z " fill="#000000"/><text fill="#000000" font-family="sans-serif" font-size="14" lengthAdjust="spacing" textLength="102" x="3040.5" y="119.8467">SourceLanguage</text></g><!--reverse link Entity to SourceLanguage--><g id="link_Entity_SourceLanguage"><path codeLine="117" d="M2385.92,29.02 C2499.24,39.71 2768.7,66.46 2993.5,99 C2999.28,99.84 3005.28,100.77 3011.28,101.74 " fill="none" id="Entity-backto-SourceLanguage" style="stroke:#000000;stroke-width:1.0;"/><polygon fill="none" points="2384.96,35.96,2365.7,27.12,2386.27,22.02,2384.96,35.96" style="stroke:#000000;stroke-width:1.0;"/></g><!--reverse link Type to PrimitiveType--><g id="link_Type_PrimitiveType"><path codeLine="118" d="M348.57,502.83 C310.55,528.55 254.01,566.8 222.95,587.81 " fill="none" id="Type-backto-PrimitiveType" style="stroke:#000000;stroke-width:1.0;"/><polygon fill="none" points="344.83,496.92,365.31,491.51,352.67,508.51,344.83,496.92" style="stroke:#000000;stroke-width:1.0;"/></g><!--reverse link Entity to ImportClause--><g id="link_Entity_ImportClause"><path codeLine="119" d="M2277.07,30.17 C2176.52,41.81 1955.02,68.58 1769.5,99 C1763.72,99.95 1757.71,101 1751.71,102.1 " fill="none" id="Entity-backto-ImportClause" style="stroke:#000000;stroke-width:1.0;"/><polygon fill="none" points="2276.51,23.19,2297.18,27.86,2278.11,37.09,2276.51,23.19" style="stroke:#000000;stroke-width:1.0;"/></g><!--reverse link ScopingEntity to ScriptEntity--><g id="link_ScopingEntity_ScriptEntity"><path codeLine="120" d="M1179.5,511.77 C1179.5,536.7 1179.5,568.9 1179.5,587.62 " fill="none" id="ScopingEntity-backto-ScriptEntity" style="stroke:#000000;stroke-width:1.0;"/><polygon fill="none" points="1172.5,511.51,1179.5,491.51,1186.5,511.51,1172.5,511.51" style="stroke:#000000;stroke-width:1.0;"/></g><!--reverse link SourceAnchor to SourceTextAnchor--><g id="link_SourceAnchor_SourceTextAnchor"><path codeLine="121" d="M2889.16,145.98 C2872.11,164.68 2850.9,187.95 2837.28,202.89 " fill="none" id="SourceAnchor-backto-SourceTextAnchor" style="stroke:#000000;stroke-width:1.0;"/><polygon fill="none" points="2884.13,141.11,2902.78,131.05,2894.48,150.55,2884.13,141.11" style="stroke:#000000;stroke-width:1.0;"/></g><!--reverse link BehaviouralEntity to ArrowFunction--><g id="link_BehaviouralEntity_ArrowFunction"><path codeLine="122" d="M930.24,502.48 C890.39,528.2 830.73,566.71 798.03,587.81 " fill="none" id="BehaviouralEntity-backto-ArrowFunction" style="stroke:#000000;stroke-width:1.0;"/><polygon fill="none" points="926.65,496.47,947.25,491.51,934.24,508.23,926.65,496.47" style="stroke:#000000;stroke-width:1.0;"/></g><!--reverse link SourcedEntity to Comment--><g id="link_SourcedEntity_Comment"><path codeLine="123" d="M1538.5,151.4 C1538.5,164.38 1538.5,178.86 1538.5,190.99 " fill="none" id="SourcedEntity-backto-Comment" style="stroke:#000000;stroke-width:1.0;"/><polygon fill="none" points="1531.5,151.05,1538.5,131.05,1545.5,151.05,1531.5,151.05" style="stroke:#000000;stroke-width:1.0;"/></g><!--reverse link Entity to Access--><g id="link_Entity_Access"><path codeLine="124" d="M2277.31,31.04 C2191.82,42.56 2020.64,67.39 1877.5,99 C1871.89,100.24 1866,101.7 1860.26,103.22 " fill="none" id="Entity-backto-Access" style="stroke:#000000;stroke-width:1.0;"/><polygon fill="none" points="2276.63,24.07,2297.37,28.36,2278.47,37.94,2276.63,24.07" style="stroke:#000000;stroke-width:1.0;"/></g><!--reverse link Entity to ParameterConcretization--><g id="link_Entity_ParameterConcretization"><path codeLine="125" d="M2277.63,38.22 C2214.89,54.78 2111.68,82.02 2047.59,98.93 " fill="none" id="Entity-backto-ParameterConcretization" style="stroke:#000000;stroke-width:1.0;"/><polygon fill="none" points="2276.12,31.38,2297.24,33.04,2279.69,44.91,2276.12,31.38" style="stroke:#000000;stroke-width:1.0;"/></g><!--reverse link SourcedEntity to NamedEntity--><g id="link_SourcedEntity_NamedEntity"><path codeLine="126" d="M1499.99,142.36 C1471.9,161.59 1434.83,186.97 1411.58,202.89 " fill="none" id="SourcedEntity-backto-NamedEntity" style="stroke:#000000;stroke-width:1.0;"/><polygon fill="none" points="1496.06,136.57,1516.51,131.05,1503.97,148.12,1496.06,136.57" style="stroke:#000000;stroke-width:1.0;"/></g><!--reverse link Interface to ParametricInterface--><g id="link_Interface_ParametricInterface"><path codeLine="127" d="M443.31,640.61 C442.86,654.31 442.36,669.22 442,679.96 " fill="none" id="Interface-backto-ParametricInterface" style="stroke:#000000;stroke-width:1.0;"/><polygon fill="none" points="436.33,640.02,443.99,620.27,450.32,640.49,436.33,640.02" style="stroke:#000000;stroke-width:1.0;"/></g><!--reverse link NamedEntity to Folder--><g id="link_NamedEntity_Folder"><path codeLine="128" d="M1346.59,245.35 C1308.34,267.94 1253.64,300.25 1221.93,318.98 " fill="none" id="NamedEntity-backto-Folder" style="stroke:#000000;stroke-width:1.0;"/><polygon fill="none" points="1343.09,239.28,1363.87,235.14,1350.21,251.34,1343.09,239.28" style="stroke:#000000;stroke-width:1.0;"/></g><!--reverse link SourceAnchor to IndexedFileAnchor--><g id="link_SourceAnchor_IndexedFileAnchor"><path codeLine="129" d="M2943.54,145.98 C2960.41,164.68 2981.4,187.95 2994.87,202.89 " fill="none" id="SourceAnchor-backto-IndexedFileAnchor" style="stroke:#000000;stroke-width:1.0;"/><polygon fill="none" points="2938.27,150.59,2930.07,131.05,2948.67,141.21,2938.27,150.59" style="stroke:#000000;stroke-width:1.0;"/></g><!--reverse link ScopingEntity to Namespace--><g id="link_ScopingEntity_Namespace"><path codeLine="130" d="M1211.15,505.1 C1239.45,530.67 1279.85,567.18 1302.48,587.62 " fill="none" id="ScopingEntity-backto-Namespace" style="stroke:#000000;stroke-width:1.0;"/><polygon fill="none" points="1206.26,510.11,1196.11,491.51,1215.64,499.72,1206.26,510.11" style="stroke:#000000;stroke-width:1.0;"/></g><!--reverse link Type to Enum--><g id="link_Type_Enum"><path codeLine="131" d="M372.46,509.87 C361.12,535.05 346.08,568.42 337.43,587.62 " fill="none" id="Type-backto-Enum" style="stroke:#000000;stroke-width:1.0;"/><polygon fill="none" points="366.14,506.87,380.74,491.51,378.9,512.62,366.14,506.87" style="stroke:#000000;stroke-width:1.0;"/></g><!--reverse link Method to ParametricMethod--><g id="link_Method_ParametricMethod"><path codeLine="132" d="M1052.69,640.61 C1053.14,654.31 1053.64,669.22 1054,679.96 " fill="none" id="Method-backto-ParametricMethod" style="stroke:#000000;stroke-width:1.0;"/><polygon fill="none" points="1045.68,640.49,1052.01,620.27,1059.67,640.02,1045.68,640.49" style="stroke:#000000;stroke-width:1.0;"/></g><!--reverse link Type to Class--><g id="link_Type_Class"><path codeLine="133" d="M337.61,496.6 C272.3,522.91 159.74,568.26 105.1,590.27 " fill="none" id="Type-backto-Class" style="stroke:#000000;stroke-width:1.0;"/><polygon fill="none" points="335.08,490.07,356.24,489.09,340.31,503.06,335.08,490.07" style="stroke:#000000;stroke-width:1.0;"/></g><!--reverse link Method to Accessor--><g id="link_Method_Accessor"><path codeLine="134" d="M1095.28,630.1 C1123.2,646.1 1158.45,666.31 1182.14,679.89 " fill="none" id="Method-backto-Accessor" style="stroke:#000000;stroke-width:1.0;"/><polygon fill="none" points="1091.65,636.08,1077.78,620.06,1098.61,623.94,1091.65,636.08" style="stroke:#000000;stroke-width:1.0;"/></g><!--reverse link StructuralEntity to Variable--><g id="link_StructuralEntity_Variable"><path codeLine="135" d="M1493.14,365.84 C1466.73,394.64 1427.82,437.07 1407.32,459.43 " fill="none" id="StructuralEntity-backto-Variable" style="stroke:#000000;stroke-width:1.0;"/><polygon fill="none" points="1487.99,361.1,1506.67,351.09,1498.31,370.56,1487.99,361.1" style="stroke:#000000;stroke-width:1.0;"/></g><!--reverse link NamedEntity to File--><g id="link_NamedEntity_File"><path codeLine="136" d="M1363.97,250.96 C1345.81,272.99 1322.19,301.63 1307.98,318.87 " fill="none" id="NamedEntity-backto-File" style="stroke:#000000;stroke-width:1.0;"/><polygon fill="none" points="1358.7,246.35,1376.82,235.37,1369.5,255.26,1358.7,246.35" style="stroke:#000000;stroke-width:1.0;"/></g><!--reverse link Entity to Concretization--><g id="link_Entity_Concretization"><path codeLine="137" d="M2289.19,49.56 C2262.82,65.49 2229.79,85.44 2207.52,98.89 " fill="none" id="Entity-backto-Concretization" style="stroke:#000000;stroke-width:1.0;"/><polygon fill="none" points="2285.82,43.41,2306.56,39.06,2293.06,55.4,2285.82,43.41" style="stroke:#000000;stroke-width:1.0;"/></g><!--reverse link Class to ParametricClass--><g id="link_Class_ParametricClass"><path codeLine="138" d="M73.5,640.61 C73.5,654.31 73.5,669.22 73.5,679.96 " fill="none" id="Class-backto-ParametricClass" style="stroke:#000000;stroke-width:1.0;"/><polygon fill="none" points="66.5,640.27,73.5,620.27,80.5,640.27,66.5,640.27" style="stroke:#000000;stroke-width:1.0;"/></g><!--reverse link ScriptEntity to Module--><g id="link_ScriptEntity_Module"><path codeLine="139" d="M1221.53,630.56 C1247.72,646.49 1280.53,666.44 1302.65,679.89 " fill="none" id="ScriptEntity-backto-Module" style="stroke:#000000;stroke-width:1.0;"/><polygon fill="none" points="1217.72,636.44,1204.27,620.06,1225,624.47,1217.72,636.44" style="stroke:#000000;stroke-width:1.0;"/></g><!--reverse link Entity to Inheritance--><g id="link_Entity_Inheritance"><path codeLine="140" d="M2331.5,59.61 C2331.5,73.31 2331.5,88.22 2331.5,98.96 " fill="none" id="Entity-backto-Inheritance" style="stroke:#000000;stroke-width:1.0;"/><polygon fill="none" points="2324.5,59.27,2331.5,39.27,2338.5,59.27,2324.5,59.27" style="stroke:#000000;stroke-width:1.0;"/></g><!--reverse link Entity to Invocation--><g id="link_Entity_Invocation"><path codeLine="141" d="M2371.46,50.25 C2395.53,66.06 2425.32,85.63 2445.49,98.89 " fill="none" id="Entity-backto-Invocation" style="stroke:#000000;stroke-width:1.0;"/><polygon fill="none" points="2367.3,55.9,2354.43,39.06,2374.99,44.19,2367.3,55.9" style="stroke:#000000;stroke-width:1.0;"/></g><!--reverse link Variable to implicitVariable--><g id="link_Variable_implicitVariable"><path codeLine="142" d="M1413.9,508.75 C1429.89,534.05 1451.45,568.13 1463.77,587.62 " fill="none" id="Variable-backto-implicitVariable" style="stroke:#000000;stroke-width:1.0;"/><polygon fill="none" points="1407.76,512.15,1402.99,491.51,1419.6,504.67,1407.76,512.15" style="stroke:#000000;stroke-width:1.0;"/></g><!--reverse link BehaviouralEntity to Function--><g id="link_BehaviouralEntity_Function"><path codeLine="143" d="M958.63,510.63 C949.91,535.71 938.46,568.61 931.85,587.62 " fill="none" id="BehaviouralEntity-backto-Function" style="stroke:#000000;stroke-width:1.0;"/><polygon fill="none" points="952.1,508.1,965.28,491.51,965.32,512.7,952.1,508.1" style="stroke:#000000;stroke-width:1.0;"/></g><!--reverse link BehaviouralEntity to Method--><g id="link_BehaviouralEntity_Method"><path codeLine="144" d="M990.91,508.38 C1007.13,533.71 1029.11,568.04 1041.65,587.62 " fill="none" id="BehaviouralEntity-backto-Method" style="stroke:#000000;stroke-width:1.0;"/><polygon fill="none" points="985,512.13,980.11,491.51,996.79,504.58,985,512.13" style="stroke:#000000;stroke-width:1.0;"/></g><!--reverse link SourcedEntity to JSDoc--><g id="link_SourcedEntity_JSDoc"><path codeLine="145" d="M1572.49,143.74 C1595.84,162.79 1625.93,187.35 1644.98,202.89 " fill="none" id="SourcedEntity-backto-JSDoc" style="stroke:#000000;stroke-width:1.0;"/><polygon fill="none" points="1568.01,149.12,1556.94,131.05,1576.87,138.27,1568.01,149.12" style="stroke:#000000;stroke-width:1.0;"/></g><!--reverse link StructuralEntity to Parameter--><g id="link_StructuralEntity_Parameter"><path codeLine="146" d="M1520.5,371.21 C1520.5,399.7 1520.5,438.42 1520.5,459.43 " fill="none" id="StructuralEntity-backto-Parameter" style="stroke:#000000;stroke-width:1.0;"/><polygon fill="none" points="1513.5,371.09,1520.5,351.09,1527.5,371.09,1513.5,371.09" style="stroke:#000000;stroke-width:1.0;"/></g><!--reverse link NamedEntity to ContainerEntity--><g id="link_NamedEntity_ContainerEntity"><path codeLine="147" d="M1323.74,241.18 C1253.55,263.78 1144.12,299.02 1082.25,318.95 " fill="none" id="NamedEntity-backto-ContainerEntity" style="stroke:#000000;stroke-width:1.0;"/><polygon fill="none" points="1321.67,234.49,1342.86,235.02,1325.97,247.81,1321.67,234.49" style="stroke:#000000;stroke-width:1.0;"/></g><!--reverse link NamedEntity to Alias--><g id="link_NamedEntity_Alias"><path codeLine="148" d="M1389.5,255.6 C1389.5,276.88 1389.5,302.82 1389.5,318.87 " fill="none" id="NamedEntity-backto-Alias" style="stroke:#000000;stroke-width:1.0;"/><polygon fill="none" points="1382.5,255.37,1389.5,235.37,1396.5,255.37,1382.5,255.37" style="stroke:#000000;stroke-width:1.0;"/></g><!--reverse link StructuralEntity to Property--><g id="link_StructuralEntity_Property"><path codeLine="149" d="M1556.55,363.14 C1579.12,380.12 1608.92,402.55 1635.86,422.83 " fill="none" id="StructuralEntity-backto-Property" style="stroke:#000000;stroke-width:1.0;"/><polygon fill="none" points="1552.31,368.71,1540.54,351.09,1560.73,357.52,1552.31,368.71" style="stroke:#000000;stroke-width:1.0;"/></g><!--reverse link NamedEntity to StructuralEntity--><g id="link_NamedEntity_StructuralEntity"><path codeLine="150" d="M1422.19,248.45 C1447.8,270.74 1482.45,300.88 1503.03,318.8 " fill="none" id="NamedEntity-backto-StructuralEntity" style="stroke:#000000;stroke-width:1.0;"/><polygon fill="none" points="1417.39,253.55,1406.9,235.14,1426.58,242.99,1417.39,253.55" style="stroke:#000000;stroke-width:1.0;"/></g><!--reverse link Type to Interface--><g id="link_Type_Interface"><path codeLine="151" d="M402.54,509.87 C413.88,535.05 428.92,568.42 437.57,587.62 " fill="none" id="Type-backto-Interface" style="stroke:#000000;stroke-width:1.0;"/><polygon fill="none" points="396.1,512.62,394.26,491.51,408.86,506.87,396.1,512.62" style="stroke:#000000;stroke-width:1.0;"/></g><!--reverse link ContainerEntity to Type--><g id="link_ContainerEntity_Type"><path codeLine="152" d="M950.43,354.18 C804.78,385.31 514.15,447.43 418.68,467.84 " fill="none" id="ContainerEntity-backto-Type" style="stroke:#000000;stroke-width:1.0;"/><polygon fill="none" points="949.38,347.25,970.4,349.91,952.31,360.94,949.38,347.25" style="stroke:#000000;stroke-width:1.0;"/></g><!--reverse link Entity to Implementation--><g id="link_Entity_Implementation"><path codeLine="153" d="M2384.89,40.63 C2438.54,57.33 2520.47,82.85 2572.22,98.97 " fill="none" id="Entity-backto-Implementation" style="stroke:#000000;stroke-width:1.0;"/><polygon fill="none" points="2382.52,47.22,2365.5,34.59,2386.68,33.85,2382.52,47.22" style="stroke:#000000;stroke-width:1.0;"/></g><!--reverse link Type to ParameterType--><g id="link_Type_ParameterType"><path codeLine="154" d="M428.44,502.14 C469.51,527.86 531.4,566.61 565.25,587.81 " fill="none" id="Type-backto-ParameterType" style="stroke:#000000;stroke-width:1.0;"/><polygon fill="none" points="424.7,508.06,411.47,491.51,432.13,496.19,424.7,508.06" style="stroke:#000000;stroke-width:1.0;"/></g><!--reverse link Entity to Reference--><g id="link_Entity_Reference"><path codeLine="155" d="M2385.26,34.39 C2457.98,48.53 2591.71,74.86 2705.5,99 C2711.45,100.26 2717.68,101.62 2723.86,102.98 " fill="none" id="Entity-backto-Reference" style="stroke:#000000;stroke-width:1.0;"/><polygon fill="none" points="2383.89,41.25,2365.59,30.57,2386.55,27.51,2383.89,41.25" style="stroke:#000000;stroke-width:1.0;"/></g><!--reverse link StructuralEntity to EnumValue--><g id="link_StructuralEntity_EnumValue"><path codeLine="156" d="M1584.34,357.36 C1590.46,359.31 1596.59,361.22 1602.5,363 C1698.7,392.06 1730.23,378.85 1820.5,423 C1840.1,432.59 1859.79,447.99 1873.09,459.46 " fill="none" id="StructuralEntity-backto-EnumValue" style="stroke:#000000;stroke-width:1.0;"/><polygon fill="none" points="1581.93,363.94,1565.06,351.12,1586.24,350.62,1581.93,363.94" style="stroke:#000000;stroke-width:1.0;"/></g><!--reverse link ContainerEntity to BehaviouralEntity--><g id="link_ContainerEntity_BehaviouralEntity"><path codeLine="157" d="M1019.77,369.53 C1006.33,398.16 987.63,438.01 977.57,459.43 " fill="none" id="ContainerEntity-backto-BehaviouralEntity" style="stroke:#000000;stroke-width:1.0;"/><polygon fill="none" points="1013.59,366.22,1028.42,351.09,1026.26,372.16,1013.59,366.22" style="stroke:#000000;stroke-width:1.0;"/></g><!--reverse link Function to ParametricFunction--><g id="link_Function_ParametricFunction"><path codeLine="158" d="M904.69,637.18 C894.8,651.77 883.59,668.31 875.69,679.96 " fill="none" id="Function-backto-ParametricFunction" style="stroke:#000000;stroke-width:1.0;"/><polygon fill="none" points="899.14,632.9,916.15,620.27,910.73,640.75,899.14,632.9" style="stroke:#000000;stroke-width:1.0;"/></g><!--reverse link Entity to SourceAnchor--><g id="link_Entity_SourceAnchor"><path codeLine="159" d="M2385.74,31.24 C2478.64,43.82 2674.08,71.04 2838.5,99 C2844.21,99.97 2850.15,101.03 2856.08,102.11 " fill="none" id="Entity-backto-SourceAnchor" style="stroke:#000000;stroke-width:1.0;"/><polygon fill="none" points="2384.59,38.15,2365.7,28.54,2386.46,24.28,2384.59,38.15" style="stroke:#000000;stroke-width:1.0;"/></g><!--reverse link ContainerEntity to ScopingEntity--><g id="link_ContainerEntity_ScopingEntity"><path codeLine="160" d="M1065.69,365.04 C1095.65,393.85 1140.37,436.86 1163.83,459.43 " fill="none" id="ContainerEntity-backto-ScopingEntity" style="stroke:#000000;stroke-width:1.0;"/><polygon fill="none" points="1060.75,369.99,1051.18,351.09,1070.45,359.9,1060.75,369.99" style="stroke:#000000;stroke-width:1.0;"/></g><!--reverse link NamedEntity to Decorator--><g id="link_NamedEntity_Decorator"><path codeLine="161" d="M1437.7,242.9 C1487.86,263.74 1566.03,294.19 1620.45,314.05 " fill="none" id="NamedEntity-backto-Decorator" style="stroke:#000000;stroke-width:1.0;"/><polygon fill="none" points="1434.72,249.24,1419.01,235.02,1440.16,236.34,1434.72,249.24" style="stroke:#000000;stroke-width:1.0;"/></g><!--link NamedEntity to Decorator--><g id="link_NamedEntity_Decorator"><path codeLine="167" d="M1437.47,235.02 C1488.7,253.28 1569.24,284.44 1623.83,306.92 " fill="none" id="NamedEntity-Decorator" style="stroke:#000000;stroke-width:1.0;"/><text fill="#000000" font-family="sans-serif" font-size="13" lengthAdjust="spacing" textLength="92" x="1346.1472" y="255.1947">decoratedEntity</text><text fill="#000000" font-family="sans-serif" font-size="13" lengthAdjust="spacing" textLength="71" x="1541.4749" y="299.6406">decorators*</text></g><!--reverse link Entity to SourcedEntity--><g id="link_Entity_SourcedEntity"><path codeLine="162" d="M2277.17,28.05 C2157.31,37.34 1861.33,62.25 1615.5,99 C1609.84,99.85 1603.97,100.82 1598.1,101.85 " fill="none" id="Entity-backto-SourcedEntity" style="stroke:#000000;stroke-width:1.0;"/><polygon fill="none" points="2276.98,21.04,2297.45,26.5,2278.04,35,2276.98,21.04" style="stroke:#000000;stroke-width:1.0;"/></g><!--reverse link ArrowFunction to ParametricArrowFunction--><g id="link_ArrowFunction_ParametricArrowFunction"><path codeLine="163" d="M738.25,632.19 C717.39,647.83 691.98,666.89 674.65,679.89 " fill="none" id="ArrowFunction-backto-ParametricArrowFunction" style="stroke:#000000;stroke-width:1.0;"/><polygon fill="none" points="734.21,626.46,754.41,620.06,742.61,637.66,734.21,626.46" style="stroke:#000000;stroke-width:1.0;"/></g><!--reverse link TClassMetrics to Class--><g id="link_TClassMetrics_Class"><path codeLine="164" d="M73.5,511.77 C73.5,536.7 73.5,568.9 73.5,587.62 " fill="none" id="TClassMetrics-backto-Class" style="stroke:#000000;stroke-width:1.0;stroke-dasharray:7.0,7.0;"/><polygon fill="none" points="66.5,511.51,73.5,491.51,80.5,511.51,66.5,511.51" style="stroke:#000000;stroke-width:1.0;"/></g><!--reverse link TEntityCreator to FamixTypeScriptModel--><g id="link_TEntityCreator_FamixTypeScriptModel"><path codeLine="165" d="M3268.5,59.61 C3268.5,73.31 3268.5,88.22 3268.5,98.96 " fill="none" id="TEntityCreator-backto-FamixTypeScriptModel" style="stroke:#000000;stroke-width:1.0;stroke-dasharray:7.0,7.0;"/><polygon fill="none" points="3261.5,59.27,3268.5,39.27,3275.5,59.27,3261.5,59.27" style="stroke:#000000;stroke-width:1.0;"/></g><!--reverse link TWithInterfaces to ContainerEntity--><g id="link_TWithInterfaces_ContainerEntity"><path codeLine="166" d="M1035.5,255.6 C1035.5,276.88 1035.5,302.82 1035.5,318.87 " fill="none" id="TWithInterfaces-backto-ContainerEntity" style="stroke:#000000;stroke-width:1.0;stroke-dasharray:7.0,7.0;"/><polygon fill="none" points="1028.5,255.37,1035.5,235.37,1042.5,255.37,1028.5,255.37" style="stroke:#000000;stroke-width:1.0;"/></g><!--SRC=[dLRRJjmm47ttLqJqfQqANu2G8B0LLIcekwBFNcVOM3XsD76MtPR-U-quDoVPZRSyB99pF9xBcJcJyWGYo7AzZpB8re05ALwvp2dIB6A25aNqXqJH3MMl6rIbJ68b54PlATTWpgyHrPixMWk3iL252Q0xIoY-VaMw9t-9i_M4FEEQRs6rpo6wlFmOVwbCVRgwYZx4ySBycVSQz7sMAzIne6Kn3ruovBc-avgRMER0bT-BKZBDbPmthKfai8ATlfOiDN7DNOXLbe7K1t4sIqe0bH4llYrl5MjlXlhF69X_Sx0dMqRGjXoI8MZ-cmO5_CFSIW9TgTz0pkwbUUc5ie32oWHsa2ouWC2CBfGmh3h1cGVGgKhcArNzpg7kP9a59Qt8Gy9trGk9sYHe5lHCaTDr0711CxwpZUTQvK4b80AeV19pZD4om9MkJc45M5MmX-f6XLuTfrSAo3MLGLJSAXOM6yzomHdNuGaF7J21PAr6HNZJpsVr5zTfsxNpUNr2bGCUcGdUNADRweXcXlwMLdBHV4MWoQCKU-_2OsvpHOLtU0ilN9ftnFwwAFX6Gj9dfgPS0eREJC7fFDEM6akcIwGYqEm9Ky_m1wmkXD4jI2BROWUXVy8B88IqXPruprIKyyWRIEcMgnCorZN_YGeSg1LBfd8kDu7Ut09JIFKHkv4bXJ4OmIv7CxYDmrsHt2knONHjOZKVn-dI-Z_xodSgDoNT7AjWuyVx-VdW4d5yiX-ydSsxqj_Fo23hbSdUIaRy4dOlTciLcQ2InNd1aq4ABQ1UjppVdCPwHmUseIcBlGM8z1gyPwM_xn1lNx8WjwvCn3pQVARorcuIlIhOXYIDJlX-kDCUjX9B3zni76GytkpdHj4c0Z6E4Z_NNkvg-VOTSk_x2xb5kEN0fr0drOFpHfP99xVsmr243v6cvSk1xtNI9chl5lBfHBKK6cTg84TZGAK_X-pMoZg-DSJtojpnRoI5zlDKk_Rqfz_XVH7nhhI2SS3lLYQcNHZbddGppATCMwxnIAhxPF81htd6oMjd-uJPfhq7ezLtonyzWotq_UAYRhMX2jWlKzis6MrSbOqZp3bBN0ZDmLba_6iE5HQVpxeW_m40]--></g></svg>