<?xml version="1.0" encoding="us-ascii" standalone="no"?><svg xmlns="http://www.w3.org/2000/svg" xmlns:xlink="http://www.w3.org/1999/xlink" contentStyleType="text/css" height="719px" preserveAspectRatio="none" style="width:3051px;height:719px;background:#FFFFFF;" version="1.1" viewBox="0 0 3051 719" width="3051px" zoomAndPan="magnify"><defs/><g><!--class Concretization--><g id="elem_Concretization"><rect codeLine="7" fill="#CCFFFF" height="32" id="Concretization" rx="2.5" ry="2.5" style="stroke:#A9A9A9;stroke-width:0.5;" width="123" x="7" y="99"/><ellipse cx="22" cy="115" fill="#FFFFFF" rx="11" ry="11" style="stroke:#181818;stroke-width:1.0;"/><path d="M21.9375,110.8281 Q21.1875,110.8281 20.625,111.125 Q20.0625,111.4063 19.6719,111.9375 Q19.2813,112.4688 19.0781,113.25 Q18.8906,114.0156 18.8906,114.9688 Q18.8906,115.9375 19.0625,116.7031 Q19.25,117.4531 19.6094,117.9688 Q19.9844,118.4844 20.5625,118.7656 Q21.1406,119.0313 21.9375,119.0313 Q22.6719,119.0313 23.4063,118.8594 Q24.1563,118.6875 25.0313,118.3906 L25.0313,120.5469 Q24.625,120.7031 24.2344,120.8281 Q23.8438,120.9375 23.4375,121.0156 Q23.0313,121.0938 22.6094,121.125 Q22.1875,121.1719 21.6875,121.1719 Q20.2813,121.1719 19.25,120.7188 Q18.2344,120.2656 17.5625,119.4531 Q16.8906,118.6406 16.5625,117.5 Q16.2344,116.3438 16.2344,114.9531 Q16.2344,113.5781 16.6094,112.4219 Q16.9844,111.2656 17.7031,110.4375 Q18.4219,109.6094 19.4844,109.1563 Q20.5469,108.6875 21.9375,108.6875 Q22.8438,108.6875 23.75,108.9219 Q24.6563,109.1406 25.4844,109.5469 L24.6563,111.6406 Q23.9688,111.3125 23.2813,111.0781 Q22.5938,110.8281 21.9375,110.8281 Z " fill="#000000"/><text fill="#000000" font-family="sans-serif" font-size="14" lengthAdjust="spacing" textLength="91" x="36" y="119.8467">Concretization</text></g><!--class JSDoc--><g id="elem_JSDoc"><rect codeLine="9" fill="#CCFFFF" height="32" id="JSDoc" rx="2.5" ry="2.5" style="stroke:#A9A9A9;stroke-width:0.5;" width="67" x="991" y="203"/><ellipse cx="1006" cy="219" fill="#FFFFFF" rx="11" ry="11" style="stroke:#181818;stroke-width:1.0;"/><path d="M1005.9375,214.8281 Q1005.1875,214.8281 1004.625,215.125 Q1004.0625,215.4063 1003.6719,215.9375 Q1003.2813,216.4688 1003.0781,217.25 Q1002.8906,218.0156 1002.8906,218.9688 Q1002.8906,219.9375 1003.0625,220.7031 Q1003.25,221.4531 1003.6094,221.9688 Q1003.9844,222.4844 1004.5625,222.7656 Q1005.1406,223.0313 1005.9375,223.0313 Q1006.6719,223.0313 1007.4063,222.8594 Q1008.1563,222.6875 1009.0313,222.3906 L1009.0313,224.5469 Q1008.625,224.7031 1008.2344,224.8281 Q1007.8438,224.9375 1007.4375,225.0156 Q1007.0313,225.0938 1006.6094,225.125 Q1006.1875,225.1719 1005.6875,225.1719 Q1004.2813,225.1719 1003.25,224.7188 Q1002.2344,224.2656 1001.5625,223.4531 Q1000.8906,222.6406 1000.5625,221.5 Q1000.2344,220.3438 1000.2344,218.9531 Q1000.2344,217.5781 1000.6094,216.4219 Q1000.9844,215.2656 1001.7031,214.4375 Q1002.4219,213.6094 1003.4844,213.1563 Q1004.5469,212.6875 1005.9375,212.6875 Q1006.8438,212.6875 1007.75,212.9219 Q1008.6563,213.1406 1009.4844,213.5469 L1008.6563,215.6406 Q1007.9688,215.3125 1007.2813,215.0781 Q1006.5938,214.8281 1005.9375,214.8281 Z " fill="#000000"/><text fill="#000000" font-family="sans-serif" font-size="14" lengthAdjust="spacing" textLength="35" x="1020" y="223.8467">JSDoc</text></g><!--class BehaviouralEntity--><g id="elem_BehaviouralEntity"><rect codeLine="11" fill="#CCFFFF" height="32" id="BehaviouralEntity" rx="2.5" ry="2.5" style="stroke:#A9A9A9;stroke-width:0.5;" width="144" x="1900.5" y="459.5"/><ellipse cx="1915.5" cy="475.5" fill="#FFFFFF" rx="11" ry="11" style="stroke:#181818;stroke-width:1.0;"/><path d="M1915.4375,471.3281 Q1914.6875,471.3281 1914.125,471.625 Q1913.5625,471.9063 1913.1719,472.4375 Q1912.7813,472.9688 1912.5781,473.75 Q1912.3906,474.5156 1912.3906,475.4688 Q1912.3906,476.4375 1912.5625,477.2031 Q1912.75,477.9531 1913.1094,478.4688 Q1913.4844,478.9844 1914.0625,479.2656 Q1914.6406,479.5313 1915.4375,479.5313 Q1916.1719,479.5313 1916.9063,479.3594 Q1917.6563,479.1875 1918.5313,478.8906 L1918.5313,481.0469 Q1918.125,481.2031 1917.7344,481.3281 Q1917.3438,481.4375 1916.9375,481.5156 Q1916.5313,481.5938 1916.1094,481.625 Q1915.6875,481.6719 1915.1875,481.6719 Q1913.7813,481.6719 1912.75,481.2188 Q1911.7344,480.7656 1911.0625,479.9531 Q1910.3906,479.1406 1910.0625,478 Q1909.7344,476.8438 1909.7344,475.4531 Q1909.7344,474.0781 1910.1094,472.9219 Q1910.4844,471.7656 1911.2031,470.9375 Q1911.9219,470.1094 1912.9844,469.6563 Q1914.0469,469.1875 1915.4375,469.1875 Q1916.3438,469.1875 1917.25,469.4219 Q1918.1563,469.6406 1918.9844,470.0469 L1918.1563,472.1406 Q1917.4688,471.8125 1916.7813,471.5781 Q1916.0938,471.3281 1915.4375,471.3281 Z " fill="#000000"/><text fill="#000000" font-family="sans-serif" font-size="14" lengthAdjust="spacing" textLength="112" x="1929.5" y="480.3467">BehaviouralEntity</text></g><!--class ParametricClass--><g id="elem_ParametricClass"><rect codeLine="13" fill="#CCFFFF" height="32" id="ParametricClass" rx="2.5" ry="2.5" style="stroke:#A9A9A9;stroke-width:0.5;" width="133" x="2245" y="680"/><ellipse cx="2260" cy="696" fill="#FFFFFF" rx="11" ry="11" style="stroke:#181818;stroke-width:1.0;"/><path d="M2259.9375,691.8281 Q2259.1875,691.8281 2258.625,692.125 Q2258.0625,692.4063 2257.6719,692.9375 Q2257.2813,693.4688 2257.0781,694.25 Q2256.8906,695.0156 2256.8906,695.9688 Q2256.8906,696.9375 2257.0625,697.7031 Q2257.25,698.4531 2257.6094,698.9688 Q2257.9844,699.4844 2258.5625,699.7656 Q2259.1406,700.0313 2259.9375,700.0313 Q2260.6719,700.0313 2261.4063,699.8594 Q2262.1563,699.6875 2263.0313,699.3906 L2263.0313,701.5469 Q2262.625,701.7031 2262.2344,701.8281 Q2261.8438,701.9375 2261.4375,702.0156 Q2261.0313,702.0938 2260.6094,702.125 Q2260.1875,702.1719 2259.6875,702.1719 Q2258.2813,702.1719 2257.25,701.7188 Q2256.2344,701.2656 2255.5625,700.4531 Q2254.8906,699.6406 2254.5625,698.5 Q2254.2344,697.3438 2254.2344,695.9531 Q2254.2344,694.5781 2254.6094,693.4219 Q2254.9844,692.2656 2255.7031,691.4375 Q2256.4219,690.6094 2257.4844,690.1563 Q2258.5469,689.6875 2259.9375,689.6875 Q2260.8438,689.6875 2261.75,689.9219 Q2262.6563,690.1406 2263.4844,690.5469 L2262.6563,692.6406 Q2261.9688,692.3125 2261.2813,692.0781 Q2260.5938,691.8281 2259.9375,691.8281 Z " fill="#000000"/><text fill="#000000" font-family="sans-serif" font-size="14" lengthAdjust="spacing" textLength="101" x="2274" y="700.8467">ParametricClass</text></g><!--class ParameterType--><g id="elem_ParameterType"><rect codeLine="15" fill="#CCFFFF" height="32" id="ParameterType" rx="2.5" ry="2.5" style="stroke:#A9A9A9;stroke-width:0.5;" width="130" x="2249.5" y="588"/><ellipse cx="2264.5" cy="604" fill="#FFFFFF" rx="11" ry="11" style="stroke:#181818;stroke-width:1.0;"/><path d="M2264.4375,599.8281 Q2263.6875,599.8281 2263.125,600.125 Q2262.5625,600.4063 2262.1719,600.9375 Q2261.7813,601.4688 2261.5781,602.25 Q2261.3906,603.0156 2261.3906,603.9688 Q2261.3906,604.9375 2261.5625,605.7031 Q2261.75,606.4531 2262.1094,606.9688 Q2262.4844,607.4844 2263.0625,607.7656 Q2263.6406,608.0313 2264.4375,608.0313 Q2265.1719,608.0313 2265.9063,607.8594 Q2266.6563,607.6875 2267.5313,607.3906 L2267.5313,609.5469 Q2267.125,609.7031 2266.7344,609.8281 Q2266.3438,609.9375 2265.9375,610.0156 Q2265.5313,610.0938 2265.1094,610.125 Q2264.6875,610.1719 2264.1875,610.1719 Q2262.7813,610.1719 2261.75,609.7188 Q2260.7344,609.2656 2260.0625,608.4531 Q2259.3906,607.6406 2259.0625,606.5 Q2258.7344,605.3438 2258.7344,603.9531 Q2258.7344,602.5781 2259.1094,601.4219 Q2259.4844,600.2656 2260.2031,599.4375 Q2260.9219,598.6094 2261.9844,598.1563 Q2263.0469,597.6875 2264.4375,597.6875 Q2265.3438,597.6875 2266.25,597.9219 Q2267.1563,598.1406 2267.9844,598.5469 L2267.1563,600.6406 Q2266.4688,600.3125 2265.7813,600.0781 Q2265.0938,599.8281 2264.4375,599.8281 Z " fill="#000000"/><text fill="#000000" font-family="sans-serif" font-size="14" lengthAdjust="spacing" textLength="98" x="2278.5" y="608.8467">ParameterType</text></g><!--class EnumValue--><g id="elem_EnumValue"><rect codeLine="17" fill="#CCFFFF" height="32" id="EnumValue" rx="2.5" ry="2.5" style="stroke:#A9A9A9;stroke-width:0.5;" width="103" x="1153" y="459.5"/><ellipse cx="1168" cy="475.5" fill="#FFFFFF" rx="11" ry="11" style="stroke:#181818;stroke-width:1.0;"/><path d="M1167.9375,471.3281 Q1167.1875,471.3281 1166.625,471.625 Q1166.0625,471.9063 1165.6719,472.4375 Q1165.2813,472.9688 1165.0781,473.75 Q1164.8906,474.5156 1164.8906,475.4688 Q1164.8906,476.4375 1165.0625,477.2031 Q1165.25,477.9531 1165.6094,478.4688 Q1165.9844,478.9844 1166.5625,479.2656 Q1167.1406,479.5313 1167.9375,479.5313 Q1168.6719,479.5313 1169.4063,479.3594 Q1170.1563,479.1875 1171.0313,478.8906 L1171.0313,481.0469 Q1170.625,481.2031 1170.2344,481.3281 Q1169.8438,481.4375 1169.4375,481.5156 Q1169.0313,481.5938 1168.6094,481.625 Q1168.1875,481.6719 1167.6875,481.6719 Q1166.2813,481.6719 1165.25,481.2188 Q1164.2344,480.7656 1163.5625,479.9531 Q1162.8906,479.1406 1162.5625,478 Q1162.2344,476.8438 1162.2344,475.4531 Q1162.2344,474.0781 1162.6094,472.9219 Q1162.9844,471.7656 1163.7031,470.9375 Q1164.4219,470.1094 1165.4844,469.6563 Q1166.5469,469.1875 1167.9375,469.1875 Q1168.8438,469.1875 1169.75,469.4219 Q1170.6563,469.6406 1171.4844,470.0469 L1170.6563,472.1406 Q1169.9688,471.8125 1169.2813,471.5781 Q1168.5938,471.3281 1167.9375,471.3281 Z " fill="#000000"/><text fill="#000000" font-family="sans-serif" font-size="14" lengthAdjust="spacing" textLength="71" x="1182" y="480.3467">EnumValue</text></g><!--class Parameter--><g id="elem_Parameter"><rect codeLine="19" fill="#CCFFFF" height="32" id="Parameter" rx="2.5" ry="2.5" style="stroke:#A9A9A9;stroke-width:0.5;" width="100" x="1291.5" y="459.5"/><ellipse cx="1306.5" cy="475.5" fill="#FFFFFF" rx="11" ry="11" style="stroke:#181818;stroke-width:1.0;"/><path d="M1306.4375,471.3281 Q1305.6875,471.3281 1305.125,471.625 Q1304.5625,471.9063 1304.1719,472.4375 Q1303.7813,472.9688 1303.5781,473.75 Q1303.3906,474.5156 1303.3906,475.4688 Q1303.3906,476.4375 1303.5625,477.2031 Q1303.75,477.9531 1304.1094,478.4688 Q1304.4844,478.9844 1305.0625,479.2656 Q1305.6406,479.5313 1306.4375,479.5313 Q1307.1719,479.5313 1307.9063,479.3594 Q1308.6563,479.1875 1309.5313,478.8906 L1309.5313,481.0469 Q1309.125,481.2031 1308.7344,481.3281 Q1308.3438,481.4375 1307.9375,481.5156 Q1307.5313,481.5938 1307.1094,481.625 Q1306.6875,481.6719 1306.1875,481.6719 Q1304.7813,481.6719 1303.75,481.2188 Q1302.7344,480.7656 1302.0625,479.9531 Q1301.3906,479.1406 1301.0625,478 Q1300.7344,476.8438 1300.7344,475.4531 Q1300.7344,474.0781 1301.1094,472.9219 Q1301.4844,471.7656 1302.2031,470.9375 Q1302.9219,470.1094 1303.9844,469.6563 Q1305.0469,469.1875 1306.4375,469.1875 Q1307.3438,469.1875 1308.25,469.4219 Q1309.1563,469.6406 1309.9844,470.0469 L1309.1563,472.1406 Q1308.4688,471.8125 1307.7813,471.5781 Q1307.0938,471.3281 1306.4375,471.3281 Z " fill="#000000"/><text fill="#000000" font-family="sans-serif" font-size="14" lengthAdjust="spacing" textLength="68" x="1320.5" y="480.3467">Parameter</text></g><!--class Type--><g id="elem_Type"><rect codeLine="21" fill="#CCFFFF" height="32" id="Type" rx="2.5" ry="2.5" style="stroke:#A9A9A9;stroke-width:0.5;" width="62" x="2355.5" y="459.5"/><ellipse cx="2370.5" cy="475.5" fill="#FFFFFF" rx="11" ry="11" style="stroke:#181818;stroke-width:1.0;"/><path d="M2370.4375,471.3281 Q2369.6875,471.3281 2369.125,471.625 Q2368.5625,471.9063 2368.1719,472.4375 Q2367.7813,472.9688 2367.5781,473.75 Q2367.3906,474.5156 2367.3906,475.4688 Q2367.3906,476.4375 2367.5625,477.2031 Q2367.75,477.9531 2368.1094,478.4688 Q2368.4844,478.9844 2369.0625,479.2656 Q2369.6406,479.5313 2370.4375,479.5313 Q2371.1719,479.5313 2371.9063,479.3594 Q2372.6563,479.1875 2373.5313,478.8906 L2373.5313,481.0469 Q2373.125,481.2031 2372.7344,481.3281 Q2372.3438,481.4375 2371.9375,481.5156 Q2371.5313,481.5938 2371.1094,481.625 Q2370.6875,481.6719 2370.1875,481.6719 Q2368.7813,481.6719 2367.75,481.2188 Q2366.7344,480.7656 2366.0625,479.9531 Q2365.3906,479.1406 2365.0625,478 Q2364.7344,476.8438 2364.7344,475.4531 Q2364.7344,474.0781 2365.1094,472.9219 Q2365.4844,471.7656 2366.2031,470.9375 Q2366.9219,470.1094 2367.9844,469.6563 Q2369.0469,469.1875 2370.4375,469.1875 Q2371.3438,469.1875 2372.25,469.4219 Q2373.1563,469.6406 2373.9844,470.0469 L2373.1563,472.1406 Q2372.4688,471.8125 2371.7813,471.5781 Q2371.0938,471.3281 2370.4375,471.3281 Z " fill="#000000"/><text fill="#000000" font-family="sans-serif" font-size="14" lengthAdjust="spacing" textLength="30" x="2384.5" y="480.3467">Type</text></g><!--class Implementation--><g id="elem_Implementation"><rect codeLine="23" fill="#CCFFFF" height="32" id="Implementation" rx="2.5" ry="2.5" style="stroke:#A9A9A9;stroke-width:0.5;" width="136" x="165.5" y="99"/><ellipse cx="180.5" cy="115" fill="#FFFFFF" rx="11" ry="11" style="stroke:#181818;stroke-width:1.0;"/><path d="M180.4375,110.8281 Q179.6875,110.8281 179.125,111.125 Q178.5625,111.4063 178.1719,111.9375 Q177.7813,112.4688 177.5781,113.25 Q177.3906,114.0156 177.3906,114.9688 Q177.3906,115.9375 177.5625,116.7031 Q177.75,117.4531 178.1094,117.9688 Q178.4844,118.4844 179.0625,118.7656 Q179.6406,119.0313 180.4375,119.0313 Q181.1719,119.0313 181.9063,118.8594 Q182.6563,118.6875 183.5313,118.3906 L183.5313,120.5469 Q183.125,120.7031 182.7344,120.8281 Q182.3438,120.9375 181.9375,121.0156 Q181.5313,121.0938 181.1094,121.125 Q180.6875,121.1719 180.1875,121.1719 Q178.7813,121.1719 177.75,120.7188 Q176.7344,120.2656 176.0625,119.4531 Q175.3906,118.6406 175.0625,117.5 Q174.7344,116.3438 174.7344,114.9531 Q174.7344,113.5781 175.1094,112.4219 Q175.4844,111.2656 176.2031,110.4375 Q176.9219,109.6094 177.9844,109.1563 Q179.0469,108.6875 180.4375,108.6875 Q181.3438,108.6875 182.25,108.9219 Q183.1563,109.1406 183.9844,109.5469 L183.1563,111.6406 Q182.4688,111.3125 181.7813,111.0781 Q181.0938,110.8281 180.4375,110.8281 Z " fill="#000000"/><text fill="#000000" font-family="sans-serif" font-size="14" lengthAdjust="spacing" textLength="104" x="194.5" y="119.8467">Implementation</text></g><!--class Alias--><g id="elem_Alias"><rect codeLine="25" fill="#CCFFFF" height="32" id="Alias" rx="2.5" ry="2.5" style="stroke:#A9A9A9;stroke-width:0.5;" width="62" x="1164.5" y="319"/><ellipse cx="1179.5" cy="335" fill="#FFFFFF" rx="11" ry="11" style="stroke:#181818;stroke-width:1.0;"/><path d="M1179.4375,330.8281 Q1178.6875,330.8281 1178.125,331.125 Q1177.5625,331.4063 1177.1719,331.9375 Q1176.7813,332.4688 1176.5781,333.25 Q1176.3906,334.0156 1176.3906,334.9688 Q1176.3906,335.9375 1176.5625,336.7031 Q1176.75,337.4531 1177.1094,337.9688 Q1177.4844,338.4844 1178.0625,338.7656 Q1178.6406,339.0313 1179.4375,339.0313 Q1180.1719,339.0313 1180.9063,338.8594 Q1181.6563,338.6875 1182.5313,338.3906 L1182.5313,340.5469 Q1182.125,340.7031 1181.7344,340.8281 Q1181.3438,340.9375 1180.9375,341.0156 Q1180.5313,341.0938 1180.1094,341.125 Q1179.6875,341.1719 1179.1875,341.1719 Q1177.7813,341.1719 1176.75,340.7188 Q1175.7344,340.2656 1175.0625,339.4531 Q1174.3906,338.6406 1174.0625,337.5 Q1173.7344,336.3438 1173.7344,334.9531 Q1173.7344,333.5781 1174.1094,332.4219 Q1174.4844,331.2656 1175.2031,330.4375 Q1175.9219,329.6094 1176.9844,329.1563 Q1178.0469,328.6875 1179.4375,328.6875 Q1180.3438,328.6875 1181.25,328.9219 Q1182.1563,329.1406 1182.9844,329.5469 L1182.1563,331.6406 Q1181.4688,331.3125 1180.7813,331.0781 Q1180.0938,330.8281 1179.4375,330.8281 Z " fill="#000000"/><text fill="#000000" font-family="sans-serif" font-size="14" lengthAdjust="spacing" textLength="30" x="1193.5" y="339.8467">Alias</text></g><!--class TWithInterfaces--><g id="elem_TWithInterfaces"><rect codeLine="27" fill="#CCFFFF" height="32" id="TWithInterfaces" rx="2.5" ry="2.5" style="stroke:#A9A9A9;stroke-width:0.5;" width="132" x="2149.5" y="203"/><ellipse cx="2164.5" cy="219" fill="#FFFFFF" rx="11" ry="11" style="stroke:#181818;stroke-width:1.0;"/><path d="M2165.9531,225.75 L2163.3906,225.75 L2163.3906,215.75 L2160.3438,215.75 L2160.3438,213.6094 L2168.9844,213.6094 L2168.9844,215.75 L2165.9531,215.75 L2165.9531,225.75 Z " fill="#000000"/><text fill="#000000" font-family="sans-serif" font-size="14" lengthAdjust="spacing" textLength="100" x="2178.5" y="223.8467">TWithInterfaces</text></g><!--class ParametricFunction--><g id="elem_ParametricFunction"><rect codeLine="29" fill="#CCFFFF" height="32" id="ParametricFunction" rx="2.5" ry="2.5" style="stroke:#A9A9A9;stroke-width:0.5;" width="156" x="1745.5" y="680"/><ellipse cx="1760.5" cy="696" fill="#FFFFFF" rx="11" ry="11" style="stroke:#181818;stroke-width:1.0;"/><path d="M1760.4375,691.8281 Q1759.6875,691.8281 1759.125,692.125 Q1758.5625,692.4063 1758.1719,692.9375 Q1757.7813,693.4688 1757.5781,694.25 Q1757.3906,695.0156 1757.3906,695.9688 Q1757.3906,696.9375 1757.5625,697.7031 Q1757.75,698.4531 1758.1094,698.9688 Q1758.4844,699.4844 1759.0625,699.7656 Q1759.6406,700.0313 1760.4375,700.0313 Q1761.1719,700.0313 1761.9063,699.8594 Q1762.6563,699.6875 1763.5313,699.3906 L1763.5313,701.5469 Q1763.125,701.7031 1762.7344,701.8281 Q1762.3438,701.9375 1761.9375,702.0156 Q1761.5313,702.0938 1761.1094,702.125 Q1760.6875,702.1719 1760.1875,702.1719 Q1758.7813,702.1719 1757.75,701.7188 Q1756.7344,701.2656 1756.0625,700.4531 Q1755.3906,699.6406 1755.0625,698.5 Q1754.7344,697.3438 1754.7344,695.9531 Q1754.7344,694.5781 1755.1094,693.4219 Q1755.4844,692.2656 1756.2031,691.4375 Q1756.9219,690.6094 1757.9844,690.1563 Q1759.0469,689.6875 1760.4375,689.6875 Q1761.3438,689.6875 1762.25,689.9219 Q1763.1563,690.1406 1763.9844,690.5469 L1763.1563,692.6406 Q1762.4688,692.3125 1761.7813,692.0781 Q1761.0938,691.8281 1760.4375,691.8281 Z " fill="#000000"/><text fill="#000000" font-family="sans-serif" font-size="14" lengthAdjust="spacing" textLength="124" x="1774.5" y="700.8467">ParametricFunction</text></g><!--class Invocation--><g id="elem_Invocation"><rect codeLine="31" fill="#CCFFFF" height="32" id="Invocation" rx="2.5" ry="2.5" style="stroke:#A9A9A9;stroke-width:0.5;" width="98" x="336.5" y="99"/><ellipse cx="351.5" cy="115" fill="#FFFFFF" rx="11" ry="11" style="stroke:#181818;stroke-width:1.0;"/><path d="M351.4375,110.8281 Q350.6875,110.8281 350.125,111.125 Q349.5625,111.4063 349.1719,111.9375 Q348.7813,112.4688 348.5781,113.25 Q348.3906,114.0156 348.3906,114.9688 Q348.3906,115.9375 348.5625,116.7031 Q348.75,117.4531 349.1094,117.9688 Q349.4844,118.4844 350.0625,118.7656 Q350.6406,119.0313 351.4375,119.0313 Q352.1719,119.0313 352.9063,118.8594 Q353.6563,118.6875 354.5313,118.3906 L354.5313,120.5469 Q354.125,120.7031 353.7344,120.8281 Q353.3438,120.9375 352.9375,121.0156 Q352.5313,121.0938 352.1094,121.125 Q351.6875,121.1719 351.1875,121.1719 Q349.7813,121.1719 348.75,120.7188 Q347.7344,120.2656 347.0625,119.4531 Q346.3906,118.6406 346.0625,117.5 Q345.7344,116.3438 345.7344,114.9531 Q345.7344,113.5781 346.1094,112.4219 Q346.4844,111.2656 347.2031,110.4375 Q347.9219,109.6094 348.9844,109.1563 Q350.0469,108.6875 351.4375,108.6875 Q352.3438,108.6875 353.25,108.9219 Q354.1563,109.1406 354.9844,109.5469 L354.1563,111.6406 Q353.4688,111.3125 352.7813,111.0781 Q352.0938,110.8281 351.4375,110.8281 Z " fill="#000000"/><text fill="#000000" font-family="sans-serif" font-size="14" lengthAdjust="spacing" textLength="66" x="365.5" y="119.8467">Invocation</text></g><!--class Class--><g id="elem_Class"><rect codeLine="33" fill="#CCFFFF" height="32" id="Class" rx="2.5" ry="2.5" style="stroke:#A9A9A9;stroke-width:0.5;" width="63" x="2151" y="588"/><ellipse cx="2166" cy="604" fill="#FFFFFF" rx="11" ry="11" style="stroke:#181818;stroke-width:1.0;"/><path d="M2165.9375,599.8281 Q2165.1875,599.8281 2164.625,600.125 Q2164.0625,600.4063 2163.6719,600.9375 Q2163.2813,601.4688 2163.0781,602.25 Q2162.8906,603.0156 2162.8906,603.9688 Q2162.8906,604.9375 2163.0625,605.7031 Q2163.25,606.4531 2163.6094,606.9688 Q2163.9844,607.4844 2164.5625,607.7656 Q2165.1406,608.0313 2165.9375,608.0313 Q2166.6719,608.0313 2167.4063,607.8594 Q2168.1563,607.6875 2169.0313,607.3906 L2169.0313,609.5469 Q2168.625,609.7031 2168.2344,609.8281 Q2167.8438,609.9375 2167.4375,610.0156 Q2167.0313,610.0938 2166.6094,610.125 Q2166.1875,610.1719 2165.6875,610.1719 Q2164.2813,610.1719 2163.25,609.7188 Q2162.2344,609.2656 2161.5625,608.4531 Q2160.8906,607.6406 2160.5625,606.5 Q2160.2344,605.3438 2160.2344,603.9531 Q2160.2344,602.5781 2160.6094,601.4219 Q2160.9844,600.2656 2161.7031,599.4375 Q2162.4219,598.6094 2163.4844,598.1563 Q2164.5469,597.6875 2165.9375,597.6875 Q2166.8438,597.6875 2167.75,597.9219 Q2168.6563,598.1406 2169.4844,598.5469 L2168.6563,600.6406 Q2167.9688,600.3125 2167.2813,600.0781 Q2166.5938,599.8281 2165.9375,599.8281 Z " fill="#000000"/><text fill="#000000" font-family="sans-serif" font-size="14" lengthAdjust="spacing" textLength="31" x="2180" y="608.8467">Class</text></g><!--class Property--><g id="elem_Property"><rect codeLine="35" fill="#CCFFFF" height="105.1875" id="Property" rx="2.5" ry="2.5" style="stroke:#A9A9A9;stroke-width:0.5;" width="197" x="1427" y="423"/><ellipse cx="1493.25" cy="439" fill="#FFFFFF" rx="11" ry="11" style="stroke:#181818;stroke-width:1.0;"/><path d="M1493.1875,434.8281 Q1492.4375,434.8281 1491.875,435.125 Q1491.3125,435.4063 1490.9219,435.9375 Q1490.5313,436.4688 1490.3281,437.25 Q1490.1406,438.0156 1490.1406,438.9688 Q1490.1406,439.9375 1490.3125,440.7031 Q1490.5,441.4531 1490.8594,441.9688 Q1491.2344,442.4844 1491.8125,442.7656 Q1492.3906,443.0313 1493.1875,443.0313 Q1493.9219,443.0313 1494.6563,442.8594 Q1495.4063,442.6875 1496.2813,442.3906 L1496.2813,444.5469 Q1495.875,444.7031 1495.4844,444.8281 Q1495.0938,444.9375 1494.6875,445.0156 Q1494.2813,445.0938 1493.8594,445.125 Q1493.4375,445.1719 1492.9375,445.1719 Q1491.5313,445.1719 1490.5,444.7188 Q1489.4844,444.2656 1488.8125,443.4531 Q1488.1406,442.6406 1487.8125,441.5 Q1487.4844,440.3438 1487.4844,438.9531 Q1487.4844,437.5781 1487.8594,436.4219 Q1488.2344,435.2656 1488.9531,434.4375 Q1489.6719,433.6094 1490.7344,433.1563 Q1491.7969,432.6875 1493.1875,432.6875 Q1494.0938,432.6875 1495,432.9219 Q1495.9063,433.1406 1496.7344,433.5469 L1495.9063,435.6406 Q1495.2188,435.3125 1494.5313,435.0781 Q1493.8438,434.8281 1493.1875,434.8281 Z " fill="#000000"/><text fill="#000000" font-family="sans-serif" font-size="14" lengthAdjust="spacing" textLength="56" x="1513.75" y="443.8467">Property</text><line style="stroke:#A9A9A9;stroke-width:0.5;" x1="1428" x2="1623" y1="455" y2="455"/><text fill="#000000" font-family="sans-serif" font-size="14" lengthAdjust="spacing" textLength="172" x="1433" y="471.9951">Boolean isJavaScriptPrivate</text><text fill="#000000" font-family="sans-serif" font-size="14" lengthAdjust="spacing" textLength="185" x="1433" y="488.292">Boolean isDefinitelyAssigned</text><text fill="#000000" font-family="sans-serif" font-size="14" lengthAdjust="spacing" textLength="120" x="1433" y="504.5889">Boolean isOptional</text><text fill="#000000" font-family="sans-serif" font-size="14" lengthAdjust="spacing" textLength="114" x="1433" y="520.8857">Boolean readOnly</text></g><!--class TEntityCreator--><g id="elem_TEntityCreator"><rect codeLine="41" fill="#CCFFFF" height="32" id="TEntityCreator" rx="2.5" ry="2.5" style="stroke:#A9A9A9;stroke-width:0.5;" width="123" x="1735" y="7"/><ellipse cx="1750" cy="23" fill="#FFFFFF" rx="11" ry="11" style="stroke:#181818;stroke-width:1.0;"/><path d="M1751.4531,29.75 L1748.8906,29.75 L1748.8906,19.75 L1745.8438,19.75 L1745.8438,17.6094 L1754.4844,17.6094 L1754.4844,19.75 L1751.4531,19.75 L1751.4531,29.75 Z " fill="#000000"/><text fill="#000000" font-family="sans-serif" font-size="14" lengthAdjust="spacing" textLength="91" x="1764" y="27.8467">TEntityCreator</text></g><!--class ParameterConcretization--><g id="elem_ParameterConcretization"><rect codeLine="43" fill="#CCFFFF" height="32" id="ParameterConcretization" rx="2.5" ry="2.5" style="stroke:#A9A9A9;stroke-width:0.5;" width="191" x="470" y="99"/><ellipse cx="485" cy="115" fill="#FFFFFF" rx="11" ry="11" style="stroke:#181818;stroke-width:1.0;"/><path d="M484.9375,110.8281 Q484.1875,110.8281 483.625,111.125 Q483.0625,111.4063 482.6719,111.9375 Q482.2813,112.4688 482.0781,113.25 Q481.8906,114.0156 481.8906,114.9688 Q481.8906,115.9375 482.0625,116.7031 Q482.25,117.4531 482.6094,117.9688 Q482.9844,118.4844 483.5625,118.7656 Q484.1406,119.0313 484.9375,119.0313 Q485.6719,119.0313 486.4063,118.8594 Q487.1563,118.6875 488.0313,118.3906 L488.0313,120.5469 Q487.625,120.7031 487.2344,120.8281 Q486.8438,120.9375 486.4375,121.0156 Q486.0313,121.0938 485.6094,121.125 Q485.1875,121.1719 484.6875,121.1719 Q483.2813,121.1719 482.25,120.7188 Q481.2344,120.2656 480.5625,119.4531 Q479.8906,118.6406 479.5625,117.5 Q479.2344,116.3438 479.2344,114.9531 Q479.2344,113.5781 479.6094,112.4219 Q479.9844,111.2656 480.7031,110.4375 Q481.4219,109.6094 482.4844,109.1563 Q483.5469,108.6875 484.9375,108.6875 Q485.8438,108.6875 486.75,108.9219 Q487.6563,109.1406 488.4844,109.5469 L487.6563,111.6406 Q486.9688,111.3125 486.2813,111.0781 Q485.5938,110.8281 484.9375,110.8281 Z " fill="#000000"/><text fill="#000000" font-family="sans-serif" font-size="14" lengthAdjust="spacing" textLength="159" x="499" y="119.8467">ParameterConcretization</text></g><!--class ParametricArrowFunction--><g id="elem_ParametricArrowFunction"><rect codeLine="45" fill="#CCFFFF" height="32" id="ParametricArrowFunction" rx="2.5" ry="2.5" style="stroke:#A9A9A9;stroke-width:0.5;" width="195" x="1515" y="680"/><ellipse cx="1530" cy="696" fill="#FFFFFF" rx="11" ry="11" style="stroke:#181818;stroke-width:1.0;"/><path d="M1529.9375,691.8281 Q1529.1875,691.8281 1528.625,692.125 Q1528.0625,692.4063 1527.6719,692.9375 Q1527.2813,693.4688 1527.0781,694.25 Q1526.8906,695.0156 1526.8906,695.9688 Q1526.8906,696.9375 1527.0625,697.7031 Q1527.25,698.4531 1527.6094,698.9688 Q1527.9844,699.4844 1528.5625,699.7656 Q1529.1406,700.0313 1529.9375,700.0313 Q1530.6719,700.0313 1531.4063,699.8594 Q1532.1563,699.6875 1533.0313,699.3906 L1533.0313,701.5469 Q1532.625,701.7031 1532.2344,701.8281 Q1531.8438,701.9375 1531.4375,702.0156 Q1531.0313,702.0938 1530.6094,702.125 Q1530.1875,702.1719 1529.6875,702.1719 Q1528.2813,702.1719 1527.25,701.7188 Q1526.2344,701.2656 1525.5625,700.4531 Q1524.8906,699.6406 1524.5625,698.5 Q1524.2344,697.3438 1524.2344,695.9531 Q1524.2344,694.5781 1524.6094,693.4219 Q1524.9844,692.2656 1525.7031,691.4375 Q1526.4219,690.6094 1527.4844,690.1563 Q1528.5469,689.6875 1529.9375,689.6875 Q1530.8438,689.6875 1531.75,689.9219 Q1532.6563,690.1406 1533.4844,690.5469 L1532.6563,692.6406 Q1531.9688,692.3125 1531.2813,692.0781 Q1530.5938,691.8281 1529.9375,691.8281 Z " fill="#000000"/><text fill="#000000" font-family="sans-serif" font-size="14" lengthAdjust="spacing" textLength="163" x="1544" y="700.8467">ParametricArrowFunction</text></g><!--class ArrowFunction--><g id="elem_ArrowFunction"><rect codeLine="47" fill="#CCFFFF" height="32" id="ArrowFunction" rx="2.5" ry="2.5" style="stroke:#A9A9A9;stroke-width:0.5;" width="125" x="1724" y="588"/><ellipse cx="1739" cy="604" fill="#FFFFFF" rx="11" ry="11" style="stroke:#181818;stroke-width:1.0;"/><path d="M1738.9375,599.8281 Q1738.1875,599.8281 1737.625,600.125 Q1737.0625,600.4063 1736.6719,600.9375 Q1736.2813,601.4688 1736.0781,602.25 Q1735.8906,603.0156 1735.8906,603.9688 Q1735.8906,604.9375 1736.0625,605.7031 Q1736.25,606.4531 1736.6094,606.9688 Q1736.9844,607.4844 1737.5625,607.7656 Q1738.1406,608.0313 1738.9375,608.0313 Q1739.6719,608.0313 1740.4063,607.8594 Q1741.1563,607.6875 1742.0313,607.3906 L1742.0313,609.5469 Q1741.625,609.7031 1741.2344,609.8281 Q1740.8438,609.9375 1740.4375,610.0156 Q1740.0313,610.0938 1739.6094,610.125 Q1739.1875,610.1719 1738.6875,610.1719 Q1737.2813,610.1719 1736.25,609.7188 Q1735.2344,609.2656 1734.5625,608.4531 Q1733.8906,607.6406 1733.5625,606.5 Q1733.2344,605.3438 1733.2344,603.9531 Q1733.2344,602.5781 1733.6094,601.4219 Q1733.9844,600.2656 1734.7031,599.4375 Q1735.4219,598.6094 1736.4844,598.1563 Q1737.5469,597.6875 1738.9375,597.6875 Q1739.8438,597.6875 1740.75,597.9219 Q1741.6563,598.1406 1742.4844,598.5469 L1741.6563,600.6406 Q1740.9688,600.3125 1740.2813,600.0781 Q1739.5938,599.8281 1738.9375,599.8281 Z " fill="#000000"/><text fill="#000000" font-family="sans-serif" font-size="14" lengthAdjust="spacing" textLength="93" x="1753" y="608.8467">ArrowFunction</text></g><!--class Decorator--><g id="elem_Decorator"><rect codeLine="49" fill="#CCFFFF" height="56.2969" id="Decorator" rx="2.5" ry="2.5" style="stroke:#A9A9A9;stroke-width:0.5;" width="122" x="1007.5" y="307"/><ellipse cx="1034.2" cy="323" fill="#FFFFFF" rx="11" ry="11" style="stroke:#181818;stroke-width:1.0;"/><path d="M1034.1375,318.8281 Q1033.3875,318.8281 1032.825,319.125 Q1032.2625,319.4063 1031.8719,319.9375 Q1031.4813,320.4688 1031.2781,321.25 Q1031.0906,322.0156 1031.0906,322.9688 Q1031.0906,323.9375 1031.2625,324.7031 Q1031.45,325.4531 1031.8094,325.9688 Q1032.1844,326.4844 1032.7625,326.7656 Q1033.3406,327.0313 1034.1375,327.0313 Q1034.8719,327.0313 1035.6063,326.8594 Q1036.3563,326.6875 1037.2313,326.3906 L1037.2313,328.5469 Q1036.825,328.7031 1036.4344,328.8281 Q1036.0438,328.9375 1035.6375,329.0156 Q1035.2313,329.0938 1034.8094,329.125 Q1034.3875,329.1719 1033.8875,329.1719 Q1032.4813,329.1719 1031.45,328.7188 Q1030.4344,328.2656 1029.7625,327.4531 Q1029.0906,326.6406 1028.7625,325.5 Q1028.4344,324.3438 1028.4344,322.9531 Q1028.4344,321.5781 1028.8094,320.4219 Q1029.1844,319.2656 1029.9031,318.4375 Q1030.6219,317.6094 1031.6844,317.1563 Q1032.7469,316.6875 1034.1375,316.6875 Q1035.0438,316.6875 1035.95,316.9219 Q1036.8563,317.1406 1037.6844,317.5469 L1036.8563,319.6406 Q1036.1688,319.3125 1035.4813,319.0781 Q1034.7938,318.8281 1034.1375,318.8281 Z " fill="#000000"/><text fill="#000000" font-family="sans-serif" font-size="14" lengthAdjust="spacing" textLength="64" x="1050.8" y="327.8467">Decorator</text><line style="stroke:#A9A9A9;stroke-width:0.5;" x1="1008.5" x2="1128.5" y1="339" y2="339"/><text fill="#000000" font-family="sans-serif" font-size="14" lengthAdjust="spacing" textLength="110" x="1013.5" y="355.9951">String expression</text></g><!--class Module--><g id="elem_Module"><rect codeLine="52" fill="#CCFFFF" height="32" id="Module" rx="2.5" ry="2.5" style="stroke:#A9A9A9;stroke-width:0.5;" width="80" x="2952.5" y="680"/><ellipse cx="2967.5" cy="696" fill="#FFFFFF" rx="11" ry="11" style="stroke:#181818;stroke-width:1.0;"/><path d="M2967.4375,691.8281 Q2966.6875,691.8281 2966.125,692.125 Q2965.5625,692.4063 2965.1719,692.9375 Q2964.7813,693.4688 2964.5781,694.25 Q2964.3906,695.0156 2964.3906,695.9688 Q2964.3906,696.9375 2964.5625,697.7031 Q2964.75,698.4531 2965.1094,698.9688 Q2965.4844,699.4844 2966.0625,699.7656 Q2966.6406,700.0313 2967.4375,700.0313 Q2968.1719,700.0313 2968.9063,699.8594 Q2969.6563,699.6875 2970.5313,699.3906 L2970.5313,701.5469 Q2970.125,701.7031 2969.7344,701.8281 Q2969.3438,701.9375 2968.9375,702.0156 Q2968.5313,702.0938 2968.1094,702.125 Q2967.6875,702.1719 2967.1875,702.1719 Q2965.7813,702.1719 2964.75,701.7188 Q2963.7344,701.2656 2963.0625,700.4531 Q2962.3906,699.6406 2962.0625,698.5 Q2961.7344,697.3438 2961.7344,695.9531 Q2961.7344,694.5781 2962.1094,693.4219 Q2962.4844,692.2656 2963.2031,691.4375 Q2963.9219,690.6094 2964.9844,690.1563 Q2966.0469,689.6875 2967.4375,689.6875 Q2968.3438,689.6875 2969.25,689.9219 Q2970.1563,690.1406 2970.9844,690.5469 L2970.1563,692.6406 Q2969.4688,692.3125 2968.7813,692.0781 Q2968.0938,691.8281 2967.4375,691.8281 Z " fill="#000000"/><text fill="#000000" font-family="sans-serif" font-size="14" lengthAdjust="spacing" textLength="48" x="2981.5" y="700.8467">Module</text></g><!--class Function--><g id="elem_Function"><rect codeLine="54" fill="#CCFFFF" height="32" id="Function" rx="2.5" ry="2.5" style="stroke:#A9A9A9;stroke-width:0.5;" width="86" x="1884.5" y="588"/><ellipse cx="1899.5" cy="604" fill="#FFFFFF" rx="11" ry="11" style="stroke:#181818;stroke-width:1.0;"/><path d="M1899.4375,599.8281 Q1898.6875,599.8281 1898.125,600.125 Q1897.5625,600.4063 1897.1719,600.9375 Q1896.7813,601.4688 1896.5781,602.25 Q1896.3906,603.0156 1896.3906,603.9688 Q1896.3906,604.9375 1896.5625,605.7031 Q1896.75,606.4531 1897.1094,606.9688 Q1897.4844,607.4844 1898.0625,607.7656 Q1898.6406,608.0313 1899.4375,608.0313 Q1900.1719,608.0313 1900.9063,607.8594 Q1901.6563,607.6875 1902.5313,607.3906 L1902.5313,609.5469 Q1902.125,609.7031 1901.7344,609.8281 Q1901.3438,609.9375 1900.9375,610.0156 Q1900.5313,610.0938 1900.1094,610.125 Q1899.6875,610.1719 1899.1875,610.1719 Q1897.7813,610.1719 1896.75,609.7188 Q1895.7344,609.2656 1895.0625,608.4531 Q1894.3906,607.6406 1894.0625,606.5 Q1893.7344,605.3438 1893.7344,603.9531 Q1893.7344,602.5781 1894.1094,601.4219 Q1894.4844,600.2656 1895.2031,599.4375 Q1895.9219,598.6094 1896.9844,598.1563 Q1898.0469,597.6875 1899.4375,597.6875 Q1900.3438,597.6875 1901.25,597.9219 Q1902.1563,598.1406 1902.9844,598.5469 L1902.1563,600.6406 Q1901.4688,600.3125 1900.7813,600.0781 Q1900.0938,599.8281 1899.4375,599.8281 Z " fill="#000000"/><text fill="#000000" font-family="sans-serif" font-size="14" lengthAdjust="spacing" textLength="54" x="1913.5" y="608.8467">Function</text></g><!--class Method--><g id="elem_Method"><rect codeLine="56" fill="#CCFFFF" height="32" id="Method" rx="2.5" ry="2.5" style="stroke:#A9A9A9;stroke-width:0.5;" width="81" x="2006" y="588"/><ellipse cx="2021" cy="604" fill="#FFFFFF" rx="11" ry="11" style="stroke:#181818;stroke-width:1.0;"/><path d="M2020.9375,599.8281 Q2020.1875,599.8281 2019.625,600.125 Q2019.0625,600.4063 2018.6719,600.9375 Q2018.2813,601.4688 2018.0781,602.25 Q2017.8906,603.0156 2017.8906,603.9688 Q2017.8906,604.9375 2018.0625,605.7031 Q2018.25,606.4531 2018.6094,606.9688 Q2018.9844,607.4844 2019.5625,607.7656 Q2020.1406,608.0313 2020.9375,608.0313 Q2021.6719,608.0313 2022.4063,607.8594 Q2023.1563,607.6875 2024.0313,607.3906 L2024.0313,609.5469 Q2023.625,609.7031 2023.2344,609.8281 Q2022.8438,609.9375 2022.4375,610.0156 Q2022.0313,610.0938 2021.6094,610.125 Q2021.1875,610.1719 2020.6875,610.1719 Q2019.2813,610.1719 2018.25,609.7188 Q2017.2344,609.2656 2016.5625,608.4531 Q2015.8906,607.6406 2015.5625,606.5 Q2015.2344,605.3438 2015.2344,603.9531 Q2015.2344,602.5781 2015.6094,601.4219 Q2015.9844,600.2656 2016.7031,599.4375 Q2017.4219,598.6094 2018.4844,598.1563 Q2019.5469,597.6875 2020.9375,597.6875 Q2021.8438,597.6875 2022.75,597.9219 Q2023.6563,598.1406 2024.4844,598.5469 L2023.6563,600.6406 Q2022.9688,600.3125 2022.2813,600.0781 Q2021.5938,599.8281 2020.9375,599.8281 Z " fill="#000000"/><text fill="#000000" font-family="sans-serif" font-size="14" lengthAdjust="spacing" textLength="49" x="2035" y="608.8467">Method</text></g><!--class TClassMetrics--><g id="elem_TClassMetrics"><rect codeLine="58" fill="#CCFFFF" height="32" id="TClassMetrics" rx="2.5" ry="2.5" style="stroke:#A9A9A9;stroke-width:0.5;" width="117" x="2124" y="459.5"/><ellipse cx="2139" cy="475.5" fill="#FFFFFF" rx="11" ry="11" style="stroke:#181818;stroke-width:1.0;"/><path d="M2140.4531,482.25 L2137.8906,482.25 L2137.8906,472.25 L2134.8438,472.25 L2134.8438,470.1094 L2143.4844,470.1094 L2143.4844,472.25 L2140.4531,472.25 L2140.4531,482.25 Z " fill="#000000"/><text fill="#000000" font-family="sans-serif" font-size="14" lengthAdjust="spacing" textLength="85" x="2153" y="480.3467">TClassMetrics</text></g><!--class Access--><g id="elem_Access"><rect codeLine="60" fill="#CCFFFF" height="32" id="Access" rx="2.5" ry="2.5" style="stroke:#A9A9A9;stroke-width:0.5;" width="73" x="696" y="99"/><ellipse cx="711" cy="115" fill="#FFFFFF" rx="11" ry="11" style="stroke:#181818;stroke-width:1.0;"/><path d="M710.9375,110.8281 Q710.1875,110.8281 709.625,111.125 Q709.0625,111.4063 708.6719,111.9375 Q708.2813,112.4688 708.0781,113.25 Q707.8906,114.0156 707.8906,114.9688 Q707.8906,115.9375 708.0625,116.7031 Q708.25,117.4531 708.6094,117.9688 Q708.9844,118.4844 709.5625,118.7656 Q710.1406,119.0313 710.9375,119.0313 Q711.6719,119.0313 712.4063,118.8594 Q713.1563,118.6875 714.0313,118.3906 L714.0313,120.5469 Q713.625,120.7031 713.2344,120.8281 Q712.8438,120.9375 712.4375,121.0156 Q712.0313,121.0938 711.6094,121.125 Q711.1875,121.1719 710.6875,121.1719 Q709.2813,121.1719 708.25,120.7188 Q707.2344,120.2656 706.5625,119.4531 Q705.8906,118.6406 705.5625,117.5 Q705.2344,116.3438 705.2344,114.9531 Q705.2344,113.5781 705.6094,112.4219 Q705.9844,111.2656 706.7031,110.4375 Q707.4219,109.6094 708.4844,109.1563 Q709.5469,108.6875 710.9375,108.6875 Q711.8438,108.6875 712.75,108.9219 Q713.6563,109.1406 714.4844,109.5469 L713.6563,111.6406 Q712.9688,111.3125 712.2813,111.0781 Q711.5938,110.8281 710.9375,110.8281 Z " fill="#000000"/><text fill="#000000" font-family="sans-serif" font-size="14" lengthAdjust="spacing" textLength="41" x="725" y="119.8467">Access</text></g><!--class Comment--><g id="elem_Comment"><rect codeLine="62" fill="#CCFFFF" height="56.2969" id="Comment" rx="2.5" ry="2.5" style="stroke:#A9A9A9;stroke-width:0.5;" width="113" x="1093" y="191"/><ellipse cx="1116.1" cy="207" fill="#FFFFFF" rx="11" ry="11" style="stroke:#181818;stroke-width:1.0;"/><path d="M1116.0375,202.8281 Q1115.2875,202.8281 1114.725,203.125 Q1114.1625,203.4063 1113.7719,203.9375 Q1113.3813,204.4688 1113.1781,205.25 Q1112.9906,206.0156 1112.9906,206.9688 Q1112.9906,207.9375 1113.1625,208.7031 Q1113.35,209.4531 1113.7094,209.9688 Q1114.0844,210.4844 1114.6625,210.7656 Q1115.2406,211.0313 1116.0375,211.0313 Q1116.7719,211.0313 1117.5063,210.8594 Q1118.2563,210.6875 1119.1313,210.3906 L1119.1313,212.5469 Q1118.725,212.7031 1118.3344,212.8281 Q1117.9438,212.9375 1117.5375,213.0156 Q1117.1313,213.0938 1116.7094,213.125 Q1116.2875,213.1719 1115.7875,213.1719 Q1114.3813,213.1719 1113.35,212.7188 Q1112.3344,212.2656 1111.6625,211.4531 Q1110.9906,210.6406 1110.6625,209.5 Q1110.3344,208.3438 1110.3344,206.9531 Q1110.3344,205.5781 1110.7094,204.4219 Q1111.0844,203.2656 1111.8031,202.4375 Q1112.5219,201.6094 1113.5844,201.1563 Q1114.6469,200.6875 1116.0375,200.6875 Q1116.9438,200.6875 1117.85,200.9219 Q1118.7563,201.1406 1119.5844,201.5469 L1118.7563,203.6406 Q1118.0688,203.3125 1117.3813,203.0781 Q1116.6938,202.8281 1116.0375,202.8281 Z " fill="#000000"/><text fill="#000000" font-family="sans-serif" font-size="14" lengthAdjust="spacing" textLength="63" x="1131.9" y="211.8467">Comment</text><line style="stroke:#A9A9A9;stroke-width:0.5;" x1="1094" x2="1205" y1="223" y2="223"/><text fill="#000000" font-family="sans-serif" font-size="14" lengthAdjust="spacing" textLength="101" x="1099" y="239.9951">Boolean isJSDoc</text></g><!--class ImportClause--><g id="elem_ImportClause"><rect codeLine="65" fill="#CCFFFF" height="32" id="ImportClause" rx="2.5" ry="2.5" style="stroke:#A9A9A9;stroke-width:0.5;" width="118" x="804.5" y="99"/><ellipse cx="819.5" cy="115" fill="#FFFFFF" rx="11" ry="11" style="stroke:#181818;stroke-width:1.0;"/><path d="M819.4375,110.8281 Q818.6875,110.8281 818.125,111.125 Q817.5625,111.4063 817.1719,111.9375 Q816.7813,112.4688 816.5781,113.25 Q816.3906,114.0156 816.3906,114.9688 Q816.3906,115.9375 816.5625,116.7031 Q816.75,117.4531 817.1094,117.9688 Q817.4844,118.4844 818.0625,118.7656 Q818.6406,119.0313 819.4375,119.0313 Q820.1719,119.0313 820.9063,118.8594 Q821.6563,118.6875 822.5313,118.3906 L822.5313,120.5469 Q822.125,120.7031 821.7344,120.8281 Q821.3438,120.9375 820.9375,121.0156 Q820.5313,121.0938 820.1094,121.125 Q819.6875,121.1719 819.1875,121.1719 Q817.7813,121.1719 816.75,120.7188 Q815.7344,120.2656 815.0625,119.4531 Q814.3906,118.6406 814.0625,117.5 Q813.7344,116.3438 813.7344,114.9531 Q813.7344,113.5781 814.1094,112.4219 Q814.4844,111.2656 815.2031,110.4375 Q815.9219,109.6094 816.9844,109.1563 Q818.0469,108.6875 819.4375,108.6875 Q820.3438,108.6875 821.25,108.9219 Q822.1563,109.1406 822.9844,109.5469 L822.1563,111.6406 Q821.4688,111.3125 820.7813,111.0781 Q820.0938,110.8281 819.4375,110.8281 Z " fill="#000000"/><text fill="#000000" font-family="sans-serif" font-size="14" lengthAdjust="spacing" textLength="86" x="833.5" y="119.8467">ImportClause</text></g><!--class IndexedFileAnchor--><g id="elem_IndexedFileAnchor"><rect codeLine="67" fill="#CCFFFF" height="32" id="IndexedFileAnchor" rx="2.5" ry="2.5" style="stroke:#A9A9A9;stroke-width:0.5;" width="152" x="1464.5" y="203"/><ellipse cx="1479.5" cy="219" fill="#FFFFFF" rx="11" ry="11" style="stroke:#181818;stroke-width:1.0;"/><path d="M1479.4375,214.8281 Q1478.6875,214.8281 1478.125,215.125 Q1477.5625,215.4063 1477.1719,215.9375 Q1476.7813,216.4688 1476.5781,217.25 Q1476.3906,218.0156 1476.3906,218.9688 Q1476.3906,219.9375 1476.5625,220.7031 Q1476.75,221.4531 1477.1094,221.9688 Q1477.4844,222.4844 1478.0625,222.7656 Q1478.6406,223.0313 1479.4375,223.0313 Q1480.1719,223.0313 1480.9063,222.8594 Q1481.6563,222.6875 1482.5313,222.3906 L1482.5313,224.5469 Q1482.125,224.7031 1481.7344,224.8281 Q1481.3438,224.9375 1480.9375,225.0156 Q1480.5313,225.0938 1480.1094,225.125 Q1479.6875,225.1719 1479.1875,225.1719 Q1477.7813,225.1719 1476.75,224.7188 Q1475.7344,224.2656 1475.0625,223.4531 Q1474.3906,222.6406 1474.0625,221.5 Q1473.7344,220.3438 1473.7344,218.9531 Q1473.7344,217.5781 1474.1094,216.4219 Q1474.4844,215.2656 1475.2031,214.4375 Q1475.9219,213.6094 1476.9844,213.1563 Q1478.0469,212.6875 1479.4375,212.6875 Q1480.3438,212.6875 1481.25,212.9219 Q1482.1563,213.1406 1482.9844,213.5469 L1482.1563,215.6406 Q1481.4688,215.3125 1480.7813,215.0781 Q1480.0938,214.8281 1479.4375,214.8281 Z " fill="#000000"/><text fill="#000000" font-family="sans-serif" font-size="14" lengthAdjust="spacing" textLength="120" x="1493.5" y="223.8467">IndexedFileAnchor</text></g><!--class Reference--><g id="elem_Reference"><rect codeLine="69" fill="#CCFFFF" height="32" id="Reference" rx="2.5" ry="2.5" style="stroke:#A9A9A9;stroke-width:0.5;" width="97" x="958" y="99"/><ellipse cx="973" cy="115" fill="#FFFFFF" rx="11" ry="11" style="stroke:#181818;stroke-width:1.0;"/><path d="M972.9375,110.8281 Q972.1875,110.8281 971.625,111.125 Q971.0625,111.4063 970.6719,111.9375 Q970.2813,112.4688 970.0781,113.25 Q969.8906,114.0156 969.8906,114.9688 Q969.8906,115.9375 970.0625,116.7031 Q970.25,117.4531 970.6094,117.9688 Q970.9844,118.4844 971.5625,118.7656 Q972.1406,119.0313 972.9375,119.0313 Q973.6719,119.0313 974.4063,118.8594 Q975.1563,118.6875 976.0313,118.3906 L976.0313,120.5469 Q975.625,120.7031 975.2344,120.8281 Q974.8438,120.9375 974.4375,121.0156 Q974.0313,121.0938 973.6094,121.125 Q973.1875,121.1719 972.6875,121.1719 Q971.2813,121.1719 970.25,120.7188 Q969.2344,120.2656 968.5625,119.4531 Q967.8906,118.6406 967.5625,117.5 Q967.2344,116.3438 967.2344,114.9531 Q967.2344,113.5781 967.6094,112.4219 Q967.9844,111.2656 968.7031,110.4375 Q969.4219,109.6094 970.4844,109.1563 Q971.5469,108.6875 972.9375,108.6875 Q973.8438,108.6875 974.75,108.9219 Q975.6563,109.1406 976.4844,109.5469 L975.6563,111.6406 Q974.9688,111.3125 974.2813,111.0781 Q973.5938,110.8281 972.9375,110.8281 Z " fill="#000000"/><text fill="#000000" font-family="sans-serif" font-size="14" lengthAdjust="spacing" textLength="65" x="987" y="119.8467">Reference</text></g><!--class SourcedEntity--><g id="elem_SourcedEntity"><rect codeLine="71" fill="#CCFFFF" height="32" id="SourcedEntity" rx="2.5" ry="2.5" style="stroke:#A9A9A9;stroke-width:0.5;" width="119" x="1090" y="99"/><ellipse cx="1105" cy="115" fill="#FFFFFF" rx="11" ry="11" style="stroke:#181818;stroke-width:1.0;"/><path d="M1104.9375,110.8281 Q1104.1875,110.8281 1103.625,111.125 Q1103.0625,111.4063 1102.6719,111.9375 Q1102.2813,112.4688 1102.0781,113.25 Q1101.8906,114.0156 1101.8906,114.9688 Q1101.8906,115.9375 1102.0625,116.7031 Q1102.25,117.4531 1102.6094,117.9688 Q1102.9844,118.4844 1103.5625,118.7656 Q1104.1406,119.0313 1104.9375,119.0313 Q1105.6719,119.0313 1106.4063,118.8594 Q1107.1563,118.6875 1108.0313,118.3906 L1108.0313,120.5469 Q1107.625,120.7031 1107.2344,120.8281 Q1106.8438,120.9375 1106.4375,121.0156 Q1106.0313,121.0938 1105.6094,121.125 Q1105.1875,121.1719 1104.6875,121.1719 Q1103.2813,121.1719 1102.25,120.7188 Q1101.2344,120.2656 1100.5625,119.4531 Q1099.8906,118.6406 1099.5625,117.5 Q1099.2344,116.3438 1099.2344,114.9531 Q1099.2344,113.5781 1099.6094,112.4219 Q1099.9844,111.2656 1100.7031,110.4375 Q1101.4219,109.6094 1102.4844,109.1563 Q1103.5469,108.6875 1104.9375,108.6875 Q1105.8438,108.6875 1106.75,108.9219 Q1107.6563,109.1406 1108.4844,109.5469 L1107.6563,111.6406 Q1106.9688,111.3125 1106.2813,111.0781 Q1105.5938,110.8281 1104.9375,110.8281 Z " fill="#000000"/><text fill="#000000" font-family="sans-serif" font-size="14" lengthAdjust="spacing" textLength="87" x="1119" y="119.8467">SourcedEntity</text></g><!--class Variable--><g id="elem_Variable"><rect codeLine="73" fill="#CCFFFF" height="32" id="Variable" rx="2.5" ry="2.5" style="stroke:#A9A9A9;stroke-width:0.5;" width="84" x="1659.5" y="459.5"/><ellipse cx="1674.5" cy="475.5" fill="#FFFFFF" rx="11" ry="11" style="stroke:#181818;stroke-width:1.0;"/><path d="M1674.4375,471.3281 Q1673.6875,471.3281 1673.125,471.625 Q1672.5625,471.9063 1672.1719,472.4375 Q1671.7813,472.9688 1671.5781,473.75 Q1671.3906,474.5156 1671.3906,475.4688 Q1671.3906,476.4375 1671.5625,477.2031 Q1671.75,477.9531 1672.1094,478.4688 Q1672.4844,478.9844 1673.0625,479.2656 Q1673.6406,479.5313 1674.4375,479.5313 Q1675.1719,479.5313 1675.9063,479.3594 Q1676.6563,479.1875 1677.5313,478.8906 L1677.5313,481.0469 Q1677.125,481.2031 1676.7344,481.3281 Q1676.3438,481.4375 1675.9375,481.5156 Q1675.5313,481.5938 1675.1094,481.625 Q1674.6875,481.6719 1674.1875,481.6719 Q1672.7813,481.6719 1671.75,481.2188 Q1670.7344,480.7656 1670.0625,479.9531 Q1669.3906,479.1406 1669.0625,478 Q1668.7344,476.8438 1668.7344,475.4531 Q1668.7344,474.0781 1669.1094,472.9219 Q1669.4844,471.7656 1670.2031,470.9375 Q1670.9219,470.1094 1671.9844,469.6563 Q1673.0469,469.1875 1674.4375,469.1875 Q1675.3438,469.1875 1676.25,469.4219 Q1677.1563,469.6406 1677.9844,470.0469 L1677.1563,472.1406 Q1676.4688,471.8125 1675.7813,471.5781 Q1675.0938,471.3281 1674.4375,471.3281 Z " fill="#000000"/><text fill="#000000" font-family="sans-serif" font-size="14" lengthAdjust="spacing" textLength="52" x="1688.5" y="480.3467">Variable</text></g><!--class Folder--><g id="elem_Folder"><rect codeLine="75" fill="#CCFFFF" height="32" id="Folder" rx="2.5" ry="2.5" style="stroke:#A9A9A9;stroke-width:0.5;" width="73" x="1262" y="319"/><ellipse cx="1277" cy="335" fill="#FFFFFF" rx="11" ry="11" style="stroke:#181818;stroke-width:1.0;"/><path d="M1276.9375,330.8281 Q1276.1875,330.8281 1275.625,331.125 Q1275.0625,331.4063 1274.6719,331.9375 Q1274.2813,332.4688 1274.0781,333.25 Q1273.8906,334.0156 1273.8906,334.9688 Q1273.8906,335.9375 1274.0625,336.7031 Q1274.25,337.4531 1274.6094,337.9688 Q1274.9844,338.4844 1275.5625,338.7656 Q1276.1406,339.0313 1276.9375,339.0313 Q1277.6719,339.0313 1278.4063,338.8594 Q1279.1563,338.6875 1280.0313,338.3906 L1280.0313,340.5469 Q1279.625,340.7031 1279.2344,340.8281 Q1278.8438,340.9375 1278.4375,341.0156 Q1278.0313,341.0938 1277.6094,341.125 Q1277.1875,341.1719 1276.6875,341.1719 Q1275.2813,341.1719 1274.25,340.7188 Q1273.2344,340.2656 1272.5625,339.4531 Q1271.8906,338.6406 1271.5625,337.5 Q1271.2344,336.3438 1271.2344,334.9531 Q1271.2344,333.5781 1271.6094,332.4219 Q1271.9844,331.2656 1272.7031,330.4375 Q1273.4219,329.6094 1274.4844,329.1563 Q1275.5469,328.6875 1276.9375,328.6875 Q1277.8438,328.6875 1278.75,328.9219 Q1279.6563,329.1406 1280.4844,329.5469 L1279.6563,331.6406 Q1278.9688,331.3125 1278.2813,331.0781 Q1277.5938,330.8281 1276.9375,330.8281 Z " fill="#000000"/><text fill="#000000" font-family="sans-serif" font-size="14" lengthAdjust="spacing" textLength="41" x="1291" y="339.8467">Folder</text></g><!--class ParametricInterface--><g id="elem_ParametricInterface"><rect codeLine="77" fill="#CCFFFF" height="32" id="ParametricInterface" rx="2.5" ry="2.5" style="stroke:#A9A9A9;stroke-width:0.5;" width="160" x="2413.5" y="680"/><ellipse cx="2428.5" cy="696" fill="#FFFFFF" rx="11" ry="11" style="stroke:#181818;stroke-width:1.0;"/><path d="M2428.4375,691.8281 Q2427.6875,691.8281 2427.125,692.125 Q2426.5625,692.4063 2426.1719,692.9375 Q2425.7813,693.4688 2425.5781,694.25 Q2425.3906,695.0156 2425.3906,695.9688 Q2425.3906,696.9375 2425.5625,697.7031 Q2425.75,698.4531 2426.1094,698.9688 Q2426.4844,699.4844 2427.0625,699.7656 Q2427.6406,700.0313 2428.4375,700.0313 Q2429.1719,700.0313 2429.9063,699.8594 Q2430.6563,699.6875 2431.5313,699.3906 L2431.5313,701.5469 Q2431.125,701.7031 2430.7344,701.8281 Q2430.3438,701.9375 2429.9375,702.0156 Q2429.5313,702.0938 2429.1094,702.125 Q2428.6875,702.1719 2428.1875,702.1719 Q2426.7813,702.1719 2425.75,701.7188 Q2424.7344,701.2656 2424.0625,700.4531 Q2423.3906,699.6406 2423.0625,698.5 Q2422.7344,697.3438 2422.7344,695.9531 Q2422.7344,694.5781 2423.1094,693.4219 Q2423.4844,692.2656 2424.2031,691.4375 Q2424.9219,690.6094 2425.9844,690.1563 Q2427.0469,689.6875 2428.4375,689.6875 Q2429.3438,689.6875 2430.25,689.9219 Q2431.1563,690.1406 2431.9844,690.5469 L2431.1563,692.6406 Q2430.4688,692.3125 2429.7813,692.0781 Q2429.0938,691.8281 2428.4375,691.8281 Z " fill="#000000"/><text fill="#000000" font-family="sans-serif" font-size="14" lengthAdjust="spacing" textLength="128" x="2442.5" y="700.8467">ParametricInterface</text></g><!--class Namespace--><g id="elem_Namespace"><rect codeLine="79" fill="#CCFFFF" height="32" id="Namespace" rx="2.5" ry="2.5" style="stroke:#A9A9A9;stroke-width:0.5;" width="105" x="2800" y="588"/><ellipse cx="2815" cy="604" fill="#FFFFFF" rx="11" ry="11" style="stroke:#181818;stroke-width:1.0;"/><path d="M2814.9375,599.8281 Q2814.1875,599.8281 2813.625,600.125 Q2813.0625,600.4063 2812.6719,600.9375 Q2812.2813,601.4688 2812.0781,602.25 Q2811.8906,603.0156 2811.8906,603.9688 Q2811.8906,604.9375 2812.0625,605.7031 Q2812.25,606.4531 2812.6094,606.9688 Q2812.9844,607.4844 2813.5625,607.7656 Q2814.1406,608.0313 2814.9375,608.0313 Q2815.6719,608.0313 2816.4063,607.8594 Q2817.1563,607.6875 2818.0313,607.3906 L2818.0313,609.5469 Q2817.625,609.7031 2817.2344,609.8281 Q2816.8438,609.9375 2816.4375,610.0156 Q2816.0313,610.0938 2815.6094,610.125 Q2815.1875,610.1719 2814.6875,610.1719 Q2813.2813,610.1719 2812.25,609.7188 Q2811.2344,609.2656 2810.5625,608.4531 Q2809.8906,607.6406 2809.5625,606.5 Q2809.2344,605.3438 2809.2344,603.9531 Q2809.2344,602.5781 2809.6094,601.4219 Q2809.9844,600.2656 2810.7031,599.4375 Q2811.4219,598.6094 2812.4844,598.1563 Q2813.5469,597.6875 2814.9375,597.6875 Q2815.8438,597.6875 2816.75,597.9219 Q2817.6563,598.1406 2818.4844,598.5469 L2817.6563,600.6406 Q2816.9688,600.3125 2816.2813,600.0781 Q2815.5938,599.8281 2814.9375,599.8281 Z " fill="#000000"/><text fill="#000000" font-family="sans-serif" font-size="14" lengthAdjust="spacing" textLength="73" x="2829" y="608.8467">Namespace</text></g><!--class implicitVariable--><g id="elem_implicitVariable"><rect codeLine="81" fill="#CCFFFF" height="32" id="implicitVariable" rx="2.5" ry="2.5" style="stroke:#A9A9A9;stroke-width:0.5;" width="132" x="1556.5" y="588"/><ellipse cx="1571.5" cy="604" fill="#FFFFFF" rx="11" ry="11" style="stroke:#181818;stroke-width:1.0;"/><path d="M1571.4375,599.8281 Q1570.6875,599.8281 1570.125,600.125 Q1569.5625,600.4063 1569.1719,600.9375 Q1568.7813,601.4688 1568.5781,602.25 Q1568.3906,603.0156 1568.3906,603.9688 Q1568.3906,604.9375 1568.5625,605.7031 Q1568.75,606.4531 1569.1094,606.9688 Q1569.4844,607.4844 1570.0625,607.7656 Q1570.6406,608.0313 1571.4375,608.0313 Q1572.1719,608.0313 1572.9063,607.8594 Q1573.6563,607.6875 1574.5313,607.3906 L1574.5313,609.5469 Q1574.125,609.7031 1573.7344,609.8281 Q1573.3438,609.9375 1572.9375,610.0156 Q1572.5313,610.0938 1572.1094,610.125 Q1571.6875,610.1719 1571.1875,610.1719 Q1569.7813,610.1719 1568.75,609.7188 Q1567.7344,609.2656 1567.0625,608.4531 Q1566.3906,607.6406 1566.0625,606.5 Q1565.7344,605.3438 1565.7344,603.9531 Q1565.7344,602.5781 1566.1094,601.4219 Q1566.4844,600.2656 1567.2031,599.4375 Q1567.9219,598.6094 1568.9844,598.1563 Q1570.0469,597.6875 1571.4375,597.6875 Q1572.3438,597.6875 1573.25,597.9219 Q1574.1563,598.1406 1574.9844,598.5469 L1574.1563,600.6406 Q1573.4688,600.3125 1572.7813,600.0781 Q1572.0938,599.8281 1571.4375,599.8281 Z " fill="#000000"/><text fill="#000000" font-family="sans-serif" font-size="14" lengthAdjust="spacing" textLength="100" x="1585.5" y="608.8467">implicitVariable</text></g><!--class Interface--><g id="elem_Interface"><rect codeLine="83" fill="#CCFFFF" height="32" id="Interface" rx="2.5" ry="2.5" style="stroke:#A9A9A9;stroke-width:0.5;" width="90" x="2414.5" y="588"/><ellipse cx="2429.5" cy="604" fill="#FFFFFF" rx="11" ry="11" style="stroke:#181818;stroke-width:1.0;"/><path d="M2429.4375,599.8281 Q2428.6875,599.8281 2428.125,600.125 Q2427.5625,600.4063 2427.1719,600.9375 Q2426.7813,601.4688 2426.5781,602.25 Q2426.3906,603.0156 2426.3906,603.9688 Q2426.3906,604.9375 2426.5625,605.7031 Q2426.75,606.4531 2427.1094,606.9688 Q2427.4844,607.4844 2428.0625,607.7656 Q2428.6406,608.0313 2429.4375,608.0313 Q2430.1719,608.0313 2430.9063,607.8594 Q2431.6563,607.6875 2432.5313,607.3906 L2432.5313,609.5469 Q2432.125,609.7031 2431.7344,609.8281 Q2431.3438,609.9375 2430.9375,610.0156 Q2430.5313,610.0938 2430.1094,610.125 Q2429.6875,610.1719 2429.1875,610.1719 Q2427.7813,610.1719 2426.75,609.7188 Q2425.7344,609.2656 2425.0625,608.4531 Q2424.3906,607.6406 2424.0625,606.5 Q2423.7344,605.3438 2423.7344,603.9531 Q2423.7344,602.5781 2424.1094,601.4219 Q2424.4844,600.2656 2425.2031,599.4375 Q2425.9219,598.6094 2426.9844,598.1563 Q2428.0469,597.6875 2429.4375,597.6875 Q2430.3438,597.6875 2431.25,597.9219 Q2432.1563,598.1406 2432.9844,598.5469 L2432.1563,600.6406 Q2431.4688,600.3125 2430.7813,600.0781 Q2430.0938,599.8281 2429.4375,599.8281 Z " fill="#000000"/><text fill="#000000" font-family="sans-serif" font-size="14" lengthAdjust="spacing" textLength="58" x="2443.5" y="608.8467">Interface</text></g><!--class Inheritance--><g id="elem_Inheritance"><rect codeLine="85" fill="#CCFFFF" height="32" id="Inheritance" rx="2.5" ry="2.5" style="stroke:#A9A9A9;stroke-width:0.5;" width="105" x="1244" y="99"/><ellipse cx="1259" cy="115" fill="#FFFFFF" rx="11" ry="11" style="stroke:#181818;stroke-width:1.0;"/><path d="M1258.9375,110.8281 Q1258.1875,110.8281 1257.625,111.125 Q1257.0625,111.4063 1256.6719,111.9375 Q1256.2813,112.4688 1256.0781,113.25 Q1255.8906,114.0156 1255.8906,114.9688 Q1255.8906,115.9375 1256.0625,116.7031 Q1256.25,117.4531 1256.6094,117.9688 Q1256.9844,118.4844 1257.5625,118.7656 Q1258.1406,119.0313 1258.9375,119.0313 Q1259.6719,119.0313 1260.4063,118.8594 Q1261.1563,118.6875 1262.0313,118.3906 L1262.0313,120.5469 Q1261.625,120.7031 1261.2344,120.8281 Q1260.8438,120.9375 1260.4375,121.0156 Q1260.0313,121.0938 1259.6094,121.125 Q1259.1875,121.1719 1258.6875,121.1719 Q1257.2813,121.1719 1256.25,120.7188 Q1255.2344,120.2656 1254.5625,119.4531 Q1253.8906,118.6406 1253.5625,117.5 Q1253.2344,116.3438 1253.2344,114.9531 Q1253.2344,113.5781 1253.6094,112.4219 Q1253.9844,111.2656 1254.7031,110.4375 Q1255.4219,109.6094 1256.4844,109.1563 Q1257.5469,108.6875 1258.9375,108.6875 Q1259.8438,108.6875 1260.75,108.9219 Q1261.6563,109.1406 1262.4844,109.5469 L1261.6563,111.6406 Q1260.9688,111.3125 1260.2813,111.0781 Q1259.5938,110.8281 1258.9375,110.8281 Z " fill="#000000"/><text fill="#000000" font-family="sans-serif" font-size="14" lengthAdjust="spacing" textLength="73" x="1273" y="119.8467">Inheritance</text></g><!--class ParametricMethod--><g id="elem_ParametricMethod"><rect codeLine="87" fill="#CCFFFF" height="32" id="ParametricMethod" rx="2.5" ry="2.5" style="stroke:#A9A9A9;stroke-width:0.5;" width="151" x="1937" y="680"/><ellipse cx="1952" cy="696" fill="#FFFFFF" rx="11" ry="11" style="stroke:#181818;stroke-width:1.0;"/><path d="M1951.9375,691.8281 Q1951.1875,691.8281 1950.625,692.125 Q1950.0625,692.4063 1949.6719,692.9375 Q1949.2813,693.4688 1949.0781,694.25 Q1948.8906,695.0156 1948.8906,695.9688 Q1948.8906,696.9375 1949.0625,697.7031 Q1949.25,698.4531 1949.6094,698.9688 Q1949.9844,699.4844 1950.5625,699.7656 Q1951.1406,700.0313 1951.9375,700.0313 Q1952.6719,700.0313 1953.4063,699.8594 Q1954.1563,699.6875 1955.0313,699.3906 L1955.0313,701.5469 Q1954.625,701.7031 1954.2344,701.8281 Q1953.8438,701.9375 1953.4375,702.0156 Q1953.0313,702.0938 1952.6094,702.125 Q1952.1875,702.1719 1951.6875,702.1719 Q1950.2813,702.1719 1949.25,701.7188 Q1948.2344,701.2656 1947.5625,700.4531 Q1946.8906,699.6406 1946.5625,698.5 Q1946.2344,697.3438 1946.2344,695.9531 Q1946.2344,694.5781 1946.6094,693.4219 Q1946.9844,692.2656 1947.7031,691.4375 Q1948.4219,690.6094 1949.4844,690.1563 Q1950.5469,689.6875 1951.9375,689.6875 Q1952.8438,689.6875 1953.75,689.9219 Q1954.6563,690.1406 1955.4844,690.5469 L1954.6563,692.6406 Q1953.9688,692.3125 1953.2813,692.0781 Q1952.5938,691.8281 1951.9375,691.8281 Z " fill="#000000"/><text fill="#000000" font-family="sans-serif" font-size="14" lengthAdjust="spacing" textLength="119" x="1966" y="700.8467">ParametricMethod</text></g><!--class Entity--><g id="elem_Entity"><rect codeLine="89" fill="#CCFFFF" height="32" id="Entity" rx="2.5" ry="2.5" style="stroke:#A9A9A9;stroke-width:0.5;" width="68" x="829.5" y="7"/><ellipse cx="844.5" cy="23" fill="#FFFFFF" rx="11" ry="11" style="stroke:#181818;stroke-width:1.0;"/><path d="M844.4375,18.8281 Q843.6875,18.8281 843.125,19.125 Q842.5625,19.4063 842.1719,19.9375 Q841.7813,20.4688 841.5781,21.25 Q841.3906,22.0156 841.3906,22.9688 Q841.3906,23.9375 841.5625,24.7031 Q841.75,25.4531 842.1094,25.9688 Q842.4844,26.4844 843.0625,26.7656 Q843.6406,27.0313 844.4375,27.0313 Q845.1719,27.0313 845.9063,26.8594 Q846.6563,26.6875 847.5313,26.3906 L847.5313,28.5469 Q847.125,28.7031 846.7344,28.8281 Q846.3438,28.9375 845.9375,29.0156 Q845.5313,29.0938 845.1094,29.125 Q844.6875,29.1719 844.1875,29.1719 Q842.7813,29.1719 841.75,28.7188 Q840.7344,28.2656 840.0625,27.4531 Q839.3906,26.6406 839.0625,25.5 Q838.7344,24.3438 838.7344,22.9531 Q838.7344,21.5781 839.1094,20.4219 Q839.4844,19.2656 840.2031,18.4375 Q840.9219,17.6094 841.9844,17.1563 Q843.0469,16.6875 844.4375,16.6875 Q845.3438,16.6875 846.25,16.9219 Q847.1563,17.1406 847.9844,17.5469 L847.1563,19.6406 Q846.4688,19.3125 845.7813,19.0781 Q845.0938,18.8281 844.4375,18.8281 Z " fill="#000000"/><text fill="#000000" font-family="sans-serif" font-size="14" lengthAdjust="spacing" textLength="36" x="858.5" y="27.8467">Entity</text></g><!--class ScriptEntity--><g id="elem_ScriptEntity"><rect codeLine="91" fill="#CCFFFF" height="32" id="ScriptEntity" rx="2.5" ry="2.5" style="stroke:#A9A9A9;stroke-width:0.5;" width="104" x="2940.5" y="588"/><ellipse cx="2955.5" cy="604" fill="#FFFFFF" rx="11" ry="11" style="stroke:#181818;stroke-width:1.0;"/><path d="M2955.4375,599.8281 Q2954.6875,599.8281 2954.125,600.125 Q2953.5625,600.4063 2953.1719,600.9375 Q2952.7813,601.4688 2952.5781,602.25 Q2952.3906,603.0156 2952.3906,603.9688 Q2952.3906,604.9375 2952.5625,605.7031 Q2952.75,606.4531 2953.1094,606.9688 Q2953.4844,607.4844 2954.0625,607.7656 Q2954.6406,608.0313 2955.4375,608.0313 Q2956.1719,608.0313 2956.9063,607.8594 Q2957.6563,607.6875 2958.5313,607.3906 L2958.5313,609.5469 Q2958.125,609.7031 2957.7344,609.8281 Q2957.3438,609.9375 2956.9375,610.0156 Q2956.5313,610.0938 2956.1094,610.125 Q2955.6875,610.1719 2955.1875,610.1719 Q2953.7813,610.1719 2952.75,609.7188 Q2951.7344,609.2656 2951.0625,608.4531 Q2950.3906,607.6406 2950.0625,606.5 Q2949.7344,605.3438 2949.7344,603.9531 Q2949.7344,602.5781 2950.1094,601.4219 Q2950.4844,600.2656 2951.2031,599.4375 Q2951.9219,598.6094 2952.9844,598.1563 Q2954.0469,597.6875 2955.4375,597.6875 Q2956.3438,597.6875 2957.25,597.9219 Q2958.1563,598.1406 2958.9844,598.5469 L2958.1563,600.6406 Q2957.4688,600.3125 2956.7813,600.0781 Q2956.0938,599.8281 2955.4375,599.8281 Z " fill="#000000"/><text fill="#000000" font-family="sans-serif" font-size="14" lengthAdjust="spacing" textLength="72" x="2969.5" y="608.8467">ScriptEntity</text></g><!--class PrimitiveType--><g id="elem_PrimitiveType"><rect codeLine="93" fill="#CCFFFF" height="32" id="PrimitiveType" rx="2.5" ry="2.5" style="stroke:#A9A9A9;stroke-width:0.5;" width="121" x="2540" y="588"/><ellipse cx="2555" cy="604" fill="#FFFFFF" rx="11" ry="11" style="stroke:#181818;stroke-width:1.0;"/><path d="M2554.9375,599.8281 Q2554.1875,599.8281 2553.625,600.125 Q2553.0625,600.4063 2552.6719,600.9375 Q2552.2813,601.4688 2552.0781,602.25 Q2551.8906,603.0156 2551.8906,603.9688 Q2551.8906,604.9375 2552.0625,605.7031 Q2552.25,606.4531 2552.6094,606.9688 Q2552.9844,607.4844 2553.5625,607.7656 Q2554.1406,608.0313 2554.9375,608.0313 Q2555.6719,608.0313 2556.4063,607.8594 Q2557.1563,607.6875 2558.0313,607.3906 L2558.0313,609.5469 Q2557.625,609.7031 2557.2344,609.8281 Q2556.8438,609.9375 2556.4375,610.0156 Q2556.0313,610.0938 2555.6094,610.125 Q2555.1875,610.1719 2554.6875,610.1719 Q2553.2813,610.1719 2552.25,609.7188 Q2551.2344,609.2656 2550.5625,608.4531 Q2549.8906,607.6406 2549.5625,606.5 Q2549.2344,605.3438 2549.2344,603.9531 Q2549.2344,602.5781 2549.6094,601.4219 Q2549.9844,600.2656 2550.7031,599.4375 Q2551.4219,598.6094 2552.4844,598.1563 Q2553.5469,597.6875 2554.9375,597.6875 Q2555.8438,597.6875 2556.75,597.9219 Q2557.6563,598.1406 2558.4844,598.5469 L2557.6563,600.6406 Q2556.9688,600.3125 2556.2813,600.0781 Q2555.5938,599.8281 2554.9375,599.8281 Z " fill="#000000"/><text fill="#000000" font-family="sans-serif" font-size="14" lengthAdjust="spacing" textLength="89" x="2569" y="608.8467">PrimitiveType</text></g><!--class ScopingEntity--><g id="elem_ScopingEntity"><rect codeLine="95" fill="#CCFFFF" height="32" id="ScopingEntity" rx="2.5" ry="2.5" style="stroke:#A9A9A9;stroke-width:0.5;" width="116" x="2794.5" y="459.5"/><ellipse cx="2809.5" cy="475.5" fill="#FFFFFF" rx="11" ry="11" style="stroke:#181818;stroke-width:1.0;"/><path d="M2809.4375,471.3281 Q2808.6875,471.3281 2808.125,471.625 Q2807.5625,471.9063 2807.1719,472.4375 Q2806.7813,472.9688 2806.5781,473.75 Q2806.3906,474.5156 2806.3906,475.4688 Q2806.3906,476.4375 2806.5625,477.2031 Q2806.75,477.9531 2807.1094,478.4688 Q2807.4844,478.9844 2808.0625,479.2656 Q2808.6406,479.5313 2809.4375,479.5313 Q2810.1719,479.5313 2810.9063,479.3594 Q2811.6563,479.1875 2812.5313,478.8906 L2812.5313,481.0469 Q2812.125,481.2031 2811.7344,481.3281 Q2811.3438,481.4375 2810.9375,481.5156 Q2810.5313,481.5938 2810.1094,481.625 Q2809.6875,481.6719 2809.1875,481.6719 Q2807.7813,481.6719 2806.75,481.2188 Q2805.7344,480.7656 2805.0625,479.9531 Q2804.3906,479.1406 2804.0625,478 Q2803.7344,476.8438 2803.7344,475.4531 Q2803.7344,474.0781 2804.1094,472.9219 Q2804.4844,471.7656 2805.2031,470.9375 Q2805.9219,470.1094 2806.9844,469.6563 Q2808.0469,469.1875 2809.4375,469.1875 Q2810.3438,469.1875 2811.25,469.4219 Q2812.1563,469.6406 2812.9844,470.0469 L2812.1563,472.1406 Q2811.4688,471.8125 2810.7813,471.5781 Q2810.0938,471.3281 2809.4375,471.3281 Z " fill="#000000"/><text fill="#000000" font-family="sans-serif" font-size="14" lengthAdjust="spacing" textLength="84" x="2823.5" y="480.3467">ScopingEntity</text></g><!--class Accessor--><g id="elem_Accessor"><rect codeLine="97" fill="#CCFFFF" height="32" id="Accessor" rx="2.5" ry="2.5" style="stroke:#A9A9A9;stroke-width:0.5;" width="87" x="2123" y="680"/><ellipse cx="2138" cy="696" fill="#FFFFFF" rx="11" ry="11" style="stroke:#181818;stroke-width:1.0;"/><path d="M2137.9375,691.8281 Q2137.1875,691.8281 2136.625,692.125 Q2136.0625,692.4063 2135.6719,692.9375 Q2135.2813,693.4688 2135.0781,694.25 Q2134.8906,695.0156 2134.8906,695.9688 Q2134.8906,696.9375 2135.0625,697.7031 Q2135.25,698.4531 2135.6094,698.9688 Q2135.9844,699.4844 2136.5625,699.7656 Q2137.1406,700.0313 2137.9375,700.0313 Q2138.6719,700.0313 2139.4063,699.8594 Q2140.1563,699.6875 2141.0313,699.3906 L2141.0313,701.5469 Q2140.625,701.7031 2140.2344,701.8281 Q2139.8438,701.9375 2139.4375,702.0156 Q2139.0313,702.0938 2138.6094,702.125 Q2138.1875,702.1719 2137.6875,702.1719 Q2136.2813,702.1719 2135.25,701.7188 Q2134.2344,701.2656 2133.5625,700.4531 Q2132.8906,699.6406 2132.5625,698.5 Q2132.2344,697.3438 2132.2344,695.9531 Q2132.2344,694.5781 2132.6094,693.4219 Q2132.9844,692.2656 2133.7031,691.4375 Q2134.4219,690.6094 2135.4844,690.1563 Q2136.5469,689.6875 2137.9375,689.6875 Q2138.8438,689.6875 2139.75,689.9219 Q2140.6563,690.1406 2141.4844,690.5469 L2140.6563,692.6406 Q2139.9688,692.3125 2139.2813,692.0781 Q2138.5938,691.8281 2137.9375,691.8281 Z " fill="#000000"/><text fill="#000000" font-family="sans-serif" font-size="14" lengthAdjust="spacing" textLength="55" x="2152" y="700.8467">Accessor</text></g><!--class File--><g id="elem_File"><rect codeLine="99" fill="#CCFFFF" height="32" id="File" rx="2.5" ry="2.5" style="stroke:#A9A9A9;stroke-width:0.5;" width="55" x="1370" y="319"/><ellipse cx="1385" cy="335" fill="#FFFFFF" rx="11" ry="11" style="stroke:#181818;stroke-width:1.0;"/><path d="M1384.9375,330.8281 Q1384.1875,330.8281 1383.625,331.125 Q1383.0625,331.4063 1382.6719,331.9375 Q1382.2813,332.4688 1382.0781,333.25 Q1381.8906,334.0156 1381.8906,334.9688 Q1381.8906,335.9375 1382.0625,336.7031 Q1382.25,337.4531 1382.6094,337.9688 Q1382.9844,338.4844 1383.5625,338.7656 Q1384.1406,339.0313 1384.9375,339.0313 Q1385.6719,339.0313 1386.4063,338.8594 Q1387.1563,338.6875 1388.0313,338.3906 L1388.0313,340.5469 Q1387.625,340.7031 1387.2344,340.8281 Q1386.8438,340.9375 1386.4375,341.0156 Q1386.0313,341.0938 1385.6094,341.125 Q1385.1875,341.1719 1384.6875,341.1719 Q1383.2813,341.1719 1382.25,340.7188 Q1381.2344,340.2656 1380.5625,339.4531 Q1379.8906,338.6406 1379.5625,337.5 Q1379.2344,336.3438 1379.2344,334.9531 Q1379.2344,333.5781 1379.6094,332.4219 Q1379.9844,331.2656 1380.7031,330.4375 Q1381.4219,329.6094 1382.4844,329.1563 Q1383.5469,328.6875 1384.9375,328.6875 Q1385.8438,328.6875 1386.75,328.9219 Q1387.6563,329.1406 1388.4844,329.5469 L1387.6563,331.6406 Q1386.9688,331.3125 1386.2813,331.0781 Q1385.5938,330.8281 1384.9375,330.8281 Z " fill="#000000"/><text fill="#000000" font-family="sans-serif" font-size="14" lengthAdjust="spacing" textLength="23" x="1399" y="339.8467">File</text></g><!--class StructuralEntity--><g id="elem_StructuralEntity"><rect codeLine="101" fill="#CCFFFF" height="32" id="StructuralEntity" rx="2.5" ry="2.5" style="stroke:#A9A9A9;stroke-width:0.5;" width="130" x="1460.5" y="319"/><ellipse cx="1475.5" cy="335" fill="#FFFFFF" rx="11" ry="11" style="stroke:#181818;stroke-width:1.0;"/><path d="M1475.4375,330.8281 Q1474.6875,330.8281 1474.125,331.125 Q1473.5625,331.4063 1473.1719,331.9375 Q1472.7813,332.4688 1472.5781,333.25 Q1472.3906,334.0156 1472.3906,334.9688 Q1472.3906,335.9375 1472.5625,336.7031 Q1472.75,337.4531 1473.1094,337.9688 Q1473.4844,338.4844 1474.0625,338.7656 Q1474.6406,339.0313 1475.4375,339.0313 Q1476.1719,339.0313 1476.9063,338.8594 Q1477.6563,338.6875 1478.5313,338.3906 L1478.5313,340.5469 Q1478.125,340.7031 1477.7344,340.8281 Q1477.3438,340.9375 1476.9375,341.0156 Q1476.5313,341.0938 1476.1094,341.125 Q1475.6875,341.1719 1475.1875,341.1719 Q1473.7813,341.1719 1472.75,340.7188 Q1471.7344,340.2656 1471.0625,339.4531 Q1470.3906,338.6406 1470.0625,337.5 Q1469.7344,336.3438 1469.7344,334.9531 Q1469.7344,333.5781 1470.1094,332.4219 Q1470.4844,331.2656 1471.2031,330.4375 Q1471.9219,329.6094 1472.9844,329.1563 Q1474.0469,328.6875 1475.4375,328.6875 Q1476.3438,328.6875 1477.25,328.9219 Q1478.1563,329.1406 1478.9844,329.5469 L1478.1563,331.6406 Q1477.4688,331.3125 1476.7813,331.0781 Q1476.0938,330.8281 1475.4375,330.8281 Z " fill="#000000"/><text fill="#000000" font-family="sans-serif" font-size="14" lengthAdjust="spacing" textLength="98" x="1489.5" y="339.8467">StructuralEntity</text></g><!--class NamedEntity--><g id="elem_NamedEntity"><rect codeLine="103" fill="#CCFFFF" height="32" id="NamedEntity" rx="2.5" ry="2.5" style="stroke:#A9A9A9;stroke-width:0.5;" width="114" x="1241.5" y="203"/><ellipse cx="1256.5" cy="219" fill="#FFFFFF" rx="11" ry="11" style="stroke:#181818;stroke-width:1.0;"/><path d="M1256.4375,214.8281 Q1255.6875,214.8281 1255.125,215.125 Q1254.5625,215.4063 1254.1719,215.9375 Q1253.7813,216.4688 1253.5781,217.25 Q1253.3906,218.0156 1253.3906,218.9688 Q1253.3906,219.9375 1253.5625,220.7031 Q1253.75,221.4531 1254.1094,221.9688 Q1254.4844,222.4844 1255.0625,222.7656 Q1255.6406,223.0313 1256.4375,223.0313 Q1257.1719,223.0313 1257.9063,222.8594 Q1258.6563,222.6875 1259.5313,222.3906 L1259.5313,224.5469 Q1259.125,224.7031 1258.7344,224.8281 Q1258.3438,224.9375 1257.9375,225.0156 Q1257.5313,225.0938 1257.1094,225.125 Q1256.6875,225.1719 1256.1875,225.1719 Q1254.7813,225.1719 1253.75,224.7188 Q1252.7344,224.2656 1252.0625,223.4531 Q1251.3906,222.6406 1251.0625,221.5 Q1250.7344,220.3438 1250.7344,218.9531 Q1250.7344,217.5781 1251.1094,216.4219 Q1251.4844,215.2656 1252.2031,214.4375 Q1252.9219,213.6094 1253.9844,213.1563 Q1255.0469,212.6875 1256.4375,212.6875 Q1257.3438,212.6875 1258.25,212.9219 Q1259.1563,213.1406 1259.9844,213.5469 L1259.1563,215.6406 Q1258.4688,215.3125 1257.7813,215.0781 Q1257.0938,214.8281 1256.4375,214.8281 Z " fill="#000000"/><text fill="#000000" font-family="sans-serif" font-size="14" lengthAdjust="spacing" textLength="82" x="1270.5" y="223.8467">NamedEntity</text></g><!--class ContainerEntity--><g id="elem_ContainerEntity"><rect codeLine="105" fill="#CCFFFF" height="32" id="ContainerEntity" rx="2.5" ry="2.5" style="stroke:#A9A9A9;stroke-width:0.5;" width="130" x="2150.5" y="319"/><ellipse cx="2165.5" cy="335" fill="#FFFFFF" rx="11" ry="11" style="stroke:#181818;stroke-width:1.0;"/><path d="M2165.4375,330.8281 Q2164.6875,330.8281 2164.125,331.125 Q2163.5625,331.4063 2163.1719,331.9375 Q2162.7813,332.4688 2162.5781,333.25 Q2162.3906,334.0156 2162.3906,334.9688 Q2162.3906,335.9375 2162.5625,336.7031 Q2162.75,337.4531 2163.1094,337.9688 Q2163.4844,338.4844 2164.0625,338.7656 Q2164.6406,339.0313 2165.4375,339.0313 Q2166.1719,339.0313 2166.9063,338.8594 Q2167.6563,338.6875 2168.5313,338.3906 L2168.5313,340.5469 Q2168.125,340.7031 2167.7344,340.8281 Q2167.3438,340.9375 2166.9375,341.0156 Q2166.5313,341.0938 2166.1094,341.125 Q2165.6875,341.1719 2165.1875,341.1719 Q2163.7813,341.1719 2162.75,340.7188 Q2161.7344,340.2656 2161.0625,339.4531 Q2160.3906,338.6406 2160.0625,337.5 Q2159.7344,336.3438 2159.7344,334.9531 Q2159.7344,333.5781 2160.1094,332.4219 Q2160.4844,331.2656 2161.2031,330.4375 Q2161.9219,329.6094 2162.9844,329.1563 Q2164.0469,328.6875 2165.4375,328.6875 Q2166.3438,328.6875 2167.25,328.9219 Q2168.1563,329.1406 2168.9844,329.5469 L2168.1563,331.6406 Q2167.4688,331.3125 2166.7813,331.0781 Q2166.0938,330.8281 2165.4375,330.8281 Z " fill="#000000"/><text fill="#000000" font-family="sans-serif" font-size="14" lengthAdjust="spacing" textLength="98" x="2179.5" y="339.8467">ContainerEntity</text></g><!--class SourceTextAnchor--><g id="elem_SourceTextAnchor"><rect codeLine="107" fill="#CCFFFF" height="32" id="SourceTextAnchor" rx="2.5" ry="2.5" style="stroke:#A9A9A9;stroke-width:0.5;" width="147" x="1652" y="203"/><ellipse cx="1667" cy="219" fill="#FFFFFF" rx="11" ry="11" style="stroke:#181818;stroke-width:1.0;"/><path d="M1666.9375,214.8281 Q1666.1875,214.8281 1665.625,215.125 Q1665.0625,215.4063 1664.6719,215.9375 Q1664.2813,216.4688 1664.0781,217.25 Q1663.8906,218.0156 1663.8906,218.9688 Q1663.8906,219.9375 1664.0625,220.7031 Q1664.25,221.4531 1664.6094,221.9688 Q1664.9844,222.4844 1665.5625,222.7656 Q1666.1406,223.0313 1666.9375,223.0313 Q1667.6719,223.0313 1668.4063,222.8594 Q1669.1563,222.6875 1670.0313,222.3906 L1670.0313,224.5469 Q1669.625,224.7031 1669.2344,224.8281 Q1668.8438,224.9375 1668.4375,225.0156 Q1668.0313,225.0938 1667.6094,225.125 Q1667.1875,225.1719 1666.6875,225.1719 Q1665.2813,225.1719 1664.25,224.7188 Q1663.2344,224.2656 1662.5625,223.4531 Q1661.8906,222.6406 1661.5625,221.5 Q1661.2344,220.3438 1661.2344,218.9531 Q1661.2344,217.5781 1661.6094,216.4219 Q1661.9844,215.2656 1662.7031,214.4375 Q1663.4219,213.6094 1664.4844,213.1563 Q1665.5469,212.6875 1666.9375,212.6875 Q1667.8438,212.6875 1668.75,212.9219 Q1669.6563,213.1406 1670.4844,213.5469 L1669.6563,215.6406 Q1668.9688,215.3125 1668.2813,215.0781 Q1667.5938,214.8281 1666.9375,214.8281 Z " fill="#000000"/><text fill="#000000" font-family="sans-serif" font-size="14" lengthAdjust="spacing" textLength="115" x="1681" y="223.8467">SourceTextAnchor</text></g><!--class FamixTypeScriptModel--><g id="elem_FamixTypeScriptModel"><rect codeLine="109" fill="#CCFFFF" height="32" id="FamixTypeScriptModel" rx="2.5" ry="2.5" style="stroke:#A9A9A9;stroke-width:0.5;" width="176" x="1708.5" y="99"/><ellipse cx="1723.5" cy="115" fill="#FFFFFF" rx="11" ry="11" style="stroke:#181818;stroke-width:1.0;"/><path d="M1723.4375,110.8281 Q1722.6875,110.8281 1722.125,111.125 Q1721.5625,111.4063 1721.1719,111.9375 Q1720.7813,112.4688 1720.5781,113.25 Q1720.3906,114.0156 1720.3906,114.9688 Q1720.3906,115.9375 1720.5625,116.7031 Q1720.75,117.4531 1721.1094,117.9688 Q1721.4844,118.4844 1722.0625,118.7656 Q1722.6406,119.0313 1723.4375,119.0313 Q1724.1719,119.0313 1724.9063,118.8594 Q1725.6563,118.6875 1726.5313,118.3906 L1726.5313,120.5469 Q1726.125,120.7031 1725.7344,120.8281 Q1725.3438,120.9375 1724.9375,121.0156 Q1724.5313,121.0938 1724.1094,121.125 Q1723.6875,121.1719 1723.1875,121.1719 Q1721.7813,121.1719 1720.75,120.7188 Q1719.7344,120.2656 1719.0625,119.4531 Q1718.3906,118.6406 1718.0625,117.5 Q1717.7344,116.3438 1717.7344,114.9531 Q1717.7344,113.5781 1718.1094,112.4219 Q1718.4844,111.2656 1719.2031,110.4375 Q1719.9219,109.6094 1720.9844,109.1563 Q1722.0469,108.6875 1723.4375,108.6875 Q1724.3438,108.6875 1725.25,108.9219 Q1726.1563,109.1406 1726.9844,109.5469 L1726.1563,111.6406 Q1725.4688,111.3125 1724.7813,111.0781 Q1724.0938,110.8281 1723.4375,110.8281 Z " fill="#000000"/><text fill="#000000" font-family="sans-serif" font-size="14" lengthAdjust="spacing" textLength="144" x="1737.5" y="119.8467">FamixTypeScriptModel</text></g><!--class SourceLanguage--><g id="elem_SourceLanguage"><rect codeLine="111" fill="#CCFFFF" height="32" id="SourceLanguage" rx="2.5" ry="2.5" style="stroke:#A9A9A9;stroke-width:0.5;" width="134" x="1384.5" y="99"/><ellipse cx="1399.5" cy="115" fill="#FFFFFF" rx="11" ry="11" style="stroke:#181818;stroke-width:1.0;"/><path d="M1399.4375,110.8281 Q1398.6875,110.8281 1398.125,111.125 Q1397.5625,111.4063 1397.1719,111.9375 Q1396.7813,112.4688 1396.5781,113.25 Q1396.3906,114.0156 1396.3906,114.9688 Q1396.3906,115.9375 1396.5625,116.7031 Q1396.75,117.4531 1397.1094,117.9688 Q1397.4844,118.4844 1398.0625,118.7656 Q1398.6406,119.0313 1399.4375,119.0313 Q1400.1719,119.0313 1400.9063,118.8594 Q1401.6563,118.6875 1402.5313,118.3906 L1402.5313,120.5469 Q1402.125,120.7031 1401.7344,120.8281 Q1401.3438,120.9375 1400.9375,121.0156 Q1400.5313,121.0938 1400.1094,121.125 Q1399.6875,121.1719 1399.1875,121.1719 Q1397.7813,121.1719 1396.75,120.7188 Q1395.7344,120.2656 1395.0625,119.4531 Q1394.3906,118.6406 1394.0625,117.5 Q1393.7344,116.3438 1393.7344,114.9531 Q1393.7344,113.5781 1394.1094,112.4219 Q1394.4844,111.2656 1395.2031,110.4375 Q1395.9219,109.6094 1396.9844,109.1563 Q1398.0469,108.6875 1399.4375,108.6875 Q1400.3438,108.6875 1401.25,108.9219 Q1402.1563,109.1406 1402.9844,109.5469 L1402.1563,111.6406 Q1401.4688,111.3125 1400.7813,111.0781 Q1400.0938,110.8281 1399.4375,110.8281 Z " fill="#000000"/><text fill="#000000" font-family="sans-serif" font-size="14" lengthAdjust="spacing" textLength="102" x="1413.5" y="119.8467">SourceLanguage</text></g><!--class SourceAnchor--><g id="elem_SourceAnchor"><rect codeLine="113" fill="#CCFFFF" height="32" id="SourceAnchor" rx="2.5" ry="2.5" style="stroke:#A9A9A9;stroke-width:0.5;" width="120" x="1553.5" y="99"/><ellipse cx="1568.5" cy="115" fill="#FFFFFF" rx="11" ry="11" style="stroke:#181818;stroke-width:1.0;"/><path d="M1568.4375,110.8281 Q1567.6875,110.8281 1567.125,111.125 Q1566.5625,111.4063 1566.1719,111.9375 Q1565.7813,112.4688 1565.5781,113.25 Q1565.3906,114.0156 1565.3906,114.9688 Q1565.3906,115.9375 1565.5625,116.7031 Q1565.75,117.4531 1566.1094,117.9688 Q1566.4844,118.4844 1567.0625,118.7656 Q1567.6406,119.0313 1568.4375,119.0313 Q1569.1719,119.0313 1569.9063,118.8594 Q1570.6563,118.6875 1571.5313,118.3906 L1571.5313,120.5469 Q1571.125,120.7031 1570.7344,120.8281 Q1570.3438,120.9375 1569.9375,121.0156 Q1569.5313,121.0938 1569.1094,121.125 Q1568.6875,121.1719 1568.1875,121.1719 Q1566.7813,121.1719 1565.75,120.7188 Q1564.7344,120.2656 1564.0625,119.4531 Q1563.3906,118.6406 1563.0625,117.5 Q1562.7344,116.3438 1562.7344,114.9531 Q1562.7344,113.5781 1563.1094,112.4219 Q1563.4844,111.2656 1564.2031,110.4375 Q1564.9219,109.6094 1565.9844,109.1563 Q1567.0469,108.6875 1568.4375,108.6875 Q1569.3438,108.6875 1570.25,108.9219 Q1571.1563,109.1406 1571.9844,109.5469 L1571.1563,111.6406 Q1570.4688,111.3125 1569.7813,111.0781 Q1569.0938,110.8281 1568.4375,110.8281 Z " fill="#000000"/><text fill="#000000" font-family="sans-serif" font-size="14" lengthAdjust="spacing" textLength="88" x="1582.5" y="119.8467">SourceAnchor</text></g><!--class Enum--><g id="elem_Enum"><rect codeLine="115" fill="#CCFFFF" height="32" id="Enum" rx="2.5" ry="2.5" style="stroke:#A9A9A9;stroke-width:0.5;" width="68" x="2696.5" y="588"/><ellipse cx="2711.5" cy="604" fill="#FFFFFF" rx="11" ry="11" style="stroke:#181818;stroke-width:1.0;"/><path d="M2711.4375,599.8281 Q2710.6875,599.8281 2710.125,600.125 Q2709.5625,600.4063 2709.1719,600.9375 Q2708.7813,601.4688 2708.5781,602.25 Q2708.3906,603.0156 2708.3906,603.9688 Q2708.3906,604.9375 2708.5625,605.7031 Q2708.75,606.4531 2709.1094,606.9688 Q2709.4844,607.4844 2710.0625,607.7656 Q2710.6406,608.0313 2711.4375,608.0313 Q2712.1719,608.0313 2712.9063,607.8594 Q2713.6563,607.6875 2714.5313,607.3906 L2714.5313,609.5469 Q2714.125,609.7031 2713.7344,609.8281 Q2713.3438,609.9375 2712.9375,610.0156 Q2712.5313,610.0938 2712.1094,610.125 Q2711.6875,610.1719 2711.1875,610.1719 Q2709.7813,610.1719 2708.75,609.7188 Q2707.7344,609.2656 2707.0625,608.4531 Q2706.3906,607.6406 2706.0625,606.5 Q2705.7344,605.3438 2705.7344,603.9531 Q2705.7344,602.5781 2706.1094,601.4219 Q2706.4844,600.2656 2707.2031,599.4375 Q2707.9219,598.6094 2708.9844,598.1563 Q2710.0469,597.6875 2711.4375,597.6875 Q2712.3438,597.6875 2713.25,597.9219 Q2714.1563,598.1406 2714.9844,598.5469 L2714.1563,600.6406 Q2713.4688,600.3125 2712.7813,600.0781 Q2712.0938,599.8281 2711.4375,599.8281 Z " fill="#000000"/><text fill="#000000" font-family="sans-serif" font-size="14" lengthAdjust="spacing" textLength="36" x="2725.5" y="608.8467">Enum</text></g><!--reverse link Entity to Concretization--><g id="link_Entity_Concretization"><path codeLine="117" d="M809.19,28.14 C689.35,37.6 393.42,62.84 147.5,99 C141.84,99.83 135.96,100.78 130.09,101.79 " fill="none" id="Entity-backto-Concretization" style="stroke:#000000;stroke-width:1.0;"/><polygon fill="none" points="808.98,21.13,829.46,26.55,810.06,35.09,808.98,21.13" style="stroke:#000000;stroke-width:1.0;"/></g><!--reverse link Class to ParametricClass--><g id="link_Class_ParametricClass"><path codeLine="118" d="M2220.8,631.72 C2243.34,647.45 2271.03,666.76 2289.84,679.89 " fill="none" id="Class-backto-ParametricClass" style="stroke:#000000;stroke-width:1.0;"/><polygon fill="none" points="2216.49,637.25,2204.09,620.06,2224.5,625.77,2216.49,637.25" style="stroke:#000000;stroke-width:1.0;"/></g><!--reverse link ContainerEntity to BehaviouralEntity--><g id="link_ContainerEntity_BehaviouralEntity"><path codeLine="119" d="M2171.37,361.15 C2121.04,389.84 2040.36,435.82 1998.94,459.43 " fill="none" id="ContainerEntity-backto-BehaviouralEntity" style="stroke:#000000;stroke-width:1.0;"/><polygon fill="none" points="2168.19,354.91,2189.03,351.09,2175.12,367.07,2168.19,354.91" style="stroke:#000000;stroke-width:1.0;"/></g><!--reverse link SourcedEntity to JSDoc--><g id="link_SourcedEntity_JSDoc"><path codeLine="120" d="M1115.51,143.74 C1092.16,162.79 1062.07,187.35 1043.02,202.89 " fill="none" id="SourcedEntity-backto-JSDoc" style="stroke:#000000;stroke-width:1.0;"/><polygon fill="none" points="1111.13,138.27,1131.06,131.05,1119.99,149.12,1111.13,138.27" style="stroke:#000000;stroke-width:1.0;"/></g><!--reverse link Type to ParameterType--><g id="link_Type_ParameterType"><path codeLine="121" d="M2367.93,509.12 C2353.56,534.38 2334.29,568.23 2323.26,587.62 " fill="none" id="Type-backto-ParameterType" style="stroke:#000000;stroke-width:1.0;"/><polygon fill="none" points="2361.98,505.43,2377.96,491.51,2374.15,512.35,2361.98,505.43" style="stroke:#000000;stroke-width:1.0;"/></g><!--reverse link ContainerEntity to Type--><g id="link_ContainerEntity_Type"><path codeLine="122" d="M2249.89,363.85 C2285.45,392.66 2339.64,436.55 2367.9,459.43 " fill="none" id="ContainerEntity-backto-Type" style="stroke:#000000;stroke-width:1.0;"/><polygon fill="none" points="2245.26,369.11,2234.13,351.09,2254.07,358.23,2245.26,369.11" style="stroke:#000000;stroke-width:1.0;"/></g><!--reverse link Entity to Implementation--><g id="link_Entity_Implementation"><path codeLine="123" d="M809.39,30.76 C711.34,43.15 497.86,70.84 318.5,99 C313.02,99.86 307.35,100.78 301.66,101.74 " fill="none" id="Entity-backto-Implementation" style="stroke:#000000;stroke-width:1.0;"/><polygon fill="none" points="808.6,23.8,829.32,28.25,810.35,37.69,808.6,23.8" style="stroke:#000000;stroke-width:1.0;"/></g><!--reverse link StructuralEntity to EnumValue--><g id="link_StructuralEntity_EnumValue"><path codeLine="124" d="M1460.1,357.42 C1391.24,380.15 1290.46,414.02 1273.5,423 C1254.48,433.07 1235.02,448.11 1221.64,459.34 " fill="none" id="StructuralEntity-backto-EnumValue" style="stroke:#000000;stroke-width:1.0;"/><polygon fill="none" points="1458.26,350.65,1479.45,351.04,1462.64,363.95,1458.26,350.65" style="stroke:#000000;stroke-width:1.0;"/></g><!--reverse link NamedEntity to Alias--><g id="link_NamedEntity_Alias"><path codeLine="125" d="M1271.12,250.31 C1251.14,272.42 1224.9,301.46 1209.17,318.87 " fill="none" id="NamedEntity-backto-Alias" style="stroke:#000000;stroke-width:1.0;"/><polygon fill="none" points="1266.01,245.52,1284.61,235.37,1276.39,254.91,1266.01,245.52" style="stroke:#000000;stroke-width:1.0;"/></g><!--reverse link StructuralEntity to Parameter--><g id="link_StructuralEntity_Parameter"><path codeLine="126" d="M1489.12,363.22 C1466.24,380.35 1436.12,402.94 1409.5,423 C1393.3,435.21 1374.96,449.1 1361.42,459.38 " fill="none" id="StructuralEntity-backto-Parameter" style="stroke:#000000;stroke-width:1.0;"/><polygon fill="none" points="1485.15,357.44,1505.36,351.06,1493.54,368.65,1485.15,357.44" style="stroke:#000000;stroke-width:1.0;"/></g><!--reverse link Function to ParametricFunction--><g id="link_Function_ParametricFunction"><path codeLine="127" d="M1894.48,633.58 C1876.69,648.97 1855.46,667.34 1840.88,679.96 " fill="none" id="Function-backto-ParametricFunction" style="stroke:#000000;stroke-width:1.0;"/><polygon fill="none" points="1890.15,628.06,1909.86,620.27,1899.32,638.65,1890.15,628.06" style="stroke:#000000;stroke-width:1.0;"/></g><!--reverse link Entity to Invocation--><g id="link_Entity_Invocation"><path codeLine="128" d="M809.56,33.14 C730.89,46.63 580.12,73.08 452.5,99 C446.78,100.16 440.79,101.43 434.85,102.72 " fill="none" id="Entity-backto-Invocation" style="stroke:#000000;stroke-width:1.0;"/><polygon fill="none" points="808.42,26.23,829.31,29.77,810.78,40.03,808.42,26.23" style="stroke:#000000;stroke-width:1.0;"/></g><!--reverse link Type to Class--><g id="link_Type_Class"><path codeLine="129" d="M2345.16,502.14 C2303.68,527.86 2241.18,566.61 2206.99,587.81 " fill="none" id="Type-backto-Class" style="stroke:#000000;stroke-width:1.0;"/><polygon fill="none" points="2341.61,496.1,2362.3,491.51,2348.99,508,2341.61,496.1" style="stroke:#000000;stroke-width:1.0;"/></g><!--reverse link StructuralEntity to Property--><g id="link_StructuralEntity_Property"><path codeLine="130" d="M1525.5,371.27 C1525.5,386.92 1525.5,405.65 1525.5,422.83 " fill="none" id="StructuralEntity-backto-Property" style="stroke:#000000;stroke-width:1.0;"/><polygon fill="none" points="1518.5,371.09,1525.5,351.09,1532.5,371.09,1518.5,371.09" style="stroke:#000000;stroke-width:1.0;"/></g><!--reverse link Entity to ParameterConcretization--><g id="link_Entity_ParameterConcretization"><path codeLine="131" d="M810.1,40.13 C754.86,56.81 669.25,82.67 615.35,98.94 " fill="none" id="Entity-backto-ParameterConcretization" style="stroke:#000000;stroke-width:1.0;"/><polygon fill="none" points="808.15,33.41,829.32,34.32,812.19,46.81,808.15,33.41" style="stroke:#000000;stroke-width:1.0;"/></g><!--reverse link NamedEntity to Decorator--><g id="link_NamedEntity_Decorator"><path codeLine="132" d="M1240.97,243.3 C1200.95,261.75 1148.72,287.55 1112.09,306.92 " fill="none" id="NamedEntity-backto-Decorator" style="stroke:#000000;stroke-width:1.0;"/><polygon fill="none" points="1238.13,236.91,1259.23,235.02,1243.91,249.66,1238.13,236.91" style="stroke:#000000;stroke-width:1.0;"/></g><!--link Decorator to NamedEntity--><g id="link_Decorator_NamedEntity"><path codeLine="167" d="M1129.94,309.18 C1178.84,286.61 1243.95,254.04 1277.48,235.14 " fill="none" id="Decorator-NamedEntity" style="stroke:#000000;stroke-width:1.0;"/><text fill="#000000" font-family="sans-serif" font-size="13" lengthAdjust="spacing" textLength="71" x="1137.362" y="303.6896">decorators*</text><text fill="#000000" font-family="sans-serif" font-size="13" lengthAdjust="spacing" textLength="92" x="1285.7546" y="255.0596">decoratedEntity</text></g><!--reverse link BehaviouralEntity to ArrowFunction--><g id="link_BehaviouralEntity_ArrowFunction"><path codeLine="133" d="M1933.78,502.83 C1895.96,528.55 1839.72,566.8 1808.83,587.81 " fill="none" id="BehaviouralEntity-backto-ArrowFunction" style="stroke:#000000;stroke-width:1.0;"/><polygon fill="none" points="1929.96,496.97,1950.43,491.51,1937.83,508.54,1929.96,496.97" style="stroke:#000000;stroke-width:1.0;"/></g><!--reverse link ArrowFunction to ParametricArrowFunction--><g id="link_ArrowFunction_ParametricArrowFunction"><path codeLine="134" d="M1739.3,629.41 C1708.16,645.52 1668.35,666.11 1641.72,679.89 " fill="none" id="ArrowFunction-backto-ParametricArrowFunction" style="stroke:#000000;stroke-width:1.0;"/><polygon fill="none" points="1736.4,623.03,1757.38,620.06,1742.83,635.47,1736.4,623.03" style="stroke:#000000;stroke-width:1.0;"/></g><!--reverse link ScriptEntity to Module--><g id="link_ScriptEntity_Module"><path codeLine="135" d="M2992.5,640.61 C2992.5,654.31 2992.5,669.22 2992.5,679.96 " fill="none" id="ScriptEntity-backto-Module" style="stroke:#000000;stroke-width:1.0;"/><polygon fill="none" points="2985.5,640.27,2992.5,620.27,2999.5,640.27,2985.5,640.27" style="stroke:#000000;stroke-width:1.0;"/></g><!--reverse link BehaviouralEntity to Function--><g id="link_BehaviouralEntity_Function"><path codeLine="136" d="M1960.36,510.63 C1951.44,535.71 1939.73,568.61 1932.97,587.62 " fill="none" id="BehaviouralEntity-backto-Function" style="stroke:#000000;stroke-width:1.0;"/><polygon fill="none" points="1953.86,508.01,1967.16,491.51,1967.05,512.7,1953.86,508.01" style="stroke:#000000;stroke-width:1.0;"/></g><!--reverse link BehaviouralEntity to Method--><g id="link_BehaviouralEntity_Method"><path codeLine="137" d="M1991.58,509.12 C2006.36,534.38 2026.16,568.23 2037.5,587.62 " fill="none" id="BehaviouralEntity-backto-Method" style="stroke:#000000;stroke-width:1.0;"/><polygon fill="none" points="1985.34,512.31,1981.28,491.51,1997.42,505.24,1985.34,512.31" style="stroke:#000000;stroke-width:1.0;"/></g><!--reverse link Entity to Access--><g id="link_Entity_Access"><path codeLine="138" d="M824.95,50.49 C801.99,66.26 773.7,85.7 754.5,98.89 " fill="none" id="Entity-backto-Access" style="stroke:#000000;stroke-width:1.0;"/><polygon fill="none" points="821.13,44.62,841.57,39.06,829.05,56.16,821.13,44.62" style="stroke:#000000;stroke-width:1.0;"/></g><!--reverse link Entity to ImportClause--><g id="link_Entity_ImportClause"><path codeLine="139" d="M863.5,59.61 C863.5,73.31 863.5,88.22 863.5,98.96 " fill="none" id="Entity-backto-ImportClause" style="stroke:#000000;stroke-width:1.0;"/><polygon fill="none" points="856.5,59.27,863.5,39.27,870.5,59.27,856.5,59.27" style="stroke:#000000;stroke-width:1.0;"/></g><!--reverse link SourcedEntity to Comment--><g id="link_SourcedEntity_Comment"><path codeLine="140" d="M1149.5,151.4 C1149.5,164.38 1149.5,178.86 1149.5,190.99 " fill="none" id="SourcedEntity-backto-Comment" style="stroke:#000000;stroke-width:1.0;"/><polygon fill="none" points="1142.5,151.05,1149.5,131.05,1156.5,151.05,1142.5,151.05" style="stroke:#000000;stroke-width:1.0;"/></g><!--reverse link SourceAnchor to IndexedFileAnchor--><g id="link_SourceAnchor_IndexedFileAnchor"><path codeLine="141" d="M1591.02,147.41 C1577.82,165.85 1561.74,188.33 1551.32,202.89 " fill="none" id="SourceAnchor-backto-IndexedFileAnchor" style="stroke:#000000;stroke-width:1.0;"/><polygon fill="none" points="1585.4,143.24,1602.73,131.05,1596.78,151.39,1585.4,143.24" style="stroke:#000000;stroke-width:1.0;"/></g><!--reverse link Entity to Reference--><g id="link_Entity_Reference"><path codeLine="142" d="M904.48,49.79 C929.72,65.68 961.22,85.5 982.49,98.89 " fill="none" id="Entity-backto-Reference" style="stroke:#000000;stroke-width:1.0;"/><polygon fill="none" points="900.63,55.64,887.43,39.06,908.09,43.79,900.63,55.64" style="stroke:#000000;stroke-width:1.0;"/></g><!--reverse link Entity to SourcedEntity--><g id="link_Entity_SourcedEntity"><path codeLine="143" d="M916.93,40.81 C970.01,57.52 1050.65,82.89 1101.68,98.95 " fill="none" id="Entity-backto-SourcedEntity" style="stroke:#000000;stroke-width:1.0;"/><polygon fill="none" points="914.69,47.45,897.71,34.77,918.89,34.09,914.69,47.45" style="stroke:#000000;stroke-width:1.0;"/></g><!--reverse link Interface to ParametricInterface--><g id="link_Interface_ParametricInterface"><path codeLine="144" d="M2472.4,639.13 C2477.72,653.23 2483.61,668.83 2487.82,679.96 " fill="none" id="Interface-backto-ParametricInterface" style="stroke:#000000;stroke-width:1.0;"/><polygon fill="none" points="2465.79,641.45,2465.27,620.27,2478.88,636.5,2465.79,641.45" style="stroke:#000000;stroke-width:1.0;"/></g><!--reverse link StructuralEntity to Variable--><g id="link_StructuralEntity_Variable"><path codeLine="145" d="M1563.15,363.27 C1586.08,380.11 1615.81,402.38 1641.5,423 C1656.27,434.86 1672.55,448.9 1684.42,459.32 " fill="none" id="StructuralEntity-backto-Variable" style="stroke:#000000;stroke-width:1.0;"/><polygon fill="none" points="1558.8,368.76,1546.77,351.31,1567.05,357.45,1558.8,368.76" style="stroke:#000000;stroke-width:1.0;"/></g><!--reverse link NamedEntity to Folder--><g id="link_NamedEntity_Folder"><path codeLine="146" d="M1298.5,255.6 C1298.5,276.88 1298.5,302.82 1298.5,318.87 " fill="none" id="NamedEntity-backto-Folder" style="stroke:#000000;stroke-width:1.0;"/><polygon fill="none" points="1291.5,255.37,1298.5,235.37,1305.5,255.37,1291.5,255.37" style="stroke:#000000;stroke-width:1.0;"/></g><!--reverse link Variable to implicitVariable--><g id="link_Variable_implicitVariable"><path codeLine="147" d="M1681.36,508.75 C1665.56,534.05 1644.28,568.13 1632.11,587.62 " fill="none" id="Variable-backto-implicitVariable" style="stroke:#000000;stroke-width:1.0;"/><polygon fill="none" points="1675.6,504.76,1692.13,491.51,1687.47,512.18,1675.6,504.76" style="stroke:#000000;stroke-width:1.0;"/></g><!--reverse link ScopingEntity to Namespace--><g id="link_ScopingEntity_Namespace"><path codeLine="148" d="M2852.5,511.77 C2852.5,536.7 2852.5,568.9 2852.5,587.62 " fill="none" id="ScopingEntity-backto-Namespace" style="stroke:#000000;stroke-width:1.0;"/><polygon fill="none" points="2845.5,511.51,2852.5,491.51,2859.5,511.51,2845.5,511.51" style="stroke:#000000;stroke-width:1.0;"/></g><!--reverse link Type to Interface--><g id="link_Type_Interface"><path codeLine="149" d="M2405.33,509.12 C2419.9,534.38 2439.43,568.23 2450.62,587.62 " fill="none" id="Type-backto-Interface" style="stroke:#000000;stroke-width:1.0;"/><polygon fill="none" points="2399.09,512.33,2395.16,491.51,2411.22,505.33,2399.09,512.33" style="stroke:#000000;stroke-width:1.0;"/></g><!--reverse link Entity to Inheritance--><g id="link_Entity_Inheritance"><path codeLine="150" d="M917.19,34.96 C988.06,49.47 1116.69,75.89 1226.5,99 C1232.09,100.18 1237.94,101.42 1243.76,102.66 " fill="none" id="Entity-backto-Inheritance" style="stroke:#000000;stroke-width:1.0;"/><polygon fill="none" points="915.74,41.81,897.55,30.95,918.55,28.1,915.74,41.81" style="stroke:#000000;stroke-width:1.0;"/></g><!--reverse link Method to ParametricMethod--><g id="link_Method_ParametricMethod"><path codeLine="151" d="M2033.6,639.13 C2028.28,653.23 2022.39,668.83 2018.18,679.96 " fill="none" id="Method-backto-ParametricMethod" style="stroke:#000000;stroke-width:1.0;"/><polygon fill="none" points="2027.12,636.5,2040.73,620.27,2040.21,641.45,2027.12,636.5" style="stroke:#000000;stroke-width:1.0;"/></g><!--reverse link ScopingEntity to ScriptEntity--><g id="link_ScopingEntity_ScriptEntity"><path codeLine="152" d="M2884.15,505.1 C2912.45,530.67 2952.85,567.18 2975.48,587.62 " fill="none" id="ScopingEntity-backto-ScriptEntity" style="stroke:#000000;stroke-width:1.0;"/><polygon fill="none" points="2879.26,510.11,2869.11,491.51,2888.64,499.72,2879.26,510.11" style="stroke:#000000;stroke-width:1.0;"/></g><!--reverse link Type to PrimitiveType--><g id="link_Type_PrimitiveType"><path codeLine="153" d="M2429.28,501.79 C2472.79,527.51 2538.78,566.52 2574.81,587.81 " fill="none" id="Type-backto-PrimitiveType" style="stroke:#000000;stroke-width:1.0;"/><polygon fill="none" points="2425.54,507.71,2411.89,491.51,2432.67,495.66,2425.54,507.71" style="stroke:#000000;stroke-width:1.0;"/></g><!--reverse link Method to Accessor--><g id="link_Method_Accessor"><path codeLine="154" d="M2082.75,632.19 C2103.61,647.83 2129.02,666.89 2146.35,679.89 " fill="none" id="Method-backto-Accessor" style="stroke:#000000;stroke-width:1.0;"/><polygon fill="none" points="2078.39,637.66,2066.59,620.06,2086.79,626.46,2078.39,637.66" style="stroke:#000000;stroke-width:1.0;"/></g><!--reverse link ContainerEntity to ScopingEntity--><g id="link_ContainerEntity_ScopingEntity"><path codeLine="155" d="M2300.34,354.45 C2431.83,383.04 2681.43,437.3 2794.38,461.86 " fill="none" id="ContainerEntity-backto-ScopingEntity" style="stroke:#000000;stroke-width:1.0;"/><polygon fill="none" points="2298.73,361.26,2280.68,350.17,2301.71,347.58,2298.73,361.26" style="stroke:#000000;stroke-width:1.0;"/></g><!--reverse link NamedEntity to File--><g id="link_NamedEntity_File"><path codeLine="156" d="M1325.1,250.63 C1344.27,272.7 1369.31,301.54 1384.36,318.87 " fill="none" id="NamedEntity-backto-File" style="stroke:#000000;stroke-width:1.0;"/><polygon fill="none" points="1319.68,255.07,1311.85,235.37,1330.25,245.89,1319.68,255.07" style="stroke:#000000;stroke-width:1.0;"/></g><!--reverse link NamedEntity to StructuralEntity--><g id="link_NamedEntity_StructuralEntity"><path codeLine="157" d="M1346.54,244.12 C1391.61,266.76 1457.61,299.91 1495.59,318.98 " fill="none" id="NamedEntity-backto-StructuralEntity" style="stroke:#000000;stroke-width:1.0;"/><polygon fill="none" points="1343.38,250.37,1328.64,235.14,1349.66,237.86,1343.38,250.37" style="stroke:#000000;stroke-width:1.0;"/></g><!--reverse link SourcedEntity to NamedEntity--><g id="link_SourcedEntity_NamedEntity"><path codeLine="158" d="M1188.01,142.36 C1216.1,161.59 1253.17,186.97 1276.42,202.89 " fill="none" id="SourcedEntity-backto-NamedEntity" style="stroke:#000000;stroke-width:1.0;"/><polygon fill="none" points="1184.03,148.12,1171.49,131.05,1191.94,136.57,1184.03,148.12" style="stroke:#000000;stroke-width:1.0;"/></g><!--reverse link NamedEntity to ContainerEntity--><g id="link_NamedEntity_ContainerEntity"><path codeLine="159" d="M1375.42,235.05 C1398.25,239.25 1423.34,243.58 1446.5,247 C1706.36,285.36 2017.8,315.87 2150.49,328.15 " fill="none" id="NamedEntity-backto-ContainerEntity" style="stroke:#000000;stroke-width:1.0;"/><polygon fill="none" points="1374,241.91,1355.63,231.36,1376.58,228.15,1374,241.91" style="stroke:#000000;stroke-width:1.0;"/></g><!--reverse link SourceAnchor to SourceTextAnchor--><g id="link_SourceAnchor_SourceTextAnchor"><path codeLine="160" d="M1644.88,144.57 C1665.66,163.5 1692.09,187.57 1708.91,202.89 " fill="none" id="SourceAnchor-backto-SourceTextAnchor" style="stroke:#000000;stroke-width:1.0;"/><polygon fill="none" points="1640.1,149.69,1630.03,131.05,1649.53,139.34,1640.1,149.69" style="stroke:#000000;stroke-width:1.0;"/></g><!--reverse link Entity to SourceLanguage--><g id="link_Entity_SourceLanguage"><path codeLine="161" d="M917.61,31.59 C1009.84,44.62 1203.36,72.45 1366.5,99 C1372.27,99.94 1378.25,100.94 1384.25,101.96 " fill="none" id="Entity-backto-SourceLanguage" style="stroke:#000000;stroke-width:1.0;"/><polygon fill="none" points="916.53,38.5,897.7,28.78,918.48,24.64,916.53,38.5" style="stroke:#000000;stroke-width:1.0;"/></g><!--reverse link Entity to SourceAnchor--><g id="link_Entity_SourceAnchor"><path codeLine="162" d="M917.61,28.58 C1032.03,38.58 1306.8,64.3 1535.5,99 C1541.23,99.87 1547.17,100.86 1553.11,101.9 " fill="none" id="Entity-backto-SourceAnchor" style="stroke:#000000;stroke-width:1.0;"/><polygon fill="none" points="916.86,35.54,897.54,26.84,918.07,21.59,916.86,35.54" style="stroke:#000000;stroke-width:1.0;"/></g><!--reverse link Type to Enum--><g id="link_Type_Enum"><path codeLine="163" d="M2436.43,494.86 C2507.35,520.94 2635.4,568.03 2696.4,590.46 " fill="none" id="Type-backto-Enum" style="stroke:#000000;stroke-width:1.0;"/><polygon fill="none" points="2433.99,501.42,2417.63,487.95,2438.82,488.28,2433.99,501.42" style="stroke:#000000;stroke-width:1.0;"/></g><!--reverse link TClassMetrics to Class--><g id="link_TClassMetrics_Class"><path codeLine="164" d="M2182.5,511.77 C2182.5,536.7 2182.5,568.9 2182.5,587.62 " fill="none" id="TClassMetrics-backto-Class" style="stroke:#000000;stroke-width:1.0;stroke-dasharray:7.0,7.0;"/><polygon fill="none" points="2175.5,511.51,2182.5,491.51,2189.5,511.51,2175.5,511.51" style="stroke:#000000;stroke-width:1.0;"/></g><!--reverse link TWithInterfaces to ContainerEntity--><g id="link_TWithInterfaces_ContainerEntity"><path codeLine="165" d="M2215.5,255.6 C2215.5,276.88 2215.5,302.82 2215.5,318.87 " fill="none" id="TWithInterfaces-backto-ContainerEntity" style="stroke:#000000;stroke-width:1.0;stroke-dasharray:7.0,7.0;"/><polygon fill="none" points="2208.5,255.37,2215.5,235.37,2222.5,255.37,2208.5,255.37" style="stroke:#000000;stroke-width:1.0;"/></g><!--reverse link TEntityCreator to FamixTypeScriptModel--><g id="link_TEntityCreator_FamixTypeScriptModel"><path codeLine="166" d="M1796.5,59.61 C1796.5,73.31 1796.5,88.22 1796.5,98.96 " fill="none" id="TEntityCreator-backto-FamixTypeScriptModel" style="stroke:#000000;stroke-width:1.0;stroke-dasharray:7.0,7.0;"/><polygon fill="none" points="1789.5,59.27,1796.5,39.27,1803.5,59.27,1789.5,59.27" style="stroke:#000000;stroke-width:1.0;"/></g><!--SRC=[bLTTRziW57tdLrZTopQj_GLLfTHjfbJhMYrHzqpmROAAmS8uJRRklmzC_05swjiy9N21o-7SSswsF8C4yi8SaXpoDUYIb2zS5bJJF662bcNoboJ9DMKl6wqgcQLAA9syRha1EpxJMhtweRMmCIvKwGoq7ykeVlckwO7y8twlL4ccmV0_r70baylBp-ctUgylLrV9fpITsuyzi0c_MzueDXbr3LkwuwhILDnAm-rLfbOykkk1qPobzMzaFEZLeO39w5jPvKzKL83VTp8ITV0YBmJa80qEtPdWTFhkgz_SR1VI9lbC6TJnAnosyqeoL28BkLCCbpFolRGgGBz314TJ9O3AX9TtT4UNJFF2F6g-epMlkzaRUERIhXU7MLdoZOGic7ueNDfKz0OrqEn1YexqAy_Ar4uOfR40kXhwKB5qmDTLYKR_Oz4tm9Hkxd42swLDGcuIs1SQB6XAjgllLLQ9QIAZixa7irNPD8ThsjpNu4mpUCOipwT9bghSrHgEOqx8-dMgjB4vLIMYg6K6UyZcNC1CigsQrefVy0mQ99lUUsb5aq66LCqdgZbTOvvFYGoXQHrXMtcPNFFJhYWBJ2ItOiWPD-YiyKaiv1OqDnG3SNT995UHZ-4L2-jtckVSy1sWR6J9L67h5xcthnO4BHs3fyyskcBc0rRk284bi1LKGxa4ZSMuBeyLx0soykOqvtk7iNyTgtOWaAVye79JqGssPf49kLRadQ06XxVpywWr8qUZTJDHjqG6CBgWGHD68d5nGLu6FGbxE_k-QdpVUgO_43OvP4WO5zIsO2JWXvkgkvuJozfyIET08GBDU9XIsx_qxkQnEd7EiJyXeuT7Bp6uGMl1PAJphQ_OTtGI-Njudp0q51KNwGtxr47jmXFpNlA2MtgvY5-qjSCnrXoDbeJCzy17tXZis_fWC1eSG7gY7mBJJfnumiPMXi_ZtOzqlkC6OpSYaSYwcDRRUYpgqWW9rneGQMmbJF-8_CWf_JVkbsBV8e9D6u4Vhy_WX14m-1X4CQHZhzvRDDmWIcM46h5sZt2WaToHgUEQ3XudA2Hg8zykBevLFlYFL4z5ESP_0rpCc66GhiK-ovglvTUpnARH33HedFLX-Wy0]--></g></svg>