<?xml version="1.0" encoding="us-ascii" standalone="no"?><svg xmlns="http://www.w3.org/2000/svg" xmlns:xlink="http://www.w3.org/1999/xlink" contentStyleType="text/css" height="719px" preserveAspectRatio="none" style="width:3371px;height:719px;background:#FFFFFF;" version="1.1" viewBox="0 0 3371 719" width="3371px" zoomAndPan="magnify"><defs/><g><!--class ScriptEntity--><g id="elem_ScriptEntity"><rect codeLine="7" fill="#CCFFFF" height="32" id="ScriptEntity" rx="2.5" ry="2.5" style="stroke:#A9A9A9;stroke-width:0.5;" width="104" x="831.5" y="588"/><ellipse cx="846.5" cy="604" fill="#FFFFFF" rx="11" ry="11" style="stroke:#181818;stroke-width:1.0;"/><path d="M846.4375,599.8281 Q845.6875,599.8281 845.125,600.125 Q844.5625,600.4063 844.1719,600.9375 Q843.7813,601.4688 843.5781,602.25 Q843.3906,603.0156 843.3906,603.9688 Q843.3906,604.9375 843.5625,605.7031 Q843.75,606.4531 844.1094,606.9688 Q844.4844,607.4844 845.0625,607.7656 Q845.6406,608.0313 846.4375,608.0313 Q847.1719,608.0313 847.9063,607.8594 Q848.6563,607.6875 849.5313,607.3906 L849.5313,609.5469 Q849.125,609.7031 848.7344,609.8281 Q848.3438,609.9375 847.9375,610.0156 Q847.5313,610.0938 847.1094,610.125 Q846.6875,610.1719 846.1875,610.1719 Q844.7813,610.1719 843.75,609.7188 Q842.7344,609.2656 842.0625,608.4531 Q841.3906,607.6406 841.0625,606.5 Q840.7344,605.3438 840.7344,603.9531 Q840.7344,602.5781 841.1094,601.4219 Q841.4844,600.2656 842.2031,599.4375 Q842.9219,598.6094 843.9844,598.1563 Q845.0469,597.6875 846.4375,597.6875 Q847.3438,597.6875 848.25,597.9219 Q849.1563,598.1406 849.9844,598.5469 L849.1563,600.6406 Q848.4688,600.3125 847.7813,600.0781 Q847.0938,599.8281 846.4375,599.8281 Z " fill="#000000"/><text fill="#000000" font-family="sans-serif" font-size="14" lengthAdjust="spacing" textLength="72" x="860.5" y="608.8467">ScriptEntity</text></g><!--class Interface--><g id="elem_Interface"><rect codeLine="9" fill="#CCFFFF" height="32" id="Interface" rx="2.5" ry="2.5" style="stroke:#A9A9A9;stroke-width:0.5;" width="90" x="462.5" y="588"/><ellipse cx="477.5" cy="604" fill="#FFFFFF" rx="11" ry="11" style="stroke:#181818;stroke-width:1.0;"/><path d="M477.4375,599.8281 Q476.6875,599.8281 476.125,600.125 Q475.5625,600.4063 475.1719,600.9375 Q474.7813,601.4688 474.5781,602.25 Q474.3906,603.0156 474.3906,603.9688 Q474.3906,604.9375 474.5625,605.7031 Q474.75,606.4531 475.1094,606.9688 Q475.4844,607.4844 476.0625,607.7656 Q476.6406,608.0313 477.4375,608.0313 Q478.1719,608.0313 478.9063,607.8594 Q479.6563,607.6875 480.5313,607.3906 L480.5313,609.5469 Q480.125,609.7031 479.7344,609.8281 Q479.3438,609.9375 478.9375,610.0156 Q478.5313,610.0938 478.1094,610.125 Q477.6875,610.1719 477.1875,610.1719 Q475.7813,610.1719 474.75,609.7188 Q473.7344,609.2656 473.0625,608.4531 Q472.3906,607.6406 472.0625,606.5 Q471.7344,605.3438 471.7344,603.9531 Q471.7344,602.5781 472.1094,601.4219 Q472.4844,600.2656 473.2031,599.4375 Q473.9219,598.6094 474.9844,598.1563 Q476.0469,597.6875 477.4375,597.6875 Q478.3438,597.6875 479.25,597.9219 Q480.1563,598.1406 480.9844,598.5469 L480.1563,600.6406 Q479.4688,600.3125 478.7813,600.0781 Q478.0938,599.8281 477.4375,599.8281 Z " fill="#000000"/><text fill="#000000" font-family="sans-serif" font-size="14" lengthAdjust="spacing" textLength="58" x="491.5" y="608.8467">Interface</text></g><!--class File--><g id="elem_File"><rect codeLine="11" fill="#CCFFFF" height="32" id="File" rx="2.5" ry="2.5" style="stroke:#A9A9A9;stroke-width:0.5;" width="55" x="1386" y="319"/><ellipse cx="1401" cy="335" fill="#FFFFFF" rx="11" ry="11" style="stroke:#181818;stroke-width:1.0;"/><path d="M1400.9375,330.8281 Q1400.1875,330.8281 1399.625,331.125 Q1399.0625,331.4063 1398.6719,331.9375 Q1398.2813,332.4688 1398.0781,333.25 Q1397.8906,334.0156 1397.8906,334.9688 Q1397.8906,335.9375 1398.0625,336.7031 Q1398.25,337.4531 1398.6094,337.9688 Q1398.9844,338.4844 1399.5625,338.7656 Q1400.1406,339.0313 1400.9375,339.0313 Q1401.6719,339.0313 1402.4063,338.8594 Q1403.1563,338.6875 1404.0313,338.3906 L1404.0313,340.5469 Q1403.625,340.7031 1403.2344,340.8281 Q1402.8438,340.9375 1402.4375,341.0156 Q1402.0313,341.0938 1401.6094,341.125 Q1401.1875,341.1719 1400.6875,341.1719 Q1399.2813,341.1719 1398.25,340.7188 Q1397.2344,340.2656 1396.5625,339.4531 Q1395.8906,338.6406 1395.5625,337.5 Q1395.2344,336.3438 1395.2344,334.9531 Q1395.2344,333.5781 1395.6094,332.4219 Q1395.9844,331.2656 1396.7031,330.4375 Q1397.4219,329.6094 1398.4844,329.1563 Q1399.5469,328.6875 1400.9375,328.6875 Q1401.8438,328.6875 1402.75,328.9219 Q1403.6563,329.1406 1404.4844,329.5469 L1403.6563,331.6406 Q1402.9688,331.3125 1402.2813,331.0781 Q1401.5938,330.8281 1400.9375,330.8281 Z " fill="#000000"/><text fill="#000000" font-family="sans-serif" font-size="14" lengthAdjust="spacing" textLength="23" x="1415" y="339.8467">File</text></g><!--class ParametricInterface--><g id="elem_ParametricInterface"><rect codeLine="13" fill="#CCFFFF" height="32" id="ParametricInterface" rx="2.5" ry="2.5" style="stroke:#A9A9A9;stroke-width:0.5;" width="160" x="427.5" y="680"/><ellipse cx="442.5" cy="696" fill="#FFFFFF" rx="11" ry="11" style="stroke:#181818;stroke-width:1.0;"/><path d="M442.4375,691.8281 Q441.6875,691.8281 441.125,692.125 Q440.5625,692.4063 440.1719,692.9375 Q439.7813,693.4688 439.5781,694.25 Q439.3906,695.0156 439.3906,695.9688 Q439.3906,696.9375 439.5625,697.7031 Q439.75,698.4531 440.1094,698.9688 Q440.4844,699.4844 441.0625,699.7656 Q441.6406,700.0313 442.4375,700.0313 Q443.1719,700.0313 443.9063,699.8594 Q444.6563,699.6875 445.5313,699.3906 L445.5313,701.5469 Q445.125,701.7031 444.7344,701.8281 Q444.3438,701.9375 443.9375,702.0156 Q443.5313,702.0938 443.1094,702.125 Q442.6875,702.1719 442.1875,702.1719 Q440.7813,702.1719 439.75,701.7188 Q438.7344,701.2656 438.0625,700.4531 Q437.3906,699.6406 437.0625,698.5 Q436.7344,697.3438 436.7344,695.9531 Q436.7344,694.5781 437.1094,693.4219 Q437.4844,692.2656 438.2031,691.4375 Q438.9219,690.6094 439.9844,690.1563 Q441.0469,689.6875 442.4375,689.6875 Q443.3438,689.6875 444.25,689.9219 Q445.1563,690.1406 445.9844,690.5469 L445.1563,692.6406 Q444.4688,692.3125 443.7813,692.0781 Q443.0938,691.8281 442.4375,691.8281 Z " fill="#000000"/><text fill="#000000" font-family="sans-serif" font-size="14" lengthAdjust="spacing" textLength="128" x="456.5" y="700.8467">ParametricInterface</text></g><!--class TWithInterfaces--><g id="elem_TWithInterfaces"><rect codeLine="15" fill="#CCFFFF" height="32" id="TWithInterfaces" rx="2.5" ry="2.5" style="stroke:#A9A9A9;stroke-width:0.5;" width="132" x="925.5" y="203"/><ellipse cx="940.5" cy="219" fill="#FFFFFF" rx="11" ry="11" style="stroke:#181818;stroke-width:1.0;"/><path d="M941.9531,225.75 L939.3906,225.75 L939.3906,215.75 L936.3438,215.75 L936.3438,213.6094 L944.9844,213.6094 L944.9844,215.75 L941.9531,215.75 L941.9531,225.75 Z " fill="#000000"/><text fill="#000000" font-family="sans-serif" font-size="14" lengthAdjust="spacing" textLength="100" x="954.5" y="223.8467">TWithInterfaces</text></g><!--class SourceTextAnchor--><g id="elem_SourceTextAnchor"><rect codeLine="17" fill="#CCFFFF" height="32" id="SourceTextAnchor" rx="2.5" ry="2.5" style="stroke:#A9A9A9;stroke-width:0.5;" width="147" x="2927" y="203"/><ellipse cx="2942" cy="219" fill="#FFFFFF" rx="11" ry="11" style="stroke:#181818;stroke-width:1.0;"/><path d="M2941.9375,214.8281 Q2941.1875,214.8281 2940.625,215.125 Q2940.0625,215.4063 2939.6719,215.9375 Q2939.2813,216.4688 2939.0781,217.25 Q2938.8906,218.0156 2938.8906,218.9688 Q2938.8906,219.9375 2939.0625,220.7031 Q2939.25,221.4531 2939.6094,221.9688 Q2939.9844,222.4844 2940.5625,222.7656 Q2941.1406,223.0313 2941.9375,223.0313 Q2942.6719,223.0313 2943.4063,222.8594 Q2944.1563,222.6875 2945.0313,222.3906 L2945.0313,224.5469 Q2944.625,224.7031 2944.2344,224.8281 Q2943.8438,224.9375 2943.4375,225.0156 Q2943.0313,225.0938 2942.6094,225.125 Q2942.1875,225.1719 2941.6875,225.1719 Q2940.2813,225.1719 2939.25,224.7188 Q2938.2344,224.2656 2937.5625,223.4531 Q2936.8906,222.6406 2936.5625,221.5 Q2936.2344,220.3438 2936.2344,218.9531 Q2936.2344,217.5781 2936.6094,216.4219 Q2936.9844,215.2656 2937.7031,214.4375 Q2938.4219,213.6094 2939.4844,213.1563 Q2940.5469,212.6875 2941.9375,212.6875 Q2942.8438,212.6875 2943.75,212.9219 Q2944.6563,213.1406 2945.4844,213.5469 L2944.6563,215.6406 Q2943.9688,215.3125 2943.2813,215.0781 Q2942.5938,214.8281 2941.9375,214.8281 Z " fill="#000000"/><text fill="#000000" font-family="sans-serif" font-size="14" lengthAdjust="spacing" textLength="115" x="2956" y="223.8467">SourceTextAnchor</text></g><!--class ScopingEntity--><g id="elem_ScopingEntity"><rect codeLine="19" fill="#CCFFFF" height="32" id="ScopingEntity" rx="2.5" ry="2.5" style="stroke:#A9A9A9;stroke-width:0.5;" width="116" x="825.5" y="459.5"/><ellipse cx="840.5" cy="475.5" fill="#FFFFFF" rx="11" ry="11" style="stroke:#181818;stroke-width:1.0;"/><path d="M840.4375,471.3281 Q839.6875,471.3281 839.125,471.625 Q838.5625,471.9063 838.1719,472.4375 Q837.7813,472.9688 837.5781,473.75 Q837.3906,474.5156 837.3906,475.4688 Q837.3906,476.4375 837.5625,477.2031 Q837.75,477.9531 838.1094,478.4688 Q838.4844,478.9844 839.0625,479.2656 Q839.6406,479.5313 840.4375,479.5313 Q841.1719,479.5313 841.9063,479.3594 Q842.6563,479.1875 843.5313,478.8906 L843.5313,481.0469 Q843.125,481.2031 842.7344,481.3281 Q842.3438,481.4375 841.9375,481.5156 Q841.5313,481.5938 841.1094,481.625 Q840.6875,481.6719 840.1875,481.6719 Q838.7813,481.6719 837.75,481.2188 Q836.7344,480.7656 836.0625,479.9531 Q835.3906,479.1406 835.0625,478 Q834.7344,476.8438 834.7344,475.4531 Q834.7344,474.0781 835.1094,472.9219 Q835.4844,471.7656 836.2031,470.9375 Q836.9219,470.1094 837.9844,469.6563 Q839.0469,469.1875 840.4375,469.1875 Q841.3438,469.1875 842.25,469.4219 Q843.1563,469.6406 843.9844,470.0469 L843.1563,472.1406 Q842.4688,471.8125 841.7813,471.5781 Q841.0938,471.3281 840.4375,471.3281 Z " fill="#000000"/><text fill="#000000" font-family="sans-serif" font-size="14" lengthAdjust="spacing" textLength="84" x="854.5" y="480.3467">ScopingEntity</text></g><!--class SourcedEntity--><g id="elem_SourcedEntity"><rect codeLine="21" fill="#CCFFFF" height="32" id="SourcedEntity" rx="2.5" ry="2.5" style="stroke:#A9A9A9;stroke-width:0.5;" width="119" x="1487" y="99"/><ellipse cx="1502" cy="115" fill="#FFFFFF" rx="11" ry="11" style="stroke:#181818;stroke-width:1.0;"/><path d="M1501.9375,110.8281 Q1501.1875,110.8281 1500.625,111.125 Q1500.0625,111.4063 1499.6719,111.9375 Q1499.2813,112.4688 1499.0781,113.25 Q1498.8906,114.0156 1498.8906,114.9688 Q1498.8906,115.9375 1499.0625,116.7031 Q1499.25,117.4531 1499.6094,117.9688 Q1499.9844,118.4844 1500.5625,118.7656 Q1501.1406,119.0313 1501.9375,119.0313 Q1502.6719,119.0313 1503.4063,118.8594 Q1504.1563,118.6875 1505.0313,118.3906 L1505.0313,120.5469 Q1504.625,120.7031 1504.2344,120.8281 Q1503.8438,120.9375 1503.4375,121.0156 Q1503.0313,121.0938 1502.6094,121.125 Q1502.1875,121.1719 1501.6875,121.1719 Q1500.2813,121.1719 1499.25,120.7188 Q1498.2344,120.2656 1497.5625,119.4531 Q1496.8906,118.6406 1496.5625,117.5 Q1496.2344,116.3438 1496.2344,114.9531 Q1496.2344,113.5781 1496.6094,112.4219 Q1496.9844,111.2656 1497.7031,110.4375 Q1498.4219,109.6094 1499.4844,109.1563 Q1500.5469,108.6875 1501.9375,108.6875 Q1502.8438,108.6875 1503.75,108.9219 Q1504.6563,109.1406 1505.4844,109.5469 L1504.6563,111.6406 Q1503.9688,111.3125 1503.2813,111.0781 Q1502.5938,110.8281 1501.9375,110.8281 Z " fill="#000000"/><text fill="#000000" font-family="sans-serif" font-size="14" lengthAdjust="spacing" textLength="87" x="1516" y="119.8467">SourcedEntity</text></g><!--class SourceLanguage--><g id="elem_SourceLanguage"><rect codeLine="23" fill="#CCFFFF" height="32" id="SourceLanguage" rx="2.5" ry="2.5" style="stroke:#A9A9A9;stroke-width:0.5;" width="134" x="1641.5" y="99"/><ellipse cx="1656.5" cy="115" fill="#FFFFFF" rx="11" ry="11" style="stroke:#181818;stroke-width:1.0;"/><path d="M1656.4375,110.8281 Q1655.6875,110.8281 1655.125,111.125 Q1654.5625,111.4063 1654.1719,111.9375 Q1653.7813,112.4688 1653.5781,113.25 Q1653.3906,114.0156 1653.3906,114.9688 Q1653.3906,115.9375 1653.5625,116.7031 Q1653.75,117.4531 1654.1094,117.9688 Q1654.4844,118.4844 1655.0625,118.7656 Q1655.6406,119.0313 1656.4375,119.0313 Q1657.1719,119.0313 1657.9063,118.8594 Q1658.6563,118.6875 1659.5313,118.3906 L1659.5313,120.5469 Q1659.125,120.7031 1658.7344,120.8281 Q1658.3438,120.9375 1657.9375,121.0156 Q1657.5313,121.0938 1657.1094,121.125 Q1656.6875,121.1719 1656.1875,121.1719 Q1654.7813,121.1719 1653.75,120.7188 Q1652.7344,120.2656 1652.0625,119.4531 Q1651.3906,118.6406 1651.0625,117.5 Q1650.7344,116.3438 1650.7344,114.9531 Q1650.7344,113.5781 1651.1094,112.4219 Q1651.4844,111.2656 1652.2031,110.4375 Q1652.9219,109.6094 1653.9844,109.1563 Q1655.0469,108.6875 1656.4375,108.6875 Q1657.3438,108.6875 1658.25,108.9219 Q1659.1563,109.1406 1659.9844,109.5469 L1659.1563,111.6406 Q1658.4688,111.3125 1657.7813,111.0781 Q1657.0938,110.8281 1656.4375,110.8281 Z " fill="#000000"/><text fill="#000000" font-family="sans-serif" font-size="14" lengthAdjust="spacing" textLength="102" x="1670.5" y="119.8467">SourceLanguage</text></g><!--class Enum--><g id="elem_Enum"><rect codeLine="25" fill="#CCFFFF" height="32" id="Enum" rx="2.5" ry="2.5" style="stroke:#A9A9A9;stroke-width:0.5;" width="68" x="587.5" y="588"/><ellipse cx="602.5" cy="604" fill="#FFFFFF" rx="11" ry="11" style="stroke:#181818;stroke-width:1.0;"/><path d="M602.4375,599.8281 Q601.6875,599.8281 601.125,600.125 Q600.5625,600.4063 600.1719,600.9375 Q599.7813,601.4688 599.5781,602.25 Q599.3906,603.0156 599.3906,603.9688 Q599.3906,604.9375 599.5625,605.7031 Q599.75,606.4531 600.1094,606.9688 Q600.4844,607.4844 601.0625,607.7656 Q601.6406,608.0313 602.4375,608.0313 Q603.1719,608.0313 603.9063,607.8594 Q604.6563,607.6875 605.5313,607.3906 L605.5313,609.5469 Q605.125,609.7031 604.7344,609.8281 Q604.3438,609.9375 603.9375,610.0156 Q603.5313,610.0938 603.1094,610.125 Q602.6875,610.1719 602.1875,610.1719 Q600.7813,610.1719 599.75,609.7188 Q598.7344,609.2656 598.0625,608.4531 Q597.3906,607.6406 597.0625,606.5 Q596.7344,605.3438 596.7344,603.9531 Q596.7344,602.5781 597.1094,601.4219 Q597.4844,600.2656 598.2031,599.4375 Q598.9219,598.6094 599.9844,598.1563 Q601.0469,597.6875 602.4375,597.6875 Q603.3438,597.6875 604.25,597.9219 Q605.1563,598.1406 605.9844,598.5469 L605.1563,600.6406 Q604.4688,600.3125 603.7813,600.0781 Q603.0938,599.8281 602.4375,599.8281 Z " fill="#000000"/><text fill="#000000" font-family="sans-serif" font-size="14" lengthAdjust="spacing" textLength="36" x="616.5" y="608.8467">Enum</text></g><!--class Decorator--><g id="elem_Decorator"><rect codeLine="27" fill="#CCFFFF" height="56.2969" id="Decorator" rx="2.5" ry="2.5" style="stroke:#A9A9A9;stroke-width:0.5;" width="122" x="1847.5" y="307"/><ellipse cx="1874.2" cy="323" fill="#FFFFFF" rx="11" ry="11" style="stroke:#181818;stroke-width:1.0;"/><path d="M1874.1375,318.8281 Q1873.3875,318.8281 1872.825,319.125 Q1872.2625,319.4063 1871.8719,319.9375 Q1871.4813,320.4688 1871.2781,321.25 Q1871.0906,322.0156 1871.0906,322.9688 Q1871.0906,323.9375 1871.2625,324.7031 Q1871.45,325.4531 1871.8094,325.9688 Q1872.1844,326.4844 1872.7625,326.7656 Q1873.3406,327.0313 1874.1375,327.0313 Q1874.8719,327.0313 1875.6063,326.8594 Q1876.3563,326.6875 1877.2313,326.3906 L1877.2313,328.5469 Q1876.825,328.7031 1876.4344,328.8281 Q1876.0438,328.9375 1875.6375,329.0156 Q1875.2313,329.0938 1874.8094,329.125 Q1874.3875,329.1719 1873.8875,329.1719 Q1872.4813,329.1719 1871.45,328.7188 Q1870.4344,328.2656 1869.7625,327.4531 Q1869.0906,326.6406 1868.7625,325.5 Q1868.4344,324.3438 1868.4344,322.9531 Q1868.4344,321.5781 1868.8094,320.4219 Q1869.1844,319.2656 1869.9031,318.4375 Q1870.6219,317.6094 1871.6844,317.1563 Q1872.7469,316.6875 1874.1375,316.6875 Q1875.0438,316.6875 1875.95,316.9219 Q1876.8563,317.1406 1877.6844,317.5469 L1876.8563,319.6406 Q1876.1688,319.3125 1875.4813,319.0781 Q1874.7938,318.8281 1874.1375,318.8281 Z " fill="#000000"/><text fill="#000000" font-family="sans-serif" font-size="14" lengthAdjust="spacing" textLength="64" x="1890.8" y="327.8467">Decorator</text><line style="stroke:#A9A9A9;stroke-width:0.5;" x1="1848.5" x2="1968.5" y1="339" y2="339"/><text fill="#000000" font-family="sans-serif" font-size="14" lengthAdjust="spacing" textLength="110" x="1853.5" y="355.9951">String expression</text></g><!--class ContainerEntity--><g id="elem_ContainerEntity"><rect codeLine="30" fill="#CCFFFF" height="32" id="ContainerEntity" rx="2.5" ry="2.5" style="stroke:#A9A9A9;stroke-width:0.5;" width="130" x="926.5" y="319"/><ellipse cx="941.5" cy="335" fill="#FFFFFF" rx="11" ry="11" style="stroke:#181818;stroke-width:1.0;"/><path d="M941.4375,330.8281 Q940.6875,330.8281 940.125,331.125 Q939.5625,331.4063 939.1719,331.9375 Q938.7813,332.4688 938.5781,333.25 Q938.3906,334.0156 938.3906,334.9688 Q938.3906,335.9375 938.5625,336.7031 Q938.75,337.4531 939.1094,337.9688 Q939.4844,338.4844 940.0625,338.7656 Q940.6406,339.0313 941.4375,339.0313 Q942.1719,339.0313 942.9063,338.8594 Q943.6563,338.6875 944.5313,338.3906 L944.5313,340.5469 Q944.125,340.7031 943.7344,340.8281 Q943.3438,340.9375 942.9375,341.0156 Q942.5313,341.0938 942.1094,341.125 Q941.6875,341.1719 941.1875,341.1719 Q939.7813,341.1719 938.75,340.7188 Q937.7344,340.2656 937.0625,339.4531 Q936.3906,338.6406 936.0625,337.5 Q935.7344,336.3438 935.7344,334.9531 Q935.7344,333.5781 936.1094,332.4219 Q936.4844,331.2656 937.2031,330.4375 Q937.9219,329.6094 938.9844,329.1563 Q940.0469,328.6875 941.4375,328.6875 Q942.3438,328.6875 943.25,328.9219 Q944.1563,329.1406 944.9844,329.5469 L944.1563,331.6406 Q943.4688,331.3125 942.7813,331.0781 Q942.0938,330.8281 941.4375,330.8281 Z " fill="#000000"/><text fill="#000000" font-family="sans-serif" font-size="14" lengthAdjust="spacing" textLength="98" x="955.5" y="339.8467">ContainerEntity</text></g><!--class ArrowFunction--><g id="elem_ArrowFunction"><rect codeLine="32" fill="#CCFFFF" height="32" id="ArrowFunction" rx="2.5" ry="2.5" style="stroke:#A9A9A9;stroke-width:0.5;" width="125" x="1087" y="588"/><ellipse cx="1102" cy="604" fill="#FFFFFF" rx="11" ry="11" style="stroke:#181818;stroke-width:1.0;"/><path d="M1101.9375,599.8281 Q1101.1875,599.8281 1100.625,600.125 Q1100.0625,600.4063 1099.6719,600.9375 Q1099.2813,601.4688 1099.0781,602.25 Q1098.8906,603.0156 1098.8906,603.9688 Q1098.8906,604.9375 1099.0625,605.7031 Q1099.25,606.4531 1099.6094,606.9688 Q1099.9844,607.4844 1100.5625,607.7656 Q1101.1406,608.0313 1101.9375,608.0313 Q1102.6719,608.0313 1103.4063,607.8594 Q1104.1563,607.6875 1105.0313,607.3906 L1105.0313,609.5469 Q1104.625,609.7031 1104.2344,609.8281 Q1103.8438,609.9375 1103.4375,610.0156 Q1103.0313,610.0938 1102.6094,610.125 Q1102.1875,610.1719 1101.6875,610.1719 Q1100.2813,610.1719 1099.25,609.7188 Q1098.2344,609.2656 1097.5625,608.4531 Q1096.8906,607.6406 1096.5625,606.5 Q1096.2344,605.3438 1096.2344,603.9531 Q1096.2344,602.5781 1096.6094,601.4219 Q1096.9844,600.2656 1097.7031,599.4375 Q1098.4219,598.6094 1099.4844,598.1563 Q1100.5469,597.6875 1101.9375,597.6875 Q1102.8438,597.6875 1103.75,597.9219 Q1104.6563,598.1406 1105.4844,598.5469 L1104.6563,600.6406 Q1103.9688,600.3125 1103.2813,600.0781 Q1102.5938,599.8281 1101.9375,599.8281 Z " fill="#000000"/><text fill="#000000" font-family="sans-serif" font-size="14" lengthAdjust="spacing" textLength="93" x="1116" y="608.8467">ArrowFunction</text></g><!--class ImportClause--><g id="elem_ImportClause"><rect codeLine="34" fill="#CCFFFF" height="32" id="ImportClause" rx="2.5" ry="2.5" style="stroke:#A9A9A9;stroke-width:0.5;" width="118" x="1810.5" y="99"/><ellipse cx="1825.5" cy="115" fill="#FFFFFF" rx="11" ry="11" style="stroke:#181818;stroke-width:1.0;"/><path d="M1825.4375,110.8281 Q1824.6875,110.8281 1824.125,111.125 Q1823.5625,111.4063 1823.1719,111.9375 Q1822.7813,112.4688 1822.5781,113.25 Q1822.3906,114.0156 1822.3906,114.9688 Q1822.3906,115.9375 1822.5625,116.7031 Q1822.75,117.4531 1823.1094,117.9688 Q1823.4844,118.4844 1824.0625,118.7656 Q1824.6406,119.0313 1825.4375,119.0313 Q1826.1719,119.0313 1826.9063,118.8594 Q1827.6563,118.6875 1828.5313,118.3906 L1828.5313,120.5469 Q1828.125,120.7031 1827.7344,120.8281 Q1827.3438,120.9375 1826.9375,121.0156 Q1826.5313,121.0938 1826.1094,121.125 Q1825.6875,121.1719 1825.1875,121.1719 Q1823.7813,121.1719 1822.75,120.7188 Q1821.7344,120.2656 1821.0625,119.4531 Q1820.3906,118.6406 1820.0625,117.5 Q1819.7344,116.3438 1819.7344,114.9531 Q1819.7344,113.5781 1820.1094,112.4219 Q1820.4844,111.2656 1821.2031,110.4375 Q1821.9219,109.6094 1822.9844,109.1563 Q1824.0469,108.6875 1825.4375,108.6875 Q1826.3438,108.6875 1827.25,108.9219 Q1828.1563,109.1406 1828.9844,109.5469 L1828.1563,111.6406 Q1827.4688,111.3125 1826.7813,111.0781 Q1826.0938,110.8281 1825.4375,110.8281 Z " fill="#000000"/><text fill="#000000" font-family="sans-serif" font-size="14" lengthAdjust="spacing" textLength="86" x="1839.5" y="119.8467">ImportClause</text></g><!--class implicitVariable--><g id="elem_implicitVariable"><rect codeLine="36" fill="#CCFFFF" height="32" id="implicitVariable" rx="2.5" ry="2.5" style="stroke:#A9A9A9;stroke-width:0.5;" width="132" x="1368.5" y="588"/><ellipse cx="1383.5" cy="604" fill="#FFFFFF" rx="11" ry="11" style="stroke:#181818;stroke-width:1.0;"/><path d="M1383.4375,599.8281 Q1382.6875,599.8281 1382.125,600.125 Q1381.5625,600.4063 1381.1719,600.9375 Q1380.7813,601.4688 1380.5781,602.25 Q1380.3906,603.0156 1380.3906,603.9688 Q1380.3906,604.9375 1380.5625,605.7031 Q1380.75,606.4531 1381.1094,606.9688 Q1381.4844,607.4844 1382.0625,607.7656 Q1382.6406,608.0313 1383.4375,608.0313 Q1384.1719,608.0313 1384.9063,607.8594 Q1385.6563,607.6875 1386.5313,607.3906 L1386.5313,609.5469 Q1386.125,609.7031 1385.7344,609.8281 Q1385.3438,609.9375 1384.9375,610.0156 Q1384.5313,610.0938 1384.1094,610.125 Q1383.6875,610.1719 1383.1875,610.1719 Q1381.7813,610.1719 1380.75,609.7188 Q1379.7344,609.2656 1379.0625,608.4531 Q1378.3906,607.6406 1378.0625,606.5 Q1377.7344,605.3438 1377.7344,603.9531 Q1377.7344,602.5781 1378.1094,601.4219 Q1378.4844,600.2656 1379.2031,599.4375 Q1379.9219,598.6094 1380.9844,598.1563 Q1382.0469,597.6875 1383.4375,597.6875 Q1384.3438,597.6875 1385.25,597.9219 Q1386.1563,598.1406 1386.9844,598.5469 L1386.1563,600.6406 Q1385.4688,600.3125 1384.7813,600.0781 Q1384.0938,599.8281 1383.4375,599.8281 Z " fill="#000000"/><text fill="#000000" font-family="sans-serif" font-size="14" lengthAdjust="spacing" textLength="100" x="1397.5" y="608.8467">implicitVariable</text></g><!--class Comment--><g id="elem_Comment"><rect codeLine="38" fill="#CCFFFF" height="56.2969" id="Comment" rx="2.5" ry="2.5" style="stroke:#A9A9A9;stroke-width:0.5;" width="113" x="1365" y="191"/><ellipse cx="1388.1" cy="207" fill="#FFFFFF" rx="11" ry="11" style="stroke:#181818;stroke-width:1.0;"/><path d="M1388.0375,202.8281 Q1387.2875,202.8281 1386.725,203.125 Q1386.1625,203.4063 1385.7719,203.9375 Q1385.3813,204.4688 1385.1781,205.25 Q1384.9906,206.0156 1384.9906,206.9688 Q1384.9906,207.9375 1385.1625,208.7031 Q1385.35,209.4531 1385.7094,209.9688 Q1386.0844,210.4844 1386.6625,210.7656 Q1387.2406,211.0313 1388.0375,211.0313 Q1388.7719,211.0313 1389.5063,210.8594 Q1390.2563,210.6875 1391.1313,210.3906 L1391.1313,212.5469 Q1390.725,212.7031 1390.3344,212.8281 Q1389.9438,212.9375 1389.5375,213.0156 Q1389.1313,213.0938 1388.7094,213.125 Q1388.2875,213.1719 1387.7875,213.1719 Q1386.3813,213.1719 1385.35,212.7188 Q1384.3344,212.2656 1383.6625,211.4531 Q1382.9906,210.6406 1382.6625,209.5 Q1382.3344,208.3438 1382.3344,206.9531 Q1382.3344,205.5781 1382.7094,204.4219 Q1383.0844,203.2656 1383.8031,202.4375 Q1384.5219,201.6094 1385.5844,201.1563 Q1386.6469,200.6875 1388.0375,200.6875 Q1388.9438,200.6875 1389.85,200.9219 Q1390.7563,201.1406 1391.5844,201.5469 L1390.7563,203.6406 Q1390.0688,203.3125 1389.3813,203.0781 Q1388.6938,202.8281 1388.0375,202.8281 Z " fill="#000000"/><text fill="#000000" font-family="sans-serif" font-size="14" lengthAdjust="spacing" textLength="63" x="1403.9" y="211.8467">Comment</text><line style="stroke:#A9A9A9;stroke-width:0.5;" x1="1366" x2="1477" y1="223" y2="223"/><text fill="#000000" font-family="sans-serif" font-size="14" lengthAdjust="spacing" textLength="101" x="1371" y="239.9951">Boolean isJSDoc</text></g><!--class Variable--><g id="elem_Variable"><rect codeLine="41" fill="#CCFFFF" height="32" id="Variable" rx="2.5" ry="2.5" style="stroke:#A9A9A9;stroke-width:0.5;" width="84" x="1323.5" y="459.5"/><ellipse cx="1338.5" cy="475.5" fill="#FFFFFF" rx="11" ry="11" style="stroke:#181818;stroke-width:1.0;"/><path d="M1338.4375,471.3281 Q1337.6875,471.3281 1337.125,471.625 Q1336.5625,471.9063 1336.1719,472.4375 Q1335.7813,472.9688 1335.5781,473.75 Q1335.3906,474.5156 1335.3906,475.4688 Q1335.3906,476.4375 1335.5625,477.2031 Q1335.75,477.9531 1336.1094,478.4688 Q1336.4844,478.9844 1337.0625,479.2656 Q1337.6406,479.5313 1338.4375,479.5313 Q1339.1719,479.5313 1339.9063,479.3594 Q1340.6563,479.1875 1341.5313,478.8906 L1341.5313,481.0469 Q1341.125,481.2031 1340.7344,481.3281 Q1340.3438,481.4375 1339.9375,481.5156 Q1339.5313,481.5938 1339.1094,481.625 Q1338.6875,481.6719 1338.1875,481.6719 Q1336.7813,481.6719 1335.75,481.2188 Q1334.7344,480.7656 1334.0625,479.9531 Q1333.3906,479.1406 1333.0625,478 Q1332.7344,476.8438 1332.7344,475.4531 Q1332.7344,474.0781 1333.1094,472.9219 Q1333.4844,471.7656 1334.2031,470.9375 Q1334.9219,470.1094 1335.9844,469.6563 Q1337.0469,469.1875 1338.4375,469.1875 Q1339.3438,469.1875 1340.25,469.4219 Q1341.1563,469.6406 1341.9844,470.0469 L1341.1563,472.1406 Q1340.4688,471.8125 1339.7813,471.5781 Q1339.0938,471.3281 1338.4375,471.3281 Z " fill="#000000"/><text fill="#000000" font-family="sans-serif" font-size="14" lengthAdjust="spacing" textLength="52" x="1352.5" y="480.3467">Variable</text></g><!--class IndexedFileAnchor--><g id="elem_IndexedFileAnchor"><rect codeLine="43" fill="#CCFFFF" height="32" id="IndexedFileAnchor" rx="2.5" ry="2.5" style="stroke:#A9A9A9;stroke-width:0.5;" width="152" x="3109.5" y="203"/><ellipse cx="3124.5" cy="219" fill="#FFFFFF" rx="11" ry="11" style="stroke:#181818;stroke-width:1.0;"/><path d="M3124.4375,214.8281 Q3123.6875,214.8281 3123.125,215.125 Q3122.5625,215.4063 3122.1719,215.9375 Q3121.7813,216.4688 3121.5781,217.25 Q3121.3906,218.0156 3121.3906,218.9688 Q3121.3906,219.9375 3121.5625,220.7031 Q3121.75,221.4531 3122.1094,221.9688 Q3122.4844,222.4844 3123.0625,222.7656 Q3123.6406,223.0313 3124.4375,223.0313 Q3125.1719,223.0313 3125.9063,222.8594 Q3126.6563,222.6875 3127.5313,222.3906 L3127.5313,224.5469 Q3127.125,224.7031 3126.7344,224.8281 Q3126.3438,224.9375 3125.9375,225.0156 Q3125.5313,225.0938 3125.1094,225.125 Q3124.6875,225.1719 3124.1875,225.1719 Q3122.7813,225.1719 3121.75,224.7188 Q3120.7344,224.2656 3120.0625,223.4531 Q3119.3906,222.6406 3119.0625,221.5 Q3118.7344,220.3438 3118.7344,218.9531 Q3118.7344,217.5781 3119.1094,216.4219 Q3119.4844,215.2656 3120.2031,214.4375 Q3120.9219,213.6094 3121.9844,213.1563 Q3123.0469,212.6875 3124.4375,212.6875 Q3125.3438,212.6875 3126.25,212.9219 Q3127.1563,213.1406 3127.9844,213.5469 L3127.1563,215.6406 Q3126.4688,215.3125 3125.7813,215.0781 Q3125.0938,214.8281 3124.4375,214.8281 Z " fill="#000000"/><text fill="#000000" font-family="sans-serif" font-size="14" lengthAdjust="spacing" textLength="120" x="3138.5" y="223.8467">IndexedFileAnchor</text></g><!--class Concretization--><g id="elem_Concretization"><rect codeLine="45" fill="#CCFFFF" height="32" id="Concretization" rx="2.5" ry="2.5" style="stroke:#A9A9A9;stroke-width:0.5;" width="123" x="1964" y="99"/><ellipse cx="1979" cy="115" fill="#FFFFFF" rx="11" ry="11" style="stroke:#181818;stroke-width:1.0;"/><path d="M1978.9375,110.8281 Q1978.1875,110.8281 1977.625,111.125 Q1977.0625,111.4063 1976.6719,111.9375 Q1976.2813,112.4688 1976.0781,113.25 Q1975.8906,114.0156 1975.8906,114.9688 Q1975.8906,115.9375 1976.0625,116.7031 Q1976.25,117.4531 1976.6094,117.9688 Q1976.9844,118.4844 1977.5625,118.7656 Q1978.1406,119.0313 1978.9375,119.0313 Q1979.6719,119.0313 1980.4063,118.8594 Q1981.1563,118.6875 1982.0313,118.3906 L1982.0313,120.5469 Q1981.625,120.7031 1981.2344,120.8281 Q1980.8438,120.9375 1980.4375,121.0156 Q1980.0313,121.0938 1979.6094,121.125 Q1979.1875,121.1719 1978.6875,121.1719 Q1977.2813,121.1719 1976.25,120.7188 Q1975.2344,120.2656 1974.5625,119.4531 Q1973.8906,118.6406 1973.5625,117.5 Q1973.2344,116.3438 1973.2344,114.9531 Q1973.2344,113.5781 1973.6094,112.4219 Q1973.9844,111.2656 1974.7031,110.4375 Q1975.4219,109.6094 1976.4844,109.1563 Q1977.5469,108.6875 1978.9375,108.6875 Q1979.8438,108.6875 1980.75,108.9219 Q1981.6563,109.1406 1982.4844,109.5469 L1981.6563,111.6406 Q1980.9688,111.3125 1980.2813,111.0781 Q1979.5938,110.8281 1978.9375,110.8281 Z " fill="#000000"/><text fill="#000000" font-family="sans-serif" font-size="14" lengthAdjust="spacing" textLength="91" x="1993" y="119.8467">Concretization</text></g><!--class Entity--><g id="elem_Entity"><rect codeLine="47" fill="#CCFFFF" height="32" id="Entity" rx="2.5" ry="2.5" style="stroke:#A9A9A9;stroke-width:0.5;" width="68" x="2248.5" y="7"/><ellipse cx="2263.5" cy="23" fill="#FFFFFF" rx="11" ry="11" style="stroke:#181818;stroke-width:1.0;"/><path d="M2263.4375,18.8281 Q2262.6875,18.8281 2262.125,19.125 Q2261.5625,19.4063 2261.1719,19.9375 Q2260.7813,20.4688 2260.5781,21.25 Q2260.3906,22.0156 2260.3906,22.9688 Q2260.3906,23.9375 2260.5625,24.7031 Q2260.75,25.4531 2261.1094,25.9688 Q2261.4844,26.4844 2262.0625,26.7656 Q2262.6406,27.0313 2263.4375,27.0313 Q2264.1719,27.0313 2264.9063,26.8594 Q2265.6563,26.6875 2266.5313,26.3906 L2266.5313,28.5469 Q2266.125,28.7031 2265.7344,28.8281 Q2265.3438,28.9375 2264.9375,29.0156 Q2264.5313,29.0938 2264.1094,29.125 Q2263.6875,29.1719 2263.1875,29.1719 Q2261.7813,29.1719 2260.75,28.7188 Q2259.7344,28.2656 2259.0625,27.4531 Q2258.3906,26.6406 2258.0625,25.5 Q2257.7344,24.3438 2257.7344,22.9531 Q2257.7344,21.5781 2258.1094,20.4219 Q2258.4844,19.2656 2259.2031,18.4375 Q2259.9219,17.6094 2260.9844,17.1563 Q2262.0469,16.6875 2263.4375,16.6875 Q2264.3438,16.6875 2265.25,16.9219 Q2266.1563,17.1406 2266.9844,17.5469 L2266.1563,19.6406 Q2265.4688,19.3125 2264.7813,19.0781 Q2264.0938,18.8281 2263.4375,18.8281 Z " fill="#000000"/><text fill="#000000" font-family="sans-serif" font-size="14" lengthAdjust="spacing" textLength="36" x="2277.5" y="27.8467">Entity</text></g><!--class StructuralEntity--><g id="elem_StructuralEntity"><rect codeLine="49" fill="#CCFFFF" height="32" id="StructuralEntity" rx="2.5" ry="2.5" style="stroke:#A9A9A9;stroke-width:0.5;" width="130" x="1476.5" y="319"/><ellipse cx="1491.5" cy="335" fill="#FFFFFF" rx="11" ry="11" style="stroke:#181818;stroke-width:1.0;"/><path d="M1491.4375,330.8281 Q1490.6875,330.8281 1490.125,331.125 Q1489.5625,331.4063 1489.1719,331.9375 Q1488.7813,332.4688 1488.5781,333.25 Q1488.3906,334.0156 1488.3906,334.9688 Q1488.3906,335.9375 1488.5625,336.7031 Q1488.75,337.4531 1489.1094,337.9688 Q1489.4844,338.4844 1490.0625,338.7656 Q1490.6406,339.0313 1491.4375,339.0313 Q1492.1719,339.0313 1492.9063,338.8594 Q1493.6563,338.6875 1494.5313,338.3906 L1494.5313,340.5469 Q1494.125,340.7031 1493.7344,340.8281 Q1493.3438,340.9375 1492.9375,341.0156 Q1492.5313,341.0938 1492.1094,341.125 Q1491.6875,341.1719 1491.1875,341.1719 Q1489.7813,341.1719 1488.75,340.7188 Q1487.7344,340.2656 1487.0625,339.4531 Q1486.3906,338.6406 1486.0625,337.5 Q1485.7344,336.3438 1485.7344,334.9531 Q1485.7344,333.5781 1486.1094,332.4219 Q1486.4844,331.2656 1487.2031,330.4375 Q1487.9219,329.6094 1488.9844,329.1563 Q1490.0469,328.6875 1491.4375,328.6875 Q1492.3438,328.6875 1493.25,328.9219 Q1494.1563,329.1406 1494.9844,329.5469 L1494.1563,331.6406 Q1493.4688,331.3125 1492.7813,331.0781 Q1492.0938,330.8281 1491.4375,330.8281 Z " fill="#000000"/><text fill="#000000" font-family="sans-serif" font-size="14" lengthAdjust="spacing" textLength="98" x="1505.5" y="339.8467">StructuralEntity</text></g><!--class TEntityCreator--><g id="elem_TEntityCreator"><rect codeLine="51" fill="#CCFFFF" height="32" id="TEntityCreator" rx="2.5" ry="2.5" style="stroke:#A9A9A9;stroke-width:0.5;" width="123" x="3215" y="7"/><ellipse cx="3230" cy="23" fill="#FFFFFF" rx="11" ry="11" style="stroke:#181818;stroke-width:1.0;"/><path d="M3231.4531,29.75 L3228.8906,29.75 L3228.8906,19.75 L3225.8438,19.75 L3225.8438,17.6094 L3234.4844,17.6094 L3234.4844,19.75 L3231.4531,19.75 L3231.4531,29.75 Z " fill="#000000"/><text fill="#000000" font-family="sans-serif" font-size="14" lengthAdjust="spacing" textLength="91" x="3244" y="27.8467">TEntityCreator</text></g><!--class Access--><g id="elem_Access"><rect codeLine="53" fill="#CCFFFF" height="32" id="Access" rx="2.5" ry="2.5" style="stroke:#A9A9A9;stroke-width:0.5;" width="73" x="2122" y="99"/><ellipse cx="2137" cy="115" fill="#FFFFFF" rx="11" ry="11" style="stroke:#181818;stroke-width:1.0;"/><path d="M2136.9375,110.8281 Q2136.1875,110.8281 2135.625,111.125 Q2135.0625,111.4063 2134.6719,111.9375 Q2134.2813,112.4688 2134.0781,113.25 Q2133.8906,114.0156 2133.8906,114.9688 Q2133.8906,115.9375 2134.0625,116.7031 Q2134.25,117.4531 2134.6094,117.9688 Q2134.9844,118.4844 2135.5625,118.7656 Q2136.1406,119.0313 2136.9375,119.0313 Q2137.6719,119.0313 2138.4063,118.8594 Q2139.1563,118.6875 2140.0313,118.3906 L2140.0313,120.5469 Q2139.625,120.7031 2139.2344,120.8281 Q2138.8438,120.9375 2138.4375,121.0156 Q2138.0313,121.0938 2137.6094,121.125 Q2137.1875,121.1719 2136.6875,121.1719 Q2135.2813,121.1719 2134.25,120.7188 Q2133.2344,120.2656 2132.5625,119.4531 Q2131.8906,118.6406 2131.5625,117.5 Q2131.2344,116.3438 2131.2344,114.9531 Q2131.2344,113.5781 2131.6094,112.4219 Q2131.9844,111.2656 2132.7031,110.4375 Q2133.4219,109.6094 2134.4844,109.1563 Q2135.5469,108.6875 2136.9375,108.6875 Q2137.8438,108.6875 2138.75,108.9219 Q2139.6563,109.1406 2140.4844,109.5469 L2139.6563,111.6406 Q2138.9688,111.3125 2138.2813,111.0781 Q2137.5938,110.8281 2136.9375,110.8281 Z " fill="#000000"/><text fill="#000000" font-family="sans-serif" font-size="14" lengthAdjust="spacing" textLength="41" x="2151" y="119.8467">Access</text></g><!--class Alias--><g id="elem_Alias"><rect codeLine="55" fill="#CCFFFF" height="32" id="Alias" rx="2.5" ry="2.5" style="stroke:#A9A9A9;stroke-width:0.5;" width="62" x="1641.5" y="319"/><ellipse cx="1656.5" cy="335" fill="#FFFFFF" rx="11" ry="11" style="stroke:#181818;stroke-width:1.0;"/><path d="M1656.4375,330.8281 Q1655.6875,330.8281 1655.125,331.125 Q1654.5625,331.4063 1654.1719,331.9375 Q1653.7813,332.4688 1653.5781,333.25 Q1653.3906,334.0156 1653.3906,334.9688 Q1653.3906,335.9375 1653.5625,336.7031 Q1653.75,337.4531 1654.1094,337.9688 Q1654.4844,338.4844 1655.0625,338.7656 Q1655.6406,339.0313 1656.4375,339.0313 Q1657.1719,339.0313 1657.9063,338.8594 Q1658.6563,338.6875 1659.5313,338.3906 L1659.5313,340.5469 Q1659.125,340.7031 1658.7344,340.8281 Q1658.3438,340.9375 1657.9375,341.0156 Q1657.5313,341.0938 1657.1094,341.125 Q1656.6875,341.1719 1656.1875,341.1719 Q1654.7813,341.1719 1653.75,340.7188 Q1652.7344,340.2656 1652.0625,339.4531 Q1651.3906,338.6406 1651.0625,337.5 Q1650.7344,336.3438 1650.7344,334.9531 Q1650.7344,333.5781 1651.1094,332.4219 Q1651.4844,331.2656 1652.2031,330.4375 Q1652.9219,329.6094 1653.9844,329.1563 Q1655.0469,328.6875 1656.4375,328.6875 Q1657.3438,328.6875 1658.25,328.9219 Q1659.1563,329.1406 1659.9844,329.5469 L1659.1563,331.6406 Q1658.4688,331.3125 1657.7813,331.0781 Q1657.0938,330.8281 1656.4375,330.8281 Z " fill="#000000"/><text fill="#000000" font-family="sans-serif" font-size="14" lengthAdjust="spacing" textLength="30" x="1670.5" y="339.8467">Alias</text></g><!--class FamixTypeScriptModel--><g id="elem_FamixTypeScriptModel"><rect codeLine="57" fill="#CCFFFF" height="32" id="FamixTypeScriptModel" rx="2.5" ry="2.5" style="stroke:#A9A9A9;stroke-width:0.5;" width="176" x="3188.5" y="99"/><ellipse cx="3203.5" cy="115" fill="#FFFFFF" rx="11" ry="11" style="stroke:#181818;stroke-width:1.0;"/><path d="M3203.4375,110.8281 Q3202.6875,110.8281 3202.125,111.125 Q3201.5625,111.4063 3201.1719,111.9375 Q3200.7813,112.4688 3200.5781,113.25 Q3200.3906,114.0156 3200.3906,114.9688 Q3200.3906,115.9375 3200.5625,116.7031 Q3200.75,117.4531 3201.1094,117.9688 Q3201.4844,118.4844 3202.0625,118.7656 Q3202.6406,119.0313 3203.4375,119.0313 Q3204.1719,119.0313 3204.9063,118.8594 Q3205.6563,118.6875 3206.5313,118.3906 L3206.5313,120.5469 Q3206.125,120.7031 3205.7344,120.8281 Q3205.3438,120.9375 3204.9375,121.0156 Q3204.5313,121.0938 3204.1094,121.125 Q3203.6875,121.1719 3203.1875,121.1719 Q3201.7813,121.1719 3200.75,120.7188 Q3199.7344,120.2656 3199.0625,119.4531 Q3198.3906,118.6406 3198.0625,117.5 Q3197.7344,116.3438 3197.7344,114.9531 Q3197.7344,113.5781 3198.1094,112.4219 Q3198.4844,111.2656 3199.2031,110.4375 Q3199.9219,109.6094 3200.9844,109.1563 Q3202.0469,108.6875 3203.4375,108.6875 Q3204.3438,108.6875 3205.25,108.9219 Q3206.1563,109.1406 3206.9844,109.5469 L3206.1563,111.6406 Q3205.4688,111.3125 3204.7813,111.0781 Q3204.0938,110.8281 3203.4375,110.8281 Z " fill="#000000"/><text fill="#000000" font-family="sans-serif" font-size="14" lengthAdjust="spacing" textLength="144" x="3217.5" y="119.8467">FamixTypeScriptModel</text></g><!--class BehaviouralEntity--><g id="elem_BehaviouralEntity"><rect codeLine="59" fill="#CCFFFF" height="32" id="BehaviouralEntity" rx="2.5" ry="2.5" style="stroke:#A9A9A9;stroke-width:0.5;" width="144" x="1026.5" y="459.5"/><ellipse cx="1041.5" cy="475.5" fill="#FFFFFF" rx="11" ry="11" style="stroke:#181818;stroke-width:1.0;"/><path d="M1041.4375,471.3281 Q1040.6875,471.3281 1040.125,471.625 Q1039.5625,471.9063 1039.1719,472.4375 Q1038.7813,472.9688 1038.5781,473.75 Q1038.3906,474.5156 1038.3906,475.4688 Q1038.3906,476.4375 1038.5625,477.2031 Q1038.75,477.9531 1039.1094,478.4688 Q1039.4844,478.9844 1040.0625,479.2656 Q1040.6406,479.5313 1041.4375,479.5313 Q1042.1719,479.5313 1042.9063,479.3594 Q1043.6563,479.1875 1044.5313,478.8906 L1044.5313,481.0469 Q1044.125,481.2031 1043.7344,481.3281 Q1043.3438,481.4375 1042.9375,481.5156 Q1042.5313,481.5938 1042.1094,481.625 Q1041.6875,481.6719 1041.1875,481.6719 Q1039.7813,481.6719 1038.75,481.2188 Q1037.7344,480.7656 1037.0625,479.9531 Q1036.3906,479.1406 1036.0625,478 Q1035.7344,476.8438 1035.7344,475.4531 Q1035.7344,474.0781 1036.1094,472.9219 Q1036.4844,471.7656 1037.2031,470.9375 Q1037.9219,470.1094 1038.9844,469.6563 Q1040.0469,469.1875 1041.4375,469.1875 Q1042.3438,469.1875 1043.25,469.4219 Q1044.1563,469.6406 1044.9844,470.0469 L1044.1563,472.1406 Q1043.4688,471.8125 1042.7813,471.5781 Q1042.0938,471.3281 1041.4375,471.3281 Z " fill="#000000"/><text fill="#000000" font-family="sans-serif" font-size="14" lengthAdjust="spacing" textLength="112" x="1055.5" y="480.3467">BehaviouralEntity</text></g><!--class Inheritance--><g id="elem_Inheritance"><rect codeLine="61" fill="#CCFFFF" height="32" id="Inheritance" rx="2.5" ry="2.5" style="stroke:#A9A9A9;stroke-width:0.5;" width="105" x="2230" y="99"/><ellipse cx="2245" cy="115" fill="#FFFFFF" rx="11" ry="11" style="stroke:#181818;stroke-width:1.0;"/><path d="M2244.9375,110.8281 Q2244.1875,110.8281 2243.625,111.125 Q2243.0625,111.4063 2242.6719,111.9375 Q2242.2813,112.4688 2242.0781,113.25 Q2241.8906,114.0156 2241.8906,114.9688 Q2241.8906,115.9375 2242.0625,116.7031 Q2242.25,117.4531 2242.6094,117.9688 Q2242.9844,118.4844 2243.5625,118.7656 Q2244.1406,119.0313 2244.9375,119.0313 Q2245.6719,119.0313 2246.4063,118.8594 Q2247.1563,118.6875 2248.0313,118.3906 L2248.0313,120.5469 Q2247.625,120.7031 2247.2344,120.8281 Q2246.8438,120.9375 2246.4375,121.0156 Q2246.0313,121.0938 2245.6094,121.125 Q2245.1875,121.1719 2244.6875,121.1719 Q2243.2813,121.1719 2242.25,120.7188 Q2241.2344,120.2656 2240.5625,119.4531 Q2239.8906,118.6406 2239.5625,117.5 Q2239.2344,116.3438 2239.2344,114.9531 Q2239.2344,113.5781 2239.6094,112.4219 Q2239.9844,111.2656 2240.7031,110.4375 Q2241.4219,109.6094 2242.4844,109.1563 Q2243.5469,108.6875 2244.9375,108.6875 Q2245.8438,108.6875 2246.75,108.9219 Q2247.6563,109.1406 2248.4844,109.5469 L2247.6563,111.6406 Q2246.9688,111.3125 2246.2813,111.0781 Q2245.5938,110.8281 2244.9375,110.8281 Z " fill="#000000"/><text fill="#000000" font-family="sans-serif" font-size="14" lengthAdjust="spacing" textLength="73" x="2259" y="119.8467">Inheritance</text></g><!--class Function--><g id="elem_Function"><rect codeLine="63" fill="#CCFFFF" height="32" id="Function" rx="2.5" ry="2.5" style="stroke:#A9A9A9;stroke-width:0.5;" width="86" x="1247.5" y="588"/><ellipse cx="1262.5" cy="604" fill="#FFFFFF" rx="11" ry="11" style="stroke:#181818;stroke-width:1.0;"/><path d="M1262.4375,599.8281 Q1261.6875,599.8281 1261.125,600.125 Q1260.5625,600.4063 1260.1719,600.9375 Q1259.7813,601.4688 1259.5781,602.25 Q1259.3906,603.0156 1259.3906,603.9688 Q1259.3906,604.9375 1259.5625,605.7031 Q1259.75,606.4531 1260.1094,606.9688 Q1260.4844,607.4844 1261.0625,607.7656 Q1261.6406,608.0313 1262.4375,608.0313 Q1263.1719,608.0313 1263.9063,607.8594 Q1264.6563,607.6875 1265.5313,607.3906 L1265.5313,609.5469 Q1265.125,609.7031 1264.7344,609.8281 Q1264.3438,609.9375 1263.9375,610.0156 Q1263.5313,610.0938 1263.1094,610.125 Q1262.6875,610.1719 1262.1875,610.1719 Q1260.7813,610.1719 1259.75,609.7188 Q1258.7344,609.2656 1258.0625,608.4531 Q1257.3906,607.6406 1257.0625,606.5 Q1256.7344,605.3438 1256.7344,603.9531 Q1256.7344,602.5781 1257.1094,601.4219 Q1257.4844,600.2656 1258.2031,599.4375 Q1258.9219,598.6094 1259.9844,598.1563 Q1261.0469,597.6875 1262.4375,597.6875 Q1263.3438,597.6875 1264.25,597.9219 Q1265.1563,598.1406 1265.9844,598.5469 L1265.1563,600.6406 Q1264.4688,600.3125 1263.7813,600.0781 Q1263.0938,599.8281 1262.4375,599.8281 Z " fill="#000000"/><text fill="#000000" font-family="sans-serif" font-size="14" lengthAdjust="spacing" textLength="54" x="1276.5" y="608.8467">Function</text></g><!--class Type--><g id="elem_Type"><rect codeLine="65" fill="#CCFFFF" height="32" id="Type" rx="2.5" ry="2.5" style="stroke:#A9A9A9;stroke-width:0.5;" width="62" x="405.5" y="459.5"/><ellipse cx="420.5" cy="475.5" fill="#FFFFFF" rx="11" ry="11" style="stroke:#181818;stroke-width:1.0;"/><path d="M420.4375,471.3281 Q419.6875,471.3281 419.125,471.625 Q418.5625,471.9063 418.1719,472.4375 Q417.7813,472.9688 417.5781,473.75 Q417.3906,474.5156 417.3906,475.4688 Q417.3906,476.4375 417.5625,477.2031 Q417.75,477.9531 418.1094,478.4688 Q418.4844,478.9844 419.0625,479.2656 Q419.6406,479.5313 420.4375,479.5313 Q421.1719,479.5313 421.9063,479.3594 Q422.6563,479.1875 423.5313,478.8906 L423.5313,481.0469 Q423.125,481.2031 422.7344,481.3281 Q422.3438,481.4375 421.9375,481.5156 Q421.5313,481.5938 421.1094,481.625 Q420.6875,481.6719 420.1875,481.6719 Q418.7813,481.6719 417.75,481.2188 Q416.7344,480.7656 416.0625,479.9531 Q415.3906,479.1406 415.0625,478 Q414.7344,476.8438 414.7344,475.4531 Q414.7344,474.0781 415.1094,472.9219 Q415.4844,471.7656 416.2031,470.9375 Q416.9219,470.1094 417.9844,469.6563 Q419.0469,469.1875 420.4375,469.1875 Q421.3438,469.1875 422.25,469.4219 Q423.1563,469.6406 423.9844,470.0469 L423.1563,472.1406 Q422.4688,471.8125 421.7813,471.5781 Q421.0938,471.3281 420.4375,471.3281 Z " fill="#000000"/><text fill="#000000" font-family="sans-serif" font-size="14" lengthAdjust="spacing" textLength="30" x="434.5" y="480.3467">Type</text></g><!--class ParametricClass--><g id="elem_ParametricClass"><rect codeLine="67" fill="#CCFFFF" height="32" id="ParametricClass" rx="2.5" ry="2.5" style="stroke:#A9A9A9;stroke-width:0.5;" width="133" x="7" y="680"/><ellipse cx="22" cy="696" fill="#FFFFFF" rx="11" ry="11" style="stroke:#181818;stroke-width:1.0;"/><path d="M21.9375,691.8281 Q21.1875,691.8281 20.625,692.125 Q20.0625,692.4063 19.6719,692.9375 Q19.2813,693.4688 19.0781,694.25 Q18.8906,695.0156 18.8906,695.9688 Q18.8906,696.9375 19.0625,697.7031 Q19.25,698.4531 19.6094,698.9688 Q19.9844,699.4844 20.5625,699.7656 Q21.1406,700.0313 21.9375,700.0313 Q22.6719,700.0313 23.4063,699.8594 Q24.1563,699.6875 25.0313,699.3906 L25.0313,701.5469 Q24.625,701.7031 24.2344,701.8281 Q23.8438,701.9375 23.4375,702.0156 Q23.0313,702.0938 22.6094,702.125 Q22.1875,702.1719 21.6875,702.1719 Q20.2813,702.1719 19.25,701.7188 Q18.2344,701.2656 17.5625,700.4531 Q16.8906,699.6406 16.5625,698.5 Q16.2344,697.3438 16.2344,695.9531 Q16.2344,694.5781 16.6094,693.4219 Q16.9844,692.2656 17.7031,691.4375 Q18.4219,690.6094 19.4844,690.1563 Q20.5469,689.6875 21.9375,689.6875 Q22.8438,689.6875 23.75,689.9219 Q24.6563,690.1406 25.4844,690.5469 L24.6563,692.6406 Q23.9688,692.3125 23.2813,692.0781 Q22.5938,691.8281 21.9375,691.8281 Z " fill="#000000"/><text fill="#000000" font-family="sans-serif" font-size="14" lengthAdjust="spacing" textLength="101" x="36" y="700.8467">ParametricClass</text></g><!--class Invocation--><g id="elem_Invocation"><rect codeLine="69" fill="#CCFFFF" height="32" id="Invocation" rx="2.5" ry="2.5" style="stroke:#A9A9A9;stroke-width:0.5;" width="98" x="2370.5" y="99"/><ellipse cx="2385.5" cy="115" fill="#FFFFFF" rx="11" ry="11" style="stroke:#181818;stroke-width:1.0;"/><path d="M2385.4375,110.8281 Q2384.6875,110.8281 2384.125,111.125 Q2383.5625,111.4063 2383.1719,111.9375 Q2382.7813,112.4688 2382.5781,113.25 Q2382.3906,114.0156 2382.3906,114.9688 Q2382.3906,115.9375 2382.5625,116.7031 Q2382.75,117.4531 2383.1094,117.9688 Q2383.4844,118.4844 2384.0625,118.7656 Q2384.6406,119.0313 2385.4375,119.0313 Q2386.1719,119.0313 2386.9063,118.8594 Q2387.6563,118.6875 2388.5313,118.3906 L2388.5313,120.5469 Q2388.125,120.7031 2387.7344,120.8281 Q2387.3438,120.9375 2386.9375,121.0156 Q2386.5313,121.0938 2386.1094,121.125 Q2385.6875,121.1719 2385.1875,121.1719 Q2383.7813,121.1719 2382.75,120.7188 Q2381.7344,120.2656 2381.0625,119.4531 Q2380.3906,118.6406 2380.0625,117.5 Q2379.7344,116.3438 2379.7344,114.9531 Q2379.7344,113.5781 2380.1094,112.4219 Q2380.4844,111.2656 2381.2031,110.4375 Q2381.9219,109.6094 2382.9844,109.1563 Q2384.0469,108.6875 2385.4375,108.6875 Q2386.3438,108.6875 2387.25,108.9219 Q2388.1563,109.1406 2388.9844,109.5469 L2388.1563,111.6406 Q2387.4688,111.3125 2386.7813,111.0781 Q2386.0938,110.8281 2385.4375,110.8281 Z " fill="#000000"/><text fill="#000000" font-family="sans-serif" font-size="14" lengthAdjust="spacing" textLength="66" x="2399.5" y="119.8467">Invocation</text></g><!--class Implementation--><g id="elem_Implementation"><rect codeLine="71" fill="#CCFFFF" height="32" id="Implementation" rx="2.5" ry="2.5" style="stroke:#A9A9A9;stroke-width:0.5;" width="136" x="2503.5" y="99"/><ellipse cx="2518.5" cy="115" fill="#FFFFFF" rx="11" ry="11" style="stroke:#181818;stroke-width:1.0;"/><path d="M2518.4375,110.8281 Q2517.6875,110.8281 2517.125,111.125 Q2516.5625,111.4063 2516.1719,111.9375 Q2515.7813,112.4688 2515.5781,113.25 Q2515.3906,114.0156 2515.3906,114.9688 Q2515.3906,115.9375 2515.5625,116.7031 Q2515.75,117.4531 2516.1094,117.9688 Q2516.4844,118.4844 2517.0625,118.7656 Q2517.6406,119.0313 2518.4375,119.0313 Q2519.1719,119.0313 2519.9063,118.8594 Q2520.6563,118.6875 2521.5313,118.3906 L2521.5313,120.5469 Q2521.125,120.7031 2520.7344,120.8281 Q2520.3438,120.9375 2519.9375,121.0156 Q2519.5313,121.0938 2519.1094,121.125 Q2518.6875,121.1719 2518.1875,121.1719 Q2516.7813,121.1719 2515.75,120.7188 Q2514.7344,120.2656 2514.0625,119.4531 Q2513.3906,118.6406 2513.0625,117.5 Q2512.7344,116.3438 2512.7344,114.9531 Q2512.7344,113.5781 2513.1094,112.4219 Q2513.4844,111.2656 2514.2031,110.4375 Q2514.9219,109.6094 2515.9844,109.1563 Q2517.0469,108.6875 2518.4375,108.6875 Q2519.3438,108.6875 2520.25,108.9219 Q2521.1563,109.1406 2521.9844,109.5469 L2521.1563,111.6406 Q2520.4688,111.3125 2519.7813,111.0781 Q2519.0938,110.8281 2518.4375,110.8281 Z " fill="#000000"/><text fill="#000000" font-family="sans-serif" font-size="14" lengthAdjust="spacing" textLength="104" x="2532.5" y="119.8467">Implementation</text></g><!--class Namespace--><g id="elem_Namespace"><rect codeLine="73" fill="#CCFFFF" height="32" id="Namespace" rx="2.5" ry="2.5" style="stroke:#A9A9A9;stroke-width:0.5;" width="105" x="691" y="588"/><ellipse cx="706" cy="604" fill="#FFFFFF" rx="11" ry="11" style="stroke:#181818;stroke-width:1.0;"/><path d="M705.9375,599.8281 Q705.1875,599.8281 704.625,600.125 Q704.0625,600.4063 703.6719,600.9375 Q703.2813,601.4688 703.0781,602.25 Q702.8906,603.0156 702.8906,603.9688 Q702.8906,604.9375 703.0625,605.7031 Q703.25,606.4531 703.6094,606.9688 Q703.9844,607.4844 704.5625,607.7656 Q705.1406,608.0313 705.9375,608.0313 Q706.6719,608.0313 707.4063,607.8594 Q708.1563,607.6875 709.0313,607.3906 L709.0313,609.5469 Q708.625,609.7031 708.2344,609.8281 Q707.8438,609.9375 707.4375,610.0156 Q707.0313,610.0938 706.6094,610.125 Q706.1875,610.1719 705.6875,610.1719 Q704.2813,610.1719 703.25,609.7188 Q702.2344,609.2656 701.5625,608.4531 Q700.8906,607.6406 700.5625,606.5 Q700.2344,605.3438 700.2344,603.9531 Q700.2344,602.5781 700.6094,601.4219 Q700.9844,600.2656 701.7031,599.4375 Q702.4219,598.6094 703.4844,598.1563 Q704.5469,597.6875 705.9375,597.6875 Q706.8438,597.6875 707.75,597.9219 Q708.6563,598.1406 709.4844,598.5469 L708.6563,600.6406 Q707.9688,600.3125 707.2813,600.0781 Q706.5938,599.8281 705.9375,599.8281 Z " fill="#000000"/><text fill="#000000" font-family="sans-serif" font-size="14" lengthAdjust="spacing" textLength="73" x="720" y="608.8467">Namespace</text></g><!--class JSDoc--><g id="elem_JSDoc"><rect codeLine="75" fill="#CCFFFF" height="32" id="JSDoc" rx="2.5" ry="2.5" style="stroke:#A9A9A9;stroke-width:0.5;" width="67" x="1513" y="203"/><ellipse cx="1528" cy="219" fill="#FFFFFF" rx="11" ry="11" style="stroke:#181818;stroke-width:1.0;"/><path d="M1527.9375,214.8281 Q1527.1875,214.8281 1526.625,215.125 Q1526.0625,215.4063 1525.6719,215.9375 Q1525.2813,216.4688 1525.0781,217.25 Q1524.8906,218.0156 1524.8906,218.9688 Q1524.8906,219.9375 1525.0625,220.7031 Q1525.25,221.4531 1525.6094,221.9688 Q1525.9844,222.4844 1526.5625,222.7656 Q1527.1406,223.0313 1527.9375,223.0313 Q1528.6719,223.0313 1529.4063,222.8594 Q1530.1563,222.6875 1531.0313,222.3906 L1531.0313,224.5469 Q1530.625,224.7031 1530.2344,224.8281 Q1529.8438,224.9375 1529.4375,225.0156 Q1529.0313,225.0938 1528.6094,225.125 Q1528.1875,225.1719 1527.6875,225.1719 Q1526.2813,225.1719 1525.25,224.7188 Q1524.2344,224.2656 1523.5625,223.4531 Q1522.8906,222.6406 1522.5625,221.5 Q1522.2344,220.3438 1522.2344,218.9531 Q1522.2344,217.5781 1522.6094,216.4219 Q1522.9844,215.2656 1523.7031,214.4375 Q1524.4219,213.6094 1525.4844,213.1563 Q1526.5469,212.6875 1527.9375,212.6875 Q1528.8438,212.6875 1529.75,212.9219 Q1530.6563,213.1406 1531.4844,213.5469 L1530.6563,215.6406 Q1529.9688,215.3125 1529.2813,215.0781 Q1528.5938,214.8281 1527.9375,214.8281 Z " fill="#000000"/><text fill="#000000" font-family="sans-serif" font-size="14" lengthAdjust="spacing" textLength="35" x="1542" y="223.8467">JSDoc</text></g><!--class ParametricFunction--><g id="elem_ParametricFunction"><rect codeLine="77" fill="#CCFFFF" height="32" id="ParametricFunction" rx="2.5" ry="2.5" style="stroke:#A9A9A9;stroke-width:0.5;" width="156" x="1320.5" y="680"/><ellipse cx="1335.5" cy="696" fill="#FFFFFF" rx="11" ry="11" style="stroke:#181818;stroke-width:1.0;"/><path d="M1335.4375,691.8281 Q1334.6875,691.8281 1334.125,692.125 Q1333.5625,692.4063 1333.1719,692.9375 Q1332.7813,693.4688 1332.5781,694.25 Q1332.3906,695.0156 1332.3906,695.9688 Q1332.3906,696.9375 1332.5625,697.7031 Q1332.75,698.4531 1333.1094,698.9688 Q1333.4844,699.4844 1334.0625,699.7656 Q1334.6406,700.0313 1335.4375,700.0313 Q1336.1719,700.0313 1336.9063,699.8594 Q1337.6563,699.6875 1338.5313,699.3906 L1338.5313,701.5469 Q1338.125,701.7031 1337.7344,701.8281 Q1337.3438,701.9375 1336.9375,702.0156 Q1336.5313,702.0938 1336.1094,702.125 Q1335.6875,702.1719 1335.1875,702.1719 Q1333.7813,702.1719 1332.75,701.7188 Q1331.7344,701.2656 1331.0625,700.4531 Q1330.3906,699.6406 1330.0625,698.5 Q1329.7344,697.3438 1329.7344,695.9531 Q1329.7344,694.5781 1330.1094,693.4219 Q1330.4844,692.2656 1331.2031,691.4375 Q1331.9219,690.6094 1332.9844,690.1563 Q1334.0469,689.6875 1335.4375,689.6875 Q1336.3438,689.6875 1337.25,689.9219 Q1338.1563,690.1406 1338.9844,690.5469 L1338.1563,692.6406 Q1337.4688,692.3125 1336.7813,692.0781 Q1336.0938,691.8281 1335.4375,691.8281 Z " fill="#000000"/><text fill="#000000" font-family="sans-serif" font-size="14" lengthAdjust="spacing" textLength="124" x="1349.5" y="700.8467">ParametricFunction</text></g><!--class Accessor--><g id="elem_Accessor"><rect codeLine="79" fill="#CCFFFF" height="32" id="Accessor" rx="2.5" ry="2.5" style="stroke:#A9A9A9;stroke-width:0.5;" width="87" x="968" y="680"/><ellipse cx="983" cy="696" fill="#FFFFFF" rx="11" ry="11" style="stroke:#181818;stroke-width:1.0;"/><path d="M982.9375,691.8281 Q982.1875,691.8281 981.625,692.125 Q981.0625,692.4063 980.6719,692.9375 Q980.2813,693.4688 980.0781,694.25 Q979.8906,695.0156 979.8906,695.9688 Q979.8906,696.9375 980.0625,697.7031 Q980.25,698.4531 980.6094,698.9688 Q980.9844,699.4844 981.5625,699.7656 Q982.1406,700.0313 982.9375,700.0313 Q983.6719,700.0313 984.4063,699.8594 Q985.1563,699.6875 986.0313,699.3906 L986.0313,701.5469 Q985.625,701.7031 985.2344,701.8281 Q984.8438,701.9375 984.4375,702.0156 Q984.0313,702.0938 983.6094,702.125 Q983.1875,702.1719 982.6875,702.1719 Q981.2813,702.1719 980.25,701.7188 Q979.2344,701.2656 978.5625,700.4531 Q977.8906,699.6406 977.5625,698.5 Q977.2344,697.3438 977.2344,695.9531 Q977.2344,694.5781 977.6094,693.4219 Q977.9844,692.2656 978.7031,691.4375 Q979.4219,690.6094 980.4844,690.1563 Q981.5469,689.6875 982.9375,689.6875 Q983.8438,689.6875 984.75,689.9219 Q985.6563,690.1406 986.4844,690.5469 L985.6563,692.6406 Q984.9688,692.3125 984.2813,692.0781 Q983.5938,691.8281 982.9375,691.8281 Z " fill="#000000"/><text fill="#000000" font-family="sans-serif" font-size="14" lengthAdjust="spacing" textLength="55" x="997" y="700.8467">Accessor</text></g><!--class Folder--><g id="elem_Folder"><rect codeLine="81" fill="#CCFFFF" height="32" id="Folder" rx="2.5" ry="2.5" style="stroke:#A9A9A9;stroke-width:0.5;" width="73" x="1739" y="319"/><ellipse cx="1754" cy="335" fill="#FFFFFF" rx="11" ry="11" style="stroke:#181818;stroke-width:1.0;"/><path d="M1753.9375,330.8281 Q1753.1875,330.8281 1752.625,331.125 Q1752.0625,331.4063 1751.6719,331.9375 Q1751.2813,332.4688 1751.0781,333.25 Q1750.8906,334.0156 1750.8906,334.9688 Q1750.8906,335.9375 1751.0625,336.7031 Q1751.25,337.4531 1751.6094,337.9688 Q1751.9844,338.4844 1752.5625,338.7656 Q1753.1406,339.0313 1753.9375,339.0313 Q1754.6719,339.0313 1755.4063,338.8594 Q1756.1563,338.6875 1757.0313,338.3906 L1757.0313,340.5469 Q1756.625,340.7031 1756.2344,340.8281 Q1755.8438,340.9375 1755.4375,341.0156 Q1755.0313,341.0938 1754.6094,341.125 Q1754.1875,341.1719 1753.6875,341.1719 Q1752.2813,341.1719 1751.25,340.7188 Q1750.2344,340.2656 1749.5625,339.4531 Q1748.8906,338.6406 1748.5625,337.5 Q1748.2344,336.3438 1748.2344,334.9531 Q1748.2344,333.5781 1748.6094,332.4219 Q1748.9844,331.2656 1749.7031,330.4375 Q1750.4219,329.6094 1751.4844,329.1563 Q1752.5469,328.6875 1753.9375,328.6875 Q1754.8438,328.6875 1755.75,328.9219 Q1756.6563,329.1406 1757.4844,329.5469 L1756.6563,331.6406 Q1755.9688,331.3125 1755.2813,331.0781 Q1754.5938,330.8281 1753.9375,330.8281 Z " fill="#000000"/><text fill="#000000" font-family="sans-serif" font-size="14" lengthAdjust="spacing" textLength="41" x="1768" y="339.8467">Folder</text></g><!--class ParameterType--><g id="elem_ParameterType"><rect codeLine="83" fill="#CCFFFF" height="32" id="ParameterType" rx="2.5" ry="2.5" style="stroke:#A9A9A9;stroke-width:0.5;" width="130" x="140.5" y="588"/><ellipse cx="155.5" cy="604" fill="#FFFFFF" rx="11" ry="11" style="stroke:#181818;stroke-width:1.0;"/><path d="M155.4375,599.8281 Q154.6875,599.8281 154.125,600.125 Q153.5625,600.4063 153.1719,600.9375 Q152.7813,601.4688 152.5781,602.25 Q152.3906,603.0156 152.3906,603.9688 Q152.3906,604.9375 152.5625,605.7031 Q152.75,606.4531 153.1094,606.9688 Q153.4844,607.4844 154.0625,607.7656 Q154.6406,608.0313 155.4375,608.0313 Q156.1719,608.0313 156.9063,607.8594 Q157.6563,607.6875 158.5313,607.3906 L158.5313,609.5469 Q158.125,609.7031 157.7344,609.8281 Q157.3438,609.9375 156.9375,610.0156 Q156.5313,610.0938 156.1094,610.125 Q155.6875,610.1719 155.1875,610.1719 Q153.7813,610.1719 152.75,609.7188 Q151.7344,609.2656 151.0625,608.4531 Q150.3906,607.6406 150.0625,606.5 Q149.7344,605.3438 149.7344,603.9531 Q149.7344,602.5781 150.1094,601.4219 Q150.4844,600.2656 151.2031,599.4375 Q151.9219,598.6094 152.9844,598.1563 Q154.0469,597.6875 155.4375,597.6875 Q156.3438,597.6875 157.25,597.9219 Q158.1563,598.1406 158.9844,598.5469 L158.1563,600.6406 Q157.4688,600.3125 156.7813,600.0781 Q156.0938,599.8281 155.4375,599.8281 Z " fill="#000000"/><text fill="#000000" font-family="sans-serif" font-size="14" lengthAdjust="spacing" textLength="98" x="169.5" y="608.8467">ParameterType</text></g><!--class TClassMetrics--><g id="elem_TClassMetrics"><rect codeLine="85" fill="#CCFFFF" height="32" id="TClassMetrics" rx="2.5" ry="2.5" style="stroke:#A9A9A9;stroke-width:0.5;" width="117" x="15" y="459.5"/><ellipse cx="30" cy="475.5" fill="#FFFFFF" rx="11" ry="11" style="stroke:#181818;stroke-width:1.0;"/><path d="M31.4531,482.25 L28.8906,482.25 L28.8906,472.25 L25.8438,472.25 L25.8438,470.1094 L34.4844,470.1094 L34.4844,472.25 L31.4531,472.25 L31.4531,482.25 Z " fill="#000000"/><text fill="#000000" font-family="sans-serif" font-size="14" lengthAdjust="spacing" textLength="85" x="44" y="480.3467">TClassMetrics</text></g><!--class Class--><g id="elem_Class"><rect codeLine="87" fill="#CCFFFF" height="32" id="Class" rx="2.5" ry="2.5" style="stroke:#A9A9A9;stroke-width:0.5;" width="63" x="42" y="588"/><ellipse cx="57" cy="604" fill="#FFFFFF" rx="11" ry="11" style="stroke:#181818;stroke-width:1.0;"/><path d="M56.9375,599.8281 Q56.1875,599.8281 55.625,600.125 Q55.0625,600.4063 54.6719,600.9375 Q54.2813,601.4688 54.0781,602.25 Q53.8906,603.0156 53.8906,603.9688 Q53.8906,604.9375 54.0625,605.7031 Q54.25,606.4531 54.6094,606.9688 Q54.9844,607.4844 55.5625,607.7656 Q56.1406,608.0313 56.9375,608.0313 Q57.6719,608.0313 58.4063,607.8594 Q59.1563,607.6875 60.0313,607.3906 L60.0313,609.5469 Q59.625,609.7031 59.2344,609.8281 Q58.8438,609.9375 58.4375,610.0156 Q58.0313,610.0938 57.6094,610.125 Q57.1875,610.1719 56.6875,610.1719 Q55.2813,610.1719 54.25,609.7188 Q53.2344,609.2656 52.5625,608.4531 Q51.8906,607.6406 51.5625,606.5 Q51.2344,605.3438 51.2344,603.9531 Q51.2344,602.5781 51.6094,601.4219 Q51.9844,600.2656 52.7031,599.4375 Q53.4219,598.6094 54.4844,598.1563 Q55.5469,597.6875 56.9375,597.6875 Q57.8438,597.6875 58.75,597.9219 Q59.6563,598.1406 60.4844,598.5469 L59.6563,600.6406 Q58.9688,600.3125 58.2813,600.0781 Q57.5938,599.8281 56.9375,599.8281 Z " fill="#000000"/><text fill="#000000" font-family="sans-serif" font-size="14" lengthAdjust="spacing" textLength="31" x="71" y="608.8467">Class</text></g><!--class Property--><g id="elem_Property"><rect codeLine="89" fill="#CCFFFF" height="105.1875" id="Property" rx="2.5" ry="2.5" style="stroke:#A9A9A9;stroke-width:0.5;" width="197" x="1443" y="423"/><ellipse cx="1509.25" cy="439" fill="#FFFFFF" rx="11" ry="11" style="stroke:#181818;stroke-width:1.0;"/><path d="M1509.1875,434.8281 Q1508.4375,434.8281 1507.875,435.125 Q1507.3125,435.4063 1506.9219,435.9375 Q1506.5313,436.4688 1506.3281,437.25 Q1506.1406,438.0156 1506.1406,438.9688 Q1506.1406,439.9375 1506.3125,440.7031 Q1506.5,441.4531 1506.8594,441.9688 Q1507.2344,442.4844 1507.8125,442.7656 Q1508.3906,443.0313 1509.1875,443.0313 Q1509.9219,443.0313 1510.6563,442.8594 Q1511.4063,442.6875 1512.2813,442.3906 L1512.2813,444.5469 Q1511.875,444.7031 1511.4844,444.8281 Q1511.0938,444.9375 1510.6875,445.0156 Q1510.2813,445.0938 1509.8594,445.125 Q1509.4375,445.1719 1508.9375,445.1719 Q1507.5313,445.1719 1506.5,444.7188 Q1505.4844,444.2656 1504.8125,443.4531 Q1504.1406,442.6406 1503.8125,441.5 Q1503.4844,440.3438 1503.4844,438.9531 Q1503.4844,437.5781 1503.8594,436.4219 Q1504.2344,435.2656 1504.9531,434.4375 Q1505.6719,433.6094 1506.7344,433.1563 Q1507.7969,432.6875 1509.1875,432.6875 Q1510.0938,432.6875 1511,432.9219 Q1511.9063,433.1406 1512.7344,433.5469 L1511.9063,435.6406 Q1511.2188,435.3125 1510.5313,435.0781 Q1509.8438,434.8281 1509.1875,434.8281 Z " fill="#000000"/><text fill="#000000" font-family="sans-serif" font-size="14" lengthAdjust="spacing" textLength="56" x="1529.75" y="443.8467">Property</text><line style="stroke:#A9A9A9;stroke-width:0.5;" x1="1444" x2="1639" y1="455" y2="455"/><text fill="#000000" font-family="sans-serif" font-size="14" lengthAdjust="spacing" textLength="114" x="1449" y="471.9951">Boolean readOnly</text><text fill="#000000" font-family="sans-serif" font-size="14" lengthAdjust="spacing" textLength="172" x="1449" y="488.292">Boolean isJavaScriptPrivate</text><text fill="#000000" font-family="sans-serif" font-size="14" lengthAdjust="spacing" textLength="185" x="1449" y="504.5889">Boolean isDefinitelyAssigned</text><text fill="#000000" font-family="sans-serif" font-size="14" lengthAdjust="spacing" textLength="120" x="1449" y="520.8857">Boolean isOptional</text></g><!--class NamedEntity--><g id="elem_NamedEntity"><rect codeLine="95" fill="#CCFFFF" height="32" id="NamedEntity" rx="2.5" ry="2.5" style="stroke:#A9A9A9;stroke-width:0.5;" width="114" x="1615.5" y="203"/><ellipse cx="1630.5" cy="219" fill="#FFFFFF" rx="11" ry="11" style="stroke:#181818;stroke-width:1.0;"/><path d="M1630.4375,214.8281 Q1629.6875,214.8281 1629.125,215.125 Q1628.5625,215.4063 1628.1719,215.9375 Q1627.7813,216.4688 1627.5781,217.25 Q1627.3906,218.0156 1627.3906,218.9688 Q1627.3906,219.9375 1627.5625,220.7031 Q1627.75,221.4531 1628.1094,221.9688 Q1628.4844,222.4844 1629.0625,222.7656 Q1629.6406,223.0313 1630.4375,223.0313 Q1631.1719,223.0313 1631.9063,222.8594 Q1632.6563,222.6875 1633.5313,222.3906 L1633.5313,224.5469 Q1633.125,224.7031 1632.7344,224.8281 Q1632.3438,224.9375 1631.9375,225.0156 Q1631.5313,225.0938 1631.1094,225.125 Q1630.6875,225.1719 1630.1875,225.1719 Q1628.7813,225.1719 1627.75,224.7188 Q1626.7344,224.2656 1626.0625,223.4531 Q1625.3906,222.6406 1625.0625,221.5 Q1624.7344,220.3438 1624.7344,218.9531 Q1624.7344,217.5781 1625.1094,216.4219 Q1625.4844,215.2656 1626.2031,214.4375 Q1626.9219,213.6094 1627.9844,213.1563 Q1629.0469,212.6875 1630.4375,212.6875 Q1631.3438,212.6875 1632.25,212.9219 Q1633.1563,213.1406 1633.9844,213.5469 L1633.1563,215.6406 Q1632.4688,215.3125 1631.7813,215.0781 Q1631.0938,214.8281 1630.4375,214.8281 Z " fill="#000000"/><text fill="#000000" font-family="sans-serif" font-size="14" lengthAdjust="spacing" textLength="82" x="1644.5" y="223.8467">NamedEntity</text></g><!--class ParametricArrowFunction--><g id="elem_ParametricArrowFunction"><rect codeLine="97" fill="#CCFFFF" height="32" id="ParametricArrowFunction" rx="2.5" ry="2.5" style="stroke:#A9A9A9;stroke-width:0.5;" width="195" x="1090" y="680"/><ellipse cx="1105" cy="696" fill="#FFFFFF" rx="11" ry="11" style="stroke:#181818;stroke-width:1.0;"/><path d="M1104.9375,691.8281 Q1104.1875,691.8281 1103.625,692.125 Q1103.0625,692.4063 1102.6719,692.9375 Q1102.2813,693.4688 1102.0781,694.25 Q1101.8906,695.0156 1101.8906,695.9688 Q1101.8906,696.9375 1102.0625,697.7031 Q1102.25,698.4531 1102.6094,698.9688 Q1102.9844,699.4844 1103.5625,699.7656 Q1104.1406,700.0313 1104.9375,700.0313 Q1105.6719,700.0313 1106.4063,699.8594 Q1107.1563,699.6875 1108.0313,699.3906 L1108.0313,701.5469 Q1107.625,701.7031 1107.2344,701.8281 Q1106.8438,701.9375 1106.4375,702.0156 Q1106.0313,702.0938 1105.6094,702.125 Q1105.1875,702.1719 1104.6875,702.1719 Q1103.2813,702.1719 1102.25,701.7188 Q1101.2344,701.2656 1100.5625,700.4531 Q1099.8906,699.6406 1099.5625,698.5 Q1099.2344,697.3438 1099.2344,695.9531 Q1099.2344,694.5781 1099.6094,693.4219 Q1099.9844,692.2656 1100.7031,691.4375 Q1101.4219,690.6094 1102.4844,690.1563 Q1103.5469,689.6875 1104.9375,689.6875 Q1105.8438,689.6875 1106.75,689.9219 Q1107.6563,690.1406 1108.4844,690.5469 L1107.6563,692.6406 Q1106.9688,692.3125 1106.2813,692.0781 Q1105.5938,691.8281 1104.9375,691.8281 Z " fill="#000000"/><text fill="#000000" font-family="sans-serif" font-size="14" lengthAdjust="spacing" textLength="163" x="1119" y="700.8467">ParametricArrowFunction</text></g><!--class ParameterConcretization--><g id="elem_ParameterConcretization"><rect codeLine="99" fill="#CCFFFF" height="32" id="ParameterConcretization" rx="2.5" ry="2.5" style="stroke:#A9A9A9;stroke-width:0.5;" width="191" x="2675" y="99"/><ellipse cx="2690" cy="115" fill="#FFFFFF" rx="11" ry="11" style="stroke:#181818;stroke-width:1.0;"/><path d="M2689.9375,110.8281 Q2689.1875,110.8281 2688.625,111.125 Q2688.0625,111.4063 2687.6719,111.9375 Q2687.2813,112.4688 2687.0781,113.25 Q2686.8906,114.0156 2686.8906,114.9688 Q2686.8906,115.9375 2687.0625,116.7031 Q2687.25,117.4531 2687.6094,117.9688 Q2687.9844,118.4844 2688.5625,118.7656 Q2689.1406,119.0313 2689.9375,119.0313 Q2690.6719,119.0313 2691.4063,118.8594 Q2692.1563,118.6875 2693.0313,118.3906 L2693.0313,120.5469 Q2692.625,120.7031 2692.2344,120.8281 Q2691.8438,120.9375 2691.4375,121.0156 Q2691.0313,121.0938 2690.6094,121.125 Q2690.1875,121.1719 2689.6875,121.1719 Q2688.2813,121.1719 2687.25,120.7188 Q2686.2344,120.2656 2685.5625,119.4531 Q2684.8906,118.6406 2684.5625,117.5 Q2684.2344,116.3438 2684.2344,114.9531 Q2684.2344,113.5781 2684.6094,112.4219 Q2684.9844,111.2656 2685.7031,110.4375 Q2686.4219,109.6094 2687.4844,109.1563 Q2688.5469,108.6875 2689.9375,108.6875 Q2690.8438,108.6875 2691.75,108.9219 Q2692.6563,109.1406 2693.4844,109.5469 L2692.6563,111.6406 Q2691.9688,111.3125 2691.2813,111.0781 Q2690.5938,110.8281 2689.9375,110.8281 Z " fill="#000000"/><text fill="#000000" font-family="sans-serif" font-size="14" lengthAdjust="spacing" textLength="159" x="2704" y="119.8467">ParameterConcretization</text></g><!--class Reference--><g id="elem_Reference"><rect codeLine="101" fill="#CCFFFF" height="32" id="Reference" rx="2.5" ry="2.5" style="stroke:#A9A9A9;stroke-width:0.5;" width="97" x="2901" y="99"/><ellipse cx="2916" cy="115" fill="#FFFFFF" rx="11" ry="11" style="stroke:#181818;stroke-width:1.0;"/><path d="M2915.9375,110.8281 Q2915.1875,110.8281 2914.625,111.125 Q2914.0625,111.4063 2913.6719,111.9375 Q2913.2813,112.4688 2913.0781,113.25 Q2912.8906,114.0156 2912.8906,114.9688 Q2912.8906,115.9375 2913.0625,116.7031 Q2913.25,117.4531 2913.6094,117.9688 Q2913.9844,118.4844 2914.5625,118.7656 Q2915.1406,119.0313 2915.9375,119.0313 Q2916.6719,119.0313 2917.4063,118.8594 Q2918.1563,118.6875 2919.0313,118.3906 L2919.0313,120.5469 Q2918.625,120.7031 2918.2344,120.8281 Q2917.8438,120.9375 2917.4375,121.0156 Q2917.0313,121.0938 2916.6094,121.125 Q2916.1875,121.1719 2915.6875,121.1719 Q2914.2813,121.1719 2913.25,120.7188 Q2912.2344,120.2656 2911.5625,119.4531 Q2910.8906,118.6406 2910.5625,117.5 Q2910.2344,116.3438 2910.2344,114.9531 Q2910.2344,113.5781 2910.6094,112.4219 Q2910.9844,111.2656 2911.7031,110.4375 Q2912.4219,109.6094 2913.4844,109.1563 Q2914.5469,108.6875 2915.9375,108.6875 Q2916.8438,108.6875 2917.75,108.9219 Q2918.6563,109.1406 2919.4844,109.5469 L2918.6563,111.6406 Q2917.9688,111.3125 2917.2813,111.0781 Q2916.5938,110.8281 2915.9375,110.8281 Z " fill="#000000"/><text fill="#000000" font-family="sans-serif" font-size="14" lengthAdjust="spacing" textLength="65" x="2930" y="119.8467">Reference</text></g><!--class Module--><g id="elem_Module"><rect codeLine="103" fill="#CCFFFF" height="32" id="Module" rx="2.5" ry="2.5" style="stroke:#A9A9A9;stroke-width:0.5;" width="80" x="666.5" y="680"/><ellipse cx="681.5" cy="696" fill="#FFFFFF" rx="11" ry="11" style="stroke:#181818;stroke-width:1.0;"/><path d="M681.4375,691.8281 Q680.6875,691.8281 680.125,692.125 Q679.5625,692.4063 679.1719,692.9375 Q678.7813,693.4688 678.5781,694.25 Q678.3906,695.0156 678.3906,695.9688 Q678.3906,696.9375 678.5625,697.7031 Q678.75,698.4531 679.1094,698.9688 Q679.4844,699.4844 680.0625,699.7656 Q680.6406,700.0313 681.4375,700.0313 Q682.1719,700.0313 682.9063,699.8594 Q683.6563,699.6875 684.5313,699.3906 L684.5313,701.5469 Q684.125,701.7031 683.7344,701.8281 Q683.3438,701.9375 682.9375,702.0156 Q682.5313,702.0938 682.1094,702.125 Q681.6875,702.1719 681.1875,702.1719 Q679.7813,702.1719 678.75,701.7188 Q677.7344,701.2656 677.0625,700.4531 Q676.3906,699.6406 676.0625,698.5 Q675.7344,697.3438 675.7344,695.9531 Q675.7344,694.5781 676.1094,693.4219 Q676.4844,692.2656 677.2031,691.4375 Q677.9219,690.6094 678.9844,690.1563 Q680.0469,689.6875 681.4375,689.6875 Q682.3438,689.6875 683.25,689.9219 Q684.1563,690.1406 684.9844,690.5469 L684.1563,692.6406 Q683.4688,692.3125 682.7813,692.0781 Q682.0938,691.8281 681.4375,691.8281 Z " fill="#000000"/><text fill="#000000" font-family="sans-serif" font-size="14" lengthAdjust="spacing" textLength="48" x="695.5" y="700.8467">Module</text></g><!--class ParametricMethod--><g id="elem_ParametricMethod"><rect codeLine="105" fill="#CCFFFF" height="32" id="ParametricMethod" rx="2.5" ry="2.5" style="stroke:#A9A9A9;stroke-width:0.5;" width="151" x="782" y="680"/><ellipse cx="797" cy="696" fill="#FFFFFF" rx="11" ry="11" style="stroke:#181818;stroke-width:1.0;"/><path d="M796.9375,691.8281 Q796.1875,691.8281 795.625,692.125 Q795.0625,692.4063 794.6719,692.9375 Q794.2813,693.4688 794.0781,694.25 Q793.8906,695.0156 793.8906,695.9688 Q793.8906,696.9375 794.0625,697.7031 Q794.25,698.4531 794.6094,698.9688 Q794.9844,699.4844 795.5625,699.7656 Q796.1406,700.0313 796.9375,700.0313 Q797.6719,700.0313 798.4063,699.8594 Q799.1563,699.6875 800.0313,699.3906 L800.0313,701.5469 Q799.625,701.7031 799.2344,701.8281 Q798.8438,701.9375 798.4375,702.0156 Q798.0313,702.0938 797.6094,702.125 Q797.1875,702.1719 796.6875,702.1719 Q795.2813,702.1719 794.25,701.7188 Q793.2344,701.2656 792.5625,700.4531 Q791.8906,699.6406 791.5625,698.5 Q791.2344,697.3438 791.2344,695.9531 Q791.2344,694.5781 791.6094,693.4219 Q791.9844,692.2656 792.7031,691.4375 Q793.4219,690.6094 794.4844,690.1563 Q795.5469,689.6875 796.9375,689.6875 Q797.8438,689.6875 798.75,689.9219 Q799.6563,690.1406 800.4844,690.5469 L799.6563,692.6406 Q798.9688,692.3125 798.2813,692.0781 Q797.5938,691.8281 796.9375,691.8281 Z " fill="#000000"/><text fill="#000000" font-family="sans-serif" font-size="14" lengthAdjust="spacing" textLength="119" x="811" y="700.8467">ParametricMethod</text></g><!--class EnumValue--><g id="elem_EnumValue"><rect codeLine="107" fill="#CCFFFF" height="32" id="EnumValue" rx="2.5" ry="2.5" style="stroke:#A9A9A9;stroke-width:0.5;" width="103" x="1675" y="459.5"/><ellipse cx="1690" cy="475.5" fill="#FFFFFF" rx="11" ry="11" style="stroke:#181818;stroke-width:1.0;"/><path d="M1689.9375,471.3281 Q1689.1875,471.3281 1688.625,471.625 Q1688.0625,471.9063 1687.6719,472.4375 Q1687.2813,472.9688 1687.0781,473.75 Q1686.8906,474.5156 1686.8906,475.4688 Q1686.8906,476.4375 1687.0625,477.2031 Q1687.25,477.9531 1687.6094,478.4688 Q1687.9844,478.9844 1688.5625,479.2656 Q1689.1406,479.5313 1689.9375,479.5313 Q1690.6719,479.5313 1691.4063,479.3594 Q1692.1563,479.1875 1693.0313,478.8906 L1693.0313,481.0469 Q1692.625,481.2031 1692.2344,481.3281 Q1691.8438,481.4375 1691.4375,481.5156 Q1691.0313,481.5938 1690.6094,481.625 Q1690.1875,481.6719 1689.6875,481.6719 Q1688.2813,481.6719 1687.25,481.2188 Q1686.2344,480.7656 1685.5625,479.9531 Q1684.8906,479.1406 1684.5625,478 Q1684.2344,476.8438 1684.2344,475.4531 Q1684.2344,474.0781 1684.6094,472.9219 Q1684.9844,471.7656 1685.7031,470.9375 Q1686.4219,470.1094 1687.4844,469.6563 Q1688.5469,469.1875 1689.9375,469.1875 Q1690.8438,469.1875 1691.75,469.4219 Q1692.6563,469.6406 1693.4844,470.0469 L1692.6563,472.1406 Q1691.9688,471.8125 1691.2813,471.5781 Q1690.5938,471.3281 1689.9375,471.3281 Z " fill="#000000"/><text fill="#000000" font-family="sans-serif" font-size="14" lengthAdjust="spacing" textLength="71" x="1704" y="480.3467">EnumValue</text></g><!--class Method--><g id="elem_Method"><rect codeLine="109" fill="#CCFFFF" height="32" id="Method" rx="2.5" ry="2.5" style="stroke:#A9A9A9;stroke-width:0.5;" width="81" x="971" y="588"/><ellipse cx="986" cy="604" fill="#FFFFFF" rx="11" ry="11" style="stroke:#181818;stroke-width:1.0;"/><path d="M985.9375,599.8281 Q985.1875,599.8281 984.625,600.125 Q984.0625,600.4063 983.6719,600.9375 Q983.2813,601.4688 983.0781,602.25 Q982.8906,603.0156 982.8906,603.9688 Q982.8906,604.9375 983.0625,605.7031 Q983.25,606.4531 983.6094,606.9688 Q983.9844,607.4844 984.5625,607.7656 Q985.1406,608.0313 985.9375,608.0313 Q986.6719,608.0313 987.4063,607.8594 Q988.1563,607.6875 989.0313,607.3906 L989.0313,609.5469 Q988.625,609.7031 988.2344,609.8281 Q987.8438,609.9375 987.4375,610.0156 Q987.0313,610.0938 986.6094,610.125 Q986.1875,610.1719 985.6875,610.1719 Q984.2813,610.1719 983.25,609.7188 Q982.2344,609.2656 981.5625,608.4531 Q980.8906,607.6406 980.5625,606.5 Q980.2344,605.3438 980.2344,603.9531 Q980.2344,602.5781 980.6094,601.4219 Q980.9844,600.2656 981.7031,599.4375 Q982.4219,598.6094 983.4844,598.1563 Q984.5469,597.6875 985.9375,597.6875 Q986.8438,597.6875 987.75,597.9219 Q988.6563,598.1406 989.4844,598.5469 L988.6563,600.6406 Q987.9688,600.3125 987.2813,600.0781 Q986.5938,599.8281 985.9375,599.8281 Z " fill="#000000"/><text fill="#000000" font-family="sans-serif" font-size="14" lengthAdjust="spacing" textLength="49" x="1000" y="608.8467">Method</text></g><!--class SourceAnchor--><g id="elem_SourceAnchor"><rect codeLine="111" fill="#CCFFFF" height="32" id="SourceAnchor" rx="2.5" ry="2.5" style="stroke:#A9A9A9;stroke-width:0.5;" width="120" x="3033.5" y="99"/><ellipse cx="3048.5" cy="115" fill="#FFFFFF" rx="11" ry="11" style="stroke:#181818;stroke-width:1.0;"/><path d="M3048.4375,110.8281 Q3047.6875,110.8281 3047.125,111.125 Q3046.5625,111.4063 3046.1719,111.9375 Q3045.7813,112.4688 3045.5781,113.25 Q3045.3906,114.0156 3045.3906,114.9688 Q3045.3906,115.9375 3045.5625,116.7031 Q3045.75,117.4531 3046.1094,117.9688 Q3046.4844,118.4844 3047.0625,118.7656 Q3047.6406,119.0313 3048.4375,119.0313 Q3049.1719,119.0313 3049.9063,118.8594 Q3050.6563,118.6875 3051.5313,118.3906 L3051.5313,120.5469 Q3051.125,120.7031 3050.7344,120.8281 Q3050.3438,120.9375 3049.9375,121.0156 Q3049.5313,121.0938 3049.1094,121.125 Q3048.6875,121.1719 3048.1875,121.1719 Q3046.7813,121.1719 3045.75,120.7188 Q3044.7344,120.2656 3044.0625,119.4531 Q3043.3906,118.6406 3043.0625,117.5 Q3042.7344,116.3438 3042.7344,114.9531 Q3042.7344,113.5781 3043.1094,112.4219 Q3043.4844,111.2656 3044.2031,110.4375 Q3044.9219,109.6094 3045.9844,109.1563 Q3047.0469,108.6875 3048.4375,108.6875 Q3049.3438,108.6875 3050.25,108.9219 Q3051.1563,109.1406 3051.9844,109.5469 L3051.1563,111.6406 Q3050.4688,111.3125 3049.7813,111.0781 Q3049.0938,110.8281 3048.4375,110.8281 Z " fill="#000000"/><text fill="#000000" font-family="sans-serif" font-size="14" lengthAdjust="spacing" textLength="88" x="3062.5" y="119.8467">SourceAnchor</text></g><!--class Parameter--><g id="elem_Parameter"><rect codeLine="113" fill="#CCFFFF" height="32" id="Parameter" rx="2.5" ry="2.5" style="stroke:#A9A9A9;stroke-width:0.5;" width="100" x="1813.5" y="459.5"/><ellipse cx="1828.5" cy="475.5" fill="#FFFFFF" rx="11" ry="11" style="stroke:#181818;stroke-width:1.0;"/><path d="M1828.4375,471.3281 Q1827.6875,471.3281 1827.125,471.625 Q1826.5625,471.9063 1826.1719,472.4375 Q1825.7813,472.9688 1825.5781,473.75 Q1825.3906,474.5156 1825.3906,475.4688 Q1825.3906,476.4375 1825.5625,477.2031 Q1825.75,477.9531 1826.1094,478.4688 Q1826.4844,478.9844 1827.0625,479.2656 Q1827.6406,479.5313 1828.4375,479.5313 Q1829.1719,479.5313 1829.9063,479.3594 Q1830.6563,479.1875 1831.5313,478.8906 L1831.5313,481.0469 Q1831.125,481.2031 1830.7344,481.3281 Q1830.3438,481.4375 1829.9375,481.5156 Q1829.5313,481.5938 1829.1094,481.625 Q1828.6875,481.6719 1828.1875,481.6719 Q1826.7813,481.6719 1825.75,481.2188 Q1824.7344,480.7656 1824.0625,479.9531 Q1823.3906,479.1406 1823.0625,478 Q1822.7344,476.8438 1822.7344,475.4531 Q1822.7344,474.0781 1823.1094,472.9219 Q1823.4844,471.7656 1824.2031,470.9375 Q1824.9219,470.1094 1825.9844,469.6563 Q1827.0469,469.1875 1828.4375,469.1875 Q1829.3438,469.1875 1830.25,469.4219 Q1831.1563,469.6406 1831.9844,470.0469 L1831.1563,472.1406 Q1830.4688,471.8125 1829.7813,471.5781 Q1829.0938,471.3281 1828.4375,471.3281 Z " fill="#000000"/><text fill="#000000" font-family="sans-serif" font-size="14" lengthAdjust="spacing" textLength="68" x="1842.5" y="480.3467">Parameter</text></g><!--class PrimitiveType--><g id="elem_PrimitiveType"><rect codeLine="115" fill="#CCFFFF" height="32" id="PrimitiveType" rx="2.5" ry="2.5" style="stroke:#A9A9A9;stroke-width:0.5;" width="121" x="306" y="588"/><ellipse cx="321" cy="604" fill="#FFFFFF" rx="11" ry="11" style="stroke:#181818;stroke-width:1.0;"/><path d="M320.9375,599.8281 Q320.1875,599.8281 319.625,600.125 Q319.0625,600.4063 318.6719,600.9375 Q318.2813,601.4688 318.0781,602.25 Q317.8906,603.0156 317.8906,603.9688 Q317.8906,604.9375 318.0625,605.7031 Q318.25,606.4531 318.6094,606.9688 Q318.9844,607.4844 319.5625,607.7656 Q320.1406,608.0313 320.9375,608.0313 Q321.6719,608.0313 322.4063,607.8594 Q323.1563,607.6875 324.0313,607.3906 L324.0313,609.5469 Q323.625,609.7031 323.2344,609.8281 Q322.8438,609.9375 322.4375,610.0156 Q322.0313,610.0938 321.6094,610.125 Q321.1875,610.1719 320.6875,610.1719 Q319.2813,610.1719 318.25,609.7188 Q317.2344,609.2656 316.5625,608.4531 Q315.8906,607.6406 315.5625,606.5 Q315.2344,605.3438 315.2344,603.9531 Q315.2344,602.5781 315.6094,601.4219 Q315.9844,600.2656 316.7031,599.4375 Q317.4219,598.6094 318.4844,598.1563 Q319.5469,597.6875 320.9375,597.6875 Q321.8438,597.6875 322.75,597.9219 Q323.6563,598.1406 324.4844,598.5469 L323.6563,600.6406 Q322.9688,600.3125 322.2813,600.0781 Q321.5938,599.8281 320.9375,599.8281 Z " fill="#000000"/><text fill="#000000" font-family="sans-serif" font-size="14" lengthAdjust="spacing" textLength="89" x="335" y="608.8467">PrimitiveType</text></g><!--reverse link ScopingEntity to ScriptEntity--><g id="link_ScopingEntity_ScriptEntity"><path codeLine="117" d="M883.5,511.77 C883.5,536.7 883.5,568.9 883.5,587.62 " fill="none" id="ScopingEntity-backto-ScriptEntity" style="stroke:#000000;stroke-width:1.0;"/><polygon fill="none" points="876.5,511.51,883.5,491.51,890.5,511.51,876.5,511.51" style="stroke:#000000;stroke-width:1.0;"/></g><!--reverse link Type to Interface--><g id="link_Type_Interface"><path codeLine="118" d="M454.81,509.12 C468.99,534.38 487.98,568.23 498.87,587.62 " fill="none" id="Type-backto-Interface" style="stroke:#000000;stroke-width:1.0;"/><polygon fill="none" points="448.61,512.37,444.92,491.51,460.82,505.52,448.61,512.37" style="stroke:#000000;stroke-width:1.0;"/></g><!--reverse link NamedEntity to File--><g id="link_NamedEntity_File"><path codeLine="119" d="M1610.79,242.19 C1567.43,258.48 1508.48,282.03 1458.5,307 C1451.49,310.5 1444.11,314.7 1437.4,318.73 " fill="none" id="NamedEntity-backto-File" style="stroke:#000000;stroke-width:1.0;"/><polygon fill="none" points="1608.64,235.52,1629.83,235.13,1613.51,248.65,1608.64,235.52" style="stroke:#000000;stroke-width:1.0;"/></g><!--reverse link Interface to ParametricInterface--><g id="link_Interface_ParametricInterface"><path codeLine="120" d="M507.5,640.61 C507.5,654.31 507.5,669.22 507.5,679.96 " fill="none" id="Interface-backto-ParametricInterface" style="stroke:#000000;stroke-width:1.0;"/><polygon fill="none" points="500.5,640.27,507.5,620.27,514.5,640.27,500.5,640.27" style="stroke:#000000;stroke-width:1.0;"/></g><!--reverse link SourceAnchor to SourceTextAnchor--><g id="link_SourceAnchor_SourceTextAnchor"><path codeLine="121" d="M3066.16,145.98 C3049.11,164.68 3027.9,187.95 3014.28,202.89 " fill="none" id="SourceAnchor-backto-SourceTextAnchor" style="stroke:#000000;stroke-width:1.0;"/><polygon fill="none" points="3061.13,141.11,3079.78,131.05,3071.48,150.55,3061.13,141.11" style="stroke:#000000;stroke-width:1.0;"/></g><!--reverse link Entity to SourcedEntity--><g id="link_Entity_SourcedEntity"><path codeLine="122" d="M2228.28,28.71 C2115.38,38.83 1846.99,64.57 1623.5,99 C1617.85,99.87 1611.98,100.86 1606.11,101.9 " fill="none" id="Entity-backto-SourcedEntity" style="stroke:#000000;stroke-width:1.0;"/><polygon fill="none" points="2227.88,21.71,2248.42,26.92,2229.12,35.66,2227.88,21.71" style="stroke:#000000;stroke-width:1.0;"/></g><!--reverse link Type to Enum--><g id="link_Type_Enum"><path codeLine="123" d="M475.01,502.83 C512.62,528.55 568.56,566.8 599.29,587.81 " fill="none" id="Type-backto-Enum" style="stroke:#000000;stroke-width:1.0;"/><polygon fill="none" points="471.01,508.58,458.45,491.51,478.91,497.02,471.01,508.58" style="stroke:#000000;stroke-width:1.0;"/></g><!--reverse link ContainerEntity to ScopingEntity--><g id="link_ContainerEntity_ScopingEntity"><path codeLine="124" d="M967.28,367.05 C944.85,395.82 912.44,437.38 895.25,459.43 " fill="none" id="ContainerEntity-backto-ScopingEntity" style="stroke:#000000;stroke-width:1.0;"/><polygon fill="none" points="961.92,362.55,979.74,351.09,972.96,371.16,961.92,362.55" style="stroke:#000000;stroke-width:1.0;"/></g><!--reverse link Entity to SourceLanguage--><g id="link_Entity_SourceLanguage"><path codeLine="125" d="M2228.22,31.86 C2137.76,45.06 1950.52,72.8 1792.5,99 C1787.09,99.9 1781.49,100.85 1775.87,101.82 " fill="none" id="Entity-backto-SourceLanguage" style="stroke:#000000;stroke-width:1.0;"/><polygon fill="none" points="2227.5,24.89,2248.3,28.94,2229.51,38.74,2227.5,24.89" style="stroke:#000000;stroke-width:1.0;"/></g><!--reverse link NamedEntity to Decorator--><g id="link_NamedEntity_Decorator"><path codeLine="126" d="M1712.67,244.58 C1749.76,263.81 1804.86,290.43 1847.34,309.61 " fill="none" id="NamedEntity-backto-Decorator" style="stroke:#000000;stroke-width:1.0;"/><polygon fill="none" points="1709.25,250.68,1694.85,235.14,1715.8,238.31,1709.25,250.68" style="stroke:#000000;stroke-width:1.0;"/></g><!--link Decorator to NamedEntity--><g id="link_Decorator_NamedEntity"><path codeLine="167" d="M1864.13,306.92 C1820.59,284.44 1755.36,253.28 1713.09,235.02 " fill="none" id="Decorator-NamedEntity" style="stroke:#000000;stroke-width:1.0;"/><text fill="#000000" font-family="sans-serif" font-size="13" lengthAdjust="spacing" textLength="71" x="1774.6601" y="295.74">decorators*</text><text fill="#000000" font-family="sans-serif" font-size="13" lengthAdjust="spacing" textLength="92" x="1619.2303" y="255.1947">decoratedEntity</text></g><!--reverse link NamedEntity to ContainerEntity--><g id="link_NamedEntity_ContainerEntity"><path codeLine="127" d="M1616.27,241.62 C1609.99,243.62 1603.65,245.47 1597.5,247 C1404.12,295.16 1168.93,319.44 1056.91,328.99 " fill="none" id="NamedEntity-backto-ContainerEntity" style="stroke:#000000;stroke-width:1.0;"/><polygon fill="none" points="1614,235,1635.19,235.12,1618.55,248.24,1614,235" style="stroke:#000000;stroke-width:1.0;"/></g><!--reverse link BehaviouralEntity to ArrowFunction--><g id="link_BehaviouralEntity_ArrowFunction"><path codeLine="128" d="M1112.11,510.25 C1122.24,535.38 1135.6,568.51 1143.3,587.62 " fill="none" id="BehaviouralEntity-backto-ArrowFunction" style="stroke:#000000;stroke-width:1.0;"/><polygon fill="none" points="1105.54,512.67,1104.55,491.51,1118.52,507.44,1105.54,512.67" style="stroke:#000000;stroke-width:1.0;"/></g><!--reverse link Entity to ImportClause--><g id="link_Entity_ImportClause"><path codeLine="129" d="M2228.79,35.7 C2151.35,52.58 2008.84,83.64 1928.53,101.14 " fill="none" id="Entity-backto-ImportClause" style="stroke:#000000;stroke-width:1.0;"/><polygon fill="none" points="2227.32,28.86,2248.35,31.44,2230.3,42.54,2227.32,28.86" style="stroke:#000000;stroke-width:1.0;"/></g><!--reverse link SourceAnchor to IndexedFileAnchor--><g id="link_SourceAnchor_IndexedFileAnchor"><path codeLine="130" d="M3120.54,145.98 C3137.41,164.68 3158.4,187.95 3171.87,202.89 " fill="none" id="SourceAnchor-backto-IndexedFileAnchor" style="stroke:#000000;stroke-width:1.0;"/><polygon fill="none" points="3115.27,150.59,3107.07,131.05,3125.67,141.21,3115.27,150.59" style="stroke:#000000;stroke-width:1.0;"/></g><!--reverse link Variable to implicitVariable--><g id="link_Variable_implicitVariable"><path codeLine="131" d="M1383.3,509.12 C1397.07,534.38 1415.53,568.23 1426.11,587.62 " fill="none" id="Variable-backto-implicitVariable" style="stroke:#000000;stroke-width:1.0;"/><polygon fill="none" points="1377.12,512.42,1373.69,491.51,1389.41,505.71,1377.12,512.42" style="stroke:#000000;stroke-width:1.0;"/></g><!--reverse link SourcedEntity to Comment--><g id="link_SourcedEntity_Comment"><path codeLine="132" d="M1512.3,143.91 C1494.33,158.57 1472.4,176.46 1454.6,190.99 " fill="none" id="SourcedEntity-backto-Comment" style="stroke:#000000;stroke-width:1.0;"/><polygon fill="none" points="1508.13,138.27,1528.06,131.05,1516.99,149.12,1508.13,138.27" style="stroke:#000000;stroke-width:1.0;"/></g><!--reverse link StructuralEntity to Variable--><g id="link_StructuralEntity_Variable"><path codeLine="133" d="M1503.85,363.27 C1480.92,380.11 1451.19,402.38 1425.5,423 C1410.73,434.86 1394.45,448.9 1382.58,459.32 " fill="none" id="StructuralEntity-backto-Variable" style="stroke:#000000;stroke-width:1.0;"/><polygon fill="none" points="1499.95,357.45,1520.23,351.31,1508.2,368.76,1499.95,357.45" style="stroke:#000000;stroke-width:1.0;"/></g><!--reverse link Entity to Concretization--><g id="link_Entity_Concretization"><path codeLine="134" d="M2229.38,42.6 C2181.69,59.3 2112.58,83.51 2068.34,99 " fill="none" id="Entity-backto-Concretization" style="stroke:#000000;stroke-width:1.0;"/><polygon fill="none" points="2227.18,35.96,2248.37,35.95,2231.81,49.17,2227.18,35.96" style="stroke:#000000;stroke-width:1.0;"/></g><!--reverse link NamedEntity to StructuralEntity--><g id="link_NamedEntity_StructuralEntity"><path codeLine="135" d="M1639.81,248.45 C1614.2,270.74 1579.55,300.88 1558.97,318.8 " fill="none" id="NamedEntity-backto-StructuralEntity" style="stroke:#000000;stroke-width:1.0;"/><polygon fill="none" points="1635.42,242.99,1655.1,235.14,1644.61,253.55,1635.42,242.99" style="stroke:#000000;stroke-width:1.0;"/></g><!--reverse link Entity to Access--><g id="link_Entity_Access"><path codeLine="136" d="M2245.36,50.95 C2223.75,66.64 2197.32,85.83 2179.32,98.89 " fill="none" id="Entity-backto-Access" style="stroke:#000000;stroke-width:1.0;"/><polygon fill="none" points="2241.45,45.15,2261.75,39.06,2249.67,56.48,2241.45,45.15" style="stroke:#000000;stroke-width:1.0;"/></g><!--reverse link NamedEntity to Alias--><g id="link_NamedEntity_Alias"><path codeLine="137" d="M1672.5,255.6 C1672.5,276.88 1672.5,302.82 1672.5,318.87 " fill="none" id="NamedEntity-backto-Alias" style="stroke:#000000;stroke-width:1.0;"/><polygon fill="none" points="1665.5,255.37,1672.5,235.37,1679.5,255.37,1665.5,255.37" style="stroke:#000000;stroke-width:1.0;"/></g><!--reverse link ContainerEntity to BehaviouralEntity--><g id="link_ContainerEntity_BehaviouralEntity"><path codeLine="138" d="M1015.49,367.05 C1037.71,395.82 1069.82,437.38 1086.86,459.43 " fill="none" id="ContainerEntity-backto-BehaviouralEntity" style="stroke:#000000;stroke-width:1.0;"/><polygon fill="none" points="1009.84,371.19,1003.15,351.09,1020.92,362.63,1009.84,371.19" style="stroke:#000000;stroke-width:1.0;"/></g><!--reverse link Entity to Inheritance--><g id="link_Entity_Inheritance"><path codeLine="139" d="M2282.5,59.61 C2282.5,73.31 2282.5,88.22 2282.5,98.96 " fill="none" id="Entity-backto-Inheritance" style="stroke:#000000;stroke-width:1.0;"/><polygon fill="none" points="2275.5,59.27,2282.5,39.27,2289.5,59.27,2275.5,59.27" style="stroke:#000000;stroke-width:1.0;"/></g><!--reverse link BehaviouralEntity to Function--><g id="link_BehaviouralEntity_Function"><path codeLine="140" d="M1138.2,502.66 C1177.24,528.38 1235.49,566.76 1267.45,587.81 " fill="none" id="BehaviouralEntity-backto-Function" style="stroke:#000000;stroke-width:1.0;"/><polygon fill="none" points="1134.13,508.36,1121.28,491.51,1141.83,496.67,1134.13,508.36" style="stroke:#000000;stroke-width:1.0;"/></g><!--reverse link ContainerEntity to Type--><g id="link_ContainerEntity_Type"><path codeLine="141" d="M911.57,355.95 C786.96,387.04 551.91,445.7 467.59,466.74 " fill="none" id="ContainerEntity-backto-Type" style="stroke:#000000;stroke-width:1.0;"/><polygon fill="none" points="910.21,349.07,931.31,351.02,913.6,362.65,910.21,349.07" style="stroke:#000000;stroke-width:1.0;"/></g><!--reverse link Class to ParametricClass--><g id="link_Class_ParametricClass"><path codeLine="142" d="M73.5,640.61 C73.5,654.31 73.5,669.22 73.5,679.96 " fill="none" id="Class-backto-ParametricClass" style="stroke:#000000;stroke-width:1.0;"/><polygon fill="none" points="66.5,640.27,73.5,620.27,80.5,640.27,66.5,640.27" style="stroke:#000000;stroke-width:1.0;"/></g><!--reverse link Entity to Invocation--><g id="link_Entity_Invocation"><path codeLine="143" d="M2322.46,50.25 C2346.53,66.06 2376.32,85.63 2396.49,98.89 " fill="none" id="Entity-backto-Invocation" style="stroke:#000000;stroke-width:1.0;"/><polygon fill="none" points="2318.3,55.9,2305.43,39.06,2325.99,44.19,2318.3,55.9" style="stroke:#000000;stroke-width:1.0;"/></g><!--reverse link Entity to Implementation--><g id="link_Entity_Implementation"><path codeLine="144" d="M2335.89,40.63 C2389.54,57.33 2471.47,82.85 2523.22,98.97 " fill="none" id="Entity-backto-Implementation" style="stroke:#000000;stroke-width:1.0;"/><polygon fill="none" points="2333.52,47.22,2316.5,34.59,2337.68,33.85,2333.52,47.22" style="stroke:#000000;stroke-width:1.0;"/></g><!--reverse link ScopingEntity to Namespace--><g id="link_ScopingEntity_Namespace"><path codeLine="145" d="M851.85,505.1 C823.55,530.67 783.15,567.18 760.52,587.62 " fill="none" id="ScopingEntity-backto-Namespace" style="stroke:#000000;stroke-width:1.0;"/><polygon fill="none" points="847.36,499.72,866.89,491.51,856.74,510.11,847.36,499.72" style="stroke:#000000;stroke-width:1.0;"/></g><!--reverse link SourcedEntity to JSDoc--><g id="link_SourcedEntity_JSDoc"><path codeLine="146" d="M1546.5,151.19 C1546.5,168.84 1546.5,189.31 1546.5,202.89 " fill="none" id="SourcedEntity-backto-JSDoc" style="stroke:#000000;stroke-width:1.0;"/><polygon fill="none" points="1539.5,151.05,1546.5,131.05,1553.5,151.05,1539.5,151.05" style="stroke:#000000;stroke-width:1.0;"/></g><!--reverse link NamedEntity to Folder--><g id="link_NamedEntity_Folder"><path codeLine="147" d="M1699.88,250.31 C1719.86,272.42 1746.1,301.46 1761.83,318.87 " fill="none" id="NamedEntity-backto-Folder" style="stroke:#000000;stroke-width:1.0;"/><polygon fill="none" points="1694.61,254.91,1686.39,235.37,1704.99,245.52,1694.61,254.91" style="stroke:#000000;stroke-width:1.0;"/></g><!--reverse link Type to ParameterType--><g id="link_Type_ParameterType"><path codeLine="148" d="M391.26,501.27 C344.31,526.98 272.38,566.38 233.23,587.81 " fill="none" id="Type-backto-ParameterType" style="stroke:#000000;stroke-width:1.0;"/><polygon fill="none" points="388.19,494.97,409.09,491.51,394.91,507.25,388.19,494.97" style="stroke:#000000;stroke-width:1.0;"/></g><!--reverse link Method to Accessor--><g id="link_Method_Accessor"><path codeLine="149" d="M1011.5,640.61 C1011.5,654.31 1011.5,669.22 1011.5,679.96 " fill="none" id="Method-backto-Accessor" style="stroke:#000000;stroke-width:1.0;"/><polygon fill="none" points="1004.5,640.27,1011.5,620.27,1018.5,640.27,1004.5,640.27" style="stroke:#000000;stroke-width:1.0;"/></g><!--reverse link Function to ParametricFunction--><g id="link_Function_ParametricFunction"><path codeLine="150" d="M1324.22,633.1 C1342.82,648.6 1365.16,667.21 1380.45,679.96 " fill="none" id="Function-backto-ParametricFunction" style="stroke:#000000;stroke-width:1.0;"/><polygon fill="none" points="1319.7,638.45,1308.82,620.27,1328.67,627.69,1319.7,638.45" style="stroke:#000000;stroke-width:1.0;"/></g><!--reverse link Type to Class--><g id="link_Type_Class"><path codeLine="151" d="M386.09,494.07 C310.02,520.58 168.11,570.03 105.08,592 " fill="none" id="Type-backto-Class" style="stroke:#000000;stroke-width:1.0;"/><polygon fill="none" points="384.05,487.37,405.24,487.39,388.65,500.59,384.05,487.37" style="stroke:#000000;stroke-width:1.0;"/></g><!--reverse link StructuralEntity to Property--><g id="link_StructuralEntity_Property"><path codeLine="152" d="M1541.5,371.27 C1541.5,386.92 1541.5,405.65 1541.5,422.83 " fill="none" id="StructuralEntity-backto-Property" style="stroke:#000000;stroke-width:1.0;"/><polygon fill="none" points="1534.5,371.09,1541.5,351.09,1548.5,371.09,1534.5,371.09" style="stroke:#000000;stroke-width:1.0;"/></g><!--reverse link SourcedEntity to NamedEntity--><g id="link_SourcedEntity_NamedEntity"><path codeLine="153" d="M1580.77,143.74 C1604.3,162.79 1634.63,187.35 1653.83,202.89 " fill="none" id="SourcedEntity-backto-NamedEntity" style="stroke:#000000;stroke-width:1.0;"/><polygon fill="none" points="1576.23,149.08,1565.09,131.05,1585.04,138.19,1576.23,149.08" style="stroke:#000000;stroke-width:1.0;"/></g><!--reverse link ArrowFunction to ParametricArrowFunction--><g id="link_ArrowFunction_ParametricArrowFunction"><path codeLine="154" d="M1163.91,639.13 C1169.86,653.23 1176.45,668.83 1181.15,679.96 " fill="none" id="ArrowFunction-backto-ParametricArrowFunction" style="stroke:#000000;stroke-width:1.0;"/><polygon fill="none" points="1157.28,641.42,1155.95,620.27,1170.17,635.97,1157.28,641.42" style="stroke:#000000;stroke-width:1.0;"/></g><!--reverse link Entity to ParameterConcretization--><g id="link_Entity_ParameterConcretization"><path codeLine="155" d="M2336.72,34 C2422.26,49.77 2589.04,80.53 2689.03,98.98 " fill="none" id="Entity-backto-ParameterConcretization" style="stroke:#000000;stroke-width:1.0;"/><polygon fill="none" points="2335.21,40.84,2316.82,30.33,2337.75,27.07,2335.21,40.84" style="stroke:#000000;stroke-width:1.0;"/></g><!--reverse link Entity to Reference--><g id="link_Entity_Reference"><path codeLine="156" d="M2336.71,28.94 C2442.39,38.98 2683.15,63.82 2883.5,99 C2889.17,100 2895.09,101.16 2900.95,102.39 " fill="none" id="Entity-backto-Reference" style="stroke:#000000;stroke-width:1.0;"/><polygon fill="none" points="2335.82,35.89,2316.56,27.05,2337.13,21.95,2335.82,35.89" style="stroke:#000000;stroke-width:1.0;"/></g><!--reverse link ScriptEntity to Module--><g id="link_ScriptEntity_Module"><path codeLine="157" d="M835.94,629.18 C804.19,645.32 763.44,666.05 736.22,679.89 " fill="none" id="ScriptEntity-backto-Module" style="stroke:#000000;stroke-width:1.0;"/><polygon fill="none" points="832.87,622.89,853.87,620.06,839.22,635.37,832.87,622.89" style="stroke:#000000;stroke-width:1.0;"/></g><!--reverse link Method to ParametricMethod--><g id="link_Method_ParametricMethod"><path codeLine="158" d="M968.16,630.33 C940.84,646.29 906.48,666.37 883.36,679.89 " fill="none" id="Method-backto-ParametricMethod" style="stroke:#000000;stroke-width:1.0;"/><polygon fill="none" points="964.92,624.11,985.72,620.06,971.99,636.2,964.92,624.11" style="stroke:#000000;stroke-width:1.0;"/></g><!--reverse link BehaviouralEntity to Method--><g id="link_BehaviouralEntity_Method"><path codeLine="159" d="M1076.83,508.01 C1059.38,533.38 1035.61,567.94 1022.08,587.62 " fill="none" id="BehaviouralEntity-backto-Method" style="stroke:#000000;stroke-width:1.0;"/><polygon fill="none" points="1071.08,504.02,1088.18,491.51,1082.61,511.95,1071.08,504.02" style="stroke:#000000;stroke-width:1.0;"/></g><!--reverse link StructuralEntity to EnumValue--><g id="link_StructuralEntity_EnumValue"><path codeLine="160" d="M1577.66,363.07 C1616.11,391.86 1675.53,436.34 1706.37,459.43 " fill="none" id="StructuralEntity-backto-EnumValue" style="stroke:#000000;stroke-width:1.0;"/><polygon fill="none" points="1573.47,368.68,1561.65,351.09,1581.86,357.47,1573.47,368.68" style="stroke:#000000;stroke-width:1.0;"/></g><!--reverse link Entity to SourceAnchor--><g id="link_Entity_SourceAnchor"><path codeLine="161" d="M2336.87,27.92 C2458.75,37.05 2762.95,61.87 3015.5,99 C3021.23,99.84 3027.18,100.81 3033.12,101.84 " fill="none" id="Entity-backto-SourceAnchor" style="stroke:#000000;stroke-width:1.0;"/><polygon fill="none" points="2336.04,34.87,2316.61,26.42,2337.07,20.91,2336.04,34.87" style="stroke:#000000;stroke-width:1.0;"/></g><!--reverse link StructuralEntity to Parameter--><g id="link_StructuralEntity_Parameter"><path codeLine="162" d="M1605.84,357.47 C1678.18,381.7 1786.78,418.36 1795.5,423 C1814.33,433.02 1833.49,448.06 1846.65,459.31 " fill="none" id="StructuralEntity-backto-Parameter" style="stroke:#000000;stroke-width:1.0;"/><polygon fill="none" points="1603.26,363.99,1586.51,351,1607.7,350.71,1603.26,363.99" style="stroke:#000000;stroke-width:1.0;"/></g><!--reverse link Type to PrimitiveType--><g id="link_Type_PrimitiveType"><path codeLine="163" d="M418.45,509.12 C404.47,534.38 385.74,568.23 375.01,587.62 " fill="none" id="Type-backto-PrimitiveType" style="stroke:#000000;stroke-width:1.0;"/><polygon fill="none" points="412.39,505.62,428.2,491.51,424.64,512.4,412.39,505.62" style="stroke:#000000;stroke-width:1.0;"/></g><!--reverse link TWithInterfaces to ContainerEntity--><g id="link_TWithInterfaces_ContainerEntity"><path codeLine="164" d="M991.5,255.6 C991.5,276.88 991.5,302.82 991.5,318.87 " fill="none" id="TWithInterfaces-backto-ContainerEntity" style="stroke:#000000;stroke-width:1.0;stroke-dasharray:7.0,7.0;"/><polygon fill="none" points="984.5,255.37,991.5,235.37,998.5,255.37,984.5,255.37" style="stroke:#000000;stroke-width:1.0;"/></g><!--reverse link TEntityCreator to FamixTypeScriptModel--><g id="link_TEntityCreator_FamixTypeScriptModel"><path codeLine="165" d="M3276.5,59.61 C3276.5,73.31 3276.5,88.22 3276.5,98.96 " fill="none" id="TEntityCreator-backto-FamixTypeScriptModel" style="stroke:#000000;stroke-width:1.0;stroke-dasharray:7.0,7.0;"/><polygon fill="none" points="3269.5,59.27,3276.5,39.27,3283.5,59.27,3269.5,59.27" style="stroke:#000000;stroke-width:1.0;"/></g><!--reverse link TClassMetrics to Class--><g id="link_TClassMetrics_Class"><path codeLine="166" d="M73.5,511.77 C73.5,536.7 73.5,568.9 73.5,587.62 " fill="none" id="TClassMetrics-backto-Class" style="stroke:#000000;stroke-width:1.0;stroke-dasharray:7.0,7.0;"/><polygon fill="none" points="66.5,511.51,73.5,491.51,80.5,511.51,66.5,511.51" style="stroke:#000000;stroke-width:1.0;"/></g><!--SRC=[bLVRKjim47tNLtZeIzifV073J32aGwSKficqpq9UOWsov5dB8MdflrSNV97jn0fFGLhjzUpPTSupIA0ezJufe7W2h4ZrmcL9aHO94xIgahyaIQufUzcWgcMMAg4mUSsv1dE-G5Il_kX961ahgZ03z6SPnPUlIFVa7_6wLWnvgM-bviRWvUN7z8lJzEdgAlcGfalpPymrmdTI0pvJ1hEIIoxcXHvjJA2HitZ5wzzSvwruPUNNn-HNgaO6QzZfXMIvoS2SWHLJ9PURo8nuzTb9qj-ftDHqCn_hhQoBMQ4RO0gfFX9PagnCZkKcWLs9K5LSoVPrggIcN096Hk3WjQmbqqRBF5wAKg5E1Qsh-MXvKGhEkFv5aTEd2FYagYX0wYDnNoibWCg4LzzMDugrBwDDtCaCTf1PD4V2noIK8MZ-XqPbA1Ou6ckcQwGYyi7QowK83JIETic2cLwgvgilE9sNMjA2xzRx4ZottAiCnEoZQyZfbgiJGhoJEI3NLCRGKInYhTidy5Rg_f_tTAiOZUqO0HRLSU8_Z1zL6SERhW5EY2mwOnuw4PsnLCACeLWN0ADAiNOLk7Skpm-3k78zeYe1Zo2m8nRJNjc35FkGQ-YMUkW_8jzIDvQxsnjuvjAe5Fk5eUADX2ouVYXjrga8IXmxNxhodSRJRSvFPA-Vy0m8CGreIA0-QICm9SrL5ZKYVr5HHtWGfz2Fw4YoR_CMWIbUSCstC8FgmVRnTduUR6Z4FxV7xGv40eJOApkkI6-bicSJknO9OtMs1jiI2HpfxpezJsmDo6YHyAxtefdGrMn2un3QhMPyDR149YQ75Giw8B3TtqecSZ2Q-QHR5-pzS4yXWntG- -XM4pAUs_QsVJa8gzTwux27geB7deJ7Zzp0dgxDA6rXZhhXUYZ1RMudrLjua7U-3V7d3WV6clauh5Dl5awrHZl-fchWLxvnSxWnr8DlC718GnDTLWq0EY8DGsbJq6dpqKtNlHaiKzxs_2G3yWvj7iRr0HOFP5h69k67dxtp71raOCZ7Xx3mVZiTTilH4mpmtc47yjK4rAzMdqZ9w6lmxU9YH133NTZAJEsePB1CE5skdDqtrbdM_Am-doN6d-QWATvPlvB_0G00]--></g></svg>