<?xml version="1.0" encoding="us-ascii" standalone="no"?><svg xmlns="http://www.w3.org/2000/svg" xmlns:xlink="http://www.w3.org/1999/xlink" contentStyleType="text/css" height="622px" preserveAspectRatio="none" style="width:2053px;height:622px;background:#FFFFFF;" version="1.1" viewBox="0 0 2053 622" width="2053px" zoomAndPan="magnify"><defs/><g><!--class implicitVariable--><g id="elem_implicitVariable"><rect codeLine="7" fill="#CCFFFF" height="32" id="implicitVariable" rx="2.5" ry="2.5" style="stroke:#A9A9A9;stroke-width:0.5;" width="132" x="1346" y="399"/><ellipse cx="1361" cy="415" fill="#FFFFFF" rx="11" ry="11" style="stroke:#181818;stroke-width:1.0;"/><path d="M1360.9375,410.8281 Q1360.1875,410.8281 1359.625,411.125 Q1359.0625,411.4063 1358.6719,411.9375 Q1358.2813,412.4688 1358.0781,413.25 Q1357.8906,414.0156 1357.8906,414.9688 Q1357.8906,415.9375 1358.0625,416.7031 Q1358.25,417.4531 1358.6094,417.9688 Q1358.9844,418.4844 1359.5625,418.7656 Q1360.1406,419.0313 1360.9375,419.0313 Q1361.6719,419.0313 1362.4063,418.8594 Q1363.1563,418.6875 1364.0313,418.3906 L1364.0313,420.5469 Q1363.625,420.7031 1363.2344,420.8281 Q1362.8438,420.9375 1362.4375,421.0156 Q1362.0313,421.0938 1361.6094,421.125 Q1361.1875,421.1719 1360.6875,421.1719 Q1359.2813,421.1719 1358.25,420.7188 Q1357.2344,420.2656 1356.5625,419.4531 Q1355.8906,418.6406 1355.5625,417.5 Q1355.2344,416.3438 1355.2344,414.9531 Q1355.2344,413.5781 1355.6094,412.4219 Q1355.9844,411.2656 1356.7031,410.4375 Q1357.4219,409.6094 1358.4844,409.1563 Q1359.5469,408.6875 1360.9375,408.6875 Q1361.8438,408.6875 1362.75,408.9219 Q1363.6563,409.1406 1364.4844,409.5469 L1363.6563,411.6406 Q1362.9688,411.3125 1362.2813,411.0781 Q1361.5938,410.8281 1360.9375,410.8281 Z " fill="#000000"/><text fill="#000000" font-family="sans-serif" font-size="14" lengthAdjust="spacing" textLength="100" x="1375" y="419.8467">implicitVariable</text></g><!--class TWithInterfaces--><g id="elem_TWithInterfaces"><rect codeLine="9" fill="#CCFFFF" height="32" id="TWithInterfaces" rx="2.5" ry="2.5" style="stroke:#A9A9A9;stroke-width:0.5;" width="132" x="749" y="191"/><ellipse cx="764" cy="207" fill="#FFFFFF" rx="11" ry="11" style="stroke:#181818;stroke-width:1.0;"/><path d="M765.4531,213.75 L762.8906,213.75 L762.8906,203.75 L759.8438,203.75 L759.8438,201.6094 L768.4844,201.6094 L768.4844,203.75 L765.4531,203.75 L765.4531,213.75 Z " fill="#000000"/><text fill="#000000" font-family="sans-serif" font-size="14" lengthAdjust="spacing" textLength="100" x="778" y="211.8467">TWithInterfaces</text></g><!--class Invocation--><g id="elem_Invocation"><rect codeLine="11" fill="#CCFFFF" height="32" id="Invocation" rx="2.5" ry="2.5" style="stroke:#A9A9A9;stroke-width:0.5;" width="98" x="133" y="99"/><ellipse cx="148" cy="115" fill="#FFFFFF" rx="11" ry="11" style="stroke:#181818;stroke-width:1.0;"/><path d="M147.9375,110.8281 Q147.1875,110.8281 146.625,111.125 Q146.0625,111.4063 145.6719,111.9375 Q145.2813,112.4688 145.0781,113.25 Q144.8906,114.0156 144.8906,114.9688 Q144.8906,115.9375 145.0625,116.7031 Q145.25,117.4531 145.6094,117.9688 Q145.9844,118.4844 146.5625,118.7656 Q147.1406,119.0313 147.9375,119.0313 Q148.6719,119.0313 149.4063,118.8594 Q150.1563,118.6875 151.0313,118.3906 L151.0313,120.5469 Q150.625,120.7031 150.2344,120.8281 Q149.8438,120.9375 149.4375,121.0156 Q149.0313,121.0938 148.6094,121.125 Q148.1875,121.1719 147.6875,121.1719 Q146.2813,121.1719 145.25,120.7188 Q144.2344,120.2656 143.5625,119.4531 Q142.8906,118.6406 142.5625,117.5 Q142.2344,116.3438 142.2344,114.9531 Q142.2344,113.5781 142.6094,112.4219 Q142.9844,111.2656 143.7031,110.4375 Q144.4219,109.6094 145.4844,109.1563 Q146.5469,108.6875 147.9375,108.6875 Q148.8438,108.6875 149.75,108.9219 Q150.6563,109.1406 151.4844,109.5469 L150.6563,111.6406 Q149.9688,111.3125 149.2813,111.0781 Q148.5938,110.8281 147.9375,110.8281 Z " fill="#000000"/><text fill="#000000" font-family="sans-serif" font-size="14" lengthAdjust="spacing" textLength="66" x="162" y="119.8467">Invocation</text></g><!--class Parameter--><g id="elem_Parameter"><rect codeLine="13" fill="#CCFFFF" height="32" id="Parameter" rx="2.5" ry="2.5" style="stroke:#A9A9A9;stroke-width:0.5;" width="100" x="1112" y="295"/><ellipse cx="1127" cy="311" fill="#FFFFFF" rx="11" ry="11" style="stroke:#181818;stroke-width:1.0;"/><path d="M1126.9375,306.8281 Q1126.1875,306.8281 1125.625,307.125 Q1125.0625,307.4063 1124.6719,307.9375 Q1124.2813,308.4688 1124.0781,309.25 Q1123.8906,310.0156 1123.8906,310.9688 Q1123.8906,311.9375 1124.0625,312.7031 Q1124.25,313.4531 1124.6094,313.9688 Q1124.9844,314.4844 1125.5625,314.7656 Q1126.1406,315.0313 1126.9375,315.0313 Q1127.6719,315.0313 1128.4063,314.8594 Q1129.1563,314.6875 1130.0313,314.3906 L1130.0313,316.5469 Q1129.625,316.7031 1129.2344,316.8281 Q1128.8438,316.9375 1128.4375,317.0156 Q1128.0313,317.0938 1127.6094,317.125 Q1127.1875,317.1719 1126.6875,317.1719 Q1125.2813,317.1719 1124.25,316.7188 Q1123.2344,316.2656 1122.5625,315.4531 Q1121.8906,314.6406 1121.5625,313.5 Q1121.2344,312.3438 1121.2344,310.9531 Q1121.2344,309.5781 1121.6094,308.4219 Q1121.9844,307.2656 1122.7031,306.4375 Q1123.4219,305.6094 1124.4844,305.1563 Q1125.5469,304.6875 1126.9375,304.6875 Q1127.8438,304.6875 1128.75,304.9219 Q1129.6563,305.1406 1130.4844,305.5469 L1129.6563,307.6406 Q1128.9688,307.3125 1128.2813,307.0781 Q1127.5938,306.8281 1126.9375,306.8281 Z " fill="#000000"/><text fill="#000000" font-family="sans-serif" font-size="14" lengthAdjust="spacing" textLength="68" x="1141" y="315.8467">Parameter</text></g><!--class Namespace--><g id="elem_Namespace"><rect codeLine="15" fill="#CCFFFF" height="32" id="Namespace" rx="2.5" ry="2.5" style="stroke:#A9A9A9;stroke-width:0.5;" width="105" x="991.5" y="399"/><ellipse cx="1006.5" cy="415" fill="#FFFFFF" rx="11" ry="11" style="stroke:#181818;stroke-width:1.0;"/><path d="M1006.4375,410.8281 Q1005.6875,410.8281 1005.125,411.125 Q1004.5625,411.4063 1004.1719,411.9375 Q1003.7813,412.4688 1003.5781,413.25 Q1003.3906,414.0156 1003.3906,414.9688 Q1003.3906,415.9375 1003.5625,416.7031 Q1003.75,417.4531 1004.1094,417.9688 Q1004.4844,418.4844 1005.0625,418.7656 Q1005.6406,419.0313 1006.4375,419.0313 Q1007.1719,419.0313 1007.9063,418.8594 Q1008.6563,418.6875 1009.5313,418.3906 L1009.5313,420.5469 Q1009.125,420.7031 1008.7344,420.8281 Q1008.3438,420.9375 1007.9375,421.0156 Q1007.5313,421.0938 1007.1094,421.125 Q1006.6875,421.1719 1006.1875,421.1719 Q1004.7813,421.1719 1003.75,420.7188 Q1002.7344,420.2656 1002.0625,419.4531 Q1001.3906,418.6406 1001.0625,417.5 Q1000.7344,416.3438 1000.7344,414.9531 Q1000.7344,413.5781 1001.1094,412.4219 Q1001.4844,411.2656 1002.2031,410.4375 Q1002.9219,409.6094 1003.9844,409.1563 Q1005.0469,408.6875 1006.4375,408.6875 Q1007.3438,408.6875 1008.25,408.9219 Q1009.1563,409.1406 1009.9844,409.5469 L1009.1563,411.6406 Q1008.4688,411.3125 1007.7813,411.0781 Q1007.0938,410.8281 1006.4375,410.8281 Z " fill="#000000"/><text fill="#000000" font-family="sans-serif" font-size="14" lengthAdjust="spacing" textLength="73" x="1020.5" y="419.8467">Namespace</text></g><!--class FamixTypeScriptModel--><g id="elem_FamixTypeScriptModel"><rect codeLine="17" fill="#CCFFFF" height="32" id="FamixTypeScriptModel" rx="2.5" ry="2.5" style="stroke:#A9A9A9;stroke-width:0.5;" width="176" x="1793" y="99"/><ellipse cx="1808" cy="115" fill="#FFFFFF" rx="11" ry="11" style="stroke:#181818;stroke-width:1.0;"/><path d="M1807.9375,110.8281 Q1807.1875,110.8281 1806.625,111.125 Q1806.0625,111.4063 1805.6719,111.9375 Q1805.2813,112.4688 1805.0781,113.25 Q1804.8906,114.0156 1804.8906,114.9688 Q1804.8906,115.9375 1805.0625,116.7031 Q1805.25,117.4531 1805.6094,117.9688 Q1805.9844,118.4844 1806.5625,118.7656 Q1807.1406,119.0313 1807.9375,119.0313 Q1808.6719,119.0313 1809.4063,118.8594 Q1810.1563,118.6875 1811.0313,118.3906 L1811.0313,120.5469 Q1810.625,120.7031 1810.2344,120.8281 Q1809.8438,120.9375 1809.4375,121.0156 Q1809.0313,121.0938 1808.6094,121.125 Q1808.1875,121.1719 1807.6875,121.1719 Q1806.2813,121.1719 1805.25,120.7188 Q1804.2344,120.2656 1803.5625,119.4531 Q1802.8906,118.6406 1802.5625,117.5 Q1802.2344,116.3438 1802.2344,114.9531 Q1802.2344,113.5781 1802.6094,112.4219 Q1802.9844,111.2656 1803.7031,110.4375 Q1804.4219,109.6094 1805.4844,109.1563 Q1806.5469,108.6875 1807.9375,108.6875 Q1808.8438,108.6875 1809.75,108.9219 Q1810.6563,109.1406 1811.4844,109.5469 L1810.6563,111.6406 Q1809.9688,111.3125 1809.2813,111.0781 Q1808.5938,110.8281 1807.9375,110.8281 Z " fill="#000000"/><text fill="#000000" font-family="sans-serif" font-size="14" lengthAdjust="spacing" textLength="144" x="1822" y="119.8467">FamixTypeScriptModel</text></g><!--class SourceTextAnchor--><g id="elem_SourceTextAnchor"><rect codeLine="19" fill="#CCFFFF" height="32" id="SourceTextAnchor" rx="2.5" ry="2.5" style="stroke:#A9A9A9;stroke-width:0.5;" width="147" x="916.5" y="191"/><ellipse cx="931.5" cy="207" fill="#FFFFFF" rx="11" ry="11" style="stroke:#181818;stroke-width:1.0;"/><path d="M931.4375,202.8281 Q930.6875,202.8281 930.125,203.125 Q929.5625,203.4063 929.1719,203.9375 Q928.7813,204.4688 928.5781,205.25 Q928.3906,206.0156 928.3906,206.9688 Q928.3906,207.9375 928.5625,208.7031 Q928.75,209.4531 929.1094,209.9688 Q929.4844,210.4844 930.0625,210.7656 Q930.6406,211.0313 931.4375,211.0313 Q932.1719,211.0313 932.9063,210.8594 Q933.6563,210.6875 934.5313,210.3906 L934.5313,212.5469 Q934.125,212.7031 933.7344,212.8281 Q933.3438,212.9375 932.9375,213.0156 Q932.5313,213.0938 932.1094,213.125 Q931.6875,213.1719 931.1875,213.1719 Q929.7813,213.1719 928.75,212.7188 Q927.7344,212.2656 927.0625,211.4531 Q926.3906,210.6406 926.0625,209.5 Q925.7344,208.3438 925.7344,206.9531 Q925.7344,205.5781 926.1094,204.4219 Q926.4844,203.2656 927.2031,202.4375 Q927.9219,201.6094 928.9844,201.1563 Q930.0469,200.6875 931.4375,200.6875 Q932.3438,200.6875 933.25,200.9219 Q934.1563,201.1406 934.9844,201.5469 L934.1563,203.6406 Q933.4688,203.3125 932.7813,203.0781 Q932.0938,202.8281 931.4375,202.8281 Z " fill="#000000"/><text fill="#000000" font-family="sans-serif" font-size="14" lengthAdjust="spacing" textLength="115" x="945.5" y="211.8467">SourceTextAnchor</text></g><!--class Reference--><g id="elem_Reference"><rect codeLine="21" fill="#CCFFFF" height="32" id="Reference" rx="2.5" ry="2.5" style="stroke:#A9A9A9;stroke-width:0.5;" width="97" x="266.5" y="99"/><ellipse cx="281.5" cy="115" fill="#FFFFFF" rx="11" ry="11" style="stroke:#181818;stroke-width:1.0;"/><path d="M281.4375,110.8281 Q280.6875,110.8281 280.125,111.125 Q279.5625,111.4063 279.1719,111.9375 Q278.7813,112.4688 278.5781,113.25 Q278.3906,114.0156 278.3906,114.9688 Q278.3906,115.9375 278.5625,116.7031 Q278.75,117.4531 279.1094,117.9688 Q279.4844,118.4844 280.0625,118.7656 Q280.6406,119.0313 281.4375,119.0313 Q282.1719,119.0313 282.9063,118.8594 Q283.6563,118.6875 284.5313,118.3906 L284.5313,120.5469 Q284.125,120.7031 283.7344,120.8281 Q283.3438,120.9375 282.9375,121.0156 Q282.5313,121.0938 282.1094,121.125 Q281.6875,121.1719 281.1875,121.1719 Q279.7813,121.1719 278.75,120.7188 Q277.7344,120.2656 277.0625,119.4531 Q276.3906,118.6406 276.0625,117.5 Q275.7344,116.3438 275.7344,114.9531 Q275.7344,113.5781 276.1094,112.4219 Q276.4844,111.2656 277.2031,110.4375 Q277.9219,109.6094 278.9844,109.1563 Q280.0469,108.6875 281.4375,108.6875 Q282.3438,108.6875 283.25,108.9219 Q284.1563,109.1406 284.9844,109.5469 L284.1563,111.6406 Q283.4688,111.3125 282.7813,111.0781 Q282.0938,110.8281 281.4375,110.8281 Z " fill="#000000"/><text fill="#000000" font-family="sans-serif" font-size="14" lengthAdjust="spacing" textLength="65" x="295.5" y="119.8467">Reference</text></g><!--class PrimitiveType--><g id="elem_PrimitiveType"><rect codeLine="23" fill="#CCFFFF" height="32" id="PrimitiveType" rx="2.5" ry="2.5" style="stroke:#A9A9A9;stroke-width:0.5;" width="121" x="542.5" y="491"/><ellipse cx="557.5" cy="507" fill="#FFFFFF" rx="11" ry="11" style="stroke:#181818;stroke-width:1.0;"/><path d="M557.4375,502.8281 Q556.6875,502.8281 556.125,503.125 Q555.5625,503.4063 555.1719,503.9375 Q554.7813,504.4688 554.5781,505.25 Q554.3906,506.0156 554.3906,506.9688 Q554.3906,507.9375 554.5625,508.7031 Q554.75,509.4531 555.1094,509.9688 Q555.4844,510.4844 556.0625,510.7656 Q556.6406,511.0313 557.4375,511.0313 Q558.1719,511.0313 558.9063,510.8594 Q559.6563,510.6875 560.5313,510.3906 L560.5313,512.5469 Q560.125,512.7031 559.7344,512.8281 Q559.3438,512.9375 558.9375,513.0156 Q558.5313,513.0938 558.1094,513.125 Q557.6875,513.1719 557.1875,513.1719 Q555.7813,513.1719 554.75,512.7188 Q553.7344,512.2656 553.0625,511.4531 Q552.3906,510.6406 552.0625,509.5 Q551.7344,508.3438 551.7344,506.9531 Q551.7344,505.5781 552.1094,504.4219 Q552.4844,503.2656 553.2031,502.4375 Q553.9219,501.6094 554.9844,501.1563 Q556.0469,500.6875 557.4375,500.6875 Q558.3438,500.6875 559.25,500.9219 Q560.1563,501.1406 560.9844,501.5469 L560.1563,503.6406 Q559.4688,503.3125 558.7813,503.0781 Q558.0938,502.8281 557.4375,502.8281 Z " fill="#000000"/><text fill="#000000" font-family="sans-serif" font-size="14" lengthAdjust="spacing" textLength="89" x="571.5" y="511.8467">PrimitiveType</text></g><!--class Comment--><g id="elem_Comment"><rect codeLine="25" fill="#CCFFFF" height="32" id="Comment" rx="2.5" ry="2.5" style="stroke:#A9A9A9;stroke-width:0.5;" width="95" x="1326.5" y="191"/><ellipse cx="1341.5" cy="207" fill="#FFFFFF" rx="11" ry="11" style="stroke:#181818;stroke-width:1.0;"/><path d="M1341.4375,202.8281 Q1340.6875,202.8281 1340.125,203.125 Q1339.5625,203.4063 1339.1719,203.9375 Q1338.7813,204.4688 1338.5781,205.25 Q1338.3906,206.0156 1338.3906,206.9688 Q1338.3906,207.9375 1338.5625,208.7031 Q1338.75,209.4531 1339.1094,209.9688 Q1339.4844,210.4844 1340.0625,210.7656 Q1340.6406,211.0313 1341.4375,211.0313 Q1342.1719,211.0313 1342.9063,210.8594 Q1343.6563,210.6875 1344.5313,210.3906 L1344.5313,212.5469 Q1344.125,212.7031 1343.7344,212.8281 Q1343.3438,212.9375 1342.9375,213.0156 Q1342.5313,213.0938 1342.1094,213.125 Q1341.6875,213.1719 1341.1875,213.1719 Q1339.7813,213.1719 1338.75,212.7188 Q1337.7344,212.2656 1337.0625,211.4531 Q1336.3906,210.6406 1336.0625,209.5 Q1335.7344,208.3438 1335.7344,206.9531 Q1335.7344,205.5781 1336.1094,204.4219 Q1336.4844,203.2656 1337.2031,202.4375 Q1337.9219,201.6094 1338.9844,201.1563 Q1340.0469,200.6875 1341.4375,200.6875 Q1342.3438,200.6875 1343.25,200.9219 Q1344.1563,201.1406 1344.9844,201.5469 L1344.1563,203.6406 Q1343.4688,203.3125 1342.7813,203.0781 Q1342.0938,202.8281 1341.4375,202.8281 Z " fill="#000000"/><text fill="#000000" font-family="sans-serif" font-size="14" lengthAdjust="spacing" textLength="63" x="1355.5" y="211.8467">Comment</text></g><!--class Method--><g id="elem_Method"><rect codeLine="27" fill="#CCFFFF" height="32" id="Method" rx="2.5" ry="2.5" style="stroke:#A9A9A9;stroke-width:0.5;" width="81" x="1180.5" y="399"/><ellipse cx="1195.5" cy="415" fill="#FFFFFF" rx="11" ry="11" style="stroke:#181818;stroke-width:1.0;"/><path d="M1195.4375,410.8281 Q1194.6875,410.8281 1194.125,411.125 Q1193.5625,411.4063 1193.1719,411.9375 Q1192.7813,412.4688 1192.5781,413.25 Q1192.3906,414.0156 1192.3906,414.9688 Q1192.3906,415.9375 1192.5625,416.7031 Q1192.75,417.4531 1193.1094,417.9688 Q1193.4844,418.4844 1194.0625,418.7656 Q1194.6406,419.0313 1195.4375,419.0313 Q1196.1719,419.0313 1196.9063,418.8594 Q1197.6563,418.6875 1198.5313,418.3906 L1198.5313,420.5469 Q1198.125,420.7031 1197.7344,420.8281 Q1197.3438,420.9375 1196.9375,421.0156 Q1196.5313,421.0938 1196.1094,421.125 Q1195.6875,421.1719 1195.1875,421.1719 Q1193.7813,421.1719 1192.75,420.7188 Q1191.7344,420.2656 1191.0625,419.4531 Q1190.3906,418.6406 1190.0625,417.5 Q1189.7344,416.3438 1189.7344,414.9531 Q1189.7344,413.5781 1190.1094,412.4219 Q1190.4844,411.2656 1191.2031,410.4375 Q1191.9219,409.6094 1192.9844,409.1563 Q1194.0469,408.6875 1195.4375,408.6875 Q1196.3438,408.6875 1197.25,408.9219 Q1198.1563,409.1406 1198.9844,409.5469 L1198.1563,411.6406 Q1197.4688,411.3125 1196.7813,411.0781 Q1196.0938,410.8281 1195.4375,410.8281 Z " fill="#000000"/><text fill="#000000" font-family="sans-serif" font-size="14" lengthAdjust="spacing" textLength="49" x="1209.5" y="419.8467">Method</text></g><!--class Decorator--><g id="elem_Decorator"><rect codeLine="29" fill="#CCFFFF" height="56.2969" id="Decorator" rx="2.5" ry="2.5" style="stroke:#A9A9A9;stroke-width:0.5;" width="122" x="1924" y="283"/><ellipse cx="1950.7" cy="299" fill="#FFFFFF" rx="11" ry="11" style="stroke:#181818;stroke-width:1.0;"/><path d="M1950.6375,294.8281 Q1949.8875,294.8281 1949.325,295.125 Q1948.7625,295.4063 1948.3719,295.9375 Q1947.9813,296.4688 1947.7781,297.25 Q1947.5906,298.0156 1947.5906,298.9688 Q1947.5906,299.9375 1947.7625,300.7031 Q1947.95,301.4531 1948.3094,301.9688 Q1948.6844,302.4844 1949.2625,302.7656 Q1949.8406,303.0313 1950.6375,303.0313 Q1951.3719,303.0313 1952.1063,302.8594 Q1952.8563,302.6875 1953.7313,302.3906 L1953.7313,304.5469 Q1953.325,304.7031 1952.9344,304.8281 Q1952.5438,304.9375 1952.1375,305.0156 Q1951.7313,305.0938 1951.3094,305.125 Q1950.8875,305.1719 1950.3875,305.1719 Q1948.9813,305.1719 1947.95,304.7188 Q1946.9344,304.2656 1946.2625,303.4531 Q1945.5906,302.6406 1945.2625,301.5 Q1944.9344,300.3438 1944.9344,298.9531 Q1944.9344,297.5781 1945.3094,296.4219 Q1945.6844,295.2656 1946.4031,294.4375 Q1947.1219,293.6094 1948.1844,293.1563 Q1949.2469,292.6875 1950.6375,292.6875 Q1951.5438,292.6875 1952.45,292.9219 Q1953.3563,293.1406 1954.1844,293.5469 L1953.3563,295.6406 Q1952.6688,295.3125 1951.9813,295.0781 Q1951.2938,294.8281 1950.6375,294.8281 Z " fill="#000000"/><text fill="#000000" font-family="sans-serif" font-size="14" lengthAdjust="spacing" textLength="64" x="1967.3" y="303.8467">Decorator</text><line style="stroke:#A9A9A9;stroke-width:0.5;" x1="1925" x2="2045" y1="315" y2="315"/><text fill="#000000" font-family="sans-serif" font-size="14" lengthAdjust="spacing" textLength="110" x="1930" y="331.9951">String expression</text></g><!--class Module--><g id="elem_Module"><rect codeLine="32" fill="#CCFFFF" height="32" id="Module" rx="2.5" ry="2.5" style="stroke:#A9A9A9;stroke-width:0.5;" width="80" x="19" y="491"/><ellipse cx="34" cy="507" fill="#FFFFFF" rx="11" ry="11" style="stroke:#181818;stroke-width:1.0;"/><path d="M33.9375,502.8281 Q33.1875,502.8281 32.625,503.125 Q32.0625,503.4063 31.6719,503.9375 Q31.2813,504.4688 31.0781,505.25 Q30.8906,506.0156 30.8906,506.9688 Q30.8906,507.9375 31.0625,508.7031 Q31.25,509.4531 31.6094,509.9688 Q31.9844,510.4844 32.5625,510.7656 Q33.1406,511.0313 33.9375,511.0313 Q34.6719,511.0313 35.4063,510.8594 Q36.1563,510.6875 37.0313,510.3906 L37.0313,512.5469 Q36.625,512.7031 36.2344,512.8281 Q35.8438,512.9375 35.4375,513.0156 Q35.0313,513.0938 34.6094,513.125 Q34.1875,513.1719 33.6875,513.1719 Q32.2813,513.1719 31.25,512.7188 Q30.2344,512.2656 29.5625,511.4531 Q28.8906,510.6406 28.5625,509.5 Q28.2344,508.3438 28.2344,506.9531 Q28.2344,505.5781 28.6094,504.4219 Q28.9844,503.2656 29.7031,502.4375 Q30.4219,501.6094 31.4844,501.1563 Q32.5469,500.6875 33.9375,500.6875 Q34.8438,500.6875 35.75,500.9219 Q36.6563,501.1406 37.4844,501.5469 L36.6563,503.6406 Q35.9688,503.3125 35.2813,503.0781 Q34.5938,502.8281 33.9375,502.8281 Z " fill="#000000"/><text fill="#000000" font-family="sans-serif" font-size="14" lengthAdjust="spacing" textLength="48" x="48" y="511.8467">Module</text></g><!--class Inheritance--><g id="elem_Inheritance"><rect codeLine="34" fill="#CCFFFF" height="32" id="Inheritance" rx="2.5" ry="2.5" style="stroke:#A9A9A9;stroke-width:0.5;" width="105" x="398.5" y="99"/><ellipse cx="413.5" cy="115" fill="#FFFFFF" rx="11" ry="11" style="stroke:#181818;stroke-width:1.0;"/><path d="M413.4375,110.8281 Q412.6875,110.8281 412.125,111.125 Q411.5625,111.4063 411.1719,111.9375 Q410.7813,112.4688 410.5781,113.25 Q410.3906,114.0156 410.3906,114.9688 Q410.3906,115.9375 410.5625,116.7031 Q410.75,117.4531 411.1094,117.9688 Q411.4844,118.4844 412.0625,118.7656 Q412.6406,119.0313 413.4375,119.0313 Q414.1719,119.0313 414.9063,118.8594 Q415.6563,118.6875 416.5313,118.3906 L416.5313,120.5469 Q416.125,120.7031 415.7344,120.8281 Q415.3438,120.9375 414.9375,121.0156 Q414.5313,121.0938 414.1094,121.125 Q413.6875,121.1719 413.1875,121.1719 Q411.7813,121.1719 410.75,120.7188 Q409.7344,120.2656 409.0625,119.4531 Q408.3906,118.6406 408.0625,117.5 Q407.7344,116.3438 407.7344,114.9531 Q407.7344,113.5781 408.1094,112.4219 Q408.4844,111.2656 409.2031,110.4375 Q409.9219,109.6094 410.9844,109.1563 Q412.0469,108.6875 413.4375,108.6875 Q414.3438,108.6875 415.25,108.9219 Q416.1563,109.1406 416.9844,109.5469 L416.1563,111.6406 Q415.4688,111.3125 414.7813,111.0781 Q414.0938,110.8281 413.4375,110.8281 Z " fill="#000000"/><text fill="#000000" font-family="sans-serif" font-size="14" lengthAdjust="spacing" textLength="73" x="427.5" y="119.8467">Inheritance</text></g><!--class ScriptEntity--><g id="elem_ScriptEntity"><rect codeLine="36" fill="#CCFFFF" height="32" id="ScriptEntity" rx="2.5" ry="2.5" style="stroke:#A9A9A9;stroke-width:0.5;" width="104" x="7" y="399"/><ellipse cx="22" cy="415" fill="#FFFFFF" rx="11" ry="11" style="stroke:#181818;stroke-width:1.0;"/><path d="M21.9375,410.8281 Q21.1875,410.8281 20.625,411.125 Q20.0625,411.4063 19.6719,411.9375 Q19.2813,412.4688 19.0781,413.25 Q18.8906,414.0156 18.8906,414.9688 Q18.8906,415.9375 19.0625,416.7031 Q19.25,417.4531 19.6094,417.9688 Q19.9844,418.4844 20.5625,418.7656 Q21.1406,419.0313 21.9375,419.0313 Q22.6719,419.0313 23.4063,418.8594 Q24.1563,418.6875 25.0313,418.3906 L25.0313,420.5469 Q24.625,420.7031 24.2344,420.8281 Q23.8438,420.9375 23.4375,421.0156 Q23.0313,421.0938 22.6094,421.125 Q22.1875,421.1719 21.6875,421.1719 Q20.2813,421.1719 19.25,420.7188 Q18.2344,420.2656 17.5625,419.4531 Q16.8906,418.6406 16.5625,417.5 Q16.2344,416.3438 16.2344,414.9531 Q16.2344,413.5781 16.6094,412.4219 Q16.9844,411.2656 17.7031,410.4375 Q18.4219,409.6094 19.4844,409.1563 Q20.5469,408.6875 21.9375,408.6875 Q22.8438,408.6875 23.75,408.9219 Q24.6563,409.1406 25.4844,409.5469 L24.6563,411.6406 Q23.9688,411.3125 23.2813,411.0781 Q22.5938,410.8281 21.9375,410.8281 Z " fill="#000000"/><text fill="#000000" font-family="sans-serif" font-size="14" lengthAdjust="spacing" textLength="72" x="36" y="419.8467">ScriptEntity</text></g><!--class Property--><g id="elem_Property"><rect codeLine="38" fill="#CCFFFF" height="32" id="Property" rx="2.5" ry="2.5" style="stroke:#A9A9A9;stroke-width:0.5;" width="88" x="1247" y="295"/><ellipse cx="1262" cy="311" fill="#FFFFFF" rx="11" ry="11" style="stroke:#181818;stroke-width:1.0;"/><path d="M1261.9375,306.8281 Q1261.1875,306.8281 1260.625,307.125 Q1260.0625,307.4063 1259.6719,307.9375 Q1259.2813,308.4688 1259.0781,309.25 Q1258.8906,310.0156 1258.8906,310.9688 Q1258.8906,311.9375 1259.0625,312.7031 Q1259.25,313.4531 1259.6094,313.9688 Q1259.9844,314.4844 1260.5625,314.7656 Q1261.1406,315.0313 1261.9375,315.0313 Q1262.6719,315.0313 1263.4063,314.8594 Q1264.1563,314.6875 1265.0313,314.3906 L1265.0313,316.5469 Q1264.625,316.7031 1264.2344,316.8281 Q1263.8438,316.9375 1263.4375,317.0156 Q1263.0313,317.0938 1262.6094,317.125 Q1262.1875,317.1719 1261.6875,317.1719 Q1260.2813,317.1719 1259.25,316.7188 Q1258.2344,316.2656 1257.5625,315.4531 Q1256.8906,314.6406 1256.5625,313.5 Q1256.2344,312.3438 1256.2344,310.9531 Q1256.2344,309.5781 1256.6094,308.4219 Q1256.9844,307.2656 1257.7031,306.4375 Q1258.4219,305.6094 1259.4844,305.1563 Q1260.5469,304.6875 1261.9375,304.6875 Q1262.8438,304.6875 1263.75,304.9219 Q1264.6563,305.1406 1265.4844,305.5469 L1264.6563,307.6406 Q1263.9688,307.3125 1263.2813,307.0781 Q1262.5938,306.8281 1261.9375,306.8281 Z " fill="#000000"/><text fill="#000000" font-family="sans-serif" font-size="14" lengthAdjust="spacing" textLength="56" x="1276" y="315.8467">Property</text></g><!--class TClassMetrics--><g id="elem_TClassMetrics"><rect codeLine="40" fill="#CCFFFF" height="32" id="TClassMetrics" rx="2.5" ry="2.5" style="stroke:#A9A9A9;stroke-width:0.5;" width="117" x="146.5" y="399"/><ellipse cx="161.5" cy="415" fill="#FFFFFF" rx="11" ry="11" style="stroke:#181818;stroke-width:1.0;"/><path d="M162.9531,421.75 L160.3906,421.75 L160.3906,411.75 L157.3438,411.75 L157.3438,409.6094 L165.9844,409.6094 L165.9844,411.75 L162.9531,411.75 L162.9531,421.75 Z " fill="#000000"/><text fill="#000000" font-family="sans-serif" font-size="14" lengthAdjust="spacing" textLength="85" x="175.5" y="419.8467">TClassMetrics</text></g><!--class Access--><g id="elem_Access"><rect codeLine="42" fill="#CCFFFF" height="32" id="Access" rx="2.5" ry="2.5" style="stroke:#A9A9A9;stroke-width:0.5;" width="73" x="538.5" y="99"/><ellipse cx="553.5" cy="115" fill="#FFFFFF" rx="11" ry="11" style="stroke:#181818;stroke-width:1.0;"/><path d="M553.4375,110.8281 Q552.6875,110.8281 552.125,111.125 Q551.5625,111.4063 551.1719,111.9375 Q550.7813,112.4688 550.5781,113.25 Q550.3906,114.0156 550.3906,114.9688 Q550.3906,115.9375 550.5625,116.7031 Q550.75,117.4531 551.1094,117.9688 Q551.4844,118.4844 552.0625,118.7656 Q552.6406,119.0313 553.4375,119.0313 Q554.1719,119.0313 554.9063,118.8594 Q555.6563,118.6875 556.5313,118.3906 L556.5313,120.5469 Q556.125,120.7031 555.7344,120.8281 Q555.3438,120.9375 554.9375,121.0156 Q554.5313,121.0938 554.1094,121.125 Q553.6875,121.1719 553.1875,121.1719 Q551.7813,121.1719 550.75,120.7188 Q549.7344,120.2656 549.0625,119.4531 Q548.3906,118.6406 548.0625,117.5 Q547.7344,116.3438 547.7344,114.9531 Q547.7344,113.5781 548.1094,112.4219 Q548.4844,111.2656 549.2031,110.4375 Q549.9219,109.6094 550.9844,109.1563 Q552.0469,108.6875 553.4375,108.6875 Q554.3438,108.6875 555.25,108.9219 Q556.1563,109.1406 556.9844,109.5469 L556.1563,111.6406 Q555.4688,111.3125 554.7813,111.0781 Q554.0938,110.8281 553.4375,110.8281 Z " fill="#000000"/><text fill="#000000" font-family="sans-serif" font-size="14" lengthAdjust="spacing" textLength="41" x="567.5" y="119.8467">Access</text></g><!--class TEntityCreator--><g id="elem_TEntityCreator"><rect codeLine="44" fill="#CCFFFF" height="32" id="TEntityCreator" rx="2.5" ry="2.5" style="stroke:#A9A9A9;stroke-width:0.5;" width="123" x="1819.5" y="7"/><ellipse cx="1834.5" cy="23" fill="#FFFFFF" rx="11" ry="11" style="stroke:#181818;stroke-width:1.0;"/><path d="M1835.9531,29.75 L1833.3906,29.75 L1833.3906,19.75 L1830.3438,19.75 L1830.3438,17.6094 L1838.9844,17.6094 L1838.9844,19.75 L1835.9531,19.75 L1835.9531,29.75 Z " fill="#000000"/><text fill="#000000" font-family="sans-serif" font-size="14" lengthAdjust="spacing" textLength="91" x="1848.5" y="27.8467">TEntityCreator</text></g><!--class VariableStatement--><g id="elem_VariableStatement"><rect codeLine="46" fill="#CCFFFF" height="32" id="VariableStatement" rx="2.5" ry="2.5" style="stroke:#A9A9A9;stroke-width:0.5;" width="150" x="698" y="491"/><ellipse cx="713" cy="507" fill="#FFFFFF" rx="11" ry="11" style="stroke:#181818;stroke-width:1.0;"/><path d="M712.9375,502.8281 Q712.1875,502.8281 711.625,503.125 Q711.0625,503.4063 710.6719,503.9375 Q710.2813,504.4688 710.0781,505.25 Q709.8906,506.0156 709.8906,506.9688 Q709.8906,507.9375 710.0625,508.7031 Q710.25,509.4531 710.6094,509.9688 Q710.9844,510.4844 711.5625,510.7656 Q712.1406,511.0313 712.9375,511.0313 Q713.6719,511.0313 714.4063,510.8594 Q715.1563,510.6875 716.0313,510.3906 L716.0313,512.5469 Q715.625,512.7031 715.2344,512.8281 Q714.8438,512.9375 714.4375,513.0156 Q714.0313,513.0938 713.6094,513.125 Q713.1875,513.1719 712.6875,513.1719 Q711.2813,513.1719 710.25,512.7188 Q709.2344,512.2656 708.5625,511.4531 Q707.8906,510.6406 707.5625,509.5 Q707.2344,508.3438 707.2344,506.9531 Q707.2344,505.5781 707.6094,504.4219 Q707.9844,503.2656 708.7031,502.4375 Q709.4219,501.6094 710.4844,501.1563 Q711.5469,500.6875 712.9375,500.6875 Q713.8438,500.6875 714.75,500.9219 Q715.6563,501.1406 716.4844,501.5469 L715.6563,503.6406 Q714.9688,503.3125 714.2813,503.0781 Q713.5938,502.8281 712.9375,502.8281 Z " fill="#000000"/><text fill="#000000" font-family="sans-serif" font-size="14" lengthAdjust="spacing" textLength="118" x="727" y="511.8467">VariableStatement</text></g><!--class Accessor--><g id="elem_Accessor"><rect codeLine="48" fill="#CCFFFF" height="32" id="Accessor" rx="2.5" ry="2.5" style="stroke:#A9A9A9;stroke-width:0.5;" width="87" x="1177.5" y="491"/><ellipse cx="1192.5" cy="507" fill="#FFFFFF" rx="11" ry="11" style="stroke:#181818;stroke-width:1.0;"/><path d="M1192.4375,502.8281 Q1191.6875,502.8281 1191.125,503.125 Q1190.5625,503.4063 1190.1719,503.9375 Q1189.7813,504.4688 1189.5781,505.25 Q1189.3906,506.0156 1189.3906,506.9688 Q1189.3906,507.9375 1189.5625,508.7031 Q1189.75,509.4531 1190.1094,509.9688 Q1190.4844,510.4844 1191.0625,510.7656 Q1191.6406,511.0313 1192.4375,511.0313 Q1193.1719,511.0313 1193.9063,510.8594 Q1194.6563,510.6875 1195.5313,510.3906 L1195.5313,512.5469 Q1195.125,512.7031 1194.7344,512.8281 Q1194.3438,512.9375 1193.9375,513.0156 Q1193.5313,513.0938 1193.1094,513.125 Q1192.6875,513.1719 1192.1875,513.1719 Q1190.7813,513.1719 1189.75,512.7188 Q1188.7344,512.2656 1188.0625,511.4531 Q1187.3906,510.6406 1187.0625,509.5 Q1186.7344,508.3438 1186.7344,506.9531 Q1186.7344,505.5781 1187.1094,504.4219 Q1187.4844,503.2656 1188.2031,502.4375 Q1188.9219,501.6094 1189.9844,501.1563 Q1191.0469,500.6875 1192.4375,500.6875 Q1193.3438,500.6875 1194.25,500.9219 Q1195.1563,501.1406 1195.9844,501.5469 L1195.1563,503.6406 Q1194.4688,503.3125 1193.7813,503.0781 Q1193.0938,502.8281 1192.4375,502.8281 Z " fill="#000000"/><text fill="#000000" font-family="sans-serif" font-size="14" lengthAdjust="spacing" textLength="55" x="1206.5" y="511.8467">Accessor</text></g><!--class Variable--><g id="elem_Variable"><rect codeLine="50" fill="#CCFFFF" height="32" id="Variable" rx="2.5" ry="2.5" style="stroke:#A9A9A9;stroke-width:0.5;" width="84" x="1370" y="295"/><ellipse cx="1385" cy="311" fill="#FFFFFF" rx="11" ry="11" style="stroke:#181818;stroke-width:1.0;"/><path d="M1384.9375,306.8281 Q1384.1875,306.8281 1383.625,307.125 Q1383.0625,307.4063 1382.6719,307.9375 Q1382.2813,308.4688 1382.0781,309.25 Q1381.8906,310.0156 1381.8906,310.9688 Q1381.8906,311.9375 1382.0625,312.7031 Q1382.25,313.4531 1382.6094,313.9688 Q1382.9844,314.4844 1383.5625,314.7656 Q1384.1406,315.0313 1384.9375,315.0313 Q1385.6719,315.0313 1386.4063,314.8594 Q1387.1563,314.6875 1388.0313,314.3906 L1388.0313,316.5469 Q1387.625,316.7031 1387.2344,316.8281 Q1386.8438,316.9375 1386.4375,317.0156 Q1386.0313,317.0938 1385.6094,317.125 Q1385.1875,317.1719 1384.6875,317.1719 Q1383.2813,317.1719 1382.25,316.7188 Q1381.2344,316.2656 1380.5625,315.4531 Q1379.8906,314.6406 1379.5625,313.5 Q1379.2344,312.3438 1379.2344,310.9531 Q1379.2344,309.5781 1379.6094,308.4219 Q1379.9844,307.2656 1380.7031,306.4375 Q1381.4219,305.6094 1382.4844,305.1563 Q1383.5469,304.6875 1384.9375,304.6875 Q1385.8438,304.6875 1386.75,304.9219 Q1387.6563,305.1406 1388.4844,305.5469 L1387.6563,307.6406 Q1386.9688,307.3125 1386.2813,307.0781 Q1385.5938,306.8281 1384.9375,306.8281 Z " fill="#000000"/><text fill="#000000" font-family="sans-serif" font-size="14" lengthAdjust="spacing" textLength="52" x="1399" y="315.8467">Variable</text></g><!--class Import--><g id="elem_Import"><rect codeLine="52" fill="#CCFFFF" height="32" id="Import" rx="2.5" ry="2.5" style="stroke:#A9A9A9;stroke-width:0.5;" width="77" x="646.5" y="99"/><ellipse cx="661.5" cy="115" fill="#FFFFFF" rx="11" ry="11" style="stroke:#181818;stroke-width:1.0;"/><path d="M661.4375,110.8281 Q660.6875,110.8281 660.125,111.125 Q659.5625,111.4063 659.1719,111.9375 Q658.7813,112.4688 658.5781,113.25 Q658.3906,114.0156 658.3906,114.9688 Q658.3906,115.9375 658.5625,116.7031 Q658.75,117.4531 659.1094,117.9688 Q659.4844,118.4844 660.0625,118.7656 Q660.6406,119.0313 661.4375,119.0313 Q662.1719,119.0313 662.9063,118.8594 Q663.6563,118.6875 664.5313,118.3906 L664.5313,120.5469 Q664.125,120.7031 663.7344,120.8281 Q663.3438,120.9375 662.9375,121.0156 Q662.5313,121.0938 662.1094,121.125 Q661.6875,121.1719 661.1875,121.1719 Q659.7813,121.1719 658.75,120.7188 Q657.7344,120.2656 657.0625,119.4531 Q656.3906,118.6406 656.0625,117.5 Q655.7344,116.3438 655.7344,114.9531 Q655.7344,113.5781 656.1094,112.4219 Q656.4844,111.2656 657.2031,110.4375 Q657.9219,109.6094 658.9844,109.1563 Q660.0469,108.6875 661.4375,108.6875 Q662.3438,108.6875 663.25,108.9219 Q664.1563,109.1406 664.9844,109.5469 L664.1563,111.6406 Q663.4688,111.3125 662.7813,111.0781 Q662.0938,110.8281 661.4375,110.8281 Z " fill="#000000"/><text fill="#000000" font-family="sans-serif" font-size="14" lengthAdjust="spacing" textLength="45" x="675.5" y="119.8467">Import</text></g><!--class Enum--><g id="elem_Enum"><rect codeLine="54" fill="#CCFFFF" height="32" id="Enum" rx="2.5" ry="2.5" style="stroke:#A9A9A9;stroke-width:0.5;" width="68" x="883" y="491"/><ellipse cx="898" cy="507" fill="#FFFFFF" rx="11" ry="11" style="stroke:#181818;stroke-width:1.0;"/><path d="M897.9375,502.8281 Q897.1875,502.8281 896.625,503.125 Q896.0625,503.4063 895.6719,503.9375 Q895.2813,504.4688 895.0781,505.25 Q894.8906,506.0156 894.8906,506.9688 Q894.8906,507.9375 895.0625,508.7031 Q895.25,509.4531 895.6094,509.9688 Q895.9844,510.4844 896.5625,510.7656 Q897.1406,511.0313 897.9375,511.0313 Q898.6719,511.0313 899.4063,510.8594 Q900.1563,510.6875 901.0313,510.3906 L901.0313,512.5469 Q900.625,512.7031 900.2344,512.8281 Q899.8438,512.9375 899.4375,513.0156 Q899.0313,513.0938 898.6094,513.125 Q898.1875,513.1719 897.6875,513.1719 Q896.2813,513.1719 895.25,512.7188 Q894.2344,512.2656 893.5625,511.4531 Q892.8906,510.6406 892.5625,509.5 Q892.2344,508.3438 892.2344,506.9531 Q892.2344,505.5781 892.6094,504.4219 Q892.9844,503.2656 893.7031,502.4375 Q894.4219,501.6094 895.4844,501.1563 Q896.5469,500.6875 897.9375,500.6875 Q898.8438,500.6875 899.75,500.9219 Q900.6563,501.1406 901.4844,501.5469 L900.6563,503.6406 Q899.9688,503.3125 899.2813,503.0781 Q898.5938,502.8281 897.9375,502.8281 Z " fill="#000000"/><text fill="#000000" font-family="sans-serif" font-size="14" lengthAdjust="spacing" textLength="36" x="912" y="511.8467">Enum</text></g><!--class Implementation--><g id="elem_Implementation"><rect codeLine="56" fill="#CCFFFF" height="32" id="Implementation" rx="2.5" ry="2.5" style="stroke:#A9A9A9;stroke-width:0.5;" width="136" x="759" y="99"/><ellipse cx="774" cy="115" fill="#FFFFFF" rx="11" ry="11" style="stroke:#181818;stroke-width:1.0;"/><path d="M773.9375,110.8281 Q773.1875,110.8281 772.625,111.125 Q772.0625,111.4063 771.6719,111.9375 Q771.2813,112.4688 771.0781,113.25 Q770.8906,114.0156 770.8906,114.9688 Q770.8906,115.9375 771.0625,116.7031 Q771.25,117.4531 771.6094,117.9688 Q771.9844,118.4844 772.5625,118.7656 Q773.1406,119.0313 773.9375,119.0313 Q774.6719,119.0313 775.4063,118.8594 Q776.1563,118.6875 777.0313,118.3906 L777.0313,120.5469 Q776.625,120.7031 776.2344,120.8281 Q775.8438,120.9375 775.4375,121.0156 Q775.0313,121.0938 774.6094,121.125 Q774.1875,121.1719 773.6875,121.1719 Q772.2813,121.1719 771.25,120.7188 Q770.2344,120.2656 769.5625,119.4531 Q768.8906,118.6406 768.5625,117.5 Q768.2344,116.3438 768.2344,114.9531 Q768.2344,113.5781 768.6094,112.4219 Q768.9844,111.2656 769.7031,110.4375 Q770.4219,109.6094 771.4844,109.1563 Q772.5469,108.6875 773.9375,108.6875 Q774.8438,108.6875 775.75,108.9219 Q776.6563,109.1406 777.4844,109.5469 L776.6563,111.6406 Q775.9688,111.3125 775.2813,111.0781 Q774.5938,110.8281 773.9375,110.8281 Z " fill="#000000"/><text fill="#000000" font-family="sans-serif" font-size="14" lengthAdjust="spacing" textLength="104" x="788" y="119.8467">Implementation</text></g><!--class Interface--><g id="elem_Interface"><rect codeLine="58" fill="#CCFFFF" height="32" id="Interface" rx="2.5" ry="2.5" style="stroke:#A9A9A9;stroke-width:0.5;" width="90" x="252" y="491"/><ellipse cx="267" cy="507" fill="#FFFFFF" rx="11" ry="11" style="stroke:#181818;stroke-width:1.0;"/><path d="M266.9375,502.8281 Q266.1875,502.8281 265.625,503.125 Q265.0625,503.4063 264.6719,503.9375 Q264.2813,504.4688 264.0781,505.25 Q263.8906,506.0156 263.8906,506.9688 Q263.8906,507.9375 264.0625,508.7031 Q264.25,509.4531 264.6094,509.9688 Q264.9844,510.4844 265.5625,510.7656 Q266.1406,511.0313 266.9375,511.0313 Q267.6719,511.0313 268.4063,510.8594 Q269.1563,510.6875 270.0313,510.3906 L270.0313,512.5469 Q269.625,512.7031 269.2344,512.8281 Q268.8438,512.9375 268.4375,513.0156 Q268.0313,513.0938 267.6094,513.125 Q267.1875,513.1719 266.6875,513.1719 Q265.2813,513.1719 264.25,512.7188 Q263.2344,512.2656 262.5625,511.4531 Q261.8906,510.6406 261.5625,509.5 Q261.2344,508.3438 261.2344,506.9531 Q261.2344,505.5781 261.6094,504.4219 Q261.9844,503.2656 262.7031,502.4375 Q263.4219,501.6094 264.4844,501.1563 Q265.5469,500.6875 266.9375,500.6875 Q267.8438,500.6875 268.75,500.9219 Q269.6563,501.1406 270.4844,501.5469 L269.6563,503.6406 Q268.9688,503.3125 268.2813,503.0781 Q267.5938,502.8281 266.9375,502.8281 Z " fill="#000000"/><text fill="#000000" font-family="sans-serif" font-size="14" lengthAdjust="spacing" textLength="58" x="281" y="511.8467">Interface</text></g><!--class File--><g id="elem_File"><rect codeLine="60" fill="#CCFFFF" height="32" id="File" rx="2.5" ry="2.5" style="stroke:#A9A9A9;stroke-width:0.5;" width="55" x="1489.5" y="295"/><ellipse cx="1504.5" cy="311" fill="#FFFFFF" rx="11" ry="11" style="stroke:#181818;stroke-width:1.0;"/><path d="M1504.4375,306.8281 Q1503.6875,306.8281 1503.125,307.125 Q1502.5625,307.4063 1502.1719,307.9375 Q1501.7813,308.4688 1501.5781,309.25 Q1501.3906,310.0156 1501.3906,310.9688 Q1501.3906,311.9375 1501.5625,312.7031 Q1501.75,313.4531 1502.1094,313.9688 Q1502.4844,314.4844 1503.0625,314.7656 Q1503.6406,315.0313 1504.4375,315.0313 Q1505.1719,315.0313 1505.9063,314.8594 Q1506.6563,314.6875 1507.5313,314.3906 L1507.5313,316.5469 Q1507.125,316.7031 1506.7344,316.8281 Q1506.3438,316.9375 1505.9375,317.0156 Q1505.5313,317.0938 1505.1094,317.125 Q1504.6875,317.1719 1504.1875,317.1719 Q1502.7813,317.1719 1501.75,316.7188 Q1500.7344,316.2656 1500.0625,315.4531 Q1499.3906,314.6406 1499.0625,313.5 Q1498.7344,312.3438 1498.7344,310.9531 Q1498.7344,309.5781 1499.1094,308.4219 Q1499.4844,307.2656 1500.2031,306.4375 Q1500.9219,305.6094 1501.9844,305.1563 Q1503.0469,304.6875 1504.4375,304.6875 Q1505.3438,304.6875 1506.25,304.9219 Q1507.1563,305.1406 1507.9844,305.5469 L1507.1563,307.6406 Q1506.4688,307.3125 1505.7813,307.0781 Q1505.0938,306.8281 1504.4375,306.8281 Z " fill="#000000"/><text fill="#000000" font-family="sans-serif" font-size="14" lengthAdjust="spacing" textLength="23" x="1518.5" y="315.8467">File</text></g><!--class JSDoc--><g id="elem_JSDoc"><rect codeLine="62" fill="#CCFFFF" height="32" id="JSDoc" rx="2.5" ry="2.5" style="stroke:#A9A9A9;stroke-width:0.5;" width="67" x="1456.5" y="191"/><ellipse cx="1471.5" cy="207" fill="#FFFFFF" rx="11" ry="11" style="stroke:#181818;stroke-width:1.0;"/><path d="M1471.4375,202.8281 Q1470.6875,202.8281 1470.125,203.125 Q1469.5625,203.4063 1469.1719,203.9375 Q1468.7813,204.4688 1468.5781,205.25 Q1468.3906,206.0156 1468.3906,206.9688 Q1468.3906,207.9375 1468.5625,208.7031 Q1468.75,209.4531 1469.1094,209.9688 Q1469.4844,210.4844 1470.0625,210.7656 Q1470.6406,211.0313 1471.4375,211.0313 Q1472.1719,211.0313 1472.9063,210.8594 Q1473.6563,210.6875 1474.5313,210.3906 L1474.5313,212.5469 Q1474.125,212.7031 1473.7344,212.8281 Q1473.3438,212.9375 1472.9375,213.0156 Q1472.5313,213.0938 1472.1094,213.125 Q1471.6875,213.1719 1471.1875,213.1719 Q1469.7813,213.1719 1468.75,212.7188 Q1467.7344,212.2656 1467.0625,211.4531 Q1466.3906,210.6406 1466.0625,209.5 Q1465.7344,208.3438 1465.7344,206.9531 Q1465.7344,205.5781 1466.1094,204.4219 Q1466.4844,203.2656 1467.2031,202.4375 Q1467.9219,201.6094 1468.9844,201.1563 Q1470.0469,200.6875 1471.4375,200.6875 Q1472.3438,200.6875 1473.25,200.9219 Q1474.1563,201.1406 1474.9844,201.5469 L1474.1563,203.6406 Q1473.4688,203.3125 1472.7813,203.0781 Q1472.0938,202.8281 1471.4375,202.8281 Z " fill="#000000"/><text fill="#000000" font-family="sans-serif" font-size="14" lengthAdjust="spacing" textLength="35" x="1485.5" y="211.8467">JSDoc</text></g><!--class Folder--><g id="elem_Folder"><rect codeLine="64" fill="#CCFFFF" height="32" id="Folder" rx="2.5" ry="2.5" style="stroke:#A9A9A9;stroke-width:0.5;" width="73" x="1579.5" y="295"/><ellipse cx="1594.5" cy="311" fill="#FFFFFF" rx="11" ry="11" style="stroke:#181818;stroke-width:1.0;"/><path d="M1594.4375,306.8281 Q1593.6875,306.8281 1593.125,307.125 Q1592.5625,307.4063 1592.1719,307.9375 Q1591.7813,308.4688 1591.5781,309.25 Q1591.3906,310.0156 1591.3906,310.9688 Q1591.3906,311.9375 1591.5625,312.7031 Q1591.75,313.4531 1592.1094,313.9688 Q1592.4844,314.4844 1593.0625,314.7656 Q1593.6406,315.0313 1594.4375,315.0313 Q1595.1719,315.0313 1595.9063,314.8594 Q1596.6563,314.6875 1597.5313,314.3906 L1597.5313,316.5469 Q1597.125,316.7031 1596.7344,316.8281 Q1596.3438,316.9375 1595.9375,317.0156 Q1595.5313,317.0938 1595.1094,317.125 Q1594.6875,317.1719 1594.1875,317.1719 Q1592.7813,317.1719 1591.75,316.7188 Q1590.7344,316.2656 1590.0625,315.4531 Q1589.3906,314.6406 1589.0625,313.5 Q1588.7344,312.3438 1588.7344,310.9531 Q1588.7344,309.5781 1589.1094,308.4219 Q1589.4844,307.2656 1590.2031,306.4375 Q1590.9219,305.6094 1591.9844,305.1563 Q1593.0469,304.6875 1594.4375,304.6875 Q1595.3438,304.6875 1596.25,304.9219 Q1597.1563,305.1406 1597.9844,305.5469 L1597.1563,307.6406 Q1596.4688,307.3125 1595.7813,307.0781 Q1595.0938,306.8281 1594.4375,306.8281 Z " fill="#000000"/><text fill="#000000" font-family="sans-serif" font-size="14" lengthAdjust="spacing" textLength="41" x="1608.5" y="315.8467">Folder</text></g><!--class SourceAnchor--><g id="elem_SourceAnchor"><rect codeLine="66" fill="#CCFFFF" height="32" id="SourceAnchor" rx="2.5" ry="2.5" style="stroke:#A9A9A9;stroke-width:0.5;" width="120" x="930" y="99"/><ellipse cx="945" cy="115" fill="#FFFFFF" rx="11" ry="11" style="stroke:#181818;stroke-width:1.0;"/><path d="M944.9375,110.8281 Q944.1875,110.8281 943.625,111.125 Q943.0625,111.4063 942.6719,111.9375 Q942.2813,112.4688 942.0781,113.25 Q941.8906,114.0156 941.8906,114.9688 Q941.8906,115.9375 942.0625,116.7031 Q942.25,117.4531 942.6094,117.9688 Q942.9844,118.4844 943.5625,118.7656 Q944.1406,119.0313 944.9375,119.0313 Q945.6719,119.0313 946.4063,118.8594 Q947.1563,118.6875 948.0313,118.3906 L948.0313,120.5469 Q947.625,120.7031 947.2344,120.8281 Q946.8438,120.9375 946.4375,121.0156 Q946.0313,121.0938 945.6094,121.125 Q945.1875,121.1719 944.6875,121.1719 Q943.2813,121.1719 942.25,120.7188 Q941.2344,120.2656 940.5625,119.4531 Q939.8906,118.6406 939.5625,117.5 Q939.2344,116.3438 939.2344,114.9531 Q939.2344,113.5781 939.6094,112.4219 Q939.9844,111.2656 940.7031,110.4375 Q941.4219,109.6094 942.4844,109.1563 Q943.5469,108.6875 944.9375,108.6875 Q945.8438,108.6875 946.75,108.9219 Q947.6563,109.1406 948.4844,109.5469 L947.6563,111.6406 Q946.9688,111.3125 946.2813,111.0781 Q945.5938,110.8281 944.9375,110.8281 Z " fill="#000000"/><text fill="#000000" font-family="sans-serif" font-size="14" lengthAdjust="spacing" textLength="88" x="959" y="119.8467">SourceAnchor</text></g><!--class NamedEntity--><g id="elem_NamedEntity"><rect codeLine="68" fill="#CCFFFF" height="32" id="NamedEntity" rx="2.5" ry="2.5" style="stroke:#A9A9A9;stroke-width:0.5;" width="114" x="1559" y="191"/><ellipse cx="1574" cy="207" fill="#FFFFFF" rx="11" ry="11" style="stroke:#181818;stroke-width:1.0;"/><path d="M1573.9375,202.8281 Q1573.1875,202.8281 1572.625,203.125 Q1572.0625,203.4063 1571.6719,203.9375 Q1571.2813,204.4688 1571.0781,205.25 Q1570.8906,206.0156 1570.8906,206.9688 Q1570.8906,207.9375 1571.0625,208.7031 Q1571.25,209.4531 1571.6094,209.9688 Q1571.9844,210.4844 1572.5625,210.7656 Q1573.1406,211.0313 1573.9375,211.0313 Q1574.6719,211.0313 1575.4063,210.8594 Q1576.1563,210.6875 1577.0313,210.3906 L1577.0313,212.5469 Q1576.625,212.7031 1576.2344,212.8281 Q1575.8438,212.9375 1575.4375,213.0156 Q1575.0313,213.0938 1574.6094,213.125 Q1574.1875,213.1719 1573.6875,213.1719 Q1572.2813,213.1719 1571.25,212.7188 Q1570.2344,212.2656 1569.5625,211.4531 Q1568.8906,210.6406 1568.5625,209.5 Q1568.2344,208.3438 1568.2344,206.9531 Q1568.2344,205.5781 1568.6094,204.4219 Q1568.9844,203.2656 1569.7031,202.4375 Q1570.4219,201.6094 1571.4844,201.1563 Q1572.5469,200.6875 1573.9375,200.6875 Q1574.8438,200.6875 1575.75,200.9219 Q1576.6563,201.1406 1577.4844,201.5469 L1576.6563,203.6406 Q1575.9688,203.3125 1575.2813,203.0781 Q1574.5938,202.8281 1573.9375,202.8281 Z " fill="#000000"/><text fill="#000000" font-family="sans-serif" font-size="14" lengthAdjust="spacing" textLength="82" x="1588" y="211.8467">NamedEntity</text></g><!--class Class--><g id="elem_Class"><rect codeLine="70" fill="#CCFFFF" height="32" id="Class" rx="2.5" ry="2.5" style="stroke:#A9A9A9;stroke-width:0.5;" width="63" x="153.5" y="491"/><ellipse cx="168.5" cy="507" fill="#FFFFFF" rx="11" ry="11" style="stroke:#181818;stroke-width:1.0;"/><path d="M168.4375,502.8281 Q167.6875,502.8281 167.125,503.125 Q166.5625,503.4063 166.1719,503.9375 Q165.7813,504.4688 165.5781,505.25 Q165.3906,506.0156 165.3906,506.9688 Q165.3906,507.9375 165.5625,508.7031 Q165.75,509.4531 166.1094,509.9688 Q166.4844,510.4844 167.0625,510.7656 Q167.6406,511.0313 168.4375,511.0313 Q169.1719,511.0313 169.9063,510.8594 Q170.6563,510.6875 171.5313,510.3906 L171.5313,512.5469 Q171.125,512.7031 170.7344,512.8281 Q170.3438,512.9375 169.9375,513.0156 Q169.5313,513.0938 169.1094,513.125 Q168.6875,513.1719 168.1875,513.1719 Q166.7813,513.1719 165.75,512.7188 Q164.7344,512.2656 164.0625,511.4531 Q163.3906,510.6406 163.0625,509.5 Q162.7344,508.3438 162.7344,506.9531 Q162.7344,505.5781 163.1094,504.4219 Q163.4844,503.2656 164.2031,502.4375 Q164.9219,501.6094 165.9844,501.1563 Q167.0469,500.6875 168.4375,500.6875 Q169.3438,500.6875 170.25,500.9219 Q171.1563,501.1406 171.9844,501.5469 L171.1563,503.6406 Q170.4688,503.3125 169.7813,503.0781 Q169.0938,502.8281 168.4375,502.8281 Z " fill="#000000"/><text fill="#000000" font-family="sans-serif" font-size="14" lengthAdjust="spacing" textLength="31" x="182.5" y="511.8467">Class</text></g><!--class IndexedFileAnchor--><g id="elem_IndexedFileAnchor"><rect codeLine="72" fill="#CCFFFF" height="32" id="IndexedFileAnchor" rx="2.5" ry="2.5" style="stroke:#A9A9A9;stroke-width:0.5;" width="152" x="1099" y="191"/><ellipse cx="1114" cy="207" fill="#FFFFFF" rx="11" ry="11" style="stroke:#181818;stroke-width:1.0;"/><path d="M1113.9375,202.8281 Q1113.1875,202.8281 1112.625,203.125 Q1112.0625,203.4063 1111.6719,203.9375 Q1111.2813,204.4688 1111.0781,205.25 Q1110.8906,206.0156 1110.8906,206.9688 Q1110.8906,207.9375 1111.0625,208.7031 Q1111.25,209.4531 1111.6094,209.9688 Q1111.9844,210.4844 1112.5625,210.7656 Q1113.1406,211.0313 1113.9375,211.0313 Q1114.6719,211.0313 1115.4063,210.8594 Q1116.1563,210.6875 1117.0313,210.3906 L1117.0313,212.5469 Q1116.625,212.7031 1116.2344,212.8281 Q1115.8438,212.9375 1115.4375,213.0156 Q1115.0313,213.0938 1114.6094,213.125 Q1114.1875,213.1719 1113.6875,213.1719 Q1112.2813,213.1719 1111.25,212.7188 Q1110.2344,212.2656 1109.5625,211.4531 Q1108.8906,210.6406 1108.5625,209.5 Q1108.2344,208.3438 1108.2344,206.9531 Q1108.2344,205.5781 1108.6094,204.4219 Q1108.9844,203.2656 1109.7031,202.4375 Q1110.4219,201.6094 1111.4844,201.1563 Q1112.5469,200.6875 1113.9375,200.6875 Q1114.8438,200.6875 1115.75,200.9219 Q1116.6563,201.1406 1117.4844,201.5469 L1116.6563,203.6406 Q1115.9688,203.3125 1115.2813,203.0781 Q1114.5938,202.8281 1113.9375,202.8281 Z " fill="#000000"/><text fill="#000000" font-family="sans-serif" font-size="14" lengthAdjust="spacing" textLength="120" x="1128" y="211.8467">IndexedFileAnchor</text></g><!--class Entity--><g id="elem_Entity"><rect codeLine="74" fill="#CCFFFF" height="32" id="Entity" rx="2.5" ry="2.5" style="stroke:#A9A9A9;stroke-width:0.5;" width="68" x="793" y="7"/><ellipse cx="808" cy="23" fill="#FFFFFF" rx="11" ry="11" style="stroke:#181818;stroke-width:1.0;"/><path d="M807.9375,18.8281 Q807.1875,18.8281 806.625,19.125 Q806.0625,19.4063 805.6719,19.9375 Q805.2813,20.4688 805.0781,21.25 Q804.8906,22.0156 804.8906,22.9688 Q804.8906,23.9375 805.0625,24.7031 Q805.25,25.4531 805.6094,25.9688 Q805.9844,26.4844 806.5625,26.7656 Q807.1406,27.0313 807.9375,27.0313 Q808.6719,27.0313 809.4063,26.8594 Q810.1563,26.6875 811.0313,26.3906 L811.0313,28.5469 Q810.625,28.7031 810.2344,28.8281 Q809.8438,28.9375 809.4375,29.0156 Q809.0313,29.0938 808.6094,29.125 Q808.1875,29.1719 807.6875,29.1719 Q806.2813,29.1719 805.25,28.7188 Q804.2344,28.2656 803.5625,27.4531 Q802.8906,26.6406 802.5625,25.5 Q802.2344,24.3438 802.2344,22.9531 Q802.2344,21.5781 802.6094,20.4219 Q802.9844,19.2656 803.7031,18.4375 Q804.4219,17.6094 805.4844,17.1563 Q806.5469,16.6875 807.9375,16.6875 Q808.8438,16.6875 809.75,16.9219 Q810.6563,17.1406 811.4844,17.5469 L810.6563,19.6406 Q809.9688,19.3125 809.2813,19.0781 Q808.5938,18.8281 807.9375,18.8281 Z " fill="#000000"/><text fill="#000000" font-family="sans-serif" font-size="14" lengthAdjust="spacing" textLength="36" x="822" y="27.8467">Entity</text></g><!--class ParametricInterface--><g id="elem_ParametricInterface"><rect codeLine="76" fill="#CCFFFF" height="32" id="ParametricInterface" rx="2.5" ry="2.5" style="stroke:#A9A9A9;stroke-width:0.5;" width="160" x="252" y="583"/><ellipse cx="267" cy="599" fill="#FFFFFF" rx="11" ry="11" style="stroke:#181818;stroke-width:1.0;"/><path d="M266.9375,594.8281 Q266.1875,594.8281 265.625,595.125 Q265.0625,595.4063 264.6719,595.9375 Q264.2813,596.4688 264.0781,597.25 Q263.8906,598.0156 263.8906,598.9688 Q263.8906,599.9375 264.0625,600.7031 Q264.25,601.4531 264.6094,601.9688 Q264.9844,602.4844 265.5625,602.7656 Q266.1406,603.0313 266.9375,603.0313 Q267.6719,603.0313 268.4063,602.8594 Q269.1563,602.6875 270.0313,602.3906 L270.0313,604.5469 Q269.625,604.7031 269.2344,604.8281 Q268.8438,604.9375 268.4375,605.0156 Q268.0313,605.0938 267.6094,605.125 Q267.1875,605.1719 266.6875,605.1719 Q265.2813,605.1719 264.25,604.7188 Q263.2344,604.2656 262.5625,603.4531 Q261.8906,602.6406 261.5625,601.5 Q261.2344,600.3438 261.2344,598.9531 Q261.2344,597.5781 261.6094,596.4219 Q261.9844,595.2656 262.7031,594.4375 Q263.4219,593.6094 264.4844,593.1563 Q265.5469,592.6875 266.9375,592.6875 Q267.8438,592.6875 268.75,592.9219 Q269.6563,593.1406 270.4844,593.5469 L269.6563,595.6406 Q268.9688,595.3125 268.2813,595.0781 Q267.5938,594.8281 266.9375,594.8281 Z " fill="#000000"/><text fill="#000000" font-family="sans-serif" font-size="14" lengthAdjust="spacing" textLength="128" x="281" y="603.8467">ParametricInterface</text></g><!--class ParametricFunction--><g id="elem_ParametricFunction"><rect codeLine="78" fill="#CCFFFF" height="32" id="ParametricFunction" rx="2.5" ry="2.5" style="stroke:#A9A9A9;stroke-width:0.5;" width="156" x="986" y="491"/><ellipse cx="1001" cy="507" fill="#FFFFFF" rx="11" ry="11" style="stroke:#181818;stroke-width:1.0;"/><path d="M1000.9375,502.8281 Q1000.1875,502.8281 999.625,503.125 Q999.0625,503.4063 998.6719,503.9375 Q998.2813,504.4688 998.0781,505.25 Q997.8906,506.0156 997.8906,506.9688 Q997.8906,507.9375 998.0625,508.7031 Q998.25,509.4531 998.6094,509.9688 Q998.9844,510.4844 999.5625,510.7656 Q1000.1406,511.0313 1000.9375,511.0313 Q1001.6719,511.0313 1002.4063,510.8594 Q1003.1563,510.6875 1004.0313,510.3906 L1004.0313,512.5469 Q1003.625,512.7031 1003.2344,512.8281 Q1002.8438,512.9375 1002.4375,513.0156 Q1002.0313,513.0938 1001.6094,513.125 Q1001.1875,513.1719 1000.6875,513.1719 Q999.2813,513.1719 998.25,512.7188 Q997.2344,512.2656 996.5625,511.4531 Q995.8906,510.6406 995.5625,509.5 Q995.2344,508.3438 995.2344,506.9531 Q995.2344,505.5781 995.6094,504.4219 Q995.9844,503.2656 996.7031,502.4375 Q997.4219,501.6094 998.4844,501.1563 Q999.5469,500.6875 1000.9375,500.6875 Q1001.8438,500.6875 1002.75,500.9219 Q1003.6563,501.1406 1004.4844,501.5469 L1003.6563,503.6406 Q1002.9688,503.3125 1002.2813,503.0781 Q1001.5938,502.8281 1000.9375,502.8281 Z " fill="#000000"/><text fill="#000000" font-family="sans-serif" font-size="14" lengthAdjust="spacing" textLength="124" x="1015" y="511.8467">ParametricFunction</text></g><!--class ParametricMethod--><g id="elem_ParametricMethod"><rect codeLine="80" fill="#CCFFFF" height="32" id="ParametricMethod" rx="2.5" ry="2.5" style="stroke:#A9A9A9;stroke-width:0.5;" width="151" x="1299.5" y="491"/><ellipse cx="1314.5" cy="507" fill="#FFFFFF" rx="11" ry="11" style="stroke:#181818;stroke-width:1.0;"/><path d="M1314.4375,502.8281 Q1313.6875,502.8281 1313.125,503.125 Q1312.5625,503.4063 1312.1719,503.9375 Q1311.7813,504.4688 1311.5781,505.25 Q1311.3906,506.0156 1311.3906,506.9688 Q1311.3906,507.9375 1311.5625,508.7031 Q1311.75,509.4531 1312.1094,509.9688 Q1312.4844,510.4844 1313.0625,510.7656 Q1313.6406,511.0313 1314.4375,511.0313 Q1315.1719,511.0313 1315.9063,510.8594 Q1316.6563,510.6875 1317.5313,510.3906 L1317.5313,512.5469 Q1317.125,512.7031 1316.7344,512.8281 Q1316.3438,512.9375 1315.9375,513.0156 Q1315.5313,513.0938 1315.1094,513.125 Q1314.6875,513.1719 1314.1875,513.1719 Q1312.7813,513.1719 1311.75,512.7188 Q1310.7344,512.2656 1310.0625,511.4531 Q1309.3906,510.6406 1309.0625,509.5 Q1308.7344,508.3438 1308.7344,506.9531 Q1308.7344,505.5781 1309.1094,504.4219 Q1309.4844,503.2656 1310.2031,502.4375 Q1310.9219,501.6094 1311.9844,501.1563 Q1313.0469,500.6875 1314.4375,500.6875 Q1315.3438,500.6875 1316.25,500.9219 Q1317.1563,501.1406 1317.9844,501.5469 L1317.1563,503.6406 Q1316.4688,503.3125 1315.7813,503.0781 Q1315.0938,502.8281 1314.4375,502.8281 Z " fill="#000000"/><text fill="#000000" font-family="sans-serif" font-size="14" lengthAdjust="spacing" textLength="119" x="1328.5" y="511.8467">ParametricMethod</text></g><!--class Concretization--><g id="elem_Concretization"><rect codeLine="82" fill="#CCFFFF" height="32" id="Concretization" rx="2.5" ry="2.5" style="stroke:#A9A9A9;stroke-width:0.5;" width="123" x="1085.5" y="99"/><ellipse cx="1100.5" cy="115" fill="#FFFFFF" rx="11" ry="11" style="stroke:#181818;stroke-width:1.0;"/><path d="M1100.4375,110.8281 Q1099.6875,110.8281 1099.125,111.125 Q1098.5625,111.4063 1098.1719,111.9375 Q1097.7813,112.4688 1097.5781,113.25 Q1097.3906,114.0156 1097.3906,114.9688 Q1097.3906,115.9375 1097.5625,116.7031 Q1097.75,117.4531 1098.1094,117.9688 Q1098.4844,118.4844 1099.0625,118.7656 Q1099.6406,119.0313 1100.4375,119.0313 Q1101.1719,119.0313 1101.9063,118.8594 Q1102.6563,118.6875 1103.5313,118.3906 L1103.5313,120.5469 Q1103.125,120.7031 1102.7344,120.8281 Q1102.3438,120.9375 1101.9375,121.0156 Q1101.5313,121.0938 1101.1094,121.125 Q1100.6875,121.1719 1100.1875,121.1719 Q1098.7813,121.1719 1097.75,120.7188 Q1096.7344,120.2656 1096.0625,119.4531 Q1095.3906,118.6406 1095.0625,117.5 Q1094.7344,116.3438 1094.7344,114.9531 Q1094.7344,113.5781 1095.1094,112.4219 Q1095.4844,111.2656 1096.2031,110.4375 Q1096.9219,109.6094 1097.9844,109.1563 Q1099.0469,108.6875 1100.4375,108.6875 Q1101.3438,108.6875 1102.25,108.9219 Q1103.1563,109.1406 1103.9844,109.5469 L1103.1563,111.6406 Q1102.4688,111.3125 1101.7813,111.0781 Q1101.0938,110.8281 1100.4375,110.8281 Z " fill="#000000"/><text fill="#000000" font-family="sans-serif" font-size="14" lengthAdjust="spacing" textLength="91" x="1114.5" y="119.8467">Concretization</text></g><!--class Type--><g id="elem_Type"><rect codeLine="84" fill="#CCFFFF" height="32" id="Type" rx="2.5" ry="2.5" style="stroke:#A9A9A9;stroke-width:0.5;" width="62" x="572" y="399"/><ellipse cx="587" cy="415" fill="#FFFFFF" rx="11" ry="11" style="stroke:#181818;stroke-width:1.0;"/><path d="M586.9375,410.8281 Q586.1875,410.8281 585.625,411.125 Q585.0625,411.4063 584.6719,411.9375 Q584.2813,412.4688 584.0781,413.25 Q583.8906,414.0156 583.8906,414.9688 Q583.8906,415.9375 584.0625,416.7031 Q584.25,417.4531 584.6094,417.9688 Q584.9844,418.4844 585.5625,418.7656 Q586.1406,419.0313 586.9375,419.0313 Q587.6719,419.0313 588.4063,418.8594 Q589.1563,418.6875 590.0313,418.3906 L590.0313,420.5469 Q589.625,420.7031 589.2344,420.8281 Q588.8438,420.9375 588.4375,421.0156 Q588.0313,421.0938 587.6094,421.125 Q587.1875,421.1719 586.6875,421.1719 Q585.2813,421.1719 584.25,420.7188 Q583.2344,420.2656 582.5625,419.4531 Q581.8906,418.6406 581.5625,417.5 Q581.2344,416.3438 581.2344,414.9531 Q581.2344,413.5781 581.6094,412.4219 Q581.9844,411.2656 582.7031,410.4375 Q583.4219,409.6094 584.4844,409.1563 Q585.5469,408.6875 586.9375,408.6875 Q587.8438,408.6875 588.75,408.9219 Q589.6563,409.1406 590.4844,409.5469 L589.6563,411.6406 Q588.9688,411.3125 588.2813,411.0781 Q587.5938,410.8281 586.9375,410.8281 Z " fill="#000000"/><text fill="#000000" font-family="sans-serif" font-size="14" lengthAdjust="spacing" textLength="30" x="601" y="419.8467">Type</text></g><!--class Alias--><g id="elem_Alias"><rect codeLine="86" fill="#CCFFFF" height="32" id="Alias" rx="2.5" ry="2.5" style="stroke:#A9A9A9;stroke-width:0.5;" width="62" x="1688" y="295"/><ellipse cx="1703" cy="311" fill="#FFFFFF" rx="11" ry="11" style="stroke:#181818;stroke-width:1.0;"/><path d="M1702.9375,306.8281 Q1702.1875,306.8281 1701.625,307.125 Q1701.0625,307.4063 1700.6719,307.9375 Q1700.2813,308.4688 1700.0781,309.25 Q1699.8906,310.0156 1699.8906,310.9688 Q1699.8906,311.9375 1700.0625,312.7031 Q1700.25,313.4531 1700.6094,313.9688 Q1700.9844,314.4844 1701.5625,314.7656 Q1702.1406,315.0313 1702.9375,315.0313 Q1703.6719,315.0313 1704.4063,314.8594 Q1705.1563,314.6875 1706.0313,314.3906 L1706.0313,316.5469 Q1705.625,316.7031 1705.2344,316.8281 Q1704.8438,316.9375 1704.4375,317.0156 Q1704.0313,317.0938 1703.6094,317.125 Q1703.1875,317.1719 1702.6875,317.1719 Q1701.2813,317.1719 1700.25,316.7188 Q1699.2344,316.2656 1698.5625,315.4531 Q1697.8906,314.6406 1697.5625,313.5 Q1697.2344,312.3438 1697.2344,310.9531 Q1697.2344,309.5781 1697.6094,308.4219 Q1697.9844,307.2656 1698.7031,306.4375 Q1699.4219,305.6094 1700.4844,305.1563 Q1701.5469,304.6875 1702.9375,304.6875 Q1703.8438,304.6875 1704.75,304.9219 Q1705.6563,305.1406 1706.4844,305.5469 L1705.6563,307.6406 Q1704.9688,307.3125 1704.2813,307.0781 Q1703.5938,306.8281 1702.9375,306.8281 Z " fill="#000000"/><text fill="#000000" font-family="sans-serif" font-size="14" lengthAdjust="spacing" textLength="30" x="1717" y="315.8467">Alias</text></g><!--class EnumValue--><g id="elem_EnumValue"><rect codeLine="88" fill="#CCFFFF" height="32" id="EnumValue" rx="2.5" ry="2.5" style="stroke:#A9A9A9;stroke-width:0.5;" width="103" x="1785.5" y="295"/><ellipse cx="1800.5" cy="311" fill="#FFFFFF" rx="11" ry="11" style="stroke:#181818;stroke-width:1.0;"/><path d="M1800.4375,306.8281 Q1799.6875,306.8281 1799.125,307.125 Q1798.5625,307.4063 1798.1719,307.9375 Q1797.7813,308.4688 1797.5781,309.25 Q1797.3906,310.0156 1797.3906,310.9688 Q1797.3906,311.9375 1797.5625,312.7031 Q1797.75,313.4531 1798.1094,313.9688 Q1798.4844,314.4844 1799.0625,314.7656 Q1799.6406,315.0313 1800.4375,315.0313 Q1801.1719,315.0313 1801.9063,314.8594 Q1802.6563,314.6875 1803.5313,314.3906 L1803.5313,316.5469 Q1803.125,316.7031 1802.7344,316.8281 Q1802.3438,316.9375 1801.9375,317.0156 Q1801.5313,317.0938 1801.1094,317.125 Q1800.6875,317.1719 1800.1875,317.1719 Q1798.7813,317.1719 1797.75,316.7188 Q1796.7344,316.2656 1796.0625,315.4531 Q1795.3906,314.6406 1795.0625,313.5 Q1794.7344,312.3438 1794.7344,310.9531 Q1794.7344,309.5781 1795.1094,308.4219 Q1795.4844,307.2656 1796.2031,306.4375 Q1796.9219,305.6094 1797.9844,305.1563 Q1799.0469,304.6875 1800.4375,304.6875 Q1801.3438,304.6875 1802.25,304.9219 Q1803.1563,305.1406 1803.9844,305.5469 L1803.1563,307.6406 Q1802.4688,307.3125 1801.7813,307.0781 Q1801.0938,306.8281 1800.4375,306.8281 Z " fill="#000000"/><text fill="#000000" font-family="sans-serif" font-size="14" lengthAdjust="spacing" textLength="71" x="1814.5" y="315.8467">EnumValue</text></g><!--class ParameterConcretization--><g id="elem_ParameterConcretization"><rect codeLine="90" fill="#CCFFFF" height="32" id="ParameterConcretization" rx="2.5" ry="2.5" style="stroke:#A9A9A9;stroke-width:0.5;" width="191" x="1243.5" y="99"/><ellipse cx="1258.5" cy="115" fill="#FFFFFF" rx="11" ry="11" style="stroke:#181818;stroke-width:1.0;"/><path d="M1258.4375,110.8281 Q1257.6875,110.8281 1257.125,111.125 Q1256.5625,111.4063 1256.1719,111.9375 Q1255.7813,112.4688 1255.5781,113.25 Q1255.3906,114.0156 1255.3906,114.9688 Q1255.3906,115.9375 1255.5625,116.7031 Q1255.75,117.4531 1256.1094,117.9688 Q1256.4844,118.4844 1257.0625,118.7656 Q1257.6406,119.0313 1258.4375,119.0313 Q1259.1719,119.0313 1259.9063,118.8594 Q1260.6563,118.6875 1261.5313,118.3906 L1261.5313,120.5469 Q1261.125,120.7031 1260.7344,120.8281 Q1260.3438,120.9375 1259.9375,121.0156 Q1259.5313,121.0938 1259.1094,121.125 Q1258.6875,121.1719 1258.1875,121.1719 Q1256.7813,121.1719 1255.75,120.7188 Q1254.7344,120.2656 1254.0625,119.4531 Q1253.3906,118.6406 1253.0625,117.5 Q1252.7344,116.3438 1252.7344,114.9531 Q1252.7344,113.5781 1253.1094,112.4219 Q1253.4844,111.2656 1254.2031,110.4375 Q1254.9219,109.6094 1255.9844,109.1563 Q1257.0469,108.6875 1258.4375,108.6875 Q1259.3438,108.6875 1260.25,108.9219 Q1261.1563,109.1406 1261.9844,109.5469 L1261.1563,111.6406 Q1260.4688,111.3125 1259.7813,111.0781 Q1259.0938,110.8281 1258.4375,110.8281 Z " fill="#000000"/><text fill="#000000" font-family="sans-serif" font-size="14" lengthAdjust="spacing" textLength="159" x="1272.5" y="119.8467">ParameterConcretization</text></g><!--class SourcedEntity--><g id="elem_SourcedEntity"><rect codeLine="92" fill="#CCFFFF" height="32" id="SourcedEntity" rx="2.5" ry="2.5" style="stroke:#A9A9A9;stroke-width:0.5;" width="119" x="1469.5" y="99"/><ellipse cx="1484.5" cy="115" fill="#FFFFFF" rx="11" ry="11" style="stroke:#181818;stroke-width:1.0;"/><path d="M1484.4375,110.8281 Q1483.6875,110.8281 1483.125,111.125 Q1482.5625,111.4063 1482.1719,111.9375 Q1481.7813,112.4688 1481.5781,113.25 Q1481.3906,114.0156 1481.3906,114.9688 Q1481.3906,115.9375 1481.5625,116.7031 Q1481.75,117.4531 1482.1094,117.9688 Q1482.4844,118.4844 1483.0625,118.7656 Q1483.6406,119.0313 1484.4375,119.0313 Q1485.1719,119.0313 1485.9063,118.8594 Q1486.6563,118.6875 1487.5313,118.3906 L1487.5313,120.5469 Q1487.125,120.7031 1486.7344,120.8281 Q1486.3438,120.9375 1485.9375,121.0156 Q1485.5313,121.0938 1485.1094,121.125 Q1484.6875,121.1719 1484.1875,121.1719 Q1482.7813,121.1719 1481.75,120.7188 Q1480.7344,120.2656 1480.0625,119.4531 Q1479.3906,118.6406 1479.0625,117.5 Q1478.7344,116.3438 1478.7344,114.9531 Q1478.7344,113.5781 1479.1094,112.4219 Q1479.4844,111.2656 1480.2031,110.4375 Q1480.9219,109.6094 1481.9844,109.1563 Q1483.0469,108.6875 1484.4375,108.6875 Q1485.3438,108.6875 1486.25,108.9219 Q1487.1563,109.1406 1487.9844,109.5469 L1487.1563,111.6406 Q1486.4688,111.3125 1485.7813,111.0781 Q1485.0938,110.8281 1484.4375,110.8281 Z " fill="#000000"/><text fill="#000000" font-family="sans-serif" font-size="14" lengthAdjust="spacing" textLength="87" x="1498.5" y="119.8467">SourcedEntity</text></g><!--class SourceLanguage--><g id="elem_SourceLanguage"><rect codeLine="94" fill="#CCFFFF" height="32" id="SourceLanguage" rx="2.5" ry="2.5" style="stroke:#A9A9A9;stroke-width:0.5;" width="134" x="1624" y="99"/><ellipse cx="1639" cy="115" fill="#FFFFFF" rx="11" ry="11" style="stroke:#181818;stroke-width:1.0;"/><path d="M1638.9375,110.8281 Q1638.1875,110.8281 1637.625,111.125 Q1637.0625,111.4063 1636.6719,111.9375 Q1636.2813,112.4688 1636.0781,113.25 Q1635.8906,114.0156 1635.8906,114.9688 Q1635.8906,115.9375 1636.0625,116.7031 Q1636.25,117.4531 1636.6094,117.9688 Q1636.9844,118.4844 1637.5625,118.7656 Q1638.1406,119.0313 1638.9375,119.0313 Q1639.6719,119.0313 1640.4063,118.8594 Q1641.1563,118.6875 1642.0313,118.3906 L1642.0313,120.5469 Q1641.625,120.7031 1641.2344,120.8281 Q1640.8438,120.9375 1640.4375,121.0156 Q1640.0313,121.0938 1639.6094,121.125 Q1639.1875,121.1719 1638.6875,121.1719 Q1637.2813,121.1719 1636.25,120.7188 Q1635.2344,120.2656 1634.5625,119.4531 Q1633.8906,118.6406 1633.5625,117.5 Q1633.2344,116.3438 1633.2344,114.9531 Q1633.2344,113.5781 1633.6094,112.4219 Q1633.9844,111.2656 1634.7031,110.4375 Q1635.4219,109.6094 1636.4844,109.1563 Q1637.5469,108.6875 1638.9375,108.6875 Q1639.8438,108.6875 1640.75,108.9219 Q1641.6563,109.1406 1642.4844,109.5469 L1641.6563,111.6406 Q1640.9688,111.3125 1640.2813,111.0781 Q1639.5938,110.8281 1638.9375,110.8281 Z " fill="#000000"/><text fill="#000000" font-family="sans-serif" font-size="14" lengthAdjust="spacing" textLength="102" x="1653" y="119.8467">SourceLanguage</text></g><!--class ParameterType--><g id="elem_ParameterType"><rect codeLine="96" fill="#CCFFFF" height="32" id="ParameterType" rx="2.5" ry="2.5" style="stroke:#A9A9A9;stroke-width:0.5;" width="130" x="377" y="491"/><ellipse cx="392" cy="507" fill="#FFFFFF" rx="11" ry="11" style="stroke:#181818;stroke-width:1.0;"/><path d="M391.9375,502.8281 Q391.1875,502.8281 390.625,503.125 Q390.0625,503.4063 389.6719,503.9375 Q389.2813,504.4688 389.0781,505.25 Q388.8906,506.0156 388.8906,506.9688 Q388.8906,507.9375 389.0625,508.7031 Q389.25,509.4531 389.6094,509.9688 Q389.9844,510.4844 390.5625,510.7656 Q391.1406,511.0313 391.9375,511.0313 Q392.6719,511.0313 393.4063,510.8594 Q394.1563,510.6875 395.0313,510.3906 L395.0313,512.5469 Q394.625,512.7031 394.2344,512.8281 Q393.8438,512.9375 393.4375,513.0156 Q393.0313,513.0938 392.6094,513.125 Q392.1875,513.1719 391.6875,513.1719 Q390.2813,513.1719 389.25,512.7188 Q388.2344,512.2656 387.5625,511.4531 Q386.8906,510.6406 386.5625,509.5 Q386.2344,508.3438 386.2344,506.9531 Q386.2344,505.5781 386.6094,504.4219 Q386.9844,503.2656 387.7031,502.4375 Q388.4219,501.6094 389.4844,501.1563 Q390.5469,500.6875 391.9375,500.6875 Q392.8438,500.6875 393.75,500.9219 Q394.6563,501.1406 395.4844,501.5469 L394.6563,503.6406 Q393.9688,503.3125 393.2813,503.0781 Q392.5938,502.8281 391.9375,502.8281 Z " fill="#000000"/><text fill="#000000" font-family="sans-serif" font-size="14" lengthAdjust="spacing" textLength="98" x="406" y="511.8467">ParameterType</text></g><!--class Function--><g id="elem_Function"><rect codeLine="98" fill="#CCFFFF" height="32" id="Function" rx="2.5" ry="2.5" style="stroke:#A9A9A9;stroke-width:0.5;" width="86" x="870" y="399"/><ellipse cx="885" cy="415" fill="#FFFFFF" rx="11" ry="11" style="stroke:#181818;stroke-width:1.0;"/><path d="M884.9375,410.8281 Q884.1875,410.8281 883.625,411.125 Q883.0625,411.4063 882.6719,411.9375 Q882.2813,412.4688 882.0781,413.25 Q881.8906,414.0156 881.8906,414.9688 Q881.8906,415.9375 882.0625,416.7031 Q882.25,417.4531 882.6094,417.9688 Q882.9844,418.4844 883.5625,418.7656 Q884.1406,419.0313 884.9375,419.0313 Q885.6719,419.0313 886.4063,418.8594 Q887.1563,418.6875 888.0313,418.3906 L888.0313,420.5469 Q887.625,420.7031 887.2344,420.8281 Q886.8438,420.9375 886.4375,421.0156 Q886.0313,421.0938 885.6094,421.125 Q885.1875,421.1719 884.6875,421.1719 Q883.2813,421.1719 882.25,420.7188 Q881.2344,420.2656 880.5625,419.4531 Q879.8906,418.6406 879.5625,417.5 Q879.2344,416.3438 879.2344,414.9531 Q879.2344,413.5781 879.6094,412.4219 Q879.9844,411.2656 880.7031,410.4375 Q881.4219,409.6094 882.4844,409.1563 Q883.5469,408.6875 884.9375,408.6875 Q885.8438,408.6875 886.75,408.9219 Q887.6563,409.1406 888.4844,409.5469 L887.6563,411.6406 Q886.9688,411.3125 886.2813,411.0781 Q885.5938,410.8281 884.9375,410.8281 Z " fill="#000000"/><text fill="#000000" font-family="sans-serif" font-size="14" lengthAdjust="spacing" textLength="54" x="899" y="419.8467">Function</text></g><!--class ParametricClass--><g id="elem_ParametricClass"><rect codeLine="100" fill="#CCFFFF" height="32" id="ParametricClass" rx="2.5" ry="2.5" style="stroke:#A9A9A9;stroke-width:0.5;" width="133" x="83.5" y="583"/><ellipse cx="98.5" cy="599" fill="#FFFFFF" rx="11" ry="11" style="stroke:#181818;stroke-width:1.0;"/><path d="M98.4375,594.8281 Q97.6875,594.8281 97.125,595.125 Q96.5625,595.4063 96.1719,595.9375 Q95.7813,596.4688 95.5781,597.25 Q95.3906,598.0156 95.3906,598.9688 Q95.3906,599.9375 95.5625,600.7031 Q95.75,601.4531 96.1094,601.9688 Q96.4844,602.4844 97.0625,602.7656 Q97.6406,603.0313 98.4375,603.0313 Q99.1719,603.0313 99.9063,602.8594 Q100.6563,602.6875 101.5313,602.3906 L101.5313,604.5469 Q101.125,604.7031 100.7344,604.8281 Q100.3438,604.9375 99.9375,605.0156 Q99.5313,605.0938 99.1094,605.125 Q98.6875,605.1719 98.1875,605.1719 Q96.7813,605.1719 95.75,604.7188 Q94.7344,604.2656 94.0625,603.4531 Q93.3906,602.6406 93.0625,601.5 Q92.7344,600.3438 92.7344,598.9531 Q92.7344,597.5781 93.1094,596.4219 Q93.4844,595.2656 94.2031,594.4375 Q94.9219,593.6094 95.9844,593.1563 Q97.0469,592.6875 98.4375,592.6875 Q99.3438,592.6875 100.25,592.9219 Q101.1563,593.1406 101.9844,593.5469 L101.1563,595.6406 Q100.4688,595.3125 99.7813,595.0781 Q99.0938,594.8281 98.4375,594.8281 Z " fill="#000000"/><text fill="#000000" font-family="sans-serif" font-size="14" lengthAdjust="spacing" textLength="101" x="112.5" y="603.8467">ParametricClass</text></g><!--class ContainerEntity--><g id="elem_ContainerEntity"><rect codeLine="102" fill="#CCFFFF" height="32" id="ContainerEntity" rx="2.5" ry="2.5" style="stroke:#A9A9A9;stroke-width:0.5;" width="130" x="848" y="295"/><ellipse cx="863" cy="311" fill="#FFFFFF" rx="11" ry="11" style="stroke:#181818;stroke-width:1.0;"/><path d="M862.9375,306.8281 Q862.1875,306.8281 861.625,307.125 Q861.0625,307.4063 860.6719,307.9375 Q860.2813,308.4688 860.0781,309.25 Q859.8906,310.0156 859.8906,310.9688 Q859.8906,311.9375 860.0625,312.7031 Q860.25,313.4531 860.6094,313.9688 Q860.9844,314.4844 861.5625,314.7656 Q862.1406,315.0313 862.9375,315.0313 Q863.6719,315.0313 864.4063,314.8594 Q865.1563,314.6875 866.0313,314.3906 L866.0313,316.5469 Q865.625,316.7031 865.2344,316.8281 Q864.8438,316.9375 864.4375,317.0156 Q864.0313,317.0938 863.6094,317.125 Q863.1875,317.1719 862.6875,317.1719 Q861.2813,317.1719 860.25,316.7188 Q859.2344,316.2656 858.5625,315.4531 Q857.8906,314.6406 857.5625,313.5 Q857.2344,312.3438 857.2344,310.9531 Q857.2344,309.5781 857.6094,308.4219 Q857.9844,307.2656 858.7031,306.4375 Q859.4219,305.6094 860.4844,305.1563 Q861.5469,304.6875 862.9375,304.6875 Q863.8438,304.6875 864.75,304.9219 Q865.6563,305.1406 866.4844,305.5469 L865.6563,307.6406 Q864.9688,307.3125 864.2813,307.0781 Q863.5938,306.8281 862.9375,306.8281 Z " fill="#000000"/><text fill="#000000" font-family="sans-serif" font-size="14" lengthAdjust="spacing" textLength="98" x="877" y="315.8467">ContainerEntity</text></g><!--reverse link Variable to implicitVariable--><g id="link_Variable_implicitVariable"><path codeLine="104" d="M1412,347.19 C1412,364.84 1412,385.31 1412,398.89 " fill="none" id="Variable-backto-implicitVariable" style="stroke:#000000;stroke-width:1.0;"/><polygon fill="none" points="1405,347.05,1412,327.05,1419,347.05,1405,347.05" style="stroke:#000000;stroke-width:1.0;"/></g><!--reverse link Entity to Invocation--><g id="link_Entity_Invocation"><path codeLine="105" d="M772.75,29.37 C670.07,39.9 440.45,65.22 249,99 C243.25,100.01 237.24,101.19 231.29,102.43 " fill="none" id="Entity-backto-Invocation" style="stroke:#000000;stroke-width:1.0;"/><polygon fill="none" points="772.35,22.37,792.96,27.32,773.77,36.3,772.35,22.37" style="stroke:#000000;stroke-width:1.0;"/></g><!--reverse link NamedEntity to Parameter--><g id="link_NamedEntity_Parameter"><path codeLine="106" d="M1538.75,223.34 C1398.91,249.65 1358.5,244.84 1229,283 C1217.93,286.26 1206.17,290.67 1195.63,294.97 " fill="none" id="NamedEntity-backto-Parameter" style="stroke:#000000;stroke-width:1.0;"/><polygon fill="none" points="1537.72,216.41,1558.68,219.51,1540.36,230.16,1537.72,216.41" style="stroke:#000000;stroke-width:1.0;"/></g><!--reverse link ContainerEntity to Namespace--><g id="link_ContainerEntity_Namespace"><path codeLine="107" d="M948.27,339.46 C972.78,358.55 1004.53,383.27 1024.59,398.89 " fill="none" id="ContainerEntity-backto-Namespace" style="stroke:#000000;stroke-width:1.0;"/><polygon fill="none" points="943.81,344.86,932.33,327.05,952.41,333.81,943.81,344.86" style="stroke:#000000;stroke-width:1.0;"/></g><!--reverse link SourceAnchor to SourceTextAnchor--><g id="link_SourceAnchor_SourceTextAnchor"><path codeLine="108" d="M990,151.61 C990,165.31 990,180.22 990,190.96 " fill="none" id="SourceAnchor-backto-SourceTextAnchor" style="stroke:#000000;stroke-width:1.0;"/><polygon fill="none" points="983,151.27,990,131.27,997,151.27,983,151.27" style="stroke:#000000;stroke-width:1.0;"/></g><!--reverse link Entity to Reference--><g id="link_Entity_Reference"><path codeLine="109" d="M772.73,32.11 C688.58,44.91 521.66,71.21 381,99 C375.35,100.12 369.45,101.35 363.59,102.63 " fill="none" id="Entity-backto-Reference" style="stroke:#000000;stroke-width:1.0;"/><polygon fill="none" points="771.93,25.15,792.75,29.08,774.02,38.99,771.93,25.15" style="stroke:#000000;stroke-width:1.0;"/></g><!--reverse link SourcedEntity to Comment--><g id="link_SourcedEntity_Comment"><path codeLine="110" d="M1485.38,141.33 C1457.88,157.29 1423.3,177.37 1400.03,190.89 " fill="none" id="SourcedEntity-backto-Comment" style="stroke:#000000;stroke-width:1.0;"/><polygon fill="none" points="1482.25,135.05,1503.06,131.06,1489.28,147.16,1482.25,135.05" style="stroke:#000000;stroke-width:1.0;"/></g><!--reverse link Type to PrimitiveType--><g id="link_Type_PrimitiveType"><path codeLine="111" d="M603,451.61 C603,465.31 603,480.22 603,490.96 " fill="none" id="Type-backto-PrimitiveType" style="stroke:#000000;stroke-width:1.0;"/><polygon fill="none" points="596,451.27,603,431.27,610,451.27,596,451.27" style="stroke:#000000;stroke-width:1.0;"/></g><!--reverse link ScriptEntity to Module--><g id="link_ScriptEntity_Module"><path codeLine="112" d="M59,451.61 C59,465.31 59,480.22 59,490.96 " fill="none" id="ScriptEntity-backto-Module" style="stroke:#000000;stroke-width:1.0;"/><polygon fill="none" points="52,451.27,59,431.27,66,451.27,52,451.27" style="stroke:#000000;stroke-width:1.0;"/></g><!--reverse link NamedEntity to Decorator--><g id="link_NamedEntity_Decorator"><path codeLine="113" d="M1686.2,228.06 C1741.65,242.29 1820.38,262.43 1889,283 C1900.11,286.33 1911.99,290.21 1923.59,293.98 " fill="none" id="NamedEntity-backto-Decorator" style="stroke:#000000;stroke-width:1.0;"/><polygon fill="none" points="1684.15,234.76,1666.52,223,1687.63,221.2,1684.15,234.76" style="stroke:#000000;stroke-width:1.0;"/></g><!--link Decorator to NamedEntity--><g id="link_Decorator_NamedEntity"><path codeLine="150" d="M1924.42,283.13 C1924.28,283.08 1924.14,283.04 1924,283 C1837.95,257.21 1735.98,232.07 1673.23,218.45 " fill="none" id="Decorator-NamedEntity" style="stroke:#000000;stroke-width:1.0;"/><text fill="#000000" font-family="sans-serif" font-size="13" lengthAdjust="spacing" textLength="71" x="1844.8629" y="277.0394">decorators*</text><text fill="#000000" font-family="sans-serif" font-size="13" lengthAdjust="spacing" textLength="92" x="1681.1335" y="215.8244">decoratedEntity</text></g><!--reverse link ContainerEntity to Method--><g id="link_ContainerEntity_Method"><path codeLine="114" d="M977.58,333.39 C1038.7,353.63 1128.57,383.39 1180.29,400.52 " fill="none" id="ContainerEntity-backto-Method" style="stroke:#000000;stroke-width:1.0;"/><polygon fill="none" points="975.23,339.98,958.45,327.05,979.63,326.69,975.23,339.98" style="stroke:#000000;stroke-width:1.0;"/></g><!--reverse link Entity to Inheritance--><g id="link_Entity_Inheritance"><path codeLine="115" d="M773.42,36.83 C701.64,54.01 575.04,84.31 503.71,101.38 " fill="none" id="Entity-backto-Inheritance" style="stroke:#000000;stroke-width:1.0;"/><polygon fill="none" points="771.89,29.99,792.97,32.15,775.15,43.61,771.89,29.99" style="stroke:#000000;stroke-width:1.0;"/></g><!--reverse link ContainerEntity to ScriptEntity--><g id="link_ContainerEntity_ScriptEntity"><path codeLine="116" d="M827.77,318.63 C683.38,330.49 381.69,358.01 129,399 C123.23,399.94 117.23,401.03 111.26,402.2 " fill="none" id="ContainerEntity-backto-ScriptEntity" style="stroke:#000000;stroke-width:1.0;"/><polygon fill="none" points="827.41,311.64,847.91,316.99,828.54,325.59,827.41,311.64" style="stroke:#000000;stroke-width:1.0;"/></g><!--reverse link NamedEntity to Property--><g id="link_NamedEntity_Property"><path codeLine="117" d="M1539.49,226.71 C1486.3,240.45 1414.09,260.57 1352,283 C1342.31,286.5 1331.98,290.83 1322.63,294.99 " fill="none" id="NamedEntity-backto-Property" style="stroke:#000000;stroke-width:1.0;"/><polygon fill="none" points="1537.77,219.92,1558.88,221.76,1541.23,233.49,1537.77,219.92" style="stroke:#000000;stroke-width:1.0;"/></g><!--reverse link Entity to Access--><g id="link_Entity_Access"><path codeLine="118" d="M773.69,43.04 C724.98,60.44 654.24,85.7 611.63,100.92 " fill="none" id="Entity-backto-Access" style="stroke:#000000;stroke-width:1.0;"/><polygon fill="none" points="771.56,36.37,792.75,36.23,776.27,49.55,771.56,36.37" style="stroke:#000000;stroke-width:1.0;"/></g><!--reverse link Type to VariableStatement--><g id="link_Type_VariableStatement"><path codeLine="119" d="M649.54,440.64 C679.9,456.71 718.56,477.18 744.45,490.89 " fill="none" id="Type-backto-VariableStatement" style="stroke:#000000;stroke-width:1.0;"/><polygon fill="none" points="645.85,446.61,631.45,431.06,652.41,434.24,645.85,446.61" style="stroke:#000000;stroke-width:1.0;"/></g><!--reverse link Method to Accessor--><g id="link_Method_Accessor"><path codeLine="120" d="M1221,451.61 C1221,465.31 1221,480.22 1221,490.96 " fill="none" id="Method-backto-Accessor" style="stroke:#000000;stroke-width:1.0;"/><polygon fill="none" points="1214,451.27,1221,431.27,1228,451.27,1214,451.27" style="stroke:#000000;stroke-width:1.0;"/></g><!--reverse link NamedEntity to Variable--><g id="link_NamedEntity_Variable"><path codeLine="121" d="M1567.86,232.07 C1528.94,251.53 1475.35,278.33 1442.22,294.89 " fill="none" id="NamedEntity-backto-Variable" style="stroke:#000000;stroke-width:1.0;"/><polygon fill="none" points="1564.88,225.73,1585.9,223.05,1571.14,238.26,1564.88,225.73" style="stroke:#000000;stroke-width:1.0;"/></g><!--reverse link Entity to Import--><g id="link_Entity_Import"><path codeLine="122" d="M786.31,49.79 C761.24,65.68 729.96,85.5 708.85,98.89 " fill="none" id="Entity-backto-Import" style="stroke:#000000;stroke-width:1.0;"/><polygon fill="none" points="782.59,43.86,803.23,39.06,790.09,55.68,782.59,43.86" style="stroke:#000000;stroke-width:1.0;"/></g><!--reverse link Type to Enum--><g id="link_Type_Enum"><path codeLine="123" d="M653.59,430.45 C706.36,445.53 791.5,469.88 865,491 C870.78,492.66 876.92,494.43 882.88,496.15 " fill="none" id="Type-backto-Enum" style="stroke:#000000;stroke-width:1.0;"/><polygon fill="none" points="651.37,437.09,634.06,424.87,655.21,423.63,651.37,437.09" style="stroke:#000000;stroke-width:1.0;"/></g><!--reverse link Entity to Implementation--><g id="link_Entity_Implementation"><path codeLine="124" d="M827,59.61 C827,73.31 827,88.22 827,98.96 " fill="none" id="Entity-backto-Implementation" style="stroke:#000000;stroke-width:1.0;"/><polygon fill="none" points="820,59.27,827,39.27,834,59.27,820,59.27" style="stroke:#000000;stroke-width:1.0;"/></g><!--reverse link Type to Interface--><g id="link_Type_Interface"><path codeLine="125" d="M552.59,430.83 C494.05,448.04 398.37,476.19 342.17,492.72 " fill="none" id="Type-backto-Interface" style="stroke:#000000;stroke-width:1.0;"/><polygon fill="none" points="550.81,424.05,571.98,425.12,554.76,437.48,550.81,424.05" style="stroke:#000000;stroke-width:1.0;"/></g><!--reverse link SourcedEntity to JSDoc--><g id="link_SourcedEntity_JSDoc"><path codeLine="126" d="M1514.42,149.64 C1508.26,163.86 1501.4,179.7 1496.52,190.96 " fill="none" id="SourcedEntity-backto-JSDoc" style="stroke:#000000;stroke-width:1.0;"/><polygon fill="none" points="1508.01,146.84,1522.38,131.27,1520.85,152.4,1508.01,146.84" style="stroke:#000000;stroke-width:1.0;"/></g><!--reverse link NamedEntity to File--><g id="link_NamedEntity_File"><path codeLine="127" d="M1587.45,237.42 C1569.21,256.21 1546.31,279.8 1531.67,294.89 " fill="none" id="NamedEntity-backto-File" style="stroke:#000000;stroke-width:1.0;"/><polygon fill="none" points="1582.44,232.53,1601.39,223.05,1592.49,242.28,1582.44,232.53" style="stroke:#000000;stroke-width:1.0;"/></g><!--reverse link NamedEntity to Folder--><g id="link_NamedEntity_Folder"><path codeLine="128" d="M1616,243.19 C1616,260.84 1616,281.31 1616,294.89 " fill="none" id="NamedEntity-backto-Folder" style="stroke:#000000;stroke-width:1.0;"/><polygon fill="none" points="1609,243.05,1616,223.05,1623,243.05,1609,243.05" style="stroke:#000000;stroke-width:1.0;"/></g><!--reverse link SourceAnchor to IndexedFileAnchor--><g id="link_SourceAnchor_IndexedFileAnchor"><path codeLine="129" d="M1039.25,139.96 C1072.49,156.13 1115.35,176.98 1143.93,190.89 " fill="none" id="SourceAnchor-backto-IndexedFileAnchor" style="stroke:#000000;stroke-width:1.0;"/><polygon fill="none" points="1035.89,146.11,1020.96,131.06,1042.01,133.52,1035.89,146.11" style="stroke:#000000;stroke-width:1.0;"/></g><!--reverse link Entity to SourceAnchor--><g id="link_Entity_SourceAnchor"><path codeLine="130" d="M872.04,48.87 C901.09,64.91 937.92,85.24 962.63,98.89 " fill="none" id="Entity-backto-SourceAnchor" style="stroke:#000000;stroke-width:1.0;"/><polygon fill="none" points="868.41,54.86,854.28,39.06,875.17,42.6,868.41,54.86" style="stroke:#000000;stroke-width:1.0;"/></g><!--reverse link Function to ParametricFunction--><g id="link_Function_ParametricFunction"><path codeLine="131" d="M955.5,441.33 C982.28,457.29 1015.97,477.37 1038.64,490.89 " fill="none" id="Function-backto-ParametricFunction" style="stroke:#000000;stroke-width:1.0;"/><polygon fill="none" points="951.87,447.32,938.27,431.06,959.04,435.29,951.87,447.32" style="stroke:#000000;stroke-width:1.0;"/></g><!--reverse link Method to ParametricMethod--><g id="link_Method_ParametricMethod"><path codeLine="132" d="M1264.34,441.33 C1291.66,457.29 1326.02,477.37 1349.14,490.89 " fill="none" id="Method-backto-ParametricMethod" style="stroke:#000000;stroke-width:1.0;"/><polygon fill="none" points="1260.51,447.2,1246.78,431.06,1267.58,435.11,1260.51,447.2" style="stroke:#000000;stroke-width:1.0;"/></g><!--reverse link SourcedEntity to NamedEntity--><g id="link_SourcedEntity_NamedEntity"><path codeLine="133" d="M1557.77,145.77 C1572.41,160.91 1589.58,178.67 1601.46,190.96 " fill="none" id="SourcedEntity-backto-NamedEntity" style="stroke:#000000;stroke-width:1.0;"/><polygon fill="none" points="1552.63,150.51,1543.76,131.27,1562.69,140.78,1552.63,150.51" style="stroke:#000000;stroke-width:1.0;"/></g><!--reverse link Type to Class--><g id="link_Type_Class"><path codeLine="134" d="M551.52,424.84 C479.87,437.51 346.26,462.48 234,491 C228.31,492.45 222.3,494.14 216.5,495.87 " fill="none" id="Type-backto-Class" style="stroke:#000000;stroke-width:1.0;"/><polygon fill="none" points="550.76,417.87,571.67,421.31,553.18,431.66,550.76,417.87" style="stroke:#000000;stroke-width:1.0;"/></g><!--reverse link Interface to ParametricInterface--><g id="link_Interface_ParametricInterface"><path codeLine="135" d="M310.27,542.13 C315.75,556.23 321.82,571.83 326.15,582.96 " fill="none" id="Interface-backto-ParametricInterface" style="stroke:#000000;stroke-width:1.0;"/><polygon fill="none" points="303.66,544.44,302.94,523.27,316.71,539.37,303.66,544.44" style="stroke:#000000;stroke-width:1.0;"/></g><!--reverse link Entity to Concretization--><g id="link_Entity_Concretization"><path codeLine="136" d="M880.56,39.06 C939.67,55.69 1034.25,82.29 1093.38,98.92 " fill="none" id="Entity-backto-Concretization" style="stroke:#000000;stroke-width:1.0;"/><polygon fill="none" points="878.6,45.79,861.25,33.63,882.39,32.31,878.6,45.79" style="stroke:#000000;stroke-width:1.0;"/></g><!--reverse link ContainerEntity to Type--><g id="link_ContainerEntity_Type"><path codeLine="137" d="M848.07,333.36 C782.55,354.92 684.14,387.3 634.31,403.7 " fill="none" id="ContainerEntity-backto-Type" style="stroke:#000000;stroke-width:1.0;"/><polygon fill="none" points="846.07,326.65,867.26,327.05,850.45,339.95,846.07,326.65" style="stroke:#000000;stroke-width:1.0;"/></g><!--reverse link NamedEntity to Alias--><g id="link_NamedEntity_Alias"><path codeLine="138" d="M1645.42,237.14 C1664.44,255.97 1688.43,279.72 1703.74,294.89 " fill="none" id="NamedEntity-backto-Alias" style="stroke:#000000;stroke-width:1.0;"/><polygon fill="none" points="1640.48,242.1,1631.2,223.05,1650.33,232.15,1640.48,242.1" style="stroke:#000000;stroke-width:1.0;"/></g><!--reverse link NamedEntity to EnumValue--><g id="link_NamedEntity_EnumValue"><path codeLine="139" d="M1667,231.54 C1709.26,251.04 1768.05,278.18 1804.26,294.89 " fill="none" id="NamedEntity-backto-EnumValue" style="stroke:#000000;stroke-width:1.0;"/><polygon fill="none" points="1663.84,237.79,1648.61,223.05,1669.7,225.08,1663.84,237.79" style="stroke:#000000;stroke-width:1.0;"/></g><!--reverse link Entity to ParameterConcretization--><g id="link_Entity_ParameterConcretization"><path codeLine="140" d="M881.22,33.53 C970.06,49.15 1147.31,80.3 1253.3,98.94 " fill="none" id="Entity-backto-ParameterConcretization" style="stroke:#000000;stroke-width:1.0;"/><polygon fill="none" points="879.87,40.4,861.39,30.04,882.3,26.61,879.87,40.4" style="stroke:#000000;stroke-width:1.0;"/></g><!--reverse link Entity to SourcedEntity--><g id="link_Entity_SourcedEntity"><path codeLine="141" d="M881.42,29.18 C990.17,39.83 1241.95,65.98 1452,99 C1457.65,99.89 1463.52,100.89 1469.38,101.94 " fill="none" id="Entity-backto-SourcedEntity" style="stroke:#000000;stroke-width:1.0;"/><polygon fill="none" points="880.57,36.13,861.33,27.23,881.92,22.2,880.57,36.13" style="stroke:#000000;stroke-width:1.0;"/></g><!--reverse link Entity to SourceLanguage--><g id="link_Entity_SourceLanguage"><path codeLine="142" d="M881.28,27.75 C1008.36,36.84 1334.93,62.09 1606,99 C1611.79,99.79 1617.79,100.68 1623.8,101.64 " fill="none" id="Entity-backto-SourceLanguage" style="stroke:#000000;stroke-width:1.0;"/><polygon fill="none" points="880.74,34.73,861.28,26.33,881.72,20.76,880.74,34.73" style="stroke:#000000;stroke-width:1.0;"/></g><!--reverse link Type to ParameterType--><g id="link_Type_ParameterType"><path codeLine="143" d="M558.51,440.87 C529.82,456.91 493.44,477.24 469.04,490.89 " fill="none" id="Type-backto-ParameterType" style="stroke:#000000;stroke-width:1.0;"/><polygon fill="none" points="555.18,434.71,576.05,431.06,562.01,446.93,555.18,434.71" style="stroke:#000000;stroke-width:1.0;"/></g><!--reverse link ContainerEntity to Function--><g id="link_ContainerEntity_Function"><path codeLine="144" d="M913,347.19 C913,364.84 913,385.31 913,398.89 " fill="none" id="ContainerEntity-backto-Function" style="stroke:#000000;stroke-width:1.0;"/><polygon fill="none" points="906,347.05,913,327.05,920,347.05,906,347.05" style="stroke:#000000;stroke-width:1.0;"/></g><!--reverse link Class to ParametricClass--><g id="link_Class_ParametricClass"><path codeLine="145" d="M171.73,542.13 C166.25,556.23 160.18,571.83 155.85,582.96 " fill="none" id="Class-backto-ParametricClass" style="stroke:#000000;stroke-width:1.0;"/><polygon fill="none" points="165.29,539.37,179.06,523.27,178.34,544.44,165.29,539.37" style="stroke:#000000;stroke-width:1.0;"/></g><!--reverse link NamedEntity to ContainerEntity--><g id="link_NamedEntity_ContainerEntity"><path codeLine="146" d="M1538.71,223.18 C1339.91,255.96 1286.17,255.77 1094,283 C1055.62,288.44 1012.72,294.82 978.31,300.02 " fill="none" id="NamedEntity-backto-ContainerEntity" style="stroke:#000000;stroke-width:1.0;"/><polygon fill="none" points="1537.86,216.22,1558.74,219.84,1540.16,230.03,1537.86,216.22" style="stroke:#000000;stroke-width:1.0;"/></g><!--reverse link TEntityCreator to FamixTypeScriptModel--><g id="link_TEntityCreator_FamixTypeScriptModel"><path codeLine="147" d="M1881,59.61 C1881,73.31 1881,88.22 1881,98.96 " fill="none" id="TEntityCreator-backto-FamixTypeScriptModel" style="stroke:#000000;stroke-width:1.0;stroke-dasharray:7.0,7.0;"/><polygon fill="none" points="1874,59.27,1881,39.27,1888,59.27,1874,59.27" style="stroke:#000000;stroke-width:1.0;"/></g><!--reverse link TClassMetrics to Class--><g id="link_TClassMetrics_Class"><path codeLine="148" d="M197.2,451.12 C194.12,464.95 190.76,480.09 188.34,490.96 " fill="none" id="TClassMetrics-backto-Class" style="stroke:#000000;stroke-width:1.0;stroke-dasharray:7.0,7.0;"/><polygon fill="none" points="190.44,449.27,201.61,431.27,204.1,452.31,190.44,449.27" style="stroke:#000000;stroke-width:1.0;"/></g><!--reverse link TWithInterfaces to ContainerEntity--><g id="link_TWithInterfaces_ContainerEntity"><path codeLine="149" d="M843.53,237.7 C861.55,256.45 884.06,279.87 898.48,294.89 " fill="none" id="TWithInterfaces-backto-ContainerEntity" style="stroke:#000000;stroke-width:1.0;stroke-dasharray:7.0,7.0;"/><polygon fill="none" points="838.27,242.32,829.46,223.05,848.36,232.62,838.27,242.32" style="stroke:#000000;stroke-width:1.0;"/></g><!--SRC=[dLTHRziW47xdLw3iPPlQ_eAgKkOsKwPrgfQeUoRucg3QO9rncsxTVn-OsCR6AdHvIGJ7tNV7Tz-HWyY1Gbdf5rf2kGEiIVqePCMGbPGNhAxf7qBf5yOVzwWQcMUgK4YV3qA3MLyYgcUtj2kCZJLLc0EwjPpXurTaB-GlSRv4MHM22ttFKB1T0VJoycDsrdhxT7L5FsJPodnCoEx0zfVGXxNKW0-CGstjjs_Ph-MJuamB9QEkxsoEO3n7BNyOkxeoyQEMArQAu_QbWWr7KUbRbKCHFRHH3NBOmb4l9J-eE9wVy008CW7F7OfIQF445bFKEbDb2L97xMv17rGUDRi6hf3fDnAYTADHo3s5OuLGr-RQXY0gRn88ifO7GA5PIZNSfTn8BGpTuwLJ5M22uJQpNwOcA7YSe4jkQ5p7dJgK6K9Nm3UzTlsqqKn3qXqw70baIsxLTLafZ0U-aKsPugjeyqXhvLuWuWqg4ZBvjhbMFEvA5Nc2UBZkJknigpHv8a5RsYMK9eSZv3RlH0of_U7aqv0-lVh3cLKZ-NjKsXn9L9rCIOwWnUyqwYG9ux8Gh4vYzZqh6aWVFUy4wxYKIX1d_Pt9VSFsxm2LL9B_kC0qmfgIQ2OaO3JBGPbUpy-3fmNfpjlDuLb0HYrcz_gyIH3QRlV3dumxsUvD9_SePZ-boUJQxEPfr19NwnQ6Fwh9U5JPVJSFG_Zzb9s7xxfcKen-PCwVyOFFrEiq64S-tJZnqWac4kdwTp0tc0FlyzVNZXRFkssrgOKtC3pBNfpcRg4L-X235SkPrLRlPrWGIEm8cMzFXgxncEV9uQX8K-cRoy13wINTTXhnT7diRgZ9c9A-5iqpe-LcK9bM7iFbNW_9RBjDueKrw_8ATpfDyzl7Lwzvy7sHJq8qBeghMP34n1EPFinUBovcN_rayYoqTYv4y9UctPg46TxEYxpxMNzUK8EeM-XmBdmI_0C0]--></g></svg>