<?xml version="1.0" encoding="us-ascii" standalone="no"?><svg xmlns="http://www.w3.org/2000/svg" xmlns:xlink="http://www.w3.org/1999/xlink" contentStyleType="text/css" height="719px" preserveAspectRatio="none" style="width:3356px;height:719px;background:#FFFFFF;" version="1.1" viewBox="0 0 3356 719" width="3356px" zoomAndPan="magnify"><defs/><g><!--class ScriptEntity--><g id="elem_ScriptEntity"><rect codeLine="7" fill="#CCFFFF" height="32" id="ScriptEntity" rx="2.5" ry="2.5" style="stroke:#A9A9A9;stroke-width:0.5;" width="104" x="841.5" y="588"/><ellipse cx="856.5" cy="604" fill="#FFFFFF" rx="11" ry="11" style="stroke:#181818;stroke-width:1.0;"/><path d="M856.4375,599.8281 Q855.6875,599.8281 855.125,600.125 Q854.5625,600.4063 854.1719,600.9375 Q853.7813,601.4688 853.5781,602.25 Q853.3906,603.0156 853.3906,603.9688 Q853.3906,604.9375 853.5625,605.7031 Q853.75,606.4531 854.1094,606.9688 Q854.4844,607.4844 855.0625,607.7656 Q855.6406,608.0313 856.4375,608.0313 Q857.1719,608.0313 857.9063,607.8594 Q858.6563,607.6875 859.5313,607.3906 L859.5313,609.5469 Q859.125,609.7031 858.7344,609.8281 Q858.3438,609.9375 857.9375,610.0156 Q857.5313,610.0938 857.1094,610.125 Q856.6875,610.1719 856.1875,610.1719 Q854.7813,610.1719 853.75,609.7188 Q852.7344,609.2656 852.0625,608.4531 Q851.3906,607.6406 851.0625,606.5 Q850.7344,605.3438 850.7344,603.9531 Q850.7344,602.5781 851.1094,601.4219 Q851.4844,600.2656 852.2031,599.4375 Q852.9219,598.6094 853.9844,598.1563 Q855.0469,597.6875 856.4375,597.6875 Q857.3438,597.6875 858.25,597.9219 Q859.1563,598.1406 859.9844,598.5469 L859.1563,600.6406 Q858.4688,600.3125 857.7813,600.0781 Q857.0938,599.8281 856.4375,599.8281 Z " fill="#000000"/><text fill="#000000" font-family="sans-serif" font-size="14" lengthAdjust="spacing" textLength="72" x="870.5" y="608.8467">ScriptEntity</text></g><!--class File--><g id="elem_File"><rect codeLine="9" fill="#CCFFFF" height="32" id="File" rx="2.5" ry="2.5" style="stroke:#A9A9A9;stroke-width:0.5;" width="55" x="1370" y="319"/><ellipse cx="1385" cy="335" fill="#FFFFFF" rx="11" ry="11" style="stroke:#181818;stroke-width:1.0;"/><path d="M1384.9375,330.8281 Q1384.1875,330.8281 1383.625,331.125 Q1383.0625,331.4063 1382.6719,331.9375 Q1382.2813,332.4688 1382.0781,333.25 Q1381.8906,334.0156 1381.8906,334.9688 Q1381.8906,335.9375 1382.0625,336.7031 Q1382.25,337.4531 1382.6094,337.9688 Q1382.9844,338.4844 1383.5625,338.7656 Q1384.1406,339.0313 1384.9375,339.0313 Q1385.6719,339.0313 1386.4063,338.8594 Q1387.1563,338.6875 1388.0313,338.3906 L1388.0313,340.5469 Q1387.625,340.7031 1387.2344,340.8281 Q1386.8438,340.9375 1386.4375,341.0156 Q1386.0313,341.0938 1385.6094,341.125 Q1385.1875,341.1719 1384.6875,341.1719 Q1383.2813,341.1719 1382.25,340.7188 Q1381.2344,340.2656 1380.5625,339.4531 Q1379.8906,338.6406 1379.5625,337.5 Q1379.2344,336.3438 1379.2344,334.9531 Q1379.2344,333.5781 1379.6094,332.4219 Q1379.9844,331.2656 1380.7031,330.4375 Q1381.4219,329.6094 1382.4844,329.1563 Q1383.5469,328.6875 1384.9375,328.6875 Q1385.8438,328.6875 1386.75,328.9219 Q1387.6563,329.1406 1388.4844,329.5469 L1387.6563,331.6406 Q1386.9688,331.3125 1386.2813,331.0781 Q1385.5938,330.8281 1384.9375,330.8281 Z " fill="#000000"/><text fill="#000000" font-family="sans-serif" font-size="14" lengthAdjust="spacing" textLength="23" x="1399" y="339.8467">File</text></g><!--class TWithInterfaces--><g id="elem_TWithInterfaces"><rect codeLine="11" fill="#CCFFFF" height="32" id="TWithInterfaces" rx="2.5" ry="2.5" style="stroke:#A9A9A9;stroke-width:0.5;" width="132" x="912.5" y="203"/><ellipse cx="927.5" cy="219" fill="#FFFFFF" rx="11" ry="11" style="stroke:#181818;stroke-width:1.0;"/><path d="M928.9531,225.75 L926.3906,225.75 L926.3906,215.75 L923.3438,215.75 L923.3438,213.6094 L931.9844,213.6094 L931.9844,215.75 L928.9531,215.75 L928.9531,225.75 Z " fill="#000000"/><text fill="#000000" font-family="sans-serif" font-size="14" lengthAdjust="spacing" textLength="100" x="941.5" y="223.8467">TWithInterfaces</text></g><!--class SourceTextAnchor--><g id="elem_SourceTextAnchor"><rect codeLine="13" fill="#CCFFFF" height="32" id="SourceTextAnchor" rx="2.5" ry="2.5" style="stroke:#A9A9A9;stroke-width:0.5;" width="147" x="2912" y="203"/><ellipse cx="2927" cy="219" fill="#FFFFFF" rx="11" ry="11" style="stroke:#181818;stroke-width:1.0;"/><path d="M2926.9375,214.8281 Q2926.1875,214.8281 2925.625,215.125 Q2925.0625,215.4063 2924.6719,215.9375 Q2924.2813,216.4688 2924.0781,217.25 Q2923.8906,218.0156 2923.8906,218.9688 Q2923.8906,219.9375 2924.0625,220.7031 Q2924.25,221.4531 2924.6094,221.9688 Q2924.9844,222.4844 2925.5625,222.7656 Q2926.1406,223.0313 2926.9375,223.0313 Q2927.6719,223.0313 2928.4063,222.8594 Q2929.1563,222.6875 2930.0313,222.3906 L2930.0313,224.5469 Q2929.625,224.7031 2929.2344,224.8281 Q2928.8438,224.9375 2928.4375,225.0156 Q2928.0313,225.0938 2927.6094,225.125 Q2927.1875,225.1719 2926.6875,225.1719 Q2925.2813,225.1719 2924.25,224.7188 Q2923.2344,224.2656 2922.5625,223.4531 Q2921.8906,222.6406 2921.5625,221.5 Q2921.2344,220.3438 2921.2344,218.9531 Q2921.2344,217.5781 2921.6094,216.4219 Q2921.9844,215.2656 2922.7031,214.4375 Q2923.4219,213.6094 2924.4844,213.1563 Q2925.5469,212.6875 2926.9375,212.6875 Q2927.8438,212.6875 2928.75,212.9219 Q2929.6563,213.1406 2930.4844,213.5469 L2929.6563,215.6406 Q2928.9688,215.3125 2928.2813,215.0781 Q2927.5938,214.8281 2926.9375,214.8281 Z " fill="#000000"/><text fill="#000000" font-family="sans-serif" font-size="14" lengthAdjust="spacing" textLength="115" x="2941" y="223.8467">SourceTextAnchor</text></g><!--class ScopingEntity--><g id="elem_ScopingEntity"><rect codeLine="15" fill="#CCFFFF" height="32" id="ScopingEntity" rx="2.5" ry="2.5" style="stroke:#A9A9A9;stroke-width:0.5;" width="116" x="835.5" y="459.5"/><ellipse cx="850.5" cy="475.5" fill="#FFFFFF" rx="11" ry="11" style="stroke:#181818;stroke-width:1.0;"/><path d="M850.4375,471.3281 Q849.6875,471.3281 849.125,471.625 Q848.5625,471.9063 848.1719,472.4375 Q847.7813,472.9688 847.5781,473.75 Q847.3906,474.5156 847.3906,475.4688 Q847.3906,476.4375 847.5625,477.2031 Q847.75,477.9531 848.1094,478.4688 Q848.4844,478.9844 849.0625,479.2656 Q849.6406,479.5313 850.4375,479.5313 Q851.1719,479.5313 851.9063,479.3594 Q852.6563,479.1875 853.5313,478.8906 L853.5313,481.0469 Q853.125,481.2031 852.7344,481.3281 Q852.3438,481.4375 851.9375,481.5156 Q851.5313,481.5938 851.1094,481.625 Q850.6875,481.6719 850.1875,481.6719 Q848.7813,481.6719 847.75,481.2188 Q846.7344,480.7656 846.0625,479.9531 Q845.3906,479.1406 845.0625,478 Q844.7344,476.8438 844.7344,475.4531 Q844.7344,474.0781 845.1094,472.9219 Q845.4844,471.7656 846.2031,470.9375 Q846.9219,470.1094 847.9844,469.6563 Q849.0469,469.1875 850.4375,469.1875 Q851.3438,469.1875 852.25,469.4219 Q853.1563,469.6406 853.9844,470.0469 L853.1563,472.1406 Q852.4688,471.8125 851.7813,471.5781 Q851.0938,471.3281 850.4375,471.3281 Z " fill="#000000"/><text fill="#000000" font-family="sans-serif" font-size="14" lengthAdjust="spacing" textLength="84" x="864.5" y="480.3467">ScopingEntity</text></g><!--class SourcedEntity--><g id="elem_SourcedEntity"><rect codeLine="17" fill="#CCFFFF" height="32" id="SourcedEntity" rx="2.5" ry="2.5" style="stroke:#A9A9A9;stroke-width:0.5;" width="119" x="1471" y="99"/><ellipse cx="1486" cy="115" fill="#FFFFFF" rx="11" ry="11" style="stroke:#181818;stroke-width:1.0;"/><path d="M1485.9375,110.8281 Q1485.1875,110.8281 1484.625,111.125 Q1484.0625,111.4063 1483.6719,111.9375 Q1483.2813,112.4688 1483.0781,113.25 Q1482.8906,114.0156 1482.8906,114.9688 Q1482.8906,115.9375 1483.0625,116.7031 Q1483.25,117.4531 1483.6094,117.9688 Q1483.9844,118.4844 1484.5625,118.7656 Q1485.1406,119.0313 1485.9375,119.0313 Q1486.6719,119.0313 1487.4063,118.8594 Q1488.1563,118.6875 1489.0313,118.3906 L1489.0313,120.5469 Q1488.625,120.7031 1488.2344,120.8281 Q1487.8438,120.9375 1487.4375,121.0156 Q1487.0313,121.0938 1486.6094,121.125 Q1486.1875,121.1719 1485.6875,121.1719 Q1484.2813,121.1719 1483.25,120.7188 Q1482.2344,120.2656 1481.5625,119.4531 Q1480.8906,118.6406 1480.5625,117.5 Q1480.2344,116.3438 1480.2344,114.9531 Q1480.2344,113.5781 1480.6094,112.4219 Q1480.9844,111.2656 1481.7031,110.4375 Q1482.4219,109.6094 1483.4844,109.1563 Q1484.5469,108.6875 1485.9375,108.6875 Q1486.8438,108.6875 1487.75,108.9219 Q1488.6563,109.1406 1489.4844,109.5469 L1488.6563,111.6406 Q1487.9688,111.3125 1487.2813,111.0781 Q1486.5938,110.8281 1485.9375,110.8281 Z " fill="#000000"/><text fill="#000000" font-family="sans-serif" font-size="14" lengthAdjust="spacing" textLength="87" x="1500" y="119.8467">SourcedEntity</text></g><!--class Enum--><g id="elem_Enum"><rect codeLine="19" fill="#CCFFFF" height="32" id="Enum" rx="2.5" ry="2.5" style="stroke:#A9A9A9;stroke-width:0.5;" width="68" x="461.5" y="588"/><ellipse cx="476.5" cy="604" fill="#FFFFFF" rx="11" ry="11" style="stroke:#181818;stroke-width:1.0;"/><path d="M476.4375,599.8281 Q475.6875,599.8281 475.125,600.125 Q474.5625,600.4063 474.1719,600.9375 Q473.7813,601.4688 473.5781,602.25 Q473.3906,603.0156 473.3906,603.9688 Q473.3906,604.9375 473.5625,605.7031 Q473.75,606.4531 474.1094,606.9688 Q474.4844,607.4844 475.0625,607.7656 Q475.6406,608.0313 476.4375,608.0313 Q477.1719,608.0313 477.9063,607.8594 Q478.6563,607.6875 479.5313,607.3906 L479.5313,609.5469 Q479.125,609.7031 478.7344,609.8281 Q478.3438,609.9375 477.9375,610.0156 Q477.5313,610.0938 477.1094,610.125 Q476.6875,610.1719 476.1875,610.1719 Q474.7813,610.1719 473.75,609.7188 Q472.7344,609.2656 472.0625,608.4531 Q471.3906,607.6406 471.0625,606.5 Q470.7344,605.3438 470.7344,603.9531 Q470.7344,602.5781 471.1094,601.4219 Q471.4844,600.2656 472.2031,599.4375 Q472.9219,598.6094 473.9844,598.1563 Q475.0469,597.6875 476.4375,597.6875 Q477.3438,597.6875 478.25,597.9219 Q479.1563,598.1406 479.9844,598.5469 L479.1563,600.6406 Q478.4688,600.3125 477.7813,600.0781 Q477.0938,599.8281 476.4375,599.8281 Z " fill="#000000"/><text fill="#000000" font-family="sans-serif" font-size="14" lengthAdjust="spacing" textLength="36" x="490.5" y="608.8467">Enum</text></g><!--class SourceLanguage--><g id="elem_SourceLanguage"><rect codeLine="21" fill="#CCFFFF" height="32" id="SourceLanguage" rx="2.5" ry="2.5" style="stroke:#A9A9A9;stroke-width:0.5;" width="134" x="1625.5" y="99"/><ellipse cx="1640.5" cy="115" fill="#FFFFFF" rx="11" ry="11" style="stroke:#181818;stroke-width:1.0;"/><path d="M1640.4375,110.8281 Q1639.6875,110.8281 1639.125,111.125 Q1638.5625,111.4063 1638.1719,111.9375 Q1637.7813,112.4688 1637.5781,113.25 Q1637.3906,114.0156 1637.3906,114.9688 Q1637.3906,115.9375 1637.5625,116.7031 Q1637.75,117.4531 1638.1094,117.9688 Q1638.4844,118.4844 1639.0625,118.7656 Q1639.6406,119.0313 1640.4375,119.0313 Q1641.1719,119.0313 1641.9063,118.8594 Q1642.6563,118.6875 1643.5313,118.3906 L1643.5313,120.5469 Q1643.125,120.7031 1642.7344,120.8281 Q1642.3438,120.9375 1641.9375,121.0156 Q1641.5313,121.0938 1641.1094,121.125 Q1640.6875,121.1719 1640.1875,121.1719 Q1638.7813,121.1719 1637.75,120.7188 Q1636.7344,120.2656 1636.0625,119.4531 Q1635.3906,118.6406 1635.0625,117.5 Q1634.7344,116.3438 1634.7344,114.9531 Q1634.7344,113.5781 1635.1094,112.4219 Q1635.4844,111.2656 1636.2031,110.4375 Q1636.9219,109.6094 1637.9844,109.1563 Q1639.0469,108.6875 1640.4375,108.6875 Q1641.3438,108.6875 1642.25,108.9219 Q1643.1563,109.1406 1643.9844,109.5469 L1643.1563,111.6406 Q1642.4688,111.3125 1641.7813,111.0781 Q1641.0938,110.8281 1640.4375,110.8281 Z " fill="#000000"/><text fill="#000000" font-family="sans-serif" font-size="14" lengthAdjust="spacing" textLength="102" x="1654.5" y="119.8467">SourceLanguage</text></g><!--class Decorator--><g id="elem_Decorator"><rect codeLine="23" fill="#CCFFFF" height="56.2969" id="Decorator" rx="2.5" ry="2.5" style="stroke:#A9A9A9;stroke-width:0.5;" width="122" x="1831.5" y="307"/><ellipse cx="1858.2" cy="323" fill="#FFFFFF" rx="11" ry="11" style="stroke:#181818;stroke-width:1.0;"/><path d="M1858.1375,318.8281 Q1857.3875,318.8281 1856.825,319.125 Q1856.2625,319.4063 1855.8719,319.9375 Q1855.4813,320.4688 1855.2781,321.25 Q1855.0906,322.0156 1855.0906,322.9688 Q1855.0906,323.9375 1855.2625,324.7031 Q1855.45,325.4531 1855.8094,325.9688 Q1856.1844,326.4844 1856.7625,326.7656 Q1857.3406,327.0313 1858.1375,327.0313 Q1858.8719,327.0313 1859.6063,326.8594 Q1860.3563,326.6875 1861.2313,326.3906 L1861.2313,328.5469 Q1860.825,328.7031 1860.4344,328.8281 Q1860.0438,328.9375 1859.6375,329.0156 Q1859.2313,329.0938 1858.8094,329.125 Q1858.3875,329.1719 1857.8875,329.1719 Q1856.4813,329.1719 1855.45,328.7188 Q1854.4344,328.2656 1853.7625,327.4531 Q1853.0906,326.6406 1852.7625,325.5 Q1852.4344,324.3438 1852.4344,322.9531 Q1852.4344,321.5781 1852.8094,320.4219 Q1853.1844,319.2656 1853.9031,318.4375 Q1854.6219,317.6094 1855.6844,317.1563 Q1856.7469,316.6875 1858.1375,316.6875 Q1859.0438,316.6875 1859.95,316.9219 Q1860.8563,317.1406 1861.6844,317.5469 L1860.8563,319.6406 Q1860.1688,319.3125 1859.4813,319.0781 Q1858.7938,318.8281 1858.1375,318.8281 Z " fill="#000000"/><text fill="#000000" font-family="sans-serif" font-size="14" lengthAdjust="spacing" textLength="64" x="1874.8" y="327.8467">Decorator</text><line style="stroke:#A9A9A9;stroke-width:0.5;" x1="1832.5" x2="1952.5" y1="339" y2="339"/><text fill="#000000" font-family="sans-serif" font-size="14" lengthAdjust="spacing" textLength="110" x="1837.5" y="355.9951">String expression</text></g><!--class ContainerEntity--><g id="elem_ContainerEntity"><rect codeLine="26" fill="#CCFFFF" height="32" id="ContainerEntity" rx="2.5" ry="2.5" style="stroke:#A9A9A9;stroke-width:0.5;" width="130" x="913.5" y="319"/><ellipse cx="928.5" cy="335" fill="#FFFFFF" rx="11" ry="11" style="stroke:#181818;stroke-width:1.0;"/><path d="M928.4375,330.8281 Q927.6875,330.8281 927.125,331.125 Q926.5625,331.4063 926.1719,331.9375 Q925.7813,332.4688 925.5781,333.25 Q925.3906,334.0156 925.3906,334.9688 Q925.3906,335.9375 925.5625,336.7031 Q925.75,337.4531 926.1094,337.9688 Q926.4844,338.4844 927.0625,338.7656 Q927.6406,339.0313 928.4375,339.0313 Q929.1719,339.0313 929.9063,338.8594 Q930.6563,338.6875 931.5313,338.3906 L931.5313,340.5469 Q931.125,340.7031 930.7344,340.8281 Q930.3438,340.9375 929.9375,341.0156 Q929.5313,341.0938 929.1094,341.125 Q928.6875,341.1719 928.1875,341.1719 Q926.7813,341.1719 925.75,340.7188 Q924.7344,340.2656 924.0625,339.4531 Q923.3906,338.6406 923.0625,337.5 Q922.7344,336.3438 922.7344,334.9531 Q922.7344,333.5781 923.1094,332.4219 Q923.4844,331.2656 924.2031,330.4375 Q924.9219,329.6094 925.9844,329.1563 Q927.0469,328.6875 928.4375,328.6875 Q929.3438,328.6875 930.25,328.9219 Q931.1563,329.1406 931.9844,329.5469 L931.1563,331.6406 Q930.4688,331.3125 929.7813,331.0781 Q929.0938,330.8281 928.4375,330.8281 Z " fill="#000000"/><text fill="#000000" font-family="sans-serif" font-size="14" lengthAdjust="spacing" textLength="98" x="942.5" y="339.8467">ContainerEntity</text></g><!--class ArrowFunction--><g id="elem_ArrowFunction"><rect codeLine="28" fill="#CCFFFF" height="32" id="ArrowFunction" rx="2.5" ry="2.5" style="stroke:#A9A9A9;stroke-width:0.5;" width="125" x="1118" y="588"/><ellipse cx="1133" cy="604" fill="#FFFFFF" rx="11" ry="11" style="stroke:#181818;stroke-width:1.0;"/><path d="M1132.9375,599.8281 Q1132.1875,599.8281 1131.625,600.125 Q1131.0625,600.4063 1130.6719,600.9375 Q1130.2813,601.4688 1130.0781,602.25 Q1129.8906,603.0156 1129.8906,603.9688 Q1129.8906,604.9375 1130.0625,605.7031 Q1130.25,606.4531 1130.6094,606.9688 Q1130.9844,607.4844 1131.5625,607.7656 Q1132.1406,608.0313 1132.9375,608.0313 Q1133.6719,608.0313 1134.4063,607.8594 Q1135.1563,607.6875 1136.0313,607.3906 L1136.0313,609.5469 Q1135.625,609.7031 1135.2344,609.8281 Q1134.8438,609.9375 1134.4375,610.0156 Q1134.0313,610.0938 1133.6094,610.125 Q1133.1875,610.1719 1132.6875,610.1719 Q1131.2813,610.1719 1130.25,609.7188 Q1129.2344,609.2656 1128.5625,608.4531 Q1127.8906,607.6406 1127.5625,606.5 Q1127.2344,605.3438 1127.2344,603.9531 Q1127.2344,602.5781 1127.6094,601.4219 Q1127.9844,600.2656 1128.7031,599.4375 Q1129.4219,598.6094 1130.4844,598.1563 Q1131.5469,597.6875 1132.9375,597.6875 Q1133.8438,597.6875 1134.75,597.9219 Q1135.6563,598.1406 1136.4844,598.5469 L1135.6563,600.6406 Q1134.9688,600.3125 1134.2813,600.0781 Q1133.5938,599.8281 1132.9375,599.8281 Z " fill="#000000"/><text fill="#000000" font-family="sans-serif" font-size="14" lengthAdjust="spacing" textLength="93" x="1147" y="608.8467">ArrowFunction</text></g><!--class ImportClause--><g id="elem_ImportClause"><rect codeLine="30" fill="#CCFFFF" height="32" id="ImportClause" rx="2.5" ry="2.5" style="stroke:#A9A9A9;stroke-width:0.5;" width="118" x="1794.5" y="99"/><ellipse cx="1809.5" cy="115" fill="#FFFFFF" rx="11" ry="11" style="stroke:#181818;stroke-width:1.0;"/><path d="M1809.4375,110.8281 Q1808.6875,110.8281 1808.125,111.125 Q1807.5625,111.4063 1807.1719,111.9375 Q1806.7813,112.4688 1806.5781,113.25 Q1806.3906,114.0156 1806.3906,114.9688 Q1806.3906,115.9375 1806.5625,116.7031 Q1806.75,117.4531 1807.1094,117.9688 Q1807.4844,118.4844 1808.0625,118.7656 Q1808.6406,119.0313 1809.4375,119.0313 Q1810.1719,119.0313 1810.9063,118.8594 Q1811.6563,118.6875 1812.5313,118.3906 L1812.5313,120.5469 Q1812.125,120.7031 1811.7344,120.8281 Q1811.3438,120.9375 1810.9375,121.0156 Q1810.5313,121.0938 1810.1094,121.125 Q1809.6875,121.1719 1809.1875,121.1719 Q1807.7813,121.1719 1806.75,120.7188 Q1805.7344,120.2656 1805.0625,119.4531 Q1804.3906,118.6406 1804.0625,117.5 Q1803.7344,116.3438 1803.7344,114.9531 Q1803.7344,113.5781 1804.1094,112.4219 Q1804.4844,111.2656 1805.2031,110.4375 Q1805.9219,109.6094 1806.9844,109.1563 Q1808.0469,108.6875 1809.4375,108.6875 Q1810.3438,108.6875 1811.25,108.9219 Q1812.1563,109.1406 1812.9844,109.5469 L1812.1563,111.6406 Q1811.4688,111.3125 1810.7813,111.0781 Q1810.0938,110.8281 1809.4375,110.8281 Z " fill="#000000"/><text fill="#000000" font-family="sans-serif" font-size="14" lengthAdjust="spacing" textLength="86" x="1823.5" y="119.8467">ImportClause</text></g><!--class implicitVariable--><g id="elem_implicitVariable"><rect codeLine="32" fill="#CCFFFF" height="32" id="implicitVariable" rx="2.5" ry="2.5" style="stroke:#A9A9A9;stroke-width:0.5;" width="132" x="1399.5" y="588"/><ellipse cx="1414.5" cy="604" fill="#FFFFFF" rx="11" ry="11" style="stroke:#181818;stroke-width:1.0;"/><path d="M1414.4375,599.8281 Q1413.6875,599.8281 1413.125,600.125 Q1412.5625,600.4063 1412.1719,600.9375 Q1411.7813,601.4688 1411.5781,602.25 Q1411.3906,603.0156 1411.3906,603.9688 Q1411.3906,604.9375 1411.5625,605.7031 Q1411.75,606.4531 1412.1094,606.9688 Q1412.4844,607.4844 1413.0625,607.7656 Q1413.6406,608.0313 1414.4375,608.0313 Q1415.1719,608.0313 1415.9063,607.8594 Q1416.6563,607.6875 1417.5313,607.3906 L1417.5313,609.5469 Q1417.125,609.7031 1416.7344,609.8281 Q1416.3438,609.9375 1415.9375,610.0156 Q1415.5313,610.0938 1415.1094,610.125 Q1414.6875,610.1719 1414.1875,610.1719 Q1412.7813,610.1719 1411.75,609.7188 Q1410.7344,609.2656 1410.0625,608.4531 Q1409.3906,607.6406 1409.0625,606.5 Q1408.7344,605.3438 1408.7344,603.9531 Q1408.7344,602.5781 1409.1094,601.4219 Q1409.4844,600.2656 1410.2031,599.4375 Q1410.9219,598.6094 1411.9844,598.1563 Q1413.0469,597.6875 1414.4375,597.6875 Q1415.3438,597.6875 1416.25,597.9219 Q1417.1563,598.1406 1417.9844,598.5469 L1417.1563,600.6406 Q1416.4688,600.3125 1415.7813,600.0781 Q1415.0938,599.8281 1414.4375,599.8281 Z " fill="#000000"/><text fill="#000000" font-family="sans-serif" font-size="14" lengthAdjust="spacing" textLength="100" x="1428.5" y="608.8467">implicitVariable</text></g><!--class Comment--><g id="elem_Comment"><rect codeLine="34" fill="#CCFFFF" height="56.2969" id="Comment" rx="2.5" ry="2.5" style="stroke:#A9A9A9;stroke-width:0.5;" width="113" x="1349" y="191"/><ellipse cx="1372.1" cy="207" fill="#FFFFFF" rx="11" ry="11" style="stroke:#181818;stroke-width:1.0;"/><path d="M1372.0375,202.8281 Q1371.2875,202.8281 1370.725,203.125 Q1370.1625,203.4063 1369.7719,203.9375 Q1369.3813,204.4688 1369.1781,205.25 Q1368.9906,206.0156 1368.9906,206.9688 Q1368.9906,207.9375 1369.1625,208.7031 Q1369.35,209.4531 1369.7094,209.9688 Q1370.0844,210.4844 1370.6625,210.7656 Q1371.2406,211.0313 1372.0375,211.0313 Q1372.7719,211.0313 1373.5063,210.8594 Q1374.2563,210.6875 1375.1313,210.3906 L1375.1313,212.5469 Q1374.725,212.7031 1374.3344,212.8281 Q1373.9438,212.9375 1373.5375,213.0156 Q1373.1313,213.0938 1372.7094,213.125 Q1372.2875,213.1719 1371.7875,213.1719 Q1370.3813,213.1719 1369.35,212.7188 Q1368.3344,212.2656 1367.6625,211.4531 Q1366.9906,210.6406 1366.6625,209.5 Q1366.3344,208.3438 1366.3344,206.9531 Q1366.3344,205.5781 1366.7094,204.4219 Q1367.0844,203.2656 1367.8031,202.4375 Q1368.5219,201.6094 1369.5844,201.1563 Q1370.6469,200.6875 1372.0375,200.6875 Q1372.9438,200.6875 1373.85,200.9219 Q1374.7563,201.1406 1375.5844,201.5469 L1374.7563,203.6406 Q1374.0688,203.3125 1373.3813,203.0781 Q1372.6938,202.8281 1372.0375,202.8281 Z " fill="#000000"/><text fill="#000000" font-family="sans-serif" font-size="14" lengthAdjust="spacing" textLength="63" x="1387.9" y="211.8467">Comment</text><line style="stroke:#A9A9A9;stroke-width:0.5;" x1="1350" x2="1461" y1="223" y2="223"/><text fill="#000000" font-family="sans-serif" font-size="14" lengthAdjust="spacing" textLength="101" x="1355" y="239.9951">Boolean isJSDoc</text></g><!--class Variable--><g id="elem_Variable"><rect codeLine="37" fill="#CCFFFF" height="32" id="Variable" rx="2.5" ry="2.5" style="stroke:#A9A9A9;stroke-width:0.5;" width="84" x="1307.5" y="459.5"/><ellipse cx="1322.5" cy="475.5" fill="#FFFFFF" rx="11" ry="11" style="stroke:#181818;stroke-width:1.0;"/><path d="M1322.4375,471.3281 Q1321.6875,471.3281 1321.125,471.625 Q1320.5625,471.9063 1320.1719,472.4375 Q1319.7813,472.9688 1319.5781,473.75 Q1319.3906,474.5156 1319.3906,475.4688 Q1319.3906,476.4375 1319.5625,477.2031 Q1319.75,477.9531 1320.1094,478.4688 Q1320.4844,478.9844 1321.0625,479.2656 Q1321.6406,479.5313 1322.4375,479.5313 Q1323.1719,479.5313 1323.9063,479.3594 Q1324.6563,479.1875 1325.5313,478.8906 L1325.5313,481.0469 Q1325.125,481.2031 1324.7344,481.3281 Q1324.3438,481.4375 1323.9375,481.5156 Q1323.5313,481.5938 1323.1094,481.625 Q1322.6875,481.6719 1322.1875,481.6719 Q1320.7813,481.6719 1319.75,481.2188 Q1318.7344,480.7656 1318.0625,479.9531 Q1317.3906,479.1406 1317.0625,478 Q1316.7344,476.8438 1316.7344,475.4531 Q1316.7344,474.0781 1317.1094,472.9219 Q1317.4844,471.7656 1318.2031,470.9375 Q1318.9219,470.1094 1319.9844,469.6563 Q1321.0469,469.1875 1322.4375,469.1875 Q1323.3438,469.1875 1324.25,469.4219 Q1325.1563,469.6406 1325.9844,470.0469 L1325.1563,472.1406 Q1324.4688,471.8125 1323.7813,471.5781 Q1323.0938,471.3281 1322.4375,471.3281 Z " fill="#000000"/><text fill="#000000" font-family="sans-serif" font-size="14" lengthAdjust="spacing" textLength="52" x="1336.5" y="480.3467">Variable</text></g><!--class IndexedFileAnchor--><g id="elem_IndexedFileAnchor"><rect codeLine="39" fill="#CCFFFF" height="32" id="IndexedFileAnchor" rx="2.5" ry="2.5" style="stroke:#A9A9A9;stroke-width:0.5;" width="152" x="3094.5" y="203"/><ellipse cx="3109.5" cy="219" fill="#FFFFFF" rx="11" ry="11" style="stroke:#181818;stroke-width:1.0;"/><path d="M3109.4375,214.8281 Q3108.6875,214.8281 3108.125,215.125 Q3107.5625,215.4063 3107.1719,215.9375 Q3106.7813,216.4688 3106.5781,217.25 Q3106.3906,218.0156 3106.3906,218.9688 Q3106.3906,219.9375 3106.5625,220.7031 Q3106.75,221.4531 3107.1094,221.9688 Q3107.4844,222.4844 3108.0625,222.7656 Q3108.6406,223.0313 3109.4375,223.0313 Q3110.1719,223.0313 3110.9063,222.8594 Q3111.6563,222.6875 3112.5313,222.3906 L3112.5313,224.5469 Q3112.125,224.7031 3111.7344,224.8281 Q3111.3438,224.9375 3110.9375,225.0156 Q3110.5313,225.0938 3110.1094,225.125 Q3109.6875,225.1719 3109.1875,225.1719 Q3107.7813,225.1719 3106.75,224.7188 Q3105.7344,224.2656 3105.0625,223.4531 Q3104.3906,222.6406 3104.0625,221.5 Q3103.7344,220.3438 3103.7344,218.9531 Q3103.7344,217.5781 3104.1094,216.4219 Q3104.4844,215.2656 3105.2031,214.4375 Q3105.9219,213.6094 3106.9844,213.1563 Q3108.0469,212.6875 3109.4375,212.6875 Q3110.3438,212.6875 3111.25,212.9219 Q3112.1563,213.1406 3112.9844,213.5469 L3112.1563,215.6406 Q3111.4688,215.3125 3110.7813,215.0781 Q3110.0938,214.8281 3109.4375,214.8281 Z " fill="#000000"/><text fill="#000000" font-family="sans-serif" font-size="14" lengthAdjust="spacing" textLength="120" x="3123.5" y="223.8467">IndexedFileAnchor</text></g><!--class Concretization--><g id="elem_Concretization"><rect codeLine="41" fill="#CCFFFF" height="32" id="Concretization" rx="2.5" ry="2.5" style="stroke:#A9A9A9;stroke-width:0.5;" width="123" x="1948" y="99"/><ellipse cx="1963" cy="115" fill="#FFFFFF" rx="11" ry="11" style="stroke:#181818;stroke-width:1.0;"/><path d="M1962.9375,110.8281 Q1962.1875,110.8281 1961.625,111.125 Q1961.0625,111.4063 1960.6719,111.9375 Q1960.2813,112.4688 1960.0781,113.25 Q1959.8906,114.0156 1959.8906,114.9688 Q1959.8906,115.9375 1960.0625,116.7031 Q1960.25,117.4531 1960.6094,117.9688 Q1960.9844,118.4844 1961.5625,118.7656 Q1962.1406,119.0313 1962.9375,119.0313 Q1963.6719,119.0313 1964.4063,118.8594 Q1965.1563,118.6875 1966.0313,118.3906 L1966.0313,120.5469 Q1965.625,120.7031 1965.2344,120.8281 Q1964.8438,120.9375 1964.4375,121.0156 Q1964.0313,121.0938 1963.6094,121.125 Q1963.1875,121.1719 1962.6875,121.1719 Q1961.2813,121.1719 1960.25,120.7188 Q1959.2344,120.2656 1958.5625,119.4531 Q1957.8906,118.6406 1957.5625,117.5 Q1957.2344,116.3438 1957.2344,114.9531 Q1957.2344,113.5781 1957.6094,112.4219 Q1957.9844,111.2656 1958.7031,110.4375 Q1959.4219,109.6094 1960.4844,109.1563 Q1961.5469,108.6875 1962.9375,108.6875 Q1963.8438,108.6875 1964.75,108.9219 Q1965.6563,109.1406 1966.4844,109.5469 L1965.6563,111.6406 Q1964.9688,111.3125 1964.2813,111.0781 Q1963.5938,110.8281 1962.9375,110.8281 Z " fill="#000000"/><text fill="#000000" font-family="sans-serif" font-size="14" lengthAdjust="spacing" textLength="91" x="1977" y="119.8467">Concretization</text></g><!--class Entity--><g id="elem_Entity"><rect codeLine="43" fill="#CCFFFF" height="32" id="Entity" rx="2.5" ry="2.5" style="stroke:#A9A9A9;stroke-width:0.5;" width="68" x="2248.5" y="7"/><ellipse cx="2263.5" cy="23" fill="#FFFFFF" rx="11" ry="11" style="stroke:#181818;stroke-width:1.0;"/><path d="M2263.4375,18.8281 Q2262.6875,18.8281 2262.125,19.125 Q2261.5625,19.4063 2261.1719,19.9375 Q2260.7813,20.4688 2260.5781,21.25 Q2260.3906,22.0156 2260.3906,22.9688 Q2260.3906,23.9375 2260.5625,24.7031 Q2260.75,25.4531 2261.1094,25.9688 Q2261.4844,26.4844 2262.0625,26.7656 Q2262.6406,27.0313 2263.4375,27.0313 Q2264.1719,27.0313 2264.9063,26.8594 Q2265.6563,26.6875 2266.5313,26.3906 L2266.5313,28.5469 Q2266.125,28.7031 2265.7344,28.8281 Q2265.3438,28.9375 2264.9375,29.0156 Q2264.5313,29.0938 2264.1094,29.125 Q2263.6875,29.1719 2263.1875,29.1719 Q2261.7813,29.1719 2260.75,28.7188 Q2259.7344,28.2656 2259.0625,27.4531 Q2258.3906,26.6406 2258.0625,25.5 Q2257.7344,24.3438 2257.7344,22.9531 Q2257.7344,21.5781 2258.1094,20.4219 Q2258.4844,19.2656 2259.2031,18.4375 Q2259.9219,17.6094 2260.9844,17.1563 Q2262.0469,16.6875 2263.4375,16.6875 Q2264.3438,16.6875 2265.25,16.9219 Q2266.1563,17.1406 2266.9844,17.5469 L2266.1563,19.6406 Q2265.4688,19.3125 2264.7813,19.0781 Q2264.0938,18.8281 2263.4375,18.8281 Z " fill="#000000"/><text fill="#000000" font-family="sans-serif" font-size="14" lengthAdjust="spacing" textLength="36" x="2277.5" y="27.8467">Entity</text></g><!--class StructuralEntity--><g id="elem_StructuralEntity"><rect codeLine="45" fill="#CCFFFF" height="32" id="StructuralEntity" rx="2.5" ry="2.5" style="stroke:#A9A9A9;stroke-width:0.5;" width="130" x="1460.5" y="319"/><ellipse cx="1475.5" cy="335" fill="#FFFFFF" rx="11" ry="11" style="stroke:#181818;stroke-width:1.0;"/><path d="M1475.4375,330.8281 Q1474.6875,330.8281 1474.125,331.125 Q1473.5625,331.4063 1473.1719,331.9375 Q1472.7813,332.4688 1472.5781,333.25 Q1472.3906,334.0156 1472.3906,334.9688 Q1472.3906,335.9375 1472.5625,336.7031 Q1472.75,337.4531 1473.1094,337.9688 Q1473.4844,338.4844 1474.0625,338.7656 Q1474.6406,339.0313 1475.4375,339.0313 Q1476.1719,339.0313 1476.9063,338.8594 Q1477.6563,338.6875 1478.5313,338.3906 L1478.5313,340.5469 Q1478.125,340.7031 1477.7344,340.8281 Q1477.3438,340.9375 1476.9375,341.0156 Q1476.5313,341.0938 1476.1094,341.125 Q1475.6875,341.1719 1475.1875,341.1719 Q1473.7813,341.1719 1472.75,340.7188 Q1471.7344,340.2656 1471.0625,339.4531 Q1470.3906,338.6406 1470.0625,337.5 Q1469.7344,336.3438 1469.7344,334.9531 Q1469.7344,333.5781 1470.1094,332.4219 Q1470.4844,331.2656 1471.2031,330.4375 Q1471.9219,329.6094 1472.9844,329.1563 Q1474.0469,328.6875 1475.4375,328.6875 Q1476.3438,328.6875 1477.25,328.9219 Q1478.1563,329.1406 1478.9844,329.5469 L1478.1563,331.6406 Q1477.4688,331.3125 1476.7813,331.0781 Q1476.0938,330.8281 1475.4375,330.8281 Z " fill="#000000"/><text fill="#000000" font-family="sans-serif" font-size="14" lengthAdjust="spacing" textLength="98" x="1489.5" y="339.8467">StructuralEntity</text></g><!--class Access--><g id="elem_Access"><rect codeLine="47" fill="#CCFFFF" height="32" id="Access" rx="2.5" ry="2.5" style="stroke:#A9A9A9;stroke-width:0.5;" width="73" x="2106" y="99"/><ellipse cx="2121" cy="115" fill="#FFFFFF" rx="11" ry="11" style="stroke:#181818;stroke-width:1.0;"/><path d="M2120.9375,110.8281 Q2120.1875,110.8281 2119.625,111.125 Q2119.0625,111.4063 2118.6719,111.9375 Q2118.2813,112.4688 2118.0781,113.25 Q2117.8906,114.0156 2117.8906,114.9688 Q2117.8906,115.9375 2118.0625,116.7031 Q2118.25,117.4531 2118.6094,117.9688 Q2118.9844,118.4844 2119.5625,118.7656 Q2120.1406,119.0313 2120.9375,119.0313 Q2121.6719,119.0313 2122.4063,118.8594 Q2123.1563,118.6875 2124.0313,118.3906 L2124.0313,120.5469 Q2123.625,120.7031 2123.2344,120.8281 Q2122.8438,120.9375 2122.4375,121.0156 Q2122.0313,121.0938 2121.6094,121.125 Q2121.1875,121.1719 2120.6875,121.1719 Q2119.2813,121.1719 2118.25,120.7188 Q2117.2344,120.2656 2116.5625,119.4531 Q2115.8906,118.6406 2115.5625,117.5 Q2115.2344,116.3438 2115.2344,114.9531 Q2115.2344,113.5781 2115.6094,112.4219 Q2115.9844,111.2656 2116.7031,110.4375 Q2117.4219,109.6094 2118.4844,109.1563 Q2119.5469,108.6875 2120.9375,108.6875 Q2121.8438,108.6875 2122.75,108.9219 Q2123.6563,109.1406 2124.4844,109.5469 L2123.6563,111.6406 Q2122.9688,111.3125 2122.2813,111.0781 Q2121.5938,110.8281 2120.9375,110.8281 Z " fill="#000000"/><text fill="#000000" font-family="sans-serif" font-size="14" lengthAdjust="spacing" textLength="41" x="2135" y="119.8467">Access</text></g><!--class Alias--><g id="elem_Alias"><rect codeLine="49" fill="#CCFFFF" height="32" id="Alias" rx="2.5" ry="2.5" style="stroke:#A9A9A9;stroke-width:0.5;" width="62" x="1625.5" y="319"/><ellipse cx="1640.5" cy="335" fill="#FFFFFF" rx="11" ry="11" style="stroke:#181818;stroke-width:1.0;"/><path d="M1640.4375,330.8281 Q1639.6875,330.8281 1639.125,331.125 Q1638.5625,331.4063 1638.1719,331.9375 Q1637.7813,332.4688 1637.5781,333.25 Q1637.3906,334.0156 1637.3906,334.9688 Q1637.3906,335.9375 1637.5625,336.7031 Q1637.75,337.4531 1638.1094,337.9688 Q1638.4844,338.4844 1639.0625,338.7656 Q1639.6406,339.0313 1640.4375,339.0313 Q1641.1719,339.0313 1641.9063,338.8594 Q1642.6563,338.6875 1643.5313,338.3906 L1643.5313,340.5469 Q1643.125,340.7031 1642.7344,340.8281 Q1642.3438,340.9375 1641.9375,341.0156 Q1641.5313,341.0938 1641.1094,341.125 Q1640.6875,341.1719 1640.1875,341.1719 Q1638.7813,341.1719 1637.75,340.7188 Q1636.7344,340.2656 1636.0625,339.4531 Q1635.3906,338.6406 1635.0625,337.5 Q1634.7344,336.3438 1634.7344,334.9531 Q1634.7344,333.5781 1635.1094,332.4219 Q1635.4844,331.2656 1636.2031,330.4375 Q1636.9219,329.6094 1637.9844,329.1563 Q1639.0469,328.6875 1640.4375,328.6875 Q1641.3438,328.6875 1642.25,328.9219 Q1643.1563,329.1406 1643.9844,329.5469 L1643.1563,331.6406 Q1642.4688,331.3125 1641.7813,331.0781 Q1641.0938,330.8281 1640.4375,330.8281 Z " fill="#000000"/><text fill="#000000" font-family="sans-serif" font-size="14" lengthAdjust="spacing" textLength="30" x="1654.5" y="339.8467">Alias</text></g><!--class FamixTypeScriptModel--><g id="elem_FamixTypeScriptModel"><rect codeLine="51" fill="#CCFFFF" height="32" id="FamixTypeScriptModel" rx="2.5" ry="2.5" style="stroke:#A9A9A9;stroke-width:0.5;" width="176" x="3173.5" y="99"/><ellipse cx="3188.5" cy="115" fill="#FFFFFF" rx="11" ry="11" style="stroke:#181818;stroke-width:1.0;"/><path d="M3188.4375,110.8281 Q3187.6875,110.8281 3187.125,111.125 Q3186.5625,111.4063 3186.1719,111.9375 Q3185.7813,112.4688 3185.5781,113.25 Q3185.3906,114.0156 3185.3906,114.9688 Q3185.3906,115.9375 3185.5625,116.7031 Q3185.75,117.4531 3186.1094,117.9688 Q3186.4844,118.4844 3187.0625,118.7656 Q3187.6406,119.0313 3188.4375,119.0313 Q3189.1719,119.0313 3189.9063,118.8594 Q3190.6563,118.6875 3191.5313,118.3906 L3191.5313,120.5469 Q3191.125,120.7031 3190.7344,120.8281 Q3190.3438,120.9375 3189.9375,121.0156 Q3189.5313,121.0938 3189.1094,121.125 Q3188.6875,121.1719 3188.1875,121.1719 Q3186.7813,121.1719 3185.75,120.7188 Q3184.7344,120.2656 3184.0625,119.4531 Q3183.3906,118.6406 3183.0625,117.5 Q3182.7344,116.3438 3182.7344,114.9531 Q3182.7344,113.5781 3183.1094,112.4219 Q3183.4844,111.2656 3184.2031,110.4375 Q3184.9219,109.6094 3185.9844,109.1563 Q3187.0469,108.6875 3188.4375,108.6875 Q3189.3438,108.6875 3190.25,108.9219 Q3191.1563,109.1406 3191.9844,109.5469 L3191.1563,111.6406 Q3190.4688,111.3125 3189.7813,111.0781 Q3189.0938,110.8281 3188.4375,110.8281 Z " fill="#000000"/><text fill="#000000" font-family="sans-serif" font-size="14" lengthAdjust="spacing" textLength="144" x="3202.5" y="119.8467">FamixTypeScriptModel</text></g><!--class TClassMetrics--><g id="elem_TClassMetrics"><rect codeLine="53" fill="#CCFFFF" height="32" id="TClassMetrics" rx="2.5" ry="2.5" style="stroke:#A9A9A9;stroke-width:0.5;" width="117" x="15" y="459.5"/><ellipse cx="30" cy="475.5" fill="#FFFFFF" rx="11" ry="11" style="stroke:#181818;stroke-width:1.0;"/><path d="M31.4531,482.25 L28.8906,482.25 L28.8906,472.25 L25.8438,472.25 L25.8438,470.1094 L34.4844,470.1094 L34.4844,472.25 L31.4531,472.25 L31.4531,482.25 Z " fill="#000000"/><text fill="#000000" font-family="sans-serif" font-size="14" lengthAdjust="spacing" textLength="85" x="44" y="480.3467">TClassMetrics</text></g><!--class BehaviouralEntity--><g id="elem_BehaviouralEntity"><rect codeLine="55" fill="#CCFFFF" height="32" id="BehaviouralEntity" rx="2.5" ry="2.5" style="stroke:#A9A9A9;stroke-width:0.5;" width="144" x="991.5" y="459.5"/><ellipse cx="1006.5" cy="475.5" fill="#FFFFFF" rx="11" ry="11" style="stroke:#181818;stroke-width:1.0;"/><path d="M1006.4375,471.3281 Q1005.6875,471.3281 1005.125,471.625 Q1004.5625,471.9063 1004.1719,472.4375 Q1003.7813,472.9688 1003.5781,473.75 Q1003.3906,474.5156 1003.3906,475.4688 Q1003.3906,476.4375 1003.5625,477.2031 Q1003.75,477.9531 1004.1094,478.4688 Q1004.4844,478.9844 1005.0625,479.2656 Q1005.6406,479.5313 1006.4375,479.5313 Q1007.1719,479.5313 1007.9063,479.3594 Q1008.6563,479.1875 1009.5313,478.8906 L1009.5313,481.0469 Q1009.125,481.2031 1008.7344,481.3281 Q1008.3438,481.4375 1007.9375,481.5156 Q1007.5313,481.5938 1007.1094,481.625 Q1006.6875,481.6719 1006.1875,481.6719 Q1004.7813,481.6719 1003.75,481.2188 Q1002.7344,480.7656 1002.0625,479.9531 Q1001.3906,479.1406 1001.0625,478 Q1000.7344,476.8438 1000.7344,475.4531 Q1000.7344,474.0781 1001.1094,472.9219 Q1001.4844,471.7656 1002.2031,470.9375 Q1002.9219,470.1094 1003.9844,469.6563 Q1005.0469,469.1875 1006.4375,469.1875 Q1007.3438,469.1875 1008.25,469.4219 Q1009.1563,469.6406 1009.9844,470.0469 L1009.1563,472.1406 Q1008.4688,471.8125 1007.7813,471.5781 Q1007.0938,471.3281 1006.4375,471.3281 Z " fill="#000000"/><text fill="#000000" font-family="sans-serif" font-size="14" lengthAdjust="spacing" textLength="112" x="1020.5" y="480.3467">BehaviouralEntity</text></g><!--class Implementation--><g id="elem_Implementation"><rect codeLine="57" fill="#CCFFFF" height="32" id="Implementation" rx="2.5" ry="2.5" style="stroke:#A9A9A9;stroke-width:0.5;" width="136" x="2214.5" y="99"/><ellipse cx="2229.5" cy="115" fill="#FFFFFF" rx="11" ry="11" style="stroke:#181818;stroke-width:1.0;"/><path d="M2229.4375,110.8281 Q2228.6875,110.8281 2228.125,111.125 Q2227.5625,111.4063 2227.1719,111.9375 Q2226.7813,112.4688 2226.5781,113.25 Q2226.3906,114.0156 2226.3906,114.9688 Q2226.3906,115.9375 2226.5625,116.7031 Q2226.75,117.4531 2227.1094,117.9688 Q2227.4844,118.4844 2228.0625,118.7656 Q2228.6406,119.0313 2229.4375,119.0313 Q2230.1719,119.0313 2230.9063,118.8594 Q2231.6563,118.6875 2232.5313,118.3906 L2232.5313,120.5469 Q2232.125,120.7031 2231.7344,120.8281 Q2231.3438,120.9375 2230.9375,121.0156 Q2230.5313,121.0938 2230.1094,121.125 Q2229.6875,121.1719 2229.1875,121.1719 Q2227.7813,121.1719 2226.75,120.7188 Q2225.7344,120.2656 2225.0625,119.4531 Q2224.3906,118.6406 2224.0625,117.5 Q2223.7344,116.3438 2223.7344,114.9531 Q2223.7344,113.5781 2224.1094,112.4219 Q2224.4844,111.2656 2225.2031,110.4375 Q2225.9219,109.6094 2226.9844,109.1563 Q2228.0469,108.6875 2229.4375,108.6875 Q2230.3438,108.6875 2231.25,108.9219 Q2232.1563,109.1406 2232.9844,109.5469 L2232.1563,111.6406 Q2231.4688,111.3125 2230.7813,111.0781 Q2230.0938,110.8281 2229.4375,110.8281 Z " fill="#000000"/><text fill="#000000" font-family="sans-serif" font-size="14" lengthAdjust="spacing" textLength="104" x="2243.5" y="119.8467">Implementation</text></g><!--class Class--><g id="elem_Class"><rect codeLine="59" fill="#CCFFFF" height="32" id="Class" rx="2.5" ry="2.5" style="stroke:#A9A9A9;stroke-width:0.5;" width="63" x="42" y="588"/><ellipse cx="57" cy="604" fill="#FFFFFF" rx="11" ry="11" style="stroke:#181818;stroke-width:1.0;"/><path d="M56.9375,599.8281 Q56.1875,599.8281 55.625,600.125 Q55.0625,600.4063 54.6719,600.9375 Q54.2813,601.4688 54.0781,602.25 Q53.8906,603.0156 53.8906,603.9688 Q53.8906,604.9375 54.0625,605.7031 Q54.25,606.4531 54.6094,606.9688 Q54.9844,607.4844 55.5625,607.7656 Q56.1406,608.0313 56.9375,608.0313 Q57.6719,608.0313 58.4063,607.8594 Q59.1563,607.6875 60.0313,607.3906 L60.0313,609.5469 Q59.625,609.7031 59.2344,609.8281 Q58.8438,609.9375 58.4375,610.0156 Q58.0313,610.0938 57.6094,610.125 Q57.1875,610.1719 56.6875,610.1719 Q55.2813,610.1719 54.25,609.7188 Q53.2344,609.2656 52.5625,608.4531 Q51.8906,607.6406 51.5625,606.5 Q51.2344,605.3438 51.2344,603.9531 Q51.2344,602.5781 51.6094,601.4219 Q51.9844,600.2656 52.7031,599.4375 Q53.4219,598.6094 54.4844,598.1563 Q55.5469,597.6875 56.9375,597.6875 Q57.8438,597.6875 58.75,597.9219 Q59.6563,598.1406 60.4844,598.5469 L59.6563,600.6406 Q58.9688,600.3125 58.2813,600.0781 Q57.5938,599.8281 56.9375,599.8281 Z " fill="#000000"/><text fill="#000000" font-family="sans-serif" font-size="14" lengthAdjust="spacing" textLength="31" x="71" y="608.8467">Class</text></g><!--class Inheritance--><g id="elem_Inheritance"><rect codeLine="61" fill="#CCFFFF" height="32" id="Inheritance" rx="2.5" ry="2.5" style="stroke:#A9A9A9;stroke-width:0.5;" width="105" x="2386" y="99"/><ellipse cx="2401" cy="115" fill="#FFFFFF" rx="11" ry="11" style="stroke:#181818;stroke-width:1.0;"/><path d="M2400.9375,110.8281 Q2400.1875,110.8281 2399.625,111.125 Q2399.0625,111.4063 2398.6719,111.9375 Q2398.2813,112.4688 2398.0781,113.25 Q2397.8906,114.0156 2397.8906,114.9688 Q2397.8906,115.9375 2398.0625,116.7031 Q2398.25,117.4531 2398.6094,117.9688 Q2398.9844,118.4844 2399.5625,118.7656 Q2400.1406,119.0313 2400.9375,119.0313 Q2401.6719,119.0313 2402.4063,118.8594 Q2403.1563,118.6875 2404.0313,118.3906 L2404.0313,120.5469 Q2403.625,120.7031 2403.2344,120.8281 Q2402.8438,120.9375 2402.4375,121.0156 Q2402.0313,121.0938 2401.6094,121.125 Q2401.1875,121.1719 2400.6875,121.1719 Q2399.2813,121.1719 2398.25,120.7188 Q2397.2344,120.2656 2396.5625,119.4531 Q2395.8906,118.6406 2395.5625,117.5 Q2395.2344,116.3438 2395.2344,114.9531 Q2395.2344,113.5781 2395.6094,112.4219 Q2395.9844,111.2656 2396.7031,110.4375 Q2397.4219,109.6094 2398.4844,109.1563 Q2399.5469,108.6875 2400.9375,108.6875 Q2401.8438,108.6875 2402.75,108.9219 Q2403.6563,109.1406 2404.4844,109.5469 L2403.6563,111.6406 Q2402.9688,111.3125 2402.2813,111.0781 Q2401.5938,110.8281 2400.9375,110.8281 Z " fill="#000000"/><text fill="#000000" font-family="sans-serif" font-size="14" lengthAdjust="spacing" textLength="73" x="2415" y="119.8467">Inheritance</text></g><!--class Function--><g id="elem_Function"><rect codeLine="63" fill="#CCFFFF" height="32" id="Function" rx="2.5" ry="2.5" style="stroke:#A9A9A9;stroke-width:0.5;" width="86" x="1278.5" y="588"/><ellipse cx="1293.5" cy="604" fill="#FFFFFF" rx="11" ry="11" style="stroke:#181818;stroke-width:1.0;"/><path d="M1293.4375,599.8281 Q1292.6875,599.8281 1292.125,600.125 Q1291.5625,600.4063 1291.1719,600.9375 Q1290.7813,601.4688 1290.5781,602.25 Q1290.3906,603.0156 1290.3906,603.9688 Q1290.3906,604.9375 1290.5625,605.7031 Q1290.75,606.4531 1291.1094,606.9688 Q1291.4844,607.4844 1292.0625,607.7656 Q1292.6406,608.0313 1293.4375,608.0313 Q1294.1719,608.0313 1294.9063,607.8594 Q1295.6563,607.6875 1296.5313,607.3906 L1296.5313,609.5469 Q1296.125,609.7031 1295.7344,609.8281 Q1295.3438,609.9375 1294.9375,610.0156 Q1294.5313,610.0938 1294.1094,610.125 Q1293.6875,610.1719 1293.1875,610.1719 Q1291.7813,610.1719 1290.75,609.7188 Q1289.7344,609.2656 1289.0625,608.4531 Q1288.3906,607.6406 1288.0625,606.5 Q1287.7344,605.3438 1287.7344,603.9531 Q1287.7344,602.5781 1288.1094,601.4219 Q1288.4844,600.2656 1289.2031,599.4375 Q1289.9219,598.6094 1290.9844,598.1563 Q1292.0469,597.6875 1293.4375,597.6875 Q1294.3438,597.6875 1295.25,597.9219 Q1296.1563,598.1406 1296.9844,598.5469 L1296.1563,600.6406 Q1295.4688,600.3125 1294.7813,600.0781 Q1294.0938,599.8281 1293.4375,599.8281 Z " fill="#000000"/><text fill="#000000" font-family="sans-serif" font-size="14" lengthAdjust="spacing" textLength="54" x="1307.5" y="608.8467">Function</text></g><!--class ParametricClass--><g id="elem_ParametricClass"><rect codeLine="65" fill="#CCFFFF" height="32" id="ParametricClass" rx="2.5" ry="2.5" style="stroke:#A9A9A9;stroke-width:0.5;" width="133" x="7" y="680"/><ellipse cx="22" cy="696" fill="#FFFFFF" rx="11" ry="11" style="stroke:#181818;stroke-width:1.0;"/><path d="M21.9375,691.8281 Q21.1875,691.8281 20.625,692.125 Q20.0625,692.4063 19.6719,692.9375 Q19.2813,693.4688 19.0781,694.25 Q18.8906,695.0156 18.8906,695.9688 Q18.8906,696.9375 19.0625,697.7031 Q19.25,698.4531 19.6094,698.9688 Q19.9844,699.4844 20.5625,699.7656 Q21.1406,700.0313 21.9375,700.0313 Q22.6719,700.0313 23.4063,699.8594 Q24.1563,699.6875 25.0313,699.3906 L25.0313,701.5469 Q24.625,701.7031 24.2344,701.8281 Q23.8438,701.9375 23.4375,702.0156 Q23.0313,702.0938 22.6094,702.125 Q22.1875,702.1719 21.6875,702.1719 Q20.2813,702.1719 19.25,701.7188 Q18.2344,701.2656 17.5625,700.4531 Q16.8906,699.6406 16.5625,698.5 Q16.2344,697.3438 16.2344,695.9531 Q16.2344,694.5781 16.6094,693.4219 Q16.9844,692.2656 17.7031,691.4375 Q18.4219,690.6094 19.4844,690.1563 Q20.5469,689.6875 21.9375,689.6875 Q22.8438,689.6875 23.75,689.9219 Q24.6563,690.1406 25.4844,690.5469 L24.6563,692.6406 Q23.9688,692.3125 23.2813,692.0781 Q22.5938,691.8281 21.9375,691.8281 Z " fill="#000000"/><text fill="#000000" font-family="sans-serif" font-size="14" lengthAdjust="spacing" textLength="101" x="36" y="700.8467">ParametricClass</text></g><!--class Invocation--><g id="elem_Invocation"><rect codeLine="67" fill="#CCFFFF" height="32" id="Invocation" rx="2.5" ry="2.5" style="stroke:#A9A9A9;stroke-width:0.5;" width="98" x="2526.5" y="99"/><ellipse cx="2541.5" cy="115" fill="#FFFFFF" rx="11" ry="11" style="stroke:#181818;stroke-width:1.0;"/><path d="M2541.4375,110.8281 Q2540.6875,110.8281 2540.125,111.125 Q2539.5625,111.4063 2539.1719,111.9375 Q2538.7813,112.4688 2538.5781,113.25 Q2538.3906,114.0156 2538.3906,114.9688 Q2538.3906,115.9375 2538.5625,116.7031 Q2538.75,117.4531 2539.1094,117.9688 Q2539.4844,118.4844 2540.0625,118.7656 Q2540.6406,119.0313 2541.4375,119.0313 Q2542.1719,119.0313 2542.9063,118.8594 Q2543.6563,118.6875 2544.5313,118.3906 L2544.5313,120.5469 Q2544.125,120.7031 2543.7344,120.8281 Q2543.3438,120.9375 2542.9375,121.0156 Q2542.5313,121.0938 2542.1094,121.125 Q2541.6875,121.1719 2541.1875,121.1719 Q2539.7813,121.1719 2538.75,120.7188 Q2537.7344,120.2656 2537.0625,119.4531 Q2536.3906,118.6406 2536.0625,117.5 Q2535.7344,116.3438 2535.7344,114.9531 Q2535.7344,113.5781 2536.1094,112.4219 Q2536.4844,111.2656 2537.2031,110.4375 Q2537.9219,109.6094 2538.9844,109.1563 Q2540.0469,108.6875 2541.4375,108.6875 Q2542.3438,108.6875 2543.25,108.9219 Q2544.1563,109.1406 2544.9844,109.5469 L2544.1563,111.6406 Q2543.4688,111.3125 2542.7813,111.0781 Q2542.0938,110.8281 2541.4375,110.8281 Z " fill="#000000"/><text fill="#000000" font-family="sans-serif" font-size="14" lengthAdjust="spacing" textLength="66" x="2555.5" y="119.8467">Invocation</text></g><!--class ParametricInterface--><g id="elem_ParametricInterface"><rect codeLine="69" fill="#CCFFFF" height="32" id="ParametricInterface" rx="2.5" ry="2.5" style="stroke:#A9A9A9;stroke-width:0.5;" width="160" x="515.5" y="680"/><ellipse cx="530.5" cy="696" fill="#FFFFFF" rx="11" ry="11" style="stroke:#181818;stroke-width:1.0;"/><path d="M530.4375,691.8281 Q529.6875,691.8281 529.125,692.125 Q528.5625,692.4063 528.1719,692.9375 Q527.7813,693.4688 527.5781,694.25 Q527.3906,695.0156 527.3906,695.9688 Q527.3906,696.9375 527.5625,697.7031 Q527.75,698.4531 528.1094,698.9688 Q528.4844,699.4844 529.0625,699.7656 Q529.6406,700.0313 530.4375,700.0313 Q531.1719,700.0313 531.9063,699.8594 Q532.6563,699.6875 533.5313,699.3906 L533.5313,701.5469 Q533.125,701.7031 532.7344,701.8281 Q532.3438,701.9375 531.9375,702.0156 Q531.5313,702.0938 531.1094,702.125 Q530.6875,702.1719 530.1875,702.1719 Q528.7813,702.1719 527.75,701.7188 Q526.7344,701.2656 526.0625,700.4531 Q525.3906,699.6406 525.0625,698.5 Q524.7344,697.3438 524.7344,695.9531 Q524.7344,694.5781 525.1094,693.4219 Q525.4844,692.2656 526.2031,691.4375 Q526.9219,690.6094 527.9844,690.1563 Q529.0469,689.6875 530.4375,689.6875 Q531.3438,689.6875 532.25,689.9219 Q533.1563,690.1406 533.9844,690.5469 L533.1563,692.6406 Q532.4688,692.3125 531.7813,692.0781 Q531.0938,691.8281 530.4375,691.8281 Z " fill="#000000"/><text fill="#000000" font-family="sans-serif" font-size="14" lengthAdjust="spacing" textLength="128" x="544.5" y="700.8467">ParametricInterface</text></g><!--class Namespace--><g id="elem_Namespace"><rect codeLine="71" fill="#CCFFFF" height="32" id="Namespace" rx="2.5" ry="2.5" style="stroke:#A9A9A9;stroke-width:0.5;" width="105" x="701" y="588"/><ellipse cx="716" cy="604" fill="#FFFFFF" rx="11" ry="11" style="stroke:#181818;stroke-width:1.0;"/><path d="M715.9375,599.8281 Q715.1875,599.8281 714.625,600.125 Q714.0625,600.4063 713.6719,600.9375 Q713.2813,601.4688 713.0781,602.25 Q712.8906,603.0156 712.8906,603.9688 Q712.8906,604.9375 713.0625,605.7031 Q713.25,606.4531 713.6094,606.9688 Q713.9844,607.4844 714.5625,607.7656 Q715.1406,608.0313 715.9375,608.0313 Q716.6719,608.0313 717.4063,607.8594 Q718.1563,607.6875 719.0313,607.3906 L719.0313,609.5469 Q718.625,609.7031 718.2344,609.8281 Q717.8438,609.9375 717.4375,610.0156 Q717.0313,610.0938 716.6094,610.125 Q716.1875,610.1719 715.6875,610.1719 Q714.2813,610.1719 713.25,609.7188 Q712.2344,609.2656 711.5625,608.4531 Q710.8906,607.6406 710.5625,606.5 Q710.2344,605.3438 710.2344,603.9531 Q710.2344,602.5781 710.6094,601.4219 Q710.9844,600.2656 711.7031,599.4375 Q712.4219,598.6094 713.4844,598.1563 Q714.5469,597.6875 715.9375,597.6875 Q716.8438,597.6875 717.75,597.9219 Q718.6563,598.1406 719.4844,598.5469 L718.6563,600.6406 Q717.9688,600.3125 717.2813,600.0781 Q716.5938,599.8281 715.9375,599.8281 Z " fill="#000000"/><text fill="#000000" font-family="sans-serif" font-size="14" lengthAdjust="spacing" textLength="73" x="730" y="608.8467">Namespace</text></g><!--class JSDoc--><g id="elem_JSDoc"><rect codeLine="73" fill="#CCFFFF" height="32" id="JSDoc" rx="2.5" ry="2.5" style="stroke:#A9A9A9;stroke-width:0.5;" width="67" x="1497" y="203"/><ellipse cx="1512" cy="219" fill="#FFFFFF" rx="11" ry="11" style="stroke:#181818;stroke-width:1.0;"/><path d="M1511.9375,214.8281 Q1511.1875,214.8281 1510.625,215.125 Q1510.0625,215.4063 1509.6719,215.9375 Q1509.2813,216.4688 1509.0781,217.25 Q1508.8906,218.0156 1508.8906,218.9688 Q1508.8906,219.9375 1509.0625,220.7031 Q1509.25,221.4531 1509.6094,221.9688 Q1509.9844,222.4844 1510.5625,222.7656 Q1511.1406,223.0313 1511.9375,223.0313 Q1512.6719,223.0313 1513.4063,222.8594 Q1514.1563,222.6875 1515.0313,222.3906 L1515.0313,224.5469 Q1514.625,224.7031 1514.2344,224.8281 Q1513.8438,224.9375 1513.4375,225.0156 Q1513.0313,225.0938 1512.6094,225.125 Q1512.1875,225.1719 1511.6875,225.1719 Q1510.2813,225.1719 1509.25,224.7188 Q1508.2344,224.2656 1507.5625,223.4531 Q1506.8906,222.6406 1506.5625,221.5 Q1506.2344,220.3438 1506.2344,218.9531 Q1506.2344,217.5781 1506.6094,216.4219 Q1506.9844,215.2656 1507.7031,214.4375 Q1508.4219,213.6094 1509.4844,213.1563 Q1510.5469,212.6875 1511.9375,212.6875 Q1512.8438,212.6875 1513.75,212.9219 Q1514.6563,213.1406 1515.4844,213.5469 L1514.6563,215.6406 Q1513.9688,215.3125 1513.2813,215.0781 Q1512.5938,214.8281 1511.9375,214.8281 Z " fill="#000000"/><text fill="#000000" font-family="sans-serif" font-size="14" lengthAdjust="spacing" textLength="35" x="1526" y="223.8467">JSDoc</text></g><!--class ParametricFunction--><g id="elem_ParametricFunction"><rect codeLine="75" fill="#CCFFFF" height="32" id="ParametricFunction" rx="2.5" ry="2.5" style="stroke:#A9A9A9;stroke-width:0.5;" width="156" x="1364.5" y="680"/><ellipse cx="1379.5" cy="696" fill="#FFFFFF" rx="11" ry="11" style="stroke:#181818;stroke-width:1.0;"/><path d="M1379.4375,691.8281 Q1378.6875,691.8281 1378.125,692.125 Q1377.5625,692.4063 1377.1719,692.9375 Q1376.7813,693.4688 1376.5781,694.25 Q1376.3906,695.0156 1376.3906,695.9688 Q1376.3906,696.9375 1376.5625,697.7031 Q1376.75,698.4531 1377.1094,698.9688 Q1377.4844,699.4844 1378.0625,699.7656 Q1378.6406,700.0313 1379.4375,700.0313 Q1380.1719,700.0313 1380.9063,699.8594 Q1381.6563,699.6875 1382.5313,699.3906 L1382.5313,701.5469 Q1382.125,701.7031 1381.7344,701.8281 Q1381.3438,701.9375 1380.9375,702.0156 Q1380.5313,702.0938 1380.1094,702.125 Q1379.6875,702.1719 1379.1875,702.1719 Q1377.7813,702.1719 1376.75,701.7188 Q1375.7344,701.2656 1375.0625,700.4531 Q1374.3906,699.6406 1374.0625,698.5 Q1373.7344,697.3438 1373.7344,695.9531 Q1373.7344,694.5781 1374.1094,693.4219 Q1374.4844,692.2656 1375.2031,691.4375 Q1375.9219,690.6094 1376.9844,690.1563 Q1378.0469,689.6875 1379.4375,689.6875 Q1380.3438,689.6875 1381.25,689.9219 Q1382.1563,690.1406 1382.9844,690.5469 L1382.1563,692.6406 Q1381.4688,692.3125 1380.7813,692.0781 Q1380.0938,691.8281 1379.4375,691.8281 Z " fill="#000000"/><text fill="#000000" font-family="sans-serif" font-size="14" lengthAdjust="spacing" textLength="124" x="1393.5" y="700.8467">ParametricFunction</text></g><!--class Accessor--><g id="elem_Accessor"><rect codeLine="77" fill="#CCFFFF" height="32" id="Accessor" rx="2.5" ry="2.5" style="stroke:#A9A9A9;stroke-width:0.5;" width="87" x="1012" y="680"/><ellipse cx="1027" cy="696" fill="#FFFFFF" rx="11" ry="11" style="stroke:#181818;stroke-width:1.0;"/><path d="M1026.9375,691.8281 Q1026.1875,691.8281 1025.625,692.125 Q1025.0625,692.4063 1024.6719,692.9375 Q1024.2813,693.4688 1024.0781,694.25 Q1023.8906,695.0156 1023.8906,695.9688 Q1023.8906,696.9375 1024.0625,697.7031 Q1024.25,698.4531 1024.6094,698.9688 Q1024.9844,699.4844 1025.5625,699.7656 Q1026.1406,700.0313 1026.9375,700.0313 Q1027.6719,700.0313 1028.4063,699.8594 Q1029.1563,699.6875 1030.0313,699.3906 L1030.0313,701.5469 Q1029.625,701.7031 1029.2344,701.8281 Q1028.8438,701.9375 1028.4375,702.0156 Q1028.0313,702.0938 1027.6094,702.125 Q1027.1875,702.1719 1026.6875,702.1719 Q1025.2813,702.1719 1024.25,701.7188 Q1023.2344,701.2656 1022.5625,700.4531 Q1021.8906,699.6406 1021.5625,698.5 Q1021.2344,697.3438 1021.2344,695.9531 Q1021.2344,694.5781 1021.6094,693.4219 Q1021.9844,692.2656 1022.7031,691.4375 Q1023.4219,690.6094 1024.4844,690.1563 Q1025.5469,689.6875 1026.9375,689.6875 Q1027.8438,689.6875 1028.75,689.9219 Q1029.6563,690.1406 1030.4844,690.5469 L1029.6563,692.6406 Q1028.9688,692.3125 1028.2813,692.0781 Q1027.5938,691.8281 1026.9375,691.8281 Z " fill="#000000"/><text fill="#000000" font-family="sans-serif" font-size="14" lengthAdjust="spacing" textLength="55" x="1041" y="700.8467">Accessor</text></g><!--class Folder--><g id="elem_Folder"><rect codeLine="79" fill="#CCFFFF" height="32" id="Folder" rx="2.5" ry="2.5" style="stroke:#A9A9A9;stroke-width:0.5;" width="73" x="1723" y="319"/><ellipse cx="1738" cy="335" fill="#FFFFFF" rx="11" ry="11" style="stroke:#181818;stroke-width:1.0;"/><path d="M1737.9375,330.8281 Q1737.1875,330.8281 1736.625,331.125 Q1736.0625,331.4063 1735.6719,331.9375 Q1735.2813,332.4688 1735.0781,333.25 Q1734.8906,334.0156 1734.8906,334.9688 Q1734.8906,335.9375 1735.0625,336.7031 Q1735.25,337.4531 1735.6094,337.9688 Q1735.9844,338.4844 1736.5625,338.7656 Q1737.1406,339.0313 1737.9375,339.0313 Q1738.6719,339.0313 1739.4063,338.8594 Q1740.1563,338.6875 1741.0313,338.3906 L1741.0313,340.5469 Q1740.625,340.7031 1740.2344,340.8281 Q1739.8438,340.9375 1739.4375,341.0156 Q1739.0313,341.0938 1738.6094,341.125 Q1738.1875,341.1719 1737.6875,341.1719 Q1736.2813,341.1719 1735.25,340.7188 Q1734.2344,340.2656 1733.5625,339.4531 Q1732.8906,338.6406 1732.5625,337.5 Q1732.2344,336.3438 1732.2344,334.9531 Q1732.2344,333.5781 1732.6094,332.4219 Q1732.9844,331.2656 1733.7031,330.4375 Q1734.4219,329.6094 1735.4844,329.1563 Q1736.5469,328.6875 1737.9375,328.6875 Q1738.8438,328.6875 1739.75,328.9219 Q1740.6563,329.1406 1741.4844,329.5469 L1740.6563,331.6406 Q1739.9688,331.3125 1739.2813,331.0781 Q1738.5938,330.8281 1737.9375,330.8281 Z " fill="#000000"/><text fill="#000000" font-family="sans-serif" font-size="14" lengthAdjust="spacing" textLength="41" x="1752" y="339.8467">Folder</text></g><!--class TEntityCreator--><g id="elem_TEntityCreator"><rect codeLine="81" fill="#CCFFFF" height="32" id="TEntityCreator" rx="2.5" ry="2.5" style="stroke:#A9A9A9;stroke-width:0.5;" width="123" x="3200" y="7"/><ellipse cx="3215" cy="23" fill="#FFFFFF" rx="11" ry="11" style="stroke:#181818;stroke-width:1.0;"/><path d="M3216.4531,29.75 L3213.8906,29.75 L3213.8906,19.75 L3210.8438,19.75 L3210.8438,17.6094 L3219.4844,17.6094 L3219.4844,19.75 L3216.4531,19.75 L3216.4531,29.75 Z " fill="#000000"/><text fill="#000000" font-family="sans-serif" font-size="14" lengthAdjust="spacing" textLength="91" x="3229" y="27.8467">TEntityCreator</text></g><!--class Property--><g id="elem_Property"><rect codeLine="83" fill="#CCFFFF" height="105.1875" id="Property" rx="2.5" ry="2.5" style="stroke:#A9A9A9;stroke-width:0.5;" width="197" x="1427" y="423"/><ellipse cx="1493.25" cy="439" fill="#FFFFFF" rx="11" ry="11" style="stroke:#181818;stroke-width:1.0;"/><path d="M1493.1875,434.8281 Q1492.4375,434.8281 1491.875,435.125 Q1491.3125,435.4063 1490.9219,435.9375 Q1490.5313,436.4688 1490.3281,437.25 Q1490.1406,438.0156 1490.1406,438.9688 Q1490.1406,439.9375 1490.3125,440.7031 Q1490.5,441.4531 1490.8594,441.9688 Q1491.2344,442.4844 1491.8125,442.7656 Q1492.3906,443.0313 1493.1875,443.0313 Q1493.9219,443.0313 1494.6563,442.8594 Q1495.4063,442.6875 1496.2813,442.3906 L1496.2813,444.5469 Q1495.875,444.7031 1495.4844,444.8281 Q1495.0938,444.9375 1494.6875,445.0156 Q1494.2813,445.0938 1493.8594,445.125 Q1493.4375,445.1719 1492.9375,445.1719 Q1491.5313,445.1719 1490.5,444.7188 Q1489.4844,444.2656 1488.8125,443.4531 Q1488.1406,442.6406 1487.8125,441.5 Q1487.4844,440.3438 1487.4844,438.9531 Q1487.4844,437.5781 1487.8594,436.4219 Q1488.2344,435.2656 1488.9531,434.4375 Q1489.6719,433.6094 1490.7344,433.1563 Q1491.7969,432.6875 1493.1875,432.6875 Q1494.0938,432.6875 1495,432.9219 Q1495.9063,433.1406 1496.7344,433.5469 L1495.9063,435.6406 Q1495.2188,435.3125 1494.5313,435.0781 Q1493.8438,434.8281 1493.1875,434.8281 Z " fill="#000000"/><text fill="#000000" font-family="sans-serif" font-size="14" lengthAdjust="spacing" textLength="56" x="1513.75" y="443.8467">Property</text><line style="stroke:#A9A9A9;stroke-width:0.5;" x1="1428" x2="1623" y1="455" y2="455"/><text fill="#000000" font-family="sans-serif" font-size="14" lengthAdjust="spacing" textLength="172" x="1433" y="471.9951">Boolean isJavaScriptPrivate</text><text fill="#000000" font-family="sans-serif" font-size="14" lengthAdjust="spacing" textLength="185" x="1433" y="488.292">Boolean isDefinitelyAssigned</text><text fill="#000000" font-family="sans-serif" font-size="14" lengthAdjust="spacing" textLength="120" x="1433" y="504.5889">Boolean isOptional</text><text fill="#000000" font-family="sans-serif" font-size="14" lengthAdjust="spacing" textLength="114" x="1433" y="520.8857">Boolean readOnly</text></g><!--class Interface--><g id="elem_Interface"><rect codeLine="89" fill="#CCFFFF" height="32" id="Interface" rx="2.5" ry="2.5" style="stroke:#A9A9A9;stroke-width:0.5;" width="90" x="564.5" y="588"/><ellipse cx="579.5" cy="604" fill="#FFFFFF" rx="11" ry="11" style="stroke:#181818;stroke-width:1.0;"/><path d="M579.4375,599.8281 Q578.6875,599.8281 578.125,600.125 Q577.5625,600.4063 577.1719,600.9375 Q576.7813,601.4688 576.5781,602.25 Q576.3906,603.0156 576.3906,603.9688 Q576.3906,604.9375 576.5625,605.7031 Q576.75,606.4531 577.1094,606.9688 Q577.4844,607.4844 578.0625,607.7656 Q578.6406,608.0313 579.4375,608.0313 Q580.1719,608.0313 580.9063,607.8594 Q581.6563,607.6875 582.5313,607.3906 L582.5313,609.5469 Q582.125,609.7031 581.7344,609.8281 Q581.3438,609.9375 580.9375,610.0156 Q580.5313,610.0938 580.1094,610.125 Q579.6875,610.1719 579.1875,610.1719 Q577.7813,610.1719 576.75,609.7188 Q575.7344,609.2656 575.0625,608.4531 Q574.3906,607.6406 574.0625,606.5 Q573.7344,605.3438 573.7344,603.9531 Q573.7344,602.5781 574.1094,601.4219 Q574.4844,600.2656 575.2031,599.4375 Q575.9219,598.6094 576.9844,598.1563 Q578.0469,597.6875 579.4375,597.6875 Q580.3438,597.6875 581.25,597.9219 Q582.1563,598.1406 582.9844,598.5469 L582.1563,600.6406 Q581.4688,600.3125 580.7813,600.0781 Q580.0938,599.8281 579.4375,599.8281 Z " fill="#000000"/><text fill="#000000" font-family="sans-serif" font-size="14" lengthAdjust="spacing" textLength="58" x="593.5" y="608.8467">Interface</text></g><!--class NamedEntity--><g id="elem_NamedEntity"><rect codeLine="91" fill="#CCFFFF" height="32" id="NamedEntity" rx="2.5" ry="2.5" style="stroke:#A9A9A9;stroke-width:0.5;" width="114" x="1599.5" y="203"/><ellipse cx="1614.5" cy="219" fill="#FFFFFF" rx="11" ry="11" style="stroke:#181818;stroke-width:1.0;"/><path d="M1614.4375,214.8281 Q1613.6875,214.8281 1613.125,215.125 Q1612.5625,215.4063 1612.1719,215.9375 Q1611.7813,216.4688 1611.5781,217.25 Q1611.3906,218.0156 1611.3906,218.9688 Q1611.3906,219.9375 1611.5625,220.7031 Q1611.75,221.4531 1612.1094,221.9688 Q1612.4844,222.4844 1613.0625,222.7656 Q1613.6406,223.0313 1614.4375,223.0313 Q1615.1719,223.0313 1615.9063,222.8594 Q1616.6563,222.6875 1617.5313,222.3906 L1617.5313,224.5469 Q1617.125,224.7031 1616.7344,224.8281 Q1616.3438,224.9375 1615.9375,225.0156 Q1615.5313,225.0938 1615.1094,225.125 Q1614.6875,225.1719 1614.1875,225.1719 Q1612.7813,225.1719 1611.75,224.7188 Q1610.7344,224.2656 1610.0625,223.4531 Q1609.3906,222.6406 1609.0625,221.5 Q1608.7344,220.3438 1608.7344,218.9531 Q1608.7344,217.5781 1609.1094,216.4219 Q1609.4844,215.2656 1610.2031,214.4375 Q1610.9219,213.6094 1611.9844,213.1563 Q1613.0469,212.6875 1614.4375,212.6875 Q1615.3438,212.6875 1616.25,212.9219 Q1617.1563,213.1406 1617.9844,213.5469 L1617.1563,215.6406 Q1616.4688,215.3125 1615.7813,215.0781 Q1615.0938,214.8281 1614.4375,214.8281 Z " fill="#000000"/><text fill="#000000" font-family="sans-serif" font-size="14" lengthAdjust="spacing" textLength="82" x="1628.5" y="223.8467">NamedEntity</text></g><!--class ParametricArrowFunction--><g id="elem_ParametricArrowFunction"><rect codeLine="93" fill="#CCFFFF" height="32" id="ParametricArrowFunction" rx="2.5" ry="2.5" style="stroke:#A9A9A9;stroke-width:0.5;" width="195" x="1134" y="680"/><ellipse cx="1149" cy="696" fill="#FFFFFF" rx="11" ry="11" style="stroke:#181818;stroke-width:1.0;"/><path d="M1148.9375,691.8281 Q1148.1875,691.8281 1147.625,692.125 Q1147.0625,692.4063 1146.6719,692.9375 Q1146.2813,693.4688 1146.0781,694.25 Q1145.8906,695.0156 1145.8906,695.9688 Q1145.8906,696.9375 1146.0625,697.7031 Q1146.25,698.4531 1146.6094,698.9688 Q1146.9844,699.4844 1147.5625,699.7656 Q1148.1406,700.0313 1148.9375,700.0313 Q1149.6719,700.0313 1150.4063,699.8594 Q1151.1563,699.6875 1152.0313,699.3906 L1152.0313,701.5469 Q1151.625,701.7031 1151.2344,701.8281 Q1150.8438,701.9375 1150.4375,702.0156 Q1150.0313,702.0938 1149.6094,702.125 Q1149.1875,702.1719 1148.6875,702.1719 Q1147.2813,702.1719 1146.25,701.7188 Q1145.2344,701.2656 1144.5625,700.4531 Q1143.8906,699.6406 1143.5625,698.5 Q1143.2344,697.3438 1143.2344,695.9531 Q1143.2344,694.5781 1143.6094,693.4219 Q1143.9844,692.2656 1144.7031,691.4375 Q1145.4219,690.6094 1146.4844,690.1563 Q1147.5469,689.6875 1148.9375,689.6875 Q1149.8438,689.6875 1150.75,689.9219 Q1151.6563,690.1406 1152.4844,690.5469 L1151.6563,692.6406 Q1150.9688,692.3125 1150.2813,692.0781 Q1149.5938,691.8281 1148.9375,691.8281 Z " fill="#000000"/><text fill="#000000" font-family="sans-serif" font-size="14" lengthAdjust="spacing" textLength="163" x="1163" y="700.8467">ParametricArrowFunction</text></g><!--class ParameterConcretization--><g id="elem_ParameterConcretization"><rect codeLine="95" fill="#CCFFFF" height="32" id="ParameterConcretization" rx="2.5" ry="2.5" style="stroke:#A9A9A9;stroke-width:0.5;" width="191" x="2660" y="99"/><ellipse cx="2675" cy="115" fill="#FFFFFF" rx="11" ry="11" style="stroke:#181818;stroke-width:1.0;"/><path d="M2674.9375,110.8281 Q2674.1875,110.8281 2673.625,111.125 Q2673.0625,111.4063 2672.6719,111.9375 Q2672.2813,112.4688 2672.0781,113.25 Q2671.8906,114.0156 2671.8906,114.9688 Q2671.8906,115.9375 2672.0625,116.7031 Q2672.25,117.4531 2672.6094,117.9688 Q2672.9844,118.4844 2673.5625,118.7656 Q2674.1406,119.0313 2674.9375,119.0313 Q2675.6719,119.0313 2676.4063,118.8594 Q2677.1563,118.6875 2678.0313,118.3906 L2678.0313,120.5469 Q2677.625,120.7031 2677.2344,120.8281 Q2676.8438,120.9375 2676.4375,121.0156 Q2676.0313,121.0938 2675.6094,121.125 Q2675.1875,121.1719 2674.6875,121.1719 Q2673.2813,121.1719 2672.25,120.7188 Q2671.2344,120.2656 2670.5625,119.4531 Q2669.8906,118.6406 2669.5625,117.5 Q2669.2344,116.3438 2669.2344,114.9531 Q2669.2344,113.5781 2669.6094,112.4219 Q2669.9844,111.2656 2670.7031,110.4375 Q2671.4219,109.6094 2672.4844,109.1563 Q2673.5469,108.6875 2674.9375,108.6875 Q2675.8438,108.6875 2676.75,108.9219 Q2677.6563,109.1406 2678.4844,109.5469 L2677.6563,111.6406 Q2676.9688,111.3125 2676.2813,111.0781 Q2675.5938,110.8281 2674.9375,110.8281 Z " fill="#000000"/><text fill="#000000" font-family="sans-serif" font-size="14" lengthAdjust="spacing" textLength="159" x="2689" y="119.8467">ParameterConcretization</text></g><!--class Type--><g id="elem_Type"><rect codeLine="97" fill="#CCFFFF" height="32" id="Type" rx="2.5" ry="2.5" style="stroke:#A9A9A9;stroke-width:0.5;" width="62" x="397.5" y="459.5"/><ellipse cx="412.5" cy="475.5" fill="#FFFFFF" rx="11" ry="11" style="stroke:#181818;stroke-width:1.0;"/><path d="M412.4375,471.3281 Q411.6875,471.3281 411.125,471.625 Q410.5625,471.9063 410.1719,472.4375 Q409.7813,472.9688 409.5781,473.75 Q409.3906,474.5156 409.3906,475.4688 Q409.3906,476.4375 409.5625,477.2031 Q409.75,477.9531 410.1094,478.4688 Q410.4844,478.9844 411.0625,479.2656 Q411.6406,479.5313 412.4375,479.5313 Q413.1719,479.5313 413.9063,479.3594 Q414.6563,479.1875 415.5313,478.8906 L415.5313,481.0469 Q415.125,481.2031 414.7344,481.3281 Q414.3438,481.4375 413.9375,481.5156 Q413.5313,481.5938 413.1094,481.625 Q412.6875,481.6719 412.1875,481.6719 Q410.7813,481.6719 409.75,481.2188 Q408.7344,480.7656 408.0625,479.9531 Q407.3906,479.1406 407.0625,478 Q406.7344,476.8438 406.7344,475.4531 Q406.7344,474.0781 407.1094,472.9219 Q407.4844,471.7656 408.2031,470.9375 Q408.9219,470.1094 409.9844,469.6563 Q411.0469,469.1875 412.4375,469.1875 Q413.3438,469.1875 414.25,469.4219 Q415.1563,469.6406 415.9844,470.0469 L415.1563,472.1406 Q414.4688,471.8125 413.7813,471.5781 Q413.0938,471.3281 412.4375,471.3281 Z " fill="#000000"/><text fill="#000000" font-family="sans-serif" font-size="14" lengthAdjust="spacing" textLength="30" x="426.5" y="480.3467">Type</text></g><!--class Reference--><g id="elem_Reference"><rect codeLine="99" fill="#CCFFFF" height="32" id="Reference" rx="2.5" ry="2.5" style="stroke:#A9A9A9;stroke-width:0.5;" width="97" x="2886" y="99"/><ellipse cx="2901" cy="115" fill="#FFFFFF" rx="11" ry="11" style="stroke:#181818;stroke-width:1.0;"/><path d="M2900.9375,110.8281 Q2900.1875,110.8281 2899.625,111.125 Q2899.0625,111.4063 2898.6719,111.9375 Q2898.2813,112.4688 2898.0781,113.25 Q2897.8906,114.0156 2897.8906,114.9688 Q2897.8906,115.9375 2898.0625,116.7031 Q2898.25,117.4531 2898.6094,117.9688 Q2898.9844,118.4844 2899.5625,118.7656 Q2900.1406,119.0313 2900.9375,119.0313 Q2901.6719,119.0313 2902.4063,118.8594 Q2903.1563,118.6875 2904.0313,118.3906 L2904.0313,120.5469 Q2903.625,120.7031 2903.2344,120.8281 Q2902.8438,120.9375 2902.4375,121.0156 Q2902.0313,121.0938 2901.6094,121.125 Q2901.1875,121.1719 2900.6875,121.1719 Q2899.2813,121.1719 2898.25,120.7188 Q2897.2344,120.2656 2896.5625,119.4531 Q2895.8906,118.6406 2895.5625,117.5 Q2895.2344,116.3438 2895.2344,114.9531 Q2895.2344,113.5781 2895.6094,112.4219 Q2895.9844,111.2656 2896.7031,110.4375 Q2897.4219,109.6094 2898.4844,109.1563 Q2899.5469,108.6875 2900.9375,108.6875 Q2901.8438,108.6875 2902.75,108.9219 Q2903.6563,109.1406 2904.4844,109.5469 L2903.6563,111.6406 Q2902.9688,111.3125 2902.2813,111.0781 Q2901.5938,110.8281 2900.9375,110.8281 Z " fill="#000000"/><text fill="#000000" font-family="sans-serif" font-size="14" lengthAdjust="spacing" textLength="65" x="2915" y="119.8467">Reference</text></g><!--class ParametricMethod--><g id="elem_ParametricMethod"><rect codeLine="101" fill="#CCFFFF" height="32" id="ParametricMethod" rx="2.5" ry="2.5" style="stroke:#A9A9A9;stroke-width:0.5;" width="151" x="826" y="680"/><ellipse cx="841" cy="696" fill="#FFFFFF" rx="11" ry="11" style="stroke:#181818;stroke-width:1.0;"/><path d="M840.9375,691.8281 Q840.1875,691.8281 839.625,692.125 Q839.0625,692.4063 838.6719,692.9375 Q838.2813,693.4688 838.0781,694.25 Q837.8906,695.0156 837.8906,695.9688 Q837.8906,696.9375 838.0625,697.7031 Q838.25,698.4531 838.6094,698.9688 Q838.9844,699.4844 839.5625,699.7656 Q840.1406,700.0313 840.9375,700.0313 Q841.6719,700.0313 842.4063,699.8594 Q843.1563,699.6875 844.0313,699.3906 L844.0313,701.5469 Q843.625,701.7031 843.2344,701.8281 Q842.8438,701.9375 842.4375,702.0156 Q842.0313,702.0938 841.6094,702.125 Q841.1875,702.1719 840.6875,702.1719 Q839.2813,702.1719 838.25,701.7188 Q837.2344,701.2656 836.5625,700.4531 Q835.8906,699.6406 835.5625,698.5 Q835.2344,697.3438 835.2344,695.9531 Q835.2344,694.5781 835.6094,693.4219 Q835.9844,692.2656 836.7031,691.4375 Q837.4219,690.6094 838.4844,690.1563 Q839.5469,689.6875 840.9375,689.6875 Q841.8438,689.6875 842.75,689.9219 Q843.6563,690.1406 844.4844,690.5469 L843.6563,692.6406 Q842.9688,692.3125 842.2813,692.0781 Q841.5938,691.8281 840.9375,691.8281 Z " fill="#000000"/><text fill="#000000" font-family="sans-serif" font-size="14" lengthAdjust="spacing" textLength="119" x="855" y="700.8467">ParametricMethod</text></g><!--class Module--><g id="elem_Module"><rect codeLine="103" fill="#CCFFFF" height="32" id="Module" rx="2.5" ry="2.5" style="stroke:#A9A9A9;stroke-width:0.5;" width="80" x="710.5" y="680"/><ellipse cx="725.5" cy="696" fill="#FFFFFF" rx="11" ry="11" style="stroke:#181818;stroke-width:1.0;"/><path d="M725.4375,691.8281 Q724.6875,691.8281 724.125,692.125 Q723.5625,692.4063 723.1719,692.9375 Q722.7813,693.4688 722.5781,694.25 Q722.3906,695.0156 722.3906,695.9688 Q722.3906,696.9375 722.5625,697.7031 Q722.75,698.4531 723.1094,698.9688 Q723.4844,699.4844 724.0625,699.7656 Q724.6406,700.0313 725.4375,700.0313 Q726.1719,700.0313 726.9063,699.8594 Q727.6563,699.6875 728.5313,699.3906 L728.5313,701.5469 Q728.125,701.7031 727.7344,701.8281 Q727.3438,701.9375 726.9375,702.0156 Q726.5313,702.0938 726.1094,702.125 Q725.6875,702.1719 725.1875,702.1719 Q723.7813,702.1719 722.75,701.7188 Q721.7344,701.2656 721.0625,700.4531 Q720.3906,699.6406 720.0625,698.5 Q719.7344,697.3438 719.7344,695.9531 Q719.7344,694.5781 720.1094,693.4219 Q720.4844,692.2656 721.2031,691.4375 Q721.9219,690.6094 722.9844,690.1563 Q724.0469,689.6875 725.4375,689.6875 Q726.3438,689.6875 727.25,689.9219 Q728.1563,690.1406 728.9844,690.5469 L728.1563,692.6406 Q727.4688,692.3125 726.7813,692.0781 Q726.0938,691.8281 725.4375,691.8281 Z " fill="#000000"/><text fill="#000000" font-family="sans-serif" font-size="14" lengthAdjust="spacing" textLength="48" x="739.5" y="700.8467">Module</text></g><!--class EnumValue--><g id="elem_EnumValue"><rect codeLine="105" fill="#CCFFFF" height="32" id="EnumValue" rx="2.5" ry="2.5" style="stroke:#A9A9A9;stroke-width:0.5;" width="103" x="1659" y="459.5"/><ellipse cx="1674" cy="475.5" fill="#FFFFFF" rx="11" ry="11" style="stroke:#181818;stroke-width:1.0;"/><path d="M1673.9375,471.3281 Q1673.1875,471.3281 1672.625,471.625 Q1672.0625,471.9063 1671.6719,472.4375 Q1671.2813,472.9688 1671.0781,473.75 Q1670.8906,474.5156 1670.8906,475.4688 Q1670.8906,476.4375 1671.0625,477.2031 Q1671.25,477.9531 1671.6094,478.4688 Q1671.9844,478.9844 1672.5625,479.2656 Q1673.1406,479.5313 1673.9375,479.5313 Q1674.6719,479.5313 1675.4063,479.3594 Q1676.1563,479.1875 1677.0313,478.8906 L1677.0313,481.0469 Q1676.625,481.2031 1676.2344,481.3281 Q1675.8438,481.4375 1675.4375,481.5156 Q1675.0313,481.5938 1674.6094,481.625 Q1674.1875,481.6719 1673.6875,481.6719 Q1672.2813,481.6719 1671.25,481.2188 Q1670.2344,480.7656 1669.5625,479.9531 Q1668.8906,479.1406 1668.5625,478 Q1668.2344,476.8438 1668.2344,475.4531 Q1668.2344,474.0781 1668.6094,472.9219 Q1668.9844,471.7656 1669.7031,470.9375 Q1670.4219,470.1094 1671.4844,469.6563 Q1672.5469,469.1875 1673.9375,469.1875 Q1674.8438,469.1875 1675.75,469.4219 Q1676.6563,469.6406 1677.4844,470.0469 L1676.6563,472.1406 Q1675.9688,471.8125 1675.2813,471.5781 Q1674.5938,471.3281 1673.9375,471.3281 Z " fill="#000000"/><text fill="#000000" font-family="sans-serif" font-size="14" lengthAdjust="spacing" textLength="71" x="1688" y="480.3467">EnumValue</text></g><!--class Method--><g id="elem_Method"><rect codeLine="107" fill="#CCFFFF" height="32" id="Method" rx="2.5" ry="2.5" style="stroke:#A9A9A9;stroke-width:0.5;" width="81" x="1002" y="588"/><ellipse cx="1017" cy="604" fill="#FFFFFF" rx="11" ry="11" style="stroke:#181818;stroke-width:1.0;"/><path d="M1016.9375,599.8281 Q1016.1875,599.8281 1015.625,600.125 Q1015.0625,600.4063 1014.6719,600.9375 Q1014.2813,601.4688 1014.0781,602.25 Q1013.8906,603.0156 1013.8906,603.9688 Q1013.8906,604.9375 1014.0625,605.7031 Q1014.25,606.4531 1014.6094,606.9688 Q1014.9844,607.4844 1015.5625,607.7656 Q1016.1406,608.0313 1016.9375,608.0313 Q1017.6719,608.0313 1018.4063,607.8594 Q1019.1563,607.6875 1020.0313,607.3906 L1020.0313,609.5469 Q1019.625,609.7031 1019.2344,609.8281 Q1018.8438,609.9375 1018.4375,610.0156 Q1018.0313,610.0938 1017.6094,610.125 Q1017.1875,610.1719 1016.6875,610.1719 Q1015.2813,610.1719 1014.25,609.7188 Q1013.2344,609.2656 1012.5625,608.4531 Q1011.8906,607.6406 1011.5625,606.5 Q1011.2344,605.3438 1011.2344,603.9531 Q1011.2344,602.5781 1011.6094,601.4219 Q1011.9844,600.2656 1012.7031,599.4375 Q1013.4219,598.6094 1014.4844,598.1563 Q1015.5469,597.6875 1016.9375,597.6875 Q1017.8438,597.6875 1018.75,597.9219 Q1019.6563,598.1406 1020.4844,598.5469 L1019.6563,600.6406 Q1018.9688,600.3125 1018.2813,600.0781 Q1017.5938,599.8281 1016.9375,599.8281 Z " fill="#000000"/><text fill="#000000" font-family="sans-serif" font-size="14" lengthAdjust="spacing" textLength="49" x="1031" y="608.8467">Method</text></g><!--class SourceAnchor--><g id="elem_SourceAnchor"><rect codeLine="109" fill="#CCFFFF" height="32" id="SourceAnchor" rx="2.5" ry="2.5" style="stroke:#A9A9A9;stroke-width:0.5;" width="120" x="3018.5" y="99"/><ellipse cx="3033.5" cy="115" fill="#FFFFFF" rx="11" ry="11" style="stroke:#181818;stroke-width:1.0;"/><path d="M3033.4375,110.8281 Q3032.6875,110.8281 3032.125,111.125 Q3031.5625,111.4063 3031.1719,111.9375 Q3030.7813,112.4688 3030.5781,113.25 Q3030.3906,114.0156 3030.3906,114.9688 Q3030.3906,115.9375 3030.5625,116.7031 Q3030.75,117.4531 3031.1094,117.9688 Q3031.4844,118.4844 3032.0625,118.7656 Q3032.6406,119.0313 3033.4375,119.0313 Q3034.1719,119.0313 3034.9063,118.8594 Q3035.6563,118.6875 3036.5313,118.3906 L3036.5313,120.5469 Q3036.125,120.7031 3035.7344,120.8281 Q3035.3438,120.9375 3034.9375,121.0156 Q3034.5313,121.0938 3034.1094,121.125 Q3033.6875,121.1719 3033.1875,121.1719 Q3031.7813,121.1719 3030.75,120.7188 Q3029.7344,120.2656 3029.0625,119.4531 Q3028.3906,118.6406 3028.0625,117.5 Q3027.7344,116.3438 3027.7344,114.9531 Q3027.7344,113.5781 3028.1094,112.4219 Q3028.4844,111.2656 3029.2031,110.4375 Q3029.9219,109.6094 3030.9844,109.1563 Q3032.0469,108.6875 3033.4375,108.6875 Q3034.3438,108.6875 3035.25,108.9219 Q3036.1563,109.1406 3036.9844,109.5469 L3036.1563,111.6406 Q3035.4688,111.3125 3034.7813,111.0781 Q3034.0938,110.8281 3033.4375,110.8281 Z " fill="#000000"/><text fill="#000000" font-family="sans-serif" font-size="14" lengthAdjust="spacing" textLength="88" x="3047.5" y="119.8467">SourceAnchor</text></g><!--class Parameter--><g id="elem_Parameter"><rect codeLine="111" fill="#CCFFFF" height="32" id="Parameter" rx="2.5" ry="2.5" style="stroke:#A9A9A9;stroke-width:0.5;" width="100" x="1797.5" y="459.5"/><ellipse cx="1812.5" cy="475.5" fill="#FFFFFF" rx="11" ry="11" style="stroke:#181818;stroke-width:1.0;"/><path d="M1812.4375,471.3281 Q1811.6875,471.3281 1811.125,471.625 Q1810.5625,471.9063 1810.1719,472.4375 Q1809.7813,472.9688 1809.5781,473.75 Q1809.3906,474.5156 1809.3906,475.4688 Q1809.3906,476.4375 1809.5625,477.2031 Q1809.75,477.9531 1810.1094,478.4688 Q1810.4844,478.9844 1811.0625,479.2656 Q1811.6406,479.5313 1812.4375,479.5313 Q1813.1719,479.5313 1813.9063,479.3594 Q1814.6563,479.1875 1815.5313,478.8906 L1815.5313,481.0469 Q1815.125,481.2031 1814.7344,481.3281 Q1814.3438,481.4375 1813.9375,481.5156 Q1813.5313,481.5938 1813.1094,481.625 Q1812.6875,481.6719 1812.1875,481.6719 Q1810.7813,481.6719 1809.75,481.2188 Q1808.7344,480.7656 1808.0625,479.9531 Q1807.3906,479.1406 1807.0625,478 Q1806.7344,476.8438 1806.7344,475.4531 Q1806.7344,474.0781 1807.1094,472.9219 Q1807.4844,471.7656 1808.2031,470.9375 Q1808.9219,470.1094 1809.9844,469.6563 Q1811.0469,469.1875 1812.4375,469.1875 Q1813.3438,469.1875 1814.25,469.4219 Q1815.1563,469.6406 1815.9844,470.0469 L1815.1563,472.1406 Q1814.4688,471.8125 1813.7813,471.5781 Q1813.0938,471.3281 1812.4375,471.3281 Z " fill="#000000"/><text fill="#000000" font-family="sans-serif" font-size="14" lengthAdjust="spacing" textLength="68" x="1826.5" y="480.3467">Parameter</text></g><!--class PrimitiveType--><g id="elem_PrimitiveType"><rect codeLine="113" fill="#CCFFFF" height="32" id="PrimitiveType" rx="2.5" ry="2.5" style="stroke:#A9A9A9;stroke-width:0.5;" width="121" x="140" y="588"/><ellipse cx="155" cy="604" fill="#FFFFFF" rx="11" ry="11" style="stroke:#181818;stroke-width:1.0;"/><path d="M154.9375,599.8281 Q154.1875,599.8281 153.625,600.125 Q153.0625,600.4063 152.6719,600.9375 Q152.2813,601.4688 152.0781,602.25 Q151.8906,603.0156 151.8906,603.9688 Q151.8906,604.9375 152.0625,605.7031 Q152.25,606.4531 152.6094,606.9688 Q152.9844,607.4844 153.5625,607.7656 Q154.1406,608.0313 154.9375,608.0313 Q155.6719,608.0313 156.4063,607.8594 Q157.1563,607.6875 158.0313,607.3906 L158.0313,609.5469 Q157.625,609.7031 157.2344,609.8281 Q156.8438,609.9375 156.4375,610.0156 Q156.0313,610.0938 155.6094,610.125 Q155.1875,610.1719 154.6875,610.1719 Q153.2813,610.1719 152.25,609.7188 Q151.2344,609.2656 150.5625,608.4531 Q149.8906,607.6406 149.5625,606.5 Q149.2344,605.3438 149.2344,603.9531 Q149.2344,602.5781 149.6094,601.4219 Q149.9844,600.2656 150.7031,599.4375 Q151.4219,598.6094 152.4844,598.1563 Q153.5469,597.6875 154.9375,597.6875 Q155.8438,597.6875 156.75,597.9219 Q157.6563,598.1406 158.4844,598.5469 L157.6563,600.6406 Q156.9688,600.3125 156.2813,600.0781 Q155.5938,599.8281 154.9375,599.8281 Z " fill="#000000"/><text fill="#000000" font-family="sans-serif" font-size="14" lengthAdjust="spacing" textLength="89" x="169" y="608.8467">PrimitiveType</text></g><!--class ParameterType--><g id="elem_ParameterType"><rect codeLine="115" fill="#CCFFFF" height="32" id="ParameterType" rx="2.5" ry="2.5" style="stroke:#A9A9A9;stroke-width:0.5;" width="130" x="296.5" y="588"/><ellipse cx="311.5" cy="604" fill="#FFFFFF" rx="11" ry="11" style="stroke:#181818;stroke-width:1.0;"/><path d="M311.4375,599.8281 Q310.6875,599.8281 310.125,600.125 Q309.5625,600.4063 309.1719,600.9375 Q308.7813,601.4688 308.5781,602.25 Q308.3906,603.0156 308.3906,603.9688 Q308.3906,604.9375 308.5625,605.7031 Q308.75,606.4531 309.1094,606.9688 Q309.4844,607.4844 310.0625,607.7656 Q310.6406,608.0313 311.4375,608.0313 Q312.1719,608.0313 312.9063,607.8594 Q313.6563,607.6875 314.5313,607.3906 L314.5313,609.5469 Q314.125,609.7031 313.7344,609.8281 Q313.3438,609.9375 312.9375,610.0156 Q312.5313,610.0938 312.1094,610.125 Q311.6875,610.1719 311.1875,610.1719 Q309.7813,610.1719 308.75,609.7188 Q307.7344,609.2656 307.0625,608.4531 Q306.3906,607.6406 306.0625,606.5 Q305.7344,605.3438 305.7344,603.9531 Q305.7344,602.5781 306.1094,601.4219 Q306.4844,600.2656 307.2031,599.4375 Q307.9219,598.6094 308.9844,598.1563 Q310.0469,597.6875 311.4375,597.6875 Q312.3438,597.6875 313.25,597.9219 Q314.1563,598.1406 314.9844,598.5469 L314.1563,600.6406 Q313.4688,600.3125 312.7813,600.0781 Q312.0938,599.8281 311.4375,599.8281 Z " fill="#000000"/><text fill="#000000" font-family="sans-serif" font-size="14" lengthAdjust="spacing" textLength="98" x="325.5" y="608.8467">ParameterType</text></g><!--reverse link Type to PrimitiveType--><g id="link_Type_PrimitiveType"><path codeLine="117" d="M383.85,501.27 C337.51,526.98 266.51,566.38 227.87,587.81 " fill="none" id="Type-backto-PrimitiveType" style="stroke:#000000;stroke-width:1.0;"/><polygon fill="none" points="380.57,495.09,401.45,491.51,387.36,507.33,380.57,495.09" style="stroke:#000000;stroke-width:1.0;"/></g><!--reverse link Type to ParameterType--><g id="link_Type_ParameterType"><path codeLine="118" d="M411.02,509.5 C397.67,534.71 379.87,568.32 369.65,587.62 " fill="none" id="Type-backto-ParameterType" style="stroke:#000000;stroke-width:1.0;"/><polygon fill="none" points="405,505.91,420.55,491.51,417.38,512.46,405,505.91" style="stroke:#000000;stroke-width:1.0;"/></g><!--reverse link ScopingEntity to ScriptEntity--><g id="link_ScopingEntity_ScriptEntity"><path codeLine="119" d="M893.5,511.77 C893.5,536.7 893.5,568.9 893.5,587.62 " fill="none" id="ScopingEntity-backto-ScriptEntity" style="stroke:#000000;stroke-width:1.0;"/><polygon fill="none" points="886.5,511.51,893.5,491.51,900.5,511.51,886.5,511.51" style="stroke:#000000;stroke-width:1.0;"/></g><!--reverse link NamedEntity to File--><g id="link_NamedEntity_File"><path codeLine="120" d="M1594.79,242.19 C1551.43,258.48 1492.48,282.03 1442.5,307 C1435.49,310.5 1428.11,314.7 1421.4,318.73 " fill="none" id="NamedEntity-backto-File" style="stroke:#000000;stroke-width:1.0;"/><polygon fill="none" points="1592.64,235.52,1613.83,235.13,1597.51,248.65,1592.64,235.52" style="stroke:#000000;stroke-width:1.0;"/></g><!--reverse link SourceAnchor to SourceTextAnchor--><g id="link_SourceAnchor_SourceTextAnchor"><path codeLine="121" d="M3051.16,145.98 C3034.11,164.68 3012.9,187.95 2999.28,202.89 " fill="none" id="SourceAnchor-backto-SourceTextAnchor" style="stroke:#000000;stroke-width:1.0;"/><polygon fill="none" points="3046.13,141.11,3064.78,131.05,3056.48,150.55,3046.13,141.11" style="stroke:#000000;stroke-width:1.0;"/></g><!--reverse link Entity to SourcedEntity--><g id="link_Entity_SourcedEntity"><path codeLine="122" d="M2228.14,28.52 C2113.2,38.41 1837.18,63.93 1607.5,99 C1601.85,99.86 1595.97,100.85 1590.11,101.89 " fill="none" id="Entity-backto-SourcedEntity" style="stroke:#000000;stroke-width:1.0;"/><polygon fill="none" points="2227.78,21.53,2248.3,26.8,2228.97,35.48,2227.78,21.53" style="stroke:#000000;stroke-width:1.0;"/></g><!--reverse link ContainerEntity to ScopingEntity--><g id="link_ContainerEntity_ScopingEntity"><path codeLine="123" d="M958.69,368.28 C941.07,396.99 916.09,437.69 902.75,459.43 " fill="none" id="ContainerEntity-backto-ScopingEntity" style="stroke:#000000;stroke-width:1.0;"/><polygon fill="none" points="952.81,364.47,969.24,351.09,964.75,371.79,952.81,364.47" style="stroke:#000000;stroke-width:1.0;"/></g><!--reverse link Type to Enum--><g id="link_Type_Enum"><path codeLine="124" d="M445.98,509.5 C459.33,534.71 477.13,568.32 487.35,587.62 " fill="none" id="Type-backto-Enum" style="stroke:#000000;stroke-width:1.0;"/><polygon fill="none" points="439.62,512.46,436.45,491.51,452,505.91,439.62,512.46" style="stroke:#000000;stroke-width:1.0;"/></g><!--reverse link Entity to SourceLanguage--><g id="link_Entity_SourceLanguage"><path codeLine="125" d="M2228.41,31.48 C2135.75,44.42 1940.78,72.16 1776.5,99 C1771.09,99.88 1765.49,100.83 1759.87,101.79 " fill="none" id="Entity-backto-SourceLanguage" style="stroke:#000000;stroke-width:1.0;"/><polygon fill="none" points="2227.62,24.53,2248.39,28.7,2229.55,38.39,2227.62,24.53" style="stroke:#000000;stroke-width:1.0;"/></g><!--reverse link NamedEntity to Decorator--><g id="link_NamedEntity_Decorator"><path codeLine="126" d="M1696.67,244.58 C1733.76,263.81 1788.86,290.43 1831.34,309.61 " fill="none" id="NamedEntity-backto-Decorator" style="stroke:#000000;stroke-width:1.0;"/><polygon fill="none" points="1693.25,250.68,1678.85,235.14,1699.8,238.31,1693.25,250.68" style="stroke:#000000;stroke-width:1.0;"/></g><!--link Decorator to NamedEntity--><g id="link_Decorator_NamedEntity"><path codeLine="167" d="M1848.13,306.92 C1804.59,284.44 1739.36,253.28 1697.09,235.02 " fill="none" id="Decorator-NamedEntity" style="stroke:#000000;stroke-width:1.0;"/><text fill="#000000" font-family="sans-serif" font-size="13" lengthAdjust="spacing" textLength="71" x="1758.6601" y="295.74">decorators*</text><text fill="#000000" font-family="sans-serif" font-size="13" lengthAdjust="spacing" textLength="92" x="1603.2303" y="255.1947">decoratedEntity</text></g><!--reverse link NamedEntity to ContainerEntity--><g id="link_NamedEntity_ContainerEntity"><path codeLine="127" d="M1600.27,241.62 C1593.99,243.62 1587.65,245.47 1581.5,247 C1389.07,294.99 1155.05,319.35 1043.58,328.96 " fill="none" id="NamedEntity-backto-ContainerEntity" style="stroke:#000000;stroke-width:1.0;"/><polygon fill="none" points="1598,235,1619.19,235.11,1602.55,248.23,1598,235" style="stroke:#000000;stroke-width:1.0;"/></g><!--reverse link BehaviouralEntity to ArrowFunction--><g id="link_BehaviouralEntity_ArrowFunction"><path codeLine="128" d="M1091.29,506.54 C1114.86,532.03 1147.72,567.56 1166.27,587.62 " fill="none" id="BehaviouralEntity-backto-ArrowFunction" style="stroke:#000000;stroke-width:1.0;"/><polygon fill="none" points="1085.82,510.94,1077.38,491.51,1096.1,501.44,1085.82,510.94" style="stroke:#000000;stroke-width:1.0;"/></g><!--reverse link Entity to ImportClause--><g id="link_Entity_ImportClause"><path codeLine="129" d="M2228.66,35.3 C2148.01,52.21 1996.4,84.02 1912.72,101.58 " fill="none" id="Entity-backto-ImportClause" style="stroke:#000000;stroke-width:1.0;"/><polygon fill="none" points="2227.47,28.39,2248.48,31.14,2230.34,42.09,2227.47,28.39" style="stroke:#000000;stroke-width:1.0;"/></g><!--reverse link SourceAnchor to IndexedFileAnchor--><g id="link_SourceAnchor_IndexedFileAnchor"><path codeLine="130" d="M3105.54,145.98 C3122.41,164.68 3143.4,187.95 3156.87,202.89 " fill="none" id="SourceAnchor-backto-IndexedFileAnchor" style="stroke:#000000;stroke-width:1.0;"/><polygon fill="none" points="3100.27,150.59,3092.07,131.05,3110.67,141.21,3100.27,150.59" style="stroke:#000000;stroke-width:1.0;"/></g><!--reverse link Variable to implicitVariable--><g id="link_Variable_implicitVariable"><path codeLine="131" d="M1377.05,506.54 C1400.42,532.03 1433,567.56 1451.39,587.62 " fill="none" id="Variable-backto-implicitVariable" style="stroke:#000000;stroke-width:1.0;"/><polygon fill="none" points="1371.62,510.98,1363.26,491.51,1381.94,501.52,1371.62,510.98" style="stroke:#000000;stroke-width:1.0;"/></g><!--reverse link SourcedEntity to Comment--><g id="link_SourcedEntity_Comment"><path codeLine="132" d="M1496.3,143.91 C1478.33,158.57 1456.4,176.46 1438.6,190.99 " fill="none" id="SourcedEntity-backto-Comment" style="stroke:#000000;stroke-width:1.0;"/><polygon fill="none" points="1492.13,138.27,1512.06,131.05,1500.99,149.12,1492.13,138.27" style="stroke:#000000;stroke-width:1.0;"/></g><!--reverse link StructuralEntity to Variable--><g id="link_StructuralEntity_Variable"><path codeLine="133" d="M1487.85,363.27 C1464.92,380.11 1435.19,402.38 1409.5,423 C1394.73,434.86 1378.45,448.9 1366.58,459.32 " fill="none" id="StructuralEntity-backto-Variable" style="stroke:#000000;stroke-width:1.0;"/><polygon fill="none" points="1483.95,357.45,1504.23,351.31,1492.2,368.76,1483.95,357.45" style="stroke:#000000;stroke-width:1.0;"/></g><!--reverse link Entity to Concretization--><g id="link_Entity_Concretization"><path codeLine="134" d="M2229.44,41.49 C2178.83,58.18 2103.41,83.04 2055.35,98.88 " fill="none" id="Entity-backto-Concretization" style="stroke:#000000;stroke-width:1.0;"/><polygon fill="none" points="2227.29,34.83,2248.48,35.22,2231.67,48.13,2227.29,34.83" style="stroke:#000000;stroke-width:1.0;"/></g><!--reverse link NamedEntity to StructuralEntity--><g id="link_NamedEntity_StructuralEntity"><path codeLine="135" d="M1623.81,248.45 C1598.2,270.74 1563.55,300.88 1542.97,318.8 " fill="none" id="NamedEntity-backto-StructuralEntity" style="stroke:#000000;stroke-width:1.0;"/><polygon fill="none" points="1619.42,242.99,1639.1,235.14,1628.61,253.55,1619.42,242.99" style="stroke:#000000;stroke-width:1.0;"/></g><!--reverse link Entity to Access--><g id="link_Entity_Access"><path codeLine="136" d="M2242.02,50.02 C2217.37,65.87 2186.73,85.57 2166.01,98.89 " fill="none" id="Entity-backto-Access" style="stroke:#000000;stroke-width:1.0;"/><polygon fill="none" points="2238.46,43.99,2259.07,39.06,2246.03,55.77,2238.46,43.99" style="stroke:#000000;stroke-width:1.0;"/></g><!--reverse link NamedEntity to Alias--><g id="link_NamedEntity_Alias"><path codeLine="137" d="M1656.5,255.6 C1656.5,276.88 1656.5,302.82 1656.5,318.87 " fill="none" id="NamedEntity-backto-Alias" style="stroke:#000000;stroke-width:1.0;"/><polygon fill="none" points="1649.5,255.37,1656.5,235.37,1663.5,255.37,1649.5,255.37" style="stroke:#000000;stroke-width:1.0;"/></g><!--reverse link ContainerEntity to BehaviouralEntity--><g id="link_ContainerEntity_BehaviouralEntity"><path codeLine="138" d="M998.31,368.28 C1015.93,396.99 1040.91,437.69 1054.25,459.43 " fill="none" id="ContainerEntity-backto-BehaviouralEntity" style="stroke:#000000;stroke-width:1.0;"/><polygon fill="none" points="992.25,371.79,987.76,351.09,1004.19,364.47,992.25,371.79" style="stroke:#000000;stroke-width:1.0;"/></g><!--reverse link Entity to Implementation--><g id="link_Entity_Implementation"><path codeLine="139" d="M2282.5,59.61 C2282.5,73.31 2282.5,88.22 2282.5,98.96 " fill="none" id="Entity-backto-Implementation" style="stroke:#000000;stroke-width:1.0;"/><polygon fill="none" points="2275.5,59.27,2282.5,39.27,2289.5,59.27,2275.5,59.27" style="stroke:#000000;stroke-width:1.0;"/></g><!--reverse link Type to Class--><g id="link_Type_Class"><path codeLine="140" d="M378.1,494.46 C303.7,520.97 166.65,569.81 105,591.77 " fill="none" id="Type-backto-Class" style="stroke:#000000;stroke-width:1.0;"/><polygon fill="none" points="376.12,487.73,397.31,487.62,380.82,500.92,376.12,487.73" style="stroke:#000000;stroke-width:1.0;"/></g><!--reverse link BehaviouralEntity to Function--><g id="link_BehaviouralEntity_Function"><path codeLine="141" d="M1112.29,500.42 C1164.67,526.11 1246.32,566.14 1290.53,587.81 " fill="none" id="BehaviouralEntity-backto-Function" style="stroke:#000000;stroke-width:1.0;"/><polygon fill="none" points="1108.99,506.6,1094.11,491.51,1115.15,494.03,1108.99,506.6" style="stroke:#000000;stroke-width:1.0;"/></g><!--reverse link Entity to Inheritance--><g id="link_Entity_Inheritance"><path codeLine="142" d="M2326,49.1 C2353.74,65.1 2388.77,85.31 2412.3,98.89 " fill="none" id="Entity-backto-Inheritance" style="stroke:#000000;stroke-width:1.0;"/><polygon fill="none" points="2322.44,55.12,2308.61,39.06,2329.43,43,2322.44,55.12" style="stroke:#000000;stroke-width:1.0;"/></g><!--reverse link Class to ParametricClass--><g id="link_Class_ParametricClass"><path codeLine="143" d="M73.5,640.61 C73.5,654.31 73.5,669.22 73.5,679.96 " fill="none" id="Class-backto-ParametricClass" style="stroke:#000000;stroke-width:1.0;"/><polygon fill="none" points="66.5,640.27,73.5,620.27,80.5,640.27,66.5,640.27" style="stroke:#000000;stroke-width:1.0;"/></g><!--reverse link Entity to Invocation--><g id="link_Entity_Invocation"><path codeLine="144" d="M2335.96,40.42 C2390.29,57.11 2473.75,82.75 2526.44,98.93 " fill="none" id="Entity-backto-Invocation" style="stroke:#000000;stroke-width:1.0;"/><polygon fill="none" points="2333.75,47.06,2316.68,34.5,2337.86,33.68,2333.75,47.06" style="stroke:#000000;stroke-width:1.0;"/></g><!--reverse link Interface to ParametricInterface--><g id="link_Interface_ParametricInterface"><path codeLine="145" d="M604.04,640.12 C601.89,653.95 599.53,669.09 597.84,679.96 " fill="none" id="Interface-backto-ParametricInterface" style="stroke:#000000;stroke-width:1.0;"/><polygon fill="none" points="597.13,638.95,607.13,620.27,610.97,641.11,597.13,638.95" style="stroke:#000000;stroke-width:1.0;"/></g><!--reverse link ScopingEntity to Namespace--><g id="link_ScopingEntity_Namespace"><path codeLine="146" d="M861.85,505.1 C833.55,530.67 793.15,567.18 770.52,587.62 " fill="none" id="ScopingEntity-backto-Namespace" style="stroke:#000000;stroke-width:1.0;"/><polygon fill="none" points="857.36,499.72,876.89,491.51,866.74,510.11,857.36,499.72" style="stroke:#000000;stroke-width:1.0;"/></g><!--reverse link SourcedEntity to JSDoc--><g id="link_SourcedEntity_JSDoc"><path codeLine="147" d="M1530.5,151.19 C1530.5,168.84 1530.5,189.31 1530.5,202.89 " fill="none" id="SourcedEntity-backto-JSDoc" style="stroke:#000000;stroke-width:1.0;"/><polygon fill="none" points="1523.5,151.05,1530.5,131.05,1537.5,151.05,1523.5,151.05" style="stroke:#000000;stroke-width:1.0;"/></g><!--reverse link NamedEntity to Folder--><g id="link_NamedEntity_Folder"><path codeLine="148" d="M1683.88,250.31 C1703.86,272.42 1730.1,301.46 1745.83,318.87 " fill="none" id="NamedEntity-backto-Folder" style="stroke:#000000;stroke-width:1.0;"/><polygon fill="none" points="1678.61,254.91,1670.39,235.37,1688.99,245.52,1678.61,254.91" style="stroke:#000000;stroke-width:1.0;"/></g><!--reverse link Method to Accessor--><g id="link_Method_Accessor"><path codeLine="149" d="M1047.57,640.12 C1049.57,653.95 1051.76,669.09 1053.33,679.96 " fill="none" id="Method-backto-Accessor" style="stroke:#000000;stroke-width:1.0;"/><polygon fill="none" points="1040.64,641.06,1044.71,620.27,1054.49,639.06,1040.64,641.06" style="stroke:#000000;stroke-width:1.0;"/></g><!--reverse link Function to ParametricFunction--><g id="link_Function_ParametricFunction"><path codeLine="150" d="M1358.05,632.19 C1379.08,647.83 1404.71,666.89 1422.18,679.89 " fill="none" id="Function-backto-ParametricFunction" style="stroke:#000000;stroke-width:1.0;"/><polygon fill="none" points="1353.62,637.62,1341.75,620.06,1361.98,626.38,1353.62,637.62" style="stroke:#000000;stroke-width:1.0;"/></g><!--reverse link StructuralEntity to Property--><g id="link_StructuralEntity_Property"><path codeLine="151" d="M1525.5,371.27 C1525.5,386.92 1525.5,405.65 1525.5,422.83 " fill="none" id="StructuralEntity-backto-Property" style="stroke:#000000;stroke-width:1.0;"/><polygon fill="none" points="1518.5,371.09,1525.5,351.09,1532.5,371.09,1518.5,371.09" style="stroke:#000000;stroke-width:1.0;"/></g><!--reverse link Type to Interface--><g id="link_Type_Interface"><path codeLine="152" d="M466.43,503.01 C503.23,528.73 557.78,566.85 587.77,587.81 " fill="none" id="Type-backto-Interface" style="stroke:#000000;stroke-width:1.0;"/><polygon fill="none" points="462.36,508.7,449.97,491.51,470.38,497.23,462.36,508.7" style="stroke:#000000;stroke-width:1.0;"/></g><!--reverse link SourcedEntity to NamedEntity--><g id="link_SourcedEntity_NamedEntity"><path codeLine="153" d="M1564.77,143.74 C1588.3,162.79 1618.63,187.35 1637.83,202.89 " fill="none" id="SourcedEntity-backto-NamedEntity" style="stroke:#000000;stroke-width:1.0;"/><polygon fill="none" points="1560.23,149.08,1549.09,131.05,1569.04,138.19,1560.23,149.08" style="stroke:#000000;stroke-width:1.0;"/></g><!--reverse link ArrowFunction to ParametricArrowFunction--><g id="link_ArrowFunction_ParametricArrowFunction"><path codeLine="154" d="M1199.29,638.15 C1207.42,652.5 1216.52,668.57 1222.98,679.96 " fill="none" id="ArrowFunction-backto-ParametricArrowFunction" style="stroke:#000000;stroke-width:1.0;"/><polygon fill="none" points="1192.92,641.12,1189.15,620.27,1205.1,634.22,1192.92,641.12" style="stroke:#000000;stroke-width:1.0;"/></g><!--reverse link ContainerEntity to Type--><g id="link_ContainerEntity_Type"><path codeLine="155" d="M899.32,355.94 C775.99,387 543.46,445.55 459.62,466.66 " fill="none" id="ContainerEntity-backto-Type" style="stroke:#000000;stroke-width:1.0;"/><polygon fill="none" points="897.75,349.12,918.86,351.02,901.17,362.69,897.75,349.12" style="stroke:#000000;stroke-width:1.0;"/></g><!--reverse link Entity to ParameterConcretization--><g id="link_Entity_ParameterConcretization"><path codeLine="156" d="M2336.42,34.26 C2419.69,50.1 2580.02,80.61 2676.42,98.95 " fill="none" id="Entity-backto-ParameterConcretization" style="stroke:#000000;stroke-width:1.0;"/><polygon fill="none" points="2334.86,41.09,2316.52,30.47,2337.47,27.33,2334.86,41.09" style="stroke:#000000;stroke-width:1.0;"/></g><!--reverse link Entity to Reference--><g id="link_Entity_Reference"><path codeLine="157" d="M2336.81,29.19 C2440.58,39.49 2674.04,64.54 2868.5,99 C2874.17,100 2880.09,101.17 2885.95,102.41 " fill="none" id="Entity-backto-Reference" style="stroke:#000000;stroke-width:1.0;"/><polygon fill="none" points="2335.91,36.13,2316.69,27.21,2337.28,22.2,2335.91,36.13" style="stroke:#000000;stroke-width:1.0;"/></g><!--reverse link Method to ParametricMethod--><g id="link_Method_ParametricMethod"><path codeLine="158" d="M1001.73,631.02 C976.9,646.87 946.04,666.57 925.18,679.89 " fill="none" id="Method-backto-ParametricMethod" style="stroke:#000000;stroke-width:1.0;"/><polygon fill="none" points="998.28,624.92,1018.9,620.06,1005.81,636.73,998.28,624.92" style="stroke:#000000;stroke-width:1.0;"/></g><!--reverse link ScriptEntity to Module--><g id="link_ScriptEntity_Module"><path codeLine="159" d="M852.52,630.79 C827.28,646.68 795.78,666.5 774.51,679.89 " fill="none" id="ScriptEntity-backto-Module" style="stroke:#000000;stroke-width:1.0;"/><polygon fill="none" points="848.91,624.79,869.57,620.06,856.37,636.64,848.91,624.79" style="stroke:#000000;stroke-width:1.0;"/></g><!--reverse link BehaviouralEntity to Method--><g id="link_BehaviouralEntity_Method"><path codeLine="160" d="M1057.71,511.39 C1053.56,536.37 1048.18,568.8 1045.05,587.62 " fill="none" id="BehaviouralEntity-backto-Method" style="stroke:#000000;stroke-width:1.0;"/><polygon fill="none" points="1050.83,510.09,1061.01,491.51,1064.64,512.38,1050.83,510.09" style="stroke:#000000;stroke-width:1.0;"/></g><!--reverse link StructuralEntity to EnumValue--><g id="link_StructuralEntity_EnumValue"><path codeLine="161" d="M1561.66,363.07 C1600.11,391.86 1659.53,436.34 1690.37,459.43 " fill="none" id="StructuralEntity-backto-EnumValue" style="stroke:#000000;stroke-width:1.0;"/><polygon fill="none" points="1557.47,368.68,1545.65,351.09,1565.86,357.47,1557.47,368.68" style="stroke:#000000;stroke-width:1.0;"/></g><!--reverse link Entity to SourceAnchor--><g id="link_Entity_SourceAnchor"><path codeLine="162" d="M2336.6,28.05 C2456.54,37.39 2753.69,62.45 3000.5,99 C3006.23,99.85 3012.18,100.82 3018.12,101.86 " fill="none" id="Entity-backto-SourceAnchor" style="stroke:#000000;stroke-width:1.0;"/><polygon fill="none" points="2336.04,35.03,2316.64,26.52,2337.12,21.07,2336.04,35.03" style="stroke:#000000;stroke-width:1.0;"/></g><!--reverse link StructuralEntity to Parameter--><g id="link_StructuralEntity_Parameter"><path codeLine="163" d="M1589.84,357.47 C1662.18,381.7 1770.78,418.36 1779.5,423 C1798.33,433.02 1817.49,448.06 1830.65,459.31 " fill="none" id="StructuralEntity-backto-Parameter" style="stroke:#000000;stroke-width:1.0;"/><polygon fill="none" points="1587.26,363.99,1570.51,351,1591.7,350.71,1587.26,363.99" style="stroke:#000000;stroke-width:1.0;"/></g><!--reverse link TWithInterfaces to ContainerEntity--><g id="link_TWithInterfaces_ContainerEntity"><path codeLine="164" d="M978.5,255.6 C978.5,276.88 978.5,302.82 978.5,318.87 " fill="none" id="TWithInterfaces-backto-ContainerEntity" style="stroke:#000000;stroke-width:1.0;stroke-dasharray:7.0,7.0;"/><polygon fill="none" points="971.5,255.37,978.5,235.37,985.5,255.37,971.5,255.37" style="stroke:#000000;stroke-width:1.0;"/></g><!--reverse link TEntityCreator to FamixTypeScriptModel--><g id="link_TEntityCreator_FamixTypeScriptModel"><path codeLine="165" d="M3261.5,59.61 C3261.5,73.31 3261.5,88.22 3261.5,98.96 " fill="none" id="TEntityCreator-backto-FamixTypeScriptModel" style="stroke:#000000;stroke-width:1.0;stroke-dasharray:7.0,7.0;"/><polygon fill="none" points="3254.5,59.27,3261.5,39.27,3268.5,59.27,3254.5,59.27" style="stroke:#000000;stroke-width:1.0;"/></g><!--reverse link TClassMetrics to Class--><g id="link_TClassMetrics_Class"><path codeLine="166" d="M73.5,511.77 C73.5,536.7 73.5,568.9 73.5,587.62 " fill="none" id="TClassMetrics-backto-Class" style="stroke:#000000;stroke-width:1.0;stroke-dasharray:7.0,7.0;"/><polygon fill="none" points="66.5,511.51,73.5,491.51,80.5,511.51,66.5,511.51" style="stroke:#000000;stroke-width:1.0;"/></g><!--SRC=[bLTVJzim47_tfuZOopODFW52Wa0dfZ7GMctFnZbQ2yUEBavfD_RTPySaiPDGkxmKsNVd-_Extrqsl80CoahlinBAHy2QrCzSLXHfcJ51wphxIxBiYhBdDQf65haI2hEN3TTWpYyHrOixUXH6neegB03TMK7n-IlIFVb7dAqbGrxf6wcvUV3y_6F-fRNqwU8Y-v3d2_Dddkk45rn0L6Zrc-lDhTI0JvH1RULNX-INga46AzZfIyasniVO0qkcAYxNYJuxyqMYz8rioaIJtwbSDtGTJyWrC8LK7uWiovOQJKWPx2g4kkPAzjgvaffo2PWOGGk0HIEPDbQYqhTbfL3dWZPrF11ULe8phdzHvFGn0GgvAakG-a3SLqe9e3BZzRVbjMAzPl8JjxA07HGMcOdmCGbb29h_eKaPIeMPneRf1gb8hHCppL77nGIdSQa5BVbkjQ_0jVETAa346pMtFtTWeCVYRNe56xhbweW83RO4sFgd9Rhr9g7U6q2kgMHnR2HtmOCbrpOFgKvi5QD7ckufCQhpmsZKLOfaspH7-92S4OVEX6vQA666Innh3ZCvGaU41y7sWAe2F82nW3debZhSFo3VqdOC3hVNyCIbqHVxIqEiQmb5S7rVsNnGuHqQ7ujxAVPUkO-fNEge6Qfo76M_wTc9VXIHMNg82ls49q18QQx1VSCW6rL45GmfDGc4RYVmBogQk6JYksvQ9mw7FhbnIUGbrtmBINdjxKQatVNhwMbetp_tBP7HBcG5_8sE182qjtPGaZ0bhT9e2IE1HN-58fE5n3tg-U5vQwivOwlRdQR-zSlIz6hqC9cPI5OiwARWRN_PcSd1P9KWmnPYxyVh3ncjbix7TkCXqtN0tlQQex2yDfw6FJOLA3kUdYgrQyDygIPf6-V86zfU9Tl9-5xEvzCzZ6hoDbSz07V3TgJI3LRYaMwerL_CWRyVdNF5SIlcj2NQ4KOwEXdIQX0mi7BeH1_mVA6x-UNbptDxwfdd4nbDW_3T4DopzMrv8N1cVc04CZtl1saOSpm9lnQjY6Frzt3HgSqcgMVw6O9uQy1tiji5H2RVcgzdPnEU6EyULcPkOIQZXRYrrK9q-88xARf_wyydcV6bE-ZAT-BNyZy0]--></g></svg>