<?xml version="1.0" encoding="us-ascii" standalone="no"?><svg xmlns="http://www.w3.org/2000/svg" xmlns:xlink="http://www.w3.org/1999/xlink" contentStyleType="text/css" height="719px" preserveAspectRatio="none" style="width:2156px;height:719px;background:#FFFFFF;" version="1.1" viewBox="0 0 2156 719" width="2156px" zoomAndPan="magnify"><defs/><g><!--class Inheritance--><g id="elem_Inheritance"><rect codeLine="7" fill="#CCFFFF" height="32" id="Inheritance" rx="2.5" ry="2.5" style="stroke:#A9A9A9;stroke-width:0.5;" width="105" x="7" y="99"/><ellipse cx="22" cy="115" fill="#FFFFFF" rx="11" ry="11" style="stroke:#181818;stroke-width:1.0;"/><path d="M21.9375,110.8281 Q21.1875,110.8281 20.625,111.125 Q20.0625,111.4063 19.6719,111.9375 Q19.2813,112.4688 19.0781,113.25 Q18.8906,114.0156 18.8906,114.9688 Q18.8906,115.9375 19.0625,116.7031 Q19.25,117.4531 19.6094,117.9688 Q19.9844,118.4844 20.5625,118.7656 Q21.1406,119.0313 21.9375,119.0313 Q22.6719,119.0313 23.4063,118.8594 Q24.1563,118.6875 25.0313,118.3906 L25.0313,120.5469 Q24.625,120.7031 24.2344,120.8281 Q23.8438,120.9375 23.4375,121.0156 Q23.0313,121.0938 22.6094,121.125 Q22.1875,121.1719 21.6875,121.1719 Q20.2813,121.1719 19.25,120.7188 Q18.2344,120.2656 17.5625,119.4531 Q16.8906,118.6406 16.5625,117.5 Q16.2344,116.3438 16.2344,114.9531 Q16.2344,113.5781 16.6094,112.4219 Q16.9844,111.2656 17.7031,110.4375 Q18.4219,109.6094 19.4844,109.1563 Q20.5469,108.6875 21.9375,108.6875 Q22.8438,108.6875 23.75,108.9219 Q24.6563,109.1406 25.4844,109.5469 L24.6563,111.6406 Q23.9688,111.3125 23.2813,111.0781 Q22.5938,110.8281 21.9375,110.8281 Z " fill="#000000"/><text fill="#000000" font-family="sans-serif" font-size="14" lengthAdjust="spacing" textLength="73" x="36" y="119.8467">Inheritance</text></g><!--class EnumValue--><g id="elem_EnumValue"><rect codeLine="9" fill="#CCFFFF" height="32" id="EnumValue" rx="2.5" ry="2.5" style="stroke:#A9A9A9;stroke-width:0.5;" width="103" x="492" y="459.5"/><ellipse cx="507" cy="475.5" fill="#FFFFFF" rx="11" ry="11" style="stroke:#181818;stroke-width:1.0;"/><path d="M506.9375,471.3281 Q506.1875,471.3281 505.625,471.625 Q505.0625,471.9063 504.6719,472.4375 Q504.2813,472.9688 504.0781,473.75 Q503.8906,474.5156 503.8906,475.4688 Q503.8906,476.4375 504.0625,477.2031 Q504.25,477.9531 504.6094,478.4688 Q504.9844,478.9844 505.5625,479.2656 Q506.1406,479.5313 506.9375,479.5313 Q507.6719,479.5313 508.4063,479.3594 Q509.1563,479.1875 510.0313,478.8906 L510.0313,481.0469 Q509.625,481.2031 509.2344,481.3281 Q508.8438,481.4375 508.4375,481.5156 Q508.0313,481.5938 507.6094,481.625 Q507.1875,481.6719 506.6875,481.6719 Q505.2813,481.6719 504.25,481.2188 Q503.2344,480.7656 502.5625,479.9531 Q501.8906,479.1406 501.5625,478 Q501.2344,476.8438 501.2344,475.4531 Q501.2344,474.0781 501.6094,472.9219 Q501.9844,471.7656 502.7031,470.9375 Q503.4219,470.1094 504.4844,469.6563 Q505.5469,469.1875 506.9375,469.1875 Q507.8438,469.1875 508.75,469.4219 Q509.6563,469.6406 510.4844,470.0469 L509.6563,472.1406 Q508.9688,471.8125 508.2813,471.5781 Q507.5938,471.3281 506.9375,471.3281 Z " fill="#000000"/><text fill="#000000" font-family="sans-serif" font-size="14" lengthAdjust="spacing" textLength="71" x="521" y="480.3467">EnumValue</text></g><!--class Implementation--><g id="elem_Implementation"><rect codeLine="11" fill="#CCFFFF" height="32" id="Implementation" rx="2.5" ry="2.5" style="stroke:#A9A9A9;stroke-width:0.5;" width="136" x="147.5" y="99"/><ellipse cx="162.5" cy="115" fill="#FFFFFF" rx="11" ry="11" style="stroke:#181818;stroke-width:1.0;"/><path d="M162.4375,110.8281 Q161.6875,110.8281 161.125,111.125 Q160.5625,111.4063 160.1719,111.9375 Q159.7813,112.4688 159.5781,113.25 Q159.3906,114.0156 159.3906,114.9688 Q159.3906,115.9375 159.5625,116.7031 Q159.75,117.4531 160.1094,117.9688 Q160.4844,118.4844 161.0625,118.7656 Q161.6406,119.0313 162.4375,119.0313 Q163.1719,119.0313 163.9063,118.8594 Q164.6563,118.6875 165.5313,118.3906 L165.5313,120.5469 Q165.125,120.7031 164.7344,120.8281 Q164.3438,120.9375 163.9375,121.0156 Q163.5313,121.0938 163.1094,121.125 Q162.6875,121.1719 162.1875,121.1719 Q160.7813,121.1719 159.75,120.7188 Q158.7344,120.2656 158.0625,119.4531 Q157.3906,118.6406 157.0625,117.5 Q156.7344,116.3438 156.7344,114.9531 Q156.7344,113.5781 157.1094,112.4219 Q157.4844,111.2656 158.2031,110.4375 Q158.9219,109.6094 159.9844,109.1563 Q161.0469,108.6875 162.4375,108.6875 Q163.3438,108.6875 164.25,108.9219 Q165.1563,109.1406 165.9844,109.5469 L165.1563,111.6406 Q164.4688,111.3125 163.7813,111.0781 Q163.0938,110.8281 162.4375,110.8281 Z " fill="#000000"/><text fill="#000000" font-family="sans-serif" font-size="14" lengthAdjust="spacing" textLength="104" x="176.5" y="119.8467">Implementation</text></g><!--class implicitVariable--><g id="elem_implicitVariable"><rect codeLine="13" fill="#CCFFFF" height="32" id="implicitVariable" rx="2.5" ry="2.5" style="stroke:#A9A9A9;stroke-width:0.5;" width="132" x="586.5" y="588"/><ellipse cx="601.5" cy="604" fill="#FFFFFF" rx="11" ry="11" style="stroke:#181818;stroke-width:1.0;"/><path d="M601.4375,599.8281 Q600.6875,599.8281 600.125,600.125 Q599.5625,600.4063 599.1719,600.9375 Q598.7813,601.4688 598.5781,602.25 Q598.3906,603.0156 598.3906,603.9688 Q598.3906,604.9375 598.5625,605.7031 Q598.75,606.4531 599.1094,606.9688 Q599.4844,607.4844 600.0625,607.7656 Q600.6406,608.0313 601.4375,608.0313 Q602.1719,608.0313 602.9063,607.8594 Q603.6563,607.6875 604.5313,607.3906 L604.5313,609.5469 Q604.125,609.7031 603.7344,609.8281 Q603.3438,609.9375 602.9375,610.0156 Q602.5313,610.0938 602.1094,610.125 Q601.6875,610.1719 601.1875,610.1719 Q599.7813,610.1719 598.75,609.7188 Q597.7344,609.2656 597.0625,608.4531 Q596.3906,607.6406 596.0625,606.5 Q595.7344,605.3438 595.7344,603.9531 Q595.7344,602.5781 596.1094,601.4219 Q596.4844,600.2656 597.2031,599.4375 Q597.9219,598.6094 598.9844,598.1563 Q600.0469,597.6875 601.4375,597.6875 Q602.3438,597.6875 603.25,597.9219 Q604.1563,598.1406 604.9844,598.5469 L604.1563,600.6406 Q603.4688,600.3125 602.7813,600.0781 Q602.0938,599.8281 601.4375,599.8281 Z " fill="#000000"/><text fill="#000000" font-family="sans-serif" font-size="14" lengthAdjust="spacing" textLength="100" x="615.5" y="608.8467">implicitVariable</text></g><!--class ParametricMethod--><g id="elem_ParametricMethod"><rect codeLine="15" fill="#CCFFFF" height="32" id="ParametricMethod" rx="2.5" ry="2.5" style="stroke:#A9A9A9;stroke-width:0.5;" width="151" x="1528" y="680"/><ellipse cx="1543" cy="696" fill="#FFFFFF" rx="11" ry="11" style="stroke:#181818;stroke-width:1.0;"/><path d="M1542.9375,691.8281 Q1542.1875,691.8281 1541.625,692.125 Q1541.0625,692.4063 1540.6719,692.9375 Q1540.2813,693.4688 1540.0781,694.25 Q1539.8906,695.0156 1539.8906,695.9688 Q1539.8906,696.9375 1540.0625,697.7031 Q1540.25,698.4531 1540.6094,698.9688 Q1540.9844,699.4844 1541.5625,699.7656 Q1542.1406,700.0313 1542.9375,700.0313 Q1543.6719,700.0313 1544.4063,699.8594 Q1545.1563,699.6875 1546.0313,699.3906 L1546.0313,701.5469 Q1545.625,701.7031 1545.2344,701.8281 Q1544.8438,701.9375 1544.4375,702.0156 Q1544.0313,702.0938 1543.6094,702.125 Q1543.1875,702.1719 1542.6875,702.1719 Q1541.2813,702.1719 1540.25,701.7188 Q1539.2344,701.2656 1538.5625,700.4531 Q1537.8906,699.6406 1537.5625,698.5 Q1537.2344,697.3438 1537.2344,695.9531 Q1537.2344,694.5781 1537.6094,693.4219 Q1537.9844,692.2656 1538.7031,691.4375 Q1539.4219,690.6094 1540.4844,690.1563 Q1541.5469,689.6875 1542.9375,689.6875 Q1543.8438,689.6875 1544.75,689.9219 Q1545.6563,690.1406 1546.4844,690.5469 L1545.6563,692.6406 Q1544.9688,692.3125 1544.2813,692.0781 Q1543.5938,691.8281 1542.9375,691.8281 Z " fill="#000000"/><text fill="#000000" font-family="sans-serif" font-size="14" lengthAdjust="spacing" textLength="119" x="1557" y="700.8467">ParametricMethod</text></g><!--class Namespace--><g id="elem_Namespace"><rect codeLine="17" fill="#CCFFFF" height="32" id="Namespace" rx="2.5" ry="2.5" style="stroke:#A9A9A9;stroke-width:0.5;" width="105" x="1895" y="588"/><ellipse cx="1910" cy="604" fill="#FFFFFF" rx="11" ry="11" style="stroke:#181818;stroke-width:1.0;"/><path d="M1909.9375,599.8281 Q1909.1875,599.8281 1908.625,600.125 Q1908.0625,600.4063 1907.6719,600.9375 Q1907.2813,601.4688 1907.0781,602.25 Q1906.8906,603.0156 1906.8906,603.9688 Q1906.8906,604.9375 1907.0625,605.7031 Q1907.25,606.4531 1907.6094,606.9688 Q1907.9844,607.4844 1908.5625,607.7656 Q1909.1406,608.0313 1909.9375,608.0313 Q1910.6719,608.0313 1911.4063,607.8594 Q1912.1563,607.6875 1913.0313,607.3906 L1913.0313,609.5469 Q1912.625,609.7031 1912.2344,609.8281 Q1911.8438,609.9375 1911.4375,610.0156 Q1911.0313,610.0938 1910.6094,610.125 Q1910.1875,610.1719 1909.6875,610.1719 Q1908.2813,610.1719 1907.25,609.7188 Q1906.2344,609.2656 1905.5625,608.4531 Q1904.8906,607.6406 1904.5625,606.5 Q1904.2344,605.3438 1904.2344,603.9531 Q1904.2344,602.5781 1904.6094,601.4219 Q1904.9844,600.2656 1905.7031,599.4375 Q1906.4219,598.6094 1907.4844,598.1563 Q1908.5469,597.6875 1909.9375,597.6875 Q1910.8438,597.6875 1911.75,597.9219 Q1912.6563,598.1406 1913.4844,598.5469 L1912.6563,600.6406 Q1911.9688,600.3125 1911.2813,600.0781 Q1910.5938,599.8281 1909.9375,599.8281 Z " fill="#000000"/><text fill="#000000" font-family="sans-serif" font-size="14" lengthAdjust="spacing" textLength="73" x="1924" y="608.8467">Namespace</text></g><!--class ScriptEntity--><g id="elem_ScriptEntity"><rect codeLine="19" fill="#CCFFFF" height="32" id="ScriptEntity" rx="2.5" ry="2.5" style="stroke:#A9A9A9;stroke-width:0.5;" width="104" x="2045.5" y="588"/><ellipse cx="2060.5" cy="604" fill="#FFFFFF" rx="11" ry="11" style="stroke:#181818;stroke-width:1.0;"/><path d="M2060.4375,599.8281 Q2059.6875,599.8281 2059.125,600.125 Q2058.5625,600.4063 2058.1719,600.9375 Q2057.7813,601.4688 2057.5781,602.25 Q2057.3906,603.0156 2057.3906,603.9688 Q2057.3906,604.9375 2057.5625,605.7031 Q2057.75,606.4531 2058.1094,606.9688 Q2058.4844,607.4844 2059.0625,607.7656 Q2059.6406,608.0313 2060.4375,608.0313 Q2061.1719,608.0313 2061.9063,607.8594 Q2062.6563,607.6875 2063.5313,607.3906 L2063.5313,609.5469 Q2063.125,609.7031 2062.7344,609.8281 Q2062.3438,609.9375 2061.9375,610.0156 Q2061.5313,610.0938 2061.1094,610.125 Q2060.6875,610.1719 2060.1875,610.1719 Q2058.7813,610.1719 2057.75,609.7188 Q2056.7344,609.2656 2056.0625,608.4531 Q2055.3906,607.6406 2055.0625,606.5 Q2054.7344,605.3438 2054.7344,603.9531 Q2054.7344,602.5781 2055.1094,601.4219 Q2055.4844,600.2656 2056.2031,599.4375 Q2056.9219,598.6094 2057.9844,598.1563 Q2059.0469,597.6875 2060.4375,597.6875 Q2061.3438,597.6875 2062.25,597.9219 Q2063.1563,598.1406 2063.9844,598.5469 L2063.1563,600.6406 Q2062.4688,600.3125 2061.7813,600.0781 Q2061.0938,599.8281 2060.4375,599.8281 Z " fill="#000000"/><text fill="#000000" font-family="sans-serif" font-size="14" lengthAdjust="spacing" textLength="72" x="2074.5" y="608.8467">ScriptEntity</text></g><!--class Reference--><g id="elem_Reference"><rect codeLine="21" fill="#CCFFFF" height="32" id="Reference" rx="2.5" ry="2.5" style="stroke:#A9A9A9;stroke-width:0.5;" width="97" x="319" y="99"/><ellipse cx="334" cy="115" fill="#FFFFFF" rx="11" ry="11" style="stroke:#181818;stroke-width:1.0;"/><path d="M333.9375,110.8281 Q333.1875,110.8281 332.625,111.125 Q332.0625,111.4063 331.6719,111.9375 Q331.2813,112.4688 331.0781,113.25 Q330.8906,114.0156 330.8906,114.9688 Q330.8906,115.9375 331.0625,116.7031 Q331.25,117.4531 331.6094,117.9688 Q331.9844,118.4844 332.5625,118.7656 Q333.1406,119.0313 333.9375,119.0313 Q334.6719,119.0313 335.4063,118.8594 Q336.1563,118.6875 337.0313,118.3906 L337.0313,120.5469 Q336.625,120.7031 336.2344,120.8281 Q335.8438,120.9375 335.4375,121.0156 Q335.0313,121.0938 334.6094,121.125 Q334.1875,121.1719 333.6875,121.1719 Q332.2813,121.1719 331.25,120.7188 Q330.2344,120.2656 329.5625,119.4531 Q328.8906,118.6406 328.5625,117.5 Q328.2344,116.3438 328.2344,114.9531 Q328.2344,113.5781 328.6094,112.4219 Q328.9844,111.2656 329.7031,110.4375 Q330.4219,109.6094 331.4844,109.1563 Q332.5469,108.6875 333.9375,108.6875 Q334.8438,108.6875 335.75,108.9219 Q336.6563,109.1406 337.4844,109.5469 L336.6563,111.6406 Q335.9688,111.3125 335.2813,111.0781 Q334.5938,110.8281 333.9375,110.8281 Z " fill="#000000"/><text fill="#000000" font-family="sans-serif" font-size="14" lengthAdjust="spacing" textLength="65" x="348" y="119.8467">Reference</text></g><!--class Module--><g id="elem_Module"><rect codeLine="23" fill="#CCFFFF" height="32" id="Module" rx="2.5" ry="2.5" style="stroke:#A9A9A9;stroke-width:0.5;" width="80" x="2066.5" y="680"/><ellipse cx="2081.5" cy="696" fill="#FFFFFF" rx="11" ry="11" style="stroke:#181818;stroke-width:1.0;"/><path d="M2081.4375,691.8281 Q2080.6875,691.8281 2080.125,692.125 Q2079.5625,692.4063 2079.1719,692.9375 Q2078.7813,693.4688 2078.5781,694.25 Q2078.3906,695.0156 2078.3906,695.9688 Q2078.3906,696.9375 2078.5625,697.7031 Q2078.75,698.4531 2079.1094,698.9688 Q2079.4844,699.4844 2080.0625,699.7656 Q2080.6406,700.0313 2081.4375,700.0313 Q2082.1719,700.0313 2082.9063,699.8594 Q2083.6563,699.6875 2084.5313,699.3906 L2084.5313,701.5469 Q2084.125,701.7031 2083.7344,701.8281 Q2083.3438,701.9375 2082.9375,702.0156 Q2082.5313,702.0938 2082.1094,702.125 Q2081.6875,702.1719 2081.1875,702.1719 Q2079.7813,702.1719 2078.75,701.7188 Q2077.7344,701.2656 2077.0625,700.4531 Q2076.3906,699.6406 2076.0625,698.5 Q2075.7344,697.3438 2075.7344,695.9531 Q2075.7344,694.5781 2076.1094,693.4219 Q2076.4844,692.2656 2077.2031,691.4375 Q2077.9219,690.6094 2078.9844,690.1563 Q2080.0469,689.6875 2081.4375,689.6875 Q2082.3438,689.6875 2083.25,689.9219 Q2084.1563,690.1406 2084.9844,690.5469 L2084.1563,692.6406 Q2083.4688,692.3125 2082.7813,692.0781 Q2082.0938,691.8281 2081.4375,691.8281 Z " fill="#000000"/><text fill="#000000" font-family="sans-serif" font-size="14" lengthAdjust="spacing" textLength="48" x="2095.5" y="700.8467">Module</text></g><!--class Type--><g id="elem_Type"><rect codeLine="25" fill="#CCFFFF" height="32" id="Type" rx="2.5" ry="2.5" style="stroke:#A9A9A9;stroke-width:0.5;" width="62" x="1137.5" y="459.5"/><ellipse cx="1152.5" cy="475.5" fill="#FFFFFF" rx="11" ry="11" style="stroke:#181818;stroke-width:1.0;"/><path d="M1152.4375,471.3281 Q1151.6875,471.3281 1151.125,471.625 Q1150.5625,471.9063 1150.1719,472.4375 Q1149.7813,472.9688 1149.5781,473.75 Q1149.3906,474.5156 1149.3906,475.4688 Q1149.3906,476.4375 1149.5625,477.2031 Q1149.75,477.9531 1150.1094,478.4688 Q1150.4844,478.9844 1151.0625,479.2656 Q1151.6406,479.5313 1152.4375,479.5313 Q1153.1719,479.5313 1153.9063,479.3594 Q1154.6563,479.1875 1155.5313,478.8906 L1155.5313,481.0469 Q1155.125,481.2031 1154.7344,481.3281 Q1154.3438,481.4375 1153.9375,481.5156 Q1153.5313,481.5938 1153.1094,481.625 Q1152.6875,481.6719 1152.1875,481.6719 Q1150.7813,481.6719 1149.75,481.2188 Q1148.7344,480.7656 1148.0625,479.9531 Q1147.3906,479.1406 1147.0625,478 Q1146.7344,476.8438 1146.7344,475.4531 Q1146.7344,474.0781 1147.1094,472.9219 Q1147.4844,471.7656 1148.2031,470.9375 Q1148.9219,470.1094 1149.9844,469.6563 Q1151.0469,469.1875 1152.4375,469.1875 Q1153.3438,469.1875 1154.25,469.4219 Q1155.1563,469.6406 1155.9844,470.0469 L1155.1563,472.1406 Q1154.4688,471.8125 1153.7813,471.5781 Q1153.0938,471.3281 1152.4375,471.3281 Z " fill="#000000"/><text fill="#000000" font-family="sans-serif" font-size="14" lengthAdjust="spacing" textLength="30" x="1166.5" y="480.3467">Type</text></g><!--class Variable--><g id="elem_Variable"><rect codeLine="27" fill="#CCFFFF" height="32" id="Variable" rx="2.5" ry="2.5" style="stroke:#A9A9A9;stroke-width:0.5;" width="84" x="630.5" y="459.5"/><ellipse cx="645.5" cy="475.5" fill="#FFFFFF" rx="11" ry="11" style="stroke:#181818;stroke-width:1.0;"/><path d="M645.4375,471.3281 Q644.6875,471.3281 644.125,471.625 Q643.5625,471.9063 643.1719,472.4375 Q642.7813,472.9688 642.5781,473.75 Q642.3906,474.5156 642.3906,475.4688 Q642.3906,476.4375 642.5625,477.2031 Q642.75,477.9531 643.1094,478.4688 Q643.4844,478.9844 644.0625,479.2656 Q644.6406,479.5313 645.4375,479.5313 Q646.1719,479.5313 646.9063,479.3594 Q647.6563,479.1875 648.5313,478.8906 L648.5313,481.0469 Q648.125,481.2031 647.7344,481.3281 Q647.3438,481.4375 646.9375,481.5156 Q646.5313,481.5938 646.1094,481.625 Q645.6875,481.6719 645.1875,481.6719 Q643.7813,481.6719 642.75,481.2188 Q641.7344,480.7656 641.0625,479.9531 Q640.3906,479.1406 640.0625,478 Q639.7344,476.8438 639.7344,475.4531 Q639.7344,474.0781 640.1094,472.9219 Q640.4844,471.7656 641.2031,470.9375 Q641.9219,470.1094 642.9844,469.6563 Q644.0469,469.1875 645.4375,469.1875 Q646.3438,469.1875 647.25,469.4219 Q648.1563,469.6406 648.9844,470.0469 L648.1563,472.1406 Q647.4688,471.8125 646.7813,471.5781 Q646.0938,471.3281 645.4375,471.3281 Z " fill="#000000"/><text fill="#000000" font-family="sans-serif" font-size="14" lengthAdjust="spacing" textLength="52" x="659.5" y="480.3467">Variable</text></g><!--class Entity--><g id="elem_Entity"><rect codeLine="29" fill="#CCFFFF" height="32" id="Entity" rx="2.5" ry="2.5" style="stroke:#A9A9A9;stroke-width:0.5;" width="68" x="790.5" y="7"/><ellipse cx="805.5" cy="23" fill="#FFFFFF" rx="11" ry="11" style="stroke:#181818;stroke-width:1.0;"/><path d="M805.4375,18.8281 Q804.6875,18.8281 804.125,19.125 Q803.5625,19.4063 803.1719,19.9375 Q802.7813,20.4688 802.5781,21.25 Q802.3906,22.0156 802.3906,22.9688 Q802.3906,23.9375 802.5625,24.7031 Q802.75,25.4531 803.1094,25.9688 Q803.4844,26.4844 804.0625,26.7656 Q804.6406,27.0313 805.4375,27.0313 Q806.1719,27.0313 806.9063,26.8594 Q807.6563,26.6875 808.5313,26.3906 L808.5313,28.5469 Q808.125,28.7031 807.7344,28.8281 Q807.3438,28.9375 806.9375,29.0156 Q806.5313,29.0938 806.1094,29.125 Q805.6875,29.1719 805.1875,29.1719 Q803.7813,29.1719 802.75,28.7188 Q801.7344,28.2656 801.0625,27.4531 Q800.3906,26.6406 800.0625,25.5 Q799.7344,24.3438 799.7344,22.9531 Q799.7344,21.5781 800.1094,20.4219 Q800.4844,19.2656 801.2031,18.4375 Q801.9219,17.6094 802.9844,17.1563 Q804.0469,16.6875 805.4375,16.6875 Q806.3438,16.6875 807.25,16.9219 Q808.1563,17.1406 808.9844,17.5469 L808.1563,19.6406 Q807.4688,19.3125 806.7813,19.0781 Q806.0938,18.8281 805.4375,18.8281 Z " fill="#000000"/><text fill="#000000" font-family="sans-serif" font-size="14" lengthAdjust="spacing" textLength="36" x="819.5" y="27.8467">Entity</text></g><!--class FamixTypeScriptModel--><g id="elem_FamixTypeScriptModel"><rect codeLine="31" fill="#CCFFFF" height="32" id="FamixTypeScriptModel" rx="2.5" ry="2.5" style="stroke:#A9A9A9;stroke-width:0.5;" width="176" x="1709.5" y="99"/><ellipse cx="1724.5" cy="115" fill="#FFFFFF" rx="11" ry="11" style="stroke:#181818;stroke-width:1.0;"/><path d="M1724.4375,110.8281 Q1723.6875,110.8281 1723.125,111.125 Q1722.5625,111.4063 1722.1719,111.9375 Q1721.7813,112.4688 1721.5781,113.25 Q1721.3906,114.0156 1721.3906,114.9688 Q1721.3906,115.9375 1721.5625,116.7031 Q1721.75,117.4531 1722.1094,117.9688 Q1722.4844,118.4844 1723.0625,118.7656 Q1723.6406,119.0313 1724.4375,119.0313 Q1725.1719,119.0313 1725.9063,118.8594 Q1726.6563,118.6875 1727.5313,118.3906 L1727.5313,120.5469 Q1727.125,120.7031 1726.7344,120.8281 Q1726.3438,120.9375 1725.9375,121.0156 Q1725.5313,121.0938 1725.1094,121.125 Q1724.6875,121.1719 1724.1875,121.1719 Q1722.7813,121.1719 1721.75,120.7188 Q1720.7344,120.2656 1720.0625,119.4531 Q1719.3906,118.6406 1719.0625,117.5 Q1718.7344,116.3438 1718.7344,114.9531 Q1718.7344,113.5781 1719.1094,112.4219 Q1719.4844,111.2656 1720.2031,110.4375 Q1720.9219,109.6094 1721.9844,109.1563 Q1723.0469,108.6875 1724.4375,108.6875 Q1725.3438,108.6875 1726.25,108.9219 Q1727.1563,109.1406 1727.9844,109.5469 L1727.1563,111.6406 Q1726.4688,111.3125 1725.7813,111.0781 Q1725.0938,110.8281 1724.4375,110.8281 Z " fill="#000000"/><text fill="#000000" font-family="sans-serif" font-size="14" lengthAdjust="spacing" textLength="144" x="1738.5" y="119.8467">FamixTypeScriptModel</text></g><!--class StructuralEntity--><g id="elem_StructuralEntity"><rect codeLine="33" fill="#CCFFFF" height="32" id="StructuralEntity" rx="2.5" ry="2.5" style="stroke:#A9A9A9;stroke-width:0.5;" width="130" x="734.5" y="319"/><ellipse cx="749.5" cy="335" fill="#FFFFFF" rx="11" ry="11" style="stroke:#181818;stroke-width:1.0;"/><path d="M749.4375,330.8281 Q748.6875,330.8281 748.125,331.125 Q747.5625,331.4063 747.1719,331.9375 Q746.7813,332.4688 746.5781,333.25 Q746.3906,334.0156 746.3906,334.9688 Q746.3906,335.9375 746.5625,336.7031 Q746.75,337.4531 747.1094,337.9688 Q747.4844,338.4844 748.0625,338.7656 Q748.6406,339.0313 749.4375,339.0313 Q750.1719,339.0313 750.9063,338.8594 Q751.6563,338.6875 752.5313,338.3906 L752.5313,340.5469 Q752.125,340.7031 751.7344,340.8281 Q751.3438,340.9375 750.9375,341.0156 Q750.5313,341.0938 750.1094,341.125 Q749.6875,341.1719 749.1875,341.1719 Q747.7813,341.1719 746.75,340.7188 Q745.7344,340.2656 745.0625,339.4531 Q744.3906,338.6406 744.0625,337.5 Q743.7344,336.3438 743.7344,334.9531 Q743.7344,333.5781 744.1094,332.4219 Q744.4844,331.2656 745.2031,330.4375 Q745.9219,329.6094 746.9844,329.1563 Q748.0469,328.6875 749.4375,328.6875 Q750.3438,328.6875 751.25,328.9219 Q752.1563,329.1406 752.9844,329.5469 L752.1563,331.6406 Q751.4688,331.3125 750.7813,331.0781 Q750.0938,330.8281 749.4375,330.8281 Z " fill="#000000"/><text fill="#000000" font-family="sans-serif" font-size="14" lengthAdjust="spacing" textLength="98" x="763.5" y="339.8467">StructuralEntity</text></g><!--class ContainerEntity--><g id="elem_ContainerEntity"><rect codeLine="35" fill="#CCFFFF" height="32" id="ContainerEntity" rx="2.5" ry="2.5" style="stroke:#A9A9A9;stroke-width:0.5;" width="130" x="1389.5" y="319"/><ellipse cx="1404.5" cy="335" fill="#FFFFFF" rx="11" ry="11" style="stroke:#181818;stroke-width:1.0;"/><path d="M1404.4375,330.8281 Q1403.6875,330.8281 1403.125,331.125 Q1402.5625,331.4063 1402.1719,331.9375 Q1401.7813,332.4688 1401.5781,333.25 Q1401.3906,334.0156 1401.3906,334.9688 Q1401.3906,335.9375 1401.5625,336.7031 Q1401.75,337.4531 1402.1094,337.9688 Q1402.4844,338.4844 1403.0625,338.7656 Q1403.6406,339.0313 1404.4375,339.0313 Q1405.1719,339.0313 1405.9063,338.8594 Q1406.6563,338.6875 1407.5313,338.3906 L1407.5313,340.5469 Q1407.125,340.7031 1406.7344,340.8281 Q1406.3438,340.9375 1405.9375,341.0156 Q1405.5313,341.0938 1405.1094,341.125 Q1404.6875,341.1719 1404.1875,341.1719 Q1402.7813,341.1719 1401.75,340.7188 Q1400.7344,340.2656 1400.0625,339.4531 Q1399.3906,338.6406 1399.0625,337.5 Q1398.7344,336.3438 1398.7344,334.9531 Q1398.7344,333.5781 1399.1094,332.4219 Q1399.4844,331.2656 1400.2031,330.4375 Q1400.9219,329.6094 1401.9844,329.1563 Q1403.0469,328.6875 1404.4375,328.6875 Q1405.3438,328.6875 1406.25,328.9219 Q1407.1563,329.1406 1407.9844,329.5469 L1407.1563,331.6406 Q1406.4688,331.3125 1405.7813,331.0781 Q1405.0938,330.8281 1404.4375,330.8281 Z " fill="#000000"/><text fill="#000000" font-family="sans-serif" font-size="14" lengthAdjust="spacing" textLength="98" x="1418.5" y="339.8467">ContainerEntity</text></g><!--class Enum--><g id="elem_Enum"><rect codeLine="37" fill="#CCFFFF" height="32" id="Enum" rx="2.5" ry="2.5" style="stroke:#A9A9A9;stroke-width:0.5;" width="68" x="753.5" y="588"/><ellipse cx="768.5" cy="604" fill="#FFFFFF" rx="11" ry="11" style="stroke:#181818;stroke-width:1.0;"/><path d="M768.4375,599.8281 Q767.6875,599.8281 767.125,600.125 Q766.5625,600.4063 766.1719,600.9375 Q765.7813,601.4688 765.5781,602.25 Q765.3906,603.0156 765.3906,603.9688 Q765.3906,604.9375 765.5625,605.7031 Q765.75,606.4531 766.1094,606.9688 Q766.4844,607.4844 767.0625,607.7656 Q767.6406,608.0313 768.4375,608.0313 Q769.1719,608.0313 769.9063,607.8594 Q770.6563,607.6875 771.5313,607.3906 L771.5313,609.5469 Q771.125,609.7031 770.7344,609.8281 Q770.3438,609.9375 769.9375,610.0156 Q769.5313,610.0938 769.1094,610.125 Q768.6875,610.1719 768.1875,610.1719 Q766.7813,610.1719 765.75,609.7188 Q764.7344,609.2656 764.0625,608.4531 Q763.3906,607.6406 763.0625,606.5 Q762.7344,605.3438 762.7344,603.9531 Q762.7344,602.5781 763.1094,601.4219 Q763.4844,600.2656 764.2031,599.4375 Q764.9219,598.6094 765.9844,598.1563 Q767.0469,597.6875 768.4375,597.6875 Q769.3438,597.6875 770.25,597.9219 Q771.1563,598.1406 771.9844,598.5469 L771.1563,600.6406 Q770.4688,600.3125 769.7813,600.0781 Q769.0938,599.8281 768.4375,599.8281 Z " fill="#000000"/><text fill="#000000" font-family="sans-serif" font-size="14" lengthAdjust="spacing" textLength="36" x="782.5" y="608.8467">Enum</text></g><!--class File--><g id="elem_File"><rect codeLine="39" fill="#CCFFFF" height="32" id="File" rx="2.5" ry="2.5" style="stroke:#A9A9A9;stroke-width:0.5;" width="55" x="900" y="319"/><ellipse cx="915" cy="335" fill="#FFFFFF" rx="11" ry="11" style="stroke:#181818;stroke-width:1.0;"/><path d="M914.9375,330.8281 Q914.1875,330.8281 913.625,331.125 Q913.0625,331.4063 912.6719,331.9375 Q912.2813,332.4688 912.0781,333.25 Q911.8906,334.0156 911.8906,334.9688 Q911.8906,335.9375 912.0625,336.7031 Q912.25,337.4531 912.6094,337.9688 Q912.9844,338.4844 913.5625,338.7656 Q914.1406,339.0313 914.9375,339.0313 Q915.6719,339.0313 916.4063,338.8594 Q917.1563,338.6875 918.0313,338.3906 L918.0313,340.5469 Q917.625,340.7031 917.2344,340.8281 Q916.8438,340.9375 916.4375,341.0156 Q916.0313,341.0938 915.6094,341.125 Q915.1875,341.1719 914.6875,341.1719 Q913.2813,341.1719 912.25,340.7188 Q911.2344,340.2656 910.5625,339.4531 Q909.8906,338.6406 909.5625,337.5 Q909.2344,336.3438 909.2344,334.9531 Q909.2344,333.5781 909.6094,332.4219 Q909.9844,331.2656 910.7031,330.4375 Q911.4219,329.6094 912.4844,329.1563 Q913.5469,328.6875 914.9375,328.6875 Q915.8438,328.6875 916.75,328.9219 Q917.6563,329.1406 918.4844,329.5469 L917.6563,331.6406 Q916.9688,331.3125 916.2813,331.0781 Q915.5938,330.8281 914.9375,330.8281 Z " fill="#000000"/><text fill="#000000" font-family="sans-serif" font-size="14" lengthAdjust="spacing" textLength="23" x="929" y="339.8467">File</text></g><!--class SourceAnchor--><g id="elem_SourceAnchor"><rect codeLine="41" fill="#CCFFFF" height="32" id="SourceAnchor" rx="2.5" ry="2.5" style="stroke:#A9A9A9;stroke-width:0.5;" width="120" x="451.5" y="99"/><ellipse cx="466.5" cy="115" fill="#FFFFFF" rx="11" ry="11" style="stroke:#181818;stroke-width:1.0;"/><path d="M466.4375,110.8281 Q465.6875,110.8281 465.125,111.125 Q464.5625,111.4063 464.1719,111.9375 Q463.7813,112.4688 463.5781,113.25 Q463.3906,114.0156 463.3906,114.9688 Q463.3906,115.9375 463.5625,116.7031 Q463.75,117.4531 464.1094,117.9688 Q464.4844,118.4844 465.0625,118.7656 Q465.6406,119.0313 466.4375,119.0313 Q467.1719,119.0313 467.9063,118.8594 Q468.6563,118.6875 469.5313,118.3906 L469.5313,120.5469 Q469.125,120.7031 468.7344,120.8281 Q468.3438,120.9375 467.9375,121.0156 Q467.5313,121.0938 467.1094,121.125 Q466.6875,121.1719 466.1875,121.1719 Q464.7813,121.1719 463.75,120.7188 Q462.7344,120.2656 462.0625,119.4531 Q461.3906,118.6406 461.0625,117.5 Q460.7344,116.3438 460.7344,114.9531 Q460.7344,113.5781 461.1094,112.4219 Q461.4844,111.2656 462.2031,110.4375 Q462.9219,109.6094 463.9844,109.1563 Q465.0469,108.6875 466.4375,108.6875 Q467.3438,108.6875 468.25,108.9219 Q469.1563,109.1406 469.9844,109.5469 L469.1563,111.6406 Q468.4688,111.3125 467.7813,111.0781 Q467.0938,110.8281 466.4375,110.8281 Z " fill="#000000"/><text fill="#000000" font-family="sans-serif" font-size="14" lengthAdjust="spacing" textLength="88" x="480.5" y="119.8467">SourceAnchor</text></g><!--class ParameterType--><g id="elem_ParameterType"><rect codeLine="43" fill="#CCFFFF" height="32" id="ParameterType" rx="2.5" ry="2.5" style="stroke:#A9A9A9;stroke-width:0.5;" width="130" x="856.5" y="588"/><ellipse cx="871.5" cy="604" fill="#FFFFFF" rx="11" ry="11" style="stroke:#181818;stroke-width:1.0;"/><path d="M871.4375,599.8281 Q870.6875,599.8281 870.125,600.125 Q869.5625,600.4063 869.1719,600.9375 Q868.7813,601.4688 868.5781,602.25 Q868.3906,603.0156 868.3906,603.9688 Q868.3906,604.9375 868.5625,605.7031 Q868.75,606.4531 869.1094,606.9688 Q869.4844,607.4844 870.0625,607.7656 Q870.6406,608.0313 871.4375,608.0313 Q872.1719,608.0313 872.9063,607.8594 Q873.6563,607.6875 874.5313,607.3906 L874.5313,609.5469 Q874.125,609.7031 873.7344,609.8281 Q873.3438,609.9375 872.9375,610.0156 Q872.5313,610.0938 872.1094,610.125 Q871.6875,610.1719 871.1875,610.1719 Q869.7813,610.1719 868.75,609.7188 Q867.7344,609.2656 867.0625,608.4531 Q866.3906,607.6406 866.0625,606.5 Q865.7344,605.3438 865.7344,603.9531 Q865.7344,602.5781 866.1094,601.4219 Q866.4844,600.2656 867.2031,599.4375 Q867.9219,598.6094 868.9844,598.1563 Q870.0469,597.6875 871.4375,597.6875 Q872.3438,597.6875 873.25,597.9219 Q874.1563,598.1406 874.9844,598.5469 L874.1563,600.6406 Q873.4688,600.3125 872.7813,600.0781 Q872.0938,599.8281 871.4375,599.8281 Z " fill="#000000"/><text fill="#000000" font-family="sans-serif" font-size="14" lengthAdjust="spacing" textLength="98" x="885.5" y="608.8467">ParameterType</text></g><!--class IndexedFileAnchor--><g id="elem_IndexedFileAnchor"><rect codeLine="45" fill="#CCFFFF" height="32" id="IndexedFileAnchor" rx="2.5" ry="2.5" style="stroke:#A9A9A9;stroke-width:0.5;" width="152" x="343.5" y="203"/><ellipse cx="358.5" cy="219" fill="#FFFFFF" rx="11" ry="11" style="stroke:#181818;stroke-width:1.0;"/><path d="M358.4375,214.8281 Q357.6875,214.8281 357.125,215.125 Q356.5625,215.4063 356.1719,215.9375 Q355.7813,216.4688 355.5781,217.25 Q355.3906,218.0156 355.3906,218.9688 Q355.3906,219.9375 355.5625,220.7031 Q355.75,221.4531 356.1094,221.9688 Q356.4844,222.4844 357.0625,222.7656 Q357.6406,223.0313 358.4375,223.0313 Q359.1719,223.0313 359.9063,222.8594 Q360.6563,222.6875 361.5313,222.3906 L361.5313,224.5469 Q361.125,224.7031 360.7344,224.8281 Q360.3438,224.9375 359.9375,225.0156 Q359.5313,225.0938 359.1094,225.125 Q358.6875,225.1719 358.1875,225.1719 Q356.7813,225.1719 355.75,224.7188 Q354.7344,224.2656 354.0625,223.4531 Q353.3906,222.6406 353.0625,221.5 Q352.7344,220.3438 352.7344,218.9531 Q352.7344,217.5781 353.1094,216.4219 Q353.4844,215.2656 354.2031,214.4375 Q354.9219,213.6094 355.9844,213.1563 Q357.0469,212.6875 358.4375,212.6875 Q359.3438,212.6875 360.25,212.9219 Q361.1563,213.1406 361.9844,213.5469 L361.1563,215.6406 Q360.4688,215.3125 359.7813,215.0781 Q359.0938,214.8281 358.4375,214.8281 Z " fill="#000000"/><text fill="#000000" font-family="sans-serif" font-size="14" lengthAdjust="spacing" textLength="120" x="372.5" y="223.8467">IndexedFileAnchor</text></g><!--class BehaviouralEntity--><g id="elem_BehaviouralEntity"><rect codeLine="47" fill="#CCFFFF" height="32" id="BehaviouralEntity" rx="2.5" ry="2.5" style="stroke:#A9A9A9;stroke-width:0.5;" width="144" x="1480.5" y="459.5"/><ellipse cx="1495.5" cy="475.5" fill="#FFFFFF" rx="11" ry="11" style="stroke:#181818;stroke-width:1.0;"/><path d="M1495.4375,471.3281 Q1494.6875,471.3281 1494.125,471.625 Q1493.5625,471.9063 1493.1719,472.4375 Q1492.7813,472.9688 1492.5781,473.75 Q1492.3906,474.5156 1492.3906,475.4688 Q1492.3906,476.4375 1492.5625,477.2031 Q1492.75,477.9531 1493.1094,478.4688 Q1493.4844,478.9844 1494.0625,479.2656 Q1494.6406,479.5313 1495.4375,479.5313 Q1496.1719,479.5313 1496.9063,479.3594 Q1497.6563,479.1875 1498.5313,478.8906 L1498.5313,481.0469 Q1498.125,481.2031 1497.7344,481.3281 Q1497.3438,481.4375 1496.9375,481.5156 Q1496.5313,481.5938 1496.1094,481.625 Q1495.6875,481.6719 1495.1875,481.6719 Q1493.7813,481.6719 1492.75,481.2188 Q1491.7344,480.7656 1491.0625,479.9531 Q1490.3906,479.1406 1490.0625,478 Q1489.7344,476.8438 1489.7344,475.4531 Q1489.7344,474.0781 1490.1094,472.9219 Q1490.4844,471.7656 1491.2031,470.9375 Q1491.9219,470.1094 1492.9844,469.6563 Q1494.0469,469.1875 1495.4375,469.1875 Q1496.3438,469.1875 1497.25,469.4219 Q1498.1563,469.6406 1498.9844,470.0469 L1498.1563,472.1406 Q1497.4688,471.8125 1496.7813,471.5781 Q1496.0938,471.3281 1495.4375,471.3281 Z " fill="#000000"/><text fill="#000000" font-family="sans-serif" font-size="14" lengthAdjust="spacing" textLength="112" x="1509.5" y="480.3467">BehaviouralEntity</text></g><!--class ParametricClass--><g id="elem_ParametricClass"><rect codeLine="49" fill="#CCFFFF" height="32" id="ParametricClass" rx="2.5" ry="2.5" style="stroke:#A9A9A9;stroke-width:0.5;" width="133" x="1168" y="680"/><ellipse cx="1183" cy="696" fill="#FFFFFF" rx="11" ry="11" style="stroke:#181818;stroke-width:1.0;"/><path d="M1182.9375,691.8281 Q1182.1875,691.8281 1181.625,692.125 Q1181.0625,692.4063 1180.6719,692.9375 Q1180.2813,693.4688 1180.0781,694.25 Q1179.8906,695.0156 1179.8906,695.9688 Q1179.8906,696.9375 1180.0625,697.7031 Q1180.25,698.4531 1180.6094,698.9688 Q1180.9844,699.4844 1181.5625,699.7656 Q1182.1406,700.0313 1182.9375,700.0313 Q1183.6719,700.0313 1184.4063,699.8594 Q1185.1563,699.6875 1186.0313,699.3906 L1186.0313,701.5469 Q1185.625,701.7031 1185.2344,701.8281 Q1184.8438,701.9375 1184.4375,702.0156 Q1184.0313,702.0938 1183.6094,702.125 Q1183.1875,702.1719 1182.6875,702.1719 Q1181.2813,702.1719 1180.25,701.7188 Q1179.2344,701.2656 1178.5625,700.4531 Q1177.8906,699.6406 1177.5625,698.5 Q1177.2344,697.3438 1177.2344,695.9531 Q1177.2344,694.5781 1177.6094,693.4219 Q1177.9844,692.2656 1178.7031,691.4375 Q1179.4219,690.6094 1180.4844,690.1563 Q1181.5469,689.6875 1182.9375,689.6875 Q1183.8438,689.6875 1184.75,689.9219 Q1185.6563,690.1406 1186.4844,690.5469 L1185.6563,692.6406 Q1184.9688,692.3125 1184.2813,692.0781 Q1183.5938,691.8281 1182.9375,691.8281 Z " fill="#000000"/><text fill="#000000" font-family="sans-serif" font-size="14" lengthAdjust="spacing" textLength="101" x="1197" y="700.8467">ParametricClass</text></g><!--class TClassMetrics--><g id="elem_TClassMetrics"><rect codeLine="51" fill="#CCFFFF" height="32" id="TClassMetrics" rx="2.5" ry="2.5" style="stroke:#A9A9A9;stroke-width:0.5;" width="117" x="1276" y="459.5"/><ellipse cx="1291" cy="475.5" fill="#FFFFFF" rx="11" ry="11" style="stroke:#181818;stroke-width:1.0;"/><path d="M1292.4531,482.25 L1289.8906,482.25 L1289.8906,472.25 L1286.8438,472.25 L1286.8438,470.1094 L1295.4844,470.1094 L1295.4844,472.25 L1292.4531,472.25 L1292.4531,482.25 Z " fill="#000000"/><text fill="#000000" font-family="sans-serif" font-size="14" lengthAdjust="spacing" textLength="85" x="1305" y="480.3467">TClassMetrics</text></g><!--class ParametricArrowFunction--><g id="elem_ParametricArrowFunction"><rect codeLine="53" fill="#CCFFFF" height="32" id="ParametricArrowFunction" rx="2.5" ry="2.5" style="stroke:#A9A9A9;stroke-width:0.5;" width="195" x="1836" y="680"/><ellipse cx="1851" cy="696" fill="#FFFFFF" rx="11" ry="11" style="stroke:#181818;stroke-width:1.0;"/><path d="M1850.9375,691.8281 Q1850.1875,691.8281 1849.625,692.125 Q1849.0625,692.4063 1848.6719,692.9375 Q1848.2813,693.4688 1848.0781,694.25 Q1847.8906,695.0156 1847.8906,695.9688 Q1847.8906,696.9375 1848.0625,697.7031 Q1848.25,698.4531 1848.6094,698.9688 Q1848.9844,699.4844 1849.5625,699.7656 Q1850.1406,700.0313 1850.9375,700.0313 Q1851.6719,700.0313 1852.4063,699.8594 Q1853.1563,699.6875 1854.0313,699.3906 L1854.0313,701.5469 Q1853.625,701.7031 1853.2344,701.8281 Q1852.8438,701.9375 1852.4375,702.0156 Q1852.0313,702.0938 1851.6094,702.125 Q1851.1875,702.1719 1850.6875,702.1719 Q1849.2813,702.1719 1848.25,701.7188 Q1847.2344,701.2656 1846.5625,700.4531 Q1845.8906,699.6406 1845.5625,698.5 Q1845.2344,697.3438 1845.2344,695.9531 Q1845.2344,694.5781 1845.6094,693.4219 Q1845.9844,692.2656 1846.7031,691.4375 Q1847.4219,690.6094 1848.4844,690.1563 Q1849.5469,689.6875 1850.9375,689.6875 Q1851.8438,689.6875 1852.75,689.9219 Q1853.6563,690.1406 1854.4844,690.5469 L1853.6563,692.6406 Q1852.9688,692.3125 1852.2813,692.0781 Q1851.5938,691.8281 1850.9375,691.8281 Z " fill="#000000"/><text fill="#000000" font-family="sans-serif" font-size="14" lengthAdjust="spacing" textLength="163" x="1865" y="700.8467">ParametricArrowFunction</text></g><!--class Interface--><g id="elem_Interface"><rect codeLine="55" fill="#CCFFFF" height="32" id="Interface" rx="2.5" ry="2.5" style="stroke:#A9A9A9;stroke-width:0.5;" width="90" x="1021.5" y="588"/><ellipse cx="1036.5" cy="604" fill="#FFFFFF" rx="11" ry="11" style="stroke:#181818;stroke-width:1.0;"/><path d="M1036.4375,599.8281 Q1035.6875,599.8281 1035.125,600.125 Q1034.5625,600.4063 1034.1719,600.9375 Q1033.7813,601.4688 1033.5781,602.25 Q1033.3906,603.0156 1033.3906,603.9688 Q1033.3906,604.9375 1033.5625,605.7031 Q1033.75,606.4531 1034.1094,606.9688 Q1034.4844,607.4844 1035.0625,607.7656 Q1035.6406,608.0313 1036.4375,608.0313 Q1037.1719,608.0313 1037.9063,607.8594 Q1038.6563,607.6875 1039.5313,607.3906 L1039.5313,609.5469 Q1039.125,609.7031 1038.7344,609.8281 Q1038.3438,609.9375 1037.9375,610.0156 Q1037.5313,610.0938 1037.1094,610.125 Q1036.6875,610.1719 1036.1875,610.1719 Q1034.7813,610.1719 1033.75,609.7188 Q1032.7344,609.2656 1032.0625,608.4531 Q1031.3906,607.6406 1031.0625,606.5 Q1030.7344,605.3438 1030.7344,603.9531 Q1030.7344,602.5781 1031.1094,601.4219 Q1031.4844,600.2656 1032.2031,599.4375 Q1032.9219,598.6094 1033.9844,598.1563 Q1035.0469,597.6875 1036.4375,597.6875 Q1037.3438,597.6875 1038.25,597.9219 Q1039.1563,598.1406 1039.9844,598.5469 L1039.1563,600.6406 Q1038.4688,600.3125 1037.7813,600.0781 Q1037.0938,599.8281 1036.4375,599.8281 Z " fill="#000000"/><text fill="#000000" font-family="sans-serif" font-size="14" lengthAdjust="spacing" textLength="58" x="1050.5" y="608.8467">Interface</text></g><!--class SourceLanguage--><g id="elem_SourceLanguage"><rect codeLine="57" fill="#CCFFFF" height="32" id="SourceLanguage" rx="2.5" ry="2.5" style="stroke:#A9A9A9;stroke-width:0.5;" width="134" x="606.5" y="99"/><ellipse cx="621.5" cy="115" fill="#FFFFFF" rx="11" ry="11" style="stroke:#181818;stroke-width:1.0;"/><path d="M621.4375,110.8281 Q620.6875,110.8281 620.125,111.125 Q619.5625,111.4063 619.1719,111.9375 Q618.7813,112.4688 618.5781,113.25 Q618.3906,114.0156 618.3906,114.9688 Q618.3906,115.9375 618.5625,116.7031 Q618.75,117.4531 619.1094,117.9688 Q619.4844,118.4844 620.0625,118.7656 Q620.6406,119.0313 621.4375,119.0313 Q622.1719,119.0313 622.9063,118.8594 Q623.6563,118.6875 624.5313,118.3906 L624.5313,120.5469 Q624.125,120.7031 623.7344,120.8281 Q623.3438,120.9375 622.9375,121.0156 Q622.5313,121.0938 622.1094,121.125 Q621.6875,121.1719 621.1875,121.1719 Q619.7813,121.1719 618.75,120.7188 Q617.7344,120.2656 617.0625,119.4531 Q616.3906,118.6406 616.0625,117.5 Q615.7344,116.3438 615.7344,114.9531 Q615.7344,113.5781 616.1094,112.4219 Q616.4844,111.2656 617.2031,110.4375 Q617.9219,109.6094 618.9844,109.1563 Q620.0469,108.6875 621.4375,108.6875 Q622.3438,108.6875 623.25,108.9219 Q624.1563,109.1406 624.9844,109.5469 L624.1563,111.6406 Q623.4688,111.3125 622.7813,111.0781 Q622.0938,110.8281 621.4375,110.8281 Z " fill="#000000"/><text fill="#000000" font-family="sans-serif" font-size="14" lengthAdjust="spacing" textLength="102" x="635.5" y="119.8467">SourceLanguage</text></g><!--class Invocation--><g id="elem_Invocation"><rect codeLine="59" fill="#CCFFFF" height="32" id="Invocation" rx="2.5" ry="2.5" style="stroke:#A9A9A9;stroke-width:0.5;" width="98" x="775.5" y="99"/><ellipse cx="790.5" cy="115" fill="#FFFFFF" rx="11" ry="11" style="stroke:#181818;stroke-width:1.0;"/><path d="M790.4375,110.8281 Q789.6875,110.8281 789.125,111.125 Q788.5625,111.4063 788.1719,111.9375 Q787.7813,112.4688 787.5781,113.25 Q787.3906,114.0156 787.3906,114.9688 Q787.3906,115.9375 787.5625,116.7031 Q787.75,117.4531 788.1094,117.9688 Q788.4844,118.4844 789.0625,118.7656 Q789.6406,119.0313 790.4375,119.0313 Q791.1719,119.0313 791.9063,118.8594 Q792.6563,118.6875 793.5313,118.3906 L793.5313,120.5469 Q793.125,120.7031 792.7344,120.8281 Q792.3438,120.9375 791.9375,121.0156 Q791.5313,121.0938 791.1094,121.125 Q790.6875,121.1719 790.1875,121.1719 Q788.7813,121.1719 787.75,120.7188 Q786.7344,120.2656 786.0625,119.4531 Q785.3906,118.6406 785.0625,117.5 Q784.7344,116.3438 784.7344,114.9531 Q784.7344,113.5781 785.1094,112.4219 Q785.4844,111.2656 786.2031,110.4375 Q786.9219,109.6094 787.9844,109.1563 Q789.0469,108.6875 790.4375,108.6875 Q791.3438,108.6875 792.25,108.9219 Q793.1563,109.1406 793.9844,109.5469 L793.1563,111.6406 Q792.4688,111.3125 791.7813,111.0781 Q791.0938,110.8281 790.4375,110.8281 Z " fill="#000000"/><text fill="#000000" font-family="sans-serif" font-size="14" lengthAdjust="spacing" textLength="66" x="804.5" y="119.8467">Invocation</text></g><!--class PrimitiveType--><g id="elem_PrimitiveType"><rect codeLine="61" fill="#CCFFFF" height="32" id="PrimitiveType" rx="2.5" ry="2.5" style="stroke:#A9A9A9;stroke-width:0.5;" width="121" x="1147" y="588"/><ellipse cx="1162" cy="604" fill="#FFFFFF" rx="11" ry="11" style="stroke:#181818;stroke-width:1.0;"/><path d="M1161.9375,599.8281 Q1161.1875,599.8281 1160.625,600.125 Q1160.0625,600.4063 1159.6719,600.9375 Q1159.2813,601.4688 1159.0781,602.25 Q1158.8906,603.0156 1158.8906,603.9688 Q1158.8906,604.9375 1159.0625,605.7031 Q1159.25,606.4531 1159.6094,606.9688 Q1159.9844,607.4844 1160.5625,607.7656 Q1161.1406,608.0313 1161.9375,608.0313 Q1162.6719,608.0313 1163.4063,607.8594 Q1164.1563,607.6875 1165.0313,607.3906 L1165.0313,609.5469 Q1164.625,609.7031 1164.2344,609.8281 Q1163.8438,609.9375 1163.4375,610.0156 Q1163.0313,610.0938 1162.6094,610.125 Q1162.1875,610.1719 1161.6875,610.1719 Q1160.2813,610.1719 1159.25,609.7188 Q1158.2344,609.2656 1157.5625,608.4531 Q1156.8906,607.6406 1156.5625,606.5 Q1156.2344,605.3438 1156.2344,603.9531 Q1156.2344,602.5781 1156.6094,601.4219 Q1156.9844,600.2656 1157.7031,599.4375 Q1158.4219,598.6094 1159.4844,598.1563 Q1160.5469,597.6875 1161.9375,597.6875 Q1162.8438,597.6875 1163.75,597.9219 Q1164.6563,598.1406 1165.4844,598.5469 L1164.6563,600.6406 Q1163.9688,600.3125 1163.2813,600.0781 Q1162.5938,599.8281 1161.9375,599.8281 Z " fill="#000000"/><text fill="#000000" font-family="sans-serif" font-size="14" lengthAdjust="spacing" textLength="89" x="1176" y="608.8467">PrimitiveType</text></g><!--class Access--><g id="elem_Access"><rect codeLine="63" fill="#CCFFFF" height="32" id="Access" rx="2.5" ry="2.5" style="stroke:#A9A9A9;stroke-width:0.5;" width="73" x="909" y="99"/><ellipse cx="924" cy="115" fill="#FFFFFF" rx="11" ry="11" style="stroke:#181818;stroke-width:1.0;"/><path d="M923.9375,110.8281 Q923.1875,110.8281 922.625,111.125 Q922.0625,111.4063 921.6719,111.9375 Q921.2813,112.4688 921.0781,113.25 Q920.8906,114.0156 920.8906,114.9688 Q920.8906,115.9375 921.0625,116.7031 Q921.25,117.4531 921.6094,117.9688 Q921.9844,118.4844 922.5625,118.7656 Q923.1406,119.0313 923.9375,119.0313 Q924.6719,119.0313 925.4063,118.8594 Q926.1563,118.6875 927.0313,118.3906 L927.0313,120.5469 Q926.625,120.7031 926.2344,120.8281 Q925.8438,120.9375 925.4375,121.0156 Q925.0313,121.0938 924.6094,121.125 Q924.1875,121.1719 923.6875,121.1719 Q922.2813,121.1719 921.25,120.7188 Q920.2344,120.2656 919.5625,119.4531 Q918.8906,118.6406 918.5625,117.5 Q918.2344,116.3438 918.2344,114.9531 Q918.2344,113.5781 918.6094,112.4219 Q918.9844,111.2656 919.7031,110.4375 Q920.4219,109.6094 921.4844,109.1563 Q922.5469,108.6875 923.9375,108.6875 Q924.8438,108.6875 925.75,108.9219 Q926.6563,109.1406 927.4844,109.5469 L926.6563,111.6406 Q925.9688,111.3125 925.2813,111.0781 Q924.5938,110.8281 923.9375,110.8281 Z " fill="#000000"/><text fill="#000000" font-family="sans-serif" font-size="14" lengthAdjust="spacing" textLength="41" x="938" y="119.8467">Access</text></g><!--class Decorator--><g id="elem_Decorator"><rect codeLine="65" fill="#CCFFFF" height="56.2969" id="Decorator" rx="2.5" ry="2.5" style="stroke:#A9A9A9;stroke-width:0.5;" width="122" x="577.5" y="307"/><ellipse cx="604.2" cy="323" fill="#FFFFFF" rx="11" ry="11" style="stroke:#181818;stroke-width:1.0;"/><path d="M604.1375,318.8281 Q603.3875,318.8281 602.825,319.125 Q602.2625,319.4063 601.8719,319.9375 Q601.4813,320.4688 601.2781,321.25 Q601.0906,322.0156 601.0906,322.9688 Q601.0906,323.9375 601.2625,324.7031 Q601.45,325.4531 601.8094,325.9688 Q602.1844,326.4844 602.7625,326.7656 Q603.3406,327.0313 604.1375,327.0313 Q604.8719,327.0313 605.6063,326.8594 Q606.3563,326.6875 607.2313,326.3906 L607.2313,328.5469 Q606.825,328.7031 606.4344,328.8281 Q606.0438,328.9375 605.6375,329.0156 Q605.2313,329.0938 604.8094,329.125 Q604.3875,329.1719 603.8875,329.1719 Q602.4813,329.1719 601.45,328.7188 Q600.4344,328.2656 599.7625,327.4531 Q599.0906,326.6406 598.7625,325.5 Q598.4344,324.3438 598.4344,322.9531 Q598.4344,321.5781 598.8094,320.4219 Q599.1844,319.2656 599.9031,318.4375 Q600.6219,317.6094 601.6844,317.1563 Q602.7469,316.6875 604.1375,316.6875 Q605.0438,316.6875 605.95,316.9219 Q606.8563,317.1406 607.6844,317.5469 L606.8563,319.6406 Q606.1688,319.3125 605.4813,319.0781 Q604.7938,318.8281 604.1375,318.8281 Z " fill="#000000"/><text fill="#000000" font-family="sans-serif" font-size="14" lengthAdjust="spacing" textLength="64" x="620.8" y="327.8467">Decorator</text><line style="stroke:#A9A9A9;stroke-width:0.5;" x1="578.5" x2="698.5" y1="339" y2="339"/><text fill="#000000" font-family="sans-serif" font-size="14" lengthAdjust="spacing" textLength="110" x="583.5" y="355.9951">String expression</text></g><!--class SourcedEntity--><g id="elem_SourcedEntity"><rect codeLine="68" fill="#CCFFFF" height="32" id="SourcedEntity" rx="2.5" ry="2.5" style="stroke:#A9A9A9;stroke-width:0.5;" width="119" x="1017" y="99"/><ellipse cx="1032" cy="115" fill="#FFFFFF" rx="11" ry="11" style="stroke:#181818;stroke-width:1.0;"/><path d="M1031.9375,110.8281 Q1031.1875,110.8281 1030.625,111.125 Q1030.0625,111.4063 1029.6719,111.9375 Q1029.2813,112.4688 1029.0781,113.25 Q1028.8906,114.0156 1028.8906,114.9688 Q1028.8906,115.9375 1029.0625,116.7031 Q1029.25,117.4531 1029.6094,117.9688 Q1029.9844,118.4844 1030.5625,118.7656 Q1031.1406,119.0313 1031.9375,119.0313 Q1032.6719,119.0313 1033.4063,118.8594 Q1034.1563,118.6875 1035.0313,118.3906 L1035.0313,120.5469 Q1034.625,120.7031 1034.2344,120.8281 Q1033.8438,120.9375 1033.4375,121.0156 Q1033.0313,121.0938 1032.6094,121.125 Q1032.1875,121.1719 1031.6875,121.1719 Q1030.2813,121.1719 1029.25,120.7188 Q1028.2344,120.2656 1027.5625,119.4531 Q1026.8906,118.6406 1026.5625,117.5 Q1026.2344,116.3438 1026.2344,114.9531 Q1026.2344,113.5781 1026.6094,112.4219 Q1026.9844,111.2656 1027.7031,110.4375 Q1028.4219,109.6094 1029.4844,109.1563 Q1030.5469,108.6875 1031.9375,108.6875 Q1032.8438,108.6875 1033.75,108.9219 Q1034.6563,109.1406 1035.4844,109.5469 L1034.6563,111.6406 Q1033.9688,111.3125 1033.2813,111.0781 Q1032.5938,110.8281 1031.9375,110.8281 Z " fill="#000000"/><text fill="#000000" font-family="sans-serif" font-size="14" lengthAdjust="spacing" textLength="87" x="1046" y="119.8467">SourcedEntity</text></g><!--class Folder--><g id="elem_Folder"><rect codeLine="70" fill="#CCFFFF" height="32" id="Folder" rx="2.5" ry="2.5" style="stroke:#A9A9A9;stroke-width:0.5;" width="73" x="990" y="319"/><ellipse cx="1005" cy="335" fill="#FFFFFF" rx="11" ry="11" style="stroke:#181818;stroke-width:1.0;"/><path d="M1004.9375,330.8281 Q1004.1875,330.8281 1003.625,331.125 Q1003.0625,331.4063 1002.6719,331.9375 Q1002.2813,332.4688 1002.0781,333.25 Q1001.8906,334.0156 1001.8906,334.9688 Q1001.8906,335.9375 1002.0625,336.7031 Q1002.25,337.4531 1002.6094,337.9688 Q1002.9844,338.4844 1003.5625,338.7656 Q1004.1406,339.0313 1004.9375,339.0313 Q1005.6719,339.0313 1006.4063,338.8594 Q1007.1563,338.6875 1008.0313,338.3906 L1008.0313,340.5469 Q1007.625,340.7031 1007.2344,340.8281 Q1006.8438,340.9375 1006.4375,341.0156 Q1006.0313,341.0938 1005.6094,341.125 Q1005.1875,341.1719 1004.6875,341.1719 Q1003.2813,341.1719 1002.25,340.7188 Q1001.2344,340.2656 1000.5625,339.4531 Q999.8906,338.6406 999.5625,337.5 Q999.2344,336.3438 999.2344,334.9531 Q999.2344,333.5781 999.6094,332.4219 Q999.9844,331.2656 1000.7031,330.4375 Q1001.4219,329.6094 1002.4844,329.1563 Q1003.5469,328.6875 1004.9375,328.6875 Q1005.8438,328.6875 1006.75,328.9219 Q1007.6563,329.1406 1008.4844,329.5469 L1007.6563,331.6406 Q1006.9688,331.3125 1006.2813,331.0781 Q1005.5938,330.8281 1004.9375,330.8281 Z " fill="#000000"/><text fill="#000000" font-family="sans-serif" font-size="14" lengthAdjust="spacing" textLength="41" x="1019" y="339.8467">Folder</text></g><!--class Function--><g id="elem_Function"><rect codeLine="72" fill="#CCFFFF" height="32" id="Function" rx="2.5" ry="2.5" style="stroke:#A9A9A9;stroke-width:0.5;" width="86" x="1428.5" y="588"/><ellipse cx="1443.5" cy="604" fill="#FFFFFF" rx="11" ry="11" style="stroke:#181818;stroke-width:1.0;"/><path d="M1443.4375,599.8281 Q1442.6875,599.8281 1442.125,600.125 Q1441.5625,600.4063 1441.1719,600.9375 Q1440.7813,601.4688 1440.5781,602.25 Q1440.3906,603.0156 1440.3906,603.9688 Q1440.3906,604.9375 1440.5625,605.7031 Q1440.75,606.4531 1441.1094,606.9688 Q1441.4844,607.4844 1442.0625,607.7656 Q1442.6406,608.0313 1443.4375,608.0313 Q1444.1719,608.0313 1444.9063,607.8594 Q1445.6563,607.6875 1446.5313,607.3906 L1446.5313,609.5469 Q1446.125,609.7031 1445.7344,609.8281 Q1445.3438,609.9375 1444.9375,610.0156 Q1444.5313,610.0938 1444.1094,610.125 Q1443.6875,610.1719 1443.1875,610.1719 Q1441.7813,610.1719 1440.75,609.7188 Q1439.7344,609.2656 1439.0625,608.4531 Q1438.3906,607.6406 1438.0625,606.5 Q1437.7344,605.3438 1437.7344,603.9531 Q1437.7344,602.5781 1438.1094,601.4219 Q1438.4844,600.2656 1439.2031,599.4375 Q1439.9219,598.6094 1440.9844,598.1563 Q1442.0469,597.6875 1443.4375,597.6875 Q1444.3438,597.6875 1445.25,597.9219 Q1446.1563,598.1406 1446.9844,598.5469 L1446.1563,600.6406 Q1445.4688,600.3125 1444.7813,600.0781 Q1444.0938,599.8281 1443.4375,599.8281 Z " fill="#000000"/><text fill="#000000" font-family="sans-serif" font-size="14" lengthAdjust="spacing" textLength="54" x="1457.5" y="608.8467">Function</text></g><!--class Class--><g id="elem_Class"><rect codeLine="74" fill="#CCFFFF" height="32" id="Class" rx="2.5" ry="2.5" style="stroke:#A9A9A9;stroke-width:0.5;" width="63" x="1303" y="588"/><ellipse cx="1318" cy="604" fill="#FFFFFF" rx="11" ry="11" style="stroke:#181818;stroke-width:1.0;"/><path d="M1317.9375,599.8281 Q1317.1875,599.8281 1316.625,600.125 Q1316.0625,600.4063 1315.6719,600.9375 Q1315.2813,601.4688 1315.0781,602.25 Q1314.8906,603.0156 1314.8906,603.9688 Q1314.8906,604.9375 1315.0625,605.7031 Q1315.25,606.4531 1315.6094,606.9688 Q1315.9844,607.4844 1316.5625,607.7656 Q1317.1406,608.0313 1317.9375,608.0313 Q1318.6719,608.0313 1319.4063,607.8594 Q1320.1563,607.6875 1321.0313,607.3906 L1321.0313,609.5469 Q1320.625,609.7031 1320.2344,609.8281 Q1319.8438,609.9375 1319.4375,610.0156 Q1319.0313,610.0938 1318.6094,610.125 Q1318.1875,610.1719 1317.6875,610.1719 Q1316.2813,610.1719 1315.25,609.7188 Q1314.2344,609.2656 1313.5625,608.4531 Q1312.8906,607.6406 1312.5625,606.5 Q1312.2344,605.3438 1312.2344,603.9531 Q1312.2344,602.5781 1312.6094,601.4219 Q1312.9844,600.2656 1313.7031,599.4375 Q1314.4219,598.6094 1315.4844,598.1563 Q1316.5469,597.6875 1317.9375,597.6875 Q1318.8438,597.6875 1319.75,597.9219 Q1320.6563,598.1406 1321.4844,598.5469 L1320.6563,600.6406 Q1319.9688,600.3125 1319.2813,600.0781 Q1318.5938,599.8281 1317.9375,599.8281 Z " fill="#000000"/><text fill="#000000" font-family="sans-serif" font-size="14" lengthAdjust="spacing" textLength="31" x="1332" y="608.8467">Class</text></g><!--class TEntityCreator--><g id="elem_TEntityCreator"><rect codeLine="76" fill="#CCFFFF" height="32" id="TEntityCreator" rx="2.5" ry="2.5" style="stroke:#A9A9A9;stroke-width:0.5;" width="123" x="1736" y="7"/><ellipse cx="1751" cy="23" fill="#FFFFFF" rx="11" ry="11" style="stroke:#181818;stroke-width:1.0;"/><path d="M1752.4531,29.75 L1749.8906,29.75 L1749.8906,19.75 L1746.8438,19.75 L1746.8438,17.6094 L1755.4844,17.6094 L1755.4844,19.75 L1752.4531,19.75 L1752.4531,29.75 Z " fill="#000000"/><text fill="#000000" font-family="sans-serif" font-size="14" lengthAdjust="spacing" textLength="91" x="1765" y="27.8467">TEntityCreator</text></g><!--class NamedEntity--><g id="elem_NamedEntity"><rect codeLine="78" fill="#CCFFFF" height="32" id="NamedEntity" rx="2.5" ry="2.5" style="stroke:#A9A9A9;stroke-width:0.5;" width="114" x="870.5" y="203"/><ellipse cx="885.5" cy="219" fill="#FFFFFF" rx="11" ry="11" style="stroke:#181818;stroke-width:1.0;"/><path d="M885.4375,214.8281 Q884.6875,214.8281 884.125,215.125 Q883.5625,215.4063 883.1719,215.9375 Q882.7813,216.4688 882.5781,217.25 Q882.3906,218.0156 882.3906,218.9688 Q882.3906,219.9375 882.5625,220.7031 Q882.75,221.4531 883.1094,221.9688 Q883.4844,222.4844 884.0625,222.7656 Q884.6406,223.0313 885.4375,223.0313 Q886.1719,223.0313 886.9063,222.8594 Q887.6563,222.6875 888.5313,222.3906 L888.5313,224.5469 Q888.125,224.7031 887.7344,224.8281 Q887.3438,224.9375 886.9375,225.0156 Q886.5313,225.0938 886.1094,225.125 Q885.6875,225.1719 885.1875,225.1719 Q883.7813,225.1719 882.75,224.7188 Q881.7344,224.2656 881.0625,223.4531 Q880.3906,222.6406 880.0625,221.5 Q879.7344,220.3438 879.7344,218.9531 Q879.7344,217.5781 880.1094,216.4219 Q880.4844,215.2656 881.2031,214.4375 Q881.9219,213.6094 882.9844,213.1563 Q884.0469,212.6875 885.4375,212.6875 Q886.3438,212.6875 887.25,212.9219 Q888.1563,213.1406 888.9844,213.5469 L888.1563,215.6406 Q887.4688,215.3125 886.7813,215.0781 Q886.0938,214.8281 885.4375,214.8281 Z " fill="#000000"/><text fill="#000000" font-family="sans-serif" font-size="14" lengthAdjust="spacing" textLength="82" x="899.5" y="223.8467">NamedEntity</text></g><!--class ParametricInterface--><g id="elem_ParametricInterface"><rect codeLine="80" fill="#CCFFFF" height="32" id="ParametricInterface" rx="2.5" ry="2.5" style="stroke:#A9A9A9;stroke-width:0.5;" width="160" x="972.5" y="680"/><ellipse cx="987.5" cy="696" fill="#FFFFFF" rx="11" ry="11" style="stroke:#181818;stroke-width:1.0;"/><path d="M987.4375,691.8281 Q986.6875,691.8281 986.125,692.125 Q985.5625,692.4063 985.1719,692.9375 Q984.7813,693.4688 984.5781,694.25 Q984.3906,695.0156 984.3906,695.9688 Q984.3906,696.9375 984.5625,697.7031 Q984.75,698.4531 985.1094,698.9688 Q985.4844,699.4844 986.0625,699.7656 Q986.6406,700.0313 987.4375,700.0313 Q988.1719,700.0313 988.9063,699.8594 Q989.6563,699.6875 990.5313,699.3906 L990.5313,701.5469 Q990.125,701.7031 989.7344,701.8281 Q989.3438,701.9375 988.9375,702.0156 Q988.5313,702.0938 988.1094,702.125 Q987.6875,702.1719 987.1875,702.1719 Q985.7813,702.1719 984.75,701.7188 Q983.7344,701.2656 983.0625,700.4531 Q982.3906,699.6406 982.0625,698.5 Q981.7344,697.3438 981.7344,695.9531 Q981.7344,694.5781 982.1094,693.4219 Q982.4844,692.2656 983.2031,691.4375 Q983.9219,690.6094 984.9844,690.1563 Q986.0469,689.6875 987.4375,689.6875 Q988.3438,689.6875 989.25,689.9219 Q990.1563,690.1406 990.9844,690.5469 L990.1563,692.6406 Q989.4688,692.3125 988.7813,692.0781 Q988.0938,691.8281 987.4375,691.8281 Z " fill="#000000"/><text fill="#000000" font-family="sans-serif" font-size="14" lengthAdjust="spacing" textLength="128" x="1001.5" y="700.8467">ParametricInterface</text></g><!--class ImportClause--><g id="elem_ImportClause"><rect codeLine="82" fill="#CCFFFF" height="32" id="ImportClause" rx="2.5" ry="2.5" style="stroke:#A9A9A9;stroke-width:0.5;" width="118" x="1171.5" y="99"/><ellipse cx="1186.5" cy="115" fill="#FFFFFF" rx="11" ry="11" style="stroke:#181818;stroke-width:1.0;"/><path d="M1186.4375,110.8281 Q1185.6875,110.8281 1185.125,111.125 Q1184.5625,111.4063 1184.1719,111.9375 Q1183.7813,112.4688 1183.5781,113.25 Q1183.3906,114.0156 1183.3906,114.9688 Q1183.3906,115.9375 1183.5625,116.7031 Q1183.75,117.4531 1184.1094,117.9688 Q1184.4844,118.4844 1185.0625,118.7656 Q1185.6406,119.0313 1186.4375,119.0313 Q1187.1719,119.0313 1187.9063,118.8594 Q1188.6563,118.6875 1189.5313,118.3906 L1189.5313,120.5469 Q1189.125,120.7031 1188.7344,120.8281 Q1188.3438,120.9375 1187.9375,121.0156 Q1187.5313,121.0938 1187.1094,121.125 Q1186.6875,121.1719 1186.1875,121.1719 Q1184.7813,121.1719 1183.75,120.7188 Q1182.7344,120.2656 1182.0625,119.4531 Q1181.3906,118.6406 1181.0625,117.5 Q1180.7344,116.3438 1180.7344,114.9531 Q1180.7344,113.5781 1181.1094,112.4219 Q1181.4844,111.2656 1182.2031,110.4375 Q1182.9219,109.6094 1183.9844,109.1563 Q1185.0469,108.6875 1186.4375,108.6875 Q1187.3438,108.6875 1188.25,108.9219 Q1189.1563,109.1406 1189.9844,109.5469 L1189.1563,111.6406 Q1188.4688,111.3125 1187.7813,111.0781 Q1187.0938,110.8281 1186.4375,110.8281 Z " fill="#000000"/><text fill="#000000" font-family="sans-serif" font-size="14" lengthAdjust="spacing" textLength="86" x="1200.5" y="119.8467">ImportClause</text></g><!--class SourceTextAnchor--><g id="elem_SourceTextAnchor"><rect codeLine="84" fill="#CCFFFF" height="32" id="SourceTextAnchor" rx="2.5" ry="2.5" style="stroke:#A9A9A9;stroke-width:0.5;" width="147" x="531" y="203"/><ellipse cx="546" cy="219" fill="#FFFFFF" rx="11" ry="11" style="stroke:#181818;stroke-width:1.0;"/><path d="M545.9375,214.8281 Q545.1875,214.8281 544.625,215.125 Q544.0625,215.4063 543.6719,215.9375 Q543.2813,216.4688 543.0781,217.25 Q542.8906,218.0156 542.8906,218.9688 Q542.8906,219.9375 543.0625,220.7031 Q543.25,221.4531 543.6094,221.9688 Q543.9844,222.4844 544.5625,222.7656 Q545.1406,223.0313 545.9375,223.0313 Q546.6719,223.0313 547.4063,222.8594 Q548.1563,222.6875 549.0313,222.3906 L549.0313,224.5469 Q548.625,224.7031 548.2344,224.8281 Q547.8438,224.9375 547.4375,225.0156 Q547.0313,225.0938 546.6094,225.125 Q546.1875,225.1719 545.6875,225.1719 Q544.2813,225.1719 543.25,224.7188 Q542.2344,224.2656 541.5625,223.4531 Q540.8906,222.6406 540.5625,221.5 Q540.2344,220.3438 540.2344,218.9531 Q540.2344,217.5781 540.6094,216.4219 Q540.9844,215.2656 541.7031,214.4375 Q542.4219,213.6094 543.4844,213.1563 Q544.5469,212.6875 545.9375,212.6875 Q546.8438,212.6875 547.75,212.9219 Q548.6563,213.1406 549.4844,213.5469 L548.6563,215.6406 Q547.9688,215.3125 547.2813,215.0781 Q546.5938,214.8281 545.9375,214.8281 Z " fill="#000000"/><text fill="#000000" font-family="sans-serif" font-size="14" lengthAdjust="spacing" textLength="115" x="560" y="223.8467">SourceTextAnchor</text></g><!--class Accessor--><g id="elem_Accessor"><rect codeLine="86" fill="#CCFFFF" height="32" id="Accessor" rx="2.5" ry="2.5" style="stroke:#A9A9A9;stroke-width:0.5;" width="87" x="1714" y="680"/><ellipse cx="1729" cy="696" fill="#FFFFFF" rx="11" ry="11" style="stroke:#181818;stroke-width:1.0;"/><path d="M1728.9375,691.8281 Q1728.1875,691.8281 1727.625,692.125 Q1727.0625,692.4063 1726.6719,692.9375 Q1726.2813,693.4688 1726.0781,694.25 Q1725.8906,695.0156 1725.8906,695.9688 Q1725.8906,696.9375 1726.0625,697.7031 Q1726.25,698.4531 1726.6094,698.9688 Q1726.9844,699.4844 1727.5625,699.7656 Q1728.1406,700.0313 1728.9375,700.0313 Q1729.6719,700.0313 1730.4063,699.8594 Q1731.1563,699.6875 1732.0313,699.3906 L1732.0313,701.5469 Q1731.625,701.7031 1731.2344,701.8281 Q1730.8438,701.9375 1730.4375,702.0156 Q1730.0313,702.0938 1729.6094,702.125 Q1729.1875,702.1719 1728.6875,702.1719 Q1727.2813,702.1719 1726.25,701.7188 Q1725.2344,701.2656 1724.5625,700.4531 Q1723.8906,699.6406 1723.5625,698.5 Q1723.2344,697.3438 1723.2344,695.9531 Q1723.2344,694.5781 1723.6094,693.4219 Q1723.9844,692.2656 1724.7031,691.4375 Q1725.4219,690.6094 1726.4844,690.1563 Q1727.5469,689.6875 1728.9375,689.6875 Q1729.8438,689.6875 1730.75,689.9219 Q1731.6563,690.1406 1732.4844,690.5469 L1731.6563,692.6406 Q1730.9688,692.3125 1730.2813,692.0781 Q1729.5938,691.8281 1728.9375,691.8281 Z " fill="#000000"/><text fill="#000000" font-family="sans-serif" font-size="14" lengthAdjust="spacing" textLength="55" x="1743" y="700.8467">Accessor</text></g><!--class Alias--><g id="elem_Alias"><rect codeLine="88" fill="#CCFFFF" height="32" id="Alias" rx="2.5" ry="2.5" style="stroke:#A9A9A9;stroke-width:0.5;" width="62" x="1098.5" y="319"/><ellipse cx="1113.5" cy="335" fill="#FFFFFF" rx="11" ry="11" style="stroke:#181818;stroke-width:1.0;"/><path d="M1113.4375,330.8281 Q1112.6875,330.8281 1112.125,331.125 Q1111.5625,331.4063 1111.1719,331.9375 Q1110.7813,332.4688 1110.5781,333.25 Q1110.3906,334.0156 1110.3906,334.9688 Q1110.3906,335.9375 1110.5625,336.7031 Q1110.75,337.4531 1111.1094,337.9688 Q1111.4844,338.4844 1112.0625,338.7656 Q1112.6406,339.0313 1113.4375,339.0313 Q1114.1719,339.0313 1114.9063,338.8594 Q1115.6563,338.6875 1116.5313,338.3906 L1116.5313,340.5469 Q1116.125,340.7031 1115.7344,340.8281 Q1115.3438,340.9375 1114.9375,341.0156 Q1114.5313,341.0938 1114.1094,341.125 Q1113.6875,341.1719 1113.1875,341.1719 Q1111.7813,341.1719 1110.75,340.7188 Q1109.7344,340.2656 1109.0625,339.4531 Q1108.3906,338.6406 1108.0625,337.5 Q1107.7344,336.3438 1107.7344,334.9531 Q1107.7344,333.5781 1108.1094,332.4219 Q1108.4844,331.2656 1109.2031,330.4375 Q1109.9219,329.6094 1110.9844,329.1563 Q1112.0469,328.6875 1113.4375,328.6875 Q1114.3438,328.6875 1115.25,328.9219 Q1116.1563,329.1406 1116.9844,329.5469 L1116.1563,331.6406 Q1115.4688,331.3125 1114.7813,331.0781 Q1114.0938,330.8281 1113.4375,330.8281 Z " fill="#000000"/><text fill="#000000" font-family="sans-serif" font-size="14" lengthAdjust="spacing" textLength="30" x="1127.5" y="339.8467">Alias</text></g><!--class Concretization--><g id="elem_Concretization"><rect codeLine="90" fill="#CCFFFF" height="32" id="Concretization" rx="2.5" ry="2.5" style="stroke:#A9A9A9;stroke-width:0.5;" width="123" x="1325" y="99"/><ellipse cx="1340" cy="115" fill="#FFFFFF" rx="11" ry="11" style="stroke:#181818;stroke-width:1.0;"/><path d="M1339.9375,110.8281 Q1339.1875,110.8281 1338.625,111.125 Q1338.0625,111.4063 1337.6719,111.9375 Q1337.2813,112.4688 1337.0781,113.25 Q1336.8906,114.0156 1336.8906,114.9688 Q1336.8906,115.9375 1337.0625,116.7031 Q1337.25,117.4531 1337.6094,117.9688 Q1337.9844,118.4844 1338.5625,118.7656 Q1339.1406,119.0313 1339.9375,119.0313 Q1340.6719,119.0313 1341.4063,118.8594 Q1342.1563,118.6875 1343.0313,118.3906 L1343.0313,120.5469 Q1342.625,120.7031 1342.2344,120.8281 Q1341.8438,120.9375 1341.4375,121.0156 Q1341.0313,121.0938 1340.6094,121.125 Q1340.1875,121.1719 1339.6875,121.1719 Q1338.2813,121.1719 1337.25,120.7188 Q1336.2344,120.2656 1335.5625,119.4531 Q1334.8906,118.6406 1334.5625,117.5 Q1334.2344,116.3438 1334.2344,114.9531 Q1334.2344,113.5781 1334.6094,112.4219 Q1334.9844,111.2656 1335.7031,110.4375 Q1336.4219,109.6094 1337.4844,109.1563 Q1338.5469,108.6875 1339.9375,108.6875 Q1340.8438,108.6875 1341.75,108.9219 Q1342.6563,109.1406 1343.4844,109.5469 L1342.6563,111.6406 Q1341.9688,111.3125 1341.2813,111.0781 Q1340.5938,110.8281 1339.9375,110.8281 Z " fill="#000000"/><text fill="#000000" font-family="sans-serif" font-size="14" lengthAdjust="spacing" textLength="91" x="1354" y="119.8467">Concretization</text></g><!--class Method--><g id="elem_Method"><rect codeLine="92" fill="#CCFFFF" height="32" id="Method" rx="2.5" ry="2.5" style="stroke:#A9A9A9;stroke-width:0.5;" width="81" x="1563" y="588"/><ellipse cx="1578" cy="604" fill="#FFFFFF" rx="11" ry="11" style="stroke:#181818;stroke-width:1.0;"/><path d="M1577.9375,599.8281 Q1577.1875,599.8281 1576.625,600.125 Q1576.0625,600.4063 1575.6719,600.9375 Q1575.2813,601.4688 1575.0781,602.25 Q1574.8906,603.0156 1574.8906,603.9688 Q1574.8906,604.9375 1575.0625,605.7031 Q1575.25,606.4531 1575.6094,606.9688 Q1575.9844,607.4844 1576.5625,607.7656 Q1577.1406,608.0313 1577.9375,608.0313 Q1578.6719,608.0313 1579.4063,607.8594 Q1580.1563,607.6875 1581.0313,607.3906 L1581.0313,609.5469 Q1580.625,609.7031 1580.2344,609.8281 Q1579.8438,609.9375 1579.4375,610.0156 Q1579.0313,610.0938 1578.6094,610.125 Q1578.1875,610.1719 1577.6875,610.1719 Q1576.2813,610.1719 1575.25,609.7188 Q1574.2344,609.2656 1573.5625,608.4531 Q1572.8906,607.6406 1572.5625,606.5 Q1572.2344,605.3438 1572.2344,603.9531 Q1572.2344,602.5781 1572.6094,601.4219 Q1572.9844,600.2656 1573.7031,599.4375 Q1574.4219,598.6094 1575.4844,598.1563 Q1576.5469,597.6875 1577.9375,597.6875 Q1578.8438,597.6875 1579.75,597.9219 Q1580.6563,598.1406 1581.4844,598.5469 L1580.6563,600.6406 Q1579.9688,600.3125 1579.2813,600.0781 Q1578.5938,599.8281 1577.9375,599.8281 Z " fill="#000000"/><text fill="#000000" font-family="sans-serif" font-size="14" lengthAdjust="spacing" textLength="49" x="1592" y="608.8467">Method</text></g><!--class TWithInterfaces--><g id="elem_TWithInterfaces"><rect codeLine="94" fill="#CCFFFF" height="32" id="TWithInterfaces" rx="2.5" ry="2.5" style="stroke:#A9A9A9;stroke-width:0.5;" width="132" x="1388.5" y="203"/><ellipse cx="1403.5" cy="219" fill="#FFFFFF" rx="11" ry="11" style="stroke:#181818;stroke-width:1.0;"/><path d="M1404.9531,225.75 L1402.3906,225.75 L1402.3906,215.75 L1399.3438,215.75 L1399.3438,213.6094 L1407.9844,213.6094 L1407.9844,215.75 L1404.9531,215.75 L1404.9531,225.75 Z " fill="#000000"/><text fill="#000000" font-family="sans-serif" font-size="14" lengthAdjust="spacing" textLength="100" x="1417.5" y="223.8467">TWithInterfaces</text></g><!--class Comment--><g id="elem_Comment"><rect codeLine="96" fill="#CCFFFF" height="56.2969" id="Comment" rx="2.5" ry="2.5" style="stroke:#A9A9A9;stroke-width:0.5;" width="113" x="1020" y="191"/><ellipse cx="1043.1" cy="207" fill="#FFFFFF" rx="11" ry="11" style="stroke:#181818;stroke-width:1.0;"/><path d="M1043.0375,202.8281 Q1042.2875,202.8281 1041.725,203.125 Q1041.1625,203.4063 1040.7719,203.9375 Q1040.3813,204.4688 1040.1781,205.25 Q1039.9906,206.0156 1039.9906,206.9688 Q1039.9906,207.9375 1040.1625,208.7031 Q1040.35,209.4531 1040.7094,209.9688 Q1041.0844,210.4844 1041.6625,210.7656 Q1042.2406,211.0313 1043.0375,211.0313 Q1043.7719,211.0313 1044.5063,210.8594 Q1045.2563,210.6875 1046.1313,210.3906 L1046.1313,212.5469 Q1045.725,212.7031 1045.3344,212.8281 Q1044.9438,212.9375 1044.5375,213.0156 Q1044.1313,213.0938 1043.7094,213.125 Q1043.2875,213.1719 1042.7875,213.1719 Q1041.3813,213.1719 1040.35,212.7188 Q1039.3344,212.2656 1038.6625,211.4531 Q1037.9906,210.6406 1037.6625,209.5 Q1037.3344,208.3438 1037.3344,206.9531 Q1037.3344,205.5781 1037.7094,204.4219 Q1038.0844,203.2656 1038.8031,202.4375 Q1039.5219,201.6094 1040.5844,201.1563 Q1041.6469,200.6875 1043.0375,200.6875 Q1043.9438,200.6875 1044.85,200.9219 Q1045.7563,201.1406 1046.5844,201.5469 L1045.7563,203.6406 Q1045.0688,203.3125 1044.3813,203.0781 Q1043.6938,202.8281 1043.0375,202.8281 Z " fill="#000000"/><text fill="#000000" font-family="sans-serif" font-size="14" lengthAdjust="spacing" textLength="63" x="1058.9" y="211.8467">Comment</text><line style="stroke:#A9A9A9;stroke-width:0.5;" x1="1021" x2="1132" y1="223" y2="223"/><text fill="#000000" font-family="sans-serif" font-size="14" lengthAdjust="spacing" textLength="101" x="1026" y="239.9951">Boolean isJSDoc</text></g><!--class ParameterConcretization--><g id="elem_ParameterConcretization"><rect codeLine="99" fill="#CCFFFF" height="32" id="ParameterConcretization" rx="2.5" ry="2.5" style="stroke:#A9A9A9;stroke-width:0.5;" width="191" x="1483" y="99"/><ellipse cx="1498" cy="115" fill="#FFFFFF" rx="11" ry="11" style="stroke:#181818;stroke-width:1.0;"/><path d="M1497.9375,110.8281 Q1497.1875,110.8281 1496.625,111.125 Q1496.0625,111.4063 1495.6719,111.9375 Q1495.2813,112.4688 1495.0781,113.25 Q1494.8906,114.0156 1494.8906,114.9688 Q1494.8906,115.9375 1495.0625,116.7031 Q1495.25,117.4531 1495.6094,117.9688 Q1495.9844,118.4844 1496.5625,118.7656 Q1497.1406,119.0313 1497.9375,119.0313 Q1498.6719,119.0313 1499.4063,118.8594 Q1500.1563,118.6875 1501.0313,118.3906 L1501.0313,120.5469 Q1500.625,120.7031 1500.2344,120.8281 Q1499.8438,120.9375 1499.4375,121.0156 Q1499.0313,121.0938 1498.6094,121.125 Q1498.1875,121.1719 1497.6875,121.1719 Q1496.2813,121.1719 1495.25,120.7188 Q1494.2344,120.2656 1493.5625,119.4531 Q1492.8906,118.6406 1492.5625,117.5 Q1492.2344,116.3438 1492.2344,114.9531 Q1492.2344,113.5781 1492.6094,112.4219 Q1492.9844,111.2656 1493.7031,110.4375 Q1494.4219,109.6094 1495.4844,109.1563 Q1496.5469,108.6875 1497.9375,108.6875 Q1498.8438,108.6875 1499.75,108.9219 Q1500.6563,109.1406 1501.4844,109.5469 L1500.6563,111.6406 Q1499.9688,111.3125 1499.2813,111.0781 Q1498.5938,110.8281 1497.9375,110.8281 Z " fill="#000000"/><text fill="#000000" font-family="sans-serif" font-size="14" lengthAdjust="spacing" textLength="159" x="1512" y="119.8467">ParameterConcretization</text></g><!--class Parameter--><g id="elem_Parameter"><rect codeLine="101" fill="#CCFFFF" height="32" id="Parameter" rx="2.5" ry="2.5" style="stroke:#A9A9A9;stroke-width:0.5;" width="100" x="749.5" y="459.5"/><ellipse cx="764.5" cy="475.5" fill="#FFFFFF" rx="11" ry="11" style="stroke:#181818;stroke-width:1.0;"/><path d="M764.4375,471.3281 Q763.6875,471.3281 763.125,471.625 Q762.5625,471.9063 762.1719,472.4375 Q761.7813,472.9688 761.5781,473.75 Q761.3906,474.5156 761.3906,475.4688 Q761.3906,476.4375 761.5625,477.2031 Q761.75,477.9531 762.1094,478.4688 Q762.4844,478.9844 763.0625,479.2656 Q763.6406,479.5313 764.4375,479.5313 Q765.1719,479.5313 765.9063,479.3594 Q766.6563,479.1875 767.5313,478.8906 L767.5313,481.0469 Q767.125,481.2031 766.7344,481.3281 Q766.3438,481.4375 765.9375,481.5156 Q765.5313,481.5938 765.1094,481.625 Q764.6875,481.6719 764.1875,481.6719 Q762.7813,481.6719 761.75,481.2188 Q760.7344,480.7656 760.0625,479.9531 Q759.3906,479.1406 759.0625,478 Q758.7344,476.8438 758.7344,475.4531 Q758.7344,474.0781 759.1094,472.9219 Q759.4844,471.7656 760.2031,470.9375 Q760.9219,470.1094 761.9844,469.6563 Q763.0469,469.1875 764.4375,469.1875 Q765.3438,469.1875 766.25,469.4219 Q767.1563,469.6406 767.9844,470.0469 L767.1563,472.1406 Q766.4688,471.8125 765.7813,471.5781 Q765.0938,471.3281 764.4375,471.3281 Z " fill="#000000"/><text fill="#000000" font-family="sans-serif" font-size="14" lengthAdjust="spacing" textLength="68" x="778.5" y="480.3467">Parameter</text></g><!--class Property--><g id="elem_Property"><rect codeLine="103" fill="#CCFFFF" height="105.1875" id="Property" rx="2.5" ry="2.5" style="stroke:#A9A9A9;stroke-width:0.5;" width="197" x="885" y="423"/><ellipse cx="951.25" cy="439" fill="#FFFFFF" rx="11" ry="11" style="stroke:#181818;stroke-width:1.0;"/><path d="M951.1875,434.8281 Q950.4375,434.8281 949.875,435.125 Q949.3125,435.4063 948.9219,435.9375 Q948.5313,436.4688 948.3281,437.25 Q948.1406,438.0156 948.1406,438.9688 Q948.1406,439.9375 948.3125,440.7031 Q948.5,441.4531 948.8594,441.9688 Q949.2344,442.4844 949.8125,442.7656 Q950.3906,443.0313 951.1875,443.0313 Q951.9219,443.0313 952.6563,442.8594 Q953.4063,442.6875 954.2813,442.3906 L954.2813,444.5469 Q953.875,444.7031 953.4844,444.8281 Q953.0938,444.9375 952.6875,445.0156 Q952.2813,445.0938 951.8594,445.125 Q951.4375,445.1719 950.9375,445.1719 Q949.5313,445.1719 948.5,444.7188 Q947.4844,444.2656 946.8125,443.4531 Q946.1406,442.6406 945.8125,441.5 Q945.4844,440.3438 945.4844,438.9531 Q945.4844,437.5781 945.8594,436.4219 Q946.2344,435.2656 946.9531,434.4375 Q947.6719,433.6094 948.7344,433.1563 Q949.7969,432.6875 951.1875,432.6875 Q952.0938,432.6875 953,432.9219 Q953.9063,433.1406 954.7344,433.5469 L953.9063,435.6406 Q953.2188,435.3125 952.5313,435.0781 Q951.8438,434.8281 951.1875,434.8281 Z " fill="#000000"/><text fill="#000000" font-family="sans-serif" font-size="14" lengthAdjust="spacing" textLength="56" x="971.75" y="443.8467">Property</text><line style="stroke:#A9A9A9;stroke-width:0.5;" x1="886" x2="1081" y1="455" y2="455"/><text fill="#000000" font-family="sans-serif" font-size="14" lengthAdjust="spacing" textLength="120" x="891" y="471.9951">Boolean isOptional</text><text fill="#000000" font-family="sans-serif" font-size="14" lengthAdjust="spacing" textLength="114" x="891" y="488.292">Boolean readOnly</text><text fill="#000000" font-family="sans-serif" font-size="14" lengthAdjust="spacing" textLength="185" x="891" y="504.5889">Boolean isDefinitelyAssigned</text><text fill="#000000" font-family="sans-serif" font-size="14" lengthAdjust="spacing" textLength="172" x="891" y="520.8857">Boolean isJavaScriptPrivate</text></g><!--class ArrowFunction--><g id="elem_ArrowFunction"><rect codeLine="109" fill="#CCFFFF" height="32" id="ArrowFunction" rx="2.5" ry="2.5" style="stroke:#A9A9A9;stroke-width:0.5;" width="125" x="1716" y="588"/><ellipse cx="1731" cy="604" fill="#FFFFFF" rx="11" ry="11" style="stroke:#181818;stroke-width:1.0;"/><path d="M1730.9375,599.8281 Q1730.1875,599.8281 1729.625,600.125 Q1729.0625,600.4063 1728.6719,600.9375 Q1728.2813,601.4688 1728.0781,602.25 Q1727.8906,603.0156 1727.8906,603.9688 Q1727.8906,604.9375 1728.0625,605.7031 Q1728.25,606.4531 1728.6094,606.9688 Q1728.9844,607.4844 1729.5625,607.7656 Q1730.1406,608.0313 1730.9375,608.0313 Q1731.6719,608.0313 1732.4063,607.8594 Q1733.1563,607.6875 1734.0313,607.3906 L1734.0313,609.5469 Q1733.625,609.7031 1733.2344,609.8281 Q1732.8438,609.9375 1732.4375,610.0156 Q1732.0313,610.0938 1731.6094,610.125 Q1731.1875,610.1719 1730.6875,610.1719 Q1729.2813,610.1719 1728.25,609.7188 Q1727.2344,609.2656 1726.5625,608.4531 Q1725.8906,607.6406 1725.5625,606.5 Q1725.2344,605.3438 1725.2344,603.9531 Q1725.2344,602.5781 1725.6094,601.4219 Q1725.9844,600.2656 1726.7031,599.4375 Q1727.4219,598.6094 1728.4844,598.1563 Q1729.5469,597.6875 1730.9375,597.6875 Q1731.8438,597.6875 1732.75,597.9219 Q1733.6563,598.1406 1734.4844,598.5469 L1733.6563,600.6406 Q1732.9688,600.3125 1732.2813,600.0781 Q1731.5938,599.8281 1730.9375,599.8281 Z " fill="#000000"/><text fill="#000000" font-family="sans-serif" font-size="14" lengthAdjust="spacing" textLength="93" x="1745" y="608.8467">ArrowFunction</text></g><!--class ParametricFunction--><g id="elem_ParametricFunction"><rect codeLine="111" fill="#CCFFFF" height="32" id="ParametricFunction" rx="2.5" ry="2.5" style="stroke:#A9A9A9;stroke-width:0.5;" width="156" x="1336.5" y="680"/><ellipse cx="1351.5" cy="696" fill="#FFFFFF" rx="11" ry="11" style="stroke:#181818;stroke-width:1.0;"/><path d="M1351.4375,691.8281 Q1350.6875,691.8281 1350.125,692.125 Q1349.5625,692.4063 1349.1719,692.9375 Q1348.7813,693.4688 1348.5781,694.25 Q1348.3906,695.0156 1348.3906,695.9688 Q1348.3906,696.9375 1348.5625,697.7031 Q1348.75,698.4531 1349.1094,698.9688 Q1349.4844,699.4844 1350.0625,699.7656 Q1350.6406,700.0313 1351.4375,700.0313 Q1352.1719,700.0313 1352.9063,699.8594 Q1353.6563,699.6875 1354.5313,699.3906 L1354.5313,701.5469 Q1354.125,701.7031 1353.7344,701.8281 Q1353.3438,701.9375 1352.9375,702.0156 Q1352.5313,702.0938 1352.1094,702.125 Q1351.6875,702.1719 1351.1875,702.1719 Q1349.7813,702.1719 1348.75,701.7188 Q1347.7344,701.2656 1347.0625,700.4531 Q1346.3906,699.6406 1346.0625,698.5 Q1345.7344,697.3438 1345.7344,695.9531 Q1345.7344,694.5781 1346.1094,693.4219 Q1346.4844,692.2656 1347.2031,691.4375 Q1347.9219,690.6094 1348.9844,690.1563 Q1350.0469,689.6875 1351.4375,689.6875 Q1352.3438,689.6875 1353.25,689.9219 Q1354.1563,690.1406 1354.9844,690.5469 L1354.1563,692.6406 Q1353.4688,692.3125 1352.7813,692.0781 Q1352.0938,691.8281 1351.4375,691.8281 Z " fill="#000000"/><text fill="#000000" font-family="sans-serif" font-size="14" lengthAdjust="spacing" textLength="124" x="1365.5" y="700.8467">ParametricFunction</text></g><!--class JSDoc--><g id="elem_JSDoc"><rect codeLine="113" fill="#CCFFFF" height="32" id="JSDoc" rx="2.5" ry="2.5" style="stroke:#A9A9A9;stroke-width:0.5;" width="67" x="1168" y="203"/><ellipse cx="1183" cy="219" fill="#FFFFFF" rx="11" ry="11" style="stroke:#181818;stroke-width:1.0;"/><path d="M1182.9375,214.8281 Q1182.1875,214.8281 1181.625,215.125 Q1181.0625,215.4063 1180.6719,215.9375 Q1180.2813,216.4688 1180.0781,217.25 Q1179.8906,218.0156 1179.8906,218.9688 Q1179.8906,219.9375 1180.0625,220.7031 Q1180.25,221.4531 1180.6094,221.9688 Q1180.9844,222.4844 1181.5625,222.7656 Q1182.1406,223.0313 1182.9375,223.0313 Q1183.6719,223.0313 1184.4063,222.8594 Q1185.1563,222.6875 1186.0313,222.3906 L1186.0313,224.5469 Q1185.625,224.7031 1185.2344,224.8281 Q1184.8438,224.9375 1184.4375,225.0156 Q1184.0313,225.0938 1183.6094,225.125 Q1183.1875,225.1719 1182.6875,225.1719 Q1181.2813,225.1719 1180.25,224.7188 Q1179.2344,224.2656 1178.5625,223.4531 Q1177.8906,222.6406 1177.5625,221.5 Q1177.2344,220.3438 1177.2344,218.9531 Q1177.2344,217.5781 1177.6094,216.4219 Q1177.9844,215.2656 1178.7031,214.4375 Q1179.4219,213.6094 1180.4844,213.1563 Q1181.5469,212.6875 1182.9375,212.6875 Q1183.8438,212.6875 1184.75,212.9219 Q1185.6563,213.1406 1186.4844,213.5469 L1185.6563,215.6406 Q1184.9688,215.3125 1184.2813,215.0781 Q1183.5938,214.8281 1182.9375,214.8281 Z " fill="#000000"/><text fill="#000000" font-family="sans-serif" font-size="14" lengthAdjust="spacing" textLength="35" x="1197" y="223.8467">JSDoc</text></g><!--class ScopingEntity--><g id="elem_ScopingEntity"><rect codeLine="115" fill="#CCFFFF" height="32" id="ScopingEntity" rx="2.5" ry="2.5" style="stroke:#A9A9A9;stroke-width:0.5;" width="116" x="1889.5" y="459.5"/><ellipse cx="1904.5" cy="475.5" fill="#FFFFFF" rx="11" ry="11" style="stroke:#181818;stroke-width:1.0;"/><path d="M1904.4375,471.3281 Q1903.6875,471.3281 1903.125,471.625 Q1902.5625,471.9063 1902.1719,472.4375 Q1901.7813,472.9688 1901.5781,473.75 Q1901.3906,474.5156 1901.3906,475.4688 Q1901.3906,476.4375 1901.5625,477.2031 Q1901.75,477.9531 1902.1094,478.4688 Q1902.4844,478.9844 1903.0625,479.2656 Q1903.6406,479.5313 1904.4375,479.5313 Q1905.1719,479.5313 1905.9063,479.3594 Q1906.6563,479.1875 1907.5313,478.8906 L1907.5313,481.0469 Q1907.125,481.2031 1906.7344,481.3281 Q1906.3438,481.4375 1905.9375,481.5156 Q1905.5313,481.5938 1905.1094,481.625 Q1904.6875,481.6719 1904.1875,481.6719 Q1902.7813,481.6719 1901.75,481.2188 Q1900.7344,480.7656 1900.0625,479.9531 Q1899.3906,479.1406 1899.0625,478 Q1898.7344,476.8438 1898.7344,475.4531 Q1898.7344,474.0781 1899.1094,472.9219 Q1899.4844,471.7656 1900.2031,470.9375 Q1900.9219,470.1094 1901.9844,469.6563 Q1903.0469,469.1875 1904.4375,469.1875 Q1905.3438,469.1875 1906.25,469.4219 Q1907.1563,469.6406 1907.9844,470.0469 L1907.1563,472.1406 Q1906.4688,471.8125 1905.7813,471.5781 Q1905.0938,471.3281 1904.4375,471.3281 Z " fill="#000000"/><text fill="#000000" font-family="sans-serif" font-size="14" lengthAdjust="spacing" textLength="84" x="1918.5" y="480.3467">ScopingEntity</text></g><!--reverse link StructuralEntity to EnumValue--><g id="link_StructuralEntity_EnumValue"><path codeLine="117" d="M742.52,358.88 C704.66,374.96 654.39,397.99 612.5,423 C594.28,433.88 575.04,448.54 561.52,459.43 " fill="none" id="StructuralEntity-backto-EnumValue" style="stroke:#000000;stroke-width:1.0;"/><polygon fill="none" points="739.93,352.38,761.08,351.14,745.32,365.3,739.93,352.38" style="stroke:#000000;stroke-width:1.0;"/></g><!--reverse link Entity to Inheritance--><g id="link_Entity_Inheritance"><path codeLine="118" d="M770.11,27.94 C652.64,36.87 366.7,60.89 129.5,99 C123.86,99.91 117.98,100.97 112.14,102.11 " fill="none" id="Entity-backto-Inheritance" style="stroke:#000000;stroke-width:1.0;"/><polygon fill="none" points="769.88,20.94,790.34,26.43,770.92,34.9,769.88,20.94" style="stroke:#000000;stroke-width:1.0;"/></g><!--reverse link Entity to Implementation--><g id="link_Entity_Implementation"><path codeLine="119" d="M770.6,31.18 C675.67,43.95 472.5,71.83 301.5,99 C295.66,99.93 289.61,100.92 283.54,101.94 " fill="none" id="Entity-backto-Implementation" style="stroke:#000000;stroke-width:1.0;"/><polygon fill="none" points="769.73,24.24,790.49,28.51,771.6,38.11,769.73,24.24" style="stroke:#000000;stroke-width:1.0;"/></g><!--reverse link ScopingEntity to Namespace--><g id="link_ScopingEntity_Namespace"><path codeLine="120" d="M1947.5,511.77 C1947.5,536.7 1947.5,568.9 1947.5,587.62 " fill="none" id="ScopingEntity-backto-Namespace" style="stroke:#000000;stroke-width:1.0;"/><polygon fill="none" points="1940.5,511.51,1947.5,491.51,1954.5,511.51,1940.5,511.51" style="stroke:#000000;stroke-width:1.0;"/></g><!--reverse link Variable to implicitVariable--><g id="link_Variable_implicitVariable"><path codeLine="121" d="M666.98,511.39 C663.03,536.37 657.91,568.8 654.93,587.62 " fill="none" id="Variable-backto-implicitVariable" style="stroke:#000000;stroke-width:1.0;"/><polygon fill="none" points="660.09,510.17,670.13,491.51,673.92,512.36,660.09,510.17" style="stroke:#000000;stroke-width:1.0;"/></g><!--reverse link Method to ParametricMethod--><g id="link_Method_ParametricMethod"><path codeLine="122" d="M1603.5,640.61 C1603.5,654.31 1603.5,669.22 1603.5,679.96 " fill="none" id="Method-backto-ParametricMethod" style="stroke:#000000;stroke-width:1.0;"/><polygon fill="none" points="1596.5,640.27,1603.5,620.27,1610.5,640.27,1596.5,640.27" style="stroke:#000000;stroke-width:1.0;"/></g><!--reverse link ScopingEntity to ScriptEntity--><g id="link_ScopingEntity_ScriptEntity"><path codeLine="123" d="M1980.99,504.74 C2011.33,530.33 2054.91,567.08 2079.26,587.62 " fill="none" id="ScopingEntity-backto-ScriptEntity" style="stroke:#000000;stroke-width:1.0;"/><polygon fill="none" points="1976.07,509.75,1965.3,491.51,1985.1,499.05,1976.07,509.75" style="stroke:#000000;stroke-width:1.0;"/></g><!--reverse link Entity to Reference--><g id="link_Entity_Reference"><path codeLine="124" d="M770.5,33.76 C694.96,47.55 553.52,73.86 433.5,99 C427.86,100.18 421.97,101.46 416.12,102.75 " fill="none" id="Entity-backto-Reference" style="stroke:#000000;stroke-width:1.0;"/><polygon fill="none" points="769.5,26.83,790.43,30.13,772,40.6,769.5,26.83" style="stroke:#000000;stroke-width:1.0;"/></g><!--reverse link ScriptEntity to Module--><g id="link_ScriptEntity_Module"><path codeLine="125" d="M2101.06,640.61 C2102.43,654.31 2103.92,669.22 2105,679.96 " fill="none" id="ScriptEntity-backto-Module" style="stroke:#000000;stroke-width:1.0;"/><polygon fill="none" points="2094.05,640.86,2099.03,620.27,2107.98,639.47,2094.05,640.86" style="stroke:#000000;stroke-width:1.0;"/></g><!--reverse link ContainerEntity to Type--><g id="link_ContainerEntity_Type"><path codeLine="126" d="M1399.04,358.83 C1359.4,375.58 1305.06,399.42 1258.5,423 C1236.02,434.39 1211.21,448.72 1193.34,459.37 " fill="none" id="ContainerEntity-backto-Type" style="stroke:#000000;stroke-width:1.0;"/><polygon fill="none" points="1396.34,352.37,1417.49,351.1,1401.75,365.28,1396.34,352.37" style="stroke:#000000;stroke-width:1.0;"/></g><!--reverse link StructuralEntity to Variable--><g id="link_StructuralEntity_Variable"><path codeLine="127" d="M772.14,365.84 C745.73,394.64 706.82,437.07 686.32,459.43 " fill="none" id="StructuralEntity-backto-Variable" style="stroke:#000000;stroke-width:1.0;"/><polygon fill="none" points="766.99,361.1,785.67,351.09,777.31,370.56,766.99,361.1" style="stroke:#000000;stroke-width:1.0;"/></g><!--reverse link NamedEntity to StructuralEntity--><g id="link_NamedEntity_StructuralEntity"><path codeLine="128" d="M895.56,248.45 C870.53,270.74 836.68,300.88 816.57,318.8 " fill="none" id="NamedEntity-backto-StructuralEntity" style="stroke:#000000;stroke-width:1.0;"/><polygon fill="none" points="890.91,243.21,910.5,235.14,900.22,253.67,890.91,243.21" style="stroke:#000000;stroke-width:1.0;"/></g><!--reverse link NamedEntity to ContainerEntity--><g id="link_NamedEntity_ContainerEntity"><path codeLine="129" d="M984.79,241.65 C990.73,243.59 996.71,245.41 1002.5,247 C1138.13,284.22 1300.91,311.39 1389.4,324.73 " fill="none" id="NamedEntity-backto-ContainerEntity" style="stroke:#000000;stroke-width:1.0;"/><polygon fill="none" points="982.29,248.19,965.67,235.04,986.86,234.96,982.29,248.19" style="stroke:#000000;stroke-width:1.0;"/></g><!--reverse link Type to Enum--><g id="link_Type_Enum"><path codeLine="130" d="M1136.76,504.51 C1125.61,513.14 1112.59,521.94 1099.5,528 C991.49,578 953.65,557.86 838.5,588 C833.05,589.43 827.31,591.02 821.71,592.63 " fill="none" id="Type-backto-Enum" style="stroke:#000000;stroke-width:1.0;"/><polygon fill="none" points="1132.59,498.87,1152.47,491.54,1141.51,509.67,1132.59,498.87" style="stroke:#000000;stroke-width:1.0;"/></g><!--reverse link NamedEntity to File--><g id="link_NamedEntity_File"><path codeLine="131" d="M927.5,255.6 C927.5,276.88 927.5,302.82 927.5,318.87 " fill="none" id="NamedEntity-backto-File" style="stroke:#000000;stroke-width:1.0;"/><polygon fill="none" points="920.5,255.37,927.5,235.37,934.5,255.37,920.5,255.37" style="stroke:#000000;stroke-width:1.0;"/></g><!--reverse link Entity to SourceAnchor--><g id="link_Entity_SourceAnchor"><path codeLine="132" d="M771.08,39.36 C713.12,56.03 621.19,82.46 563.71,98.99 " fill="none" id="Entity-backto-SourceAnchor" style="stroke:#000000;stroke-width:1.0;"/><polygon fill="none" points="769.25,32.6,790.41,33.8,773.12,46.06,769.25,32.6" style="stroke:#000000;stroke-width:1.0;"/></g><!--reverse link Type to ParameterType--><g id="link_Type_ParameterType"><path codeLine="133" d="M1135.17,503.92 C1124.19,512.25 1111.67,521.03 1099.5,528 C1055.85,552.99 1002.24,574.45 965.33,587.93 " fill="none" id="Type-backto-ParameterType" style="stroke:#000000;stroke-width:1.0;"/><polygon fill="none" points="1130.84,498.42,1150.88,491.54,1139.51,509.42,1130.84,498.42" style="stroke:#000000;stroke-width:1.0;"/></g><!--reverse link ContainerEntity to BehaviouralEntity--><g id="link_ContainerEntity_BehaviouralEntity"><path codeLine="134" d="M1476.76,367.46 C1497.1,396.21 1526.31,437.49 1541.84,459.43 " fill="none" id="ContainerEntity-backto-BehaviouralEntity" style="stroke:#000000;stroke-width:1.0;"/><polygon fill="none" points="1471.01,371.46,1465.17,351.09,1482.44,363.37,1471.01,371.46" style="stroke:#000000;stroke-width:1.0;"/></g><!--reverse link SourceAnchor to IndexedFileAnchor--><g id="link_SourceAnchor_IndexedFileAnchor"><path codeLine="135" d="M484.46,145.98 C467.59,164.68 446.6,187.95 433.13,202.89 " fill="none" id="SourceAnchor-backto-IndexedFileAnchor" style="stroke:#000000;stroke-width:1.0;"/><polygon fill="none" points="479.33,141.21,497.93,131.05,489.73,150.59,479.33,141.21" style="stroke:#000000;stroke-width:1.0;"/></g><!--reverse link Class to ParametricClass--><g id="link_Class_ParametricClass"><path codeLine="136" d="M1302.48,633.81 C1285.43,649.16 1265.16,667.41 1251.21,679.96 " fill="none" id="Class-backto-ParametricClass" style="stroke:#000000;stroke-width:1.0;"/><polygon fill="none" points="1297.99,628.44,1317.54,620.27,1307.35,638.85,1297.99,628.44" style="stroke:#000000;stroke-width:1.0;"/></g><!--reverse link ArrowFunction to ParametricArrowFunction--><g id="link_ArrowFunction_ParametricArrowFunction"><path codeLine="137" d="M1822.12,630.33 C1849.62,646.29 1884.2,666.37 1907.47,679.89 " fill="none" id="ArrowFunction-backto-ParametricArrowFunction" style="stroke:#000000;stroke-width:1.0;"/><polygon fill="none" points="1818.22,636.16,1804.44,620.06,1825.25,624.05,1818.22,636.16" style="stroke:#000000;stroke-width:1.0;"/></g><!--reverse link Type to Interface--><g id="link_Type_Interface"><path codeLine="138" d="M1143.69,507.27 C1123.18,532.71 1094.92,567.75 1078.9,587.62 " fill="none" id="Type-backto-Interface" style="stroke:#000000;stroke-width:1.0;"/><polygon fill="none" points="1138.4,502.68,1156.4,491.51,1149.29,511.47,1138.4,502.68" style="stroke:#000000;stroke-width:1.0;"/></g><!--reverse link Entity to SourceLanguage--><g id="link_Entity_SourceLanguage"><path codeLine="139" d="M782,49.33 C755.22,65.29 721.53,85.37 698.86,98.89 " fill="none" id="Entity-backto-SourceLanguage" style="stroke:#000000;stroke-width:1.0;"/><polygon fill="none" points="778.46,43.29,799.23,39.06,785.63,55.32,778.46,43.29" style="stroke:#000000;stroke-width:1.0;"/></g><!--reverse link Entity to Invocation--><g id="link_Entity_Invocation"><path codeLine="140" d="M824.5,59.61 C824.5,73.31 824.5,88.22 824.5,98.96 " fill="none" id="Entity-backto-Invocation" style="stroke:#000000;stroke-width:1.0;"/><polygon fill="none" points="817.5,59.27,824.5,39.27,831.5,59.27,817.5,59.27" style="stroke:#000000;stroke-width:1.0;"/></g><!--reverse link Type to PrimitiveType--><g id="link_Type_PrimitiveType"><path codeLine="141" d="M1179.02,510.63 C1186.75,535.71 1196.9,568.61 1202.76,587.62 " fill="none" id="Type-backto-PrimitiveType" style="stroke:#000000;stroke-width:1.0;"/><polygon fill="none" points="1172.33,512.68,1173.13,491.51,1185.71,508.56,1172.33,512.68" style="stroke:#000000;stroke-width:1.0;"/></g><!--reverse link Entity to Access--><g id="link_Entity_Access"><path codeLine="142" d="M861.05,51.19 C882.08,66.83 907.71,85.89 925.18,98.89 " fill="none" id="Entity-backto-Access" style="stroke:#000000;stroke-width:1.0;"/><polygon fill="none" points="856.62,56.62,844.75,39.06,864.98,45.38,856.62,56.62" style="stroke:#000000;stroke-width:1.0;"/></g><!--reverse link NamedEntity to Decorator--><g id="link_NamedEntity_Decorator"><path codeLine="143" d="M861.59,241.94 C811.62,260.46 743.93,287.07 696.11,306.92 " fill="none" id="NamedEntity-backto-Decorator" style="stroke:#000000;stroke-width:1.0;"/><polygon fill="none" points="859.27,235.33,880.46,235.02,864.09,248.48,859.27,235.33" style="stroke:#000000;stroke-width:1.0;"/></g><!--link Decorator to NamedEntity--><g id="link_Decorator_NamedEntity"><path codeLine="167" d="M699.61,314.05 C761.04,291.51 852.45,255.31 898.91,235.02 " fill="none" id="Decorator-NamedEntity" style="stroke:#000000;stroke-width:1.0;"/><text fill="#000000" font-family="sans-serif" font-size="13" lengthAdjust="spacing" textLength="71" x="707.4019" y="302.7726">decorators*</text><text fill="#000000" font-family="sans-serif" font-size="13" lengthAdjust="spacing" textLength="92" x="781.2697" y="255.1947">decoratedEntity</text></g><!--reverse link Entity to SourcedEntity--><g id="link_Entity_SourcedEntity"><path codeLine="144" d="M877.68,42.99 C924.35,59.66 991.3,83.57 1034.34,98.94 " fill="none" id="Entity-backto-SourcedEntity" style="stroke:#000000;stroke-width:1.0;"/><polygon fill="none" points="875.23,49.55,858.75,36.23,879.94,36.37,875.23,49.55" style="stroke:#000000;stroke-width:1.0;"/></g><!--reverse link NamedEntity to Folder--><g id="link_NamedEntity_Folder"><path codeLine="145" d="M954.1,250.63 C973.27,272.7 998.31,301.54 1013.36,318.87 " fill="none" id="NamedEntity-backto-Folder" style="stroke:#000000;stroke-width:1.0;"/><polygon fill="none" points="948.68,255.07,940.85,235.37,959.25,245.89,948.68,255.07" style="stroke:#000000;stroke-width:1.0;"/></g><!--reverse link BehaviouralEntity to Function--><g id="link_BehaviouralEntity_Function"><path codeLine="146" d="M1532.09,508.38 C1515.87,533.71 1493.89,568.04 1481.35,587.62 " fill="none" id="BehaviouralEntity-backto-Function" style="stroke:#000000;stroke-width:1.0;"/><polygon fill="none" points="1526.21,504.58,1542.89,491.51,1538,512.13,1526.21,504.58" style="stroke:#000000;stroke-width:1.0;"/></g><!--reverse link Type to Class--><g id="link_Type_Class"><path codeLine="147" d="M1204.21,503.71 C1237.94,529.42 1287.31,567.04 1314.57,587.81 " fill="none" id="Type-backto-Class" style="stroke:#000000;stroke-width:1.0;"/><polygon fill="none" points="1199.86,509.2,1188.19,491.51,1208.34,498.06,1199.86,509.2" style="stroke:#000000;stroke-width:1.0;"/></g><!--reverse link SourcedEntity to NamedEntity--><g id="link_SourcedEntity_NamedEntity"><path codeLine="148" d="M1037.99,142.36 C1009.9,161.59 972.83,186.97 949.58,202.89 " fill="none" id="SourcedEntity-backto-NamedEntity" style="stroke:#000000;stroke-width:1.0;"/><polygon fill="none" points="1034.06,136.57,1054.51,131.05,1041.97,148.12,1034.06,136.57" style="stroke:#000000;stroke-width:1.0;"/></g><!--reverse link Interface to ParametricInterface--><g id="link_Interface_ParametricInterface"><path codeLine="149" d="M1061.04,640.12 C1058.89,653.95 1056.53,669.09 1054.84,679.96 " fill="none" id="Interface-backto-ParametricInterface" style="stroke:#000000;stroke-width:1.0;"/><polygon fill="none" points="1054.13,638.95,1064.13,620.27,1067.97,641.11,1054.13,638.95" style="stroke:#000000;stroke-width:1.0;"/></g><!--reverse link Entity to ImportClause--><g id="link_Entity_ImportClause"><path codeLine="150" d="M878.46,35.96 C954.46,52.81 1092.55,83.42 1171.3,100.88 " fill="none" id="Entity-backto-ImportClause" style="stroke:#000000;stroke-width:1.0;"/><polygon fill="none" points="876.78,42.76,858.77,31.6,879.81,29.09,876.78,42.76" style="stroke:#000000;stroke-width:1.0;"/></g><!--reverse link NamedEntity to Alias--><g id="link_NamedEntity_Alias"><path codeLine="151" d="M971.87,245.04 C1011.93,267.65 1069.54,300.16 1102.89,318.98 " fill="none" id="NamedEntity-backto-Alias" style="stroke:#000000;stroke-width:1.0;"/><polygon fill="none" points="968.3,251.06,954.32,235.14,975.18,238.87,968.3,251.06" style="stroke:#000000;stroke-width:1.0;"/></g><!--reverse link Method to Accessor--><g id="link_Method_Accessor"><path codeLine="152" d="M1646.84,630.33 C1674.16,646.29 1708.52,666.37 1731.64,679.89 " fill="none" id="Method-backto-Accessor" style="stroke:#000000;stroke-width:1.0;"/><polygon fill="none" points="1643.01,636.2,1629.28,620.06,1650.08,624.11,1643.01,636.2" style="stroke:#000000;stroke-width:1.0;"/></g><!--reverse link SourceAnchor to SourceTextAnchor--><g id="link_SourceAnchor_SourceTextAnchor"><path codeLine="153" d="M538.84,145.98 C555.89,164.68 577.1,187.95 590.72,202.89 " fill="none" id="SourceAnchor-backto-SourceTextAnchor" style="stroke:#000000;stroke-width:1.0;"/><polygon fill="none" points="533.52,150.55,525.22,131.05,543.87,141.11,533.52,150.55" style="stroke:#000000;stroke-width:1.0;"/></g><!--reverse link Entity to Concretization--><g id="link_Entity_Concretization"><path codeLine="154" d="M878.58,31.86 C967.84,44.95 1151.54,72.42 1306.5,99 C1312.49,100.03 1318.72,101.13 1324.95,102.26 " fill="none" id="Entity-backto-Concretization" style="stroke:#000000;stroke-width:1.0;"/><polygon fill="none" points="877.52,38.78,858.75,28.96,879.55,24.92,877.52,38.78" style="stroke:#000000;stroke-width:1.0;"/></g><!--reverse link BehaviouralEntity to Method--><g id="link_BehaviouralEntity_Method"><path codeLine="155" d="M1566.11,510.25 C1576.24,535.38 1589.6,568.51 1597.3,587.62 " fill="none" id="BehaviouralEntity-backto-Method" style="stroke:#000000;stroke-width:1.0;"/><polygon fill="none" points="1559.54,512.67,1558.55,491.51,1572.52,507.44,1559.54,512.67" style="stroke:#000000;stroke-width:1.0;"/></g><!--reverse link Entity to ParameterConcretization--><g id="link_Entity_ParameterConcretization"><path codeLine="156" d="M878.61,30.05 C989.02,42.44 1248.18,71.86 1465.5,99 C1471.19,99.71 1477.05,100.45 1482.95,101.21 " fill="none" id="Entity-backto-ParameterConcretization" style="stroke:#000000;stroke-width:1.0;"/><polygon fill="none" points="877.67,36.98,858.57,27.8,879.23,23.07,877.67,36.98" style="stroke:#000000;stroke-width:1.0;"/></g><!--reverse link StructuralEntity to Parameter--><g id="link_StructuralEntity_Parameter"><path codeLine="157" d="M799.5,371.21 C799.5,399.7 799.5,438.42 799.5,459.43 " fill="none" id="StructuralEntity-backto-Parameter" style="stroke:#000000;stroke-width:1.0;"/><polygon fill="none" points="792.5,371.09,799.5,351.09,806.5,371.09,792.5,371.09" style="stroke:#000000;stroke-width:1.0;"/></g><!--reverse link BehaviouralEntity to ArrowFunction--><g id="link_BehaviouralEntity_ArrowFunction"><path codeLine="158" d="M1597.07,501.44 C1643.01,527.16 1713.15,566.42 1751.37,587.81 " fill="none" id="BehaviouralEntity-backto-ArrowFunction" style="stroke:#000000;stroke-width:1.0;"/><polygon fill="none" points="1593.35,507.38,1579.31,491.51,1600.18,495.17,1593.35,507.38" style="stroke:#000000;stroke-width:1.0;"/></g><!--reverse link SourcedEntity to Comment--><g id="link_SourcedEntity_Comment"><path codeLine="159" d="M1076.5,151.4 C1076.5,164.38 1076.5,178.86 1076.5,190.99 " fill="none" id="SourcedEntity-backto-Comment" style="stroke:#000000;stroke-width:1.0;"/><polygon fill="none" points="1069.5,151.05,1076.5,131.05,1083.5,151.05,1069.5,151.05" style="stroke:#000000;stroke-width:1.0;"/></g><!--reverse link StructuralEntity to Property--><g id="link_StructuralEntity_Property"><path codeLine="160" d="M835.55,363.14 C858.12,380.12 887.92,402.55 914.86,422.83 " fill="none" id="StructuralEntity-backto-Property" style="stroke:#000000;stroke-width:1.0;"/><polygon fill="none" points="831.31,368.71,819.54,351.09,839.73,357.52,831.31,368.71" style="stroke:#000000;stroke-width:1.0;"/></g><!--reverse link Function to ParametricFunction--><g id="link_Function_ParametricFunction"><path codeLine="161" d="M1451.12,637.18 C1441.88,651.77 1431.4,668.31 1424.03,679.96 " fill="none" id="Function-backto-ParametricFunction" style="stroke:#000000;stroke-width:1.0;"/><polygon fill="none" points="1445.22,633.42,1461.83,620.27,1457.04,640.91,1445.22,633.42" style="stroke:#000000;stroke-width:1.0;"/></g><!--reverse link SourcedEntity to JSDoc--><g id="link_SourcedEntity_JSDoc"><path codeLine="162" d="M1110.49,143.74 C1133.84,162.79 1163.93,187.35 1182.98,202.89 " fill="none" id="SourcedEntity-backto-JSDoc" style="stroke:#000000;stroke-width:1.0;"/><polygon fill="none" points="1106.01,149.12,1094.94,131.05,1114.87,138.27,1106.01,149.12" style="stroke:#000000;stroke-width:1.0;"/></g><!--reverse link ContainerEntity to ScopingEntity--><g id="link_ContainerEntity_ScopingEntity"><path codeLine="163" d="M1527.74,356.58 C1627.88,384.71 1805.19,434.52 1893.87,459.43 " fill="none" id="ContainerEntity-backto-ScopingEntity" style="stroke:#000000;stroke-width:1.0;"/><polygon fill="none" points="1525.56,363.23,1508.2,351.09,1529.35,349.76,1525.56,363.23" style="stroke:#000000;stroke-width:1.0;"/></g><!--reverse link TEntityCreator to FamixTypeScriptModel--><g id="link_TEntityCreator_FamixTypeScriptModel"><path codeLine="164" d="M1797.5,59.61 C1797.5,73.31 1797.5,88.22 1797.5,98.96 " fill="none" id="TEntityCreator-backto-FamixTypeScriptModel" style="stroke:#000000;stroke-width:1.0;stroke-dasharray:7.0,7.0;"/><polygon fill="none" points="1790.5,59.27,1797.5,39.27,1804.5,59.27,1790.5,59.27" style="stroke:#000000;stroke-width:1.0;"/></g><!--reverse link TWithInterfaces to ContainerEntity--><g id="link_TWithInterfaces_ContainerEntity"><path codeLine="165" d="M1454.5,255.6 C1454.5,276.88 1454.5,302.82 1454.5,318.87 " fill="none" id="TWithInterfaces-backto-ContainerEntity" style="stroke:#000000;stroke-width:1.0;stroke-dasharray:7.0,7.0;"/><polygon fill="none" points="1447.5,255.37,1454.5,235.37,1461.5,255.37,1447.5,255.37" style="stroke:#000000;stroke-width:1.0;"/></g><!--reverse link TClassMetrics to Class--><g id="link_TClassMetrics_Class"><path codeLine="166" d="M1334.5,511.77 C1334.5,536.7 1334.5,568.9 1334.5,587.62 " fill="none" id="TClassMetrics-backto-Class" style="stroke:#000000;stroke-width:1.0;stroke-dasharray:7.0,7.0;"/><polygon fill="none" points="1327.5,511.51,1334.5,491.51,1341.5,511.51,1327.5,511.51" style="stroke:#000000;stroke-width:1.0;"/></g><!--SRC=[bLVRJjmm47ttLqJqfQqANu2GbW3LLgMWicgVZJDiB18xSfnbjwN_NbysMJkNpInFO9_OC-CpSmuvpo21ijAxf8Jo6LHDwbSkAgfecR22rdNoboJ9DMMlQoKRaQMoa2fvoxa6ixvGIhxvfUV2O2nKgWoKNykeUlsgw8xy8_wifSX1SKq5W-JoycFwnHtqwUeg-P2cT-R7tDPYRqLJ_g95CuzSbbK19GXDDPTY5iuDd3EkVr75wNCnV_wZhGPenTazw5ncin_yCF2weeWadvZYbRuLcfiNc0F_X1TGWAdTlSmQH6AhNJKFGfS9cSKTBVdMtknpDw52CLydhHgc6qKBv2sfD7JW0XGIRzas7pf7bE59Deh1Gh3ST02IMg1GJx4K6MmXis4Wpx-6d6wuFA5m1xAdxkzP3ZdOlVl2eLUuqztek6i4G_NiKfWQlQ0wofN_EnNhXgun9Tr8XfiRZugNNFCDeDvgmHWWodS3J2ggZpnbOidFnJg1RQNCaIRKNh8PjlDaOKRpF0pxA4Y2-EXI1MsQgxdPcPtCLJm_Z5X8fKteJOqbqmgs6jbl_jKnm8BJ6ZF5c0BD_-0OYfIdrM-kywvYyqsRojAgwn66NajP01K9hxyztKWs76yd9j9zXsXAMO4wmfKmk8VAtawBOD6mCdiGnIx2tS0B5-QaOhSm_ROMaCKvqWtrucL6meOQ9zIzwab3xK1Vz2Ukl0XN8IipCMQxQAYgx-Vd1-D5mjN0kiNhaVaYlQijedD3v60bx7hVXv6MldQpxxd63WxDKnHJPvH8xA_idhT6PE0Fx9uTx1D5wOACvfEBeeSV8dft4QyVRQc7UAllKJwXfGY-Zip3U4O3_IUnFV4lstCLP3_OutTmYwJ7y1WIRGQ1ThDc9AjMgNjaQrKvJ3VKtmZkf-wma9suZjoRJRsMLqaoufpSxZ0xNvYU5BV4Rwy912gksNXjGfKQXkZ48sgNLdT6dhUlOQH7pM0kJoMzRy5mQMAoJtHFXvww8MREI2tt6ZHr_bu5o1GpZntj9MkqVQAXG_fEvltYOlI_6J8GM8iSJ87OE3k8OzB14fvbxQ_rvxF4nDCkj0cSXHpx3m00]--></g></svg>