<?xml version="1.0" encoding="us-ascii" standalone="no"?><svg xmlns="http://www.w3.org/2000/svg" xmlns:xlink="http://www.w3.org/1999/xlink" contentStyleType="text/css" height="622px" preserveAspectRatio="none" style="width:3373px;height:622px;background:#FFFFFF;" version="1.1" viewBox="0 0 3373 622" width="3373px" zoomAndPan="magnify"><defs/><g><!--class TWithInterfaces--><g id="elem_TWithInterfaces"><rect codeLine="7" fill="#CCFFFF" height="32" id="TWithInterfaces" rx="2.5" ry="2.5" style="stroke:#A9A9A9;stroke-width:0.5;" width="132" x="641" y="191"/><ellipse cx="656" cy="207" fill="#FFFFFF" rx="11" ry="11" style="stroke:#181818;stroke-width:1.0;"/><path d="M657.4531,213.75 L654.8906,213.75 L654.8906,203.75 L651.8438,203.75 L651.8438,201.6094 L660.4844,201.6094 L660.4844,203.75 L657.4531,203.75 L657.4531,213.75 Z " fill="#000000"/><text fill="#000000" font-family="sans-serif" font-size="14" lengthAdjust="spacing" textLength="100" x="670" y="211.8467">TWithInterfaces</text></g><!--class TEntityCreator--><g id="elem_TEntityCreator"><rect codeLine="9" fill="#CCFFFF" height="32" id="TEntityCreator" rx="2.5" ry="2.5" style="stroke:#A9A9A9;stroke-width:0.5;" width="123" x="3216.5" y="7"/><ellipse cx="3231.5" cy="23" fill="#FFFFFF" rx="11" ry="11" style="stroke:#181818;stroke-width:1.0;"/><path d="M3232.9531,29.75 L3230.3906,29.75 L3230.3906,19.75 L3227.3438,19.75 L3227.3438,17.6094 L3235.9844,17.6094 L3235.9844,19.75 L3232.9531,19.75 L3232.9531,29.75 Z " fill="#000000"/><text fill="#000000" font-family="sans-serif" font-size="14" lengthAdjust="spacing" textLength="91" x="3245.5" y="27.8467">TEntityCreator</text></g><!--class ParametricClass--><g id="elem_ParametricClass"><rect codeLine="11" fill="#CCFFFF" height="32" id="ParametricClass" rx="2.5" ry="2.5" style="stroke:#A9A9A9;stroke-width:0.5;" width="133" x="1270.5" y="583"/><ellipse cx="1285.5" cy="599" fill="#FFFFFF" rx="11" ry="11" style="stroke:#181818;stroke-width:1.0;"/><path d="M1285.4375,594.8281 Q1284.6875,594.8281 1284.125,595.125 Q1283.5625,595.4063 1283.1719,595.9375 Q1282.7813,596.4688 1282.5781,597.25 Q1282.3906,598.0156 1282.3906,598.9688 Q1282.3906,599.9375 1282.5625,600.7031 Q1282.75,601.4531 1283.1094,601.9688 Q1283.4844,602.4844 1284.0625,602.7656 Q1284.6406,603.0313 1285.4375,603.0313 Q1286.1719,603.0313 1286.9063,602.8594 Q1287.6563,602.6875 1288.5313,602.3906 L1288.5313,604.5469 Q1288.125,604.7031 1287.7344,604.8281 Q1287.3438,604.9375 1286.9375,605.0156 Q1286.5313,605.0938 1286.1094,605.125 Q1285.6875,605.1719 1285.1875,605.1719 Q1283.7813,605.1719 1282.75,604.7188 Q1281.7344,604.2656 1281.0625,603.4531 Q1280.3906,602.6406 1280.0625,601.5 Q1279.7344,600.3438 1279.7344,598.9531 Q1279.7344,597.5781 1280.1094,596.4219 Q1280.4844,595.2656 1281.2031,594.4375 Q1281.9219,593.6094 1282.9844,593.1563 Q1284.0469,592.6875 1285.4375,592.6875 Q1286.3438,592.6875 1287.25,592.9219 Q1288.1563,593.1406 1288.9844,593.5469 L1288.1563,595.6406 Q1287.4688,595.3125 1286.7813,595.0781 Q1286.0938,594.8281 1285.4375,594.8281 Z " fill="#000000"/><text fill="#000000" font-family="sans-serif" font-size="14" lengthAdjust="spacing" textLength="101" x="1299.5" y="603.8467">ParametricClass</text></g><!--class IndexedFileAnchor--><g id="elem_IndexedFileAnchor"><rect codeLine="13" fill="#CCFFFF" height="32" id="IndexedFileAnchor" rx="2.5" ry="2.5" style="stroke:#A9A9A9;stroke-width:0.5;" width="152" x="2045" y="191"/><ellipse cx="2060" cy="207" fill="#FFFFFF" rx="11" ry="11" style="stroke:#181818;stroke-width:1.0;"/><path d="M2059.9375,202.8281 Q2059.1875,202.8281 2058.625,203.125 Q2058.0625,203.4063 2057.6719,203.9375 Q2057.2813,204.4688 2057.0781,205.25 Q2056.8906,206.0156 2056.8906,206.9688 Q2056.8906,207.9375 2057.0625,208.7031 Q2057.25,209.4531 2057.6094,209.9688 Q2057.9844,210.4844 2058.5625,210.7656 Q2059.1406,211.0313 2059.9375,211.0313 Q2060.6719,211.0313 2061.4063,210.8594 Q2062.1563,210.6875 2063.0313,210.3906 L2063.0313,212.5469 Q2062.625,212.7031 2062.2344,212.8281 Q2061.8438,212.9375 2061.4375,213.0156 Q2061.0313,213.0938 2060.6094,213.125 Q2060.1875,213.1719 2059.6875,213.1719 Q2058.2813,213.1719 2057.25,212.7188 Q2056.2344,212.2656 2055.5625,211.4531 Q2054.8906,210.6406 2054.5625,209.5 Q2054.2344,208.3438 2054.2344,206.9531 Q2054.2344,205.5781 2054.6094,204.4219 Q2054.9844,203.2656 2055.7031,202.4375 Q2056.4219,201.6094 2057.4844,201.1563 Q2058.5469,200.6875 2059.9375,200.6875 Q2060.8438,200.6875 2061.75,200.9219 Q2062.6563,201.1406 2063.4844,201.5469 L2062.6563,203.6406 Q2061.9688,203.3125 2061.2813,203.0781 Q2060.5938,202.8281 2059.9375,202.8281 Z " fill="#000000"/><text fill="#000000" font-family="sans-serif" font-size="14" lengthAdjust="spacing" textLength="120" x="2074" y="211.8467">IndexedFileAnchor</text></g><!--class ContainerEntity--><g id="elem_ContainerEntity"><rect codeLine="15" fill="#CCFFFF" height="32" id="ContainerEntity" rx="2.5" ry="2.5" style="stroke:#A9A9A9;stroke-width:0.5;" width="130" x="642" y="295"/><ellipse cx="657" cy="311" fill="#FFFFFF" rx="11" ry="11" style="stroke:#181818;stroke-width:1.0;"/><path d="M656.9375,306.8281 Q656.1875,306.8281 655.625,307.125 Q655.0625,307.4063 654.6719,307.9375 Q654.2813,308.4688 654.0781,309.25 Q653.8906,310.0156 653.8906,310.9688 Q653.8906,311.9375 654.0625,312.7031 Q654.25,313.4531 654.6094,313.9688 Q654.9844,314.4844 655.5625,314.7656 Q656.1406,315.0313 656.9375,315.0313 Q657.6719,315.0313 658.4063,314.8594 Q659.1563,314.6875 660.0313,314.3906 L660.0313,316.5469 Q659.625,316.7031 659.2344,316.8281 Q658.8438,316.9375 658.4375,317.0156 Q658.0313,317.0938 657.6094,317.125 Q657.1875,317.1719 656.6875,317.1719 Q655.2813,317.1719 654.25,316.7188 Q653.2344,316.2656 652.5625,315.4531 Q651.8906,314.6406 651.5625,313.5 Q651.2344,312.3438 651.2344,310.9531 Q651.2344,309.5781 651.6094,308.4219 Q651.9844,307.2656 652.7031,306.4375 Q653.4219,305.6094 654.4844,305.1563 Q655.5469,304.6875 656.9375,304.6875 Q657.8438,304.6875 658.75,304.9219 Q659.6563,305.1406 660.4844,305.5469 L659.6563,307.6406 Q658.9688,307.3125 658.2813,307.0781 Q657.5938,306.8281 656.9375,306.8281 Z " fill="#000000"/><text fill="#000000" font-family="sans-serif" font-size="14" lengthAdjust="spacing" textLength="98" x="671" y="315.8467">ContainerEntity</text></g><!--class SourceLanguage--><g id="elem_SourceLanguage"><rect codeLine="17" fill="#CCFFFF" height="32" id="SourceLanguage" rx="2.5" ry="2.5" style="stroke:#A9A9A9;stroke-width:0.5;" width="134" x="1489" y="99"/><ellipse cx="1504" cy="115" fill="#FFFFFF" rx="11" ry="11" style="stroke:#181818;stroke-width:1.0;"/><path d="M1503.9375,110.8281 Q1503.1875,110.8281 1502.625,111.125 Q1502.0625,111.4063 1501.6719,111.9375 Q1501.2813,112.4688 1501.0781,113.25 Q1500.8906,114.0156 1500.8906,114.9688 Q1500.8906,115.9375 1501.0625,116.7031 Q1501.25,117.4531 1501.6094,117.9688 Q1501.9844,118.4844 1502.5625,118.7656 Q1503.1406,119.0313 1503.9375,119.0313 Q1504.6719,119.0313 1505.4063,118.8594 Q1506.1563,118.6875 1507.0313,118.3906 L1507.0313,120.5469 Q1506.625,120.7031 1506.2344,120.8281 Q1505.8438,120.9375 1505.4375,121.0156 Q1505.0313,121.0938 1504.6094,121.125 Q1504.1875,121.1719 1503.6875,121.1719 Q1502.2813,121.1719 1501.25,120.7188 Q1500.2344,120.2656 1499.5625,119.4531 Q1498.8906,118.6406 1498.5625,117.5 Q1498.2344,116.3438 1498.2344,114.9531 Q1498.2344,113.5781 1498.6094,112.4219 Q1498.9844,111.2656 1499.7031,110.4375 Q1500.4219,109.6094 1501.4844,109.1563 Q1502.5469,108.6875 1503.9375,108.6875 Q1504.8438,108.6875 1505.75,108.9219 Q1506.6563,109.1406 1507.4844,109.5469 L1506.6563,111.6406 Q1505.9688,111.3125 1505.2813,111.0781 Q1504.5938,110.8281 1503.9375,110.8281 Z " fill="#000000"/><text fill="#000000" font-family="sans-serif" font-size="14" lengthAdjust="spacing" textLength="102" x="1518" y="119.8467">SourceLanguage</text></g><!--class Inheritance--><g id="elem_Inheritance"><rect codeLine="19" fill="#CCFFFF" height="32" id="Inheritance" rx="2.5" ry="2.5" style="stroke:#A9A9A9;stroke-width:0.5;" width="105" x="1658.5" y="99"/><ellipse cx="1673.5" cy="115" fill="#FFFFFF" rx="11" ry="11" style="stroke:#181818;stroke-width:1.0;"/><path d="M1673.4375,110.8281 Q1672.6875,110.8281 1672.125,111.125 Q1671.5625,111.4063 1671.1719,111.9375 Q1670.7813,112.4688 1670.5781,113.25 Q1670.3906,114.0156 1670.3906,114.9688 Q1670.3906,115.9375 1670.5625,116.7031 Q1670.75,117.4531 1671.1094,117.9688 Q1671.4844,118.4844 1672.0625,118.7656 Q1672.6406,119.0313 1673.4375,119.0313 Q1674.1719,119.0313 1674.9063,118.8594 Q1675.6563,118.6875 1676.5313,118.3906 L1676.5313,120.5469 Q1676.125,120.7031 1675.7344,120.8281 Q1675.3438,120.9375 1674.9375,121.0156 Q1674.5313,121.0938 1674.1094,121.125 Q1673.6875,121.1719 1673.1875,121.1719 Q1671.7813,121.1719 1670.75,120.7188 Q1669.7344,120.2656 1669.0625,119.4531 Q1668.3906,118.6406 1668.0625,117.5 Q1667.7344,116.3438 1667.7344,114.9531 Q1667.7344,113.5781 1668.1094,112.4219 Q1668.4844,111.2656 1669.2031,110.4375 Q1669.9219,109.6094 1670.9844,109.1563 Q1672.0469,108.6875 1673.4375,108.6875 Q1674.3438,108.6875 1675.25,108.9219 Q1676.1563,109.1406 1676.9844,109.5469 L1676.1563,111.6406 Q1675.4688,111.3125 1674.7813,111.0781 Q1674.0938,110.8281 1673.4375,110.8281 Z " fill="#000000"/><text fill="#000000" font-family="sans-serif" font-size="14" lengthAdjust="spacing" textLength="73" x="1687.5" y="119.8467">Inheritance</text></g><!--class ScopingEntity--><g id="elem_ScopingEntity"><rect codeLine="21" fill="#CCFFFF" height="32" id="ScopingEntity" rx="2.5" ry="2.5" style="stroke:#A9A9A9;stroke-width:0.5;" width="116" x="159" y="399"/><ellipse cx="174" cy="415" fill="#FFFFFF" rx="11" ry="11" style="stroke:#181818;stroke-width:1.0;"/><path d="M173.9375,410.8281 Q173.1875,410.8281 172.625,411.125 Q172.0625,411.4063 171.6719,411.9375 Q171.2813,412.4688 171.0781,413.25 Q170.8906,414.0156 170.8906,414.9688 Q170.8906,415.9375 171.0625,416.7031 Q171.25,417.4531 171.6094,417.9688 Q171.9844,418.4844 172.5625,418.7656 Q173.1406,419.0313 173.9375,419.0313 Q174.6719,419.0313 175.4063,418.8594 Q176.1563,418.6875 177.0313,418.3906 L177.0313,420.5469 Q176.625,420.7031 176.2344,420.8281 Q175.8438,420.9375 175.4375,421.0156 Q175.0313,421.0938 174.6094,421.125 Q174.1875,421.1719 173.6875,421.1719 Q172.2813,421.1719 171.25,420.7188 Q170.2344,420.2656 169.5625,419.4531 Q168.8906,418.6406 168.5625,417.5 Q168.2344,416.3438 168.2344,414.9531 Q168.2344,413.5781 168.6094,412.4219 Q168.9844,411.2656 169.7031,410.4375 Q170.4219,409.6094 171.4844,409.1563 Q172.5469,408.6875 173.9375,408.6875 Q174.8438,408.6875 175.75,408.9219 Q176.6563,409.1406 177.4844,409.5469 L176.6563,411.6406 Q175.9688,411.3125 175.2813,411.0781 Q174.5938,410.8281 173.9375,410.8281 Z " fill="#000000"/><text fill="#000000" font-family="sans-serif" font-size="14" lengthAdjust="spacing" textLength="84" x="188" y="419.8467">ScopingEntity</text></g><!--class Module--><g id="elem_Module"><rect codeLine="23" fill="#CCFFFF" height="32" id="Module" rx="2.5" ry="2.5" style="stroke:#A9A9A9;stroke-width:0.5;" width="80" x="9" y="583"/><ellipse cx="24" cy="599" fill="#FFFFFF" rx="11" ry="11" style="stroke:#181818;stroke-width:1.0;"/><path d="M23.9375,594.8281 Q23.1875,594.8281 22.625,595.125 Q22.0625,595.4063 21.6719,595.9375 Q21.2813,596.4688 21.0781,597.25 Q20.8906,598.0156 20.8906,598.9688 Q20.8906,599.9375 21.0625,600.7031 Q21.25,601.4531 21.6094,601.9688 Q21.9844,602.4844 22.5625,602.7656 Q23.1406,603.0313 23.9375,603.0313 Q24.6719,603.0313 25.4063,602.8594 Q26.1563,602.6875 27.0313,602.3906 L27.0313,604.5469 Q26.625,604.7031 26.2344,604.8281 Q25.8438,604.9375 25.4375,605.0156 Q25.0313,605.0938 24.6094,605.125 Q24.1875,605.1719 23.6875,605.1719 Q22.2813,605.1719 21.25,604.7188 Q20.2344,604.2656 19.5625,603.4531 Q18.8906,602.6406 18.5625,601.5 Q18.2344,600.3438 18.2344,598.9531 Q18.2344,597.5781 18.6094,596.4219 Q18.9844,595.2656 19.7031,594.4375 Q20.4219,593.6094 21.4844,593.1563 Q22.5469,592.6875 23.9375,592.6875 Q24.8438,592.6875 25.75,592.9219 Q26.6563,593.1406 27.4844,593.5469 L26.6563,595.6406 Q25.9688,595.3125 25.2813,595.0781 Q24.5938,594.8281 23.9375,594.8281 Z " fill="#000000"/><text fill="#000000" font-family="sans-serif" font-size="14" lengthAdjust="spacing" textLength="48" x="38" y="603.8467">Module</text></g><!--class Entity--><g id="elem_Entity"><rect codeLine="25" fill="#CCFFFF" height="32" id="Entity" rx="2.5" ry="2.5" style="stroke:#A9A9A9;stroke-width:0.5;" width="68" x="2231" y="7"/><ellipse cx="2246" cy="23" fill="#FFFFFF" rx="11" ry="11" style="stroke:#181818;stroke-width:1.0;"/><path d="M2245.9375,18.8281 Q2245.1875,18.8281 2244.625,19.125 Q2244.0625,19.4063 2243.6719,19.9375 Q2243.2813,20.4688 2243.0781,21.25 Q2242.8906,22.0156 2242.8906,22.9688 Q2242.8906,23.9375 2243.0625,24.7031 Q2243.25,25.4531 2243.6094,25.9688 Q2243.9844,26.4844 2244.5625,26.7656 Q2245.1406,27.0313 2245.9375,27.0313 Q2246.6719,27.0313 2247.4063,26.8594 Q2248.1563,26.6875 2249.0313,26.3906 L2249.0313,28.5469 Q2248.625,28.7031 2248.2344,28.8281 Q2247.8438,28.9375 2247.4375,29.0156 Q2247.0313,29.0938 2246.6094,29.125 Q2246.1875,29.1719 2245.6875,29.1719 Q2244.2813,29.1719 2243.25,28.7188 Q2242.2344,28.2656 2241.5625,27.4531 Q2240.8906,26.6406 2240.5625,25.5 Q2240.2344,24.3438 2240.2344,22.9531 Q2240.2344,21.5781 2240.6094,20.4219 Q2240.9844,19.2656 2241.7031,18.4375 Q2242.4219,17.6094 2243.4844,17.1563 Q2244.5469,16.6875 2245.9375,16.6875 Q2246.8438,16.6875 2247.75,16.9219 Q2248.6563,17.1406 2249.4844,17.5469 L2248.6563,19.6406 Q2247.9688,19.3125 2247.2813,19.0781 Q2246.5938,18.8281 2245.9375,18.8281 Z " fill="#000000"/><text fill="#000000" font-family="sans-serif" font-size="14" lengthAdjust="spacing" textLength="36" x="2260" y="27.8467">Entity</text></g><!--class Interface--><g id="elem_Interface"><rect codeLine="27" fill="#CCFFFF" height="32" id="Interface" rx="2.5" ry="2.5" style="stroke:#A9A9A9;stroke-width:0.5;" width="90" x="570" y="491"/><ellipse cx="585" cy="507" fill="#FFFFFF" rx="11" ry="11" style="stroke:#181818;stroke-width:1.0;"/><path d="M584.9375,502.8281 Q584.1875,502.8281 583.625,503.125 Q583.0625,503.4063 582.6719,503.9375 Q582.2813,504.4688 582.0781,505.25 Q581.8906,506.0156 581.8906,506.9688 Q581.8906,507.9375 582.0625,508.7031 Q582.25,509.4531 582.6094,509.9688 Q582.9844,510.4844 583.5625,510.7656 Q584.1406,511.0313 584.9375,511.0313 Q585.6719,511.0313 586.4063,510.8594 Q587.1563,510.6875 588.0313,510.3906 L588.0313,512.5469 Q587.625,512.7031 587.2344,512.8281 Q586.8438,512.9375 586.4375,513.0156 Q586.0313,513.0938 585.6094,513.125 Q585.1875,513.1719 584.6875,513.1719 Q583.2813,513.1719 582.25,512.7188 Q581.2344,512.2656 580.5625,511.4531 Q579.8906,510.6406 579.5625,509.5 Q579.2344,508.3438 579.2344,506.9531 Q579.2344,505.5781 579.6094,504.4219 Q579.9844,503.2656 580.7031,502.4375 Q581.4219,501.6094 582.4844,501.1563 Q583.5469,500.6875 584.9375,500.6875 Q585.8438,500.6875 586.75,500.9219 Q587.6563,501.1406 588.4844,501.5469 L587.6563,503.6406 Q586.9688,503.3125 586.2813,503.0781 Q585.5938,502.8281 584.9375,502.8281 Z " fill="#000000"/><text fill="#000000" font-family="sans-serif" font-size="14" lengthAdjust="spacing" textLength="58" x="599" y="511.8467">Interface</text></g><!--class FamixTypeScriptModel--><g id="elem_FamixTypeScriptModel"><rect codeLine="29" fill="#CCFFFF" height="32" id="FamixTypeScriptModel" rx="2.5" ry="2.5" style="stroke:#A9A9A9;stroke-width:0.5;" width="176" x="3190" y="99"/><ellipse cx="3205" cy="115" fill="#FFFFFF" rx="11" ry="11" style="stroke:#181818;stroke-width:1.0;"/><path d="M3204.9375,110.8281 Q3204.1875,110.8281 3203.625,111.125 Q3203.0625,111.4063 3202.6719,111.9375 Q3202.2813,112.4688 3202.0781,113.25 Q3201.8906,114.0156 3201.8906,114.9688 Q3201.8906,115.9375 3202.0625,116.7031 Q3202.25,117.4531 3202.6094,117.9688 Q3202.9844,118.4844 3203.5625,118.7656 Q3204.1406,119.0313 3204.9375,119.0313 Q3205.6719,119.0313 3206.4063,118.8594 Q3207.1563,118.6875 3208.0313,118.3906 L3208.0313,120.5469 Q3207.625,120.7031 3207.2344,120.8281 Q3206.8438,120.9375 3206.4375,121.0156 Q3206.0313,121.0938 3205.6094,121.125 Q3205.1875,121.1719 3204.6875,121.1719 Q3203.2813,121.1719 3202.25,120.7188 Q3201.2344,120.2656 3200.5625,119.4531 Q3199.8906,118.6406 3199.5625,117.5 Q3199.2344,116.3438 3199.2344,114.9531 Q3199.2344,113.5781 3199.6094,112.4219 Q3199.9844,111.2656 3200.7031,110.4375 Q3201.4219,109.6094 3202.4844,109.1563 Q3203.5469,108.6875 3204.9375,108.6875 Q3205.8438,108.6875 3206.75,108.9219 Q3207.6563,109.1406 3208.4844,109.5469 L3207.6563,111.6406 Q3206.9688,111.3125 3206.2813,111.0781 Q3205.5938,110.8281 3204.9375,110.8281 Z " fill="#000000"/><text fill="#000000" font-family="sans-serif" font-size="14" lengthAdjust="spacing" textLength="144" x="3219" y="119.8467">FamixTypeScriptModel</text></g><!--class ParameterType--><g id="elem_ParameterType"><rect codeLine="31" fill="#CCFFFF" height="32" id="ParameterType" rx="2.5" ry="2.5" style="stroke:#A9A9A9;stroke-width:0.5;" width="130" x="695" y="491"/><ellipse cx="710" cy="507" fill="#FFFFFF" rx="11" ry="11" style="stroke:#181818;stroke-width:1.0;"/><path d="M709.9375,502.8281 Q709.1875,502.8281 708.625,503.125 Q708.0625,503.4063 707.6719,503.9375 Q707.2813,504.4688 707.0781,505.25 Q706.8906,506.0156 706.8906,506.9688 Q706.8906,507.9375 707.0625,508.7031 Q707.25,509.4531 707.6094,509.9688 Q707.9844,510.4844 708.5625,510.7656 Q709.1406,511.0313 709.9375,511.0313 Q710.6719,511.0313 711.4063,510.8594 Q712.1563,510.6875 713.0313,510.3906 L713.0313,512.5469 Q712.625,512.7031 712.2344,512.8281 Q711.8438,512.9375 711.4375,513.0156 Q711.0313,513.0938 710.6094,513.125 Q710.1875,513.1719 709.6875,513.1719 Q708.2813,513.1719 707.25,512.7188 Q706.2344,512.2656 705.5625,511.4531 Q704.8906,510.6406 704.5625,509.5 Q704.2344,508.3438 704.2344,506.9531 Q704.2344,505.5781 704.6094,504.4219 Q704.9844,503.2656 705.7031,502.4375 Q706.4219,501.6094 707.4844,501.1563 Q708.5469,500.6875 709.9375,500.6875 Q710.8438,500.6875 711.75,500.9219 Q712.6563,501.1406 713.4844,501.5469 L712.6563,503.6406 Q711.9688,503.3125 711.2813,503.0781 Q710.5938,502.8281 709.9375,502.8281 Z " fill="#000000"/><text fill="#000000" font-family="sans-serif" font-size="14" lengthAdjust="spacing" textLength="98" x="724" y="511.8467">ParameterType</text></g><!--class Access--><g id="elem_Access"><rect codeLine="33" fill="#CCFFFF" height="32" id="Access" rx="2.5" ry="2.5" style="stroke:#A9A9A9;stroke-width:0.5;" width="73" x="1798.5" y="99"/><ellipse cx="1813.5" cy="115" fill="#FFFFFF" rx="11" ry="11" style="stroke:#181818;stroke-width:1.0;"/><path d="M1813.4375,110.8281 Q1812.6875,110.8281 1812.125,111.125 Q1811.5625,111.4063 1811.1719,111.9375 Q1810.7813,112.4688 1810.5781,113.25 Q1810.3906,114.0156 1810.3906,114.9688 Q1810.3906,115.9375 1810.5625,116.7031 Q1810.75,117.4531 1811.1094,117.9688 Q1811.4844,118.4844 1812.0625,118.7656 Q1812.6406,119.0313 1813.4375,119.0313 Q1814.1719,119.0313 1814.9063,118.8594 Q1815.6563,118.6875 1816.5313,118.3906 L1816.5313,120.5469 Q1816.125,120.7031 1815.7344,120.8281 Q1815.3438,120.9375 1814.9375,121.0156 Q1814.5313,121.0938 1814.1094,121.125 Q1813.6875,121.1719 1813.1875,121.1719 Q1811.7813,121.1719 1810.75,120.7188 Q1809.7344,120.2656 1809.0625,119.4531 Q1808.3906,118.6406 1808.0625,117.5 Q1807.7344,116.3438 1807.7344,114.9531 Q1807.7344,113.5781 1808.1094,112.4219 Q1808.4844,111.2656 1809.2031,110.4375 Q1809.9219,109.6094 1810.9844,109.1563 Q1812.0469,108.6875 1813.4375,108.6875 Q1814.3438,108.6875 1815.25,108.9219 Q1816.1563,109.1406 1816.9844,109.5469 L1816.1563,111.6406 Q1815.4688,111.3125 1814.7813,111.0781 Q1814.0938,110.8281 1813.4375,110.8281 Z " fill="#000000"/><text fill="#000000" font-family="sans-serif" font-size="14" lengthAdjust="spacing" textLength="41" x="1827.5" y="119.8467">Access</text></g><!--class Comment--><g id="elem_Comment"><rect codeLine="35" fill="#CCFFFF" height="32" id="Comment" rx="2.5" ry="2.5" style="stroke:#A9A9A9;stroke-width:0.5;" width="95" x="1662.5" y="191"/><ellipse cx="1677.5" cy="207" fill="#FFFFFF" rx="11" ry="11" style="stroke:#181818;stroke-width:1.0;"/><path d="M1677.4375,202.8281 Q1676.6875,202.8281 1676.125,203.125 Q1675.5625,203.4063 1675.1719,203.9375 Q1674.7813,204.4688 1674.5781,205.25 Q1674.3906,206.0156 1674.3906,206.9688 Q1674.3906,207.9375 1674.5625,208.7031 Q1674.75,209.4531 1675.1094,209.9688 Q1675.4844,210.4844 1676.0625,210.7656 Q1676.6406,211.0313 1677.4375,211.0313 Q1678.1719,211.0313 1678.9063,210.8594 Q1679.6563,210.6875 1680.5313,210.3906 L1680.5313,212.5469 Q1680.125,212.7031 1679.7344,212.8281 Q1679.3438,212.9375 1678.9375,213.0156 Q1678.5313,213.0938 1678.1094,213.125 Q1677.6875,213.1719 1677.1875,213.1719 Q1675.7813,213.1719 1674.75,212.7188 Q1673.7344,212.2656 1673.0625,211.4531 Q1672.3906,210.6406 1672.0625,209.5 Q1671.7344,208.3438 1671.7344,206.9531 Q1671.7344,205.5781 1672.1094,204.4219 Q1672.4844,203.2656 1673.2031,202.4375 Q1673.9219,201.6094 1674.9844,201.1563 Q1676.0469,200.6875 1677.4375,200.6875 Q1678.3438,200.6875 1679.25,200.9219 Q1680.1563,201.1406 1680.9844,201.5469 L1680.1563,203.6406 Q1679.4688,203.3125 1678.7813,203.0781 Q1678.0938,202.8281 1677.4375,202.8281 Z " fill="#000000"/><text fill="#000000" font-family="sans-serif" font-size="14" lengthAdjust="spacing" textLength="63" x="1691.5" y="211.8467">Comment</text></g><!--class TClassMetrics--><g id="elem_TClassMetrics"><rect codeLine="37" fill="#CCFFFF" height="32" id="TClassMetrics" rx="2.5" ry="2.5" style="stroke:#A9A9A9;stroke-width:0.5;" width="117" x="1276.5" y="399"/><ellipse cx="1291.5" cy="415" fill="#FFFFFF" rx="11" ry="11" style="stroke:#181818;stroke-width:1.0;"/><path d="M1292.9531,421.75 L1290.3906,421.75 L1290.3906,411.75 L1287.3438,411.75 L1287.3438,409.6094 L1295.9844,409.6094 L1295.9844,411.75 L1292.9531,411.75 L1292.9531,421.75 Z " fill="#000000"/><text fill="#000000" font-family="sans-serif" font-size="14" lengthAdjust="spacing" textLength="85" x="1305.5" y="419.8467">TClassMetrics</text></g><!--class Variable--><g id="elem_Variable"><rect codeLine="39" fill="#CCFFFF" height="32" id="Variable" rx="2.5" ry="2.5" style="stroke:#A9A9A9;stroke-width:0.5;" width="84" x="1429" y="399"/><ellipse cx="1444" cy="415" fill="#FFFFFF" rx="11" ry="11" style="stroke:#181818;stroke-width:1.0;"/><path d="M1443.9375,410.8281 Q1443.1875,410.8281 1442.625,411.125 Q1442.0625,411.4063 1441.6719,411.9375 Q1441.2813,412.4688 1441.0781,413.25 Q1440.8906,414.0156 1440.8906,414.9688 Q1440.8906,415.9375 1441.0625,416.7031 Q1441.25,417.4531 1441.6094,417.9688 Q1441.9844,418.4844 1442.5625,418.7656 Q1443.1406,419.0313 1443.9375,419.0313 Q1444.6719,419.0313 1445.4063,418.8594 Q1446.1563,418.6875 1447.0313,418.3906 L1447.0313,420.5469 Q1446.625,420.7031 1446.2344,420.8281 Q1445.8438,420.9375 1445.4375,421.0156 Q1445.0313,421.0938 1444.6094,421.125 Q1444.1875,421.1719 1443.6875,421.1719 Q1442.2813,421.1719 1441.25,420.7188 Q1440.2344,420.2656 1439.5625,419.4531 Q1438.8906,418.6406 1438.5625,417.5 Q1438.2344,416.3438 1438.2344,414.9531 Q1438.2344,413.5781 1438.6094,412.4219 Q1438.9844,411.2656 1439.7031,410.4375 Q1440.4219,409.6094 1441.4844,409.1563 Q1442.5469,408.6875 1443.9375,408.6875 Q1444.8438,408.6875 1445.75,408.9219 Q1446.6563,409.1406 1447.4844,409.5469 L1446.6563,411.6406 Q1445.9688,411.3125 1445.2813,411.0781 Q1444.5938,410.8281 1443.9375,410.8281 Z " fill="#000000"/><text fill="#000000" font-family="sans-serif" font-size="14" lengthAdjust="spacing" textLength="52" x="1458" y="419.8467">Variable</text></g><!--class PrimitiveType--><g id="elem_PrimitiveType"><rect codeLine="41" fill="#CCFFFF" height="32" id="PrimitiveType" rx="2.5" ry="2.5" style="stroke:#A9A9A9;stroke-width:0.5;" width="121" x="860.5" y="491"/><ellipse cx="875.5" cy="507" fill="#FFFFFF" rx="11" ry="11" style="stroke:#181818;stroke-width:1.0;"/><path d="M875.4375,502.8281 Q874.6875,502.8281 874.125,503.125 Q873.5625,503.4063 873.1719,503.9375 Q872.7813,504.4688 872.5781,505.25 Q872.3906,506.0156 872.3906,506.9688 Q872.3906,507.9375 872.5625,508.7031 Q872.75,509.4531 873.1094,509.9688 Q873.4844,510.4844 874.0625,510.7656 Q874.6406,511.0313 875.4375,511.0313 Q876.1719,511.0313 876.9063,510.8594 Q877.6563,510.6875 878.5313,510.3906 L878.5313,512.5469 Q878.125,512.7031 877.7344,512.8281 Q877.3438,512.9375 876.9375,513.0156 Q876.5313,513.0938 876.1094,513.125 Q875.6875,513.1719 875.1875,513.1719 Q873.7813,513.1719 872.75,512.7188 Q871.7344,512.2656 871.0625,511.4531 Q870.3906,510.6406 870.0625,509.5 Q869.7344,508.3438 869.7344,506.9531 Q869.7344,505.5781 870.1094,504.4219 Q870.4844,503.2656 871.2031,502.4375 Q871.9219,501.6094 872.9844,501.1563 Q874.0469,500.6875 875.4375,500.6875 Q876.3438,500.6875 877.25,500.9219 Q878.1563,501.1406 878.9844,501.5469 L878.1563,503.6406 Q877.4688,503.3125 876.7813,503.0781 Q876.0938,502.8281 875.4375,502.8281 Z " fill="#000000"/><text fill="#000000" font-family="sans-serif" font-size="14" lengthAdjust="spacing" textLength="89" x="889.5" y="511.8467">PrimitiveType</text></g><!--class SourcedEntity--><g id="elem_SourcedEntity"><rect codeLine="43" fill="#CCFFFF" height="32" id="SourcedEntity" rx="2.5" ry="2.5" style="stroke:#A9A9A9;stroke-width:0.5;" width="119" x="1906.5" y="99"/><ellipse cx="1921.5" cy="115" fill="#FFFFFF" rx="11" ry="11" style="stroke:#181818;stroke-width:1.0;"/><path d="M1921.4375,110.8281 Q1920.6875,110.8281 1920.125,111.125 Q1919.5625,111.4063 1919.1719,111.9375 Q1918.7813,112.4688 1918.5781,113.25 Q1918.3906,114.0156 1918.3906,114.9688 Q1918.3906,115.9375 1918.5625,116.7031 Q1918.75,117.4531 1919.1094,117.9688 Q1919.4844,118.4844 1920.0625,118.7656 Q1920.6406,119.0313 1921.4375,119.0313 Q1922.1719,119.0313 1922.9063,118.8594 Q1923.6563,118.6875 1924.5313,118.3906 L1924.5313,120.5469 Q1924.125,120.7031 1923.7344,120.8281 Q1923.3438,120.9375 1922.9375,121.0156 Q1922.5313,121.0938 1922.1094,121.125 Q1921.6875,121.1719 1921.1875,121.1719 Q1919.7813,121.1719 1918.75,120.7188 Q1917.7344,120.2656 1917.0625,119.4531 Q1916.3906,118.6406 1916.0625,117.5 Q1915.7344,116.3438 1915.7344,114.9531 Q1915.7344,113.5781 1916.1094,112.4219 Q1916.4844,111.2656 1917.2031,110.4375 Q1917.9219,109.6094 1918.9844,109.1563 Q1920.0469,108.6875 1921.4375,108.6875 Q1922.3438,108.6875 1923.25,108.9219 Q1924.1563,109.1406 1924.9844,109.5469 L1924.1563,111.6406 Q1923.4688,111.3125 1922.7813,111.0781 Q1922.0938,110.8281 1921.4375,110.8281 Z " fill="#000000"/><text fill="#000000" font-family="sans-serif" font-size="14" lengthAdjust="spacing" textLength="87" x="1935.5" y="119.8467">SourcedEntity</text></g><!--class ScriptEntity--><g id="elem_ScriptEntity"><rect codeLine="45" fill="#CCFFFF" height="32" id="ScriptEntity" rx="2.5" ry="2.5" style="stroke:#A9A9A9;stroke-width:0.5;" width="104" x="7" y="491"/><ellipse cx="22" cy="507" fill="#FFFFFF" rx="11" ry="11" style="stroke:#181818;stroke-width:1.0;"/><path d="M21.9375,502.8281 Q21.1875,502.8281 20.625,503.125 Q20.0625,503.4063 19.6719,503.9375 Q19.2813,504.4688 19.0781,505.25 Q18.8906,506.0156 18.8906,506.9688 Q18.8906,507.9375 19.0625,508.7031 Q19.25,509.4531 19.6094,509.9688 Q19.9844,510.4844 20.5625,510.7656 Q21.1406,511.0313 21.9375,511.0313 Q22.6719,511.0313 23.4063,510.8594 Q24.1563,510.6875 25.0313,510.3906 L25.0313,512.5469 Q24.625,512.7031 24.2344,512.8281 Q23.8438,512.9375 23.4375,513.0156 Q23.0313,513.0938 22.6094,513.125 Q22.1875,513.1719 21.6875,513.1719 Q20.2813,513.1719 19.25,512.7188 Q18.2344,512.2656 17.5625,511.4531 Q16.8906,510.6406 16.5625,509.5 Q16.2344,508.3438 16.2344,506.9531 Q16.2344,505.5781 16.6094,504.4219 Q16.9844,503.2656 17.7031,502.4375 Q18.4219,501.6094 19.4844,501.1563 Q20.5469,500.6875 21.9375,500.6875 Q22.8438,500.6875 23.75,500.9219 Q24.6563,501.1406 25.4844,501.5469 L24.6563,503.6406 Q23.9688,503.3125 23.2813,503.0781 Q22.5938,502.8281 21.9375,502.8281 Z " fill="#000000"/><text fill="#000000" font-family="sans-serif" font-size="14" lengthAdjust="spacing" textLength="72" x="36" y="511.8467">ScriptEntity</text></g><!--class SourceAnchor--><g id="elem_SourceAnchor"><rect codeLine="47" fill="#CCFFFF" height="32" id="SourceAnchor" rx="2.5" ry="2.5" style="stroke:#A9A9A9;stroke-width:0.5;" width="120" x="2061" y="99"/><ellipse cx="2076" cy="115" fill="#FFFFFF" rx="11" ry="11" style="stroke:#181818;stroke-width:1.0;"/><path d="M2075.9375,110.8281 Q2075.1875,110.8281 2074.625,111.125 Q2074.0625,111.4063 2073.6719,111.9375 Q2073.2813,112.4688 2073.0781,113.25 Q2072.8906,114.0156 2072.8906,114.9688 Q2072.8906,115.9375 2073.0625,116.7031 Q2073.25,117.4531 2073.6094,117.9688 Q2073.9844,118.4844 2074.5625,118.7656 Q2075.1406,119.0313 2075.9375,119.0313 Q2076.6719,119.0313 2077.4063,118.8594 Q2078.1563,118.6875 2079.0313,118.3906 L2079.0313,120.5469 Q2078.625,120.7031 2078.2344,120.8281 Q2077.8438,120.9375 2077.4375,121.0156 Q2077.0313,121.0938 2076.6094,121.125 Q2076.1875,121.1719 2075.6875,121.1719 Q2074.2813,121.1719 2073.25,120.7188 Q2072.2344,120.2656 2071.5625,119.4531 Q2070.8906,118.6406 2070.5625,117.5 Q2070.2344,116.3438 2070.2344,114.9531 Q2070.2344,113.5781 2070.6094,112.4219 Q2070.9844,111.2656 2071.7031,110.4375 Q2072.4219,109.6094 2073.4844,109.1563 Q2074.5469,108.6875 2075.9375,108.6875 Q2076.8438,108.6875 2077.75,108.9219 Q2078.6563,109.1406 2079.4844,109.5469 L2078.6563,111.6406 Q2077.9688,111.3125 2077.2813,111.0781 Q2076.5938,110.8281 2075.9375,110.8281 Z " fill="#000000"/><text fill="#000000" font-family="sans-serif" font-size="14" lengthAdjust="spacing" textLength="88" x="2090" y="119.8467">SourceAnchor</text></g><!--class Property--><g id="elem_Property"><rect codeLine="49" fill="#CCFFFF" height="32" id="Property" rx="2.5" ry="2.5" style="stroke:#A9A9A9;stroke-width:0.5;" width="88" x="1548" y="399"/><ellipse cx="1563" cy="415" fill="#FFFFFF" rx="11" ry="11" style="stroke:#181818;stroke-width:1.0;"/><path d="M1562.9375,410.8281 Q1562.1875,410.8281 1561.625,411.125 Q1561.0625,411.4063 1560.6719,411.9375 Q1560.2813,412.4688 1560.0781,413.25 Q1559.8906,414.0156 1559.8906,414.9688 Q1559.8906,415.9375 1560.0625,416.7031 Q1560.25,417.4531 1560.6094,417.9688 Q1560.9844,418.4844 1561.5625,418.7656 Q1562.1406,419.0313 1562.9375,419.0313 Q1563.6719,419.0313 1564.4063,418.8594 Q1565.1563,418.6875 1566.0313,418.3906 L1566.0313,420.5469 Q1565.625,420.7031 1565.2344,420.8281 Q1564.8438,420.9375 1564.4375,421.0156 Q1564.0313,421.0938 1563.6094,421.125 Q1563.1875,421.1719 1562.6875,421.1719 Q1561.2813,421.1719 1560.25,420.7188 Q1559.2344,420.2656 1558.5625,419.4531 Q1557.8906,418.6406 1557.5625,417.5 Q1557.2344,416.3438 1557.2344,414.9531 Q1557.2344,413.5781 1557.6094,412.4219 Q1557.9844,411.2656 1558.7031,410.4375 Q1559.4219,409.6094 1560.4844,409.1563 Q1561.5469,408.6875 1562.9375,408.6875 Q1563.8438,408.6875 1564.75,408.9219 Q1565.6563,409.1406 1566.4844,409.5469 L1565.6563,411.6406 Q1564.9688,411.3125 1564.2813,411.0781 Q1563.5938,410.8281 1562.9375,410.8281 Z " fill="#000000"/><text fill="#000000" font-family="sans-serif" font-size="14" lengthAdjust="spacing" textLength="56" x="1577" y="419.8467">Property</text></g><!--class Enum--><g id="elem_Enum"><rect codeLine="51" fill="#CCFFFF" height="32" id="Enum" rx="2.5" ry="2.5" style="stroke:#A9A9A9;stroke-width:0.5;" width="68" x="1017" y="491"/><ellipse cx="1032" cy="507" fill="#FFFFFF" rx="11" ry="11" style="stroke:#181818;stroke-width:1.0;"/><path d="M1031.9375,502.8281 Q1031.1875,502.8281 1030.625,503.125 Q1030.0625,503.4063 1029.6719,503.9375 Q1029.2813,504.4688 1029.0781,505.25 Q1028.8906,506.0156 1028.8906,506.9688 Q1028.8906,507.9375 1029.0625,508.7031 Q1029.25,509.4531 1029.6094,509.9688 Q1029.9844,510.4844 1030.5625,510.7656 Q1031.1406,511.0313 1031.9375,511.0313 Q1032.6719,511.0313 1033.4063,510.8594 Q1034.1563,510.6875 1035.0313,510.3906 L1035.0313,512.5469 Q1034.625,512.7031 1034.2344,512.8281 Q1033.8438,512.9375 1033.4375,513.0156 Q1033.0313,513.0938 1032.6094,513.125 Q1032.1875,513.1719 1031.6875,513.1719 Q1030.2813,513.1719 1029.25,512.7188 Q1028.2344,512.2656 1027.5625,511.4531 Q1026.8906,510.6406 1026.5625,509.5 Q1026.2344,508.3438 1026.2344,506.9531 Q1026.2344,505.5781 1026.6094,504.4219 Q1026.9844,503.2656 1027.7031,502.4375 Q1028.4219,501.6094 1029.4844,501.1563 Q1030.5469,500.6875 1031.9375,500.6875 Q1032.8438,500.6875 1033.75,500.9219 Q1034.6563,501.1406 1035.4844,501.5469 L1034.6563,503.6406 Q1033.9688,503.3125 1033.2813,503.0781 Q1032.5938,502.8281 1031.9375,502.8281 Z " fill="#000000"/><text fill="#000000" font-family="sans-serif" font-size="14" lengthAdjust="spacing" textLength="36" x="1046" y="511.8467">Enum</text></g><!--class ParametricMethod--><g id="elem_ParametricMethod"><rect codeLine="53" fill="#CCFFFF" height="32" id="ParametricMethod" rx="2.5" ry="2.5" style="stroke:#A9A9A9;stroke-width:0.5;" width="151" x="124.5" y="583"/><ellipse cx="139.5" cy="599" fill="#FFFFFF" rx="11" ry="11" style="stroke:#181818;stroke-width:1.0;"/><path d="M139.4375,594.8281 Q138.6875,594.8281 138.125,595.125 Q137.5625,595.4063 137.1719,595.9375 Q136.7813,596.4688 136.5781,597.25 Q136.3906,598.0156 136.3906,598.9688 Q136.3906,599.9375 136.5625,600.7031 Q136.75,601.4531 137.1094,601.9688 Q137.4844,602.4844 138.0625,602.7656 Q138.6406,603.0313 139.4375,603.0313 Q140.1719,603.0313 140.9063,602.8594 Q141.6563,602.6875 142.5313,602.3906 L142.5313,604.5469 Q142.125,604.7031 141.7344,604.8281 Q141.3438,604.9375 140.9375,605.0156 Q140.5313,605.0938 140.1094,605.125 Q139.6875,605.1719 139.1875,605.1719 Q137.7813,605.1719 136.75,604.7188 Q135.7344,604.2656 135.0625,603.4531 Q134.3906,602.6406 134.0625,601.5 Q133.7344,600.3438 133.7344,598.9531 Q133.7344,597.5781 134.1094,596.4219 Q134.4844,595.2656 135.2031,594.4375 Q135.9219,593.6094 136.9844,593.1563 Q138.0469,592.6875 139.4375,592.6875 Q140.3438,592.6875 141.25,592.9219 Q142.1563,593.1406 142.9844,593.5469 L142.1563,595.6406 Q141.4688,595.3125 140.7813,595.0781 Q140.0938,594.8281 139.4375,594.8281 Z " fill="#000000"/><text fill="#000000" font-family="sans-serif" font-size="14" lengthAdjust="spacing" textLength="119" x="153.5" y="603.8467">ParametricMethod</text></g><!--class BehaviouralEntity--><g id="elem_BehaviouralEntity"><rect codeLine="55" fill="#CCFFFF" height="32" id="BehaviouralEntity" rx="2.5" ry="2.5" style="stroke:#A9A9A9;stroke-width:0.5;" width="144" x="420" y="399"/><ellipse cx="435" cy="415" fill="#FFFFFF" rx="11" ry="11" style="stroke:#181818;stroke-width:1.0;"/><path d="M434.9375,410.8281 Q434.1875,410.8281 433.625,411.125 Q433.0625,411.4063 432.6719,411.9375 Q432.2813,412.4688 432.0781,413.25 Q431.8906,414.0156 431.8906,414.9688 Q431.8906,415.9375 432.0625,416.7031 Q432.25,417.4531 432.6094,417.9688 Q432.9844,418.4844 433.5625,418.7656 Q434.1406,419.0313 434.9375,419.0313 Q435.6719,419.0313 436.4063,418.8594 Q437.1563,418.6875 438.0313,418.3906 L438.0313,420.5469 Q437.625,420.7031 437.2344,420.8281 Q436.8438,420.9375 436.4375,421.0156 Q436.0313,421.0938 435.6094,421.125 Q435.1875,421.1719 434.6875,421.1719 Q433.2813,421.1719 432.25,420.7188 Q431.2344,420.2656 430.5625,419.4531 Q429.8906,418.6406 429.5625,417.5 Q429.2344,416.3438 429.2344,414.9531 Q429.2344,413.5781 429.6094,412.4219 Q429.9844,411.2656 430.7031,410.4375 Q431.4219,409.6094 432.4844,409.1563 Q433.5469,408.6875 434.9375,408.6875 Q435.8438,408.6875 436.75,408.9219 Q437.6563,409.1406 438.4844,409.5469 L437.6563,411.6406 Q436.9688,411.3125 436.2813,411.0781 Q435.5938,410.8281 434.9375,410.8281 Z " fill="#000000"/><text fill="#000000" font-family="sans-serif" font-size="14" lengthAdjust="spacing" textLength="112" x="449" y="419.8467">BehaviouralEntity</text></g><!--class NamedEntity--><g id="elem_NamedEntity"><rect codeLine="57" fill="#CCFFFF" height="32" id="NamedEntity" rx="2.5" ry="2.5" style="stroke:#A9A9A9;stroke-width:0.5;" width="114" x="1793" y="191"/><ellipse cx="1808" cy="207" fill="#FFFFFF" rx="11" ry="11" style="stroke:#181818;stroke-width:1.0;"/><path d="M1807.9375,202.8281 Q1807.1875,202.8281 1806.625,203.125 Q1806.0625,203.4063 1805.6719,203.9375 Q1805.2813,204.4688 1805.0781,205.25 Q1804.8906,206.0156 1804.8906,206.9688 Q1804.8906,207.9375 1805.0625,208.7031 Q1805.25,209.4531 1805.6094,209.9688 Q1805.9844,210.4844 1806.5625,210.7656 Q1807.1406,211.0313 1807.9375,211.0313 Q1808.6719,211.0313 1809.4063,210.8594 Q1810.1563,210.6875 1811.0313,210.3906 L1811.0313,212.5469 Q1810.625,212.7031 1810.2344,212.8281 Q1809.8438,212.9375 1809.4375,213.0156 Q1809.0313,213.0938 1808.6094,213.125 Q1808.1875,213.1719 1807.6875,213.1719 Q1806.2813,213.1719 1805.25,212.7188 Q1804.2344,212.2656 1803.5625,211.4531 Q1802.8906,210.6406 1802.5625,209.5 Q1802.2344,208.3438 1802.2344,206.9531 Q1802.2344,205.5781 1802.6094,204.4219 Q1802.9844,203.2656 1803.7031,202.4375 Q1804.4219,201.6094 1805.4844,201.1563 Q1806.5469,200.6875 1807.9375,200.6875 Q1808.8438,200.6875 1809.75,200.9219 Q1810.6563,201.1406 1811.4844,201.5469 L1810.6563,203.6406 Q1809.9688,203.3125 1809.2813,203.0781 Q1808.5938,202.8281 1807.9375,202.8281 Z " fill="#000000"/><text fill="#000000" font-family="sans-serif" font-size="14" lengthAdjust="spacing" textLength="82" x="1822" y="211.8467">NamedEntity</text></g><!--class VariableStatement--><g id="elem_VariableStatement"><rect codeLine="59" fill="#CCFFFF" height="32" id="VariableStatement" rx="2.5" ry="2.5" style="stroke:#A9A9A9;stroke-width:0.5;" width="150" x="1120" y="491"/><ellipse cx="1135" cy="507" fill="#FFFFFF" rx="11" ry="11" style="stroke:#181818;stroke-width:1.0;"/><path d="M1134.9375,502.8281 Q1134.1875,502.8281 1133.625,503.125 Q1133.0625,503.4063 1132.6719,503.9375 Q1132.2813,504.4688 1132.0781,505.25 Q1131.8906,506.0156 1131.8906,506.9688 Q1131.8906,507.9375 1132.0625,508.7031 Q1132.25,509.4531 1132.6094,509.9688 Q1132.9844,510.4844 1133.5625,510.7656 Q1134.1406,511.0313 1134.9375,511.0313 Q1135.6719,511.0313 1136.4063,510.8594 Q1137.1563,510.6875 1138.0313,510.3906 L1138.0313,512.5469 Q1137.625,512.7031 1137.2344,512.8281 Q1136.8438,512.9375 1136.4375,513.0156 Q1136.0313,513.0938 1135.6094,513.125 Q1135.1875,513.1719 1134.6875,513.1719 Q1133.2813,513.1719 1132.25,512.7188 Q1131.2344,512.2656 1130.5625,511.4531 Q1129.8906,510.6406 1129.5625,509.5 Q1129.2344,508.3438 1129.2344,506.9531 Q1129.2344,505.5781 1129.6094,504.4219 Q1129.9844,503.2656 1130.7031,502.4375 Q1131.4219,501.6094 1132.4844,501.1563 Q1133.5469,500.6875 1134.9375,500.6875 Q1135.8438,500.6875 1136.75,500.9219 Q1137.6563,501.1406 1138.4844,501.5469 L1137.6563,503.6406 Q1136.9688,503.3125 1136.2813,503.0781 Q1135.5938,502.8281 1134.9375,502.8281 Z " fill="#000000"/><text fill="#000000" font-family="sans-serif" font-size="14" lengthAdjust="spacing" textLength="118" x="1149" y="511.8467">VariableStatement</text></g><!--class StructuralEntity--><g id="elem_StructuralEntity"><rect codeLine="61" fill="#CCFFFF" height="32" id="StructuralEntity" rx="2.5" ry="2.5" style="stroke:#A9A9A9;stroke-width:0.5;" width="130" x="1527" y="295"/><ellipse cx="1542" cy="311" fill="#FFFFFF" rx="11" ry="11" style="stroke:#181818;stroke-width:1.0;"/><path d="M1541.9375,306.8281 Q1541.1875,306.8281 1540.625,307.125 Q1540.0625,307.4063 1539.6719,307.9375 Q1539.2813,308.4688 1539.0781,309.25 Q1538.8906,310.0156 1538.8906,310.9688 Q1538.8906,311.9375 1539.0625,312.7031 Q1539.25,313.4531 1539.6094,313.9688 Q1539.9844,314.4844 1540.5625,314.7656 Q1541.1406,315.0313 1541.9375,315.0313 Q1542.6719,315.0313 1543.4063,314.8594 Q1544.1563,314.6875 1545.0313,314.3906 L1545.0313,316.5469 Q1544.625,316.7031 1544.2344,316.8281 Q1543.8438,316.9375 1543.4375,317.0156 Q1543.0313,317.0938 1542.6094,317.125 Q1542.1875,317.1719 1541.6875,317.1719 Q1540.2813,317.1719 1539.25,316.7188 Q1538.2344,316.2656 1537.5625,315.4531 Q1536.8906,314.6406 1536.5625,313.5 Q1536.2344,312.3438 1536.2344,310.9531 Q1536.2344,309.5781 1536.6094,308.4219 Q1536.9844,307.2656 1537.7031,306.4375 Q1538.4219,305.6094 1539.4844,305.1563 Q1540.5469,304.6875 1541.9375,304.6875 Q1542.8438,304.6875 1543.75,304.9219 Q1544.6563,305.1406 1545.4844,305.5469 L1544.6563,307.6406 Q1543.9688,307.3125 1543.2813,307.0781 Q1542.5938,306.8281 1541.9375,306.8281 Z " fill="#000000"/><text fill="#000000" font-family="sans-serif" font-size="14" lengthAdjust="spacing" textLength="98" x="1556" y="315.8467">StructuralEntity</text></g><!--class Invocation--><g id="elem_Invocation"><rect codeLine="63" fill="#CCFFFF" height="32" id="Invocation" rx="2.5" ry="2.5" style="stroke:#A9A9A9;stroke-width:0.5;" width="98" x="2216" y="99"/><ellipse cx="2231" cy="115" fill="#FFFFFF" rx="11" ry="11" style="stroke:#181818;stroke-width:1.0;"/><path d="M2230.9375,110.8281 Q2230.1875,110.8281 2229.625,111.125 Q2229.0625,111.4063 2228.6719,111.9375 Q2228.2813,112.4688 2228.0781,113.25 Q2227.8906,114.0156 2227.8906,114.9688 Q2227.8906,115.9375 2228.0625,116.7031 Q2228.25,117.4531 2228.6094,117.9688 Q2228.9844,118.4844 2229.5625,118.7656 Q2230.1406,119.0313 2230.9375,119.0313 Q2231.6719,119.0313 2232.4063,118.8594 Q2233.1563,118.6875 2234.0313,118.3906 L2234.0313,120.5469 Q2233.625,120.7031 2233.2344,120.8281 Q2232.8438,120.9375 2232.4375,121.0156 Q2232.0313,121.0938 2231.6094,121.125 Q2231.1875,121.1719 2230.6875,121.1719 Q2229.2813,121.1719 2228.25,120.7188 Q2227.2344,120.2656 2226.5625,119.4531 Q2225.8906,118.6406 2225.5625,117.5 Q2225.2344,116.3438 2225.2344,114.9531 Q2225.2344,113.5781 2225.6094,112.4219 Q2225.9844,111.2656 2226.7031,110.4375 Q2227.4219,109.6094 2228.4844,109.1563 Q2229.5469,108.6875 2230.9375,108.6875 Q2231.8438,108.6875 2232.75,108.9219 Q2233.6563,109.1406 2234.4844,109.5469 L2233.6563,111.6406 Q2232.9688,111.3125 2232.2813,111.0781 Q2231.5938,110.8281 2230.9375,110.8281 Z " fill="#000000"/><text fill="#000000" font-family="sans-serif" font-size="14" lengthAdjust="spacing" textLength="66" x="2245" y="119.8467">Invocation</text></g><!--class JSDoc--><g id="elem_JSDoc"><rect codeLine="65" fill="#CCFFFF" height="32" id="JSDoc" rx="2.5" ry="2.5" style="stroke:#A9A9A9;stroke-width:0.5;" width="67" x="1942.5" y="191"/><ellipse cx="1957.5" cy="207" fill="#FFFFFF" rx="11" ry="11" style="stroke:#181818;stroke-width:1.0;"/><path d="M1957.4375,202.8281 Q1956.6875,202.8281 1956.125,203.125 Q1955.5625,203.4063 1955.1719,203.9375 Q1954.7813,204.4688 1954.5781,205.25 Q1954.3906,206.0156 1954.3906,206.9688 Q1954.3906,207.9375 1954.5625,208.7031 Q1954.75,209.4531 1955.1094,209.9688 Q1955.4844,210.4844 1956.0625,210.7656 Q1956.6406,211.0313 1957.4375,211.0313 Q1958.1719,211.0313 1958.9063,210.8594 Q1959.6563,210.6875 1960.5313,210.3906 L1960.5313,212.5469 Q1960.125,212.7031 1959.7344,212.8281 Q1959.3438,212.9375 1958.9375,213.0156 Q1958.5313,213.0938 1958.1094,213.125 Q1957.6875,213.1719 1957.1875,213.1719 Q1955.7813,213.1719 1954.75,212.7188 Q1953.7344,212.2656 1953.0625,211.4531 Q1952.3906,210.6406 1952.0625,209.5 Q1951.7344,208.3438 1951.7344,206.9531 Q1951.7344,205.5781 1952.1094,204.4219 Q1952.4844,203.2656 1953.2031,202.4375 Q1953.9219,201.6094 1954.9844,201.1563 Q1956.0469,200.6875 1957.4375,200.6875 Q1958.3438,200.6875 1959.25,200.9219 Q1960.1563,201.1406 1960.9844,201.5469 L1960.1563,203.6406 Q1959.4688,203.3125 1958.7813,203.0781 Q1958.0938,202.8281 1957.4375,202.8281 Z " fill="#000000"/><text fill="#000000" font-family="sans-serif" font-size="14" lengthAdjust="spacing" textLength="35" x="1971.5" y="211.8467">JSDoc</text></g><!--class Implementation--><g id="elem_Implementation"><rect codeLine="67" fill="#CCFFFF" height="32" id="Implementation" rx="2.5" ry="2.5" style="stroke:#A9A9A9;stroke-width:0.5;" width="136" x="2349" y="99"/><ellipse cx="2364" cy="115" fill="#FFFFFF" rx="11" ry="11" style="stroke:#181818;stroke-width:1.0;"/><path d="M2363.9375,110.8281 Q2363.1875,110.8281 2362.625,111.125 Q2362.0625,111.4063 2361.6719,111.9375 Q2361.2813,112.4688 2361.0781,113.25 Q2360.8906,114.0156 2360.8906,114.9688 Q2360.8906,115.9375 2361.0625,116.7031 Q2361.25,117.4531 2361.6094,117.9688 Q2361.9844,118.4844 2362.5625,118.7656 Q2363.1406,119.0313 2363.9375,119.0313 Q2364.6719,119.0313 2365.4063,118.8594 Q2366.1563,118.6875 2367.0313,118.3906 L2367.0313,120.5469 Q2366.625,120.7031 2366.2344,120.8281 Q2365.8438,120.9375 2365.4375,121.0156 Q2365.0313,121.0938 2364.6094,121.125 Q2364.1875,121.1719 2363.6875,121.1719 Q2362.2813,121.1719 2361.25,120.7188 Q2360.2344,120.2656 2359.5625,119.4531 Q2358.8906,118.6406 2358.5625,117.5 Q2358.2344,116.3438 2358.2344,114.9531 Q2358.2344,113.5781 2358.6094,112.4219 Q2358.9844,111.2656 2359.7031,110.4375 Q2360.4219,109.6094 2361.4844,109.1563 Q2362.5469,108.6875 2363.9375,108.6875 Q2364.8438,108.6875 2365.75,108.9219 Q2366.6563,109.1406 2367.4844,109.5469 L2366.6563,111.6406 Q2365.9688,111.3125 2365.2813,111.0781 Q2364.5938,110.8281 2363.9375,110.8281 Z " fill="#000000"/><text fill="#000000" font-family="sans-serif" font-size="14" lengthAdjust="spacing" textLength="104" x="2378" y="119.8467">Implementation</text></g><!--class Class--><g id="elem_Class"><rect codeLine="69" fill="#CCFFFF" height="32" id="Class" rx="2.5" ry="2.5" style="stroke:#A9A9A9;stroke-width:0.5;" width="63" x="1305.5" y="491"/><ellipse cx="1320.5" cy="507" fill="#FFFFFF" rx="11" ry="11" style="stroke:#181818;stroke-width:1.0;"/><path d="M1320.4375,502.8281 Q1319.6875,502.8281 1319.125,503.125 Q1318.5625,503.4063 1318.1719,503.9375 Q1317.7813,504.4688 1317.5781,505.25 Q1317.3906,506.0156 1317.3906,506.9688 Q1317.3906,507.9375 1317.5625,508.7031 Q1317.75,509.4531 1318.1094,509.9688 Q1318.4844,510.4844 1319.0625,510.7656 Q1319.6406,511.0313 1320.4375,511.0313 Q1321.1719,511.0313 1321.9063,510.8594 Q1322.6563,510.6875 1323.5313,510.3906 L1323.5313,512.5469 Q1323.125,512.7031 1322.7344,512.8281 Q1322.3438,512.9375 1321.9375,513.0156 Q1321.5313,513.0938 1321.1094,513.125 Q1320.6875,513.1719 1320.1875,513.1719 Q1318.7813,513.1719 1317.75,512.7188 Q1316.7344,512.2656 1316.0625,511.4531 Q1315.3906,510.6406 1315.0625,509.5 Q1314.7344,508.3438 1314.7344,506.9531 Q1314.7344,505.5781 1315.1094,504.4219 Q1315.4844,503.2656 1316.2031,502.4375 Q1316.9219,501.6094 1317.9844,501.1563 Q1319.0469,500.6875 1320.4375,500.6875 Q1321.3438,500.6875 1322.25,500.9219 Q1323.1563,501.1406 1323.9844,501.5469 L1323.1563,503.6406 Q1322.4688,503.3125 1321.7813,503.0781 Q1321.0938,502.8281 1320.4375,502.8281 Z " fill="#000000"/><text fill="#000000" font-family="sans-serif" font-size="14" lengthAdjust="spacing" textLength="31" x="1334.5" y="511.8467">Class</text></g><!--class Method--><g id="elem_Method"><rect codeLine="71" fill="#CCFFFF" height="32" id="Method" rx="2.5" ry="2.5" style="stroke:#A9A9A9;stroke-width:0.5;" width="81" x="313.5" y="491"/><ellipse cx="328.5" cy="507" fill="#FFFFFF" rx="11" ry="11" style="stroke:#181818;stroke-width:1.0;"/><path d="M328.4375,502.8281 Q327.6875,502.8281 327.125,503.125 Q326.5625,503.4063 326.1719,503.9375 Q325.7813,504.4688 325.5781,505.25 Q325.3906,506.0156 325.3906,506.9688 Q325.3906,507.9375 325.5625,508.7031 Q325.75,509.4531 326.1094,509.9688 Q326.4844,510.4844 327.0625,510.7656 Q327.6406,511.0313 328.4375,511.0313 Q329.1719,511.0313 329.9063,510.8594 Q330.6563,510.6875 331.5313,510.3906 L331.5313,512.5469 Q331.125,512.7031 330.7344,512.8281 Q330.3438,512.9375 329.9375,513.0156 Q329.5313,513.0938 329.1094,513.125 Q328.6875,513.1719 328.1875,513.1719 Q326.7813,513.1719 325.75,512.7188 Q324.7344,512.2656 324.0625,511.4531 Q323.3906,510.6406 323.0625,509.5 Q322.7344,508.3438 322.7344,506.9531 Q322.7344,505.5781 323.1094,504.4219 Q323.4844,503.2656 324.2031,502.4375 Q324.9219,501.6094 325.9844,501.1563 Q327.0469,500.6875 328.4375,500.6875 Q329.3438,500.6875 330.25,500.9219 Q331.1563,501.1406 331.9844,501.5469 L331.1563,503.6406 Q330.4688,503.3125 329.7813,503.0781 Q329.0938,502.8281 328.4375,502.8281 Z " fill="#000000"/><text fill="#000000" font-family="sans-serif" font-size="14" lengthAdjust="spacing" textLength="49" x="342.5" y="511.8467">Method</text></g><!--class Type--><g id="elem_Type"><rect codeLine="73" fill="#CCFFFF" height="32" id="Type" rx="2.5" ry="2.5" style="stroke:#A9A9A9;stroke-width:0.5;" width="62" x="890" y="399"/><ellipse cx="905" cy="415" fill="#FFFFFF" rx="11" ry="11" style="stroke:#181818;stroke-width:1.0;"/><path d="M904.9375,410.8281 Q904.1875,410.8281 903.625,411.125 Q903.0625,411.4063 902.6719,411.9375 Q902.2813,412.4688 902.0781,413.25 Q901.8906,414.0156 901.8906,414.9688 Q901.8906,415.9375 902.0625,416.7031 Q902.25,417.4531 902.6094,417.9688 Q902.9844,418.4844 903.5625,418.7656 Q904.1406,419.0313 904.9375,419.0313 Q905.6719,419.0313 906.4063,418.8594 Q907.1563,418.6875 908.0313,418.3906 L908.0313,420.5469 Q907.625,420.7031 907.2344,420.8281 Q906.8438,420.9375 906.4375,421.0156 Q906.0313,421.0938 905.6094,421.125 Q905.1875,421.1719 904.6875,421.1719 Q903.2813,421.1719 902.25,420.7188 Q901.2344,420.2656 900.5625,419.4531 Q899.8906,418.6406 899.5625,417.5 Q899.2344,416.3438 899.2344,414.9531 Q899.2344,413.5781 899.6094,412.4219 Q899.9844,411.2656 900.7031,410.4375 Q901.4219,409.6094 902.4844,409.1563 Q903.5469,408.6875 904.9375,408.6875 Q905.8438,408.6875 906.75,408.9219 Q907.6563,409.1406 908.4844,409.5469 L907.6563,411.6406 Q906.9688,411.3125 906.2813,411.0781 Q905.5938,410.8281 904.9375,410.8281 Z " fill="#000000"/><text fill="#000000" font-family="sans-serif" font-size="14" lengthAdjust="spacing" textLength="30" x="919" y="419.8467">Type</text></g><!--class ParameterConcretization--><g id="elem_ParameterConcretization"><rect codeLine="75" fill="#CCFFFF" height="32" id="ParameterConcretization" rx="2.5" ry="2.5" style="stroke:#A9A9A9;stroke-width:0.5;" width="191" x="2520.5" y="99"/><ellipse cx="2535.5" cy="115" fill="#FFFFFF" rx="11" ry="11" style="stroke:#181818;stroke-width:1.0;"/><path d="M2535.4375,110.8281 Q2534.6875,110.8281 2534.125,111.125 Q2533.5625,111.4063 2533.1719,111.9375 Q2532.7813,112.4688 2532.5781,113.25 Q2532.3906,114.0156 2532.3906,114.9688 Q2532.3906,115.9375 2532.5625,116.7031 Q2532.75,117.4531 2533.1094,117.9688 Q2533.4844,118.4844 2534.0625,118.7656 Q2534.6406,119.0313 2535.4375,119.0313 Q2536.1719,119.0313 2536.9063,118.8594 Q2537.6563,118.6875 2538.5313,118.3906 L2538.5313,120.5469 Q2538.125,120.7031 2537.7344,120.8281 Q2537.3438,120.9375 2536.9375,121.0156 Q2536.5313,121.0938 2536.1094,121.125 Q2535.6875,121.1719 2535.1875,121.1719 Q2533.7813,121.1719 2532.75,120.7188 Q2531.7344,120.2656 2531.0625,119.4531 Q2530.3906,118.6406 2530.0625,117.5 Q2529.7344,116.3438 2529.7344,114.9531 Q2529.7344,113.5781 2530.1094,112.4219 Q2530.4844,111.2656 2531.2031,110.4375 Q2531.9219,109.6094 2532.9844,109.1563 Q2534.0469,108.6875 2535.4375,108.6875 Q2536.3438,108.6875 2537.25,108.9219 Q2538.1563,109.1406 2538.9844,109.5469 L2538.1563,111.6406 Q2537.4688,111.3125 2536.7813,111.0781 Q2536.0938,110.8281 2535.4375,110.8281 Z " fill="#000000"/><text fill="#000000" font-family="sans-serif" font-size="14" lengthAdjust="spacing" textLength="159" x="2549.5" y="119.8467">ParameterConcretization</text></g><!--class Alias--><g id="elem_Alias"><rect codeLine="77" fill="#CCFFFF" height="32" id="Alias" rx="2.5" ry="2.5" style="stroke:#A9A9A9;stroke-width:0.5;" width="62" x="1692" y="295"/><ellipse cx="1707" cy="311" fill="#FFFFFF" rx="11" ry="11" style="stroke:#181818;stroke-width:1.0;"/><path d="M1706.9375,306.8281 Q1706.1875,306.8281 1705.625,307.125 Q1705.0625,307.4063 1704.6719,307.9375 Q1704.2813,308.4688 1704.0781,309.25 Q1703.8906,310.0156 1703.8906,310.9688 Q1703.8906,311.9375 1704.0625,312.7031 Q1704.25,313.4531 1704.6094,313.9688 Q1704.9844,314.4844 1705.5625,314.7656 Q1706.1406,315.0313 1706.9375,315.0313 Q1707.6719,315.0313 1708.4063,314.8594 Q1709.1563,314.6875 1710.0313,314.3906 L1710.0313,316.5469 Q1709.625,316.7031 1709.2344,316.8281 Q1708.8438,316.9375 1708.4375,317.0156 Q1708.0313,317.0938 1707.6094,317.125 Q1707.1875,317.1719 1706.6875,317.1719 Q1705.2813,317.1719 1704.25,316.7188 Q1703.2344,316.2656 1702.5625,315.4531 Q1701.8906,314.6406 1701.5625,313.5 Q1701.2344,312.3438 1701.2344,310.9531 Q1701.2344,309.5781 1701.6094,308.4219 Q1701.9844,307.2656 1702.7031,306.4375 Q1703.4219,305.6094 1704.4844,305.1563 Q1705.5469,304.6875 1706.9375,304.6875 Q1707.8438,304.6875 1708.75,304.9219 Q1709.6563,305.1406 1710.4844,305.5469 L1709.6563,307.6406 Q1708.9688,307.3125 1708.2813,307.0781 Q1707.5938,306.8281 1706.9375,306.8281 Z " fill="#000000"/><text fill="#000000" font-family="sans-serif" font-size="14" lengthAdjust="spacing" textLength="30" x="1721" y="315.8467">Alias</text></g><!--class ImportClause--><g id="elem_ImportClause"><rect codeLine="79" fill="#CCFFFF" height="32" id="ImportClause" rx="2.5" ry="2.5" style="stroke:#A9A9A9;stroke-width:0.5;" width="118" x="2747" y="99"/><ellipse cx="2762" cy="115" fill="#FFFFFF" rx="11" ry="11" style="stroke:#181818;stroke-width:1.0;"/><path d="M2761.9375,110.8281 Q2761.1875,110.8281 2760.625,111.125 Q2760.0625,111.4063 2759.6719,111.9375 Q2759.2813,112.4688 2759.0781,113.25 Q2758.8906,114.0156 2758.8906,114.9688 Q2758.8906,115.9375 2759.0625,116.7031 Q2759.25,117.4531 2759.6094,117.9688 Q2759.9844,118.4844 2760.5625,118.7656 Q2761.1406,119.0313 2761.9375,119.0313 Q2762.6719,119.0313 2763.4063,118.8594 Q2764.1563,118.6875 2765.0313,118.3906 L2765.0313,120.5469 Q2764.625,120.7031 2764.2344,120.8281 Q2763.8438,120.9375 2763.4375,121.0156 Q2763.0313,121.0938 2762.6094,121.125 Q2762.1875,121.1719 2761.6875,121.1719 Q2760.2813,121.1719 2759.25,120.7188 Q2758.2344,120.2656 2757.5625,119.4531 Q2756.8906,118.6406 2756.5625,117.5 Q2756.2344,116.3438 2756.2344,114.9531 Q2756.2344,113.5781 2756.6094,112.4219 Q2756.9844,111.2656 2757.7031,110.4375 Q2758.4219,109.6094 2759.4844,109.1563 Q2760.5469,108.6875 2761.9375,108.6875 Q2762.8438,108.6875 2763.75,108.9219 Q2764.6563,109.1406 2765.4844,109.5469 L2764.6563,111.6406 Q2763.9688,111.3125 2763.2813,111.0781 Q2762.5938,110.8281 2761.9375,110.8281 Z " fill="#000000"/><text fill="#000000" font-family="sans-serif" font-size="14" lengthAdjust="spacing" textLength="86" x="2776" y="119.8467">ImportClause</text></g><!--class Accessor--><g id="elem_Accessor"><rect codeLine="81" fill="#CCFFFF" height="32" id="Accessor" rx="2.5" ry="2.5" style="stroke:#A9A9A9;stroke-width:0.5;" width="87" x="310.5" y="583"/><ellipse cx="325.5" cy="599" fill="#FFFFFF" rx="11" ry="11" style="stroke:#181818;stroke-width:1.0;"/><path d="M325.4375,594.8281 Q324.6875,594.8281 324.125,595.125 Q323.5625,595.4063 323.1719,595.9375 Q322.7813,596.4688 322.5781,597.25 Q322.3906,598.0156 322.3906,598.9688 Q322.3906,599.9375 322.5625,600.7031 Q322.75,601.4531 323.1094,601.9688 Q323.4844,602.4844 324.0625,602.7656 Q324.6406,603.0313 325.4375,603.0313 Q326.1719,603.0313 326.9063,602.8594 Q327.6563,602.6875 328.5313,602.3906 L328.5313,604.5469 Q328.125,604.7031 327.7344,604.8281 Q327.3438,604.9375 326.9375,605.0156 Q326.5313,605.0938 326.1094,605.125 Q325.6875,605.1719 325.1875,605.1719 Q323.7813,605.1719 322.75,604.7188 Q321.7344,604.2656 321.0625,603.4531 Q320.3906,602.6406 320.0625,601.5 Q319.7344,600.3438 319.7344,598.9531 Q319.7344,597.5781 320.1094,596.4219 Q320.4844,595.2656 321.2031,594.4375 Q321.9219,593.6094 322.9844,593.1563 Q324.0469,592.6875 325.4375,592.6875 Q326.3438,592.6875 327.25,592.9219 Q328.1563,593.1406 328.9844,593.5469 L328.1563,595.6406 Q327.4688,595.3125 326.7813,595.0781 Q326.0938,594.8281 325.4375,594.8281 Z " fill="#000000"/><text fill="#000000" font-family="sans-serif" font-size="14" lengthAdjust="spacing" textLength="55" x="339.5" y="603.8467">Accessor</text></g><!--class Decorator--><g id="elem_Decorator"><rect codeLine="83" fill="#CCFFFF" height="56.2969" id="Decorator" rx="2.5" ry="2.5" style="stroke:#A9A9A9;stroke-width:0.5;" width="122" x="1789" y="283"/><ellipse cx="1815.7" cy="299" fill="#FFFFFF" rx="11" ry="11" style="stroke:#181818;stroke-width:1.0;"/><path d="M1815.6375,294.8281 Q1814.8875,294.8281 1814.325,295.125 Q1813.7625,295.4063 1813.3719,295.9375 Q1812.9813,296.4688 1812.7781,297.25 Q1812.5906,298.0156 1812.5906,298.9688 Q1812.5906,299.9375 1812.7625,300.7031 Q1812.95,301.4531 1813.3094,301.9688 Q1813.6844,302.4844 1814.2625,302.7656 Q1814.8406,303.0313 1815.6375,303.0313 Q1816.3719,303.0313 1817.1063,302.8594 Q1817.8563,302.6875 1818.7313,302.3906 L1818.7313,304.5469 Q1818.325,304.7031 1817.9344,304.8281 Q1817.5438,304.9375 1817.1375,305.0156 Q1816.7313,305.0938 1816.3094,305.125 Q1815.8875,305.1719 1815.3875,305.1719 Q1813.9813,305.1719 1812.95,304.7188 Q1811.9344,304.2656 1811.2625,303.4531 Q1810.5906,302.6406 1810.2625,301.5 Q1809.9344,300.3438 1809.9344,298.9531 Q1809.9344,297.5781 1810.3094,296.4219 Q1810.6844,295.2656 1811.4031,294.4375 Q1812.1219,293.6094 1813.1844,293.1563 Q1814.2469,292.6875 1815.6375,292.6875 Q1816.5438,292.6875 1817.45,292.9219 Q1818.3563,293.1406 1819.1844,293.5469 L1818.3563,295.6406 Q1817.6688,295.3125 1816.9813,295.0781 Q1816.2938,294.8281 1815.6375,294.8281 Z " fill="#000000"/><text fill="#000000" font-family="sans-serif" font-size="14" lengthAdjust="spacing" textLength="64" x="1832.3" y="303.8467">Decorator</text><line style="stroke:#A9A9A9;stroke-width:0.5;" x1="1790" x2="1910" y1="315" y2="315"/><text fill="#000000" font-family="sans-serif" font-size="14" lengthAdjust="spacing" textLength="110" x="1795" y="331.9951">String expression</text></g><!--class Function--><g id="elem_Function"><rect codeLine="86" fill="#CCFFFF" height="32" id="Function" rx="2.5" ry="2.5" style="stroke:#A9A9A9;stroke-width:0.5;" width="86" x="449" y="491"/><ellipse cx="464" cy="507" fill="#FFFFFF" rx="11" ry="11" style="stroke:#181818;stroke-width:1.0;"/><path d="M463.9375,502.8281 Q463.1875,502.8281 462.625,503.125 Q462.0625,503.4063 461.6719,503.9375 Q461.2813,504.4688 461.0781,505.25 Q460.8906,506.0156 460.8906,506.9688 Q460.8906,507.9375 461.0625,508.7031 Q461.25,509.4531 461.6094,509.9688 Q461.9844,510.4844 462.5625,510.7656 Q463.1406,511.0313 463.9375,511.0313 Q464.6719,511.0313 465.4063,510.8594 Q466.1563,510.6875 467.0313,510.3906 L467.0313,512.5469 Q466.625,512.7031 466.2344,512.8281 Q465.8438,512.9375 465.4375,513.0156 Q465.0313,513.0938 464.6094,513.125 Q464.1875,513.1719 463.6875,513.1719 Q462.2813,513.1719 461.25,512.7188 Q460.2344,512.2656 459.5625,511.4531 Q458.8906,510.6406 458.5625,509.5 Q458.2344,508.3438 458.2344,506.9531 Q458.2344,505.5781 458.6094,504.4219 Q458.9844,503.2656 459.7031,502.4375 Q460.4219,501.6094 461.4844,501.1563 Q462.5469,500.6875 463.9375,500.6875 Q464.8438,500.6875 465.75,500.9219 Q466.6563,501.1406 467.4844,501.5469 L466.6563,503.6406 Q465.9688,503.3125 465.2813,503.0781 Q464.5938,502.8281 463.9375,502.8281 Z " fill="#000000"/><text fill="#000000" font-family="sans-serif" font-size="14" lengthAdjust="spacing" textLength="54" x="478" y="511.8467">Function</text></g><!--class Folder--><g id="elem_Folder"><rect codeLine="88" fill="#CCFFFF" height="32" id="Folder" rx="2.5" ry="2.5" style="stroke:#A9A9A9;stroke-width:0.5;" width="73" x="1946.5" y="295"/><ellipse cx="1961.5" cy="311" fill="#FFFFFF" rx="11" ry="11" style="stroke:#181818;stroke-width:1.0;"/><path d="M1961.4375,306.8281 Q1960.6875,306.8281 1960.125,307.125 Q1959.5625,307.4063 1959.1719,307.9375 Q1958.7813,308.4688 1958.5781,309.25 Q1958.3906,310.0156 1958.3906,310.9688 Q1958.3906,311.9375 1958.5625,312.7031 Q1958.75,313.4531 1959.1094,313.9688 Q1959.4844,314.4844 1960.0625,314.7656 Q1960.6406,315.0313 1961.4375,315.0313 Q1962.1719,315.0313 1962.9063,314.8594 Q1963.6563,314.6875 1964.5313,314.3906 L1964.5313,316.5469 Q1964.125,316.7031 1963.7344,316.8281 Q1963.3438,316.9375 1962.9375,317.0156 Q1962.5313,317.0938 1962.1094,317.125 Q1961.6875,317.1719 1961.1875,317.1719 Q1959.7813,317.1719 1958.75,316.7188 Q1957.7344,316.2656 1957.0625,315.4531 Q1956.3906,314.6406 1956.0625,313.5 Q1955.7344,312.3438 1955.7344,310.9531 Q1955.7344,309.5781 1956.1094,308.4219 Q1956.4844,307.2656 1957.2031,306.4375 Q1957.9219,305.6094 1958.9844,305.1563 Q1960.0469,304.6875 1961.4375,304.6875 Q1962.3438,304.6875 1963.25,304.9219 Q1964.1563,305.1406 1964.9844,305.5469 L1964.1563,307.6406 Q1963.4688,307.3125 1962.7813,307.0781 Q1962.0938,306.8281 1961.4375,306.8281 Z " fill="#000000"/><text fill="#000000" font-family="sans-serif" font-size="14" lengthAdjust="spacing" textLength="41" x="1975.5" y="315.8467">Folder</text></g><!--class ParametricFunction--><g id="elem_ParametricFunction"><rect codeLine="90" fill="#CCFFFF" height="32" id="ParametricFunction" rx="2.5" ry="2.5" style="stroke:#A9A9A9;stroke-width:0.5;" width="156" x="433" y="583"/><ellipse cx="448" cy="599" fill="#FFFFFF" rx="11" ry="11" style="stroke:#181818;stroke-width:1.0;"/><path d="M447.9375,594.8281 Q447.1875,594.8281 446.625,595.125 Q446.0625,595.4063 445.6719,595.9375 Q445.2813,596.4688 445.0781,597.25 Q444.8906,598.0156 444.8906,598.9688 Q444.8906,599.9375 445.0625,600.7031 Q445.25,601.4531 445.6094,601.9688 Q445.9844,602.4844 446.5625,602.7656 Q447.1406,603.0313 447.9375,603.0313 Q448.6719,603.0313 449.4063,602.8594 Q450.1563,602.6875 451.0313,602.3906 L451.0313,604.5469 Q450.625,604.7031 450.2344,604.8281 Q449.8438,604.9375 449.4375,605.0156 Q449.0313,605.0938 448.6094,605.125 Q448.1875,605.1719 447.6875,605.1719 Q446.2813,605.1719 445.25,604.7188 Q444.2344,604.2656 443.5625,603.4531 Q442.8906,602.6406 442.5625,601.5 Q442.2344,600.3438 442.2344,598.9531 Q442.2344,597.5781 442.6094,596.4219 Q442.9844,595.2656 443.7031,594.4375 Q444.4219,593.6094 445.4844,593.1563 Q446.5469,592.6875 447.9375,592.6875 Q448.8438,592.6875 449.75,592.9219 Q450.6563,593.1406 451.4844,593.5469 L450.6563,595.6406 Q449.9688,595.3125 449.2813,595.0781 Q448.5938,594.8281 447.9375,594.8281 Z " fill="#000000"/><text fill="#000000" font-family="sans-serif" font-size="14" lengthAdjust="spacing" textLength="124" x="462" y="603.8467">ParametricFunction</text></g><!--class File--><g id="elem_File"><rect codeLine="92" fill="#CCFFFF" height="32" id="File" rx="2.5" ry="2.5" style="stroke:#A9A9A9;stroke-width:0.5;" width="55" x="2054.5" y="295"/><ellipse cx="2069.5" cy="311" fill="#FFFFFF" rx="11" ry="11" style="stroke:#181818;stroke-width:1.0;"/><path d="M2069.4375,306.8281 Q2068.6875,306.8281 2068.125,307.125 Q2067.5625,307.4063 2067.1719,307.9375 Q2066.7813,308.4688 2066.5781,309.25 Q2066.3906,310.0156 2066.3906,310.9688 Q2066.3906,311.9375 2066.5625,312.7031 Q2066.75,313.4531 2067.1094,313.9688 Q2067.4844,314.4844 2068.0625,314.7656 Q2068.6406,315.0313 2069.4375,315.0313 Q2070.1719,315.0313 2070.9063,314.8594 Q2071.6563,314.6875 2072.5313,314.3906 L2072.5313,316.5469 Q2072.125,316.7031 2071.7344,316.8281 Q2071.3438,316.9375 2070.9375,317.0156 Q2070.5313,317.0938 2070.1094,317.125 Q2069.6875,317.1719 2069.1875,317.1719 Q2067.7813,317.1719 2066.75,316.7188 Q2065.7344,316.2656 2065.0625,315.4531 Q2064.3906,314.6406 2064.0625,313.5 Q2063.7344,312.3438 2063.7344,310.9531 Q2063.7344,309.5781 2064.1094,308.4219 Q2064.4844,307.2656 2065.2031,306.4375 Q2065.9219,305.6094 2066.9844,305.1563 Q2068.0469,304.6875 2069.4375,304.6875 Q2070.3438,304.6875 2071.25,304.9219 Q2072.1563,305.1406 2072.9844,305.5469 L2072.1563,307.6406 Q2071.4688,307.3125 2070.7813,307.0781 Q2070.0938,306.8281 2069.4375,306.8281 Z " fill="#000000"/><text fill="#000000" font-family="sans-serif" font-size="14" lengthAdjust="spacing" textLength="23" x="2083.5" y="315.8467">File</text></g><!--class Namespace--><g id="elem_Namespace"><rect codeLine="94" fill="#CCFFFF" height="32" id="Namespace" rx="2.5" ry="2.5" style="stroke:#A9A9A9;stroke-width:0.5;" width="105" x="164.5" y="491"/><ellipse cx="179.5" cy="507" fill="#FFFFFF" rx="11" ry="11" style="stroke:#181818;stroke-width:1.0;"/><path d="M179.4375,502.8281 Q178.6875,502.8281 178.125,503.125 Q177.5625,503.4063 177.1719,503.9375 Q176.7813,504.4688 176.5781,505.25 Q176.3906,506.0156 176.3906,506.9688 Q176.3906,507.9375 176.5625,508.7031 Q176.75,509.4531 177.1094,509.9688 Q177.4844,510.4844 178.0625,510.7656 Q178.6406,511.0313 179.4375,511.0313 Q180.1719,511.0313 180.9063,510.8594 Q181.6563,510.6875 182.5313,510.3906 L182.5313,512.5469 Q182.125,512.7031 181.7344,512.8281 Q181.3438,512.9375 180.9375,513.0156 Q180.5313,513.0938 180.1094,513.125 Q179.6875,513.1719 179.1875,513.1719 Q177.7813,513.1719 176.75,512.7188 Q175.7344,512.2656 175.0625,511.4531 Q174.3906,510.6406 174.0625,509.5 Q173.7344,508.3438 173.7344,506.9531 Q173.7344,505.5781 174.1094,504.4219 Q174.4844,503.2656 175.2031,502.4375 Q175.9219,501.6094 176.9844,501.1563 Q178.0469,500.6875 179.4375,500.6875 Q180.3438,500.6875 181.25,500.9219 Q182.1563,501.1406 182.9844,501.5469 L182.1563,503.6406 Q181.4688,503.3125 180.7813,503.0781 Q180.0938,502.8281 179.4375,502.8281 Z " fill="#000000"/><text fill="#000000" font-family="sans-serif" font-size="14" lengthAdjust="spacing" textLength="73" x="193.5" y="511.8467">Namespace</text></g><!--class implicitVariable--><g id="elem_implicitVariable"><rect codeLine="96" fill="#CCFFFF" height="32" id="implicitVariable" rx="2.5" ry="2.5" style="stroke:#A9A9A9;stroke-width:0.5;" width="132" x="1405" y="491"/><ellipse cx="1420" cy="507" fill="#FFFFFF" rx="11" ry="11" style="stroke:#181818;stroke-width:1.0;"/><path d="M1419.9375,502.8281 Q1419.1875,502.8281 1418.625,503.125 Q1418.0625,503.4063 1417.6719,503.9375 Q1417.2813,504.4688 1417.0781,505.25 Q1416.8906,506.0156 1416.8906,506.9688 Q1416.8906,507.9375 1417.0625,508.7031 Q1417.25,509.4531 1417.6094,509.9688 Q1417.9844,510.4844 1418.5625,510.7656 Q1419.1406,511.0313 1419.9375,511.0313 Q1420.6719,511.0313 1421.4063,510.8594 Q1422.1563,510.6875 1423.0313,510.3906 L1423.0313,512.5469 Q1422.625,512.7031 1422.2344,512.8281 Q1421.8438,512.9375 1421.4375,513.0156 Q1421.0313,513.0938 1420.6094,513.125 Q1420.1875,513.1719 1419.6875,513.1719 Q1418.2813,513.1719 1417.25,512.7188 Q1416.2344,512.2656 1415.5625,511.4531 Q1414.8906,510.6406 1414.5625,509.5 Q1414.2344,508.3438 1414.2344,506.9531 Q1414.2344,505.5781 1414.6094,504.4219 Q1414.9844,503.2656 1415.7031,502.4375 Q1416.4219,501.6094 1417.4844,501.1563 Q1418.5469,500.6875 1419.9375,500.6875 Q1420.8438,500.6875 1421.75,500.9219 Q1422.6563,501.1406 1423.4844,501.5469 L1422.6563,503.6406 Q1421.9688,503.3125 1421.2813,503.0781 Q1420.5938,502.8281 1419.9375,502.8281 Z " fill="#000000"/><text fill="#000000" font-family="sans-serif" font-size="14" lengthAdjust="spacing" textLength="100" x="1434" y="511.8467">implicitVariable</text></g><!--class Parameter--><g id="elem_Parameter"><rect codeLine="98" fill="#CCFFFF" height="32" id="Parameter" rx="2.5" ry="2.5" style="stroke:#A9A9A9;stroke-width:0.5;" width="100" x="1671" y="399"/><ellipse cx="1686" cy="415" fill="#FFFFFF" rx="11" ry="11" style="stroke:#181818;stroke-width:1.0;"/><path d="M1685.9375,410.8281 Q1685.1875,410.8281 1684.625,411.125 Q1684.0625,411.4063 1683.6719,411.9375 Q1683.2813,412.4688 1683.0781,413.25 Q1682.8906,414.0156 1682.8906,414.9688 Q1682.8906,415.9375 1683.0625,416.7031 Q1683.25,417.4531 1683.6094,417.9688 Q1683.9844,418.4844 1684.5625,418.7656 Q1685.1406,419.0313 1685.9375,419.0313 Q1686.6719,419.0313 1687.4063,418.8594 Q1688.1563,418.6875 1689.0313,418.3906 L1689.0313,420.5469 Q1688.625,420.7031 1688.2344,420.8281 Q1687.8438,420.9375 1687.4375,421.0156 Q1687.0313,421.0938 1686.6094,421.125 Q1686.1875,421.1719 1685.6875,421.1719 Q1684.2813,421.1719 1683.25,420.7188 Q1682.2344,420.2656 1681.5625,419.4531 Q1680.8906,418.6406 1680.5625,417.5 Q1680.2344,416.3438 1680.2344,414.9531 Q1680.2344,413.5781 1680.6094,412.4219 Q1680.9844,411.2656 1681.7031,410.4375 Q1682.4219,409.6094 1683.4844,409.1563 Q1684.5469,408.6875 1685.9375,408.6875 Q1686.8438,408.6875 1687.75,408.9219 Q1688.6563,409.1406 1689.4844,409.5469 L1688.6563,411.6406 Q1687.9688,411.3125 1687.2813,411.0781 Q1686.5938,410.8281 1685.9375,410.8281 Z " fill="#000000"/><text fill="#000000" font-family="sans-serif" font-size="14" lengthAdjust="spacing" textLength="68" x="1700" y="419.8467">Parameter</text></g><!--class Concretization--><g id="elem_Concretization"><rect codeLine="100" fill="#CCFFFF" height="32" id="Concretization" rx="2.5" ry="2.5" style="stroke:#A9A9A9;stroke-width:0.5;" width="123" x="2900.5" y="99"/><ellipse cx="2915.5" cy="115" fill="#FFFFFF" rx="11" ry="11" style="stroke:#181818;stroke-width:1.0;"/><path d="M2915.4375,110.8281 Q2914.6875,110.8281 2914.125,111.125 Q2913.5625,111.4063 2913.1719,111.9375 Q2912.7813,112.4688 2912.5781,113.25 Q2912.3906,114.0156 2912.3906,114.9688 Q2912.3906,115.9375 2912.5625,116.7031 Q2912.75,117.4531 2913.1094,117.9688 Q2913.4844,118.4844 2914.0625,118.7656 Q2914.6406,119.0313 2915.4375,119.0313 Q2916.1719,119.0313 2916.9063,118.8594 Q2917.6563,118.6875 2918.5313,118.3906 L2918.5313,120.5469 Q2918.125,120.7031 2917.7344,120.8281 Q2917.3438,120.9375 2916.9375,121.0156 Q2916.5313,121.0938 2916.1094,121.125 Q2915.6875,121.1719 2915.1875,121.1719 Q2913.7813,121.1719 2912.75,120.7188 Q2911.7344,120.2656 2911.0625,119.4531 Q2910.3906,118.6406 2910.0625,117.5 Q2909.7344,116.3438 2909.7344,114.9531 Q2909.7344,113.5781 2910.1094,112.4219 Q2910.4844,111.2656 2911.2031,110.4375 Q2911.9219,109.6094 2912.9844,109.1563 Q2914.0469,108.6875 2915.4375,108.6875 Q2916.3438,108.6875 2917.25,108.9219 Q2918.1563,109.1406 2918.9844,109.5469 L2918.1563,111.6406 Q2917.4688,111.3125 2916.7813,111.0781 Q2916.0938,110.8281 2915.4375,110.8281 Z " fill="#000000"/><text fill="#000000" font-family="sans-serif" font-size="14" lengthAdjust="spacing" textLength="91" x="2929.5" y="119.8467">Concretization</text></g><!--class ParametricInterface--><g id="elem_ParametricInterface"><rect codeLine="102" fill="#CCFFFF" height="32" id="ParametricInterface" rx="2.5" ry="2.5" style="stroke:#A9A9A9;stroke-width:0.5;" width="160" x="624" y="583"/><ellipse cx="639" cy="599" fill="#FFFFFF" rx="11" ry="11" style="stroke:#181818;stroke-width:1.0;"/><path d="M638.9375,594.8281 Q638.1875,594.8281 637.625,595.125 Q637.0625,595.4063 636.6719,595.9375 Q636.2813,596.4688 636.0781,597.25 Q635.8906,598.0156 635.8906,598.9688 Q635.8906,599.9375 636.0625,600.7031 Q636.25,601.4531 636.6094,601.9688 Q636.9844,602.4844 637.5625,602.7656 Q638.1406,603.0313 638.9375,603.0313 Q639.6719,603.0313 640.4063,602.8594 Q641.1563,602.6875 642.0313,602.3906 L642.0313,604.5469 Q641.625,604.7031 641.2344,604.8281 Q640.8438,604.9375 640.4375,605.0156 Q640.0313,605.0938 639.6094,605.125 Q639.1875,605.1719 638.6875,605.1719 Q637.2813,605.1719 636.25,604.7188 Q635.2344,604.2656 634.5625,603.4531 Q633.8906,602.6406 633.5625,601.5 Q633.2344,600.3438 633.2344,598.9531 Q633.2344,597.5781 633.6094,596.4219 Q633.9844,595.2656 634.7031,594.4375 Q635.4219,593.6094 636.4844,593.1563 Q637.5469,592.6875 638.9375,592.6875 Q639.8438,592.6875 640.75,592.9219 Q641.6563,593.1406 642.4844,593.5469 L641.6563,595.6406 Q640.9688,595.3125 640.2813,595.0781 Q639.5938,594.8281 638.9375,594.8281 Z " fill="#000000"/><text fill="#000000" font-family="sans-serif" font-size="14" lengthAdjust="spacing" textLength="128" x="653" y="603.8467">ParametricInterface</text></g><!--class Reference--><g id="elem_Reference"><rect codeLine="104" fill="#CCFFFF" height="32" id="Reference" rx="2.5" ry="2.5" style="stroke:#A9A9A9;stroke-width:0.5;" width="97" x="3058.5" y="99"/><ellipse cx="3073.5" cy="115" fill="#FFFFFF" rx="11" ry="11" style="stroke:#181818;stroke-width:1.0;"/><path d="M3073.4375,110.8281 Q3072.6875,110.8281 3072.125,111.125 Q3071.5625,111.4063 3071.1719,111.9375 Q3070.7813,112.4688 3070.5781,113.25 Q3070.3906,114.0156 3070.3906,114.9688 Q3070.3906,115.9375 3070.5625,116.7031 Q3070.75,117.4531 3071.1094,117.9688 Q3071.4844,118.4844 3072.0625,118.7656 Q3072.6406,119.0313 3073.4375,119.0313 Q3074.1719,119.0313 3074.9063,118.8594 Q3075.6563,118.6875 3076.5313,118.3906 L3076.5313,120.5469 Q3076.125,120.7031 3075.7344,120.8281 Q3075.3438,120.9375 3074.9375,121.0156 Q3074.5313,121.0938 3074.1094,121.125 Q3073.6875,121.1719 3073.1875,121.1719 Q3071.7813,121.1719 3070.75,120.7188 Q3069.7344,120.2656 3069.0625,119.4531 Q3068.3906,118.6406 3068.0625,117.5 Q3067.7344,116.3438 3067.7344,114.9531 Q3067.7344,113.5781 3068.1094,112.4219 Q3068.4844,111.2656 3069.2031,110.4375 Q3069.9219,109.6094 3070.9844,109.1563 Q3072.0469,108.6875 3073.4375,108.6875 Q3074.3438,108.6875 3075.25,108.9219 Q3076.1563,109.1406 3076.9844,109.5469 L3076.1563,111.6406 Q3075.4688,111.3125 3074.7813,111.0781 Q3074.0938,110.8281 3073.4375,110.8281 Z " fill="#000000"/><text fill="#000000" font-family="sans-serif" font-size="14" lengthAdjust="spacing" textLength="65" x="3087.5" y="119.8467">Reference</text></g><!--class EnumValue--><g id="elem_EnumValue"><rect codeLine="106" fill="#CCFFFF" height="32" id="EnumValue" rx="2.5" ry="2.5" style="stroke:#A9A9A9;stroke-width:0.5;" width="103" x="1806.5" y="399"/><ellipse cx="1821.5" cy="415" fill="#FFFFFF" rx="11" ry="11" style="stroke:#181818;stroke-width:1.0;"/><path d="M1821.4375,410.8281 Q1820.6875,410.8281 1820.125,411.125 Q1819.5625,411.4063 1819.1719,411.9375 Q1818.7813,412.4688 1818.5781,413.25 Q1818.3906,414.0156 1818.3906,414.9688 Q1818.3906,415.9375 1818.5625,416.7031 Q1818.75,417.4531 1819.1094,417.9688 Q1819.4844,418.4844 1820.0625,418.7656 Q1820.6406,419.0313 1821.4375,419.0313 Q1822.1719,419.0313 1822.9063,418.8594 Q1823.6563,418.6875 1824.5313,418.3906 L1824.5313,420.5469 Q1824.125,420.7031 1823.7344,420.8281 Q1823.3438,420.9375 1822.9375,421.0156 Q1822.5313,421.0938 1822.1094,421.125 Q1821.6875,421.1719 1821.1875,421.1719 Q1819.7813,421.1719 1818.75,420.7188 Q1817.7344,420.2656 1817.0625,419.4531 Q1816.3906,418.6406 1816.0625,417.5 Q1815.7344,416.3438 1815.7344,414.9531 Q1815.7344,413.5781 1816.1094,412.4219 Q1816.4844,411.2656 1817.2031,410.4375 Q1817.9219,409.6094 1818.9844,409.1563 Q1820.0469,408.6875 1821.4375,408.6875 Q1822.3438,408.6875 1823.25,408.9219 Q1824.1563,409.1406 1824.9844,409.5469 L1824.1563,411.6406 Q1823.4688,411.3125 1822.7813,411.0781 Q1822.0938,410.8281 1821.4375,410.8281 Z " fill="#000000"/><text fill="#000000" font-family="sans-serif" font-size="14" lengthAdjust="spacing" textLength="71" x="1835.5" y="419.8467">EnumValue</text></g><!--class SourceTextAnchor--><g id="elem_SourceTextAnchor"><rect codeLine="108" fill="#CCFFFF" height="32" id="SourceTextAnchor" rx="2.5" ry="2.5" style="stroke:#A9A9A9;stroke-width:0.5;" width="147" x="2232.5" y="191"/><ellipse cx="2247.5" cy="207" fill="#FFFFFF" rx="11" ry="11" style="stroke:#181818;stroke-width:1.0;"/><path d="M2247.4375,202.8281 Q2246.6875,202.8281 2246.125,203.125 Q2245.5625,203.4063 2245.1719,203.9375 Q2244.7813,204.4688 2244.5781,205.25 Q2244.3906,206.0156 2244.3906,206.9688 Q2244.3906,207.9375 2244.5625,208.7031 Q2244.75,209.4531 2245.1094,209.9688 Q2245.4844,210.4844 2246.0625,210.7656 Q2246.6406,211.0313 2247.4375,211.0313 Q2248.1719,211.0313 2248.9063,210.8594 Q2249.6563,210.6875 2250.5313,210.3906 L2250.5313,212.5469 Q2250.125,212.7031 2249.7344,212.8281 Q2249.3438,212.9375 2248.9375,213.0156 Q2248.5313,213.0938 2248.1094,213.125 Q2247.6875,213.1719 2247.1875,213.1719 Q2245.7813,213.1719 2244.75,212.7188 Q2243.7344,212.2656 2243.0625,211.4531 Q2242.3906,210.6406 2242.0625,209.5 Q2241.7344,208.3438 2241.7344,206.9531 Q2241.7344,205.5781 2242.1094,204.4219 Q2242.4844,203.2656 2243.2031,202.4375 Q2243.9219,201.6094 2244.9844,201.1563 Q2246.0469,200.6875 2247.4375,200.6875 Q2248.3438,200.6875 2249.25,200.9219 Q2250.1563,201.1406 2250.9844,201.5469 L2250.1563,203.6406 Q2249.4688,203.3125 2248.7813,203.0781 Q2248.0938,202.8281 2247.4375,202.8281 Z " fill="#000000"/><text fill="#000000" font-family="sans-serif" font-size="14" lengthAdjust="spacing" textLength="115" x="2261.5" y="211.8467">SourceTextAnchor</text></g><!--reverse link Class to ParametricClass--><g id="link_Class_ParametricClass"><path codeLine="110" d="M1337,543.61 C1337,557.31 1337,572.22 1337,582.96 " fill="none" id="Class-backto-ParametricClass" style="stroke:#000000;stroke-width:1.0;"/><polygon fill="none" points="1330,543.27,1337,523.27,1344,543.27,1330,543.27" style="stroke:#000000;stroke-width:1.0;"/></g><!--reverse link NamedEntity to ContainerEntity--><g id="link_NamedEntity_ContainerEntity"><path codeLine="111" d="M1772.75,222.95 C1382,276.77 936.85,300.02 772.31,307.32 " fill="none" id="NamedEntity-backto-ContainerEntity" style="stroke:#000000;stroke-width:1.0;"/><polygon fill="none" points="1772.01,215.98,1792.79,220.15,1773.95,229.85,1772.01,215.98" style="stroke:#000000;stroke-width:1.0;"/></g><!--reverse link ContainerEntity to ScopingEntity--><g id="link_ContainerEntity_ScopingEntity"><path codeLine="112" d="M622.35,329.62 C523.07,350.29 361.14,383.99 275.07,401.91 " fill="none" id="ContainerEntity-backto-ScopingEntity" style="stroke:#000000;stroke-width:1.0;"/><polygon fill="none" points="620.92,322.77,641.93,325.54,623.78,336.47,620.92,322.77" style="stroke:#000000;stroke-width:1.0;"/></g><!--reverse link ScriptEntity to Module--><g id="link_ScriptEntity_Module"><path codeLine="113" d="M55.04,543.61 C53.52,557.31 51.86,572.22 50.67,582.96 " fill="none" id="ScriptEntity-backto-Module" style="stroke:#000000;stroke-width:1.0;"/><polygon fill="none" points="48.14,542.37,57.3,523.27,62.05,543.92,48.14,542.37" style="stroke:#000000;stroke-width:1.0;"/></g><!--reverse link SourceAnchor to IndexedFileAnchor--><g id="link_SourceAnchor_IndexedFileAnchor"><path codeLine="114" d="M2121,151.61 C2121,165.31 2121,180.22 2121,190.96 " fill="none" id="SourceAnchor-backto-IndexedFileAnchor" style="stroke:#000000;stroke-width:1.0;"/><polygon fill="none" points="2114,151.27,2121,131.27,2128,151.27,2114,151.27" style="stroke:#000000;stroke-width:1.0;"/></g><!--reverse link Entity to SourceLanguage--><g id="link_Entity_SourceLanguage"><path codeLine="115" d="M2210.72,29.51 C2102.23,40.74 1851,67.87 1641,99 C1635.22,99.86 1629.23,100.8 1623.22,101.79 " fill="none" id="Entity-backto-SourceLanguage" style="stroke:#000000;stroke-width:1.0;"/><polygon fill="none" points="2210.14,22.53,2230.75,27.45,2211.57,36.46,2210.14,22.53" style="stroke:#000000;stroke-width:1.0;"/></g><!--reverse link Entity to Inheritance--><g id="link_Entity_Inheritance"><path codeLine="116" d="M2210.95,31.34 C2121.33,43.75 1936.44,70.33 1781,99 C1775.38,100.04 1769.52,101.19 1763.68,102.37 " fill="none" id="Entity-backto-Inheritance" style="stroke:#000000;stroke-width:1.0;"/><polygon fill="none" points="2210.08,24.4,2230.85,28.6,2211.99,38.27,2210.08,24.4" style="stroke:#000000;stroke-width:1.0;"/></g><!--reverse link Type to Interface--><g id="link_Type_Interface"><path codeLine="117" d="M870.59,430.83 C812.05,448.04 716.37,476.19 660.17,492.72 " fill="none" id="Type-backto-Interface" style="stroke:#000000;stroke-width:1.0;"/><polygon fill="none" points="868.81,424.05,889.98,425.12,872.76,437.48,868.81,424.05" style="stroke:#000000;stroke-width:1.0;"/></g><!--reverse link Type to ParameterType--><g id="link_Type_ParameterType"><path codeLine="118" d="M876.51,440.87 C847.82,456.91 811.44,477.24 787.04,490.89 " fill="none" id="Type-backto-ParameterType" style="stroke:#000000;stroke-width:1.0;"/><polygon fill="none" points="873.18,434.71,894.05,431.06,880.01,446.93,873.18,434.71" style="stroke:#000000;stroke-width:1.0;"/></g><!--reverse link Entity to Access--><g id="link_Entity_Access"><path codeLine="119" d="M2211.04,33.46 C2137.77,46.61 2002.89,71.86 1889,99 C1883.32,100.35 1877.34,101.9 1871.5,103.47 " fill="none" id="Entity-backto-Access" style="stroke:#000000;stroke-width:1.0;"/><polygon fill="none" points="2209.94,26.55,2230.86,29.94,2212.39,40.33,2209.94,26.55" style="stroke:#000000;stroke-width:1.0;"/></g><!--reverse link SourcedEntity to Comment--><g id="link_SourcedEntity_Comment"><path codeLine="120" d="M1904.21,137.72 C1857.44,154.17 1794.39,176.33 1752.99,190.89 " fill="none" id="SourcedEntity-backto-Comment" style="stroke:#000000;stroke-width:1.0;"/><polygon fill="none" points="1901.96,131.09,1923.15,131.06,1906.61,144.3,1901.96,131.09" style="stroke:#000000;stroke-width:1.0;"/></g><!--reverse link StructuralEntity to Variable--><g id="link_StructuralEntity_Variable"><path codeLine="121" d="M1558.76,340.02 C1536.21,359.03 1507.27,383.42 1488.93,398.89 " fill="none" id="StructuralEntity-backto-Variable" style="stroke:#000000;stroke-width:1.0;"/><polygon fill="none" points="1554.34,334.59,1574.15,327.05,1563.37,345.29,1554.34,334.59" style="stroke:#000000;stroke-width:1.0;"/></g><!--reverse link Type to PrimitiveType--><g id="link_Type_PrimitiveType"><path codeLine="122" d="M921,451.61 C921,465.31 921,480.22 921,490.96 " fill="none" id="Type-backto-PrimitiveType" style="stroke:#000000;stroke-width:1.0;"/><polygon fill="none" points="914,451.27,921,431.27,928,451.27,914,451.27" style="stroke:#000000;stroke-width:1.0;"/></g><!--reverse link Entity to SourcedEntity--><g id="link_Entity_SourcedEntity"><path codeLine="123" d="M2211.71,40.04 C2156.24,56.74 2070.03,82.69 2015.86,98.99 " fill="none" id="Entity-backto-SourcedEntity" style="stroke:#000000;stroke-width:1.0;"/><polygon fill="none" points="2209.82,33.3,2230.99,34.24,2213.86,46.7,2209.82,33.3" style="stroke:#000000;stroke-width:1.0;"/></g><!--reverse link ScopingEntity to ScriptEntity--><g id="link_ScopingEntity_ScriptEntity"><path codeLine="124" d="M172.94,441.1 C144.85,457.1 109.37,477.31 85.53,490.89 " fill="none" id="ScopingEntity-backto-ScriptEntity" style="stroke:#000000;stroke-width:1.0;"/><polygon fill="none" points="169.71,434.88,190.55,431.06,176.64,447.05,169.71,434.88" style="stroke:#000000;stroke-width:1.0;"/></g><!--reverse link Entity to SourceAnchor--><g id="link_Entity_SourceAnchor"><path codeLine="125" d="M2223.74,49.79 C2198.31,65.68 2166.6,85.5 2145.18,98.89 " fill="none" id="Entity-backto-SourceAnchor" style="stroke:#000000;stroke-width:1.0;"/><polygon fill="none" points="2220.23,43.73,2240.9,39.06,2227.65,55.6,2220.23,43.73" style="stroke:#000000;stroke-width:1.0;"/></g><!--reverse link StructuralEntity to Property--><g id="link_StructuralEntity_Property"><path codeLine="126" d="M1592,347.19 C1592,364.84 1592,385.31 1592,398.89 " fill="none" id="StructuralEntity-backto-Property" style="stroke:#000000;stroke-width:1.0;"/><polygon fill="none" points="1585,347.05,1592,327.05,1599,347.05,1585,347.05" style="stroke:#000000;stroke-width:1.0;"/></g><!--reverse link Type to Enum--><g id="link_Type_Enum"><path codeLine="127" d="M959.26,442.49 C982.04,458.26 1010.12,477.7 1029.17,490.89 " fill="none" id="Type-backto-Enum" style="stroke:#000000;stroke-width:1.0;"/><polygon fill="none" points="955.22,448.2,942.76,431.06,963.19,436.69,955.22,448.2" style="stroke:#000000;stroke-width:1.0;"/></g><!--reverse link Method to ParametricMethod--><g id="link_Method_ParametricMethod"><path codeLine="128" d="M310.66,533.33 C283.34,549.29 248.98,569.37 225.86,582.89 " fill="none" id="Method-backto-ParametricMethod" style="stroke:#000000;stroke-width:1.0;"/><polygon fill="none" points="307.42,527.11,328.22,523.06,314.49,539.2,307.42,527.11" style="stroke:#000000;stroke-width:1.0;"/></g><!--reverse link ContainerEntity to BehaviouralEntity--><g id="link_ContainerEntity_BehaviouralEntity"><path codeLine="129" d="M657.1,335.67 C616.02,355.16 559,382.21 523.85,398.89 " fill="none" id="ContainerEntity-backto-BehaviouralEntity" style="stroke:#000000;stroke-width:1.0;"/><polygon fill="none" points="654.21,329.3,675.28,327.05,660.21,341.95,654.21,329.3" style="stroke:#000000;stroke-width:1.0;"/></g><!--reverse link Type to VariableStatement--><g id="link_Type_VariableStatement"><path codeLine="130" d="M971.18,432.48 C1022.06,449.19 1100.1,474.83 1149.31,490.99 " fill="none" id="Type-backto-VariableStatement" style="stroke:#000000;stroke-width:1.0;"/><polygon fill="none" points="968.98,439.13,952.16,426.24,973.35,425.83,968.98,439.13" style="stroke:#000000;stroke-width:1.0;"/></g><!--reverse link Entity to Invocation--><g id="link_Entity_Invocation"><path codeLine="131" d="M2265,59.61 C2265,73.31 2265,88.22 2265,98.96 " fill="none" id="Entity-backto-Invocation" style="stroke:#000000;stroke-width:1.0;"/><polygon fill="none" points="2258,59.27,2265,39.27,2272,59.27,2258,59.27" style="stroke:#000000;stroke-width:1.0;"/></g><!--reverse link NamedEntity to StructuralEntity--><g id="link_NamedEntity_StructuralEntity"><path codeLine="132" d="M1793.11,230.49 C1743.62,250.06 1673.26,277.87 1630.22,294.89 " fill="none" id="NamedEntity-backto-StructuralEntity" style="stroke:#000000;stroke-width:1.0;"/><polygon fill="none" points="1790.76,223.89,1811.93,223.05,1795.91,236.91,1790.76,223.89" style="stroke:#000000;stroke-width:1.0;"/></g><!--reverse link SourcedEntity to NamedEntity--><g id="link_SourcedEntity_NamedEntity"><path codeLine="133" d="M1930.65,143.42 C1910.55,159.02 1886.14,177.96 1869.48,190.89 " fill="none" id="SourcedEntity-backto-NamedEntity" style="stroke:#000000;stroke-width:1.0;"/><polygon fill="none" points="1926.49,137.79,1946.58,131.06,1935.07,148.85,1926.49,137.79" style="stroke:#000000;stroke-width:1.0;"/></g><!--reverse link Entity to Implementation--><g id="link_Entity_Implementation"><path codeLine="134" d="M2307.78,49.33 C2334.74,65.29 2368.65,85.37 2391.48,98.89 " fill="none" id="Entity-backto-Implementation" style="stroke:#000000;stroke-width:1.0;"/><polygon fill="none" points="2304.08,55.28,2290.44,39.06,2311.22,43.23,2304.08,55.28" style="stroke:#000000;stroke-width:1.0;"/></g><!--reverse link SourcedEntity to JSDoc--><g id="link_SourcedEntity_JSDoc"><path codeLine="135" d="M1969.96,151.61 C1971.48,165.31 1973.14,180.22 1974.33,190.96 " fill="none" id="SourcedEntity-backto-JSDoc" style="stroke:#000000;stroke-width:1.0;"/><polygon fill="none" points="1962.95,151.92,1967.7,131.27,1976.86,150.37,1962.95,151.92" style="stroke:#000000;stroke-width:1.0;"/></g><!--reverse link Type to Class--><g id="link_Type_Class"><path codeLine="136" d="M972.04,424.97 C1043.07,437.79 1175.56,462.93 1287,491 C1292.98,492.51 1299.31,494.27 1305.38,496.05 " fill="none" id="Type-backto-Class" style="stroke:#000000;stroke-width:1.0;"/><polygon fill="none" points="970.52,431.81,952.06,421.4,972.98,418.03,970.52,431.81" style="stroke:#000000;stroke-width:1.0;"/></g><!--reverse link BehaviouralEntity to Method--><g id="link_BehaviouralEntity_Method"><path codeLine="137" d="M452.1,442.02 C427.8,457.87 397.6,477.57 377.17,490.89 " fill="none" id="BehaviouralEntity-backto-Method" style="stroke:#000000;stroke-width:1.0;"/><polygon fill="none" points="448.33,436.13,468.9,431.06,455.97,447.85,448.33,436.13" style="stroke:#000000;stroke-width:1.0;"/></g><!--reverse link Entity to ParameterConcretization--><g id="link_Entity_ParameterConcretization"><path codeLine="138" d="M2319.01,37.85 C2383.53,54.39 2491.05,81.96 2557.49,99 " fill="none" id="Entity-backto-ParameterConcretization" style="stroke:#000000;stroke-width:1.0;"/><polygon fill="none" points="2316.93,44.54,2299.29,32.79,2320.41,30.98,2316.93,44.54" style="stroke:#000000;stroke-width:1.0;"/></g><!--reverse link ContainerEntity to Type--><g id="link_ContainerEntity_Type"><path codeLine="139" d="M756.78,335.72 C797.93,355.34 855.1,382.59 889.99,399.22 " fill="none" id="ContainerEntity-backto-Type" style="stroke:#000000;stroke-width:1.0;"/><polygon fill="none" points="753.62,341.97,738.58,327.05,759.64,329.34,753.62,341.97" style="stroke:#000000;stroke-width:1.0;"/></g><!--reverse link NamedEntity to Alias--><g id="link_NamedEntity_Alias"><path codeLine="140" d="M1815.46,235.74 C1791.74,254.79 1761.17,279.35 1741.82,294.89 " fill="none" id="NamedEntity-backto-Alias" style="stroke:#000000;stroke-width:1.0;"/><polygon fill="none" points="1811.28,230.12,1831.26,223.05,1820.05,241.03,1811.28,230.12" style="stroke:#000000;stroke-width:1.0;"/></g><!--reverse link Method to Accessor--><g id="link_Method_Accessor"><path codeLine="141" d="M354,543.61 C354,557.31 354,572.22 354,582.96 " fill="none" id="Method-backto-Accessor" style="stroke:#000000;stroke-width:1.0;"/><polygon fill="none" points="347,543.27,354,523.27,361,543.27,347,543.27" style="stroke:#000000;stroke-width:1.0;"/></g><!--reverse link Entity to ImportClause--><g id="link_Entity_ImportClause"><path codeLine="142" d="M2318.91,32.14 C2405.5,45.34 2580.91,72.61 2729,99 C2734.77,100.03 2740.77,101.13 2746.76,102.26 " fill="none" id="Entity-backto-ImportClause" style="stroke:#000000;stroke-width:1.0;"/><polygon fill="none" points="2317.84,39.06,2299.12,29.13,2319.94,25.21,2317.84,39.06" style="stroke:#000000;stroke-width:1.0;"/></g><!--reverse link NamedEntity to Decorator--><g id="link_NamedEntity_Decorator"><path codeLine="143" d="M1837.83,242.92 C1836.85,256.02 1837.11,270.71 1838.6,282.99 " fill="none" id="NamedEntity-backto-Decorator" style="stroke:#000000;stroke-width:1.0;"/><polygon fill="none" points="1830.91,241.87,1840.64,223.05,1844.77,243.83,1830.91,241.87" style="stroke:#000000;stroke-width:1.0;"/></g><!--link NamedEntity to Decorator--><g id="link_NamedEntity_Decorator"><path codeLine="159" d="M1859.91,223.05 C1863.81,238.79 1864.53,263.82 1862.07,282.99 " fill="none" id="NamedEntity-Decorator" style="stroke:#000000;stroke-width:1.0;"/><text fill="#000000" font-family="sans-serif" font-size="13" lengthAdjust="spacing" textLength="92" x="1755.9552" y="242.9398">decoratedEntity</text><text fill="#000000" font-family="sans-serif" font-size="13" lengthAdjust="spacing" textLength="71" x="1785.6518" y="271.8262">decorators*</text></g><!--reverse link BehaviouralEntity to Function--><g id="link_BehaviouralEntity_Function"><path codeLine="144" d="M492,451.61 C492,465.31 492,480.22 492,490.96 " fill="none" id="BehaviouralEntity-backto-Function" style="stroke:#000000;stroke-width:1.0;"/><polygon fill="none" points="485,451.27,492,431.27,499,451.27,485,451.27" style="stroke:#000000;stroke-width:1.0;"/></g><!--reverse link Function to ParametricFunction--><g id="link_Function_ParametricFunction"><path codeLine="145" d="M499.41,543.12 C502.33,556.95 505.53,572.09 507.82,582.96 " fill="none" id="Function-backto-ParametricFunction" style="stroke:#000000;stroke-width:1.0;"/><polygon fill="none" points="492.51,544.28,495.22,523.27,506.2,541.39,492.51,544.28" style="stroke:#000000;stroke-width:1.0;"/></g><!--reverse link NamedEntity to Folder--><g id="link_NamedEntity_Folder"><path codeLine="146" d="M1885.81,235.46 C1910.7,254.55 1942.93,279.27 1963.29,294.89 " fill="none" id="NamedEntity-backto-Folder" style="stroke:#000000;stroke-width:1.0;"/><polygon fill="none" points="1881.23,240.78,1869.62,223.05,1889.75,229.67,1881.23,240.78" style="stroke:#000000;stroke-width:1.0;"/></g><!--reverse link NamedEntity to File--><g id="link_NamedEntity_File"><path codeLine="147" d="M1911.97,230.02 C1948.91,243.84 1996.37,262.82 2037,283 C2044.18,286.57 2051.74,290.87 2058.57,294.99 " fill="none" id="NamedEntity-backto-File" style="stroke:#000000;stroke-width:1.0;"/><polygon fill="none" points="1909.52,236.58,1893.18,223.09,1914.36,223.44,1909.52,236.58" style="stroke:#000000;stroke-width:1.0;"/></g><!--reverse link ScopingEntity to Namespace--><g id="link_ScopingEntity_Namespace"><path codeLine="148" d="M217,451.61 C217,465.31 217,480.22 217,490.96 " fill="none" id="ScopingEntity-backto-Namespace" style="stroke:#000000;stroke-width:1.0;"/><polygon fill="none" points="210,451.27,217,431.27,224,451.27,210,451.27" style="stroke:#000000;stroke-width:1.0;"/></g><!--reverse link Interface to ParametricInterface--><g id="link_Interface_ParametricInterface"><path codeLine="149" d="M644.44,537.77 C659.41,552.91 676.97,570.67 689.13,582.96 " fill="none" id="Interface-backto-ParametricInterface" style="stroke:#000000;stroke-width:1.0;"/><polygon fill="none" points="639.18,542.41,630.1,523.27,649.14,532.57,639.18,542.41" style="stroke:#000000;stroke-width:1.0;"/></g><!--reverse link Entity to Reference--><g id="link_Entity_Reference"><path codeLine="150" d="M2319.21,26.86 C2446.07,34.08 2771.95,55.6 3041,99 C3046.68,99.92 3052.61,101.03 3058.48,102.24 " fill="none" id="Entity-backto-Reference" style="stroke:#000000;stroke-width:1.0;"/><polygon fill="none" points="2318.82,33.85,2299.24,25.75,2319.59,19.87,2318.82,33.85" style="stroke:#000000;stroke-width:1.0;"/></g><!--reverse link Entity to Concretization--><g id="link_Entity_Concretization"><path codeLine="151" d="M2319.43,29.43 C2427.14,40.43 2674.98,67.04 2882,99 C2888.01,99.93 2894.25,100.97 2900.48,102.05 " fill="none" id="Entity-backto-Concretization" style="stroke:#000000;stroke-width:1.0;"/><polygon fill="none" points="2318.41,36.36,2299.22,27.38,2319.82,22.43,2318.41,36.36" style="stroke:#000000;stroke-width:1.0;"/></g><!--reverse link StructuralEntity to Parameter--><g id="link_StructuralEntity_Parameter"><path codeLine="152" d="M1626.73,339.46 C1650.87,358.55 1682.14,383.27 1701.89,398.89 " fill="none" id="StructuralEntity-backto-Parameter" style="stroke:#000000;stroke-width:1.0;"/><polygon fill="none" points="1622.38,344.95,1611.03,327.05,1631.06,333.96,1622.38,344.95" style="stroke:#000000;stroke-width:1.0;"/></g><!--reverse link Variable to implicitVariable--><g id="link_Variable_implicitVariable"><path codeLine="153" d="M1471,451.61 C1471,465.31 1471,480.22 1471,490.96 " fill="none" id="Variable-backto-implicitVariable" style="stroke:#000000;stroke-width:1.0;"/><polygon fill="none" points="1464,451.27,1471,431.27,1478,451.27,1464,451.27" style="stroke:#000000;stroke-width:1.0;"/></g><!--reverse link StructuralEntity to EnumValue--><g id="link_StructuralEntity_EnumValue"><path codeLine="154" d="M1649.97,334.23 C1701.04,353.81 1774.02,381.8 1818.59,398.89 " fill="none" id="StructuralEntity-backto-EnumValue" style="stroke:#000000;stroke-width:1.0;"/><polygon fill="none" points="1647.42,340.75,1631.25,327.05,1652.43,327.68,1647.42,340.75" style="stroke:#000000;stroke-width:1.0;"/></g><!--reverse link SourceAnchor to SourceTextAnchor--><g id="link_SourceAnchor_SourceTextAnchor"><path codeLine="155" d="M2170.25,139.96 C2203.49,156.13 2246.35,176.98 2274.93,190.89 " fill="none" id="SourceAnchor-backto-SourceTextAnchor" style="stroke:#000000;stroke-width:1.0;"/><polygon fill="none" points="2166.89,146.11,2151.96,131.06,2173.01,133.52,2166.89,146.11" style="stroke:#000000;stroke-width:1.0;"/></g><!--reverse link TWithInterfaces to ContainerEntity--><g id="link_TWithInterfaces_ContainerEntity"><path codeLine="156" d="M707,243.19 C707,260.84 707,281.31 707,294.89 " fill="none" id="TWithInterfaces-backto-ContainerEntity" style="stroke:#000000;stroke-width:1.0;stroke-dasharray:7.0,7.0;"/><polygon fill="none" points="700,243.05,707,223.05,714,243.05,700,243.05" style="stroke:#000000;stroke-width:1.0;"/></g><!--reverse link TEntityCreator to FamixTypeScriptModel--><g id="link_TEntityCreator_FamixTypeScriptModel"><path codeLine="157" d="M3278,59.61 C3278,73.31 3278,88.22 3278,98.96 " fill="none" id="TEntityCreator-backto-FamixTypeScriptModel" style="stroke:#000000;stroke-width:1.0;stroke-dasharray:7.0,7.0;"/><polygon fill="none" points="3271,59.27,3278,39.27,3285,59.27,3271,59.27" style="stroke:#000000;stroke-width:1.0;"/></g><!--reverse link TClassMetrics to Class--><g id="link_TClassMetrics_Class"><path codeLine="158" d="M1335.79,451.61 C1336.1,465.31 1336.43,480.22 1336.67,490.96 " fill="none" id="TClassMetrics-backto-Class" style="stroke:#000000;stroke-width:1.0;stroke-dasharray:7.0,7.0;"/><polygon fill="none" points="1328.79,451.42,1335.34,431.27,1342.78,451.11,1328.79,451.42" style="stroke:#000000;stroke-width:1.0;"/></g><!--SRC=[bLVBRjim4BppAuJqqXP9lY08u2XnuQ8fWjf8pmoriOX8fB2Y4hjD_xsaQ3qeoT7QDo-NotqCPwXK9X11NfXzb4F-15YoyaMgWYFF8v7niep-iYYwuU9bYxfIIQmpZT5RAWrO-m9HltdJKsPzdAl61D3R4eultv3lsJ_cOsr-IvEkb05yvWBAwEhgy-Qy3lRb-Zhw5CTB-xCdjlvtoaYpZn6uiV7ct1zSsc1GYhZ-R_tZZ_nNAe4T94kPmKA9r9_muOvOAyEb0lI9pVglTOK2Vd2rhVWM20cbWD9m9UPzrq8NKcs9YTphfChcWnAZjIESzLpoNEus-mBM0cLXR1gGpMuwp17GRPprNWWBfP8mkZm7PMRzDZLsxciOpIFqaQFaJuJEFg3CfP6lGAh9uoQXegpkxKcG9EBz0NK1I8XwfwgSEbVRMDlUL2Up6suWvQ_I9impOdK_xG7KjZMpMnjkW8IDjS5Ac1FIMQbNBRYHMiswVb_VQZ4VC2-oEbTQK1eF4gT1GcvxTorL2WGZ_z0oNMIIbvJoDHfRLLLIYO60ybiG6Xk5cVICtEWjsqQmAz06jHLr55SfGIfngJChZIVS4dfaIM0WTpNAWaBQqe9C2cdevDOCdIAWfw2YwmLTSdx1Co1G9DIHrYFFAYeVRs1dPedpSENUBow6xn4Ma9Dp63mdsEXvuPm2eMSXrxjrB-qiv7MtC7hUi21iy3G9bdhF4EOllRSU9j2p1KeTnF2NZms4p1TT2p4RawbRRJ3NFwGldHCr96rhWXUHxrtNhOcTXxPCPz9eNoyJ1nZMi6KuOM-Tdk18ndeXHo8qc4IZ7sFm3BEUwdLlKnWta96fdRKSzVBq29uGv1g2llYWUzCwCDsWUh2Z0cj92DhTCFgmbbOJna5QRZ-MUqEoh6FRSBAjmoYs9_G9ktJtSOp6be5PZyt2mxfBrj_OKXeRi4U_iqTGtCo1TMpkx4EEFxAzfSW9VXcI8XjzthrVNeuuRlXDvtoclXBOu25UnnhHw5dYvziOpYARM6FKM7uzwn3m7m00]--></g></svg>