<?xml version="1.0" encoding="us-ascii" standalone="no"?><svg xmlns="http://www.w3.org/2000/svg" xmlns:xlink="http://www.w3.org/1999/xlink" contentStyleType="text/css" height="622px" preserveAspectRatio="none" style="width:3536px;height:622px;background:#FFFFFF;" version="1.1" viewBox="0 0 3536 622" width="3536px" zoomAndPan="magnify"><defs/><g><!--class ParametricFunction--><g id="elem_ParametricFunction"><rect codeLine="7" fill="#CCFFFF" height="32" id="ParametricFunction" rx="2.5" ry="2.5" style="stroke:#A9A9A9;stroke-width:0.5;" width="156" x="7" y="583"/><ellipse cx="22" cy="599" fill="#FFFFFF" rx="11" ry="11" style="stroke:#181818;stroke-width:1.0;"/><path d="M21.9375,594.8281 Q21.1875,594.8281 20.625,595.125 Q20.0625,595.4063 19.6719,595.9375 Q19.2813,596.4688 19.0781,597.25 Q18.8906,598.0156 18.8906,598.9688 Q18.8906,599.9375 19.0625,600.7031 Q19.25,601.4531 19.6094,601.9688 Q19.9844,602.4844 20.5625,602.7656 Q21.1406,603.0313 21.9375,603.0313 Q22.6719,603.0313 23.4063,602.8594 Q24.1563,602.6875 25.0313,602.3906 L25.0313,604.5469 Q24.625,604.7031 24.2344,604.8281 Q23.8438,604.9375 23.4375,605.0156 Q23.0313,605.0938 22.6094,605.125 Q22.1875,605.1719 21.6875,605.1719 Q20.2813,605.1719 19.25,604.7188 Q18.2344,604.2656 17.5625,603.4531 Q16.8906,602.6406 16.5625,601.5 Q16.2344,600.3438 16.2344,598.9531 Q16.2344,597.5781 16.6094,596.4219 Q16.9844,595.2656 17.7031,594.4375 Q18.4219,593.6094 19.4844,593.1563 Q20.5469,592.6875 21.9375,592.6875 Q22.8438,592.6875 23.75,592.9219 Q24.6563,593.1406 25.4844,593.5469 L24.6563,595.6406 Q23.9688,595.3125 23.2813,595.0781 Q22.5938,594.8281 21.9375,594.8281 Z " fill="#000000"/><text fill="#000000" font-family="sans-serif" font-size="14" lengthAdjust="spacing" textLength="124" x="36" y="603.8467">ParametricFunction</text></g><!--class BehaviouralEntity--><g id="elem_BehaviouralEntity"><rect codeLine="9" fill="#CCFFFF" height="32" id="BehaviouralEntity" rx="2.5" ry="2.5" style="stroke:#A9A9A9;stroke-width:0.5;" width="144" x="170" y="399"/><ellipse cx="185" cy="415" fill="#FFFFFF" rx="11" ry="11" style="stroke:#181818;stroke-width:1.0;"/><path d="M184.9375,410.8281 Q184.1875,410.8281 183.625,411.125 Q183.0625,411.4063 182.6719,411.9375 Q182.2813,412.4688 182.0781,413.25 Q181.8906,414.0156 181.8906,414.9688 Q181.8906,415.9375 182.0625,416.7031 Q182.25,417.4531 182.6094,417.9688 Q182.9844,418.4844 183.5625,418.7656 Q184.1406,419.0313 184.9375,419.0313 Q185.6719,419.0313 186.4063,418.8594 Q187.1563,418.6875 188.0313,418.3906 L188.0313,420.5469 Q187.625,420.7031 187.2344,420.8281 Q186.8438,420.9375 186.4375,421.0156 Q186.0313,421.0938 185.6094,421.125 Q185.1875,421.1719 184.6875,421.1719 Q183.2813,421.1719 182.25,420.7188 Q181.2344,420.2656 180.5625,419.4531 Q179.8906,418.6406 179.5625,417.5 Q179.2344,416.3438 179.2344,414.9531 Q179.2344,413.5781 179.6094,412.4219 Q179.9844,411.2656 180.7031,410.4375 Q181.4219,409.6094 182.4844,409.1563 Q183.5469,408.6875 184.9375,408.6875 Q185.8438,408.6875 186.75,408.9219 Q187.6563,409.1406 188.4844,409.5469 L187.6563,411.6406 Q186.9688,411.3125 186.2813,411.0781 Q185.5938,410.8281 184.9375,410.8281 Z " fill="#000000"/><text fill="#000000" font-family="sans-serif" font-size="14" lengthAdjust="spacing" textLength="112" x="199" y="419.8467">BehaviouralEntity</text></g><!--class Module--><g id="elem_Module"><rect codeLine="11" fill="#CCFFFF" height="32" id="Module" rx="2.5" ry="2.5" style="stroke:#A9A9A9;stroke-width:0.5;" width="80" x="1179" y="583"/><ellipse cx="1194" cy="599" fill="#FFFFFF" rx="11" ry="11" style="stroke:#181818;stroke-width:1.0;"/><path d="M1193.9375,594.8281 Q1193.1875,594.8281 1192.625,595.125 Q1192.0625,595.4063 1191.6719,595.9375 Q1191.2813,596.4688 1191.0781,597.25 Q1190.8906,598.0156 1190.8906,598.9688 Q1190.8906,599.9375 1191.0625,600.7031 Q1191.25,601.4531 1191.6094,601.9688 Q1191.9844,602.4844 1192.5625,602.7656 Q1193.1406,603.0313 1193.9375,603.0313 Q1194.6719,603.0313 1195.4063,602.8594 Q1196.1563,602.6875 1197.0313,602.3906 L1197.0313,604.5469 Q1196.625,604.7031 1196.2344,604.8281 Q1195.8438,604.9375 1195.4375,605.0156 Q1195.0313,605.0938 1194.6094,605.125 Q1194.1875,605.1719 1193.6875,605.1719 Q1192.2813,605.1719 1191.25,604.7188 Q1190.2344,604.2656 1189.5625,603.4531 Q1188.8906,602.6406 1188.5625,601.5 Q1188.2344,600.3438 1188.2344,598.9531 Q1188.2344,597.5781 1188.6094,596.4219 Q1188.9844,595.2656 1189.7031,594.4375 Q1190.4219,593.6094 1191.4844,593.1563 Q1192.5469,592.6875 1193.9375,592.6875 Q1194.8438,592.6875 1195.75,592.9219 Q1196.6563,593.1406 1197.4844,593.5469 L1196.6563,595.6406 Q1195.9688,595.3125 1195.2813,595.0781 Q1194.5938,594.8281 1193.9375,594.8281 Z " fill="#000000"/><text fill="#000000" font-family="sans-serif" font-size="14" lengthAdjust="spacing" textLength="48" x="1208" y="603.8467">Module</text></g><!--class ScriptEntity--><g id="elem_ScriptEntity"><rect codeLine="13" fill="#CCFFFF" height="32" id="ScriptEntity" rx="2.5" ry="2.5" style="stroke:#A9A9A9;stroke-width:0.5;" width="104" x="1161" y="491"/><ellipse cx="1176" cy="507" fill="#FFFFFF" rx="11" ry="11" style="stroke:#181818;stroke-width:1.0;"/><path d="M1175.9375,502.8281 Q1175.1875,502.8281 1174.625,503.125 Q1174.0625,503.4063 1173.6719,503.9375 Q1173.2813,504.4688 1173.0781,505.25 Q1172.8906,506.0156 1172.8906,506.9688 Q1172.8906,507.9375 1173.0625,508.7031 Q1173.25,509.4531 1173.6094,509.9688 Q1173.9844,510.4844 1174.5625,510.7656 Q1175.1406,511.0313 1175.9375,511.0313 Q1176.6719,511.0313 1177.4063,510.8594 Q1178.1563,510.6875 1179.0313,510.3906 L1179.0313,512.5469 Q1178.625,512.7031 1178.2344,512.8281 Q1177.8438,512.9375 1177.4375,513.0156 Q1177.0313,513.0938 1176.6094,513.125 Q1176.1875,513.1719 1175.6875,513.1719 Q1174.2813,513.1719 1173.25,512.7188 Q1172.2344,512.2656 1171.5625,511.4531 Q1170.8906,510.6406 1170.5625,509.5 Q1170.2344,508.3438 1170.2344,506.9531 Q1170.2344,505.5781 1170.6094,504.4219 Q1170.9844,503.2656 1171.7031,502.4375 Q1172.4219,501.6094 1173.4844,501.1563 Q1174.5469,500.6875 1175.9375,500.6875 Q1176.8438,500.6875 1177.75,500.9219 Q1178.6563,501.1406 1179.4844,501.5469 L1178.6563,503.6406 Q1177.9688,503.3125 1177.2813,503.0781 Q1176.5938,502.8281 1175.9375,502.8281 Z " fill="#000000"/><text fill="#000000" font-family="sans-serif" font-size="14" lengthAdjust="spacing" textLength="72" x="1190" y="511.8467">ScriptEntity</text></g><!--class StructuralEntity--><g id="elem_StructuralEntity"><rect codeLine="15" fill="#CCFFFF" height="32" id="StructuralEntity" rx="2.5" ry="2.5" style="stroke:#A9A9A9;stroke-width:0.5;" width="130" x="1430" y="295"/><ellipse cx="1445" cy="311" fill="#FFFFFF" rx="11" ry="11" style="stroke:#181818;stroke-width:1.0;"/><path d="M1444.9375,306.8281 Q1444.1875,306.8281 1443.625,307.125 Q1443.0625,307.4063 1442.6719,307.9375 Q1442.2813,308.4688 1442.0781,309.25 Q1441.8906,310.0156 1441.8906,310.9688 Q1441.8906,311.9375 1442.0625,312.7031 Q1442.25,313.4531 1442.6094,313.9688 Q1442.9844,314.4844 1443.5625,314.7656 Q1444.1406,315.0313 1444.9375,315.0313 Q1445.6719,315.0313 1446.4063,314.8594 Q1447.1563,314.6875 1448.0313,314.3906 L1448.0313,316.5469 Q1447.625,316.7031 1447.2344,316.8281 Q1446.8438,316.9375 1446.4375,317.0156 Q1446.0313,317.0938 1445.6094,317.125 Q1445.1875,317.1719 1444.6875,317.1719 Q1443.2813,317.1719 1442.25,316.7188 Q1441.2344,316.2656 1440.5625,315.4531 Q1439.8906,314.6406 1439.5625,313.5 Q1439.2344,312.3438 1439.2344,310.9531 Q1439.2344,309.5781 1439.6094,308.4219 Q1439.9844,307.2656 1440.7031,306.4375 Q1441.4219,305.6094 1442.4844,305.1563 Q1443.5469,304.6875 1444.9375,304.6875 Q1445.8438,304.6875 1446.75,304.9219 Q1447.6563,305.1406 1448.4844,305.5469 L1447.6563,307.6406 Q1446.9688,307.3125 1446.2813,307.0781 Q1445.5938,306.8281 1444.9375,306.8281 Z " fill="#000000"/><text fill="#000000" font-family="sans-serif" font-size="14" lengthAdjust="spacing" textLength="98" x="1459" y="315.8467">StructuralEntity</text></g><!--class SourcedEntity--><g id="elem_SourcedEntity"><rect codeLine="17" fill="#CCFFFF" height="32" id="SourcedEntity" rx="2.5" ry="2.5" style="stroke:#A9A9A9;stroke-width:0.5;" width="119" x="2215.5" y="99"/><ellipse cx="2230.5" cy="115" fill="#FFFFFF" rx="11" ry="11" style="stroke:#181818;stroke-width:1.0;"/><path d="M2230.4375,110.8281 Q2229.6875,110.8281 2229.125,111.125 Q2228.5625,111.4063 2228.1719,111.9375 Q2227.7813,112.4688 2227.5781,113.25 Q2227.3906,114.0156 2227.3906,114.9688 Q2227.3906,115.9375 2227.5625,116.7031 Q2227.75,117.4531 2228.1094,117.9688 Q2228.4844,118.4844 2229.0625,118.7656 Q2229.6406,119.0313 2230.4375,119.0313 Q2231.1719,119.0313 2231.9063,118.8594 Q2232.6563,118.6875 2233.5313,118.3906 L2233.5313,120.5469 Q2233.125,120.7031 2232.7344,120.8281 Q2232.3438,120.9375 2231.9375,121.0156 Q2231.5313,121.0938 2231.1094,121.125 Q2230.6875,121.1719 2230.1875,121.1719 Q2228.7813,121.1719 2227.75,120.7188 Q2226.7344,120.2656 2226.0625,119.4531 Q2225.3906,118.6406 2225.0625,117.5 Q2224.7344,116.3438 2224.7344,114.9531 Q2224.7344,113.5781 2225.1094,112.4219 Q2225.4844,111.2656 2226.2031,110.4375 Q2226.9219,109.6094 2227.9844,109.1563 Q2229.0469,108.6875 2230.4375,108.6875 Q2231.3438,108.6875 2232.25,108.9219 Q2233.1563,109.1406 2233.9844,109.5469 L2233.1563,111.6406 Q2232.4688,111.3125 2231.7813,111.0781 Q2231.0938,110.8281 2230.4375,110.8281 Z " fill="#000000"/><text fill="#000000" font-family="sans-serif" font-size="14" lengthAdjust="spacing" textLength="87" x="2244.5" y="119.8467">SourcedEntity</text></g><!--class PrimitiveType--><g id="elem_PrimitiveType"><rect codeLine="19" fill="#CCFFFF" height="32" id="PrimitiveType" rx="2.5" ry="2.5" style="stroke:#A9A9A9;stroke-width:0.5;" width="121" x="317.5" y="491"/><ellipse cx="332.5" cy="507" fill="#FFFFFF" rx="11" ry="11" style="stroke:#181818;stroke-width:1.0;"/><path d="M332.4375,502.8281 Q331.6875,502.8281 331.125,503.125 Q330.5625,503.4063 330.1719,503.9375 Q329.7813,504.4688 329.5781,505.25 Q329.3906,506.0156 329.3906,506.9688 Q329.3906,507.9375 329.5625,508.7031 Q329.75,509.4531 330.1094,509.9688 Q330.4844,510.4844 331.0625,510.7656 Q331.6406,511.0313 332.4375,511.0313 Q333.1719,511.0313 333.9063,510.8594 Q334.6563,510.6875 335.5313,510.3906 L335.5313,512.5469 Q335.125,512.7031 334.7344,512.8281 Q334.3438,512.9375 333.9375,513.0156 Q333.5313,513.0938 333.1094,513.125 Q332.6875,513.1719 332.1875,513.1719 Q330.7813,513.1719 329.75,512.7188 Q328.7344,512.2656 328.0625,511.4531 Q327.3906,510.6406 327.0625,509.5 Q326.7344,508.3438 326.7344,506.9531 Q326.7344,505.5781 327.1094,504.4219 Q327.4844,503.2656 328.2031,502.4375 Q328.9219,501.6094 329.9844,501.1563 Q331.0469,500.6875 332.4375,500.6875 Q333.3438,500.6875 334.25,500.9219 Q335.1563,501.1406 335.9844,501.5469 L335.1563,503.6406 Q334.4688,503.3125 333.7813,503.0781 Q333.0938,502.8281 332.4375,502.8281 Z " fill="#000000"/><text fill="#000000" font-family="sans-serif" font-size="14" lengthAdjust="spacing" textLength="89" x="346.5" y="511.8467">PrimitiveType</text></g><!--class SourceTextAnchor--><g id="elem_SourceTextAnchor"><rect codeLine="21" fill="#CCFFFF" height="32" id="SourceTextAnchor" rx="2.5" ry="2.5" style="stroke:#A9A9A9;stroke-width:0.5;" width="147" x="2459.5" y="191"/><ellipse cx="2474.5" cy="207" fill="#FFFFFF" rx="11" ry="11" style="stroke:#181818;stroke-width:1.0;"/><path d="M2474.4375,202.8281 Q2473.6875,202.8281 2473.125,203.125 Q2472.5625,203.4063 2472.1719,203.9375 Q2471.7813,204.4688 2471.5781,205.25 Q2471.3906,206.0156 2471.3906,206.9688 Q2471.3906,207.9375 2471.5625,208.7031 Q2471.75,209.4531 2472.1094,209.9688 Q2472.4844,210.4844 2473.0625,210.7656 Q2473.6406,211.0313 2474.4375,211.0313 Q2475.1719,211.0313 2475.9063,210.8594 Q2476.6563,210.6875 2477.5313,210.3906 L2477.5313,212.5469 Q2477.125,212.7031 2476.7344,212.8281 Q2476.3438,212.9375 2475.9375,213.0156 Q2475.5313,213.0938 2475.1094,213.125 Q2474.6875,213.1719 2474.1875,213.1719 Q2472.7813,213.1719 2471.75,212.7188 Q2470.7344,212.2656 2470.0625,211.4531 Q2469.3906,210.6406 2469.0625,209.5 Q2468.7344,208.3438 2468.7344,206.9531 Q2468.7344,205.5781 2469.1094,204.4219 Q2469.4844,203.2656 2470.2031,202.4375 Q2470.9219,201.6094 2471.9844,201.1563 Q2473.0469,200.6875 2474.4375,200.6875 Q2475.3438,200.6875 2476.25,200.9219 Q2477.1563,201.1406 2477.9844,201.5469 L2477.1563,203.6406 Q2476.4688,203.3125 2475.7813,203.0781 Q2475.0938,202.8281 2474.4375,202.8281 Z " fill="#000000"/><text fill="#000000" font-family="sans-serif" font-size="14" lengthAdjust="spacing" textLength="115" x="2488.5" y="211.8467">SourceTextAnchor</text></g><!--class Association--><g id="elem_Association"><rect codeLine="23" fill="#CCFFFF" height="32" id="Association" rx="2.5" ry="2.5" style="stroke:#A9A9A9;stroke-width:0.5;" width="103" x="2089.5" y="191"/><ellipse cx="2104.5" cy="207" fill="#FFFFFF" rx="11" ry="11" style="stroke:#181818;stroke-width:1.0;"/><path d="M2104.4375,202.8281 Q2103.6875,202.8281 2103.125,203.125 Q2102.5625,203.4063 2102.1719,203.9375 Q2101.7813,204.4688 2101.5781,205.25 Q2101.3906,206.0156 2101.3906,206.9688 Q2101.3906,207.9375 2101.5625,208.7031 Q2101.75,209.4531 2102.1094,209.9688 Q2102.4844,210.4844 2103.0625,210.7656 Q2103.6406,211.0313 2104.4375,211.0313 Q2105.1719,211.0313 2105.9063,210.8594 Q2106.6563,210.6875 2107.5313,210.3906 L2107.5313,212.5469 Q2107.125,212.7031 2106.7344,212.8281 Q2106.3438,212.9375 2105.9375,213.0156 Q2105.5313,213.0938 2105.1094,213.125 Q2104.6875,213.1719 2104.1875,213.1719 Q2102.7813,213.1719 2101.75,212.7188 Q2100.7344,212.2656 2100.0625,211.4531 Q2099.3906,210.6406 2099.0625,209.5 Q2098.7344,208.3438 2098.7344,206.9531 Q2098.7344,205.5781 2099.1094,204.4219 Q2099.4844,203.2656 2100.2031,202.4375 Q2100.9219,201.6094 2101.9844,201.1563 Q2103.0469,200.6875 2104.4375,200.6875 Q2105.3438,200.6875 2106.25,200.9219 Q2107.1563,201.1406 2107.9844,201.5469 L2107.1563,203.6406 Q2106.4688,203.3125 2105.7813,203.0781 Q2105.0938,202.8281 2104.4375,202.8281 Z " fill="#000000"/><text fill="#000000" font-family="sans-serif" font-size="14" lengthAdjust="spacing" textLength="71" x="2118.5" y="211.8467">Association</text></g><!--class Comment--><g id="elem_Comment"><rect codeLine="25" fill="#CCFFFF" height="32" id="Comment" rx="2.5" ry="2.5" style="stroke:#A9A9A9;stroke-width:0.5;" width="95" x="2227.5" y="191"/><ellipse cx="2242.5" cy="207" fill="#FFFFFF" rx="11" ry="11" style="stroke:#181818;stroke-width:1.0;"/><path d="M2242.4375,202.8281 Q2241.6875,202.8281 2241.125,203.125 Q2240.5625,203.4063 2240.1719,203.9375 Q2239.7813,204.4688 2239.5781,205.25 Q2239.3906,206.0156 2239.3906,206.9688 Q2239.3906,207.9375 2239.5625,208.7031 Q2239.75,209.4531 2240.1094,209.9688 Q2240.4844,210.4844 2241.0625,210.7656 Q2241.6406,211.0313 2242.4375,211.0313 Q2243.1719,211.0313 2243.9063,210.8594 Q2244.6563,210.6875 2245.5313,210.3906 L2245.5313,212.5469 Q2245.125,212.7031 2244.7344,212.8281 Q2244.3438,212.9375 2243.9375,213.0156 Q2243.5313,213.0938 2243.1094,213.125 Q2242.6875,213.1719 2242.1875,213.1719 Q2240.7813,213.1719 2239.75,212.7188 Q2238.7344,212.2656 2238.0625,211.4531 Q2237.3906,210.6406 2237.0625,209.5 Q2236.7344,208.3438 2236.7344,206.9531 Q2236.7344,205.5781 2237.1094,204.4219 Q2237.4844,203.2656 2238.2031,202.4375 Q2238.9219,201.6094 2239.9844,201.1563 Q2241.0469,200.6875 2242.4375,200.6875 Q2243.3438,200.6875 2244.25,200.9219 Q2245.1563,201.1406 2245.9844,201.5469 L2245.1563,203.6406 Q2244.4688,203.3125 2243.7813,203.0781 Q2243.0938,202.8281 2242.4375,202.8281 Z " fill="#000000"/><text fill="#000000" font-family="sans-serif" font-size="14" lengthAdjust="spacing" textLength="63" x="2256.5" y="211.8467">Comment</text></g><!--class TClassMetrics--><g id="elem_TClassMetrics"><rect codeLine="27" fill="#CCFFFF" height="32" id="TClassMetrics" rx="2.5" ry="2.5" style="stroke:#A9A9A9;stroke-width:0.5;" width="117" x="1002.5" y="399"/><ellipse cx="1017.5" cy="415" fill="#FFFFFF" rx="11" ry="11" style="stroke:#181818;stroke-width:1.0;"/><path d="M1018.9531,421.75 L1016.3906,421.75 L1016.3906,411.75 L1013.3438,411.75 L1013.3438,409.6094 L1021.9844,409.6094 L1021.9844,411.75 L1018.9531,411.75 L1018.9531,421.75 Z " fill="#000000"/><text fill="#000000" font-family="sans-serif" font-size="14" lengthAdjust="spacing" textLength="85" x="1031.5" y="419.8467">TClassMetrics</text></g><!--class FamixTypeScriptModel--><g id="elem_FamixTypeScriptModel"><rect codeLine="29" fill="#CCFFFF" height="32" id="FamixTypeScriptModel" rx="2.5" ry="2.5" style="stroke:#A9A9A9;stroke-width:0.5;" width="176" x="3353" y="99"/><ellipse cx="3368" cy="115" fill="#FFFFFF" rx="11" ry="11" style="stroke:#181818;stroke-width:1.0;"/><path d="M3367.9375,110.8281 Q3367.1875,110.8281 3366.625,111.125 Q3366.0625,111.4063 3365.6719,111.9375 Q3365.2813,112.4688 3365.0781,113.25 Q3364.8906,114.0156 3364.8906,114.9688 Q3364.8906,115.9375 3365.0625,116.7031 Q3365.25,117.4531 3365.6094,117.9688 Q3365.9844,118.4844 3366.5625,118.7656 Q3367.1406,119.0313 3367.9375,119.0313 Q3368.6719,119.0313 3369.4063,118.8594 Q3370.1563,118.6875 3371.0313,118.3906 L3371.0313,120.5469 Q3370.625,120.7031 3370.2344,120.8281 Q3369.8438,120.9375 3369.4375,121.0156 Q3369.0313,121.0938 3368.6094,121.125 Q3368.1875,121.1719 3367.6875,121.1719 Q3366.2813,121.1719 3365.25,120.7188 Q3364.2344,120.2656 3363.5625,119.4531 Q3362.8906,118.6406 3362.5625,117.5 Q3362.2344,116.3438 3362.2344,114.9531 Q3362.2344,113.5781 3362.6094,112.4219 Q3362.9844,111.2656 3363.7031,110.4375 Q3364.4219,109.6094 3365.4844,109.1563 Q3366.5469,108.6875 3367.9375,108.6875 Q3368.8438,108.6875 3369.75,108.9219 Q3370.6563,109.1406 3371.4844,109.5469 L3370.6563,111.6406 Q3369.9688,111.3125 3369.2813,111.0781 Q3368.5938,110.8281 3367.9375,110.8281 Z " fill="#000000"/><text fill="#000000" font-family="sans-serif" font-size="14" lengthAdjust="spacing" textLength="144" x="3382" y="119.8467">FamixTypeScriptModel</text></g><!--class VariableStatement--><g id="elem_VariableStatement"><rect codeLine="31" fill="#CCFFFF" height="32" id="VariableStatement" rx="2.5" ry="2.5" style="stroke:#A9A9A9;stroke-width:0.5;" width="150" x="473" y="491"/><ellipse cx="488" cy="507" fill="#FFFFFF" rx="11" ry="11" style="stroke:#181818;stroke-width:1.0;"/><path d="M487.9375,502.8281 Q487.1875,502.8281 486.625,503.125 Q486.0625,503.4063 485.6719,503.9375 Q485.2813,504.4688 485.0781,505.25 Q484.8906,506.0156 484.8906,506.9688 Q484.8906,507.9375 485.0625,508.7031 Q485.25,509.4531 485.6094,509.9688 Q485.9844,510.4844 486.5625,510.7656 Q487.1406,511.0313 487.9375,511.0313 Q488.6719,511.0313 489.4063,510.8594 Q490.1563,510.6875 491.0313,510.3906 L491.0313,512.5469 Q490.625,512.7031 490.2344,512.8281 Q489.8438,512.9375 489.4375,513.0156 Q489.0313,513.0938 488.6094,513.125 Q488.1875,513.1719 487.6875,513.1719 Q486.2813,513.1719 485.25,512.7188 Q484.2344,512.2656 483.5625,511.4531 Q482.8906,510.6406 482.5625,509.5 Q482.2344,508.3438 482.2344,506.9531 Q482.2344,505.5781 482.6094,504.4219 Q482.9844,503.2656 483.7031,502.4375 Q484.4219,501.6094 485.4844,501.1563 Q486.5469,500.6875 487.9375,500.6875 Q488.8438,500.6875 489.75,500.9219 Q490.6563,501.1406 491.4844,501.5469 L490.6563,503.6406 Q489.9688,503.3125 489.2813,503.0781 Q488.5938,502.8281 487.9375,502.8281 Z " fill="#000000"/><text fill="#000000" font-family="sans-serif" font-size="14" lengthAdjust="spacing" textLength="118" x="502" y="511.8467">VariableStatement</text></g><!--class ImportClause--><g id="elem_ImportClause"><rect codeLine="33" fill="#CCFFFF" height="32" id="ImportClause" rx="2.5" ry="2.5" style="stroke:#A9A9A9;stroke-width:0.5;" width="118" x="1891" y="295"/><ellipse cx="1906" cy="311" fill="#FFFFFF" rx="11" ry="11" style="stroke:#181818;stroke-width:1.0;"/><path d="M1905.9375,306.8281 Q1905.1875,306.8281 1904.625,307.125 Q1904.0625,307.4063 1903.6719,307.9375 Q1903.2813,308.4688 1903.0781,309.25 Q1902.8906,310.0156 1902.8906,310.9688 Q1902.8906,311.9375 1903.0625,312.7031 Q1903.25,313.4531 1903.6094,313.9688 Q1903.9844,314.4844 1904.5625,314.7656 Q1905.1406,315.0313 1905.9375,315.0313 Q1906.6719,315.0313 1907.4063,314.8594 Q1908.1563,314.6875 1909.0313,314.3906 L1909.0313,316.5469 Q1908.625,316.7031 1908.2344,316.8281 Q1907.8438,316.9375 1907.4375,317.0156 Q1907.0313,317.0938 1906.6094,317.125 Q1906.1875,317.1719 1905.6875,317.1719 Q1904.2813,317.1719 1903.25,316.7188 Q1902.2344,316.2656 1901.5625,315.4531 Q1900.8906,314.6406 1900.5625,313.5 Q1900.2344,312.3438 1900.2344,310.9531 Q1900.2344,309.5781 1900.6094,308.4219 Q1900.9844,307.2656 1901.7031,306.4375 Q1902.4219,305.6094 1903.4844,305.1563 Q1904.5469,304.6875 1905.9375,304.6875 Q1906.8438,304.6875 1907.75,304.9219 Q1908.6563,305.1406 1909.4844,305.5469 L1908.6563,307.6406 Q1907.9688,307.3125 1907.2813,307.0781 Q1906.5938,306.8281 1905.9375,306.8281 Z " fill="#000000"/><text fill="#000000" font-family="sans-serif" font-size="14" lengthAdjust="spacing" textLength="86" x="1920" y="315.8467">ImportClause</text></g><!--class Alias--><g id="elem_Alias"><rect codeLine="35" fill="#CCFFFF" height="32" id="Alias" rx="2.5" ry="2.5" style="stroke:#A9A9A9;stroke-width:0.5;" width="62" x="1595" y="295"/><ellipse cx="1610" cy="311" fill="#FFFFFF" rx="11" ry="11" style="stroke:#181818;stroke-width:1.0;"/><path d="M1609.9375,306.8281 Q1609.1875,306.8281 1608.625,307.125 Q1608.0625,307.4063 1607.6719,307.9375 Q1607.2813,308.4688 1607.0781,309.25 Q1606.8906,310.0156 1606.8906,310.9688 Q1606.8906,311.9375 1607.0625,312.7031 Q1607.25,313.4531 1607.6094,313.9688 Q1607.9844,314.4844 1608.5625,314.7656 Q1609.1406,315.0313 1609.9375,315.0313 Q1610.6719,315.0313 1611.4063,314.8594 Q1612.1563,314.6875 1613.0313,314.3906 L1613.0313,316.5469 Q1612.625,316.7031 1612.2344,316.8281 Q1611.8438,316.9375 1611.4375,317.0156 Q1611.0313,317.0938 1610.6094,317.125 Q1610.1875,317.1719 1609.6875,317.1719 Q1608.2813,317.1719 1607.25,316.7188 Q1606.2344,316.2656 1605.5625,315.4531 Q1604.8906,314.6406 1604.5625,313.5 Q1604.2344,312.3438 1604.2344,310.9531 Q1604.2344,309.5781 1604.6094,308.4219 Q1604.9844,307.2656 1605.7031,306.4375 Q1606.4219,305.6094 1607.4844,305.1563 Q1608.5469,304.6875 1609.9375,304.6875 Q1610.8438,304.6875 1611.75,304.9219 Q1612.6563,305.1406 1613.4844,305.5469 L1612.6563,307.6406 Q1611.9688,307.3125 1611.2813,307.0781 Q1610.5938,306.8281 1609.9375,306.8281 Z " fill="#000000"/><text fill="#000000" font-family="sans-serif" font-size="14" lengthAdjust="spacing" textLength="30" x="1624" y="315.8467">Alias</text></g><!--class EnumValue--><g id="elem_EnumValue"><rect codeLine="37" fill="#CCFFFF" height="32" id="EnumValue" rx="2.5" ry="2.5" style="stroke:#A9A9A9;stroke-width:0.5;" width="103" x="1306.5" y="399"/><ellipse cx="1321.5" cy="415" fill="#FFFFFF" rx="11" ry="11" style="stroke:#181818;stroke-width:1.0;"/><path d="M1321.4375,410.8281 Q1320.6875,410.8281 1320.125,411.125 Q1319.5625,411.4063 1319.1719,411.9375 Q1318.7813,412.4688 1318.5781,413.25 Q1318.3906,414.0156 1318.3906,414.9688 Q1318.3906,415.9375 1318.5625,416.7031 Q1318.75,417.4531 1319.1094,417.9688 Q1319.4844,418.4844 1320.0625,418.7656 Q1320.6406,419.0313 1321.4375,419.0313 Q1322.1719,419.0313 1322.9063,418.8594 Q1323.6563,418.6875 1324.5313,418.3906 L1324.5313,420.5469 Q1324.125,420.7031 1323.7344,420.8281 Q1323.3438,420.9375 1322.9375,421.0156 Q1322.5313,421.0938 1322.1094,421.125 Q1321.6875,421.1719 1321.1875,421.1719 Q1319.7813,421.1719 1318.75,420.7188 Q1317.7344,420.2656 1317.0625,419.4531 Q1316.3906,418.6406 1316.0625,417.5 Q1315.7344,416.3438 1315.7344,414.9531 Q1315.7344,413.5781 1316.1094,412.4219 Q1316.4844,411.2656 1317.2031,410.4375 Q1317.9219,409.6094 1318.9844,409.1563 Q1320.0469,408.6875 1321.4375,408.6875 Q1322.3438,408.6875 1323.25,408.9219 Q1324.1563,409.1406 1324.9844,409.5469 L1324.1563,411.6406 Q1323.4688,411.3125 1322.7813,411.0781 Q1322.0938,410.8281 1321.4375,410.8281 Z " fill="#000000"/><text fill="#000000" font-family="sans-serif" font-size="14" lengthAdjust="spacing" textLength="71" x="1335.5" y="419.8467">EnumValue</text></g><!--class Type--><g id="elem_Type"><rect codeLine="39" fill="#CCFFFF" height="32" id="Type" rx="2.5" ry="2.5" style="stroke:#A9A9A9;stroke-width:0.5;" width="62" x="786" y="399"/><ellipse cx="801" cy="415" fill="#FFFFFF" rx="11" ry="11" style="stroke:#181818;stroke-width:1.0;"/><path d="M800.9375,410.8281 Q800.1875,410.8281 799.625,411.125 Q799.0625,411.4063 798.6719,411.9375 Q798.2813,412.4688 798.0781,413.25 Q797.8906,414.0156 797.8906,414.9688 Q797.8906,415.9375 798.0625,416.7031 Q798.25,417.4531 798.6094,417.9688 Q798.9844,418.4844 799.5625,418.7656 Q800.1406,419.0313 800.9375,419.0313 Q801.6719,419.0313 802.4063,418.8594 Q803.1563,418.6875 804.0313,418.3906 L804.0313,420.5469 Q803.625,420.7031 803.2344,420.8281 Q802.8438,420.9375 802.4375,421.0156 Q802.0313,421.0938 801.6094,421.125 Q801.1875,421.1719 800.6875,421.1719 Q799.2813,421.1719 798.25,420.7188 Q797.2344,420.2656 796.5625,419.4531 Q795.8906,418.6406 795.5625,417.5 Q795.2344,416.3438 795.2344,414.9531 Q795.2344,413.5781 795.6094,412.4219 Q795.9844,411.2656 796.7031,410.4375 Q797.4219,409.6094 798.4844,409.1563 Q799.5469,408.6875 800.9375,408.6875 Q801.8438,408.6875 802.75,408.9219 Q803.6563,409.1406 804.4844,409.5469 L803.6563,411.6406 Q802.9688,411.3125 802.2813,411.0781 Q801.5938,410.8281 800.9375,410.8281 Z " fill="#000000"/><text fill="#000000" font-family="sans-serif" font-size="14" lengthAdjust="spacing" textLength="30" x="815" y="419.8467">Type</text></g><!--class ScopingEntity--><g id="elem_ScopingEntity"><rect codeLine="41" fill="#CCFFFF" height="32" id="ScopingEntity" rx="2.5" ry="2.5" style="stroke:#A9A9A9;stroke-width:0.5;" width="116" x="1155" y="399"/><ellipse cx="1170" cy="415" fill="#FFFFFF" rx="11" ry="11" style="stroke:#181818;stroke-width:1.0;"/><path d="M1169.9375,410.8281 Q1169.1875,410.8281 1168.625,411.125 Q1168.0625,411.4063 1167.6719,411.9375 Q1167.2813,412.4688 1167.0781,413.25 Q1166.8906,414.0156 1166.8906,414.9688 Q1166.8906,415.9375 1167.0625,416.7031 Q1167.25,417.4531 1167.6094,417.9688 Q1167.9844,418.4844 1168.5625,418.7656 Q1169.1406,419.0313 1169.9375,419.0313 Q1170.6719,419.0313 1171.4063,418.8594 Q1172.1563,418.6875 1173.0313,418.3906 L1173.0313,420.5469 Q1172.625,420.7031 1172.2344,420.8281 Q1171.8438,420.9375 1171.4375,421.0156 Q1171.0313,421.0938 1170.6094,421.125 Q1170.1875,421.1719 1169.6875,421.1719 Q1168.2813,421.1719 1167.25,420.7188 Q1166.2344,420.2656 1165.5625,419.4531 Q1164.8906,418.6406 1164.5625,417.5 Q1164.2344,416.3438 1164.2344,414.9531 Q1164.2344,413.5781 1164.6094,412.4219 Q1164.9844,411.2656 1165.7031,410.4375 Q1166.4219,409.6094 1167.4844,409.1563 Q1168.5469,408.6875 1169.9375,408.6875 Q1170.8438,408.6875 1171.75,408.9219 Q1172.6563,409.1406 1173.4844,409.5469 L1172.6563,411.6406 Q1171.9688,411.3125 1171.2813,411.0781 Q1170.5938,410.8281 1169.9375,410.8281 Z " fill="#000000"/><text fill="#000000" font-family="sans-serif" font-size="14" lengthAdjust="spacing" textLength="84" x="1184" y="419.8467">ScopingEntity</text></g><!--class Method--><g id="elem_Method"><rect codeLine="43" fill="#CCFFFF" height="32" id="Method" rx="2.5" ry="2.5" style="stroke:#A9A9A9;stroke-width:0.5;" width="81" x="201.5" y="491"/><ellipse cx="216.5" cy="507" fill="#FFFFFF" rx="11" ry="11" style="stroke:#181818;stroke-width:1.0;"/><path d="M216.4375,502.8281 Q215.6875,502.8281 215.125,503.125 Q214.5625,503.4063 214.1719,503.9375 Q213.7813,504.4688 213.5781,505.25 Q213.3906,506.0156 213.3906,506.9688 Q213.3906,507.9375 213.5625,508.7031 Q213.75,509.4531 214.1094,509.9688 Q214.4844,510.4844 215.0625,510.7656 Q215.6406,511.0313 216.4375,511.0313 Q217.1719,511.0313 217.9063,510.8594 Q218.6563,510.6875 219.5313,510.3906 L219.5313,512.5469 Q219.125,512.7031 218.7344,512.8281 Q218.3438,512.9375 217.9375,513.0156 Q217.5313,513.0938 217.1094,513.125 Q216.6875,513.1719 216.1875,513.1719 Q214.7813,513.1719 213.75,512.7188 Q212.7344,512.2656 212.0625,511.4531 Q211.3906,510.6406 211.0625,509.5 Q210.7344,508.3438 210.7344,506.9531 Q210.7344,505.5781 211.1094,504.4219 Q211.4844,503.2656 212.2031,502.4375 Q212.9219,501.6094 213.9844,501.1563 Q215.0469,500.6875 216.4375,500.6875 Q217.3438,500.6875 218.25,500.9219 Q219.1563,501.1406 219.9844,501.5469 L219.1563,503.6406 Q218.4688,503.3125 217.7813,503.0781 Q217.0938,502.8281 216.4375,502.8281 Z " fill="#000000"/><text fill="#000000" font-family="sans-serif" font-size="14" lengthAdjust="spacing" textLength="49" x="230.5" y="511.8467">Method</text></g><!--class Accessor--><g id="elem_Accessor"><rect codeLine="45" fill="#CCFFFF" height="32" id="Accessor" rx="2.5" ry="2.5" style="stroke:#A9A9A9;stroke-width:0.5;" width="87" x="198.5" y="583"/><ellipse cx="213.5" cy="599" fill="#FFFFFF" rx="11" ry="11" style="stroke:#181818;stroke-width:1.0;"/><path d="M213.4375,594.8281 Q212.6875,594.8281 212.125,595.125 Q211.5625,595.4063 211.1719,595.9375 Q210.7813,596.4688 210.5781,597.25 Q210.3906,598.0156 210.3906,598.9688 Q210.3906,599.9375 210.5625,600.7031 Q210.75,601.4531 211.1094,601.9688 Q211.4844,602.4844 212.0625,602.7656 Q212.6406,603.0313 213.4375,603.0313 Q214.1719,603.0313 214.9063,602.8594 Q215.6563,602.6875 216.5313,602.3906 L216.5313,604.5469 Q216.125,604.7031 215.7344,604.8281 Q215.3438,604.9375 214.9375,605.0156 Q214.5313,605.0938 214.1094,605.125 Q213.6875,605.1719 213.1875,605.1719 Q211.7813,605.1719 210.75,604.7188 Q209.7344,604.2656 209.0625,603.4531 Q208.3906,602.6406 208.0625,601.5 Q207.7344,600.3438 207.7344,598.9531 Q207.7344,597.5781 208.1094,596.4219 Q208.4844,595.2656 209.2031,594.4375 Q209.9219,593.6094 210.9844,593.1563 Q212.0469,592.6875 213.4375,592.6875 Q214.3438,592.6875 215.25,592.9219 Q216.1563,593.1406 216.9844,593.5469 L216.1563,595.6406 Q215.4688,595.3125 214.7813,595.0781 Q214.0938,594.8281 213.4375,594.8281 Z " fill="#000000"/><text fill="#000000" font-family="sans-serif" font-size="14" lengthAdjust="spacing" textLength="55" x="227.5" y="603.8467">Accessor</text></g><!--class Interface--><g id="elem_Interface"><rect codeLine="47" fill="#CCFFFF" height="32" id="Interface" rx="2.5" ry="2.5" style="stroke:#A9A9A9;stroke-width:0.5;" width="90" x="658" y="491"/><ellipse cx="673" cy="507" fill="#FFFFFF" rx="11" ry="11" style="stroke:#181818;stroke-width:1.0;"/><path d="M672.9375,502.8281 Q672.1875,502.8281 671.625,503.125 Q671.0625,503.4063 670.6719,503.9375 Q670.2813,504.4688 670.0781,505.25 Q669.8906,506.0156 669.8906,506.9688 Q669.8906,507.9375 670.0625,508.7031 Q670.25,509.4531 670.6094,509.9688 Q670.9844,510.4844 671.5625,510.7656 Q672.1406,511.0313 672.9375,511.0313 Q673.6719,511.0313 674.4063,510.8594 Q675.1563,510.6875 676.0313,510.3906 L676.0313,512.5469 Q675.625,512.7031 675.2344,512.8281 Q674.8438,512.9375 674.4375,513.0156 Q674.0313,513.0938 673.6094,513.125 Q673.1875,513.1719 672.6875,513.1719 Q671.2813,513.1719 670.25,512.7188 Q669.2344,512.2656 668.5625,511.4531 Q667.8906,510.6406 667.5625,509.5 Q667.2344,508.3438 667.2344,506.9531 Q667.2344,505.5781 667.6094,504.4219 Q667.9844,503.2656 668.7031,502.4375 Q669.4219,501.6094 670.4844,501.1563 Q671.5469,500.6875 672.9375,500.6875 Q673.8438,500.6875 674.75,500.9219 Q675.6563,501.1406 676.4844,501.5469 L675.6563,503.6406 Q674.9688,503.3125 674.2813,503.0781 Q673.5938,502.8281 672.9375,502.8281 Z " fill="#000000"/><text fill="#000000" font-family="sans-serif" font-size="14" lengthAdjust="spacing" textLength="58" x="687" y="511.8467">Interface</text></g><!--class ParametricClass--><g id="elem_ParametricClass"><rect codeLine="49" fill="#CCFFFF" height="32" id="ParametricClass" rx="2.5" ry="2.5" style="stroke:#A9A9A9;stroke-width:0.5;" width="133" x="1010.5" y="583"/><ellipse cx="1025.5" cy="599" fill="#FFFFFF" rx="11" ry="11" style="stroke:#181818;stroke-width:1.0;"/><path d="M1025.4375,594.8281 Q1024.6875,594.8281 1024.125,595.125 Q1023.5625,595.4063 1023.1719,595.9375 Q1022.7813,596.4688 1022.5781,597.25 Q1022.3906,598.0156 1022.3906,598.9688 Q1022.3906,599.9375 1022.5625,600.7031 Q1022.75,601.4531 1023.1094,601.9688 Q1023.4844,602.4844 1024.0625,602.7656 Q1024.6406,603.0313 1025.4375,603.0313 Q1026.1719,603.0313 1026.9063,602.8594 Q1027.6563,602.6875 1028.5313,602.3906 L1028.5313,604.5469 Q1028.125,604.7031 1027.7344,604.8281 Q1027.3438,604.9375 1026.9375,605.0156 Q1026.5313,605.0938 1026.1094,605.125 Q1025.6875,605.1719 1025.1875,605.1719 Q1023.7813,605.1719 1022.75,604.7188 Q1021.7344,604.2656 1021.0625,603.4531 Q1020.3906,602.6406 1020.0625,601.5 Q1019.7344,600.3438 1019.7344,598.9531 Q1019.7344,597.5781 1020.1094,596.4219 Q1020.4844,595.2656 1021.2031,594.4375 Q1021.9219,593.6094 1022.9844,593.1563 Q1024.0469,592.6875 1025.4375,592.6875 Q1026.3438,592.6875 1027.25,592.9219 Q1028.1563,593.1406 1028.9844,593.5469 L1028.1563,595.6406 Q1027.4688,595.3125 1026.7813,595.0781 Q1026.0938,594.8281 1025.4375,594.8281 Z " fill="#000000"/><text fill="#000000" font-family="sans-serif" font-size="14" lengthAdjust="spacing" textLength="101" x="1039.5" y="603.8467">ParametricClass</text></g><!--class Access--><g id="elem_Access"><rect codeLine="51" fill="#CCFFFF" height="32" id="Access" rx="2.5" ry="2.5" style="stroke:#A9A9A9;stroke-width:0.5;" width="73" x="2044.5" y="295"/><ellipse cx="2059.5" cy="311" fill="#FFFFFF" rx="11" ry="11" style="stroke:#181818;stroke-width:1.0;"/><path d="M2059.4375,306.8281 Q2058.6875,306.8281 2058.125,307.125 Q2057.5625,307.4063 2057.1719,307.9375 Q2056.7813,308.4688 2056.5781,309.25 Q2056.3906,310.0156 2056.3906,310.9688 Q2056.3906,311.9375 2056.5625,312.7031 Q2056.75,313.4531 2057.1094,313.9688 Q2057.4844,314.4844 2058.0625,314.7656 Q2058.6406,315.0313 2059.4375,315.0313 Q2060.1719,315.0313 2060.9063,314.8594 Q2061.6563,314.6875 2062.5313,314.3906 L2062.5313,316.5469 Q2062.125,316.7031 2061.7344,316.8281 Q2061.3438,316.9375 2060.9375,317.0156 Q2060.5313,317.0938 2060.1094,317.125 Q2059.6875,317.1719 2059.1875,317.1719 Q2057.7813,317.1719 2056.75,316.7188 Q2055.7344,316.2656 2055.0625,315.4531 Q2054.3906,314.6406 2054.0625,313.5 Q2053.7344,312.3438 2053.7344,310.9531 Q2053.7344,309.5781 2054.1094,308.4219 Q2054.4844,307.2656 2055.2031,306.4375 Q2055.9219,305.6094 2056.9844,305.1563 Q2058.0469,304.6875 2059.4375,304.6875 Q2060.3438,304.6875 2061.25,304.9219 Q2062.1563,305.1406 2062.9844,305.5469 L2062.1563,307.6406 Q2061.4688,307.3125 2060.7813,307.0781 Q2060.0938,306.8281 2059.4375,306.8281 Z " fill="#000000"/><text fill="#000000" font-family="sans-serif" font-size="14" lengthAdjust="spacing" textLength="41" x="2073.5" y="315.8467">Access</text></g><!--class IndexedFileAnchor--><g id="elem_IndexedFileAnchor"><rect codeLine="53" fill="#CCFFFF" height="32" id="IndexedFileAnchor" rx="2.5" ry="2.5" style="stroke:#A9A9A9;stroke-width:0.5;" width="152" x="2642" y="191"/><ellipse cx="2657" cy="207" fill="#FFFFFF" rx="11" ry="11" style="stroke:#181818;stroke-width:1.0;"/><path d="M2656.9375,202.8281 Q2656.1875,202.8281 2655.625,203.125 Q2655.0625,203.4063 2654.6719,203.9375 Q2654.2813,204.4688 2654.0781,205.25 Q2653.8906,206.0156 2653.8906,206.9688 Q2653.8906,207.9375 2654.0625,208.7031 Q2654.25,209.4531 2654.6094,209.9688 Q2654.9844,210.4844 2655.5625,210.7656 Q2656.1406,211.0313 2656.9375,211.0313 Q2657.6719,211.0313 2658.4063,210.8594 Q2659.1563,210.6875 2660.0313,210.3906 L2660.0313,212.5469 Q2659.625,212.7031 2659.2344,212.8281 Q2658.8438,212.9375 2658.4375,213.0156 Q2658.0313,213.0938 2657.6094,213.125 Q2657.1875,213.1719 2656.6875,213.1719 Q2655.2813,213.1719 2654.25,212.7188 Q2653.2344,212.2656 2652.5625,211.4531 Q2651.8906,210.6406 2651.5625,209.5 Q2651.2344,208.3438 2651.2344,206.9531 Q2651.2344,205.5781 2651.6094,204.4219 Q2651.9844,203.2656 2652.7031,202.4375 Q2653.4219,201.6094 2654.4844,201.1563 Q2655.5469,200.6875 2656.9375,200.6875 Q2657.8438,200.6875 2658.75,200.9219 Q2659.6563,201.1406 2660.4844,201.5469 L2659.6563,203.6406 Q2658.9688,203.3125 2658.2813,203.0781 Q2657.5938,202.8281 2656.9375,202.8281 Z " fill="#000000"/><text fill="#000000" font-family="sans-serif" font-size="14" lengthAdjust="spacing" textLength="120" x="2671" y="211.8467">IndexedFileAnchor</text></g><!--class Reference--><g id="elem_Reference"><rect codeLine="55" fill="#CCFFFF" height="32" id="Reference" rx="2.5" ry="2.5" style="stroke:#A9A9A9;stroke-width:0.5;" width="97" x="2152.5" y="295"/><ellipse cx="2167.5" cy="311" fill="#FFFFFF" rx="11" ry="11" style="stroke:#181818;stroke-width:1.0;"/><path d="M2167.4375,306.8281 Q2166.6875,306.8281 2166.125,307.125 Q2165.5625,307.4063 2165.1719,307.9375 Q2164.7813,308.4688 2164.5781,309.25 Q2164.3906,310.0156 2164.3906,310.9688 Q2164.3906,311.9375 2164.5625,312.7031 Q2164.75,313.4531 2165.1094,313.9688 Q2165.4844,314.4844 2166.0625,314.7656 Q2166.6406,315.0313 2167.4375,315.0313 Q2168.1719,315.0313 2168.9063,314.8594 Q2169.6563,314.6875 2170.5313,314.3906 L2170.5313,316.5469 Q2170.125,316.7031 2169.7344,316.8281 Q2169.3438,316.9375 2168.9375,317.0156 Q2168.5313,317.0938 2168.1094,317.125 Q2167.6875,317.1719 2167.1875,317.1719 Q2165.7813,317.1719 2164.75,316.7188 Q2163.7344,316.2656 2163.0625,315.4531 Q2162.3906,314.6406 2162.0625,313.5 Q2161.7344,312.3438 2161.7344,310.9531 Q2161.7344,309.5781 2162.1094,308.4219 Q2162.4844,307.2656 2163.2031,306.4375 Q2163.9219,305.6094 2164.9844,305.1563 Q2166.0469,304.6875 2167.4375,304.6875 Q2168.3438,304.6875 2169.25,304.9219 Q2170.1563,305.1406 2170.9844,305.5469 L2170.1563,307.6406 Q2169.4688,307.3125 2168.7813,307.0781 Q2168.0938,306.8281 2167.4375,306.8281 Z " fill="#000000"/><text fill="#000000" font-family="sans-serif" font-size="14" lengthAdjust="spacing" textLength="65" x="2181.5" y="315.8467">Reference</text></g><!--class Class--><g id="elem_Class"><rect codeLine="57" fill="#CCFFFF" height="32" id="Class" rx="2.5" ry="2.5" style="stroke:#A9A9A9;stroke-width:0.5;" width="63" x="1051.5" y="491"/><ellipse cx="1066.5" cy="507" fill="#FFFFFF" rx="11" ry="11" style="stroke:#181818;stroke-width:1.0;"/><path d="M1066.4375,502.8281 Q1065.6875,502.8281 1065.125,503.125 Q1064.5625,503.4063 1064.1719,503.9375 Q1063.7813,504.4688 1063.5781,505.25 Q1063.3906,506.0156 1063.3906,506.9688 Q1063.3906,507.9375 1063.5625,508.7031 Q1063.75,509.4531 1064.1094,509.9688 Q1064.4844,510.4844 1065.0625,510.7656 Q1065.6406,511.0313 1066.4375,511.0313 Q1067.1719,511.0313 1067.9063,510.8594 Q1068.6563,510.6875 1069.5313,510.3906 L1069.5313,512.5469 Q1069.125,512.7031 1068.7344,512.8281 Q1068.3438,512.9375 1067.9375,513.0156 Q1067.5313,513.0938 1067.1094,513.125 Q1066.6875,513.1719 1066.1875,513.1719 Q1064.7813,513.1719 1063.75,512.7188 Q1062.7344,512.2656 1062.0625,511.4531 Q1061.3906,510.6406 1061.0625,509.5 Q1060.7344,508.3438 1060.7344,506.9531 Q1060.7344,505.5781 1061.1094,504.4219 Q1061.4844,503.2656 1062.2031,502.4375 Q1062.9219,501.6094 1063.9844,501.1563 Q1065.0469,500.6875 1066.4375,500.6875 Q1067.3438,500.6875 1068.25,500.9219 Q1069.1563,501.1406 1069.9844,501.5469 L1069.1563,503.6406 Q1068.4688,503.3125 1067.7813,503.0781 Q1067.0938,502.8281 1066.4375,502.8281 Z " fill="#000000"/><text fill="#000000" font-family="sans-serif" font-size="14" lengthAdjust="spacing" textLength="31" x="1080.5" y="511.8467">Class</text></g><!--class Namespace--><g id="elem_Namespace"><rect codeLine="59" fill="#CCFFFF" height="32" id="Namespace" rx="2.5" ry="2.5" style="stroke:#A9A9A9;stroke-width:0.5;" width="105" x="1300.5" y="491"/><ellipse cx="1315.5" cy="507" fill="#FFFFFF" rx="11" ry="11" style="stroke:#181818;stroke-width:1.0;"/><path d="M1315.4375,502.8281 Q1314.6875,502.8281 1314.125,503.125 Q1313.5625,503.4063 1313.1719,503.9375 Q1312.7813,504.4688 1312.5781,505.25 Q1312.3906,506.0156 1312.3906,506.9688 Q1312.3906,507.9375 1312.5625,508.7031 Q1312.75,509.4531 1313.1094,509.9688 Q1313.4844,510.4844 1314.0625,510.7656 Q1314.6406,511.0313 1315.4375,511.0313 Q1316.1719,511.0313 1316.9063,510.8594 Q1317.6563,510.6875 1318.5313,510.3906 L1318.5313,512.5469 Q1318.125,512.7031 1317.7344,512.8281 Q1317.3438,512.9375 1316.9375,513.0156 Q1316.5313,513.0938 1316.1094,513.125 Q1315.6875,513.1719 1315.1875,513.1719 Q1313.7813,513.1719 1312.75,512.7188 Q1311.7344,512.2656 1311.0625,511.4531 Q1310.3906,510.6406 1310.0625,509.5 Q1309.7344,508.3438 1309.7344,506.9531 Q1309.7344,505.5781 1310.1094,504.4219 Q1310.4844,503.2656 1311.2031,502.4375 Q1311.9219,501.6094 1312.9844,501.1563 Q1314.0469,500.6875 1315.4375,500.6875 Q1316.3438,500.6875 1317.25,500.9219 Q1318.1563,501.1406 1318.9844,501.5469 L1318.1563,503.6406 Q1317.4688,503.3125 1316.7813,503.0781 Q1316.0938,502.8281 1315.4375,502.8281 Z " fill="#000000"/><text fill="#000000" font-family="sans-serif" font-size="14" lengthAdjust="spacing" textLength="73" x="1329.5" y="511.8467">Namespace</text></g><!--class Parameter--><g id="elem_Parameter"><rect codeLine="61" fill="#CCFFFF" height="32" id="Parameter" rx="2.5" ry="2.5" style="stroke:#A9A9A9;stroke-width:0.5;" width="100" x="1445" y="399"/><ellipse cx="1460" cy="415" fill="#FFFFFF" rx="11" ry="11" style="stroke:#181818;stroke-width:1.0;"/><path d="M1459.9375,410.8281 Q1459.1875,410.8281 1458.625,411.125 Q1458.0625,411.4063 1457.6719,411.9375 Q1457.2813,412.4688 1457.0781,413.25 Q1456.8906,414.0156 1456.8906,414.9688 Q1456.8906,415.9375 1457.0625,416.7031 Q1457.25,417.4531 1457.6094,417.9688 Q1457.9844,418.4844 1458.5625,418.7656 Q1459.1406,419.0313 1459.9375,419.0313 Q1460.6719,419.0313 1461.4063,418.8594 Q1462.1563,418.6875 1463.0313,418.3906 L1463.0313,420.5469 Q1462.625,420.7031 1462.2344,420.8281 Q1461.8438,420.9375 1461.4375,421.0156 Q1461.0313,421.0938 1460.6094,421.125 Q1460.1875,421.1719 1459.6875,421.1719 Q1458.2813,421.1719 1457.25,420.7188 Q1456.2344,420.2656 1455.5625,419.4531 Q1454.8906,418.6406 1454.5625,417.5 Q1454.2344,416.3438 1454.2344,414.9531 Q1454.2344,413.5781 1454.6094,412.4219 Q1454.9844,411.2656 1455.7031,410.4375 Q1456.4219,409.6094 1457.4844,409.1563 Q1458.5469,408.6875 1459.9375,408.6875 Q1460.8438,408.6875 1461.75,408.9219 Q1462.6563,409.1406 1463.4844,409.5469 L1462.6563,411.6406 Q1461.9688,411.3125 1461.2813,411.0781 Q1460.5938,410.8281 1459.9375,410.8281 Z " fill="#000000"/><text fill="#000000" font-family="sans-serif" font-size="14" lengthAdjust="spacing" textLength="68" x="1474" y="419.8467">Parameter</text></g><!--class File--><g id="elem_File"><rect codeLine="63" fill="#CCFFFF" height="32" id="File" rx="2.5" ry="2.5" style="stroke:#A9A9A9;stroke-width:0.5;" width="55" x="1692.5" y="295"/><ellipse cx="1707.5" cy="311" fill="#FFFFFF" rx="11" ry="11" style="stroke:#181818;stroke-width:1.0;"/><path d="M1707.4375,306.8281 Q1706.6875,306.8281 1706.125,307.125 Q1705.5625,307.4063 1705.1719,307.9375 Q1704.7813,308.4688 1704.5781,309.25 Q1704.3906,310.0156 1704.3906,310.9688 Q1704.3906,311.9375 1704.5625,312.7031 Q1704.75,313.4531 1705.1094,313.9688 Q1705.4844,314.4844 1706.0625,314.7656 Q1706.6406,315.0313 1707.4375,315.0313 Q1708.1719,315.0313 1708.9063,314.8594 Q1709.6563,314.6875 1710.5313,314.3906 L1710.5313,316.5469 Q1710.125,316.7031 1709.7344,316.8281 Q1709.3438,316.9375 1708.9375,317.0156 Q1708.5313,317.0938 1708.1094,317.125 Q1707.6875,317.1719 1707.1875,317.1719 Q1705.7813,317.1719 1704.75,316.7188 Q1703.7344,316.2656 1703.0625,315.4531 Q1702.3906,314.6406 1702.0625,313.5 Q1701.7344,312.3438 1701.7344,310.9531 Q1701.7344,309.5781 1702.1094,308.4219 Q1702.4844,307.2656 1703.2031,306.4375 Q1703.9219,305.6094 1704.9844,305.1563 Q1706.0469,304.6875 1707.4375,304.6875 Q1708.3438,304.6875 1709.25,304.9219 Q1710.1563,305.1406 1710.9844,305.5469 L1710.1563,307.6406 Q1709.4688,307.3125 1708.7813,307.0781 Q1708.0938,306.8281 1707.4375,306.8281 Z " fill="#000000"/><text fill="#000000" font-family="sans-serif" font-size="14" lengthAdjust="spacing" textLength="23" x="1721.5" y="315.8467">File</text></g><!--class SourceAnchor--><g id="elem_SourceAnchor"><rect codeLine="65" fill="#CCFFFF" height="32" id="SourceAnchor" rx="2.5" ry="2.5" style="stroke:#A9A9A9;stroke-width:0.5;" width="120" x="2473" y="99"/><ellipse cx="2488" cy="115" fill="#FFFFFF" rx="11" ry="11" style="stroke:#181818;stroke-width:1.0;"/><path d="M2487.9375,110.8281 Q2487.1875,110.8281 2486.625,111.125 Q2486.0625,111.4063 2485.6719,111.9375 Q2485.2813,112.4688 2485.0781,113.25 Q2484.8906,114.0156 2484.8906,114.9688 Q2484.8906,115.9375 2485.0625,116.7031 Q2485.25,117.4531 2485.6094,117.9688 Q2485.9844,118.4844 2486.5625,118.7656 Q2487.1406,119.0313 2487.9375,119.0313 Q2488.6719,119.0313 2489.4063,118.8594 Q2490.1563,118.6875 2491.0313,118.3906 L2491.0313,120.5469 Q2490.625,120.7031 2490.2344,120.8281 Q2489.8438,120.9375 2489.4375,121.0156 Q2489.0313,121.0938 2488.6094,121.125 Q2488.1875,121.1719 2487.6875,121.1719 Q2486.2813,121.1719 2485.25,120.7188 Q2484.2344,120.2656 2483.5625,119.4531 Q2482.8906,118.6406 2482.5625,117.5 Q2482.2344,116.3438 2482.2344,114.9531 Q2482.2344,113.5781 2482.6094,112.4219 Q2482.9844,111.2656 2483.7031,110.4375 Q2484.4219,109.6094 2485.4844,109.1563 Q2486.5469,108.6875 2487.9375,108.6875 Q2488.8438,108.6875 2489.75,108.9219 Q2490.6563,109.1406 2491.4844,109.5469 L2490.6563,111.6406 Q2489.9688,111.3125 2489.2813,111.0781 Q2488.5938,110.8281 2487.9375,110.8281 Z " fill="#000000"/><text fill="#000000" font-family="sans-serif" font-size="14" lengthAdjust="spacing" textLength="88" x="2502" y="119.8467">SourceAnchor</text></g><!--class Entity--><g id="elem_Entity"><rect codeLine="67" fill="#CCFFFF" height="32" id="Entity" rx="2.5" ry="2.5" style="stroke:#A9A9A9;stroke-width:0.5;" width="68" x="2743" y="7"/><ellipse cx="2758" cy="23" fill="#FFFFFF" rx="11" ry="11" style="stroke:#181818;stroke-width:1.0;"/><path d="M2757.9375,18.8281 Q2757.1875,18.8281 2756.625,19.125 Q2756.0625,19.4063 2755.6719,19.9375 Q2755.2813,20.4688 2755.0781,21.25 Q2754.8906,22.0156 2754.8906,22.9688 Q2754.8906,23.9375 2755.0625,24.7031 Q2755.25,25.4531 2755.6094,25.9688 Q2755.9844,26.4844 2756.5625,26.7656 Q2757.1406,27.0313 2757.9375,27.0313 Q2758.6719,27.0313 2759.4063,26.8594 Q2760.1563,26.6875 2761.0313,26.3906 L2761.0313,28.5469 Q2760.625,28.7031 2760.2344,28.8281 Q2759.8438,28.9375 2759.4375,29.0156 Q2759.0313,29.0938 2758.6094,29.125 Q2758.1875,29.1719 2757.6875,29.1719 Q2756.2813,29.1719 2755.25,28.7188 Q2754.2344,28.2656 2753.5625,27.4531 Q2752.8906,26.6406 2752.5625,25.5 Q2752.2344,24.3438 2752.2344,22.9531 Q2752.2344,21.5781 2752.6094,20.4219 Q2752.9844,19.2656 2753.7031,18.4375 Q2754.4219,17.6094 2755.4844,17.1563 Q2756.5469,16.6875 2757.9375,16.6875 Q2758.8438,16.6875 2759.75,16.9219 Q2760.6563,17.1406 2761.4844,17.5469 L2760.6563,19.6406 Q2759.9688,19.3125 2759.2813,19.0781 Q2758.5938,18.8281 2757.9375,18.8281 Z " fill="#000000"/><text fill="#000000" font-family="sans-serif" font-size="14" lengthAdjust="spacing" textLength="36" x="2772" y="27.8467">Entity</text></g><!--class Enum--><g id="elem_Enum"><rect codeLine="69" fill="#CCFFFF" height="32" id="Enum" rx="2.5" ry="2.5" style="stroke:#A9A9A9;stroke-width:0.5;" width="68" x="783" y="491"/><ellipse cx="798" cy="507" fill="#FFFFFF" rx="11" ry="11" style="stroke:#181818;stroke-width:1.0;"/><path d="M797.9375,502.8281 Q797.1875,502.8281 796.625,503.125 Q796.0625,503.4063 795.6719,503.9375 Q795.2813,504.4688 795.0781,505.25 Q794.8906,506.0156 794.8906,506.9688 Q794.8906,507.9375 795.0625,508.7031 Q795.25,509.4531 795.6094,509.9688 Q795.9844,510.4844 796.5625,510.7656 Q797.1406,511.0313 797.9375,511.0313 Q798.6719,511.0313 799.4063,510.8594 Q800.1563,510.6875 801.0313,510.3906 L801.0313,512.5469 Q800.625,512.7031 800.2344,512.8281 Q799.8438,512.9375 799.4375,513.0156 Q799.0313,513.0938 798.6094,513.125 Q798.1875,513.1719 797.6875,513.1719 Q796.2813,513.1719 795.25,512.7188 Q794.2344,512.2656 793.5625,511.4531 Q792.8906,510.6406 792.5625,509.5 Q792.2344,508.3438 792.2344,506.9531 Q792.2344,505.5781 792.6094,504.4219 Q792.9844,503.2656 793.7031,502.4375 Q794.4219,501.6094 795.4844,501.1563 Q796.5469,500.6875 797.9375,500.6875 Q798.8438,500.6875 799.75,500.9219 Q800.6563,501.1406 801.4844,501.5469 L800.6563,503.6406 Q799.9688,503.3125 799.2813,503.0781 Q798.5938,502.8281 797.9375,502.8281 Z " fill="#000000"/><text fill="#000000" font-family="sans-serif" font-size="14" lengthAdjust="spacing" textLength="36" x="812" y="511.8467">Enum</text></g><!--class Property--><g id="elem_Property"><rect codeLine="71" fill="#CCFFFF" height="32" id="Property" rx="2.5" ry="2.5" style="stroke:#A9A9A9;stroke-width:0.5;" width="88" x="1580" y="399"/><ellipse cx="1595" cy="415" fill="#FFFFFF" rx="11" ry="11" style="stroke:#181818;stroke-width:1.0;"/><path d="M1594.9375,410.8281 Q1594.1875,410.8281 1593.625,411.125 Q1593.0625,411.4063 1592.6719,411.9375 Q1592.2813,412.4688 1592.0781,413.25 Q1591.8906,414.0156 1591.8906,414.9688 Q1591.8906,415.9375 1592.0625,416.7031 Q1592.25,417.4531 1592.6094,417.9688 Q1592.9844,418.4844 1593.5625,418.7656 Q1594.1406,419.0313 1594.9375,419.0313 Q1595.6719,419.0313 1596.4063,418.8594 Q1597.1563,418.6875 1598.0313,418.3906 L1598.0313,420.5469 Q1597.625,420.7031 1597.2344,420.8281 Q1596.8438,420.9375 1596.4375,421.0156 Q1596.0313,421.0938 1595.6094,421.125 Q1595.1875,421.1719 1594.6875,421.1719 Q1593.2813,421.1719 1592.25,420.7188 Q1591.2344,420.2656 1590.5625,419.4531 Q1589.8906,418.6406 1589.5625,417.5 Q1589.2344,416.3438 1589.2344,414.9531 Q1589.2344,413.5781 1589.6094,412.4219 Q1589.9844,411.2656 1590.7031,410.4375 Q1591.4219,409.6094 1592.4844,409.1563 Q1593.5469,408.6875 1594.9375,408.6875 Q1595.8438,408.6875 1596.75,408.9219 Q1597.6563,409.1406 1598.4844,409.5469 L1597.6563,411.6406 Q1596.9688,411.3125 1596.2813,411.0781 Q1595.5938,410.8281 1594.9375,410.8281 Z " fill="#000000"/><text fill="#000000" font-family="sans-serif" font-size="14" lengthAdjust="spacing" textLength="56" x="1609" y="419.8467">Property</text></g><!--class ContainerEntity--><g id="elem_ContainerEntity"><rect codeLine="73" fill="#CCFFFF" height="32" id="ContainerEntity" rx="2.5" ry="2.5" style="stroke:#A9A9A9;stroke-width:0.5;" width="130" x="930" y="295"/><ellipse cx="945" cy="311" fill="#FFFFFF" rx="11" ry="11" style="stroke:#181818;stroke-width:1.0;"/><path d="M944.9375,306.8281 Q944.1875,306.8281 943.625,307.125 Q943.0625,307.4063 942.6719,307.9375 Q942.2813,308.4688 942.0781,309.25 Q941.8906,310.0156 941.8906,310.9688 Q941.8906,311.9375 942.0625,312.7031 Q942.25,313.4531 942.6094,313.9688 Q942.9844,314.4844 943.5625,314.7656 Q944.1406,315.0313 944.9375,315.0313 Q945.6719,315.0313 946.4063,314.8594 Q947.1563,314.6875 948.0313,314.3906 L948.0313,316.5469 Q947.625,316.7031 947.2344,316.8281 Q946.8438,316.9375 946.4375,317.0156 Q946.0313,317.0938 945.6094,317.125 Q945.1875,317.1719 944.6875,317.1719 Q943.2813,317.1719 942.25,316.7188 Q941.2344,316.2656 940.5625,315.4531 Q939.8906,314.6406 939.5625,313.5 Q939.2344,312.3438 939.2344,310.9531 Q939.2344,309.5781 939.6094,308.4219 Q939.9844,307.2656 940.7031,306.4375 Q941.4219,305.6094 942.4844,305.1563 Q943.5469,304.6875 944.9375,304.6875 Q945.8438,304.6875 946.75,304.9219 Q947.6563,305.1406 948.4844,305.5469 L947.6563,307.6406 Q946.9688,307.3125 946.2813,307.0781 Q945.5938,306.8281 944.9375,306.8281 Z " fill="#000000"/><text fill="#000000" font-family="sans-serif" font-size="14" lengthAdjust="spacing" textLength="98" x="959" y="315.8467">ContainerEntity</text></g><!--class ParametricMethod--><g id="elem_ParametricMethod"><rect codeLine="75" fill="#CCFFFF" height="32" id="ParametricMethod" rx="2.5" ry="2.5" style="stroke:#A9A9A9;stroke-width:0.5;" width="151" x="320.5" y="583"/><ellipse cx="335.5" cy="599" fill="#FFFFFF" rx="11" ry="11" style="stroke:#181818;stroke-width:1.0;"/><path d="M335.4375,594.8281 Q334.6875,594.8281 334.125,595.125 Q333.5625,595.4063 333.1719,595.9375 Q332.7813,596.4688 332.5781,597.25 Q332.3906,598.0156 332.3906,598.9688 Q332.3906,599.9375 332.5625,600.7031 Q332.75,601.4531 333.1094,601.9688 Q333.4844,602.4844 334.0625,602.7656 Q334.6406,603.0313 335.4375,603.0313 Q336.1719,603.0313 336.9063,602.8594 Q337.6563,602.6875 338.5313,602.3906 L338.5313,604.5469 Q338.125,604.7031 337.7344,604.8281 Q337.3438,604.9375 336.9375,605.0156 Q336.5313,605.0938 336.1094,605.125 Q335.6875,605.1719 335.1875,605.1719 Q333.7813,605.1719 332.75,604.7188 Q331.7344,604.2656 331.0625,603.4531 Q330.3906,602.6406 330.0625,601.5 Q329.7344,600.3438 329.7344,598.9531 Q329.7344,597.5781 330.1094,596.4219 Q330.4844,595.2656 331.2031,594.4375 Q331.9219,593.6094 332.9844,593.1563 Q334.0469,592.6875 335.4375,592.6875 Q336.3438,592.6875 337.25,592.9219 Q338.1563,593.1406 338.9844,593.5469 L338.1563,595.6406 Q337.4688,595.3125 336.7813,595.0781 Q336.0938,594.8281 335.4375,594.8281 Z " fill="#000000"/><text fill="#000000" font-family="sans-serif" font-size="14" lengthAdjust="spacing" textLength="119" x="349.5" y="603.8467">ParametricMethod</text></g><!--class SourceLanguage--><g id="elem_SourceLanguage"><rect codeLine="77" fill="#CCFFFF" height="32" id="SourceLanguage" rx="2.5" ry="2.5" style="stroke:#A9A9A9;stroke-width:0.5;" width="134" x="2628" y="99"/><ellipse cx="2643" cy="115" fill="#FFFFFF" rx="11" ry="11" style="stroke:#181818;stroke-width:1.0;"/><path d="M2642.9375,110.8281 Q2642.1875,110.8281 2641.625,111.125 Q2641.0625,111.4063 2640.6719,111.9375 Q2640.2813,112.4688 2640.0781,113.25 Q2639.8906,114.0156 2639.8906,114.9688 Q2639.8906,115.9375 2640.0625,116.7031 Q2640.25,117.4531 2640.6094,117.9688 Q2640.9844,118.4844 2641.5625,118.7656 Q2642.1406,119.0313 2642.9375,119.0313 Q2643.6719,119.0313 2644.4063,118.8594 Q2645.1563,118.6875 2646.0313,118.3906 L2646.0313,120.5469 Q2645.625,120.7031 2645.2344,120.8281 Q2644.8438,120.9375 2644.4375,121.0156 Q2644.0313,121.0938 2643.6094,121.125 Q2643.1875,121.1719 2642.6875,121.1719 Q2641.2813,121.1719 2640.25,120.7188 Q2639.2344,120.2656 2638.5625,119.4531 Q2637.8906,118.6406 2637.5625,117.5 Q2637.2344,116.3438 2637.2344,114.9531 Q2637.2344,113.5781 2637.6094,112.4219 Q2637.9844,111.2656 2638.7031,110.4375 Q2639.4219,109.6094 2640.4844,109.1563 Q2641.5469,108.6875 2642.9375,108.6875 Q2643.8438,108.6875 2644.75,108.9219 Q2645.6563,109.1406 2646.4844,109.5469 L2645.6563,111.6406 Q2644.9688,111.3125 2644.2813,111.0781 Q2643.5938,110.8281 2642.9375,110.8281 Z " fill="#000000"/><text fill="#000000" font-family="sans-serif" font-size="14" lengthAdjust="spacing" textLength="102" x="2657" y="119.8467">SourceLanguage</text></g><!--class Function--><g id="elem_Function"><rect codeLine="79" fill="#CCFFFF" height="32" id="Function" rx="2.5" ry="2.5" style="stroke:#A9A9A9;stroke-width:0.5;" width="86" x="61" y="491"/><ellipse cx="76" cy="507" fill="#FFFFFF" rx="11" ry="11" style="stroke:#181818;stroke-width:1.0;"/><path d="M75.9375,502.8281 Q75.1875,502.8281 74.625,503.125 Q74.0625,503.4063 73.6719,503.9375 Q73.2813,504.4688 73.0781,505.25 Q72.8906,506.0156 72.8906,506.9688 Q72.8906,507.9375 73.0625,508.7031 Q73.25,509.4531 73.6094,509.9688 Q73.9844,510.4844 74.5625,510.7656 Q75.1406,511.0313 75.9375,511.0313 Q76.6719,511.0313 77.4063,510.8594 Q78.1563,510.6875 79.0313,510.3906 L79.0313,512.5469 Q78.625,512.7031 78.2344,512.8281 Q77.8438,512.9375 77.4375,513.0156 Q77.0313,513.0938 76.6094,513.125 Q76.1875,513.1719 75.6875,513.1719 Q74.2813,513.1719 73.25,512.7188 Q72.2344,512.2656 71.5625,511.4531 Q70.8906,510.6406 70.5625,509.5 Q70.2344,508.3438 70.2344,506.9531 Q70.2344,505.5781 70.6094,504.4219 Q70.9844,503.2656 71.7031,502.4375 Q72.4219,501.6094 73.4844,501.1563 Q74.5469,500.6875 75.9375,500.6875 Q76.8438,500.6875 77.75,500.9219 Q78.6563,501.1406 79.4844,501.5469 L78.6563,503.6406 Q77.9688,503.3125 77.2813,503.0781 Q76.5938,502.8281 75.9375,502.8281 Z " fill="#000000"/><text fill="#000000" font-family="sans-serif" font-size="14" lengthAdjust="spacing" textLength="54" x="90" y="511.8467">Function</text></g><!--class Decorator--><g id="elem_Decorator"><rect codeLine="81" fill="#CCFFFF" height="56.2969" id="Decorator" rx="2.5" ry="2.5" style="stroke:#A9A9A9;stroke-width:0.5;" width="122" x="1273" y="283"/><ellipse cx="1299.7" cy="299" fill="#FFFFFF" rx="11" ry="11" style="stroke:#181818;stroke-width:1.0;"/><path d="M1299.6375,294.8281 Q1298.8875,294.8281 1298.325,295.125 Q1297.7625,295.4063 1297.3719,295.9375 Q1296.9813,296.4688 1296.7781,297.25 Q1296.5906,298.0156 1296.5906,298.9688 Q1296.5906,299.9375 1296.7625,300.7031 Q1296.95,301.4531 1297.3094,301.9688 Q1297.6844,302.4844 1298.2625,302.7656 Q1298.8406,303.0313 1299.6375,303.0313 Q1300.3719,303.0313 1301.1063,302.8594 Q1301.8563,302.6875 1302.7313,302.3906 L1302.7313,304.5469 Q1302.325,304.7031 1301.9344,304.8281 Q1301.5438,304.9375 1301.1375,305.0156 Q1300.7313,305.0938 1300.3094,305.125 Q1299.8875,305.1719 1299.3875,305.1719 Q1297.9813,305.1719 1296.95,304.7188 Q1295.9344,304.2656 1295.2625,303.4531 Q1294.5906,302.6406 1294.2625,301.5 Q1293.9344,300.3438 1293.9344,298.9531 Q1293.9344,297.5781 1294.3094,296.4219 Q1294.6844,295.2656 1295.4031,294.4375 Q1296.1219,293.6094 1297.1844,293.1563 Q1298.2469,292.6875 1299.6375,292.6875 Q1300.5438,292.6875 1301.45,292.9219 Q1302.3563,293.1406 1303.1844,293.5469 L1302.3563,295.6406 Q1301.6688,295.3125 1300.9813,295.0781 Q1300.2938,294.8281 1299.6375,294.8281 Z " fill="#000000"/><text fill="#000000" font-family="sans-serif" font-size="14" lengthAdjust="spacing" textLength="64" x="1316.3" y="303.8467">Decorator</text><line style="stroke:#A9A9A9;stroke-width:0.5;" x1="1274" x2="1394" y1="315" y2="315"/><text fill="#000000" font-family="sans-serif" font-size="14" lengthAdjust="spacing" textLength="110" x="1279" y="331.9951">String expression</text></g><!--class TWithInterfaces--><g id="elem_TWithInterfaces"><rect codeLine="84" fill="#CCFFFF" height="32" id="TWithInterfaces" rx="2.5" ry="2.5" style="stroke:#A9A9A9;stroke-width:0.5;" width="132" x="929" y="191"/><ellipse cx="944" cy="207" fill="#FFFFFF" rx="11" ry="11" style="stroke:#181818;stroke-width:1.0;"/><path d="M945.4531,213.75 L942.8906,213.75 L942.8906,203.75 L939.8438,203.75 L939.8438,201.6094 L948.4844,201.6094 L948.4844,203.75 L945.4531,203.75 L945.4531,213.75 Z " fill="#000000"/><text fill="#000000" font-family="sans-serif" font-size="14" lengthAdjust="spacing" textLength="100" x="958" y="211.8467">TWithInterfaces</text></g><!--class Concretization--><g id="elem_Concretization"><rect codeLine="86" fill="#CCFFFF" height="32" id="Concretization" rx="2.5" ry="2.5" style="stroke:#A9A9A9;stroke-width:0.5;" width="123" x="2797.5" y="99"/><ellipse cx="2812.5" cy="115" fill="#FFFFFF" rx="11" ry="11" style="stroke:#181818;stroke-width:1.0;"/><path d="M2812.4375,110.8281 Q2811.6875,110.8281 2811.125,111.125 Q2810.5625,111.4063 2810.1719,111.9375 Q2809.7813,112.4688 2809.5781,113.25 Q2809.3906,114.0156 2809.3906,114.9688 Q2809.3906,115.9375 2809.5625,116.7031 Q2809.75,117.4531 2810.1094,117.9688 Q2810.4844,118.4844 2811.0625,118.7656 Q2811.6406,119.0313 2812.4375,119.0313 Q2813.1719,119.0313 2813.9063,118.8594 Q2814.6563,118.6875 2815.5313,118.3906 L2815.5313,120.5469 Q2815.125,120.7031 2814.7344,120.8281 Q2814.3438,120.9375 2813.9375,121.0156 Q2813.5313,121.0938 2813.1094,121.125 Q2812.6875,121.1719 2812.1875,121.1719 Q2810.7813,121.1719 2809.75,120.7188 Q2808.7344,120.2656 2808.0625,119.4531 Q2807.3906,118.6406 2807.0625,117.5 Q2806.7344,116.3438 2806.7344,114.9531 Q2806.7344,113.5781 2807.1094,112.4219 Q2807.4844,111.2656 2808.2031,110.4375 Q2808.9219,109.6094 2809.9844,109.1563 Q2811.0469,108.6875 2812.4375,108.6875 Q2813.3438,108.6875 2814.25,108.9219 Q2815.1563,109.1406 2815.9844,109.5469 L2815.1563,111.6406 Q2814.4688,111.3125 2813.7813,111.0781 Q2813.0938,110.8281 2812.4375,110.8281 Z " fill="#000000"/><text fill="#000000" font-family="sans-serif" font-size="14" lengthAdjust="spacing" textLength="91" x="2826.5" y="119.8467">Concretization</text></g><!--class Variable--><g id="elem_Variable"><rect codeLine="88" fill="#CCFFFF" height="32" id="Variable" rx="2.5" ry="2.5" style="stroke:#A9A9A9;stroke-width:0.5;" width="84" x="1703" y="399"/><ellipse cx="1718" cy="415" fill="#FFFFFF" rx="11" ry="11" style="stroke:#181818;stroke-width:1.0;"/><path d="M1717.9375,410.8281 Q1717.1875,410.8281 1716.625,411.125 Q1716.0625,411.4063 1715.6719,411.9375 Q1715.2813,412.4688 1715.0781,413.25 Q1714.8906,414.0156 1714.8906,414.9688 Q1714.8906,415.9375 1715.0625,416.7031 Q1715.25,417.4531 1715.6094,417.9688 Q1715.9844,418.4844 1716.5625,418.7656 Q1717.1406,419.0313 1717.9375,419.0313 Q1718.6719,419.0313 1719.4063,418.8594 Q1720.1563,418.6875 1721.0313,418.3906 L1721.0313,420.5469 Q1720.625,420.7031 1720.2344,420.8281 Q1719.8438,420.9375 1719.4375,421.0156 Q1719.0313,421.0938 1718.6094,421.125 Q1718.1875,421.1719 1717.6875,421.1719 Q1716.2813,421.1719 1715.25,420.7188 Q1714.2344,420.2656 1713.5625,419.4531 Q1712.8906,418.6406 1712.5625,417.5 Q1712.2344,416.3438 1712.2344,414.9531 Q1712.2344,413.5781 1712.6094,412.4219 Q1712.9844,411.2656 1713.7031,410.4375 Q1714.4219,409.6094 1715.4844,409.1563 Q1716.5469,408.6875 1717.9375,408.6875 Q1718.8438,408.6875 1719.75,408.9219 Q1720.6563,409.1406 1721.4844,409.5469 L1720.6563,411.6406 Q1719.9688,411.3125 1719.2813,411.0781 Q1718.5938,410.8281 1717.9375,410.8281 Z " fill="#000000"/><text fill="#000000" font-family="sans-serif" font-size="14" lengthAdjust="spacing" textLength="52" x="1732" y="419.8467">Variable</text></g><!--class Folder--><g id="elem_Folder"><rect codeLine="90" fill="#CCFFFF" height="32" id="Folder" rx="2.5" ry="2.5" style="stroke:#A9A9A9;stroke-width:0.5;" width="73" x="1782.5" y="295"/><ellipse cx="1797.5" cy="311" fill="#FFFFFF" rx="11" ry="11" style="stroke:#181818;stroke-width:1.0;"/><path d="M1797.4375,306.8281 Q1796.6875,306.8281 1796.125,307.125 Q1795.5625,307.4063 1795.1719,307.9375 Q1794.7813,308.4688 1794.5781,309.25 Q1794.3906,310.0156 1794.3906,310.9688 Q1794.3906,311.9375 1794.5625,312.7031 Q1794.75,313.4531 1795.1094,313.9688 Q1795.4844,314.4844 1796.0625,314.7656 Q1796.6406,315.0313 1797.4375,315.0313 Q1798.1719,315.0313 1798.9063,314.8594 Q1799.6563,314.6875 1800.5313,314.3906 L1800.5313,316.5469 Q1800.125,316.7031 1799.7344,316.8281 Q1799.3438,316.9375 1798.9375,317.0156 Q1798.5313,317.0938 1798.1094,317.125 Q1797.6875,317.1719 1797.1875,317.1719 Q1795.7813,317.1719 1794.75,316.7188 Q1793.7344,316.2656 1793.0625,315.4531 Q1792.3906,314.6406 1792.0625,313.5 Q1791.7344,312.3438 1791.7344,310.9531 Q1791.7344,309.5781 1792.1094,308.4219 Q1792.4844,307.2656 1793.2031,306.4375 Q1793.9219,305.6094 1794.9844,305.1563 Q1796.0469,304.6875 1797.4375,304.6875 Q1798.3438,304.6875 1799.25,304.9219 Q1800.1563,305.1406 1800.9844,305.5469 L1800.1563,307.6406 Q1799.4688,307.3125 1798.7813,307.0781 Q1798.0938,306.8281 1797.4375,306.8281 Z " fill="#000000"/><text fill="#000000" font-family="sans-serif" font-size="14" lengthAdjust="spacing" textLength="41" x="1811.5" y="315.8467">Folder</text></g><!--class TEntityCreator--><g id="elem_TEntityCreator"><rect codeLine="92" fill="#CCFFFF" height="32" id="TEntityCreator" rx="2.5" ry="2.5" style="stroke:#A9A9A9;stroke-width:0.5;" width="123" x="3379.5" y="7"/><ellipse cx="3394.5" cy="23" fill="#FFFFFF" rx="11" ry="11" style="stroke:#181818;stroke-width:1.0;"/><path d="M3395.9531,29.75 L3393.3906,29.75 L3393.3906,19.75 L3390.3438,19.75 L3390.3438,17.6094 L3398.9844,17.6094 L3398.9844,19.75 L3395.9531,19.75 L3395.9531,29.75 Z " fill="#000000"/><text fill="#000000" font-family="sans-serif" font-size="14" lengthAdjust="spacing" textLength="91" x="3408.5" y="27.8467">TEntityCreator</text></g><!--class ParameterConcretization--><g id="elem_ParameterConcretization"><rect codeLine="94" fill="#CCFFFF" height="32" id="ParameterConcretization" rx="2.5" ry="2.5" style="stroke:#A9A9A9;stroke-width:0.5;" width="191" x="2955.5" y="99"/><ellipse cx="2970.5" cy="115" fill="#FFFFFF" rx="11" ry="11" style="stroke:#181818;stroke-width:1.0;"/><path d="M2970.4375,110.8281 Q2969.6875,110.8281 2969.125,111.125 Q2968.5625,111.4063 2968.1719,111.9375 Q2967.7813,112.4688 2967.5781,113.25 Q2967.3906,114.0156 2967.3906,114.9688 Q2967.3906,115.9375 2967.5625,116.7031 Q2967.75,117.4531 2968.1094,117.9688 Q2968.4844,118.4844 2969.0625,118.7656 Q2969.6406,119.0313 2970.4375,119.0313 Q2971.1719,119.0313 2971.9063,118.8594 Q2972.6563,118.6875 2973.5313,118.3906 L2973.5313,120.5469 Q2973.125,120.7031 2972.7344,120.8281 Q2972.3438,120.9375 2971.9375,121.0156 Q2971.5313,121.0938 2971.1094,121.125 Q2970.6875,121.1719 2970.1875,121.1719 Q2968.7813,121.1719 2967.75,120.7188 Q2966.7344,120.2656 2966.0625,119.4531 Q2965.3906,118.6406 2965.0625,117.5 Q2964.7344,116.3438 2964.7344,114.9531 Q2964.7344,113.5781 2965.1094,112.4219 Q2965.4844,111.2656 2966.2031,110.4375 Q2966.9219,109.6094 2967.9844,109.1563 Q2969.0469,108.6875 2970.4375,108.6875 Q2971.3438,108.6875 2972.25,108.9219 Q2973.1563,109.1406 2973.9844,109.5469 L2973.1563,111.6406 Q2972.4688,111.3125 2971.7813,111.0781 Q2971.0938,110.8281 2970.4375,110.8281 Z " fill="#000000"/><text fill="#000000" font-family="sans-serif" font-size="14" lengthAdjust="spacing" textLength="159" x="2984.5" y="119.8467">ParameterConcretization</text></g><!--class NamedEntity--><g id="elem_NamedEntity"><rect codeLine="96" fill="#CCFFFF" height="32" id="NamedEntity" rx="2.5" ry="2.5" style="stroke:#A9A9A9;stroke-width:0.5;" width="114" x="1503" y="191"/><ellipse cx="1518" cy="207" fill="#FFFFFF" rx="11" ry="11" style="stroke:#181818;stroke-width:1.0;"/><path d="M1517.9375,202.8281 Q1517.1875,202.8281 1516.625,203.125 Q1516.0625,203.4063 1515.6719,203.9375 Q1515.2813,204.4688 1515.0781,205.25 Q1514.8906,206.0156 1514.8906,206.9688 Q1514.8906,207.9375 1515.0625,208.7031 Q1515.25,209.4531 1515.6094,209.9688 Q1515.9844,210.4844 1516.5625,210.7656 Q1517.1406,211.0313 1517.9375,211.0313 Q1518.6719,211.0313 1519.4063,210.8594 Q1520.1563,210.6875 1521.0313,210.3906 L1521.0313,212.5469 Q1520.625,212.7031 1520.2344,212.8281 Q1519.8438,212.9375 1519.4375,213.0156 Q1519.0313,213.0938 1518.6094,213.125 Q1518.1875,213.1719 1517.6875,213.1719 Q1516.2813,213.1719 1515.25,212.7188 Q1514.2344,212.2656 1513.5625,211.4531 Q1512.8906,210.6406 1512.5625,209.5 Q1512.2344,208.3438 1512.2344,206.9531 Q1512.2344,205.5781 1512.6094,204.4219 Q1512.9844,203.2656 1513.7031,202.4375 Q1514.4219,201.6094 1515.4844,201.1563 Q1516.5469,200.6875 1517.9375,200.6875 Q1518.8438,200.6875 1519.75,200.9219 Q1520.6563,201.1406 1521.4844,201.5469 L1520.6563,203.6406 Q1519.9688,203.3125 1519.2813,203.0781 Q1518.5938,202.8281 1517.9375,202.8281 Z " fill="#000000"/><text fill="#000000" font-family="sans-serif" font-size="14" lengthAdjust="spacing" textLength="82" x="1532" y="211.8467">NamedEntity</text></g><!--class ParametricInterface--><g id="elem_ParametricInterface"><rect codeLine="98" fill="#CCFFFF" height="32" id="ParametricInterface" rx="2.5" ry="2.5" style="stroke:#A9A9A9;stroke-width:0.5;" width="160" x="623" y="583"/><ellipse cx="638" cy="599" fill="#FFFFFF" rx="11" ry="11" style="stroke:#181818;stroke-width:1.0;"/><path d="M637.9375,594.8281 Q637.1875,594.8281 636.625,595.125 Q636.0625,595.4063 635.6719,595.9375 Q635.2813,596.4688 635.0781,597.25 Q634.8906,598.0156 634.8906,598.9688 Q634.8906,599.9375 635.0625,600.7031 Q635.25,601.4531 635.6094,601.9688 Q635.9844,602.4844 636.5625,602.7656 Q637.1406,603.0313 637.9375,603.0313 Q638.6719,603.0313 639.4063,602.8594 Q640.1563,602.6875 641.0313,602.3906 L641.0313,604.5469 Q640.625,604.7031 640.2344,604.8281 Q639.8438,604.9375 639.4375,605.0156 Q639.0313,605.0938 638.6094,605.125 Q638.1875,605.1719 637.6875,605.1719 Q636.2813,605.1719 635.25,604.7188 Q634.2344,604.2656 633.5625,603.4531 Q632.8906,602.6406 632.5625,601.5 Q632.2344,600.3438 632.2344,598.9531 Q632.2344,597.5781 632.6094,596.4219 Q632.9844,595.2656 633.7031,594.4375 Q634.4219,593.6094 635.4844,593.1563 Q636.5469,592.6875 637.9375,592.6875 Q638.8438,592.6875 639.75,592.9219 Q640.6563,593.1406 641.4844,593.5469 L640.6563,595.6406 Q639.9688,595.3125 639.2813,595.0781 Q638.5938,594.8281 637.9375,594.8281 Z " fill="#000000"/><text fill="#000000" font-family="sans-serif" font-size="14" lengthAdjust="spacing" textLength="128" x="652" y="603.8467">ParametricInterface</text></g><!--class ParameterType--><g id="elem_ParameterType"><rect codeLine="100" fill="#CCFFFF" height="32" id="ParameterType" rx="2.5" ry="2.5" style="stroke:#A9A9A9;stroke-width:0.5;" width="130" x="886" y="491"/><ellipse cx="901" cy="507" fill="#FFFFFF" rx="11" ry="11" style="stroke:#181818;stroke-width:1.0;"/><path d="M900.9375,502.8281 Q900.1875,502.8281 899.625,503.125 Q899.0625,503.4063 898.6719,503.9375 Q898.2813,504.4688 898.0781,505.25 Q897.8906,506.0156 897.8906,506.9688 Q897.8906,507.9375 898.0625,508.7031 Q898.25,509.4531 898.6094,509.9688 Q898.9844,510.4844 899.5625,510.7656 Q900.1406,511.0313 900.9375,511.0313 Q901.6719,511.0313 902.4063,510.8594 Q903.1563,510.6875 904.0313,510.3906 L904.0313,512.5469 Q903.625,512.7031 903.2344,512.8281 Q902.8438,512.9375 902.4375,513.0156 Q902.0313,513.0938 901.6094,513.125 Q901.1875,513.1719 900.6875,513.1719 Q899.2813,513.1719 898.25,512.7188 Q897.2344,512.2656 896.5625,511.4531 Q895.8906,510.6406 895.5625,509.5 Q895.2344,508.3438 895.2344,506.9531 Q895.2344,505.5781 895.6094,504.4219 Q895.9844,503.2656 896.7031,502.4375 Q897.4219,501.6094 898.4844,501.1563 Q899.5469,500.6875 900.9375,500.6875 Q901.8438,500.6875 902.75,500.9219 Q903.6563,501.1406 904.4844,501.5469 L903.6563,503.6406 Q902.9688,503.3125 902.2813,503.0781 Q901.5938,502.8281 900.9375,502.8281 Z " fill="#000000"/><text fill="#000000" font-family="sans-serif" font-size="14" lengthAdjust="spacing" textLength="98" x="915" y="511.8467">ParameterType</text></g><!--class Implementation--><g id="elem_Implementation"><rect codeLine="102" fill="#CCFFFF" height="32" id="Implementation" rx="2.5" ry="2.5" style="stroke:#A9A9A9;stroke-width:0.5;" width="136" x="3182" y="99"/><ellipse cx="3197" cy="115" fill="#FFFFFF" rx="11" ry="11" style="stroke:#181818;stroke-width:1.0;"/><path d="M3196.9375,110.8281 Q3196.1875,110.8281 3195.625,111.125 Q3195.0625,111.4063 3194.6719,111.9375 Q3194.2813,112.4688 3194.0781,113.25 Q3193.8906,114.0156 3193.8906,114.9688 Q3193.8906,115.9375 3194.0625,116.7031 Q3194.25,117.4531 3194.6094,117.9688 Q3194.9844,118.4844 3195.5625,118.7656 Q3196.1406,119.0313 3196.9375,119.0313 Q3197.6719,119.0313 3198.4063,118.8594 Q3199.1563,118.6875 3200.0313,118.3906 L3200.0313,120.5469 Q3199.625,120.7031 3199.2344,120.8281 Q3198.8438,120.9375 3198.4375,121.0156 Q3198.0313,121.0938 3197.6094,121.125 Q3197.1875,121.1719 3196.6875,121.1719 Q3195.2813,121.1719 3194.25,120.7188 Q3193.2344,120.2656 3192.5625,119.4531 Q3191.8906,118.6406 3191.5625,117.5 Q3191.2344,116.3438 3191.2344,114.9531 Q3191.2344,113.5781 3191.6094,112.4219 Q3191.9844,111.2656 3192.7031,110.4375 Q3193.4219,109.6094 3194.4844,109.1563 Q3195.5469,108.6875 3196.9375,108.6875 Q3197.8438,108.6875 3198.75,108.9219 Q3199.6563,109.1406 3200.4844,109.5469 L3199.6563,111.6406 Q3198.9688,111.3125 3198.2813,111.0781 Q3197.5938,110.8281 3196.9375,110.8281 Z " fill="#000000"/><text fill="#000000" font-family="sans-serif" font-size="14" lengthAdjust="spacing" textLength="104" x="3211" y="119.8467">Implementation</text></g><!--class Invocation--><g id="elem_Invocation"><rect codeLine="104" fill="#CCFFFF" height="32" id="Invocation" rx="2.5" ry="2.5" style="stroke:#A9A9A9;stroke-width:0.5;" width="98" x="2285" y="295"/><ellipse cx="2300" cy="311" fill="#FFFFFF" rx="11" ry="11" style="stroke:#181818;stroke-width:1.0;"/><path d="M2299.9375,306.8281 Q2299.1875,306.8281 2298.625,307.125 Q2298.0625,307.4063 2297.6719,307.9375 Q2297.2813,308.4688 2297.0781,309.25 Q2296.8906,310.0156 2296.8906,310.9688 Q2296.8906,311.9375 2297.0625,312.7031 Q2297.25,313.4531 2297.6094,313.9688 Q2297.9844,314.4844 2298.5625,314.7656 Q2299.1406,315.0313 2299.9375,315.0313 Q2300.6719,315.0313 2301.4063,314.8594 Q2302.1563,314.6875 2303.0313,314.3906 L2303.0313,316.5469 Q2302.625,316.7031 2302.2344,316.8281 Q2301.8438,316.9375 2301.4375,317.0156 Q2301.0313,317.0938 2300.6094,317.125 Q2300.1875,317.1719 2299.6875,317.1719 Q2298.2813,317.1719 2297.25,316.7188 Q2296.2344,316.2656 2295.5625,315.4531 Q2294.8906,314.6406 2294.5625,313.5 Q2294.2344,312.3438 2294.2344,310.9531 Q2294.2344,309.5781 2294.6094,308.4219 Q2294.9844,307.2656 2295.7031,306.4375 Q2296.4219,305.6094 2297.4844,305.1563 Q2298.5469,304.6875 2299.9375,304.6875 Q2300.8438,304.6875 2301.75,304.9219 Q2302.6563,305.1406 2303.4844,305.5469 L2302.6563,307.6406 Q2301.9688,307.3125 2301.2813,307.0781 Q2300.5938,306.8281 2299.9375,306.8281 Z " fill="#000000"/><text fill="#000000" font-family="sans-serif" font-size="14" lengthAdjust="spacing" textLength="66" x="2314" y="315.8467">Invocation</text></g><!--class Inheritance--><g id="elem_Inheritance"><rect codeLine="106" fill="#CCFFFF" height="32" id="Inheritance" rx="2.5" ry="2.5" style="stroke:#A9A9A9;stroke-width:0.5;" width="105" x="2418.5" y="295"/><ellipse cx="2433.5" cy="311" fill="#FFFFFF" rx="11" ry="11" style="stroke:#181818;stroke-width:1.0;"/><path d="M2433.4375,306.8281 Q2432.6875,306.8281 2432.125,307.125 Q2431.5625,307.4063 2431.1719,307.9375 Q2430.7813,308.4688 2430.5781,309.25 Q2430.3906,310.0156 2430.3906,310.9688 Q2430.3906,311.9375 2430.5625,312.7031 Q2430.75,313.4531 2431.1094,313.9688 Q2431.4844,314.4844 2432.0625,314.7656 Q2432.6406,315.0313 2433.4375,315.0313 Q2434.1719,315.0313 2434.9063,314.8594 Q2435.6563,314.6875 2436.5313,314.3906 L2436.5313,316.5469 Q2436.125,316.7031 2435.7344,316.8281 Q2435.3438,316.9375 2434.9375,317.0156 Q2434.5313,317.0938 2434.1094,317.125 Q2433.6875,317.1719 2433.1875,317.1719 Q2431.7813,317.1719 2430.75,316.7188 Q2429.7344,316.2656 2429.0625,315.4531 Q2428.3906,314.6406 2428.0625,313.5 Q2427.7344,312.3438 2427.7344,310.9531 Q2427.7344,309.5781 2428.1094,308.4219 Q2428.4844,307.2656 2429.2031,306.4375 Q2429.9219,305.6094 2430.9844,305.1563 Q2432.0469,304.6875 2433.4375,304.6875 Q2434.3438,304.6875 2435.25,304.9219 Q2436.1563,305.1406 2436.9844,305.5469 L2436.1563,307.6406 Q2435.4688,307.3125 2434.7813,307.0781 Q2434.0938,306.8281 2433.4375,306.8281 Z " fill="#000000"/><text fill="#000000" font-family="sans-serif" font-size="14" lengthAdjust="spacing" textLength="73" x="2447.5" y="315.8467">Inheritance</text></g><!--class JSDoc--><g id="elem_JSDoc"><rect codeLine="108" fill="#CCFFFF" height="32" id="JSDoc" rx="2.5" ry="2.5" style="stroke:#A9A9A9;stroke-width:0.5;" width="67" x="2357.5" y="191"/><ellipse cx="2372.5" cy="207" fill="#FFFFFF" rx="11" ry="11" style="stroke:#181818;stroke-width:1.0;"/><path d="M2372.4375,202.8281 Q2371.6875,202.8281 2371.125,203.125 Q2370.5625,203.4063 2370.1719,203.9375 Q2369.7813,204.4688 2369.5781,205.25 Q2369.3906,206.0156 2369.3906,206.9688 Q2369.3906,207.9375 2369.5625,208.7031 Q2369.75,209.4531 2370.1094,209.9688 Q2370.4844,210.4844 2371.0625,210.7656 Q2371.6406,211.0313 2372.4375,211.0313 Q2373.1719,211.0313 2373.9063,210.8594 Q2374.6563,210.6875 2375.5313,210.3906 L2375.5313,212.5469 Q2375.125,212.7031 2374.7344,212.8281 Q2374.3438,212.9375 2373.9375,213.0156 Q2373.5313,213.0938 2373.1094,213.125 Q2372.6875,213.1719 2372.1875,213.1719 Q2370.7813,213.1719 2369.75,212.7188 Q2368.7344,212.2656 2368.0625,211.4531 Q2367.3906,210.6406 2367.0625,209.5 Q2366.7344,208.3438 2366.7344,206.9531 Q2366.7344,205.5781 2367.1094,204.4219 Q2367.4844,203.2656 2368.2031,202.4375 Q2368.9219,201.6094 2369.9844,201.1563 Q2371.0469,200.6875 2372.4375,200.6875 Q2373.3438,200.6875 2374.25,200.9219 Q2375.1563,201.1406 2375.9844,201.5469 L2375.1563,203.6406 Q2374.4688,203.3125 2373.7813,203.0781 Q2373.0938,202.8281 2372.4375,202.8281 Z " fill="#000000"/><text fill="#000000" font-family="sans-serif" font-size="14" lengthAdjust="spacing" textLength="35" x="2386.5" y="211.8467">JSDoc</text></g><!--class implicitVariable--><g id="elem_implicitVariable"><rect codeLine="110" fill="#CCFFFF" height="32" id="implicitVariable" rx="2.5" ry="2.5" style="stroke:#A9A9A9;stroke-width:0.5;" width="132" x="1679" y="491"/><ellipse cx="1694" cy="507" fill="#FFFFFF" rx="11" ry="11" style="stroke:#181818;stroke-width:1.0;"/><path d="M1693.9375,502.8281 Q1693.1875,502.8281 1692.625,503.125 Q1692.0625,503.4063 1691.6719,503.9375 Q1691.2813,504.4688 1691.0781,505.25 Q1690.8906,506.0156 1690.8906,506.9688 Q1690.8906,507.9375 1691.0625,508.7031 Q1691.25,509.4531 1691.6094,509.9688 Q1691.9844,510.4844 1692.5625,510.7656 Q1693.1406,511.0313 1693.9375,511.0313 Q1694.6719,511.0313 1695.4063,510.8594 Q1696.1563,510.6875 1697.0313,510.3906 L1697.0313,512.5469 Q1696.625,512.7031 1696.2344,512.8281 Q1695.8438,512.9375 1695.4375,513.0156 Q1695.0313,513.0938 1694.6094,513.125 Q1694.1875,513.1719 1693.6875,513.1719 Q1692.2813,513.1719 1691.25,512.7188 Q1690.2344,512.2656 1689.5625,511.4531 Q1688.8906,510.6406 1688.5625,509.5 Q1688.2344,508.3438 1688.2344,506.9531 Q1688.2344,505.5781 1688.6094,504.4219 Q1688.9844,503.2656 1689.7031,502.4375 Q1690.4219,501.6094 1691.4844,501.1563 Q1692.5469,500.6875 1693.9375,500.6875 Q1694.8438,500.6875 1695.75,500.9219 Q1696.6563,501.1406 1697.4844,501.5469 L1696.6563,503.6406 Q1695.9688,503.3125 1695.2813,503.0781 Q1694.5938,502.8281 1693.9375,502.8281 Z " fill="#000000"/><text fill="#000000" font-family="sans-serif" font-size="14" lengthAdjust="spacing" textLength="100" x="1708" y="511.8467">implicitVariable</text></g><!--reverse link Variable to implicitVariable--><g id="link_Variable_implicitVariable"><path codeLine="112" d="M1745,451.61 C1745,465.31 1745,480.22 1745,490.96 " fill="none" id="Variable-backto-implicitVariable" style="stroke:#000000;stroke-width:1.0;"/><polygon fill="none" points="1738,451.27,1745,431.27,1752,451.27,1738,451.27" style="stroke:#000000;stroke-width:1.0;"/></g><!--reverse link Function to ParametricFunction--><g id="link_Function_ParametricFunction"><path codeLine="113" d="M96.59,543.12 C93.67,556.95 90.47,572.09 88.18,582.96 " fill="none" id="Function-backto-ParametricFunction" style="stroke:#000000;stroke-width:1.0;"/><polygon fill="none" points="89.8,541.39,100.78,523.27,103.49,544.28,89.8,541.39" style="stroke:#000000;stroke-width:1.0;"/></g><!--reverse link ScriptEntity to Module--><g id="link_ScriptEntity_Module"><path codeLine="114" d="M1215.37,543.61 C1216.29,557.31 1217.28,572.22 1218,582.96 " fill="none" id="ScriptEntity-backto-Module" style="stroke:#000000;stroke-width:1.0;"/><polygon fill="none" points="1208.36,543.69,1214.02,523.27,1222.33,542.76,1208.36,543.69" style="stroke:#000000;stroke-width:1.0;"/></g><!--reverse link ContainerEntity to BehaviouralEntity--><g id="link_ContainerEntity_BehaviouralEntity"><path codeLine="115" d="M909.82,323.54 C760.48,343.77 453.99,385.28 314.28,404.21 " fill="none" id="ContainerEntity-backto-BehaviouralEntity" style="stroke:#000000;stroke-width:1.0;"/><polygon fill="none" points="909.06,316.58,929.82,320.83,910.94,330.45,909.06,316.58" style="stroke:#000000;stroke-width:1.0;"/></g><!--reverse link ScopingEntity to ScriptEntity--><g id="link_ScopingEntity_ScriptEntity"><path codeLine="116" d="M1213,451.61 C1213,465.31 1213,480.22 1213,490.96 " fill="none" id="ScopingEntity-backto-ScriptEntity" style="stroke:#000000;stroke-width:1.0;"/><polygon fill="none" points="1206,451.27,1213,431.27,1220,451.27,1206,451.27" style="stroke:#000000;stroke-width:1.0;"/></g><!--reverse link NamedEntity to StructuralEntity--><g id="link_NamedEntity_StructuralEntity"><path codeLine="117" d="M1539.62,239.98 C1527.94,258.32 1513.81,280.48 1504.63,294.89 " fill="none" id="NamedEntity-backto-StructuralEntity" style="stroke:#000000;stroke-width:1.0;"/><polygon fill="none" points="1533.76,236.15,1550.41,223.05,1545.56,243.68,1533.76,236.15" style="stroke:#000000;stroke-width:1.0;"/></g><!--reverse link Type to PrimitiveType--><g id="link_Type_PrimitiveType"><path codeLine="118" d="M766.19,426.42 C684.89,443.08 525.91,475.68 438.74,493.55 " fill="none" id="Type-backto-PrimitiveType" style="stroke:#000000;stroke-width:1.0;"/><polygon fill="none" points="764.78,419.56,785.78,422.4,767.59,433.27,764.78,419.56" style="stroke:#000000;stroke-width:1.0;"/></g><!--reverse link Entity to SourcedEntity--><g id="link_Entity_SourcedEntity"><path codeLine="119" d="M2722.96,33.69 C2628.29,50.66 2433.21,85.64 2334.7,103.3 " fill="none" id="Entity-backto-SourcedEntity" style="stroke:#000000;stroke-width:1.0;"/><polygon fill="none" points="2721.97,26.75,2742.89,30.12,2724.44,40.53,2721.97,26.75" style="stroke:#000000;stroke-width:1.0;"/></g><!--reverse link SourceAnchor to SourceTextAnchor--><g id="link_SourceAnchor_SourceTextAnchor"><path codeLine="120" d="M2533,151.61 C2533,165.31 2533,180.22 2533,190.96 " fill="none" id="SourceAnchor-backto-SourceTextAnchor" style="stroke:#000000;stroke-width:1.0;"/><polygon fill="none" points="2526,151.27,2533,131.27,2540,151.27,2526,151.27" style="stroke:#000000;stroke-width:1.0;"/></g><!--reverse link NamedEntity to Alias--><g id="link_NamedEntity_Alias"><path codeLine="121" d="M1580.69,239.98 C1592.56,258.32 1606.9,280.48 1616.22,294.89 " fill="none" id="NamedEntity-backto-Alias" style="stroke:#000000;stroke-width:1.0;"/><polygon fill="none" points="1574.73,243.64,1569.74,223.05,1586.48,236.04,1574.73,243.64" style="stroke:#000000;stroke-width:1.0;"/></g><!--reverse link ContainerEntity to ScopingEntity--><g id="link_ContainerEntity_ScopingEntity"><path codeLine="122" d="M1045.31,335.54 C1086.99,355.04 1144.98,382.18 1180.7,398.89 " fill="none" id="ContainerEntity-backto-ScopingEntity" style="stroke:#000000;stroke-width:1.0;"/><polygon fill="none" points="1042.32,341.87,1027.17,327.05,1048.25,329.19,1042.32,341.87" style="stroke:#000000;stroke-width:1.0;"/></g><!--reverse link Type to VariableStatement--><g id="link_Type_VariableStatement"><path codeLine="123" d="M766.89,432.77 C717.02,449.45 641.18,474.82 593.14,490.9 " fill="none" id="Type-backto-VariableStatement" style="stroke:#000000;stroke-width:1.0;"/><polygon fill="none" points="764.69,426.12,785.88,426.41,769.13,439.4,764.69,426.12" style="stroke:#000000;stroke-width:1.0;"/></g><!--reverse link SourcedEntity to Association--><g id="link_SourcedEntity_Association"><path codeLine="124" d="M2235.91,142.25 C2212.37,158.06 2183.24,177.63 2163.5,190.89 " fill="none" id="SourcedEntity-backto-Association" style="stroke:#000000;stroke-width:1.0;"/><polygon fill="none" points="2232.07,136.4,2252.57,131.06,2239.87,148.03,2232.07,136.4" style="stroke:#000000;stroke-width:1.0;"/></g><!--reverse link Association to ImportClause--><g id="link_Association_ImportClause"><path codeLine="125" d="M2094.93,232.6 C2058.57,252.02 2009.03,278.48 1978.3,294.89 " fill="none" id="Association-backto-ImportClause" style="stroke:#000000;stroke-width:1.0;"/><polygon fill="none" points="2091.88,226.3,2112.82,223.05,2098.47,238.65,2091.88,226.3" style="stroke:#000000;stroke-width:1.0;"/></g><!--reverse link SourcedEntity to Comment--><g id="link_SourcedEntity_Comment"><path codeLine="126" d="M2275,151.61 C2275,165.31 2275,180.22 2275,190.96 " fill="none" id="SourcedEntity-backto-Comment" style="stroke:#000000;stroke-width:1.0;"/><polygon fill="none" points="2268,151.27,2275,131.27,2282,151.27,2268,151.27" style="stroke:#000000;stroke-width:1.0;"/></g><!--reverse link ContainerEntity to Type--><g id="link_ContainerEntity_Type"><path codeLine="127" d="M951.36,337.01 C917.55,356.38 871.81,382.59 843.37,398.89 " fill="none" id="ContainerEntity-backto-Type" style="stroke:#000000;stroke-width:1.0;"/><polygon fill="none" points="947.9,330.92,968.74,327.05,954.86,343.07,947.9,330.92" style="stroke:#000000;stroke-width:1.0;"/></g><!--reverse link StructuralEntity to EnumValue--><g id="link_StructuralEntity_EnumValue"><path codeLine="128" d="M1458.49,339.19 C1432.8,358.31 1399.38,383.19 1378.3,398.89 " fill="none" id="StructuralEntity-backto-EnumValue" style="stroke:#000000;stroke-width:1.0;"/><polygon fill="none" points="1454.56,333.38,1474.79,327.05,1462.92,344.61,1454.56,333.38" style="stroke:#000000;stroke-width:1.0;"/></g><!--reverse link BehaviouralEntity to Method--><g id="link_BehaviouralEntity_Method"><path codeLine="129" d="M242,451.61 C242,465.31 242,480.22 242,490.96 " fill="none" id="BehaviouralEntity-backto-Method" style="stroke:#000000;stroke-width:1.0;"/><polygon fill="none" points="235,451.27,242,431.27,249,451.27,235,451.27" style="stroke:#000000;stroke-width:1.0;"/></g><!--reverse link Method to Accessor--><g id="link_Method_Accessor"><path codeLine="130" d="M242,543.61 C242,557.31 242,572.22 242,582.96 " fill="none" id="Method-backto-Accessor" style="stroke:#000000;stroke-width:1.0;"/><polygon fill="none" points="235,543.27,242,523.27,249,543.27,235,543.27" style="stroke:#000000;stroke-width:1.0;"/></g><!--reverse link Type to Interface--><g id="link_Type_Interface"><path codeLine="131" d="M781.97,443.66 C762.27,459.21 738.44,478.02 722.14,490.89 " fill="none" id="Type-backto-Interface" style="stroke:#000000;stroke-width:1.0;"/><polygon fill="none" points="777.88,437.96,797.92,431.06,786.56,448.95,777.88,437.96" style="stroke:#000000;stroke-width:1.0;"/></g><!--reverse link Class to ParametricClass--><g id="link_Class_ParametricClass"><path codeLine="132" d="M1080.63,543.61 C1079.71,557.31 1078.72,572.22 1078,582.96 " fill="none" id="Class-backto-ParametricClass" style="stroke:#000000;stroke-width:1.0;"/><polygon fill="none" points="1073.67,542.76,1081.98,523.27,1087.64,543.69,1073.67,542.76" style="stroke:#000000;stroke-width:1.0;"/></g><!--reverse link Association to Access--><g id="link_Association_Access"><path codeLine="133" d="M2121.85,240.56 C2111.13,258.78 2098.28,280.63 2089.89,294.89 " fill="none" id="Association-backto-Access" style="stroke:#000000;stroke-width:1.0;"/><polygon fill="none" points="2115.97,236.74,2132.15,223.05,2128.04,243.84,2115.97,236.74" style="stroke:#000000;stroke-width:1.0;"/></g><!--reverse link SourceAnchor to IndexedFileAnchor--><g id="link_SourceAnchor_IndexedFileAnchor"><path codeLine="134" d="M2582.25,139.96 C2615.49,156.13 2658.35,176.98 2686.93,190.89 " fill="none" id="SourceAnchor-backto-IndexedFileAnchor" style="stroke:#000000;stroke-width:1.0;"/><polygon fill="none" points="2578.89,146.11,2563.96,131.06,2585.01,133.52,2578.89,146.11" style="stroke:#000000;stroke-width:1.0;"/></g><!--reverse link Association to Reference--><g id="link_Association_Reference"><path codeLine="135" d="M2160.15,240.56 C2170.87,258.78 2183.72,280.63 2192.11,294.89 " fill="none" id="Association-backto-Reference" style="stroke:#000000;stroke-width:1.0;"/><polygon fill="none" points="2153.96,243.84,2149.85,223.05,2166.03,236.74,2153.96,243.84" style="stroke:#000000;stroke-width:1.0;"/></g><!--reverse link Type to Class--><g id="link_Type_Class"><path codeLine="136" d="M867.14,432.96 C921.25,451.27 1005.77,479.87 1051.34,495.29 " fill="none" id="Type-backto-Class" style="stroke:#000000;stroke-width:1.0;"/><polygon fill="none" points="864.74,439.54,848.03,426.5,869.22,426.28,864.74,439.54" style="stroke:#000000;stroke-width:1.0;"/></g><!--reverse link ScopingEntity to Namespace--><g id="link_ScopingEntity_Namespace"><path codeLine="137" d="M1253.48,442.02 C1278.13,457.87 1308.77,477.57 1329.49,490.89 " fill="none" id="ScopingEntity-backto-Namespace" style="stroke:#000000;stroke-width:1.0;"/><polygon fill="none" points="1249.47,447.77,1236.43,431.06,1257.04,435.99,1249.47,447.77" style="stroke:#000000;stroke-width:1.0;"/></g><!--reverse link StructuralEntity to Parameter--><g id="link_StructuralEntity_Parameter"><path codeLine="138" d="M1495,347.19 C1495,364.84 1495,385.31 1495,398.89 " fill="none" id="StructuralEntity-backto-Parameter" style="stroke:#000000;stroke-width:1.0;"/><polygon fill="none" points="1488,347.05,1495,327.05,1502,347.05,1488,347.05" style="stroke:#000000;stroke-width:1.0;"/></g><!--reverse link NamedEntity to File--><g id="link_NamedEntity_File"><path codeLine="139" d="M1600.5,233.82 C1630.76,253.11 1671.09,278.82 1696.29,294.89 " fill="none" id="NamedEntity-backto-File" style="stroke:#000000;stroke-width:1.0;"/><polygon fill="none" points="1596.71,239.7,1583.61,223.05,1604.24,227.9,1596.71,239.7" style="stroke:#000000;stroke-width:1.0;"/></g><!--reverse link Entity to SourceAnchor--><g id="link_Entity_SourceAnchor"><path codeLine="140" d="M2723.86,43.6 C2678.78,60.23 2615.05,83.74 2573.87,98.93 " fill="none" id="Entity-backto-SourceAnchor" style="stroke:#000000;stroke-width:1.0;"/><polygon fill="none" points="2721.63,36.96,2742.82,36.61,2726.47,50.1,2721.63,36.96" style="stroke:#000000;stroke-width:1.0;"/></g><!--reverse link Type to Enum--><g id="link_Type_Enum"><path codeLine="141" d="M817,451.61 C817,465.31 817,480.22 817,490.96 " fill="none" id="Type-backto-Enum" style="stroke:#000000;stroke-width:1.0;"/><polygon fill="none" points="810,451.27,817,431.27,824,451.27,810,451.27" style="stroke:#000000;stroke-width:1.0;"/></g><!--reverse link StructuralEntity to Property--><g id="link_StructuralEntity_Property"><path codeLine="142" d="M1529.73,339.46 C1553.87,358.55 1585.14,383.27 1604.89,398.89 " fill="none" id="StructuralEntity-backto-Property" style="stroke:#000000;stroke-width:1.0;"/><polygon fill="none" points="1525.38,344.95,1514.03,327.05,1534.06,333.96,1525.38,344.95" style="stroke:#000000;stroke-width:1.0;"/></g><!--reverse link NamedEntity to ContainerEntity--><g id="link_NamedEntity_ContainerEntity"><path codeLine="143" d="M1483.22,221.86 C1371.31,242.06 1165.32,279.25 1060.29,298.21 " fill="none" id="NamedEntity-backto-ContainerEntity" style="stroke:#000000;stroke-width:1.0;"/><polygon fill="none" points="1482.05,214.96,1502.98,218.29,1484.54,228.74,1482.05,214.96" style="stroke:#000000;stroke-width:1.0;"/></g><!--reverse link Method to ParametricMethod--><g id="link_Method_ParametricMethod"><path codeLine="144" d="M285.34,533.33 C312.66,549.29 347.02,569.37 370.14,582.89 " fill="none" id="Method-backto-ParametricMethod" style="stroke:#000000;stroke-width:1.0;"/><polygon fill="none" points="281.51,539.2,267.78,523.06,288.58,527.11,281.51,539.2" style="stroke:#000000;stroke-width:1.0;"/></g><!--reverse link BehaviouralEntity to Function--><g id="link_BehaviouralEntity_Function"><path codeLine="145" d="M202.1,442.02 C177.8,457.87 147.6,477.57 127.17,490.89 " fill="none" id="BehaviouralEntity-backto-Function" style="stroke:#000000;stroke-width:1.0;"/><polygon fill="none" points="198.33,436.13,218.9,431.06,205.97,447.85,198.33,436.13" style="stroke:#000000;stroke-width:1.0;"/></g><!--reverse link Entity to SourceLanguage--><g id="link_Entity_SourceLanguage"><path codeLine="146" d="M2749.44,54.25 C2735.74,69.29 2719.79,86.8 2708.7,98.96 " fill="none" id="Entity-backto-SourceLanguage" style="stroke:#000000;stroke-width:1.0;"/><polygon fill="none" points="2744.45,49.34,2763.09,39.27,2754.79,58.77,2744.45,49.34" style="stroke:#000000;stroke-width:1.0;"/></g><!--reverse link NamedEntity to Decorator--><g id="link_NamedEntity_Decorator"><path codeLine="147" d="M1498.82,230.73 C1462.21,246.18 1416.56,266.7 1382.44,282.99 " fill="none" id="NamedEntity-backto-Decorator" style="stroke:#000000;stroke-width:1.0;"/><polygon fill="none" points="1496.14,224.26,1517.29,223.05,1501.51,237.19,1496.14,224.26" style="stroke:#000000;stroke-width:1.0;"/></g><!--link Decorator to NamedEntity--><g id="link_Decorator_NamedEntity"><path codeLine="162" d="M1395.21,287.53 C1441.83,267.94 1503.09,240.06 1536.56,223.05 " fill="none" id="Decorator-NamedEntity" style="stroke:#000000;stroke-width:1.0;"/><text fill="#000000" font-family="sans-serif" font-size="13" lengthAdjust="spacing" textLength="71" x="1402.9973" y="280.9497">decorators*</text><text fill="#000000" font-family="sans-serif" font-size="13" lengthAdjust="spacing" textLength="92" x="1421.558" y="242.9398">decoratedEntity</text></g><!--reverse link Entity to Concretization--><g id="link_Entity_Concretization"><path codeLine="148" d="M2804.56,54.25 C2818.26,69.29 2834.21,86.8 2845.3,98.96 " fill="none" id="Entity-backto-Concretization" style="stroke:#000000;stroke-width:1.0;"/><polygon fill="none" points="2799.21,58.77,2790.91,39.27,2809.55,49.34,2799.21,58.77" style="stroke:#000000;stroke-width:1.0;"/></g><!--reverse link StructuralEntity to Variable--><g id="link_StructuralEntity_Variable"><path codeLine="149" d="M1550.44,334.62 C1598.38,354.18 1666.35,381.91 1707.96,398.89 " fill="none" id="StructuralEntity-backto-Variable" style="stroke:#000000;stroke-width:1.0;"/><polygon fill="none" points="1547.76,341.09,1531.89,327.05,1553.05,328.12,1547.76,341.09" style="stroke:#000000;stroke-width:1.0;"/></g><!--reverse link NamedEntity to Folder--><g id="link_NamedEntity_Folder"><path codeLine="150" d="M1624.93,229.65 C1665.62,243.73 1718.9,263.12 1765,283 C1773.37,286.61 1782.29,290.89 1790.42,294.96 " fill="none" id="NamedEntity-backto-Folder" style="stroke:#000000;stroke-width:1.0;"/><polygon fill="none" points="1622.42,236.19,1605.77,223.09,1626.96,222.94,1622.42,236.19" style="stroke:#000000;stroke-width:1.0;"/></g><!--reverse link Entity to ParameterConcretization--><g id="link_Entity_ParameterConcretization"><path codeLine="151" d="M2830.26,41.49 C2881.05,58.18 2956.74,83.04 3004.98,98.88 " fill="none" id="Entity-backto-ParameterConcretization" style="stroke:#000000;stroke-width:1.0;"/><polygon fill="none" points="2827.97,48.11,2811.15,35.22,2832.33,34.81,2827.97,48.11" style="stroke:#000000;stroke-width:1.0;"/></g><!--reverse link SourcedEntity to NamedEntity--><g id="link_SourcedEntity_NamedEntity"><path codeLine="152" d="M2195.41,126.02 C2049.83,144.34 1743.98,182.84 1617.07,198.82 " fill="none" id="SourcedEntity-backto-NamedEntity" style="stroke:#000000;stroke-width:1.0;"/><polygon fill="none" points="2194.55,119.07,2215.27,123.52,2196.3,132.96,2194.55,119.07" style="stroke:#000000;stroke-width:1.0;"/></g><!--reverse link Interface to ParametricInterface--><g id="link_Interface_ParametricInterface"><path codeLine="153" d="M703,543.61 C703,557.31 703,572.22 703,582.96 " fill="none" id="Interface-backto-ParametricInterface" style="stroke:#000000;stroke-width:1.0;"/><polygon fill="none" points="696,543.27,703,523.27,710,543.27,696,543.27" style="stroke:#000000;stroke-width:1.0;"/></g><!--reverse link Type to ParameterType--><g id="link_Type_ParameterType"><path codeLine="154" d="M856.09,442.25 C879.63,458.06 908.76,477.63 928.5,490.89 " fill="none" id="Type-backto-ParameterType" style="stroke:#000000;stroke-width:1.0;"/><polygon fill="none" points="852.13,448.03,839.43,431.06,859.93,436.4,852.13,448.03" style="stroke:#000000;stroke-width:1.0;"/></g><!--reverse link Entity to Implementation--><g id="link_Entity_Implementation"><path codeLine="155" d="M2830.86,34.25 C2917.32,50.7 3086.96,82.98 3181.76,101.02 " fill="none" id="Entity-backto-Implementation" style="stroke:#000000;stroke-width:1.0;"/><polygon fill="none" points="2829.36,41.09,2811.02,30.47,2831.97,27.33,2829.36,41.09" style="stroke:#000000;stroke-width:1.0;"/></g><!--reverse link Association to Invocation--><g id="link_Association_Invocation"><path codeLine="156" d="M2187.3,232.47 C2224.06,251.9 2274.28,278.44 2305.41,294.89 " fill="none" id="Association-backto-Invocation" style="stroke:#000000;stroke-width:1.0;"/><polygon fill="none" points="2183.89,238.58,2169.48,223.05,2190.43,226.21,2183.89,238.58" style="stroke:#000000;stroke-width:1.0;"/></g><!--reverse link Association to Inheritance--><g id="link_Association_Inheritance"><path codeLine="157" d="M2212.32,226.97 C2264.61,241.28 2337.15,261.99 2400,283 C2410.88,286.64 2422.57,290.92 2433.25,294.99 " fill="none" id="Association-backto-Inheritance" style="stroke:#000000;stroke-width:1.0;"/><polygon fill="none" points="2210.45,233.71,2192.98,221.71,2214.12,220.2,2210.45,233.71" style="stroke:#000000;stroke-width:1.0;"/></g><!--reverse link SourcedEntity to JSDoc--><g id="link_SourcedEntity_JSDoc"><path codeLine="158" d="M2310.35,143.42 C2330.45,159.02 2354.86,177.96 2371.52,190.89 " fill="none" id="SourcedEntity-backto-JSDoc" style="stroke:#000000;stroke-width:1.0;"/><polygon fill="none" points="2305.93,148.85,2294.42,131.06,2314.51,137.79,2305.93,148.85" style="stroke:#000000;stroke-width:1.0;"/></g><!--reverse link TEntityCreator to FamixTypeScriptModel--><g id="link_TEntityCreator_FamixTypeScriptModel"><path codeLine="159" d="M3441,59.61 C3441,73.31 3441,88.22 3441,98.96 " fill="none" id="TEntityCreator-backto-FamixTypeScriptModel" style="stroke:#000000;stroke-width:1.0;stroke-dasharray:7.0,7.0;"/><polygon fill="none" points="3434,59.27,3441,39.27,3448,59.27,3434,59.27" style="stroke:#000000;stroke-width:1.0;"/></g><!--reverse link TClassMetrics to Class--><g id="link_TClassMetrics_Class"><path codeLine="160" d="M1069.58,451.12 C1072.97,464.95 1076.67,480.09 1079.32,490.96 " fill="none" id="TClassMetrics-backto-Class" style="stroke:#000000;stroke-width:1.0;stroke-dasharray:7.0,7.0;"/><polygon fill="none" points="1062.68,452.36,1064.73,431.27,1076.28,449.03,1062.68,452.36" style="stroke:#000000;stroke-width:1.0;"/></g><!--reverse link TWithInterfaces to ContainerEntity--><g id="link_TWithInterfaces_ContainerEntity"><path codeLine="161" d="M995,243.19 C995,260.84 995,281.31 995,294.89 " fill="none" id="TWithInterfaces-backto-ContainerEntity" style="stroke:#000000;stroke-width:1.0;stroke-dasharray:7.0,7.0;"/><polygon fill="none" points="988,243.05,995,223.05,1002,243.05,988,243.05" style="stroke:#000000;stroke-width:1.0;"/></g><!--SRC=[bLVRJjmm47ttLqJqfQs0Bq18Is0hgbAXxee-6sVOjKZiQEB0qj9_h-rihixYMLv0yNXyPkRCcM4hCqYWACrRKa3n25YnwbcgaYCl4f7pgah-iYIvuk9vWxfMMQfpZSdhLXgmtnU8-hNvz9XR6sUgCGDilcKSdxyXVsF_MEFhtla5Wr8iQoMCr2gvkFYSddf_NoulaqzfkhG_zj7soXLi-OlKDVByHXbfWSPktEcipY5gjX8eIqFqkJ9O2tC4Y9L5B20ZMj-ZBAIHBx1-Au7eUmqxir1YQ_CSkx2eAYqa9-KxrKK1oaJjrgdxTUUBMJdhzKVMIrx8dGkkoRej4UJH9nuuIlwOmyfm0oHGjqMfqLXaTHLFuoANl8fQtQYwUE1v7VT7gvtGfLGRAfN1R7KMZqG8i2ME4-5M6S0dBk8u-qxrTIP28038O0VPKkP0vEulU084HO1C0_hJXbMLHwG0uXXTECIk9KPDv8SZ9q5ST0b8y9PgPRXKW5JLwZX2v6cJWXzSRMg-YMUCF2EkGMZaveEy9ax1RTybi2lH4jLwxVlsjpJRhZFYMcRJ912C_4CJr5R5uk7gF2EGRTrK9qLe8rwJM7maRDSdsT54E5fW04coQOKzzoE01lvMlMX1DTq2IiCf2lDzTQr5r4fQh598GoXyR_9-TXPSP7q3kEDmUMBZ7SOPDSiF2rhPdGMh59jC8sSqTCb69F2daps8DTNpy8Ox31jT6kv2RAo3_Nc_puJF-b4z7zGeX06SO7bWavNC- -qN8pPQajpXS9cOkxpVbEPX-II4MwCxwZOADhFR-XfwDMMjg7gW-ma_2B1hDROVV6EE-8zXK8sZcI84apcysutY0OhccHaUTNFsG1Qw_W-hxJ3C46WFgt_R9VAGz_tC2vrFgZNAydIW7IfGrtyXo7QuXGztGufDu0nK-K0qdI24gV8pWyqcTkewPF307HiezpWLFSy6lJuKxz7hOw6UQQfEcUVEEYcUG-lLbqt7t_lv-Un_5spo3ugpQyWQp7j_DA55lrASPEsVrTUJnE9eFxJeJePv_0y0]--></g></svg>