<?xml version="1.0" encoding="us-ascii" standalone="no"?><svg xmlns="http://www.w3.org/2000/svg" xmlns:xlink="http://www.w3.org/1999/xlink" contentStyleType="text/css" height="622px" preserveAspectRatio="none" style="width:2137px;height:622px;background:#FFFFFF;" version="1.1" viewBox="0 0 2137 622" width="2137px" zoomAndPan="magnify"><defs/><g><!--class Function--><g id="elem_Function"><rect codeLine="7" fill="#CCFFFF" height="32" id="Function" rx="2.5" ry="2.5" style="stroke:#A9A9A9;stroke-width:0.5;" width="86" x="1799.5" y="399"/><ellipse cx="1814.5" cy="415" fill="#FFFFFF" rx="11" ry="11" style="stroke:#181818;stroke-width:1.0;"/><path d="M1814.4375,410.8281 Q1813.6875,410.8281 1813.125,411.125 Q1812.5625,411.4063 1812.1719,411.9375 Q1811.7813,412.4688 1811.5781,413.25 Q1811.3906,414.0156 1811.3906,414.9688 Q1811.3906,415.9375 1811.5625,416.7031 Q1811.75,417.4531 1812.1094,417.9688 Q1812.4844,418.4844 1813.0625,418.7656 Q1813.6406,419.0313 1814.4375,419.0313 Q1815.1719,419.0313 1815.9063,418.8594 Q1816.6563,418.6875 1817.5313,418.3906 L1817.5313,420.5469 Q1817.125,420.7031 1816.7344,420.8281 Q1816.3438,420.9375 1815.9375,421.0156 Q1815.5313,421.0938 1815.1094,421.125 Q1814.6875,421.1719 1814.1875,421.1719 Q1812.7813,421.1719 1811.75,420.7188 Q1810.7344,420.2656 1810.0625,419.4531 Q1809.3906,418.6406 1809.0625,417.5 Q1808.7344,416.3438 1808.7344,414.9531 Q1808.7344,413.5781 1809.1094,412.4219 Q1809.4844,411.2656 1810.2031,410.4375 Q1810.9219,409.6094 1811.9844,409.1563 Q1813.0469,408.6875 1814.4375,408.6875 Q1815.3438,408.6875 1816.25,408.9219 Q1817.1563,409.1406 1817.9844,409.5469 L1817.1563,411.6406 Q1816.4688,411.3125 1815.7813,411.0781 Q1815.0938,410.8281 1814.4375,410.8281 Z " fill="#000000"/><text fill="#000000" font-family="sans-serif" font-size="14" lengthAdjust="spacing" textLength="54" x="1828.5" y="419.8467">Function</text></g><!--class TEntityCreator--><g id="elem_TEntityCreator"><rect codeLine="9" fill="#CCFFFF" height="32" id="TEntityCreator" rx="2.5" ry="2.5" style="stroke:#A9A9A9;stroke-width:0.5;" width="123" x="1976" y="7"/><ellipse cx="1991" cy="23" fill="#FFFFFF" rx="11" ry="11" style="stroke:#181818;stroke-width:1.0;"/><path d="M1992.4531,29.75 L1989.8906,29.75 L1989.8906,19.75 L1986.8438,19.75 L1986.8438,17.6094 L1995.4844,17.6094 L1995.4844,19.75 L1992.4531,19.75 L1992.4531,29.75 Z " fill="#000000"/><text fill="#000000" font-family="sans-serif" font-size="14" lengthAdjust="spacing" textLength="91" x="2005" y="27.8467">TEntityCreator</text></g><!--class File--><g id="elem_File"><rect codeLine="11" fill="#CCFFFF" height="32" id="File" rx="2.5" ry="2.5" style="stroke:#A9A9A9;stroke-width:0.5;" width="55" x="7" y="295"/><ellipse cx="22" cy="311" fill="#FFFFFF" rx="11" ry="11" style="stroke:#181818;stroke-width:1.0;"/><path d="M21.9375,306.8281 Q21.1875,306.8281 20.625,307.125 Q20.0625,307.4063 19.6719,307.9375 Q19.2813,308.4688 19.0781,309.25 Q18.8906,310.0156 18.8906,310.9688 Q18.8906,311.9375 19.0625,312.7031 Q19.25,313.4531 19.6094,313.9688 Q19.9844,314.4844 20.5625,314.7656 Q21.1406,315.0313 21.9375,315.0313 Q22.6719,315.0313 23.4063,314.8594 Q24.1563,314.6875 25.0313,314.3906 L25.0313,316.5469 Q24.625,316.7031 24.2344,316.8281 Q23.8438,316.9375 23.4375,317.0156 Q23.0313,317.0938 22.6094,317.125 Q22.1875,317.1719 21.6875,317.1719 Q20.2813,317.1719 19.25,316.7188 Q18.2344,316.2656 17.5625,315.4531 Q16.8906,314.6406 16.5625,313.5 Q16.2344,312.3438 16.2344,310.9531 Q16.2344,309.5781 16.6094,308.4219 Q16.9844,307.2656 17.7031,306.4375 Q18.4219,305.6094 19.4844,305.1563 Q20.5469,304.6875 21.9375,304.6875 Q22.8438,304.6875 23.75,304.9219 Q24.6563,305.1406 25.4844,305.5469 L24.6563,307.6406 Q23.9688,307.3125 23.2813,307.0781 Q22.5938,306.8281 21.9375,306.8281 Z " fill="#000000"/><text fill="#000000" font-family="sans-serif" font-size="14" lengthAdjust="spacing" textLength="23" x="36" y="315.8467">File</text></g><!--class Enum--><g id="elem_Enum"><rect codeLine="13" fill="#CCFFFF" height="32" id="Enum" rx="2.5" ry="2.5" style="stroke:#A9A9A9;stroke-width:0.5;" width="68" x="1309.5" y="491"/><ellipse cx="1324.5" cy="507" fill="#FFFFFF" rx="11" ry="11" style="stroke:#181818;stroke-width:1.0;"/><path d="M1324.4375,502.8281 Q1323.6875,502.8281 1323.125,503.125 Q1322.5625,503.4063 1322.1719,503.9375 Q1321.7813,504.4688 1321.5781,505.25 Q1321.3906,506.0156 1321.3906,506.9688 Q1321.3906,507.9375 1321.5625,508.7031 Q1321.75,509.4531 1322.1094,509.9688 Q1322.4844,510.4844 1323.0625,510.7656 Q1323.6406,511.0313 1324.4375,511.0313 Q1325.1719,511.0313 1325.9063,510.8594 Q1326.6563,510.6875 1327.5313,510.3906 L1327.5313,512.5469 Q1327.125,512.7031 1326.7344,512.8281 Q1326.3438,512.9375 1325.9375,513.0156 Q1325.5313,513.0938 1325.1094,513.125 Q1324.6875,513.1719 1324.1875,513.1719 Q1322.7813,513.1719 1321.75,512.7188 Q1320.7344,512.2656 1320.0625,511.4531 Q1319.3906,510.6406 1319.0625,509.5 Q1318.7344,508.3438 1318.7344,506.9531 Q1318.7344,505.5781 1319.1094,504.4219 Q1319.4844,503.2656 1320.2031,502.4375 Q1320.9219,501.6094 1321.9844,501.1563 Q1323.0469,500.6875 1324.4375,500.6875 Q1325.3438,500.6875 1326.25,500.9219 Q1327.1563,501.1406 1327.9844,501.5469 L1327.1563,503.6406 Q1326.4688,503.3125 1325.7813,503.0781 Q1325.0938,502.8281 1324.4375,502.8281 Z " fill="#000000"/><text fill="#000000" font-family="sans-serif" font-size="14" lengthAdjust="spacing" textLength="36" x="1338.5" y="511.8467">Enum</text></g><!--class ContainerEntity--><g id="elem_ContainerEntity"><rect codeLine="15" fill="#CCFFFF" height="32" id="ContainerEntity" rx="2.5" ry="2.5" style="stroke:#A9A9A9;stroke-width:0.5;" width="130" x="1647.5" y="295"/><ellipse cx="1662.5" cy="311" fill="#FFFFFF" rx="11" ry="11" style="stroke:#181818;stroke-width:1.0;"/><path d="M1662.4375,306.8281 Q1661.6875,306.8281 1661.125,307.125 Q1660.5625,307.4063 1660.1719,307.9375 Q1659.7813,308.4688 1659.5781,309.25 Q1659.3906,310.0156 1659.3906,310.9688 Q1659.3906,311.9375 1659.5625,312.7031 Q1659.75,313.4531 1660.1094,313.9688 Q1660.4844,314.4844 1661.0625,314.7656 Q1661.6406,315.0313 1662.4375,315.0313 Q1663.1719,315.0313 1663.9063,314.8594 Q1664.6563,314.6875 1665.5313,314.3906 L1665.5313,316.5469 Q1665.125,316.7031 1664.7344,316.8281 Q1664.3438,316.9375 1663.9375,317.0156 Q1663.5313,317.0938 1663.1094,317.125 Q1662.6875,317.1719 1662.1875,317.1719 Q1660.7813,317.1719 1659.75,316.7188 Q1658.7344,316.2656 1658.0625,315.4531 Q1657.3906,314.6406 1657.0625,313.5 Q1656.7344,312.3438 1656.7344,310.9531 Q1656.7344,309.5781 1657.1094,308.4219 Q1657.4844,307.2656 1658.2031,306.4375 Q1658.9219,305.6094 1659.9844,305.1563 Q1661.0469,304.6875 1662.4375,304.6875 Q1663.3438,304.6875 1664.25,304.9219 Q1665.1563,305.1406 1665.9844,305.5469 L1665.1563,307.6406 Q1664.4688,307.3125 1663.7813,307.0781 Q1663.0938,306.8281 1662.4375,306.8281 Z " fill="#000000"/><text fill="#000000" font-family="sans-serif" font-size="14" lengthAdjust="spacing" textLength="98" x="1676.5" y="315.8467">ContainerEntity</text></g><!--class ParametricFunction--><g id="elem_ParametricFunction"><rect codeLine="17" fill="#CCFFFF" height="32" id="ParametricFunction" rx="2.5" ry="2.5" style="stroke:#A9A9A9;stroke-width:0.5;" width="156" x="1974.5" y="491"/><ellipse cx="1989.5" cy="507" fill="#FFFFFF" rx="11" ry="11" style="stroke:#181818;stroke-width:1.0;"/><path d="M1989.4375,502.8281 Q1988.6875,502.8281 1988.125,503.125 Q1987.5625,503.4063 1987.1719,503.9375 Q1986.7813,504.4688 1986.5781,505.25 Q1986.3906,506.0156 1986.3906,506.9688 Q1986.3906,507.9375 1986.5625,508.7031 Q1986.75,509.4531 1987.1094,509.9688 Q1987.4844,510.4844 1988.0625,510.7656 Q1988.6406,511.0313 1989.4375,511.0313 Q1990.1719,511.0313 1990.9063,510.8594 Q1991.6563,510.6875 1992.5313,510.3906 L1992.5313,512.5469 Q1992.125,512.7031 1991.7344,512.8281 Q1991.3438,512.9375 1990.9375,513.0156 Q1990.5313,513.0938 1990.1094,513.125 Q1989.6875,513.1719 1989.1875,513.1719 Q1987.7813,513.1719 1986.75,512.7188 Q1985.7344,512.2656 1985.0625,511.4531 Q1984.3906,510.6406 1984.0625,509.5 Q1983.7344,508.3438 1983.7344,506.9531 Q1983.7344,505.5781 1984.1094,504.4219 Q1984.4844,503.2656 1985.2031,502.4375 Q1985.9219,501.6094 1986.9844,501.1563 Q1988.0469,500.6875 1989.4375,500.6875 Q1990.3438,500.6875 1991.25,500.9219 Q1992.1563,501.1406 1992.9844,501.5469 L1992.1563,503.6406 Q1991.4688,503.3125 1990.7813,503.0781 Q1990.0938,502.8281 1989.4375,502.8281 Z " fill="#000000"/><text fill="#000000" font-family="sans-serif" font-size="14" lengthAdjust="spacing" textLength="124" x="2003.5" y="511.8467">ParametricFunction</text></g><!--class Class--><g id="elem_Class"><rect codeLine="19" fill="#CCFFFF" height="32" id="Class" rx="2.5" ry="2.5" style="stroke:#A9A9A9;stroke-width:0.5;" width="63" x="1026" y="491"/><ellipse cx="1041" cy="507" fill="#FFFFFF" rx="11" ry="11" style="stroke:#181818;stroke-width:1.0;"/><path d="M1040.9375,502.8281 Q1040.1875,502.8281 1039.625,503.125 Q1039.0625,503.4063 1038.6719,503.9375 Q1038.2813,504.4688 1038.0781,505.25 Q1037.8906,506.0156 1037.8906,506.9688 Q1037.8906,507.9375 1038.0625,508.7031 Q1038.25,509.4531 1038.6094,509.9688 Q1038.9844,510.4844 1039.5625,510.7656 Q1040.1406,511.0313 1040.9375,511.0313 Q1041.6719,511.0313 1042.4063,510.8594 Q1043.1563,510.6875 1044.0313,510.3906 L1044.0313,512.5469 Q1043.625,512.7031 1043.2344,512.8281 Q1042.8438,512.9375 1042.4375,513.0156 Q1042.0313,513.0938 1041.6094,513.125 Q1041.1875,513.1719 1040.6875,513.1719 Q1039.2813,513.1719 1038.25,512.7188 Q1037.2344,512.2656 1036.5625,511.4531 Q1035.8906,510.6406 1035.5625,509.5 Q1035.2344,508.3438 1035.2344,506.9531 Q1035.2344,505.5781 1035.6094,504.4219 Q1035.9844,503.2656 1036.7031,502.4375 Q1037.4219,501.6094 1038.4844,501.1563 Q1039.5469,500.6875 1040.9375,500.6875 Q1041.8438,500.6875 1042.75,500.9219 Q1043.6563,501.1406 1044.4844,501.5469 L1043.6563,503.6406 Q1042.9688,503.3125 1042.2813,503.0781 Q1041.5938,502.8281 1040.9375,502.8281 Z " fill="#000000"/><text fill="#000000" font-family="sans-serif" font-size="14" lengthAdjust="spacing" textLength="31" x="1055" y="511.8467">Class</text></g><!--class Access--><g id="elem_Access"><rect codeLine="21" fill="#CCFFFF" height="32" id="Access" rx="2.5" ry="2.5" style="stroke:#A9A9A9;stroke-width:0.5;" width="73" x="289" y="99"/><ellipse cx="304" cy="115" fill="#FFFFFF" rx="11" ry="11" style="stroke:#181818;stroke-width:1.0;"/><path d="M303.9375,110.8281 Q303.1875,110.8281 302.625,111.125 Q302.0625,111.4063 301.6719,111.9375 Q301.2813,112.4688 301.0781,113.25 Q300.8906,114.0156 300.8906,114.9688 Q300.8906,115.9375 301.0625,116.7031 Q301.25,117.4531 301.6094,117.9688 Q301.9844,118.4844 302.5625,118.7656 Q303.1406,119.0313 303.9375,119.0313 Q304.6719,119.0313 305.4063,118.8594 Q306.1563,118.6875 307.0313,118.3906 L307.0313,120.5469 Q306.625,120.7031 306.2344,120.8281 Q305.8438,120.9375 305.4375,121.0156 Q305.0313,121.0938 304.6094,121.125 Q304.1875,121.1719 303.6875,121.1719 Q302.2813,121.1719 301.25,120.7188 Q300.2344,120.2656 299.5625,119.4531 Q298.8906,118.6406 298.5625,117.5 Q298.2344,116.3438 298.2344,114.9531 Q298.2344,113.5781 298.6094,112.4219 Q298.9844,111.2656 299.7031,110.4375 Q300.4219,109.6094 301.4844,109.1563 Q302.5469,108.6875 303.9375,108.6875 Q304.8438,108.6875 305.75,108.9219 Q306.6563,109.1406 307.4844,109.5469 L306.6563,111.6406 Q305.9688,111.3125 305.2813,111.0781 Q304.5938,110.8281 303.9375,110.8281 Z " fill="#000000"/><text fill="#000000" font-family="sans-serif" font-size="14" lengthAdjust="spacing" textLength="41" x="318" y="119.8467">Access</text></g><!--class implicitVariable--><g id="elem_implicitVariable"><rect codeLine="23" fill="#CCFFFF" height="32" id="implicitVariable" rx="2.5" ry="2.5" style="stroke:#A9A9A9;stroke-width:0.5;" width="132" x="696.5" y="399"/><ellipse cx="711.5" cy="415" fill="#FFFFFF" rx="11" ry="11" style="stroke:#181818;stroke-width:1.0;"/><path d="M711.4375,410.8281 Q710.6875,410.8281 710.125,411.125 Q709.5625,411.4063 709.1719,411.9375 Q708.7813,412.4688 708.5781,413.25 Q708.3906,414.0156 708.3906,414.9688 Q708.3906,415.9375 708.5625,416.7031 Q708.75,417.4531 709.1094,417.9688 Q709.4844,418.4844 710.0625,418.7656 Q710.6406,419.0313 711.4375,419.0313 Q712.1719,419.0313 712.9063,418.8594 Q713.6563,418.6875 714.5313,418.3906 L714.5313,420.5469 Q714.125,420.7031 713.7344,420.8281 Q713.3438,420.9375 712.9375,421.0156 Q712.5313,421.0938 712.1094,421.125 Q711.6875,421.1719 711.1875,421.1719 Q709.7813,421.1719 708.75,420.7188 Q707.7344,420.2656 707.0625,419.4531 Q706.3906,418.6406 706.0625,417.5 Q705.7344,416.3438 705.7344,414.9531 Q705.7344,413.5781 706.1094,412.4219 Q706.4844,411.2656 707.2031,410.4375 Q707.9219,409.6094 708.9844,409.1563 Q710.0469,408.6875 711.4375,408.6875 Q712.3438,408.6875 713.25,408.9219 Q714.1563,409.1406 714.9844,409.5469 L714.1563,411.6406 Q713.4688,411.3125 712.7813,411.0781 Q712.0938,410.8281 711.4375,410.8281 Z " fill="#000000"/><text fill="#000000" font-family="sans-serif" font-size="14" lengthAdjust="spacing" textLength="100" x="725.5" y="419.8467">implicitVariable</text></g><!--class FamixTypeScriptModel--><g id="elem_FamixTypeScriptModel"><rect codeLine="25" fill="#CCFFFF" height="32" id="FamixTypeScriptModel" rx="2.5" ry="2.5" style="stroke:#A9A9A9;stroke-width:0.5;" width="176" x="1949.5" y="99"/><ellipse cx="1964.5" cy="115" fill="#FFFFFF" rx="11" ry="11" style="stroke:#181818;stroke-width:1.0;"/><path d="M1964.4375,110.8281 Q1963.6875,110.8281 1963.125,111.125 Q1962.5625,111.4063 1962.1719,111.9375 Q1961.7813,112.4688 1961.5781,113.25 Q1961.3906,114.0156 1961.3906,114.9688 Q1961.3906,115.9375 1961.5625,116.7031 Q1961.75,117.4531 1962.1094,117.9688 Q1962.4844,118.4844 1963.0625,118.7656 Q1963.6406,119.0313 1964.4375,119.0313 Q1965.1719,119.0313 1965.9063,118.8594 Q1966.6563,118.6875 1967.5313,118.3906 L1967.5313,120.5469 Q1967.125,120.7031 1966.7344,120.8281 Q1966.3438,120.9375 1965.9375,121.0156 Q1965.5313,121.0938 1965.1094,121.125 Q1964.6875,121.1719 1964.1875,121.1719 Q1962.7813,121.1719 1961.75,120.7188 Q1960.7344,120.2656 1960.0625,119.4531 Q1959.3906,118.6406 1959.0625,117.5 Q1958.7344,116.3438 1958.7344,114.9531 Q1958.7344,113.5781 1959.1094,112.4219 Q1959.4844,111.2656 1960.2031,110.4375 Q1960.9219,109.6094 1961.9844,109.1563 Q1963.0469,108.6875 1964.4375,108.6875 Q1965.3438,108.6875 1966.25,108.9219 Q1967.1563,109.1406 1967.9844,109.5469 L1967.1563,111.6406 Q1966.4688,111.3125 1965.7813,111.0781 Q1965.0938,110.8281 1964.4375,110.8281 Z " fill="#000000"/><text fill="#000000" font-family="sans-serif" font-size="14" lengthAdjust="spacing" textLength="144" x="1978.5" y="119.8467">FamixTypeScriptModel</text></g><!--class Reference--><g id="elem_Reference"><rect codeLine="27" fill="#CCFFFF" height="32" id="Reference" rx="2.5" ry="2.5" style="stroke:#A9A9A9;stroke-width:0.5;" width="97" x="397" y="99"/><ellipse cx="412" cy="115" fill="#FFFFFF" rx="11" ry="11" style="stroke:#181818;stroke-width:1.0;"/><path d="M411.9375,110.8281 Q411.1875,110.8281 410.625,111.125 Q410.0625,111.4063 409.6719,111.9375 Q409.2813,112.4688 409.0781,113.25 Q408.8906,114.0156 408.8906,114.9688 Q408.8906,115.9375 409.0625,116.7031 Q409.25,117.4531 409.6094,117.9688 Q409.9844,118.4844 410.5625,118.7656 Q411.1406,119.0313 411.9375,119.0313 Q412.6719,119.0313 413.4063,118.8594 Q414.1563,118.6875 415.0313,118.3906 L415.0313,120.5469 Q414.625,120.7031 414.2344,120.8281 Q413.8438,120.9375 413.4375,121.0156 Q413.0313,121.0938 412.6094,121.125 Q412.1875,121.1719 411.6875,121.1719 Q410.2813,121.1719 409.25,120.7188 Q408.2344,120.2656 407.5625,119.4531 Q406.8906,118.6406 406.5625,117.5 Q406.2344,116.3438 406.2344,114.9531 Q406.2344,113.5781 406.6094,112.4219 Q406.9844,111.2656 407.7031,110.4375 Q408.4219,109.6094 409.4844,109.1563 Q410.5469,108.6875 411.9375,108.6875 Q412.8438,108.6875 413.75,108.9219 Q414.6563,109.1406 415.4844,109.5469 L414.6563,111.6406 Q413.9688,111.3125 413.2813,111.0781 Q412.5938,110.8281 411.9375,110.8281 Z " fill="#000000"/><text fill="#000000" font-family="sans-serif" font-size="14" lengthAdjust="spacing" textLength="65" x="426" y="119.8467">Reference</text></g><!--class Entity--><g id="elem_Entity"><rect codeLine="29" fill="#CCFFFF" height="32" id="Entity" rx="2.5" ry="2.5" style="stroke:#A9A9A9;stroke-width:0.5;" width="68" x="985.5" y="7"/><ellipse cx="1000.5" cy="23" fill="#FFFFFF" rx="11" ry="11" style="stroke:#181818;stroke-width:1.0;"/><path d="M1000.4375,18.8281 Q999.6875,18.8281 999.125,19.125 Q998.5625,19.4063 998.1719,19.9375 Q997.7813,20.4688 997.5781,21.25 Q997.3906,22.0156 997.3906,22.9688 Q997.3906,23.9375 997.5625,24.7031 Q997.75,25.4531 998.1094,25.9688 Q998.4844,26.4844 999.0625,26.7656 Q999.6406,27.0313 1000.4375,27.0313 Q1001.1719,27.0313 1001.9063,26.8594 Q1002.6563,26.6875 1003.5313,26.3906 L1003.5313,28.5469 Q1003.125,28.7031 1002.7344,28.8281 Q1002.3438,28.9375 1001.9375,29.0156 Q1001.5313,29.0938 1001.1094,29.125 Q1000.6875,29.1719 1000.1875,29.1719 Q998.7813,29.1719 997.75,28.7188 Q996.7344,28.2656 996.0625,27.4531 Q995.3906,26.6406 995.0625,25.5 Q994.7344,24.3438 994.7344,22.9531 Q994.7344,21.5781 995.1094,20.4219 Q995.4844,19.2656 996.2031,18.4375 Q996.9219,17.6094 997.9844,17.1563 Q999.0469,16.6875 1000.4375,16.6875 Q1001.3438,16.6875 1002.25,16.9219 Q1003.1563,17.1406 1003.9844,17.5469 L1003.1563,19.6406 Q1002.4688,19.3125 1001.7813,19.0781 Q1001.0938,18.8281 1000.4375,18.8281 Z " fill="#000000"/><text fill="#000000" font-family="sans-serif" font-size="14" lengthAdjust="spacing" textLength="36" x="1014.5" y="27.8467">Entity</text></g><!--class ParametricInterface--><g id="elem_ParametricInterface"><rect codeLine="31" fill="#CCFFFF" height="32" id="ParametricInterface" rx="2.5" ry="2.5" style="stroke:#A9A9A9;stroke-width:0.5;" width="160" x="1699.5" y="583"/><ellipse cx="1714.5" cy="599" fill="#FFFFFF" rx="11" ry="11" style="stroke:#181818;stroke-width:1.0;"/><path d="M1714.4375,594.8281 Q1713.6875,594.8281 1713.125,595.125 Q1712.5625,595.4063 1712.1719,595.9375 Q1711.7813,596.4688 1711.5781,597.25 Q1711.3906,598.0156 1711.3906,598.9688 Q1711.3906,599.9375 1711.5625,600.7031 Q1711.75,601.4531 1712.1094,601.9688 Q1712.4844,602.4844 1713.0625,602.7656 Q1713.6406,603.0313 1714.4375,603.0313 Q1715.1719,603.0313 1715.9063,602.8594 Q1716.6563,602.6875 1717.5313,602.3906 L1717.5313,604.5469 Q1717.125,604.7031 1716.7344,604.8281 Q1716.3438,604.9375 1715.9375,605.0156 Q1715.5313,605.0938 1715.1094,605.125 Q1714.6875,605.1719 1714.1875,605.1719 Q1712.7813,605.1719 1711.75,604.7188 Q1710.7344,604.2656 1710.0625,603.4531 Q1709.3906,602.6406 1709.0625,601.5 Q1708.7344,600.3438 1708.7344,598.9531 Q1708.7344,597.5781 1709.1094,596.4219 Q1709.4844,595.2656 1710.2031,594.4375 Q1710.9219,593.6094 1711.9844,593.1563 Q1713.0469,592.6875 1714.4375,592.6875 Q1715.3438,592.6875 1716.25,592.9219 Q1717.1563,593.1406 1717.9844,593.5469 L1717.1563,595.6406 Q1716.4688,595.3125 1715.7813,595.0781 Q1715.0938,594.8281 1714.4375,594.8281 Z " fill="#000000"/><text fill="#000000" font-family="sans-serif" font-size="14" lengthAdjust="spacing" textLength="128" x="1728.5" y="603.8467">ParametricInterface</text></g><!--class ParameterType--><g id="elem_ParameterType"><rect codeLine="33" fill="#CCFFFF" height="32" id="ParameterType" rx="2.5" ry="2.5" style="stroke:#A9A9A9;stroke-width:0.5;" width="130" x="1412.5" y="491"/><ellipse cx="1427.5" cy="507" fill="#FFFFFF" rx="11" ry="11" style="stroke:#181818;stroke-width:1.0;"/><path d="M1427.4375,502.8281 Q1426.6875,502.8281 1426.125,503.125 Q1425.5625,503.4063 1425.1719,503.9375 Q1424.7813,504.4688 1424.5781,505.25 Q1424.3906,506.0156 1424.3906,506.9688 Q1424.3906,507.9375 1424.5625,508.7031 Q1424.75,509.4531 1425.1094,509.9688 Q1425.4844,510.4844 1426.0625,510.7656 Q1426.6406,511.0313 1427.4375,511.0313 Q1428.1719,511.0313 1428.9063,510.8594 Q1429.6563,510.6875 1430.5313,510.3906 L1430.5313,512.5469 Q1430.125,512.7031 1429.7344,512.8281 Q1429.3438,512.9375 1428.9375,513.0156 Q1428.5313,513.0938 1428.1094,513.125 Q1427.6875,513.1719 1427.1875,513.1719 Q1425.7813,513.1719 1424.75,512.7188 Q1423.7344,512.2656 1423.0625,511.4531 Q1422.3906,510.6406 1422.0625,509.5 Q1421.7344,508.3438 1421.7344,506.9531 Q1421.7344,505.5781 1422.1094,504.4219 Q1422.4844,503.2656 1423.2031,502.4375 Q1423.9219,501.6094 1424.9844,501.1563 Q1426.0469,500.6875 1427.4375,500.6875 Q1428.3438,500.6875 1429.25,500.9219 Q1430.1563,501.1406 1430.9844,501.5469 L1430.1563,503.6406 Q1429.4688,503.3125 1428.7813,503.0781 Q1428.0938,502.8281 1427.4375,502.8281 Z " fill="#000000"/><text fill="#000000" font-family="sans-serif" font-size="14" lengthAdjust="spacing" textLength="98" x="1441.5" y="511.8467">ParameterType</text></g><!--class IndexedFileAnchor--><g id="elem_IndexedFileAnchor"><rect codeLine="35" fill="#CCFFFF" height="32" id="IndexedFileAnchor" rx="2.5" ry="2.5" style="stroke:#A9A9A9;stroke-width:0.5;" width="152" x="1301.5" y="191"/><ellipse cx="1316.5" cy="207" fill="#FFFFFF" rx="11" ry="11" style="stroke:#181818;stroke-width:1.0;"/><path d="M1316.4375,202.8281 Q1315.6875,202.8281 1315.125,203.125 Q1314.5625,203.4063 1314.1719,203.9375 Q1313.7813,204.4688 1313.5781,205.25 Q1313.3906,206.0156 1313.3906,206.9688 Q1313.3906,207.9375 1313.5625,208.7031 Q1313.75,209.4531 1314.1094,209.9688 Q1314.4844,210.4844 1315.0625,210.7656 Q1315.6406,211.0313 1316.4375,211.0313 Q1317.1719,211.0313 1317.9063,210.8594 Q1318.6563,210.6875 1319.5313,210.3906 L1319.5313,212.5469 Q1319.125,212.7031 1318.7344,212.8281 Q1318.3438,212.9375 1317.9375,213.0156 Q1317.5313,213.0938 1317.1094,213.125 Q1316.6875,213.1719 1316.1875,213.1719 Q1314.7813,213.1719 1313.75,212.7188 Q1312.7344,212.2656 1312.0625,211.4531 Q1311.3906,210.6406 1311.0625,209.5 Q1310.7344,208.3438 1310.7344,206.9531 Q1310.7344,205.5781 1311.1094,204.4219 Q1311.4844,203.2656 1312.2031,202.4375 Q1312.9219,201.6094 1313.9844,201.1563 Q1315.0469,200.6875 1316.4375,200.6875 Q1317.3438,200.6875 1318.25,200.9219 Q1319.1563,201.1406 1319.9844,201.5469 L1319.1563,203.6406 Q1318.4688,203.3125 1317.7813,203.0781 Q1317.0938,202.8281 1316.4375,202.8281 Z " fill="#000000"/><text fill="#000000" font-family="sans-serif" font-size="14" lengthAdjust="spacing" textLength="120" x="1330.5" y="211.8467">IndexedFileAnchor</text></g><!--class SourcedEntity--><g id="elem_SourcedEntity"><rect codeLine="37" fill="#CCFFFF" height="32" id="SourcedEntity" rx="2.5" ry="2.5" style="stroke:#A9A9A9;stroke-width:0.5;" width="119" x="529" y="99"/><ellipse cx="544" cy="115" fill="#FFFFFF" rx="11" ry="11" style="stroke:#181818;stroke-width:1.0;"/><path d="M543.9375,110.8281 Q543.1875,110.8281 542.625,111.125 Q542.0625,111.4063 541.6719,111.9375 Q541.2813,112.4688 541.0781,113.25 Q540.8906,114.0156 540.8906,114.9688 Q540.8906,115.9375 541.0625,116.7031 Q541.25,117.4531 541.6094,117.9688 Q541.9844,118.4844 542.5625,118.7656 Q543.1406,119.0313 543.9375,119.0313 Q544.6719,119.0313 545.4063,118.8594 Q546.1563,118.6875 547.0313,118.3906 L547.0313,120.5469 Q546.625,120.7031 546.2344,120.8281 Q545.8438,120.9375 545.4375,121.0156 Q545.0313,121.0938 544.6094,121.125 Q544.1875,121.1719 543.6875,121.1719 Q542.2813,121.1719 541.25,120.7188 Q540.2344,120.2656 539.5625,119.4531 Q538.8906,118.6406 538.5625,117.5 Q538.2344,116.3438 538.2344,114.9531 Q538.2344,113.5781 538.6094,112.4219 Q538.9844,111.2656 539.7031,110.4375 Q540.4219,109.6094 541.4844,109.1563 Q542.5469,108.6875 543.9375,108.6875 Q544.8438,108.6875 545.75,108.9219 Q546.6563,109.1406 547.4844,109.5469 L546.6563,111.6406 Q545.9688,111.3125 545.2813,111.0781 Q544.5938,110.8281 543.9375,110.8281 Z " fill="#000000"/><text fill="#000000" font-family="sans-serif" font-size="14" lengthAdjust="spacing" textLength="87" x="558" y="119.8467">SourcedEntity</text></g><!--class Import--><g id="elem_Import"><rect codeLine="39" fill="#CCFFFF" height="32" id="Import" rx="2.5" ry="2.5" style="stroke:#A9A9A9;stroke-width:0.5;" width="77" x="683" y="99"/><ellipse cx="698" cy="115" fill="#FFFFFF" rx="11" ry="11" style="stroke:#181818;stroke-width:1.0;"/><path d="M697.9375,110.8281 Q697.1875,110.8281 696.625,111.125 Q696.0625,111.4063 695.6719,111.9375 Q695.2813,112.4688 695.0781,113.25 Q694.8906,114.0156 694.8906,114.9688 Q694.8906,115.9375 695.0625,116.7031 Q695.25,117.4531 695.6094,117.9688 Q695.9844,118.4844 696.5625,118.7656 Q697.1406,119.0313 697.9375,119.0313 Q698.6719,119.0313 699.4063,118.8594 Q700.1563,118.6875 701.0313,118.3906 L701.0313,120.5469 Q700.625,120.7031 700.2344,120.8281 Q699.8438,120.9375 699.4375,121.0156 Q699.0313,121.0938 698.6094,121.125 Q698.1875,121.1719 697.6875,121.1719 Q696.2813,121.1719 695.25,120.7188 Q694.2344,120.2656 693.5625,119.4531 Q692.8906,118.6406 692.5625,117.5 Q692.2344,116.3438 692.2344,114.9531 Q692.2344,113.5781 692.6094,112.4219 Q692.9844,111.2656 693.7031,110.4375 Q694.4219,109.6094 695.4844,109.1563 Q696.5469,108.6875 697.9375,108.6875 Q698.8438,108.6875 699.75,108.9219 Q700.6563,109.1406 701.4844,109.5469 L700.6563,111.6406 Q699.9688,111.3125 699.2813,111.0781 Q698.5938,110.8281 697.9375,110.8281 Z " fill="#000000"/><text fill="#000000" font-family="sans-serif" font-size="14" lengthAdjust="spacing" textLength="45" x="712" y="119.8467">Import</text></g><!--class Implementation--><g id="elem_Implementation"><rect codeLine="41" fill="#CCFFFF" height="32" id="Implementation" rx="2.5" ry="2.5" style="stroke:#A9A9A9;stroke-width:0.5;" width="136" x="795.5" y="99"/><ellipse cx="810.5" cy="115" fill="#FFFFFF" rx="11" ry="11" style="stroke:#181818;stroke-width:1.0;"/><path d="M810.4375,110.8281 Q809.6875,110.8281 809.125,111.125 Q808.5625,111.4063 808.1719,111.9375 Q807.7813,112.4688 807.5781,113.25 Q807.3906,114.0156 807.3906,114.9688 Q807.3906,115.9375 807.5625,116.7031 Q807.75,117.4531 808.1094,117.9688 Q808.4844,118.4844 809.0625,118.7656 Q809.6406,119.0313 810.4375,119.0313 Q811.1719,119.0313 811.9063,118.8594 Q812.6563,118.6875 813.5313,118.3906 L813.5313,120.5469 Q813.125,120.7031 812.7344,120.8281 Q812.3438,120.9375 811.9375,121.0156 Q811.5313,121.0938 811.1094,121.125 Q810.6875,121.1719 810.1875,121.1719 Q808.7813,121.1719 807.75,120.7188 Q806.7344,120.2656 806.0625,119.4531 Q805.3906,118.6406 805.0625,117.5 Q804.7344,116.3438 804.7344,114.9531 Q804.7344,113.5781 805.1094,112.4219 Q805.4844,111.2656 806.2031,110.4375 Q806.9219,109.6094 807.9844,109.1563 Q809.0469,108.6875 810.4375,108.6875 Q811.3438,108.6875 812.25,108.9219 Q813.1563,109.1406 813.9844,109.5469 L813.1563,111.6406 Q812.4688,111.3125 811.7813,111.0781 Q811.0938,110.8281 810.4375,110.8281 Z " fill="#000000"/><text fill="#000000" font-family="sans-serif" font-size="14" lengthAdjust="spacing" textLength="104" x="824.5" y="119.8467">Implementation</text></g><!--class EnumValue--><g id="elem_EnumValue"><rect codeLine="43" fill="#CCFFFF" height="32" id="EnumValue" rx="2.5" ry="2.5" style="stroke:#A9A9A9;stroke-width:0.5;" width="103" x="97" y="295"/><ellipse cx="112" cy="311" fill="#FFFFFF" rx="11" ry="11" style="stroke:#181818;stroke-width:1.0;"/><path d="M111.9375,306.8281 Q111.1875,306.8281 110.625,307.125 Q110.0625,307.4063 109.6719,307.9375 Q109.2813,308.4688 109.0781,309.25 Q108.8906,310.0156 108.8906,310.9688 Q108.8906,311.9375 109.0625,312.7031 Q109.25,313.4531 109.6094,313.9688 Q109.9844,314.4844 110.5625,314.7656 Q111.1406,315.0313 111.9375,315.0313 Q112.6719,315.0313 113.4063,314.8594 Q114.1563,314.6875 115.0313,314.3906 L115.0313,316.5469 Q114.625,316.7031 114.2344,316.8281 Q113.8438,316.9375 113.4375,317.0156 Q113.0313,317.0938 112.6094,317.125 Q112.1875,317.1719 111.6875,317.1719 Q110.2813,317.1719 109.25,316.7188 Q108.2344,316.2656 107.5625,315.4531 Q106.8906,314.6406 106.5625,313.5 Q106.2344,312.3438 106.2344,310.9531 Q106.2344,309.5781 106.6094,308.4219 Q106.9844,307.2656 107.7031,306.4375 Q108.4219,305.6094 109.4844,305.1563 Q110.5469,304.6875 111.9375,304.6875 Q112.8438,304.6875 113.75,304.9219 Q114.6563,305.1406 115.4844,305.5469 L114.6563,307.6406 Q113.9688,307.3125 113.2813,307.0781 Q112.5938,306.8281 111.9375,306.8281 Z " fill="#000000"/><text fill="#000000" font-family="sans-serif" font-size="14" lengthAdjust="spacing" textLength="71" x="126" y="315.8467">EnumValue</text></g><!--class Namespace--><g id="elem_Namespace"><rect codeLine="45" fill="#CCFFFF" height="32" id="Namespace" rx="2.5" ry="2.5" style="stroke:#A9A9A9;stroke-width:0.5;" width="105" x="1921" y="399"/><ellipse cx="1936" cy="415" fill="#FFFFFF" rx="11" ry="11" style="stroke:#181818;stroke-width:1.0;"/><path d="M1935.9375,410.8281 Q1935.1875,410.8281 1934.625,411.125 Q1934.0625,411.4063 1933.6719,411.9375 Q1933.2813,412.4688 1933.0781,413.25 Q1932.8906,414.0156 1932.8906,414.9688 Q1932.8906,415.9375 1933.0625,416.7031 Q1933.25,417.4531 1933.6094,417.9688 Q1933.9844,418.4844 1934.5625,418.7656 Q1935.1406,419.0313 1935.9375,419.0313 Q1936.6719,419.0313 1937.4063,418.8594 Q1938.1563,418.6875 1939.0313,418.3906 L1939.0313,420.5469 Q1938.625,420.7031 1938.2344,420.8281 Q1937.8438,420.9375 1937.4375,421.0156 Q1937.0313,421.0938 1936.6094,421.125 Q1936.1875,421.1719 1935.6875,421.1719 Q1934.2813,421.1719 1933.25,420.7188 Q1932.2344,420.2656 1931.5625,419.4531 Q1930.8906,418.6406 1930.5625,417.5 Q1930.2344,416.3438 1930.2344,414.9531 Q1930.2344,413.5781 1930.6094,412.4219 Q1930.9844,411.2656 1931.7031,410.4375 Q1932.4219,409.6094 1933.4844,409.1563 Q1934.5469,408.6875 1935.9375,408.6875 Q1936.8438,408.6875 1937.75,408.9219 Q1938.6563,409.1406 1939.4844,409.5469 L1938.6563,411.6406 Q1937.9688,411.3125 1937.2813,411.0781 Q1936.5938,410.8281 1935.9375,410.8281 Z " fill="#000000"/><text fill="#000000" font-family="sans-serif" font-size="14" lengthAdjust="spacing" textLength="73" x="1950" y="419.8467">Namespace</text></g><!--class Inheritance--><g id="elem_Inheritance"><rect codeLine="47" fill="#CCFFFF" height="32" id="Inheritance" rx="2.5" ry="2.5" style="stroke:#A9A9A9;stroke-width:0.5;" width="105" x="967" y="99"/><ellipse cx="982" cy="115" fill="#FFFFFF" rx="11" ry="11" style="stroke:#181818;stroke-width:1.0;"/><path d="M981.9375,110.8281 Q981.1875,110.8281 980.625,111.125 Q980.0625,111.4063 979.6719,111.9375 Q979.2813,112.4688 979.0781,113.25 Q978.8906,114.0156 978.8906,114.9688 Q978.8906,115.9375 979.0625,116.7031 Q979.25,117.4531 979.6094,117.9688 Q979.9844,118.4844 980.5625,118.7656 Q981.1406,119.0313 981.9375,119.0313 Q982.6719,119.0313 983.4063,118.8594 Q984.1563,118.6875 985.0313,118.3906 L985.0313,120.5469 Q984.625,120.7031 984.2344,120.8281 Q983.8438,120.9375 983.4375,121.0156 Q983.0313,121.0938 982.6094,121.125 Q982.1875,121.1719 981.6875,121.1719 Q980.2813,121.1719 979.25,120.7188 Q978.2344,120.2656 977.5625,119.4531 Q976.8906,118.6406 976.5625,117.5 Q976.2344,116.3438 976.2344,114.9531 Q976.2344,113.5781 976.6094,112.4219 Q976.9844,111.2656 977.7031,110.4375 Q978.4219,109.6094 979.4844,109.1563 Q980.5469,108.6875 981.9375,108.6875 Q982.8438,108.6875 983.75,108.9219 Q984.6563,109.1406 985.4844,109.5469 L984.6563,111.6406 Q983.9688,111.3125 983.2813,111.0781 Q982.5938,110.8281 981.9375,110.8281 Z " fill="#000000"/><text fill="#000000" font-family="sans-serif" font-size="14" lengthAdjust="spacing" textLength="73" x="996" y="119.8467">Inheritance</text></g><!--class ParameterConcretization--><g id="elem_ParameterConcretization"><rect codeLine="49" fill="#CCFFFF" height="32" id="ParameterConcretization" rx="2.5" ry="2.5" style="stroke:#A9A9A9;stroke-width:0.5;" width="191" x="1107" y="99"/><ellipse cx="1122" cy="115" fill="#FFFFFF" rx="11" ry="11" style="stroke:#181818;stroke-width:1.0;"/><path d="M1121.9375,110.8281 Q1121.1875,110.8281 1120.625,111.125 Q1120.0625,111.4063 1119.6719,111.9375 Q1119.2813,112.4688 1119.0781,113.25 Q1118.8906,114.0156 1118.8906,114.9688 Q1118.8906,115.9375 1119.0625,116.7031 Q1119.25,117.4531 1119.6094,117.9688 Q1119.9844,118.4844 1120.5625,118.7656 Q1121.1406,119.0313 1121.9375,119.0313 Q1122.6719,119.0313 1123.4063,118.8594 Q1124.1563,118.6875 1125.0313,118.3906 L1125.0313,120.5469 Q1124.625,120.7031 1124.2344,120.8281 Q1123.8438,120.9375 1123.4375,121.0156 Q1123.0313,121.0938 1122.6094,121.125 Q1122.1875,121.1719 1121.6875,121.1719 Q1120.2813,121.1719 1119.25,120.7188 Q1118.2344,120.2656 1117.5625,119.4531 Q1116.8906,118.6406 1116.5625,117.5 Q1116.2344,116.3438 1116.2344,114.9531 Q1116.2344,113.5781 1116.6094,112.4219 Q1116.9844,111.2656 1117.7031,110.4375 Q1118.4219,109.6094 1119.4844,109.1563 Q1120.5469,108.6875 1121.9375,108.6875 Q1122.8438,108.6875 1123.75,108.9219 Q1124.6563,109.1406 1125.4844,109.5469 L1124.6563,111.6406 Q1123.9688,111.3125 1123.2813,111.0781 Q1122.5938,110.8281 1121.9375,110.8281 Z " fill="#000000"/><text fill="#000000" font-family="sans-serif" font-size="14" lengthAdjust="spacing" textLength="159" x="1136" y="119.8467">ParameterConcretization</text></g><!--class Folder--><g id="elem_Folder"><rect codeLine="51" fill="#CCFFFF" height="32" id="Folder" rx="2.5" ry="2.5" style="stroke:#A9A9A9;stroke-width:0.5;" width="73" x="235" y="295"/><ellipse cx="250" cy="311" fill="#FFFFFF" rx="11" ry="11" style="stroke:#181818;stroke-width:1.0;"/><path d="M249.9375,306.8281 Q249.1875,306.8281 248.625,307.125 Q248.0625,307.4063 247.6719,307.9375 Q247.2813,308.4688 247.0781,309.25 Q246.8906,310.0156 246.8906,310.9688 Q246.8906,311.9375 247.0625,312.7031 Q247.25,313.4531 247.6094,313.9688 Q247.9844,314.4844 248.5625,314.7656 Q249.1406,315.0313 249.9375,315.0313 Q250.6719,315.0313 251.4063,314.8594 Q252.1563,314.6875 253.0313,314.3906 L253.0313,316.5469 Q252.625,316.7031 252.2344,316.8281 Q251.8438,316.9375 251.4375,317.0156 Q251.0313,317.0938 250.6094,317.125 Q250.1875,317.1719 249.6875,317.1719 Q248.2813,317.1719 247.25,316.7188 Q246.2344,316.2656 245.5625,315.4531 Q244.8906,314.6406 244.5625,313.5 Q244.2344,312.3438 244.2344,310.9531 Q244.2344,309.5781 244.6094,308.4219 Q244.9844,307.2656 245.7031,306.4375 Q246.4219,305.6094 247.4844,305.1563 Q248.5469,304.6875 249.9375,304.6875 Q250.8438,304.6875 251.75,304.9219 Q252.6563,305.1406 253.4844,305.5469 L252.6563,307.6406 Q251.9688,307.3125 251.2813,307.0781 Q250.5938,306.8281 249.9375,306.8281 Z " fill="#000000"/><text fill="#000000" font-family="sans-serif" font-size="14" lengthAdjust="spacing" textLength="41" x="264" y="315.8467">Folder</text></g><!--class Decorator--><g id="elem_Decorator"><rect codeLine="53" fill="#CCFFFF" height="56.2969" id="Decorator" rx="2.5" ry="2.5" style="stroke:#A9A9A9;stroke-width:0.5;" width="122" x="563.5" y="283"/><ellipse cx="590.2" cy="299" fill="#FFFFFF" rx="11" ry="11" style="stroke:#181818;stroke-width:1.0;"/><path d="M590.1375,294.8281 Q589.3875,294.8281 588.825,295.125 Q588.2625,295.4063 587.8719,295.9375 Q587.4813,296.4688 587.2781,297.25 Q587.0906,298.0156 587.0906,298.9688 Q587.0906,299.9375 587.2625,300.7031 Q587.45,301.4531 587.8094,301.9688 Q588.1844,302.4844 588.7625,302.7656 Q589.3406,303.0313 590.1375,303.0313 Q590.8719,303.0313 591.6063,302.8594 Q592.3563,302.6875 593.2313,302.3906 L593.2313,304.5469 Q592.825,304.7031 592.4344,304.8281 Q592.0438,304.9375 591.6375,305.0156 Q591.2313,305.0938 590.8094,305.125 Q590.3875,305.1719 589.8875,305.1719 Q588.4813,305.1719 587.45,304.7188 Q586.4344,304.2656 585.7625,303.4531 Q585.0906,302.6406 584.7625,301.5 Q584.4344,300.3438 584.4344,298.9531 Q584.4344,297.5781 584.8094,296.4219 Q585.1844,295.2656 585.9031,294.4375 Q586.6219,293.6094 587.6844,293.1563 Q588.7469,292.6875 590.1375,292.6875 Q591.0438,292.6875 591.95,292.9219 Q592.8563,293.1406 593.6844,293.5469 L592.8563,295.6406 Q592.1688,295.3125 591.4813,295.0781 Q590.7938,294.8281 590.1375,294.8281 Z " fill="#000000"/><text fill="#000000" font-family="sans-serif" font-size="14" lengthAdjust="spacing" textLength="64" x="606.8" y="303.8467">Decorator</text><line style="stroke:#A9A9A9;stroke-width:0.5;" x1="564.5" x2="684.5" y1="315" y2="315"/><text fill="#000000" font-family="sans-serif" font-size="14" lengthAdjust="spacing" textLength="110" x="569.5" y="331.9951">String expression</text></g><!--class PrimitiveType--><g id="elem_PrimitiveType"><rect codeLine="56" fill="#CCFFFF" height="32" id="PrimitiveType" rx="2.5" ry="2.5" style="stroke:#A9A9A9;stroke-width:0.5;" width="121" x="1578" y="491"/><ellipse cx="1593" cy="507" fill="#FFFFFF" rx="11" ry="11" style="stroke:#181818;stroke-width:1.0;"/><path d="M1592.9375,502.8281 Q1592.1875,502.8281 1591.625,503.125 Q1591.0625,503.4063 1590.6719,503.9375 Q1590.2813,504.4688 1590.0781,505.25 Q1589.8906,506.0156 1589.8906,506.9688 Q1589.8906,507.9375 1590.0625,508.7031 Q1590.25,509.4531 1590.6094,509.9688 Q1590.9844,510.4844 1591.5625,510.7656 Q1592.1406,511.0313 1592.9375,511.0313 Q1593.6719,511.0313 1594.4063,510.8594 Q1595.1563,510.6875 1596.0313,510.3906 L1596.0313,512.5469 Q1595.625,512.7031 1595.2344,512.8281 Q1594.8438,512.9375 1594.4375,513.0156 Q1594.0313,513.0938 1593.6094,513.125 Q1593.1875,513.1719 1592.6875,513.1719 Q1591.2813,513.1719 1590.25,512.7188 Q1589.2344,512.2656 1588.5625,511.4531 Q1587.8906,510.6406 1587.5625,509.5 Q1587.2344,508.3438 1587.2344,506.9531 Q1587.2344,505.5781 1587.6094,504.4219 Q1587.9844,503.2656 1588.7031,502.4375 Q1589.4219,501.6094 1590.4844,501.1563 Q1591.5469,500.6875 1592.9375,500.6875 Q1593.8438,500.6875 1594.75,500.9219 Q1595.6563,501.1406 1596.4844,501.5469 L1595.6563,503.6406 Q1594.9688,503.3125 1594.2813,503.0781 Q1593.5938,502.8281 1592.9375,502.8281 Z " fill="#000000"/><text fill="#000000" font-family="sans-serif" font-size="14" lengthAdjust="spacing" textLength="89" x="1607" y="511.8467">PrimitiveType</text></g><!--class NamedEntity--><g id="elem_NamedEntity"><rect codeLine="58" fill="#CCFFFF" height="32" id="NamedEntity" rx="2.5" ry="2.5" style="stroke:#A9A9A9;stroke-width:0.5;" width="114" x="440.5" y="191"/><ellipse cx="455.5" cy="207" fill="#FFFFFF" rx="11" ry="11" style="stroke:#181818;stroke-width:1.0;"/><path d="M455.4375,202.8281 Q454.6875,202.8281 454.125,203.125 Q453.5625,203.4063 453.1719,203.9375 Q452.7813,204.4688 452.5781,205.25 Q452.3906,206.0156 452.3906,206.9688 Q452.3906,207.9375 452.5625,208.7031 Q452.75,209.4531 453.1094,209.9688 Q453.4844,210.4844 454.0625,210.7656 Q454.6406,211.0313 455.4375,211.0313 Q456.1719,211.0313 456.9063,210.8594 Q457.6563,210.6875 458.5313,210.3906 L458.5313,212.5469 Q458.125,212.7031 457.7344,212.8281 Q457.3438,212.9375 456.9375,213.0156 Q456.5313,213.0938 456.1094,213.125 Q455.6875,213.1719 455.1875,213.1719 Q453.7813,213.1719 452.75,212.7188 Q451.7344,212.2656 451.0625,211.4531 Q450.3906,210.6406 450.0625,209.5 Q449.7344,208.3438 449.7344,206.9531 Q449.7344,205.5781 450.1094,204.4219 Q450.4844,203.2656 451.2031,202.4375 Q451.9219,201.6094 452.9844,201.1563 Q454.0469,200.6875 455.4375,200.6875 Q456.3438,200.6875 457.25,200.9219 Q458.1563,201.1406 458.9844,201.5469 L458.1563,203.6406 Q457.4688,203.3125 456.7813,203.0781 Q456.0938,202.8281 455.4375,202.8281 Z " fill="#000000"/><text fill="#000000" font-family="sans-serif" font-size="14" lengthAdjust="spacing" textLength="82" x="469.5" y="211.8467">NamedEntity</text></g><!--class Property--><g id="elem_Property"><rect codeLine="60" fill="#CCFFFF" height="32" id="Property" rx="2.5" ry="2.5" style="stroke:#A9A9A9;stroke-width:0.5;" width="88" x="343.5" y="295"/><ellipse cx="358.5" cy="311" fill="#FFFFFF" rx="11" ry="11" style="stroke:#181818;stroke-width:1.0;"/><path d="M358.4375,306.8281 Q357.6875,306.8281 357.125,307.125 Q356.5625,307.4063 356.1719,307.9375 Q355.7813,308.4688 355.5781,309.25 Q355.3906,310.0156 355.3906,310.9688 Q355.3906,311.9375 355.5625,312.7031 Q355.75,313.4531 356.1094,313.9688 Q356.4844,314.4844 357.0625,314.7656 Q357.6406,315.0313 358.4375,315.0313 Q359.1719,315.0313 359.9063,314.8594 Q360.6563,314.6875 361.5313,314.3906 L361.5313,316.5469 Q361.125,316.7031 360.7344,316.8281 Q360.3438,316.9375 359.9375,317.0156 Q359.5313,317.0938 359.1094,317.125 Q358.6875,317.1719 358.1875,317.1719 Q356.7813,317.1719 355.75,316.7188 Q354.7344,316.2656 354.0625,315.4531 Q353.3906,314.6406 353.0625,313.5 Q352.7344,312.3438 352.7344,310.9531 Q352.7344,309.5781 353.1094,308.4219 Q353.4844,307.2656 354.2031,306.4375 Q354.9219,305.6094 355.9844,305.1563 Q357.0469,304.6875 358.4375,304.6875 Q359.3438,304.6875 360.25,304.9219 Q361.1563,305.1406 361.9844,305.5469 L361.1563,307.6406 Q360.4688,307.3125 359.7813,307.0781 Q359.0938,306.8281 358.4375,306.8281 Z " fill="#000000"/><text fill="#000000" font-family="sans-serif" font-size="14" lengthAdjust="spacing" textLength="56" x="372.5" y="315.8467">Property</text></g><!--class SourceLanguage--><g id="elem_SourceLanguage"><rect codeLine="62" fill="#CCFFFF" height="32" id="SourceLanguage" rx="2.5" ry="2.5" style="stroke:#A9A9A9;stroke-width:0.5;" width="134" x="1333.5" y="99"/><ellipse cx="1348.5" cy="115" fill="#FFFFFF" rx="11" ry="11" style="stroke:#181818;stroke-width:1.0;"/><path d="M1348.4375,110.8281 Q1347.6875,110.8281 1347.125,111.125 Q1346.5625,111.4063 1346.1719,111.9375 Q1345.7813,112.4688 1345.5781,113.25 Q1345.3906,114.0156 1345.3906,114.9688 Q1345.3906,115.9375 1345.5625,116.7031 Q1345.75,117.4531 1346.1094,117.9688 Q1346.4844,118.4844 1347.0625,118.7656 Q1347.6406,119.0313 1348.4375,119.0313 Q1349.1719,119.0313 1349.9063,118.8594 Q1350.6563,118.6875 1351.5313,118.3906 L1351.5313,120.5469 Q1351.125,120.7031 1350.7344,120.8281 Q1350.3438,120.9375 1349.9375,121.0156 Q1349.5313,121.0938 1349.1094,121.125 Q1348.6875,121.1719 1348.1875,121.1719 Q1346.7813,121.1719 1345.75,120.7188 Q1344.7344,120.2656 1344.0625,119.4531 Q1343.3906,118.6406 1343.0625,117.5 Q1342.7344,116.3438 1342.7344,114.9531 Q1342.7344,113.5781 1343.1094,112.4219 Q1343.4844,111.2656 1344.2031,110.4375 Q1344.9219,109.6094 1345.9844,109.1563 Q1347.0469,108.6875 1348.4375,108.6875 Q1349.3438,108.6875 1350.25,108.9219 Q1351.1563,109.1406 1351.9844,109.5469 L1351.1563,111.6406 Q1350.4688,111.3125 1349.7813,111.0781 Q1349.0938,110.8281 1348.4375,110.8281 Z " fill="#000000"/><text fill="#000000" font-family="sans-serif" font-size="14" lengthAdjust="spacing" textLength="102" x="1362.5" y="119.8467">SourceLanguage</text></g><!--class TClassMetrics--><g id="elem_TClassMetrics"><rect codeLine="64" fill="#CCFFFF" height="32" id="TClassMetrics" rx="2.5" ry="2.5" style="stroke:#A9A9A9;stroke-width:0.5;" width="117" x="1005" y="399"/><ellipse cx="1020" cy="415" fill="#FFFFFF" rx="11" ry="11" style="stroke:#181818;stroke-width:1.0;"/><path d="M1021.4531,421.75 L1018.8906,421.75 L1018.8906,411.75 L1015.8438,411.75 L1015.8438,409.6094 L1024.4844,409.6094 L1024.4844,411.75 L1021.4531,411.75 L1021.4531,421.75 Z " fill="#000000"/><text fill="#000000" font-family="sans-serif" font-size="14" lengthAdjust="spacing" textLength="85" x="1034" y="419.8467">TClassMetrics</text></g><!--class Method--><g id="elem_Method"><rect codeLine="66" fill="#CCFFFF" height="32" id="Method" rx="2.5" ry="2.5" style="stroke:#A9A9A9;stroke-width:0.5;" width="81" x="889" y="399"/><ellipse cx="904" cy="415" fill="#FFFFFF" rx="11" ry="11" style="stroke:#181818;stroke-width:1.0;"/><path d="M903.9375,410.8281 Q903.1875,410.8281 902.625,411.125 Q902.0625,411.4063 901.6719,411.9375 Q901.2813,412.4688 901.0781,413.25 Q900.8906,414.0156 900.8906,414.9688 Q900.8906,415.9375 901.0625,416.7031 Q901.25,417.4531 901.6094,417.9688 Q901.9844,418.4844 902.5625,418.7656 Q903.1406,419.0313 903.9375,419.0313 Q904.6719,419.0313 905.4063,418.8594 Q906.1563,418.6875 907.0313,418.3906 L907.0313,420.5469 Q906.625,420.7031 906.2344,420.8281 Q905.8438,420.9375 905.4375,421.0156 Q905.0313,421.0938 904.6094,421.125 Q904.1875,421.1719 903.6875,421.1719 Q902.2813,421.1719 901.25,420.7188 Q900.2344,420.2656 899.5625,419.4531 Q898.8906,418.6406 898.5625,417.5 Q898.2344,416.3438 898.2344,414.9531 Q898.2344,413.5781 898.6094,412.4219 Q898.9844,411.2656 899.7031,410.4375 Q900.4219,409.6094 901.4844,409.1563 Q902.5469,408.6875 903.9375,408.6875 Q904.8438,408.6875 905.75,408.9219 Q906.6563,409.1406 907.4844,409.5469 L906.6563,411.6406 Q905.9688,411.3125 905.2813,411.0781 Q904.5938,410.8281 903.9375,410.8281 Z " fill="#000000"/><text fill="#000000" font-family="sans-serif" font-size="14" lengthAdjust="spacing" textLength="49" x="918" y="419.8467">Method</text></g><!--class ParametricClass--><g id="elem_ParametricClass"><rect codeLine="68" fill="#CCFFFF" height="32" id="ParametricClass" rx="2.5" ry="2.5" style="stroke:#A9A9A9;stroke-width:0.5;" width="133" x="991" y="583"/><ellipse cx="1006" cy="599" fill="#FFFFFF" rx="11" ry="11" style="stroke:#181818;stroke-width:1.0;"/><path d="M1005.9375,594.8281 Q1005.1875,594.8281 1004.625,595.125 Q1004.0625,595.4063 1003.6719,595.9375 Q1003.2813,596.4688 1003.0781,597.25 Q1002.8906,598.0156 1002.8906,598.9688 Q1002.8906,599.9375 1003.0625,600.7031 Q1003.25,601.4531 1003.6094,601.9688 Q1003.9844,602.4844 1004.5625,602.7656 Q1005.1406,603.0313 1005.9375,603.0313 Q1006.6719,603.0313 1007.4063,602.8594 Q1008.1563,602.6875 1009.0313,602.3906 L1009.0313,604.5469 Q1008.625,604.7031 1008.2344,604.8281 Q1007.8438,604.9375 1007.4375,605.0156 Q1007.0313,605.0938 1006.6094,605.125 Q1006.1875,605.1719 1005.6875,605.1719 Q1004.2813,605.1719 1003.25,604.7188 Q1002.2344,604.2656 1001.5625,603.4531 Q1000.8906,602.6406 1000.5625,601.5 Q1000.2344,600.3438 1000.2344,598.9531 Q1000.2344,597.5781 1000.6094,596.4219 Q1000.9844,595.2656 1001.7031,594.4375 Q1002.4219,593.6094 1003.4844,593.1563 Q1004.5469,592.6875 1005.9375,592.6875 Q1006.8438,592.6875 1007.75,592.9219 Q1008.6563,593.1406 1009.4844,593.5469 L1008.6563,595.6406 Q1007.9688,595.3125 1007.2813,595.0781 Q1006.5938,594.8281 1005.9375,594.8281 Z " fill="#000000"/><text fill="#000000" font-family="sans-serif" font-size="14" lengthAdjust="spacing" textLength="101" x="1020" y="603.8467">ParametricClass</text></g><!--class Comment--><g id="elem_Comment"><rect codeLine="70" fill="#CCFFFF" height="32" id="Comment" rx="2.5" ry="2.5" style="stroke:#A9A9A9;stroke-width:0.5;" width="95" x="590" y="191"/><ellipse cx="605" cy="207" fill="#FFFFFF" rx="11" ry="11" style="stroke:#181818;stroke-width:1.0;"/><path d="M604.9375,202.8281 Q604.1875,202.8281 603.625,203.125 Q603.0625,203.4063 602.6719,203.9375 Q602.2813,204.4688 602.0781,205.25 Q601.8906,206.0156 601.8906,206.9688 Q601.8906,207.9375 602.0625,208.7031 Q602.25,209.4531 602.6094,209.9688 Q602.9844,210.4844 603.5625,210.7656 Q604.1406,211.0313 604.9375,211.0313 Q605.6719,211.0313 606.4063,210.8594 Q607.1563,210.6875 608.0313,210.3906 L608.0313,212.5469 Q607.625,212.7031 607.2344,212.8281 Q606.8438,212.9375 606.4375,213.0156 Q606.0313,213.0938 605.6094,213.125 Q605.1875,213.1719 604.6875,213.1719 Q603.2813,213.1719 602.25,212.7188 Q601.2344,212.2656 600.5625,211.4531 Q599.8906,210.6406 599.5625,209.5 Q599.2344,208.3438 599.2344,206.9531 Q599.2344,205.5781 599.6094,204.4219 Q599.9844,203.2656 600.7031,202.4375 Q601.4219,201.6094 602.4844,201.1563 Q603.5469,200.6875 604.9375,200.6875 Q605.8438,200.6875 606.75,200.9219 Q607.6563,201.1406 608.4844,201.5469 L607.6563,203.6406 Q606.9688,203.3125 606.2813,203.0781 Q605.5938,202.8281 604.9375,202.8281 Z " fill="#000000"/><text fill="#000000" font-family="sans-serif" font-size="14" lengthAdjust="spacing" textLength="63" x="619" y="211.8467">Comment</text></g><!--class Accessor--><g id="elem_Accessor"><rect codeLine="72" fill="#CCFFFF" height="32" id="Accessor" rx="2.5" ry="2.5" style="stroke:#A9A9A9;stroke-width:0.5;" width="87" x="892" y="491"/><ellipse cx="907" cy="507" fill="#FFFFFF" rx="11" ry="11" style="stroke:#181818;stroke-width:1.0;"/><path d="M906.9375,502.8281 Q906.1875,502.8281 905.625,503.125 Q905.0625,503.4063 904.6719,503.9375 Q904.2813,504.4688 904.0781,505.25 Q903.8906,506.0156 903.8906,506.9688 Q903.8906,507.9375 904.0625,508.7031 Q904.25,509.4531 904.6094,509.9688 Q904.9844,510.4844 905.5625,510.7656 Q906.1406,511.0313 906.9375,511.0313 Q907.6719,511.0313 908.4063,510.8594 Q909.1563,510.6875 910.0313,510.3906 L910.0313,512.5469 Q909.625,512.7031 909.2344,512.8281 Q908.8438,512.9375 908.4375,513.0156 Q908.0313,513.0938 907.6094,513.125 Q907.1875,513.1719 906.6875,513.1719 Q905.2813,513.1719 904.25,512.7188 Q903.2344,512.2656 902.5625,511.4531 Q901.8906,510.6406 901.5625,509.5 Q901.2344,508.3438 901.2344,506.9531 Q901.2344,505.5781 901.6094,504.4219 Q901.9844,503.2656 902.7031,502.4375 Q903.4219,501.6094 904.4844,501.1563 Q905.5469,500.6875 906.9375,500.6875 Q907.8438,500.6875 908.75,500.9219 Q909.6563,501.1406 910.4844,501.5469 L909.6563,503.6406 Q908.9688,503.3125 908.2813,503.0781 Q907.5938,502.8281 906.9375,502.8281 Z " fill="#000000"/><text fill="#000000" font-family="sans-serif" font-size="14" lengthAdjust="spacing" textLength="55" x="921" y="511.8467">Accessor</text></g><!--class Module--><g id="elem_Module"><rect codeLine="74" fill="#CCFFFF" height="32" id="Module" rx="2.5" ry="2.5" style="stroke:#A9A9A9;stroke-width:0.5;" width="80" x="1859.5" y="491"/><ellipse cx="1874.5" cy="507" fill="#FFFFFF" rx="11" ry="11" style="stroke:#181818;stroke-width:1.0;"/><path d="M1874.4375,502.8281 Q1873.6875,502.8281 1873.125,503.125 Q1872.5625,503.4063 1872.1719,503.9375 Q1871.7813,504.4688 1871.5781,505.25 Q1871.3906,506.0156 1871.3906,506.9688 Q1871.3906,507.9375 1871.5625,508.7031 Q1871.75,509.4531 1872.1094,509.9688 Q1872.4844,510.4844 1873.0625,510.7656 Q1873.6406,511.0313 1874.4375,511.0313 Q1875.1719,511.0313 1875.9063,510.8594 Q1876.6563,510.6875 1877.5313,510.3906 L1877.5313,512.5469 Q1877.125,512.7031 1876.7344,512.8281 Q1876.3438,512.9375 1875.9375,513.0156 Q1875.5313,513.0938 1875.1094,513.125 Q1874.6875,513.1719 1874.1875,513.1719 Q1872.7813,513.1719 1871.75,512.7188 Q1870.7344,512.2656 1870.0625,511.4531 Q1869.3906,510.6406 1869.0625,509.5 Q1868.7344,508.3438 1868.7344,506.9531 Q1868.7344,505.5781 1869.1094,504.4219 Q1869.4844,503.2656 1870.2031,502.4375 Q1870.9219,501.6094 1871.9844,501.1563 Q1873.0469,500.6875 1874.4375,500.6875 Q1875.3438,500.6875 1876.25,500.9219 Q1877.1563,501.1406 1877.9844,501.5469 L1877.1563,503.6406 Q1876.4688,503.3125 1875.7813,503.0781 Q1875.0938,502.8281 1874.4375,502.8281 Z " fill="#000000"/><text fill="#000000" font-family="sans-serif" font-size="14" lengthAdjust="spacing" textLength="48" x="1888.5" y="511.8467">Module</text></g><!--class TWithInterfaces--><g id="elem_TWithInterfaces"><rect codeLine="76" fill="#CCFFFF" height="32" id="TWithInterfaces" rx="2.5" ry="2.5" style="stroke:#A9A9A9;stroke-width:0.5;" width="132" x="1671.5" y="191"/><ellipse cx="1686.5" cy="207" fill="#FFFFFF" rx="11" ry="11" style="stroke:#181818;stroke-width:1.0;"/><path d="M1687.9531,213.75 L1685.3906,213.75 L1685.3906,203.75 L1682.3438,203.75 L1682.3438,201.6094 L1690.9844,201.6094 L1690.9844,203.75 L1687.9531,203.75 L1687.9531,213.75 Z " fill="#000000"/><text fill="#000000" font-family="sans-serif" font-size="14" lengthAdjust="spacing" textLength="100" x="1700.5" y="211.8467">TWithInterfaces</text></g><!--class SourceTextAnchor--><g id="elem_SourceTextAnchor"><rect codeLine="78" fill="#CCFFFF" height="32" id="SourceTextAnchor" rx="2.5" ry="2.5" style="stroke:#A9A9A9;stroke-width:0.5;" width="147" x="1489" y="191"/><ellipse cx="1504" cy="207" fill="#FFFFFF" rx="11" ry="11" style="stroke:#181818;stroke-width:1.0;"/><path d="M1503.9375,202.8281 Q1503.1875,202.8281 1502.625,203.125 Q1502.0625,203.4063 1501.6719,203.9375 Q1501.2813,204.4688 1501.0781,205.25 Q1500.8906,206.0156 1500.8906,206.9688 Q1500.8906,207.9375 1501.0625,208.7031 Q1501.25,209.4531 1501.6094,209.9688 Q1501.9844,210.4844 1502.5625,210.7656 Q1503.1406,211.0313 1503.9375,211.0313 Q1504.6719,211.0313 1505.4063,210.8594 Q1506.1563,210.6875 1507.0313,210.3906 L1507.0313,212.5469 Q1506.625,212.7031 1506.2344,212.8281 Q1505.8438,212.9375 1505.4375,213.0156 Q1505.0313,213.0938 1504.6094,213.125 Q1504.1875,213.1719 1503.6875,213.1719 Q1502.2813,213.1719 1501.25,212.7188 Q1500.2344,212.2656 1499.5625,211.4531 Q1498.8906,210.6406 1498.5625,209.5 Q1498.2344,208.3438 1498.2344,206.9531 Q1498.2344,205.5781 1498.6094,204.4219 Q1498.9844,203.2656 1499.7031,202.4375 Q1500.4219,201.6094 1501.4844,201.1563 Q1502.5469,200.6875 1503.9375,200.6875 Q1504.8438,200.6875 1505.75,200.9219 Q1506.6563,201.1406 1507.4844,201.5469 L1506.6563,203.6406 Q1505.9688,203.3125 1505.2813,203.0781 Q1504.5938,202.8281 1503.9375,202.8281 Z " fill="#000000"/><text fill="#000000" font-family="sans-serif" font-size="14" lengthAdjust="spacing" textLength="115" x="1518" y="211.8467">SourceTextAnchor</text></g><!--class ParametricMethod--><g id="elem_ParametricMethod"><rect codeLine="80" fill="#CCFFFF" height="32" id="ParametricMethod" rx="2.5" ry="2.5" style="stroke:#A9A9A9;stroke-width:0.5;" width="151" x="706" y="491"/><ellipse cx="721" cy="507" fill="#FFFFFF" rx="11" ry="11" style="stroke:#181818;stroke-width:1.0;"/><path d="M720.9375,502.8281 Q720.1875,502.8281 719.625,503.125 Q719.0625,503.4063 718.6719,503.9375 Q718.2813,504.4688 718.0781,505.25 Q717.8906,506.0156 717.8906,506.9688 Q717.8906,507.9375 718.0625,508.7031 Q718.25,509.4531 718.6094,509.9688 Q718.9844,510.4844 719.5625,510.7656 Q720.1406,511.0313 720.9375,511.0313 Q721.6719,511.0313 722.4063,510.8594 Q723.1563,510.6875 724.0313,510.3906 L724.0313,512.5469 Q723.625,512.7031 723.2344,512.8281 Q722.8438,512.9375 722.4375,513.0156 Q722.0313,513.0938 721.6094,513.125 Q721.1875,513.1719 720.6875,513.1719 Q719.2813,513.1719 718.25,512.7188 Q717.2344,512.2656 716.5625,511.4531 Q715.8906,510.6406 715.5625,509.5 Q715.2344,508.3438 715.2344,506.9531 Q715.2344,505.5781 715.6094,504.4219 Q715.9844,503.2656 716.7031,502.4375 Q717.4219,501.6094 718.4844,501.1563 Q719.5469,500.6875 720.9375,500.6875 Q721.8438,500.6875 722.75,500.9219 Q723.6563,501.1406 724.4844,501.5469 L723.6563,503.6406 Q722.9688,503.3125 722.2813,503.0781 Q721.5938,502.8281 720.9375,502.8281 Z " fill="#000000"/><text fill="#000000" font-family="sans-serif" font-size="14" lengthAdjust="spacing" textLength="119" x="735" y="511.8467">ParametricMethod</text></g><!--class JSDoc--><g id="elem_JSDoc"><rect codeLine="82" fill="#CCFFFF" height="32" id="JSDoc" rx="2.5" ry="2.5" style="stroke:#A9A9A9;stroke-width:0.5;" width="67" x="720" y="191"/><ellipse cx="735" cy="207" fill="#FFFFFF" rx="11" ry="11" style="stroke:#181818;stroke-width:1.0;"/><path d="M734.9375,202.8281 Q734.1875,202.8281 733.625,203.125 Q733.0625,203.4063 732.6719,203.9375 Q732.2813,204.4688 732.0781,205.25 Q731.8906,206.0156 731.8906,206.9688 Q731.8906,207.9375 732.0625,208.7031 Q732.25,209.4531 732.6094,209.9688 Q732.9844,210.4844 733.5625,210.7656 Q734.1406,211.0313 734.9375,211.0313 Q735.6719,211.0313 736.4063,210.8594 Q737.1563,210.6875 738.0313,210.3906 L738.0313,212.5469 Q737.625,212.7031 737.2344,212.8281 Q736.8438,212.9375 736.4375,213.0156 Q736.0313,213.0938 735.6094,213.125 Q735.1875,213.1719 734.6875,213.1719 Q733.2813,213.1719 732.25,212.7188 Q731.2344,212.2656 730.5625,211.4531 Q729.8906,210.6406 729.5625,209.5 Q729.2344,208.3438 729.2344,206.9531 Q729.2344,205.5781 729.6094,204.4219 Q729.9844,203.2656 730.7031,202.4375 Q731.4219,201.6094 732.4844,201.1563 Q733.5469,200.6875 734.9375,200.6875 Q735.8438,200.6875 736.75,200.9219 Q737.6563,201.1406 738.4844,201.5469 L737.6563,203.6406 Q736.9688,203.3125 736.2813,203.0781 Q735.5938,202.8281 734.9375,202.8281 Z " fill="#000000"/><text fill="#000000" font-family="sans-serif" font-size="14" lengthAdjust="spacing" textLength="35" x="749" y="211.8467">JSDoc</text></g><!--class SourceAnchor--><g id="elem_SourceAnchor"><rect codeLine="84" fill="#CCFFFF" height="32" id="SourceAnchor" rx="2.5" ry="2.5" style="stroke:#A9A9A9;stroke-width:0.5;" width="120" x="1502.5" y="99"/><ellipse cx="1517.5" cy="115" fill="#FFFFFF" rx="11" ry="11" style="stroke:#181818;stroke-width:1.0;"/><path d="M1517.4375,110.8281 Q1516.6875,110.8281 1516.125,111.125 Q1515.5625,111.4063 1515.1719,111.9375 Q1514.7813,112.4688 1514.5781,113.25 Q1514.3906,114.0156 1514.3906,114.9688 Q1514.3906,115.9375 1514.5625,116.7031 Q1514.75,117.4531 1515.1094,117.9688 Q1515.4844,118.4844 1516.0625,118.7656 Q1516.6406,119.0313 1517.4375,119.0313 Q1518.1719,119.0313 1518.9063,118.8594 Q1519.6563,118.6875 1520.5313,118.3906 L1520.5313,120.5469 Q1520.125,120.7031 1519.7344,120.8281 Q1519.3438,120.9375 1518.9375,121.0156 Q1518.5313,121.0938 1518.1094,121.125 Q1517.6875,121.1719 1517.1875,121.1719 Q1515.7813,121.1719 1514.75,120.7188 Q1513.7344,120.2656 1513.0625,119.4531 Q1512.3906,118.6406 1512.0625,117.5 Q1511.7344,116.3438 1511.7344,114.9531 Q1511.7344,113.5781 1512.1094,112.4219 Q1512.4844,111.2656 1513.2031,110.4375 Q1513.9219,109.6094 1514.9844,109.1563 Q1516.0469,108.6875 1517.4375,108.6875 Q1518.3438,108.6875 1519.25,108.9219 Q1520.1563,109.1406 1520.9844,109.5469 L1520.1563,111.6406 Q1519.4688,111.3125 1518.7813,111.0781 Q1518.0938,110.8281 1517.4375,110.8281 Z " fill="#000000"/><text fill="#000000" font-family="sans-serif" font-size="14" lengthAdjust="spacing" textLength="88" x="1531.5" y="119.8467">SourceAnchor</text></g><!--class Alias--><g id="elem_Alias"><rect codeLine="86" fill="#CCFFFF" height="32" id="Alias" rx="2.5" ry="2.5" style="stroke:#A9A9A9;stroke-width:0.5;" width="62" x="466.5" y="295"/><ellipse cx="481.5" cy="311" fill="#FFFFFF" rx="11" ry="11" style="stroke:#181818;stroke-width:1.0;"/><path d="M481.4375,306.8281 Q480.6875,306.8281 480.125,307.125 Q479.5625,307.4063 479.1719,307.9375 Q478.7813,308.4688 478.5781,309.25 Q478.3906,310.0156 478.3906,310.9688 Q478.3906,311.9375 478.5625,312.7031 Q478.75,313.4531 479.1094,313.9688 Q479.4844,314.4844 480.0625,314.7656 Q480.6406,315.0313 481.4375,315.0313 Q482.1719,315.0313 482.9063,314.8594 Q483.6563,314.6875 484.5313,314.3906 L484.5313,316.5469 Q484.125,316.7031 483.7344,316.8281 Q483.3438,316.9375 482.9375,317.0156 Q482.5313,317.0938 482.1094,317.125 Q481.6875,317.1719 481.1875,317.1719 Q479.7813,317.1719 478.75,316.7188 Q477.7344,316.2656 477.0625,315.4531 Q476.3906,314.6406 476.0625,313.5 Q475.7344,312.3438 475.7344,310.9531 Q475.7344,309.5781 476.1094,308.4219 Q476.4844,307.2656 477.2031,306.4375 Q477.9219,305.6094 478.9844,305.1563 Q480.0469,304.6875 481.4375,304.6875 Q482.3438,304.6875 483.25,304.9219 Q484.1563,305.1406 484.9844,305.5469 L484.1563,307.6406 Q483.4688,307.3125 482.7813,307.0781 Q482.0938,306.8281 481.4375,306.8281 Z " fill="#000000"/><text fill="#000000" font-family="sans-serif" font-size="14" lengthAdjust="spacing" textLength="30" x="495.5" y="315.8467">Alias</text></g><!--class Concretization--><g id="elem_Concretization"><rect codeLine="88" fill="#CCFFFF" height="32" id="Concretization" rx="2.5" ry="2.5" style="stroke:#A9A9A9;stroke-width:0.5;" width="123" x="1658" y="99"/><ellipse cx="1673" cy="115" fill="#FFFFFF" rx="11" ry="11" style="stroke:#181818;stroke-width:1.0;"/><path d="M1672.9375,110.8281 Q1672.1875,110.8281 1671.625,111.125 Q1671.0625,111.4063 1670.6719,111.9375 Q1670.2813,112.4688 1670.0781,113.25 Q1669.8906,114.0156 1669.8906,114.9688 Q1669.8906,115.9375 1670.0625,116.7031 Q1670.25,117.4531 1670.6094,117.9688 Q1670.9844,118.4844 1671.5625,118.7656 Q1672.1406,119.0313 1672.9375,119.0313 Q1673.6719,119.0313 1674.4063,118.8594 Q1675.1563,118.6875 1676.0313,118.3906 L1676.0313,120.5469 Q1675.625,120.7031 1675.2344,120.8281 Q1674.8438,120.9375 1674.4375,121.0156 Q1674.0313,121.0938 1673.6094,121.125 Q1673.1875,121.1719 1672.6875,121.1719 Q1671.2813,121.1719 1670.25,120.7188 Q1669.2344,120.2656 1668.5625,119.4531 Q1667.8906,118.6406 1667.5625,117.5 Q1667.2344,116.3438 1667.2344,114.9531 Q1667.2344,113.5781 1667.6094,112.4219 Q1667.9844,111.2656 1668.7031,110.4375 Q1669.4219,109.6094 1670.4844,109.1563 Q1671.5469,108.6875 1672.9375,108.6875 Q1673.8438,108.6875 1674.75,108.9219 Q1675.6563,109.1406 1676.4844,109.5469 L1675.6563,111.6406 Q1674.9688,111.3125 1674.2813,111.0781 Q1673.5938,110.8281 1672.9375,110.8281 Z " fill="#000000"/><text fill="#000000" font-family="sans-serif" font-size="14" lengthAdjust="spacing" textLength="91" x="1687" y="119.8467">Concretization</text></g><!--class Interface--><g id="elem_Interface"><rect codeLine="90" fill="#CCFFFF" height="32" id="Interface" rx="2.5" ry="2.5" style="stroke:#A9A9A9;stroke-width:0.5;" width="90" x="1734.5" y="491"/><ellipse cx="1749.5" cy="507" fill="#FFFFFF" rx="11" ry="11" style="stroke:#181818;stroke-width:1.0;"/><path d="M1749.4375,502.8281 Q1748.6875,502.8281 1748.125,503.125 Q1747.5625,503.4063 1747.1719,503.9375 Q1746.7813,504.4688 1746.5781,505.25 Q1746.3906,506.0156 1746.3906,506.9688 Q1746.3906,507.9375 1746.5625,508.7031 Q1746.75,509.4531 1747.1094,509.9688 Q1747.4844,510.4844 1748.0625,510.7656 Q1748.6406,511.0313 1749.4375,511.0313 Q1750.1719,511.0313 1750.9063,510.8594 Q1751.6563,510.6875 1752.5313,510.3906 L1752.5313,512.5469 Q1752.125,512.7031 1751.7344,512.8281 Q1751.3438,512.9375 1750.9375,513.0156 Q1750.5313,513.0938 1750.1094,513.125 Q1749.6875,513.1719 1749.1875,513.1719 Q1747.7813,513.1719 1746.75,512.7188 Q1745.7344,512.2656 1745.0625,511.4531 Q1744.3906,510.6406 1744.0625,509.5 Q1743.7344,508.3438 1743.7344,506.9531 Q1743.7344,505.5781 1744.1094,504.4219 Q1744.4844,503.2656 1745.2031,502.4375 Q1745.9219,501.6094 1746.9844,501.1563 Q1748.0469,500.6875 1749.4375,500.6875 Q1750.3438,500.6875 1751.25,500.9219 Q1752.1563,501.1406 1752.9844,501.5469 L1752.1563,503.6406 Q1751.4688,503.3125 1750.7813,503.0781 Q1750.0938,502.8281 1749.4375,502.8281 Z " fill="#000000"/><text fill="#000000" font-family="sans-serif" font-size="14" lengthAdjust="spacing" textLength="58" x="1763.5" y="511.8467">Interface</text></g><!--class Variable--><g id="elem_Variable"><rect codeLine="92" fill="#CCFFFF" height="32" id="Variable" rx="2.5" ry="2.5" style="stroke:#A9A9A9;stroke-width:0.5;" width="84" x="720.5" y="295"/><ellipse cx="735.5" cy="311" fill="#FFFFFF" rx="11" ry="11" style="stroke:#181818;stroke-width:1.0;"/><path d="M735.4375,306.8281 Q734.6875,306.8281 734.125,307.125 Q733.5625,307.4063 733.1719,307.9375 Q732.7813,308.4688 732.5781,309.25 Q732.3906,310.0156 732.3906,310.9688 Q732.3906,311.9375 732.5625,312.7031 Q732.75,313.4531 733.1094,313.9688 Q733.4844,314.4844 734.0625,314.7656 Q734.6406,315.0313 735.4375,315.0313 Q736.1719,315.0313 736.9063,314.8594 Q737.6563,314.6875 738.5313,314.3906 L738.5313,316.5469 Q738.125,316.7031 737.7344,316.8281 Q737.3438,316.9375 736.9375,317.0156 Q736.5313,317.0938 736.1094,317.125 Q735.6875,317.1719 735.1875,317.1719 Q733.7813,317.1719 732.75,316.7188 Q731.7344,316.2656 731.0625,315.4531 Q730.3906,314.6406 730.0625,313.5 Q729.7344,312.3438 729.7344,310.9531 Q729.7344,309.5781 730.1094,308.4219 Q730.4844,307.2656 731.2031,306.4375 Q731.9219,305.6094 732.9844,305.1563 Q734.0469,304.6875 735.4375,304.6875 Q736.3438,304.6875 737.25,304.9219 Q738.1563,305.1406 738.9844,305.5469 L738.1563,307.6406 Q737.4688,307.3125 736.7813,307.0781 Q736.0938,306.8281 735.4375,306.8281 Z " fill="#000000"/><text fill="#000000" font-family="sans-serif" font-size="14" lengthAdjust="spacing" textLength="52" x="749.5" y="315.8467">Variable</text></g><!--class Type--><g id="elem_Type"><rect codeLine="94" fill="#CCFFFF" height="32" id="Type" rx="2.5" ry="2.5" style="stroke:#A9A9A9;stroke-width:0.5;" width="62" x="1446.5" y="399"/><ellipse cx="1461.5" cy="415" fill="#FFFFFF" rx="11" ry="11" style="stroke:#181818;stroke-width:1.0;"/><path d="M1461.4375,410.8281 Q1460.6875,410.8281 1460.125,411.125 Q1459.5625,411.4063 1459.1719,411.9375 Q1458.7813,412.4688 1458.5781,413.25 Q1458.3906,414.0156 1458.3906,414.9688 Q1458.3906,415.9375 1458.5625,416.7031 Q1458.75,417.4531 1459.1094,417.9688 Q1459.4844,418.4844 1460.0625,418.7656 Q1460.6406,419.0313 1461.4375,419.0313 Q1462.1719,419.0313 1462.9063,418.8594 Q1463.6563,418.6875 1464.5313,418.3906 L1464.5313,420.5469 Q1464.125,420.7031 1463.7344,420.8281 Q1463.3438,420.9375 1462.9375,421.0156 Q1462.5313,421.0938 1462.1094,421.125 Q1461.6875,421.1719 1461.1875,421.1719 Q1459.7813,421.1719 1458.75,420.7188 Q1457.7344,420.2656 1457.0625,419.4531 Q1456.3906,418.6406 1456.0625,417.5 Q1455.7344,416.3438 1455.7344,414.9531 Q1455.7344,413.5781 1456.1094,412.4219 Q1456.4844,411.2656 1457.2031,410.4375 Q1457.9219,409.6094 1458.9844,409.1563 Q1460.0469,408.6875 1461.4375,408.6875 Q1462.3438,408.6875 1463.25,408.9219 Q1464.1563,409.1406 1464.9844,409.5469 L1464.1563,411.6406 Q1463.4688,411.3125 1462.7813,411.0781 Q1462.0938,410.8281 1461.4375,410.8281 Z " fill="#000000"/><text fill="#000000" font-family="sans-serif" font-size="14" lengthAdjust="spacing" textLength="30" x="1475.5" y="419.8467">Type</text></g><!--class ScriptEntity--><g id="elem_ScriptEntity"><rect codeLine="96" fill="#CCFFFF" height="32" id="ScriptEntity" rx="2.5" ry="2.5" style="stroke:#A9A9A9;stroke-width:0.5;" width="104" x="1660.5" y="399"/><ellipse cx="1675.5" cy="415" fill="#FFFFFF" rx="11" ry="11" style="stroke:#181818;stroke-width:1.0;"/><path d="M1675.4375,410.8281 Q1674.6875,410.8281 1674.125,411.125 Q1673.5625,411.4063 1673.1719,411.9375 Q1672.7813,412.4688 1672.5781,413.25 Q1672.3906,414.0156 1672.3906,414.9688 Q1672.3906,415.9375 1672.5625,416.7031 Q1672.75,417.4531 1673.1094,417.9688 Q1673.4844,418.4844 1674.0625,418.7656 Q1674.6406,419.0313 1675.4375,419.0313 Q1676.1719,419.0313 1676.9063,418.8594 Q1677.6563,418.6875 1678.5313,418.3906 L1678.5313,420.5469 Q1678.125,420.7031 1677.7344,420.8281 Q1677.3438,420.9375 1676.9375,421.0156 Q1676.5313,421.0938 1676.1094,421.125 Q1675.6875,421.1719 1675.1875,421.1719 Q1673.7813,421.1719 1672.75,420.7188 Q1671.7344,420.2656 1671.0625,419.4531 Q1670.3906,418.6406 1670.0625,417.5 Q1669.7344,416.3438 1669.7344,414.9531 Q1669.7344,413.5781 1670.1094,412.4219 Q1670.4844,411.2656 1671.2031,410.4375 Q1671.9219,409.6094 1672.9844,409.1563 Q1674.0469,408.6875 1675.4375,408.6875 Q1676.3438,408.6875 1677.25,408.9219 Q1678.1563,409.1406 1678.9844,409.5469 L1678.1563,411.6406 Q1677.4688,411.3125 1676.7813,411.0781 Q1676.0938,410.8281 1675.4375,410.8281 Z " fill="#000000"/><text fill="#000000" font-family="sans-serif" font-size="14" lengthAdjust="spacing" textLength="72" x="1689.5" y="419.8467">ScriptEntity</text></g><!--class VariableStatement--><g id="elem_VariableStatement"><rect codeLine="98" fill="#CCFFFF" height="32" id="VariableStatement" rx="2.5" ry="2.5" style="stroke:#A9A9A9;stroke-width:0.5;" width="150" x="1124.5" y="491"/><ellipse cx="1139.5" cy="507" fill="#FFFFFF" rx="11" ry="11" style="stroke:#181818;stroke-width:1.0;"/><path d="M1139.4375,502.8281 Q1138.6875,502.8281 1138.125,503.125 Q1137.5625,503.4063 1137.1719,503.9375 Q1136.7813,504.4688 1136.5781,505.25 Q1136.3906,506.0156 1136.3906,506.9688 Q1136.3906,507.9375 1136.5625,508.7031 Q1136.75,509.4531 1137.1094,509.9688 Q1137.4844,510.4844 1138.0625,510.7656 Q1138.6406,511.0313 1139.4375,511.0313 Q1140.1719,511.0313 1140.9063,510.8594 Q1141.6563,510.6875 1142.5313,510.3906 L1142.5313,512.5469 Q1142.125,512.7031 1141.7344,512.8281 Q1141.3438,512.9375 1140.9375,513.0156 Q1140.5313,513.0938 1140.1094,513.125 Q1139.6875,513.1719 1139.1875,513.1719 Q1137.7813,513.1719 1136.75,512.7188 Q1135.7344,512.2656 1135.0625,511.4531 Q1134.3906,510.6406 1134.0625,509.5 Q1133.7344,508.3438 1133.7344,506.9531 Q1133.7344,505.5781 1134.1094,504.4219 Q1134.4844,503.2656 1135.2031,502.4375 Q1135.9219,501.6094 1136.9844,501.1563 Q1138.0469,500.6875 1139.4375,500.6875 Q1140.3438,500.6875 1141.25,500.9219 Q1142.1563,501.1406 1142.9844,501.5469 L1142.1563,503.6406 Q1141.4688,503.3125 1140.7813,503.0781 Q1140.0938,502.8281 1139.4375,502.8281 Z " fill="#000000"/><text fill="#000000" font-family="sans-serif" font-size="14" lengthAdjust="spacing" textLength="118" x="1153.5" y="511.8467">VariableStatement</text></g><!--class Parameter--><g id="elem_Parameter"><rect codeLine="100" fill="#CCFFFF" height="32" id="Parameter" rx="2.5" ry="2.5" style="stroke:#A9A9A9;stroke-width:0.5;" width="100" x="839.5" y="295"/><ellipse cx="854.5" cy="311" fill="#FFFFFF" rx="11" ry="11" style="stroke:#181818;stroke-width:1.0;"/><path d="M854.4375,306.8281 Q853.6875,306.8281 853.125,307.125 Q852.5625,307.4063 852.1719,307.9375 Q851.7813,308.4688 851.5781,309.25 Q851.3906,310.0156 851.3906,310.9688 Q851.3906,311.9375 851.5625,312.7031 Q851.75,313.4531 852.1094,313.9688 Q852.4844,314.4844 853.0625,314.7656 Q853.6406,315.0313 854.4375,315.0313 Q855.1719,315.0313 855.9063,314.8594 Q856.6563,314.6875 857.5313,314.3906 L857.5313,316.5469 Q857.125,316.7031 856.7344,316.8281 Q856.3438,316.9375 855.9375,317.0156 Q855.5313,317.0938 855.1094,317.125 Q854.6875,317.1719 854.1875,317.1719 Q852.7813,317.1719 851.75,316.7188 Q850.7344,316.2656 850.0625,315.4531 Q849.3906,314.6406 849.0625,313.5 Q848.7344,312.3438 848.7344,310.9531 Q848.7344,309.5781 849.1094,308.4219 Q849.4844,307.2656 850.2031,306.4375 Q850.9219,305.6094 851.9844,305.1563 Q853.0469,304.6875 854.4375,304.6875 Q855.3438,304.6875 856.25,304.9219 Q857.1563,305.1406 857.9844,305.5469 L857.1563,307.6406 Q856.4688,307.3125 855.7813,307.0781 Q855.0938,306.8281 854.4375,306.8281 Z " fill="#000000"/><text fill="#000000" font-family="sans-serif" font-size="14" lengthAdjust="spacing" textLength="68" x="868.5" y="315.8467">Parameter</text></g><!--class Invocation--><g id="elem_Invocation"><rect codeLine="102" fill="#CCFFFF" height="32" id="Invocation" rx="2.5" ry="2.5" style="stroke:#A9A9A9;stroke-width:0.5;" width="98" x="1816.5" y="99"/><ellipse cx="1831.5" cy="115" fill="#FFFFFF" rx="11" ry="11" style="stroke:#181818;stroke-width:1.0;"/><path d="M1831.4375,110.8281 Q1830.6875,110.8281 1830.125,111.125 Q1829.5625,111.4063 1829.1719,111.9375 Q1828.7813,112.4688 1828.5781,113.25 Q1828.3906,114.0156 1828.3906,114.9688 Q1828.3906,115.9375 1828.5625,116.7031 Q1828.75,117.4531 1829.1094,117.9688 Q1829.4844,118.4844 1830.0625,118.7656 Q1830.6406,119.0313 1831.4375,119.0313 Q1832.1719,119.0313 1832.9063,118.8594 Q1833.6563,118.6875 1834.5313,118.3906 L1834.5313,120.5469 Q1834.125,120.7031 1833.7344,120.8281 Q1833.3438,120.9375 1832.9375,121.0156 Q1832.5313,121.0938 1832.1094,121.125 Q1831.6875,121.1719 1831.1875,121.1719 Q1829.7813,121.1719 1828.75,120.7188 Q1827.7344,120.2656 1827.0625,119.4531 Q1826.3906,118.6406 1826.0625,117.5 Q1825.7344,116.3438 1825.7344,114.9531 Q1825.7344,113.5781 1826.1094,112.4219 Q1826.4844,111.2656 1827.2031,110.4375 Q1827.9219,109.6094 1828.9844,109.1563 Q1830.0469,108.6875 1831.4375,108.6875 Q1832.3438,108.6875 1833.25,108.9219 Q1834.1563,109.1406 1834.9844,109.5469 L1834.1563,111.6406 Q1833.4688,111.3125 1832.7813,111.0781 Q1832.0938,110.8281 1831.4375,110.8281 Z " fill="#000000"/><text fill="#000000" font-family="sans-serif" font-size="14" lengthAdjust="spacing" textLength="66" x="1845.5" y="119.8467">Invocation</text></g><!--reverse link ContainerEntity to Function--><g id="link_ContainerEntity_Function"><path codeLine="104" d="M1747.5,339.46 C1771.83,358.55 1803.33,383.27 1823.24,398.89 " fill="none" id="ContainerEntity-backto-Function" style="stroke:#000000;stroke-width:1.0;"/><polygon fill="none" points="1743.1,344.9,1731.68,327.05,1751.74,333.89,1743.1,344.9" style="stroke:#000000;stroke-width:1.0;"/></g><!--reverse link NamedEntity to File--><g id="link_NamedEntity_File"><path codeLine="105" d="M420.34,213.44 C334.74,221.38 193.65,240.17 79.5,283 C71.48,286.01 63.28,290.45 56.12,294.86 " fill="none" id="NamedEntity-backto-File" style="stroke:#000000;stroke-width:1.0;"/><polygon fill="none" points="419.8,206.46,440.34,211.69,421.02,220.41,419.8,206.46" style="stroke:#000000;stroke-width:1.0;"/></g><!--reverse link NamedEntity to ContainerEntity--><g id="link_NamedEntity_ContainerEntity"><path codeLine="106" d="M574.65,222.91 C994.39,279.65 1475.22,301.38 1647.3,307.79 " fill="none" id="NamedEntity-backto-ContainerEntity" style="stroke:#000000;stroke-width:1.0;"/><polygon fill="none" points="573.57,229.83,554.71,220.18,575.47,215.96,573.57,229.83" style="stroke:#000000;stroke-width:1.0;"/></g><!--reverse link Type to Enum--><g id="link_Type_Enum"><path codeLine="107" d="M1438.41,442.25 C1414.87,458.06 1385.74,477.63 1366,490.89 " fill="none" id="Type-backto-Enum" style="stroke:#000000;stroke-width:1.0;"/><polygon fill="none" points="1434.57,436.4,1455.07,431.06,1442.37,448.03,1434.57,436.4" style="stroke:#000000;stroke-width:1.0;"/></g><!--reverse link Function to ParametricFunction--><g id="link_Function_ParametricFunction"><path codeLine="108" d="M1896.04,438.94 C1934.08,455.25 1984.11,476.69 2017.24,490.89 " fill="none" id="Function-backto-ParametricFunction" style="stroke:#000000;stroke-width:1.0;"/><polygon fill="none" points="1893.27,445.38,1877.65,431.06,1898.79,432.51,1893.27,445.38" style="stroke:#000000;stroke-width:1.0;"/></g><!--reverse link Type to Class--><g id="link_Type_Class"><path codeLine="109" d="M1426.75,424.64 C1354.97,437.22 1219.89,462.26 1106.5,491 C1100.81,492.44 1094.79,494.14 1089,495.86 " fill="none" id="Type-backto-Class" style="stroke:#000000;stroke-width:1.0;"/><polygon fill="none" points="1425.59,417.74,1446.49,421.21,1427.98,431.53,1425.59,417.74" style="stroke:#000000;stroke-width:1.0;"/></g><!--reverse link Entity to Access--><g id="link_Entity_Access"><path codeLine="110" d="M965.07,27.53 C854.1,35.36 594.08,56.89 379.5,99 C373.87,100.11 367.96,101.5 362.21,102.99 " fill="none" id="Entity-backto-Access" style="stroke:#000000;stroke-width:1.0;"/><polygon fill="none" points="964.78,20.54,985.22,26.15,965.74,34.5,964.78,20.54" style="stroke:#000000;stroke-width:1.0;"/></g><!--reverse link Variable to implicitVariable--><g id="link_Variable_implicitVariable"><path codeLine="111" d="M762.5,347.19 C762.5,364.84 762.5,385.31 762.5,398.89 " fill="none" id="Variable-backto-implicitVariable" style="stroke:#000000;stroke-width:1.0;"/><polygon fill="none" points="755.5,347.05,762.5,327.05,769.5,347.05,755.5,347.05" style="stroke:#000000;stroke-width:1.0;"/></g><!--reverse link Entity to Reference--><g id="link_Entity_Reference"><path codeLine="112" d="M965.39,30.6 C872.29,42.26 675.95,68.22 511.5,99 C505.84,100.06 499.93,101.26 494.07,102.52 " fill="none" id="Entity-backto-Reference" style="stroke:#000000;stroke-width:1.0;"/><polygon fill="none" points="964.75,23.62,985.46,28.11,966.48,37.52,964.75,23.62" style="stroke:#000000;stroke-width:1.0;"/></g><!--reverse link Type to ParameterType--><g id="link_Type_ParameterType"><path codeLine="113" d="M1477.5,451.61 C1477.5,465.31 1477.5,480.22 1477.5,490.96 " fill="none" id="Type-backto-ParameterType" style="stroke:#000000;stroke-width:1.0;"/><polygon fill="none" points="1470.5,451.27,1477.5,431.27,1484.5,451.27,1470.5,451.27" style="stroke:#000000;stroke-width:1.0;"/></g><!--reverse link SourceAnchor to IndexedFileAnchor--><g id="link_SourceAnchor_IndexedFileAnchor"><path codeLine="114" d="M1513.25,139.96 C1480.01,156.13 1437.15,176.98 1408.57,190.89 " fill="none" id="SourceAnchor-backto-IndexedFileAnchor" style="stroke:#000000;stroke-width:1.0;"/><polygon fill="none" points="1510.49,133.52,1531.54,131.06,1516.61,146.11,1510.49,133.52" style="stroke:#000000;stroke-width:1.0;"/></g><!--reverse link Entity to Import--><g id="link_Entity_Import"><path codeLine="115" d="M965.96,40.17 C906.82,58.03 813,86.36 760.45,102.24 " fill="none" id="Entity-backto-Import" style="stroke:#000000;stroke-width:1.0;"/><polygon fill="none" points="964.15,33.41,985.32,34.32,968.19,46.81,964.15,33.41" style="stroke:#000000;stroke-width:1.0;"/></g><!--reverse link Entity to Implementation--><g id="link_Entity_Implementation"><path codeLine="116" d="M976,49.1 C948.26,65.1 913.23,85.31 889.7,98.89 " fill="none" id="Entity-backto-Implementation" style="stroke:#000000;stroke-width:1.0;"/><polygon fill="none" points="972.57,43,993.39,39.06,979.56,55.12,972.57,43" style="stroke:#000000;stroke-width:1.0;"/></g><!--reverse link Interface to ParametricInterface--><g id="link_Interface_ParametricInterface"><path codeLine="117" d="M1779.5,543.61 C1779.5,557.31 1779.5,572.22 1779.5,582.96 " fill="none" id="Interface-backto-ParametricInterface" style="stroke:#000000;stroke-width:1.0;"/><polygon fill="none" points="1772.5,543.27,1779.5,523.27,1786.5,543.27,1772.5,543.27" style="stroke:#000000;stroke-width:1.0;"/></g><!--reverse link Entity to SourcedEntity--><g id="link_Entity_SourcedEntity"><path codeLine="118" d="M965.69,35.24 C884.86,52.11 732.62,83.91 648.37,101.5 " fill="none" id="Entity-backto-SourcedEntity" style="stroke:#000000;stroke-width:1.0;"/><polygon fill="none" points="964.31,28.37,985.32,31.14,967.17,42.08,964.31,28.37" style="stroke:#000000;stroke-width:1.0;"/></g><!--reverse link NamedEntity to EnumValue--><g id="link_NamedEntity_EnumValue"><path codeLine="119" d="M420.94,226.06 C364.28,240.02 285.46,260.68 217.5,283 C206.75,286.53 195.23,290.83 184.75,294.94 " fill="none" id="NamedEntity-backto-EnumValue" style="stroke:#000000;stroke-width:1.0;"/><polygon fill="none" points="419.29,219.26,440.38,221.32,422.6,232.86,419.29,219.26" style="stroke:#000000;stroke-width:1.0;"/></g><!--reverse link ContainerEntity to Namespace--><g id="link_ContainerEntity_Namespace"><path codeLine="120" d="M1769.72,334.36 C1819.8,353.93 1891.2,381.84 1934.83,398.89 " fill="none" id="ContainerEntity-backto-Namespace" style="stroke:#000000;stroke-width:1.0;"/><polygon fill="none" points="1767.09,340.85,1751.01,327.05,1772.19,327.81,1767.09,340.85" style="stroke:#000000;stroke-width:1.0;"/></g><!--reverse link Entity to Inheritance--><g id="link_Entity_Inheritance"><path codeLine="121" d="M1019.5,59.61 C1019.5,73.31 1019.5,88.22 1019.5,98.96 " fill="none" id="Entity-backto-Inheritance" style="stroke:#000000;stroke-width:1.0;"/><polygon fill="none" points="1012.5,59.27,1019.5,39.27,1026.5,59.27,1012.5,59.27" style="stroke:#000000;stroke-width:1.0;"/></g><!--reverse link Entity to ParameterConcretization--><g id="link_Entity_ParameterConcretization"><path codeLine="122" d="M1068.21,47.96 C1101.1,64.13 1143.5,84.98 1171.77,98.89 " fill="none" id="Entity-backto-ParameterConcretization" style="stroke:#000000;stroke-width:1.0;"/><polygon fill="none" points="1064.99,54.17,1050.13,39.06,1071.17,41.61,1064.99,54.17" style="stroke:#000000;stroke-width:1.0;"/></g><!--reverse link NamedEntity to Folder--><g id="link_NamedEntity_Folder"><path codeLine="123" d="M442.68,231.03 C408.74,245.51 364.35,264.83 325.5,283 C317.52,286.73 308.97,290.92 301.07,294.86 " fill="none" id="NamedEntity-backto-Folder" style="stroke:#000000;stroke-width:1.0;"/><polygon fill="none" points="440.2,224.48,461.35,223.11,445.67,237.37,440.2,224.48" style="stroke:#000000;stroke-width:1.0;"/></g><!--reverse link NamedEntity to Decorator--><g id="link_NamedEntity_Decorator"><path codeLine="124" d="M521.77,236.82 C538.22,251.31 560.03,268.76 579.47,282.99 " fill="none" id="NamedEntity-backto-Decorator" style="stroke:#000000;stroke-width:1.0;"/><polygon fill="none" points="516.81,241.77,506.88,223.05,526.32,231.49,516.81,241.77" style="stroke:#000000;stroke-width:1.0;"/></g><!--link Decorator to NamedEntity--><g id="link_Decorator_NamedEntity"><path codeLine="150" d="M602.95,282.99 C581.53,263.82 549.65,238.79 526.15,223.05 " fill="none" id="Decorator-NamedEntity" style="stroke:#000000;stroke-width:1.0;"/><text fill="#000000" font-family="sans-serif" font-size="13" lengthAdjust="spacing" textLength="71" x="518.7572" y="271.8262">decorators*</text><text fill="#000000" font-family="sans-serif" font-size="13" lengthAdjust="spacing" textLength="92" x="428.4028" y="242.9398">decoratedEntity</text></g><!--reverse link SourcedEntity to NamedEntity--><g id="link_SourcedEntity_NamedEntity"><path codeLine="125" d="M558.4,145.77 C543.09,160.91 525.14,178.67 512.71,190.96 " fill="none" id="SourcedEntity-backto-NamedEntity" style="stroke:#000000;stroke-width:1.0;"/><polygon fill="none" points="553.92,140.35,573.06,131.27,563.77,150.31,553.92,140.35" style="stroke:#000000;stroke-width:1.0;"/></g><!--reverse link Type to PrimitiveType--><g id="link_Type_PrimitiveType"><path codeLine="126" d="M1521.99,440.87 C1550.68,456.91 1587.06,477.24 1611.46,490.89 " fill="none" id="Type-backto-PrimitiveType" style="stroke:#000000;stroke-width:1.0;"/><polygon fill="none" points="1518.49,446.93,1504.45,431.06,1525.32,434.71,1518.49,446.93" style="stroke:#000000;stroke-width:1.0;"/></g><!--reverse link NamedEntity to Property--><g id="link_NamedEntity_Property"><path codeLine="127" d="M466.38,236.85 C446.02,255.74 420.23,279.65 403.8,294.89 " fill="none" id="NamedEntity-backto-Property" style="stroke:#000000;stroke-width:1.0;"/><polygon fill="none" points="461.84,231.52,481.27,223.05,471.36,241.78,461.84,231.52" style="stroke:#000000;stroke-width:1.0;"/></g><!--reverse link Entity to SourceLanguage--><g id="link_Entity_SourceLanguage"><path codeLine="128" d="M1073.42,36.74 C1142.77,53.12 1263.03,81.53 1336.8,98.95 " fill="none" id="Entity-backto-SourceLanguage" style="stroke:#000000;stroke-width:1.0;"/><polygon fill="none" points="1071.5,43.48,1053.65,32.07,1074.72,29.85,1071.5,43.48" style="stroke:#000000;stroke-width:1.0;"/></g><!--reverse link ContainerEntity to Method--><g id="link_ContainerEntity_Method"><path codeLine="129" d="M1626.8,318.55 C1490.57,329.8 1216.55,355.84 987.5,399 C981.88,400.06 976,401.36 970.22,402.74 " fill="none" id="ContainerEntity-backto-Method" style="stroke:#000000;stroke-width:1.0;"/><polygon fill="none" points="1626.56,311.55,1647.06,316.9,1627.7,325.5,1626.56,311.55" style="stroke:#000000;stroke-width:1.0;"/></g><!--reverse link Class to ParametricClass--><g id="link_Class_ParametricClass"><path codeLine="130" d="M1057.5,543.61 C1057.5,557.31 1057.5,572.22 1057.5,582.96 " fill="none" id="Class-backto-ParametricClass" style="stroke:#000000;stroke-width:1.0;"/><polygon fill="none" points="1050.5,543.27,1057.5,523.27,1064.5,543.27,1050.5,543.27" style="stroke:#000000;stroke-width:1.0;"/></g><!--reverse link SourcedEntity to Comment--><g id="link_SourcedEntity_Comment"><path codeLine="131" d="M606.55,149.15 C614.36,163.5 623.11,179.57 629.31,190.96 " fill="none" id="SourcedEntity-backto-Comment" style="stroke:#000000;stroke-width:1.0;"/><polygon fill="none" points="600.23,152.18,596.81,131.27,612.52,145.49,600.23,152.18" style="stroke:#000000;stroke-width:1.0;"/></g><!--reverse link Method to Accessor--><g id="link_Method_Accessor"><path codeLine="132" d="M931.87,451.61 C932.79,465.31 933.78,480.22 934.5,490.96 " fill="none" id="Method-backto-Accessor" style="stroke:#000000;stroke-width:1.0;"/><polygon fill="none" points="924.86,451.69,930.52,431.27,938.83,450.76,924.86,451.69" style="stroke:#000000;stroke-width:1.0;"/></g><!--reverse link ScriptEntity to Module--><g id="link_ScriptEntity_Module"><path codeLine="133" d="M1762.28,439.96 C1795.88,456.13 1839.21,476.98 1868.1,490.89 " fill="none" id="ScriptEntity-backto-Module" style="stroke:#000000;stroke-width:1.0;"/><polygon fill="none" points="1758.79,446.04,1743.8,431.06,1764.86,433.43,1758.79,446.04" style="stroke:#000000;stroke-width:1.0;"/></g><!--reverse link SourceAnchor to SourceTextAnchor--><g id="link_SourceAnchor_SourceTextAnchor"><path codeLine="134" d="M1562.5,151.61 C1562.5,165.31 1562.5,180.22 1562.5,190.96 " fill="none" id="SourceAnchor-backto-SourceTextAnchor" style="stroke:#000000;stroke-width:1.0;"/><polygon fill="none" points="1555.5,151.27,1562.5,131.27,1569.5,151.27,1555.5,151.27" style="stroke:#000000;stroke-width:1.0;"/></g><!--reverse link Method to ParametricMethod--><g id="link_Method_ParametricMethod"><path codeLine="135" d="M887.47,441.56 C861.28,457.49 828.47,477.44 806.35,490.89 " fill="none" id="Method-backto-ParametricMethod" style="stroke:#000000;stroke-width:1.0;"/><polygon fill="none" points="884,435.47,904.73,431.06,891.28,447.44,884,435.47" style="stroke:#000000;stroke-width:1.0;"/></g><!--reverse link SourcedEntity to JSDoc--><g id="link_SourcedEntity_JSDoc"><path codeLine="136" d="M634.09,140.87 C663.5,156.91 700.78,177.24 725.79,190.89 " fill="none" id="SourcedEntity-backto-JSDoc" style="stroke:#000000;stroke-width:1.0;"/><polygon fill="none" points="630.32,146.79,616.12,131.06,637.03,134.5,630.32,146.79" style="stroke:#000000;stroke-width:1.0;"/></g><!--reverse link Entity to Concretization--><g id="link_Entity_Concretization"><path codeLine="137" d="M1073.46,29.34 C1181.31,40.26 1431.01,66.88 1639.5,99 C1645.51,99.93 1651.75,100.96 1657.99,102.05 " fill="none" id="Entity-backto-Concretization" style="stroke:#000000;stroke-width:1.0;"/><polygon fill="none" points="1072.75,36.3,1053.55,27.33,1074.15,22.37,1072.75,36.3" style="stroke:#000000;stroke-width:1.0;"/></g><!--reverse link NamedEntity to Alias--><g id="link_NamedEntity_Alias"><path codeLine="138" d="M497.5,243.19 C497.5,260.84 497.5,281.31 497.5,294.89 " fill="none" id="NamedEntity-backto-Alias" style="stroke:#000000;stroke-width:1.0;"/><polygon fill="none" points="490.5,243.05,497.5,223.05,504.5,243.05,490.5,243.05" style="stroke:#000000;stroke-width:1.0;"/></g><!--reverse link Entity to SourceAnchor--><g id="link_Entity_SourceAnchor"><path codeLine="139" d="M1073.52,32.17 C1160.29,45.42 1336.06,72.76 1484.5,99 C1490.34,100.03 1496.42,101.14 1502.49,102.27 " fill="none" id="Entity-backto-SourceAnchor" style="stroke:#000000;stroke-width:1.0;"/><polygon fill="none" points="1072.41,39.08,1053.69,29.15,1074.51,25.24,1072.41,39.08" style="stroke:#000000;stroke-width:1.0;"/></g><!--reverse link Type to Interface--><g id="link_Type_Interface"><path codeLine="140" d="M1528.17,431.1 C1585.82,448.28 1679.09,476.08 1734.34,492.54 " fill="none" id="Type-backto-Interface" style="stroke:#000000;stroke-width:1.0;"/><polygon fill="none" points="1525.85,437.71,1508.68,425.29,1529.85,424.3,1525.85,437.71" style="stroke:#000000;stroke-width:1.0;"/></g><!--reverse link NamedEntity to Variable--><g id="link_NamedEntity_Variable"><path codeLine="141" d="M560.58,229.75 C601.36,244.14 655.4,263.82 702.5,283 C711.6,286.71 721.35,290.97 730.3,295 " fill="none" id="NamedEntity-backto-Variable" style="stroke:#000000;stroke-width:1.0;"/><polygon fill="none" points="558,236.26,541.44,223.04,562.63,223.05,558,236.26" style="stroke:#000000;stroke-width:1.0;"/></g><!--reverse link ContainerEntity to Type--><g id="link_ContainerEntity_Type"><path codeLine="142" d="M1659.23,335.12 C1612.75,355.3 1546.91,383.87 1508.56,400.52 " fill="none" id="ContainerEntity-backto-Type" style="stroke:#000000;stroke-width:1.0;"/><polygon fill="none" points="1656.69,328.59,1677.82,327.05,1662.27,341.43,1656.69,328.59" style="stroke:#000000;stroke-width:1.0;"/></g><!--reverse link Type to VariableStatement--><g id="link_Type_VariableStatement"><path codeLine="143" d="M1427.18,432.29 C1375.65,448.97 1296.19,474.7 1246.07,490.92 " fill="none" id="Type-backto-VariableStatement" style="stroke:#000000;stroke-width:1.0;"/><polygon fill="none" points="1425.24,425.56,1446.42,426.06,1429.55,438.88,1425.24,425.56" style="stroke:#000000;stroke-width:1.0;"/></g><!--reverse link ContainerEntity to ScriptEntity--><g id="link_ContainerEntity_ScriptEntity"><path codeLine="144" d="M1712.5,347.19 C1712.5,364.84 1712.5,385.31 1712.5,398.89 " fill="none" id="ContainerEntity-backto-ScriptEntity" style="stroke:#000000;stroke-width:1.0;"/><polygon fill="none" points="1705.5,347.05,1712.5,327.05,1719.5,347.05,1705.5,347.05" style="stroke:#000000;stroke-width:1.0;"/></g><!--reverse link NamedEntity to Parameter--><g id="link_NamedEntity_Parameter"><path codeLine="145" d="M574.55,224.43 C655.15,241.88 776.14,268.83 821.5,283 C832.41,286.41 844.06,290.76 854.57,294.96 " fill="none" id="NamedEntity-backto-Parameter" style="stroke:#000000;stroke-width:1.0;"/><polygon fill="none" points="572.82,231.22,554.75,220.16,575.77,217.54,572.82,231.22" style="stroke:#000000;stroke-width:1.0;"/></g><!--reverse link Entity to Invocation--><g id="link_Entity_Invocation"><path codeLine="146" d="M1073.91,26.91 C1201.25,34.21 1528.34,55.92 1798.5,99 C1804.27,99.92 1810.28,101.04 1816.24,102.24 " fill="none" id="Entity-backto-Invocation" style="stroke:#000000;stroke-width:1.0;"/><polygon fill="none" points="1073.44,33.89,1053.86,25.78,1074.22,19.91,1073.44,33.89" style="stroke:#000000;stroke-width:1.0;"/></g><!--reverse link TWithInterfaces to ContainerEntity--><g id="link_TWithInterfaces_ContainerEntity"><path codeLine="147" d="M1729.02,242.6 C1724.66,260.39 1719.57,281.16 1716.2,294.89 " fill="none" id="TWithInterfaces-backto-ContainerEntity" style="stroke:#000000;stroke-width:1.0;stroke-dasharray:7.0,7.0;"/><polygon fill="none" points="1722.25,240.81,1733.81,223.05,1735.85,244.14,1722.25,240.81" style="stroke:#000000;stroke-width:1.0;"/></g><!--reverse link TClassMetrics to Class--><g id="link_TClassMetrics_Class"><path codeLine="148" d="M1061.13,451.61 C1060.21,465.31 1059.22,480.22 1058.5,490.96 " fill="none" id="TClassMetrics-backto-Class" style="stroke:#000000;stroke-width:1.0;stroke-dasharray:7.0,7.0;"/><polygon fill="none" points="1054.17,450.76,1062.48,431.27,1068.14,451.69,1054.17,450.76" style="stroke:#000000;stroke-width:1.0;"/></g><!--reverse link TEntityCreator to FamixTypeScriptModel--><g id="link_TEntityCreator_FamixTypeScriptModel"><path codeLine="149" d="M2037.5,59.61 C2037.5,73.31 2037.5,88.22 2037.5,98.96 " fill="none" id="TEntityCreator-backto-FamixTypeScriptModel" style="stroke:#000000;stroke-width:1.0;stroke-dasharray:7.0,7.0;"/><polygon fill="none" points="2030.5,59.27,2037.5,39.27,2044.5,59.27,2030.5,59.27" style="stroke:#000000;stroke-width:1.0;"/></g><!--SRC=[bLVRJjmm47ttLqJqfQs0Bq18sy1MMvKATLVqsJZ3haLYHnC7Tblwx_LbSt6IabaU49gC9-CpPyu9Evb10aLf3aa1nIDWnQfdgKgEl4X4pgig-SEIv0iNprlKjSfIdMjCNdVIW8ql4FLh23tcDiUbQim0GopZ-FmL-O7zPQ7MibR2IAsIgwkFwRclykdwElcGfalxOr_L96vkbP7ca29mOmlPzCrxwKkPmspDMrKNiqcfLePB1HWQcCs_TqY1GId8TqlzxxciXH10I9D5cKiXpGD7oHy9A2nv8VURGmbhWR8qTpg3VFRGJtW212Ke89y8sqePm2TEA7qy0-YwdyrUgGpsa3bcB9JO1HAzUsAjQnIG4M-mAagDXfAMGm6ML2HkE8u-yBoUlzyFYqLLKd1RgHsWD5oTWh7T0u5Wv6zQtqkTswsVJRi1eR7PwCdC95bRLgXj0liIxGBObtVDeIoaaIz08e03Y3hCUzGb824nSEGxLzkQR-TxsFXTl_D4hsPLpERjT7R2xj2K9DM58o1HSGYBOZMZ9YZDvfSqktQzvwyViDt0tX0NjWE2YDotzOqMn1aJUrZaabD6SD8sqJMHBFkabGcMGDoPvjLhAsr08bWhBWG0NhIOmsfarMyN5-qN1elMtp-nJZ2E3egmW9DxugIOTQRkGcEpx-NxPMJzsc6XM3SZ5nmQTdIYzTbUtSZsM4nEztnaT575O5F3KC-IM8ziyHtR1z7fo2N7UBO6DZsUrhNYZZg7YkB_SQE9sNhx6STRls43SszwoKPZZqncNB5nYWbC6bUOldcGA7QKx1ZfG9s95e_IpHfzwrZbhXHjgt-75-O9ZWobDIeubD6fHhnoii7Yl3iIBumJA1qRw03lQ3QgqUx89A9-G5sTaHvDd-gZDZ7UXd43VZPon4QczdPvEHQHsFPzYX_nyDyQzsJgWvnr7qfdMVDdzVaiiSqqWQRnipwH_m40]--></g></svg>