<?xml version="1.0" encoding="us-ascii" standalone="no"?><svg xmlns="http://www.w3.org/2000/svg" xmlns:xlink="http://www.w3.org/1999/xlink" contentStyleType="text/css" height="719px" preserveAspectRatio="none" style="width:2175px;height:719px;background:#FFFFFF;" version="1.1" viewBox="0 0 2175 719" width="2175px" zoomAndPan="magnify"><defs/><g><!--class SourceLanguage--><g id="elem_SourceLanguage"><rect codeLine="7" fill="#CCFFFF" height="32" id="SourceLanguage" rx="2.5" ry="2.5" style="stroke:#A9A9A9;stroke-width:0.5;" width="134" x="7" y="99"/><ellipse cx="22" cy="115" fill="#FFFFFF" rx="11" ry="11" style="stroke:#181818;stroke-width:1.0;"/><path d="M21.9375,110.8281 Q21.1875,110.8281 20.625,111.125 Q20.0625,111.4063 19.6719,111.9375 Q19.2813,112.4688 19.0781,113.25 Q18.8906,114.0156 18.8906,114.9688 Q18.8906,115.9375 19.0625,116.7031 Q19.25,117.4531 19.6094,117.9688 Q19.9844,118.4844 20.5625,118.7656 Q21.1406,119.0313 21.9375,119.0313 Q22.6719,119.0313 23.4063,118.8594 Q24.1563,118.6875 25.0313,118.3906 L25.0313,120.5469 Q24.625,120.7031 24.2344,120.8281 Q23.8438,120.9375 23.4375,121.0156 Q23.0313,121.0938 22.6094,121.125 Q22.1875,121.1719 21.6875,121.1719 Q20.2813,121.1719 19.25,120.7188 Q18.2344,120.2656 17.5625,119.4531 Q16.8906,118.6406 16.5625,117.5 Q16.2344,116.3438 16.2344,114.9531 Q16.2344,113.5781 16.6094,112.4219 Q16.9844,111.2656 17.7031,110.4375 Q18.4219,109.6094 19.4844,109.1563 Q20.5469,108.6875 21.9375,108.6875 Q22.8438,108.6875 23.75,108.9219 Q24.6563,109.1406 25.4844,109.5469 L24.6563,111.6406 Q23.9688,111.3125 23.2813,111.0781 Q22.5938,110.8281 21.9375,110.8281 Z " fill="#000000"/><text fill="#000000" font-family="sans-serif" font-size="14" lengthAdjust="spacing" textLength="102" x="36" y="119.8467">SourceLanguage</text></g><!--class ParameterConcretization--><g id="elem_ParameterConcretization"><rect codeLine="9" fill="#CCFFFF" height="32" id="ParameterConcretization" rx="2.5" ry="2.5" style="stroke:#A9A9A9;stroke-width:0.5;" width="191" x="176.5" y="99"/><ellipse cx="191.5" cy="115" fill="#FFFFFF" rx="11" ry="11" style="stroke:#181818;stroke-width:1.0;"/><path d="M191.4375,110.8281 Q190.6875,110.8281 190.125,111.125 Q189.5625,111.4063 189.1719,111.9375 Q188.7813,112.4688 188.5781,113.25 Q188.3906,114.0156 188.3906,114.9688 Q188.3906,115.9375 188.5625,116.7031 Q188.75,117.4531 189.1094,117.9688 Q189.4844,118.4844 190.0625,118.7656 Q190.6406,119.0313 191.4375,119.0313 Q192.1719,119.0313 192.9063,118.8594 Q193.6563,118.6875 194.5313,118.3906 L194.5313,120.5469 Q194.125,120.7031 193.7344,120.8281 Q193.3438,120.9375 192.9375,121.0156 Q192.5313,121.0938 192.1094,121.125 Q191.6875,121.1719 191.1875,121.1719 Q189.7813,121.1719 188.75,120.7188 Q187.7344,120.2656 187.0625,119.4531 Q186.3906,118.6406 186.0625,117.5 Q185.7344,116.3438 185.7344,114.9531 Q185.7344,113.5781 186.1094,112.4219 Q186.4844,111.2656 187.2031,110.4375 Q187.9219,109.6094 188.9844,109.1563 Q190.0469,108.6875 191.4375,108.6875 Q192.3438,108.6875 193.25,108.9219 Q194.1563,109.1406 194.9844,109.5469 L194.1563,111.6406 Q193.4688,111.3125 192.7813,111.0781 Q192.0938,110.8281 191.4375,110.8281 Z " fill="#000000"/><text fill="#000000" font-family="sans-serif" font-size="14" lengthAdjust="spacing" textLength="159" x="205.5" y="119.8467">ParameterConcretization</text></g><!--class implicitVariable--><g id="elem_implicitVariable"><rect codeLine="11" fill="#CCFFFF" height="32" id="implicitVariable" rx="2.5" ry="2.5" style="stroke:#A9A9A9;stroke-width:0.5;" width="132" x="2036" y="588"/><ellipse cx="2051" cy="604" fill="#FFFFFF" rx="11" ry="11" style="stroke:#181818;stroke-width:1.0;"/><path d="M2050.9375,599.8281 Q2050.1875,599.8281 2049.625,600.125 Q2049.0625,600.4063 2048.6719,600.9375 Q2048.2813,601.4688 2048.0781,602.25 Q2047.8906,603.0156 2047.8906,603.9688 Q2047.8906,604.9375 2048.0625,605.7031 Q2048.25,606.4531 2048.6094,606.9688 Q2048.9844,607.4844 2049.5625,607.7656 Q2050.1406,608.0313 2050.9375,608.0313 Q2051.6719,608.0313 2052.4063,607.8594 Q2053.1563,607.6875 2054.0313,607.3906 L2054.0313,609.5469 Q2053.625,609.7031 2053.2344,609.8281 Q2052.8438,609.9375 2052.4375,610.0156 Q2052.0313,610.0938 2051.6094,610.125 Q2051.1875,610.1719 2050.6875,610.1719 Q2049.2813,610.1719 2048.25,609.7188 Q2047.2344,609.2656 2046.5625,608.4531 Q2045.8906,607.6406 2045.5625,606.5 Q2045.2344,605.3438 2045.2344,603.9531 Q2045.2344,602.5781 2045.6094,601.4219 Q2045.9844,600.2656 2046.7031,599.4375 Q2047.4219,598.6094 2048.4844,598.1563 Q2049.5469,597.6875 2050.9375,597.6875 Q2051.8438,597.6875 2052.75,597.9219 Q2053.6563,598.1406 2054.4844,598.5469 L2053.6563,600.6406 Q2052.9688,600.3125 2052.2813,600.0781 Q2051.5938,599.8281 2050.9375,599.8281 Z " fill="#000000"/><text fill="#000000" font-family="sans-serif" font-size="14" lengthAdjust="spacing" textLength="100" x="2065" y="608.8467">implicitVariable</text></g><!--class ParameterType--><g id="elem_ParameterType"><rect codeLine="13" fill="#CCFFFF" height="32" id="ParameterType" rx="2.5" ry="2.5" style="stroke:#A9A9A9;stroke-width:0.5;" width="130" x="1296" y="588"/><ellipse cx="1311" cy="604" fill="#FFFFFF" rx="11" ry="11" style="stroke:#181818;stroke-width:1.0;"/><path d="M1310.9375,599.8281 Q1310.1875,599.8281 1309.625,600.125 Q1309.0625,600.4063 1308.6719,600.9375 Q1308.2813,601.4688 1308.0781,602.25 Q1307.8906,603.0156 1307.8906,603.9688 Q1307.8906,604.9375 1308.0625,605.7031 Q1308.25,606.4531 1308.6094,606.9688 Q1308.9844,607.4844 1309.5625,607.7656 Q1310.1406,608.0313 1310.9375,608.0313 Q1311.6719,608.0313 1312.4063,607.8594 Q1313.1563,607.6875 1314.0313,607.3906 L1314.0313,609.5469 Q1313.625,609.7031 1313.2344,609.8281 Q1312.8438,609.9375 1312.4375,610.0156 Q1312.0313,610.0938 1311.6094,610.125 Q1311.1875,610.1719 1310.6875,610.1719 Q1309.2813,610.1719 1308.25,609.7188 Q1307.2344,609.2656 1306.5625,608.4531 Q1305.8906,607.6406 1305.5625,606.5 Q1305.2344,605.3438 1305.2344,603.9531 Q1305.2344,602.5781 1305.6094,601.4219 Q1305.9844,600.2656 1306.7031,599.4375 Q1307.4219,598.6094 1308.4844,598.1563 Q1309.5469,597.6875 1310.9375,597.6875 Q1311.8438,597.6875 1312.75,597.9219 Q1313.6563,598.1406 1314.4844,598.5469 L1313.6563,600.6406 Q1312.9688,600.3125 1312.2813,600.0781 Q1311.5938,599.8281 1310.9375,599.8281 Z " fill="#000000"/><text fill="#000000" font-family="sans-serif" font-size="14" lengthAdjust="spacing" textLength="98" x="1325" y="608.8467">ParameterType</text></g><!--class SourceAnchor--><g id="elem_SourceAnchor"><rect codeLine="15" fill="#CCFFFF" height="32" id="SourceAnchor" rx="2.5" ry="2.5" style="stroke:#A9A9A9;stroke-width:0.5;" width="120" x="403" y="99"/><ellipse cx="418" cy="115" fill="#FFFFFF" rx="11" ry="11" style="stroke:#181818;stroke-width:1.0;"/><path d="M417.9375,110.8281 Q417.1875,110.8281 416.625,111.125 Q416.0625,111.4063 415.6719,111.9375 Q415.2813,112.4688 415.0781,113.25 Q414.8906,114.0156 414.8906,114.9688 Q414.8906,115.9375 415.0625,116.7031 Q415.25,117.4531 415.6094,117.9688 Q415.9844,118.4844 416.5625,118.7656 Q417.1406,119.0313 417.9375,119.0313 Q418.6719,119.0313 419.4063,118.8594 Q420.1563,118.6875 421.0313,118.3906 L421.0313,120.5469 Q420.625,120.7031 420.2344,120.8281 Q419.8438,120.9375 419.4375,121.0156 Q419.0313,121.0938 418.6094,121.125 Q418.1875,121.1719 417.6875,121.1719 Q416.2813,121.1719 415.25,120.7188 Q414.2344,120.2656 413.5625,119.4531 Q412.8906,118.6406 412.5625,117.5 Q412.2344,116.3438 412.2344,114.9531 Q412.2344,113.5781 412.6094,112.4219 Q412.9844,111.2656 413.7031,110.4375 Q414.4219,109.6094 415.4844,109.1563 Q416.5469,108.6875 417.9375,108.6875 Q418.8438,108.6875 419.75,108.9219 Q420.6563,109.1406 421.4844,109.5469 L420.6563,111.6406 Q419.9688,111.3125 419.2813,111.0781 Q418.5938,110.8281 417.9375,110.8281 Z " fill="#000000"/><text fill="#000000" font-family="sans-serif" font-size="14" lengthAdjust="spacing" textLength="88" x="432" y="119.8467">SourceAnchor</text></g><!--class JSDoc--><g id="elem_JSDoc"><rect codeLine="17" fill="#CCFFFF" height="32" id="JSDoc" rx="2.5" ry="2.5" style="stroke:#A9A9A9;stroke-width:0.5;" width="67" x="853.5" y="203"/><ellipse cx="868.5" cy="219" fill="#FFFFFF" rx="11" ry="11" style="stroke:#181818;stroke-width:1.0;"/><path d="M868.4375,214.8281 Q867.6875,214.8281 867.125,215.125 Q866.5625,215.4063 866.1719,215.9375 Q865.7813,216.4688 865.5781,217.25 Q865.3906,218.0156 865.3906,218.9688 Q865.3906,219.9375 865.5625,220.7031 Q865.75,221.4531 866.1094,221.9688 Q866.4844,222.4844 867.0625,222.7656 Q867.6406,223.0313 868.4375,223.0313 Q869.1719,223.0313 869.9063,222.8594 Q870.6563,222.6875 871.5313,222.3906 L871.5313,224.5469 Q871.125,224.7031 870.7344,224.8281 Q870.3438,224.9375 869.9375,225.0156 Q869.5313,225.0938 869.1094,225.125 Q868.6875,225.1719 868.1875,225.1719 Q866.7813,225.1719 865.75,224.7188 Q864.7344,224.2656 864.0625,223.4531 Q863.3906,222.6406 863.0625,221.5 Q862.7344,220.3438 862.7344,218.9531 Q862.7344,217.5781 863.1094,216.4219 Q863.4844,215.2656 864.2031,214.4375 Q864.9219,213.6094 865.9844,213.1563 Q867.0469,212.6875 868.4375,212.6875 Q869.3438,212.6875 870.25,212.9219 Q871.1563,213.1406 871.9844,213.5469 L871.1563,215.6406 Q870.4688,215.3125 869.7813,215.0781 Q869.0938,214.8281 868.4375,214.8281 Z " fill="#000000"/><text fill="#000000" font-family="sans-serif" font-size="14" lengthAdjust="spacing" textLength="35" x="882.5" y="223.8467">JSDoc</text></g><!--class Comment--><g id="elem_Comment"><rect codeLine="19" fill="#CCFFFF" height="56.2969" id="Comment" rx="2.5" ry="2.5" style="stroke:#A9A9A9;stroke-width:0.5;" width="113" x="955.5" y="191"/><ellipse cx="978.6" cy="207" fill="#FFFFFF" rx="11" ry="11" style="stroke:#181818;stroke-width:1.0;"/><path d="M978.5375,202.8281 Q977.7875,202.8281 977.225,203.125 Q976.6625,203.4063 976.2719,203.9375 Q975.8813,204.4688 975.6781,205.25 Q975.4906,206.0156 975.4906,206.9688 Q975.4906,207.9375 975.6625,208.7031 Q975.85,209.4531 976.2094,209.9688 Q976.5844,210.4844 977.1625,210.7656 Q977.7406,211.0313 978.5375,211.0313 Q979.2719,211.0313 980.0063,210.8594 Q980.7563,210.6875 981.6313,210.3906 L981.6313,212.5469 Q981.225,212.7031 980.8344,212.8281 Q980.4438,212.9375 980.0375,213.0156 Q979.6313,213.0938 979.2094,213.125 Q978.7875,213.1719 978.2875,213.1719 Q976.8813,213.1719 975.85,212.7188 Q974.8344,212.2656 974.1625,211.4531 Q973.4906,210.6406 973.1625,209.5 Q972.8344,208.3438 972.8344,206.9531 Q972.8344,205.5781 973.2094,204.4219 Q973.5844,203.2656 974.3031,202.4375 Q975.0219,201.6094 976.0844,201.1563 Q977.1469,200.6875 978.5375,200.6875 Q979.4438,200.6875 980.35,200.9219 Q981.2563,201.1406 982.0844,201.5469 L981.2563,203.6406 Q980.5688,203.3125 979.8813,203.0781 Q979.1938,202.8281 978.5375,202.8281 Z " fill="#000000"/><text fill="#000000" font-family="sans-serif" font-size="14" lengthAdjust="spacing" textLength="63" x="994.4" y="211.8467">Comment</text><line style="stroke:#A9A9A9;stroke-width:0.5;" x1="956.5" x2="1067.5" y1="223" y2="223"/><text fill="#000000" font-family="sans-serif" font-size="14" lengthAdjust="spacing" textLength="101" x="961.5" y="239.9951">Boolean isJSDoc</text></g><!--class ParametricInterface--><g id="elem_ParametricInterface"><rect codeLine="22" fill="#CCFFFF" height="32" id="ParametricInterface" rx="2.5" ry="2.5" style="stroke:#A9A9A9;stroke-width:0.5;" width="160" x="1281" y="680"/><ellipse cx="1296" cy="696" fill="#FFFFFF" rx="11" ry="11" style="stroke:#181818;stroke-width:1.0;"/><path d="M1295.9375,691.8281 Q1295.1875,691.8281 1294.625,692.125 Q1294.0625,692.4063 1293.6719,692.9375 Q1293.2813,693.4688 1293.0781,694.25 Q1292.8906,695.0156 1292.8906,695.9688 Q1292.8906,696.9375 1293.0625,697.7031 Q1293.25,698.4531 1293.6094,698.9688 Q1293.9844,699.4844 1294.5625,699.7656 Q1295.1406,700.0313 1295.9375,700.0313 Q1296.6719,700.0313 1297.4063,699.8594 Q1298.1563,699.6875 1299.0313,699.3906 L1299.0313,701.5469 Q1298.625,701.7031 1298.2344,701.8281 Q1297.8438,701.9375 1297.4375,702.0156 Q1297.0313,702.0938 1296.6094,702.125 Q1296.1875,702.1719 1295.6875,702.1719 Q1294.2813,702.1719 1293.25,701.7188 Q1292.2344,701.2656 1291.5625,700.4531 Q1290.8906,699.6406 1290.5625,698.5 Q1290.2344,697.3438 1290.2344,695.9531 Q1290.2344,694.5781 1290.6094,693.4219 Q1290.9844,692.2656 1291.7031,691.4375 Q1292.4219,690.6094 1293.4844,690.1563 Q1294.5469,689.6875 1295.9375,689.6875 Q1296.8438,689.6875 1297.75,689.9219 Q1298.6563,690.1406 1299.4844,690.5469 L1298.6563,692.6406 Q1297.9688,692.3125 1297.2813,692.0781 Q1296.5938,691.8281 1295.9375,691.8281 Z " fill="#000000"/><text fill="#000000" font-family="sans-serif" font-size="14" lengthAdjust="spacing" textLength="128" x="1310" y="700.8467">ParametricInterface</text></g><!--class SourceTextAnchor--><g id="elem_SourceTextAnchor"><rect codeLine="24" fill="#CCFFFF" height="32" id="SourceTextAnchor" rx="2.5" ry="2.5" style="stroke:#A9A9A9;stroke-width:0.5;" width="147" x="297.5" y="203"/><ellipse cx="312.5" cy="219" fill="#FFFFFF" rx="11" ry="11" style="stroke:#181818;stroke-width:1.0;"/><path d="M312.4375,214.8281 Q311.6875,214.8281 311.125,215.125 Q310.5625,215.4063 310.1719,215.9375 Q309.7813,216.4688 309.5781,217.25 Q309.3906,218.0156 309.3906,218.9688 Q309.3906,219.9375 309.5625,220.7031 Q309.75,221.4531 310.1094,221.9688 Q310.4844,222.4844 311.0625,222.7656 Q311.6406,223.0313 312.4375,223.0313 Q313.1719,223.0313 313.9063,222.8594 Q314.6563,222.6875 315.5313,222.3906 L315.5313,224.5469 Q315.125,224.7031 314.7344,224.8281 Q314.3438,224.9375 313.9375,225.0156 Q313.5313,225.0938 313.1094,225.125 Q312.6875,225.1719 312.1875,225.1719 Q310.7813,225.1719 309.75,224.7188 Q308.7344,224.2656 308.0625,223.4531 Q307.3906,222.6406 307.0625,221.5 Q306.7344,220.3438 306.7344,218.9531 Q306.7344,217.5781 307.1094,216.4219 Q307.4844,215.2656 308.2031,214.4375 Q308.9219,213.6094 309.9844,213.1563 Q311.0469,212.6875 312.4375,212.6875 Q313.3438,212.6875 314.25,212.9219 Q315.1563,213.1406 315.9844,213.5469 L315.1563,215.6406 Q314.4688,215.3125 313.7813,215.0781 Q313.0938,214.8281 312.4375,214.8281 Z " fill="#000000"/><text fill="#000000" font-family="sans-serif" font-size="14" lengthAdjust="spacing" textLength="115" x="326.5" y="223.8467">SourceTextAnchor</text></g><!--class FamixTypeScriptModel--><g id="elem_FamixTypeScriptModel"><rect codeLine="26" fill="#CCFFFF" height="32" id="FamixTypeScriptModel" rx="2.5" ry="2.5" style="stroke:#A9A9A9;stroke-width:0.5;" width="176" x="1708" y="99"/><ellipse cx="1723" cy="115" fill="#FFFFFF" rx="11" ry="11" style="stroke:#181818;stroke-width:1.0;"/><path d="M1722.9375,110.8281 Q1722.1875,110.8281 1721.625,111.125 Q1721.0625,111.4063 1720.6719,111.9375 Q1720.2813,112.4688 1720.0781,113.25 Q1719.8906,114.0156 1719.8906,114.9688 Q1719.8906,115.9375 1720.0625,116.7031 Q1720.25,117.4531 1720.6094,117.9688 Q1720.9844,118.4844 1721.5625,118.7656 Q1722.1406,119.0313 1722.9375,119.0313 Q1723.6719,119.0313 1724.4063,118.8594 Q1725.1563,118.6875 1726.0313,118.3906 L1726.0313,120.5469 Q1725.625,120.7031 1725.2344,120.8281 Q1724.8438,120.9375 1724.4375,121.0156 Q1724.0313,121.0938 1723.6094,121.125 Q1723.1875,121.1719 1722.6875,121.1719 Q1721.2813,121.1719 1720.25,120.7188 Q1719.2344,120.2656 1718.5625,119.4531 Q1717.8906,118.6406 1717.5625,117.5 Q1717.2344,116.3438 1717.2344,114.9531 Q1717.2344,113.5781 1717.6094,112.4219 Q1717.9844,111.2656 1718.7031,110.4375 Q1719.4219,109.6094 1720.4844,109.1563 Q1721.5469,108.6875 1722.9375,108.6875 Q1723.8438,108.6875 1724.75,108.9219 Q1725.6563,109.1406 1726.4844,109.5469 L1725.6563,111.6406 Q1724.9688,111.3125 1724.2813,111.0781 Q1723.5938,110.8281 1722.9375,110.8281 Z " fill="#000000"/><text fill="#000000" font-family="sans-serif" font-size="14" lengthAdjust="spacing" textLength="144" x="1737" y="119.8467">FamixTypeScriptModel</text></g><!--class BehaviouralEntity--><g id="elem_BehaviouralEntity"><rect codeLine="28" fill="#CCFFFF" height="32" id="BehaviouralEntity" rx="2.5" ry="2.5" style="stroke:#A9A9A9;stroke-width:0.5;" width="144" x="932" y="459.5"/><ellipse cx="947" cy="475.5" fill="#FFFFFF" rx="11" ry="11" style="stroke:#181818;stroke-width:1.0;"/><path d="M946.9375,471.3281 Q946.1875,471.3281 945.625,471.625 Q945.0625,471.9063 944.6719,472.4375 Q944.2813,472.9688 944.0781,473.75 Q943.8906,474.5156 943.8906,475.4688 Q943.8906,476.4375 944.0625,477.2031 Q944.25,477.9531 944.6094,478.4688 Q944.9844,478.9844 945.5625,479.2656 Q946.1406,479.5313 946.9375,479.5313 Q947.6719,479.5313 948.4063,479.3594 Q949.1563,479.1875 950.0313,478.8906 L950.0313,481.0469 Q949.625,481.2031 949.2344,481.3281 Q948.8438,481.4375 948.4375,481.5156 Q948.0313,481.5938 947.6094,481.625 Q947.1875,481.6719 946.6875,481.6719 Q945.2813,481.6719 944.25,481.2188 Q943.2344,480.7656 942.5625,479.9531 Q941.8906,479.1406 941.5625,478 Q941.2344,476.8438 941.2344,475.4531 Q941.2344,474.0781 941.6094,472.9219 Q941.9844,471.7656 942.7031,470.9375 Q943.4219,470.1094 944.4844,469.6563 Q945.5469,469.1875 946.9375,469.1875 Q947.8438,469.1875 948.75,469.4219 Q949.6563,469.6406 950.4844,470.0469 L949.6563,472.1406 Q948.9688,471.8125 948.2813,471.5781 Q947.5938,471.3281 946.9375,471.3281 Z " fill="#000000"/><text fill="#000000" font-family="sans-serif" font-size="14" lengthAdjust="spacing" textLength="112" x="961" y="480.3467">BehaviouralEntity</text></g><!--class PrimitiveType--><g id="elem_PrimitiveType"><rect codeLine="30" fill="#CCFFFF" height="32" id="PrimitiveType" rx="2.5" ry="2.5" style="stroke:#A9A9A9;stroke-width:0.5;" width="121" x="1461.5" y="588"/><ellipse cx="1476.5" cy="604" fill="#FFFFFF" rx="11" ry="11" style="stroke:#181818;stroke-width:1.0;"/><path d="M1476.4375,599.8281 Q1475.6875,599.8281 1475.125,600.125 Q1474.5625,600.4063 1474.1719,600.9375 Q1473.7813,601.4688 1473.5781,602.25 Q1473.3906,603.0156 1473.3906,603.9688 Q1473.3906,604.9375 1473.5625,605.7031 Q1473.75,606.4531 1474.1094,606.9688 Q1474.4844,607.4844 1475.0625,607.7656 Q1475.6406,608.0313 1476.4375,608.0313 Q1477.1719,608.0313 1477.9063,607.8594 Q1478.6563,607.6875 1479.5313,607.3906 L1479.5313,609.5469 Q1479.125,609.7031 1478.7344,609.8281 Q1478.3438,609.9375 1477.9375,610.0156 Q1477.5313,610.0938 1477.1094,610.125 Q1476.6875,610.1719 1476.1875,610.1719 Q1474.7813,610.1719 1473.75,609.7188 Q1472.7344,609.2656 1472.0625,608.4531 Q1471.3906,607.6406 1471.0625,606.5 Q1470.7344,605.3438 1470.7344,603.9531 Q1470.7344,602.5781 1471.1094,601.4219 Q1471.4844,600.2656 1472.2031,599.4375 Q1472.9219,598.6094 1473.9844,598.1563 Q1475.0469,597.6875 1476.4375,597.6875 Q1477.3438,597.6875 1478.25,597.9219 Q1479.1563,598.1406 1479.9844,598.5469 L1479.1563,600.6406 Q1478.4688,600.3125 1477.7813,600.0781 Q1477.0938,599.8281 1476.4375,599.8281 Z " fill="#000000"/><text fill="#000000" font-family="sans-serif" font-size="14" lengthAdjust="spacing" textLength="89" x="1490.5" y="608.8467">PrimitiveType</text></g><!--class Parameter--><g id="elem_Parameter"><rect codeLine="32" fill="#CCFFFF" height="32" id="Parameter" rx="2.5" ry="2.5" style="stroke:#A9A9A9;stroke-width:0.5;" width="100" x="1402" y="459.5"/><ellipse cx="1417" cy="475.5" fill="#FFFFFF" rx="11" ry="11" style="stroke:#181818;stroke-width:1.0;"/><path d="M1416.9375,471.3281 Q1416.1875,471.3281 1415.625,471.625 Q1415.0625,471.9063 1414.6719,472.4375 Q1414.2813,472.9688 1414.0781,473.75 Q1413.8906,474.5156 1413.8906,475.4688 Q1413.8906,476.4375 1414.0625,477.2031 Q1414.25,477.9531 1414.6094,478.4688 Q1414.9844,478.9844 1415.5625,479.2656 Q1416.1406,479.5313 1416.9375,479.5313 Q1417.6719,479.5313 1418.4063,479.3594 Q1419.1563,479.1875 1420.0313,478.8906 L1420.0313,481.0469 Q1419.625,481.2031 1419.2344,481.3281 Q1418.8438,481.4375 1418.4375,481.5156 Q1418.0313,481.5938 1417.6094,481.625 Q1417.1875,481.6719 1416.6875,481.6719 Q1415.2813,481.6719 1414.25,481.2188 Q1413.2344,480.7656 1412.5625,479.9531 Q1411.8906,479.1406 1411.5625,478 Q1411.2344,476.8438 1411.2344,475.4531 Q1411.2344,474.0781 1411.6094,472.9219 Q1411.9844,471.7656 1412.7031,470.9375 Q1413.4219,470.1094 1414.4844,469.6563 Q1415.5469,469.1875 1416.9375,469.1875 Q1417.8438,469.1875 1418.75,469.4219 Q1419.6563,469.6406 1420.4844,470.0469 L1419.6563,472.1406 Q1418.9688,471.8125 1418.2813,471.5781 Q1417.5938,471.3281 1416.9375,471.3281 Z " fill="#000000"/><text fill="#000000" font-family="sans-serif" font-size="14" lengthAdjust="spacing" textLength="68" x="1431" y="480.3467">Parameter</text></g><!--class Type--><g id="elem_Type"><rect codeLine="34" fill="#CCFFFF" height="32" id="Type" rx="2.5" ry="2.5" style="stroke:#A9A9A9;stroke-width:0.5;" width="62" x="1305" y="459.5"/><ellipse cx="1320" cy="475.5" fill="#FFFFFF" rx="11" ry="11" style="stroke:#181818;stroke-width:1.0;"/><path d="M1319.9375,471.3281 Q1319.1875,471.3281 1318.625,471.625 Q1318.0625,471.9063 1317.6719,472.4375 Q1317.2813,472.9688 1317.0781,473.75 Q1316.8906,474.5156 1316.8906,475.4688 Q1316.8906,476.4375 1317.0625,477.2031 Q1317.25,477.9531 1317.6094,478.4688 Q1317.9844,478.9844 1318.5625,479.2656 Q1319.1406,479.5313 1319.9375,479.5313 Q1320.6719,479.5313 1321.4063,479.3594 Q1322.1563,479.1875 1323.0313,478.8906 L1323.0313,481.0469 Q1322.625,481.2031 1322.2344,481.3281 Q1321.8438,481.4375 1321.4375,481.5156 Q1321.0313,481.5938 1320.6094,481.625 Q1320.1875,481.6719 1319.6875,481.6719 Q1318.2813,481.6719 1317.25,481.2188 Q1316.2344,480.7656 1315.5625,479.9531 Q1314.8906,479.1406 1314.5625,478 Q1314.2344,476.8438 1314.2344,475.4531 Q1314.2344,474.0781 1314.6094,472.9219 Q1314.9844,471.7656 1315.7031,470.9375 Q1316.4219,470.1094 1317.4844,469.6563 Q1318.5469,469.1875 1319.9375,469.1875 Q1320.8438,469.1875 1321.75,469.4219 Q1322.6563,469.6406 1323.4844,470.0469 L1322.6563,472.1406 Q1321.9688,471.8125 1321.2813,471.5781 Q1320.5938,471.3281 1319.9375,471.3281 Z " fill="#000000"/><text fill="#000000" font-family="sans-serif" font-size="14" lengthAdjust="spacing" textLength="30" x="1334" y="480.3467">Type</text></g><!--class Alias--><g id="elem_Alias"><rect codeLine="36" fill="#CCFFFF" height="32" id="Alias" rx="2.5" ry="2.5" style="stroke:#A9A9A9;stroke-width:0.5;" width="62" x="1736" y="319"/><ellipse cx="1751" cy="335" fill="#FFFFFF" rx="11" ry="11" style="stroke:#181818;stroke-width:1.0;"/><path d="M1750.9375,330.8281 Q1750.1875,330.8281 1749.625,331.125 Q1749.0625,331.4063 1748.6719,331.9375 Q1748.2813,332.4688 1748.0781,333.25 Q1747.8906,334.0156 1747.8906,334.9688 Q1747.8906,335.9375 1748.0625,336.7031 Q1748.25,337.4531 1748.6094,337.9688 Q1748.9844,338.4844 1749.5625,338.7656 Q1750.1406,339.0313 1750.9375,339.0313 Q1751.6719,339.0313 1752.4063,338.8594 Q1753.1563,338.6875 1754.0313,338.3906 L1754.0313,340.5469 Q1753.625,340.7031 1753.2344,340.8281 Q1752.8438,340.9375 1752.4375,341.0156 Q1752.0313,341.0938 1751.6094,341.125 Q1751.1875,341.1719 1750.6875,341.1719 Q1749.2813,341.1719 1748.25,340.7188 Q1747.2344,340.2656 1746.5625,339.4531 Q1745.8906,338.6406 1745.5625,337.5 Q1745.2344,336.3438 1745.2344,334.9531 Q1745.2344,333.5781 1745.6094,332.4219 Q1745.9844,331.2656 1746.7031,330.4375 Q1747.4219,329.6094 1748.4844,329.1563 Q1749.5469,328.6875 1750.9375,328.6875 Q1751.8438,328.6875 1752.75,328.9219 Q1753.6563,329.1406 1754.4844,329.5469 L1753.6563,331.6406 Q1752.9688,331.3125 1752.2813,331.0781 Q1751.5938,330.8281 1750.9375,330.8281 Z " fill="#000000"/><text fill="#000000" font-family="sans-serif" font-size="14" lengthAdjust="spacing" textLength="30" x="1765" y="339.8467">Alias</text></g><!--class Entity--><g id="elem_Entity"><rect codeLine="38" fill="#CCFFFF" height="32" id="Entity" rx="2.5" ry="2.5" style="stroke:#A9A9A9;stroke-width:0.5;" width="68" x="847" y="7"/><ellipse cx="862" cy="23" fill="#FFFFFF" rx="11" ry="11" style="stroke:#181818;stroke-width:1.0;"/><path d="M861.9375,18.8281 Q861.1875,18.8281 860.625,19.125 Q860.0625,19.4063 859.6719,19.9375 Q859.2813,20.4688 859.0781,21.25 Q858.8906,22.0156 858.8906,22.9688 Q858.8906,23.9375 859.0625,24.7031 Q859.25,25.4531 859.6094,25.9688 Q859.9844,26.4844 860.5625,26.7656 Q861.1406,27.0313 861.9375,27.0313 Q862.6719,27.0313 863.4063,26.8594 Q864.1563,26.6875 865.0313,26.3906 L865.0313,28.5469 Q864.625,28.7031 864.2344,28.8281 Q863.8438,28.9375 863.4375,29.0156 Q863.0313,29.0938 862.6094,29.125 Q862.1875,29.1719 861.6875,29.1719 Q860.2813,29.1719 859.25,28.7188 Q858.2344,28.2656 857.5625,27.4531 Q856.8906,26.6406 856.5625,25.5 Q856.2344,24.3438 856.2344,22.9531 Q856.2344,21.5781 856.6094,20.4219 Q856.9844,19.2656 857.7031,18.4375 Q858.4219,17.6094 859.4844,17.1563 Q860.5469,16.6875 861.9375,16.6875 Q862.8438,16.6875 863.75,16.9219 Q864.6563,17.1406 865.4844,17.5469 L864.6563,19.6406 Q863.9688,19.3125 863.2813,19.0781 Q862.5938,18.8281 861.9375,18.8281 Z " fill="#000000"/><text fill="#000000" font-family="sans-serif" font-size="14" lengthAdjust="spacing" textLength="36" x="876" y="27.8467">Entity</text></g><!--class Namespace--><g id="elem_Namespace"><rect codeLine="40" fill="#CCFFFF" height="32" id="Namespace" rx="2.5" ry="2.5" style="stroke:#A9A9A9;stroke-width:0.5;" width="105" x="618.5" y="588"/><ellipse cx="633.5" cy="604" fill="#FFFFFF" rx="11" ry="11" style="stroke:#181818;stroke-width:1.0;"/><path d="M633.4375,599.8281 Q632.6875,599.8281 632.125,600.125 Q631.5625,600.4063 631.1719,600.9375 Q630.7813,601.4688 630.5781,602.25 Q630.3906,603.0156 630.3906,603.9688 Q630.3906,604.9375 630.5625,605.7031 Q630.75,606.4531 631.1094,606.9688 Q631.4844,607.4844 632.0625,607.7656 Q632.6406,608.0313 633.4375,608.0313 Q634.1719,608.0313 634.9063,607.8594 Q635.6563,607.6875 636.5313,607.3906 L636.5313,609.5469 Q636.125,609.7031 635.7344,609.8281 Q635.3438,609.9375 634.9375,610.0156 Q634.5313,610.0938 634.1094,610.125 Q633.6875,610.1719 633.1875,610.1719 Q631.7813,610.1719 630.75,609.7188 Q629.7344,609.2656 629.0625,608.4531 Q628.3906,607.6406 628.0625,606.5 Q627.7344,605.3438 627.7344,603.9531 Q627.7344,602.5781 628.1094,601.4219 Q628.4844,600.2656 629.2031,599.4375 Q629.9219,598.6094 630.9844,598.1563 Q632.0469,597.6875 633.4375,597.6875 Q634.3438,597.6875 635.25,597.9219 Q636.1563,598.1406 636.9844,598.5469 L636.1563,600.6406 Q635.4688,600.3125 634.7813,600.0781 Q634.0938,599.8281 633.4375,599.8281 Z " fill="#000000"/><text fill="#000000" font-family="sans-serif" font-size="14" lengthAdjust="spacing" textLength="73" x="647.5" y="608.8467">Namespace</text></g><!--class ContainerEntity--><g id="elem_ContainerEntity"><rect codeLine="42" fill="#CCFFFF" height="32" id="ContainerEntity" rx="2.5" ry="2.5" style="stroke:#A9A9A9;stroke-width:0.5;" width="130" x="1049" y="319"/><ellipse cx="1064" cy="335" fill="#FFFFFF" rx="11" ry="11" style="stroke:#181818;stroke-width:1.0;"/><path d="M1063.9375,330.8281 Q1063.1875,330.8281 1062.625,331.125 Q1062.0625,331.4063 1061.6719,331.9375 Q1061.2813,332.4688 1061.0781,333.25 Q1060.8906,334.0156 1060.8906,334.9688 Q1060.8906,335.9375 1061.0625,336.7031 Q1061.25,337.4531 1061.6094,337.9688 Q1061.9844,338.4844 1062.5625,338.7656 Q1063.1406,339.0313 1063.9375,339.0313 Q1064.6719,339.0313 1065.4063,338.8594 Q1066.1563,338.6875 1067.0313,338.3906 L1067.0313,340.5469 Q1066.625,340.7031 1066.2344,340.8281 Q1065.8438,340.9375 1065.4375,341.0156 Q1065.0313,341.0938 1064.6094,341.125 Q1064.1875,341.1719 1063.6875,341.1719 Q1062.2813,341.1719 1061.25,340.7188 Q1060.2344,340.2656 1059.5625,339.4531 Q1058.8906,338.6406 1058.5625,337.5 Q1058.2344,336.3438 1058.2344,334.9531 Q1058.2344,333.5781 1058.6094,332.4219 Q1058.9844,331.2656 1059.7031,330.4375 Q1060.4219,329.6094 1061.4844,329.1563 Q1062.5469,328.6875 1063.9375,328.6875 Q1064.8438,328.6875 1065.75,328.9219 Q1066.6563,329.1406 1067.4844,329.5469 L1066.6563,331.6406 Q1065.9688,331.3125 1065.2813,331.0781 Q1064.5938,330.8281 1063.9375,330.8281 Z " fill="#000000"/><text fill="#000000" font-family="sans-serif" font-size="14" lengthAdjust="spacing" textLength="98" x="1078" y="339.8467">ContainerEntity</text></g><!--class Property--><g id="elem_Property"><rect codeLine="44" fill="#CCFFFF" height="105.1875" id="Property" rx="2.5" ry="2.5" style="stroke:#A9A9A9;stroke-width:0.5;" width="197" x="1537.5" y="423"/><ellipse cx="1603.75" cy="439" fill="#FFFFFF" rx="11" ry="11" style="stroke:#181818;stroke-width:1.0;"/><path d="M1603.6875,434.8281 Q1602.9375,434.8281 1602.375,435.125 Q1601.8125,435.4063 1601.4219,435.9375 Q1601.0313,436.4688 1600.8281,437.25 Q1600.6406,438.0156 1600.6406,438.9688 Q1600.6406,439.9375 1600.8125,440.7031 Q1601,441.4531 1601.3594,441.9688 Q1601.7344,442.4844 1602.3125,442.7656 Q1602.8906,443.0313 1603.6875,443.0313 Q1604.4219,443.0313 1605.1563,442.8594 Q1605.9063,442.6875 1606.7813,442.3906 L1606.7813,444.5469 Q1606.375,444.7031 1605.9844,444.8281 Q1605.5938,444.9375 1605.1875,445.0156 Q1604.7813,445.0938 1604.3594,445.125 Q1603.9375,445.1719 1603.4375,445.1719 Q1602.0313,445.1719 1601,444.7188 Q1599.9844,444.2656 1599.3125,443.4531 Q1598.6406,442.6406 1598.3125,441.5 Q1597.9844,440.3438 1597.9844,438.9531 Q1597.9844,437.5781 1598.3594,436.4219 Q1598.7344,435.2656 1599.4531,434.4375 Q1600.1719,433.6094 1601.2344,433.1563 Q1602.2969,432.6875 1603.6875,432.6875 Q1604.5938,432.6875 1605.5,432.9219 Q1606.4063,433.1406 1607.2344,433.5469 L1606.4063,435.6406 Q1605.7188,435.3125 1605.0313,435.0781 Q1604.3438,434.8281 1603.6875,434.8281 Z " fill="#000000"/><text fill="#000000" font-family="sans-serif" font-size="14" lengthAdjust="spacing" textLength="56" x="1624.25" y="443.8467">Property</text><line style="stroke:#A9A9A9;stroke-width:0.5;" x1="1538.5" x2="1733.5" y1="455" y2="455"/><text fill="#000000" font-family="sans-serif" font-size="14" lengthAdjust="spacing" textLength="172" x="1543.5" y="471.9951">Boolean isJavaScriptPrivate</text><text fill="#000000" font-family="sans-serif" font-size="14" lengthAdjust="spacing" textLength="185" x="1543.5" y="488.292">Boolean isDefinitelyAssigned</text><text fill="#000000" font-family="sans-serif" font-size="14" lengthAdjust="spacing" textLength="120" x="1543.5" y="504.5889">Boolean isOptional</text><text fill="#000000" font-family="sans-serif" font-size="14" lengthAdjust="spacing" textLength="114" x="1543.5" y="520.8857">Boolean readOnly</text></g><!--class Enum--><g id="elem_Enum"><rect codeLine="50" fill="#CCFFFF" height="32" id="Enum" rx="2.5" ry="2.5" style="stroke:#A9A9A9;stroke-width:0.5;" width="68" x="1618" y="588"/><ellipse cx="1633" cy="604" fill="#FFFFFF" rx="11" ry="11" style="stroke:#181818;stroke-width:1.0;"/><path d="M1632.9375,599.8281 Q1632.1875,599.8281 1631.625,600.125 Q1631.0625,600.4063 1630.6719,600.9375 Q1630.2813,601.4688 1630.0781,602.25 Q1629.8906,603.0156 1629.8906,603.9688 Q1629.8906,604.9375 1630.0625,605.7031 Q1630.25,606.4531 1630.6094,606.9688 Q1630.9844,607.4844 1631.5625,607.7656 Q1632.1406,608.0313 1632.9375,608.0313 Q1633.6719,608.0313 1634.4063,607.8594 Q1635.1563,607.6875 1636.0313,607.3906 L1636.0313,609.5469 Q1635.625,609.7031 1635.2344,609.8281 Q1634.8438,609.9375 1634.4375,610.0156 Q1634.0313,610.0938 1633.6094,610.125 Q1633.1875,610.1719 1632.6875,610.1719 Q1631.2813,610.1719 1630.25,609.7188 Q1629.2344,609.2656 1628.5625,608.4531 Q1627.8906,607.6406 1627.5625,606.5 Q1627.2344,605.3438 1627.2344,603.9531 Q1627.2344,602.5781 1627.6094,601.4219 Q1627.9844,600.2656 1628.7031,599.4375 Q1629.4219,598.6094 1630.4844,598.1563 Q1631.5469,597.6875 1632.9375,597.6875 Q1633.8438,597.6875 1634.75,597.9219 Q1635.6563,598.1406 1636.4844,598.5469 L1635.6563,600.6406 Q1634.9688,600.3125 1634.2813,600.0781 Q1633.5938,599.8281 1632.9375,599.8281 Z " fill="#000000"/><text fill="#000000" font-family="sans-serif" font-size="14" lengthAdjust="spacing" textLength="36" x="1647" y="608.8467">Enum</text></g><!--class Interface--><g id="elem_Interface"><rect codeLine="52" fill="#CCFFFF" height="32" id="Interface" rx="2.5" ry="2.5" style="stroke:#A9A9A9;stroke-width:0.5;" width="90" x="1171" y="588"/><ellipse cx="1186" cy="604" fill="#FFFFFF" rx="11" ry="11" style="stroke:#181818;stroke-width:1.0;"/><path d="M1185.9375,599.8281 Q1185.1875,599.8281 1184.625,600.125 Q1184.0625,600.4063 1183.6719,600.9375 Q1183.2813,601.4688 1183.0781,602.25 Q1182.8906,603.0156 1182.8906,603.9688 Q1182.8906,604.9375 1183.0625,605.7031 Q1183.25,606.4531 1183.6094,606.9688 Q1183.9844,607.4844 1184.5625,607.7656 Q1185.1406,608.0313 1185.9375,608.0313 Q1186.6719,608.0313 1187.4063,607.8594 Q1188.1563,607.6875 1189.0313,607.3906 L1189.0313,609.5469 Q1188.625,609.7031 1188.2344,609.8281 Q1187.8438,609.9375 1187.4375,610.0156 Q1187.0313,610.0938 1186.6094,610.125 Q1186.1875,610.1719 1185.6875,610.1719 Q1184.2813,610.1719 1183.25,609.7188 Q1182.2344,609.2656 1181.5625,608.4531 Q1180.8906,607.6406 1180.5625,606.5 Q1180.2344,605.3438 1180.2344,603.9531 Q1180.2344,602.5781 1180.6094,601.4219 Q1180.9844,600.2656 1181.7031,599.4375 Q1182.4219,598.6094 1183.4844,598.1563 Q1184.5469,597.6875 1185.9375,597.6875 Q1186.8438,597.6875 1187.75,597.9219 Q1188.6563,598.1406 1189.4844,598.5469 L1188.6563,600.6406 Q1187.9688,600.3125 1187.2813,600.0781 Q1186.5938,599.8281 1185.9375,599.8281 Z " fill="#000000"/><text fill="#000000" font-family="sans-serif" font-size="14" lengthAdjust="spacing" textLength="58" x="1200" y="608.8467">Interface</text></g><!--class Folder--><g id="elem_Folder"><rect codeLine="54" fill="#CCFFFF" height="32" id="Folder" rx="2.5" ry="2.5" style="stroke:#A9A9A9;stroke-width:0.5;" width="73" x="1214.5" y="319"/><ellipse cx="1229.5" cy="335" fill="#FFFFFF" rx="11" ry="11" style="stroke:#181818;stroke-width:1.0;"/><path d="M1229.4375,330.8281 Q1228.6875,330.8281 1228.125,331.125 Q1227.5625,331.4063 1227.1719,331.9375 Q1226.7813,332.4688 1226.5781,333.25 Q1226.3906,334.0156 1226.3906,334.9688 Q1226.3906,335.9375 1226.5625,336.7031 Q1226.75,337.4531 1227.1094,337.9688 Q1227.4844,338.4844 1228.0625,338.7656 Q1228.6406,339.0313 1229.4375,339.0313 Q1230.1719,339.0313 1230.9063,338.8594 Q1231.6563,338.6875 1232.5313,338.3906 L1232.5313,340.5469 Q1232.125,340.7031 1231.7344,340.8281 Q1231.3438,340.9375 1230.9375,341.0156 Q1230.5313,341.0938 1230.1094,341.125 Q1229.6875,341.1719 1229.1875,341.1719 Q1227.7813,341.1719 1226.75,340.7188 Q1225.7344,340.2656 1225.0625,339.4531 Q1224.3906,338.6406 1224.0625,337.5 Q1223.7344,336.3438 1223.7344,334.9531 Q1223.7344,333.5781 1224.1094,332.4219 Q1224.4844,331.2656 1225.2031,330.4375 Q1225.9219,329.6094 1226.9844,329.1563 Q1228.0469,328.6875 1229.4375,328.6875 Q1230.3438,328.6875 1231.25,328.9219 Q1232.1563,329.1406 1232.9844,329.5469 L1232.1563,331.6406 Q1231.4688,331.3125 1230.7813,331.0781 Q1230.0938,330.8281 1229.4375,330.8281 Z " fill="#000000"/><text fill="#000000" font-family="sans-serif" font-size="14" lengthAdjust="spacing" textLength="41" x="1243.5" y="339.8467">Folder</text></g><!--class ParametricMethod--><g id="elem_ParametricMethod"><rect codeLine="56" fill="#CCFFFF" height="32" id="ParametricMethod" rx="2.5" ry="2.5" style="stroke:#A9A9A9;stroke-width:0.5;" width="151" x="864.5" y="680"/><ellipse cx="879.5" cy="696" fill="#FFFFFF" rx="11" ry="11" style="stroke:#181818;stroke-width:1.0;"/><path d="M879.4375,691.8281 Q878.6875,691.8281 878.125,692.125 Q877.5625,692.4063 877.1719,692.9375 Q876.7813,693.4688 876.5781,694.25 Q876.3906,695.0156 876.3906,695.9688 Q876.3906,696.9375 876.5625,697.7031 Q876.75,698.4531 877.1094,698.9688 Q877.4844,699.4844 878.0625,699.7656 Q878.6406,700.0313 879.4375,700.0313 Q880.1719,700.0313 880.9063,699.8594 Q881.6563,699.6875 882.5313,699.3906 L882.5313,701.5469 Q882.125,701.7031 881.7344,701.8281 Q881.3438,701.9375 880.9375,702.0156 Q880.5313,702.0938 880.1094,702.125 Q879.6875,702.1719 879.1875,702.1719 Q877.7813,702.1719 876.75,701.7188 Q875.7344,701.2656 875.0625,700.4531 Q874.3906,699.6406 874.0625,698.5 Q873.7344,697.3438 873.7344,695.9531 Q873.7344,694.5781 874.1094,693.4219 Q874.4844,692.2656 875.2031,691.4375 Q875.9219,690.6094 876.9844,690.1563 Q878.0469,689.6875 879.4375,689.6875 Q880.3438,689.6875 881.25,689.9219 Q882.1563,690.1406 882.9844,690.5469 L882.1563,692.6406 Q881.4688,692.3125 880.7813,692.0781 Q880.0938,691.8281 879.4375,691.8281 Z " fill="#000000"/><text fill="#000000" font-family="sans-serif" font-size="14" lengthAdjust="spacing" textLength="119" x="893.5" y="700.8467">ParametricMethod</text></g><!--class Invocation--><g id="elem_Invocation"><rect codeLine="58" fill="#CCFFFF" height="32" id="Invocation" rx="2.5" ry="2.5" style="stroke:#A9A9A9;stroke-width:0.5;" width="98" x="558" y="99"/><ellipse cx="573" cy="115" fill="#FFFFFF" rx="11" ry="11" style="stroke:#181818;stroke-width:1.0;"/><path d="M572.9375,110.8281 Q572.1875,110.8281 571.625,111.125 Q571.0625,111.4063 570.6719,111.9375 Q570.2813,112.4688 570.0781,113.25 Q569.8906,114.0156 569.8906,114.9688 Q569.8906,115.9375 570.0625,116.7031 Q570.25,117.4531 570.6094,117.9688 Q570.9844,118.4844 571.5625,118.7656 Q572.1406,119.0313 572.9375,119.0313 Q573.6719,119.0313 574.4063,118.8594 Q575.1563,118.6875 576.0313,118.3906 L576.0313,120.5469 Q575.625,120.7031 575.2344,120.8281 Q574.8438,120.9375 574.4375,121.0156 Q574.0313,121.0938 573.6094,121.125 Q573.1875,121.1719 572.6875,121.1719 Q571.2813,121.1719 570.25,120.7188 Q569.2344,120.2656 568.5625,119.4531 Q567.8906,118.6406 567.5625,117.5 Q567.2344,116.3438 567.2344,114.9531 Q567.2344,113.5781 567.6094,112.4219 Q567.9844,111.2656 568.7031,110.4375 Q569.4219,109.6094 570.4844,109.1563 Q571.5469,108.6875 572.9375,108.6875 Q573.8438,108.6875 574.75,108.9219 Q575.6563,109.1406 576.4844,109.5469 L575.6563,111.6406 Q574.9688,111.3125 574.2813,111.0781 Q573.5938,110.8281 572.9375,110.8281 Z " fill="#000000"/><text fill="#000000" font-family="sans-serif" font-size="14" lengthAdjust="spacing" textLength="66" x="587" y="119.8467">Invocation</text></g><!--class ImportClause--><g id="elem_ImportClause"><rect codeLine="60" fill="#CCFFFF" height="32" id="ImportClause" rx="2.5" ry="2.5" style="stroke:#A9A9A9;stroke-width:0.5;" width="118" x="691" y="99"/><ellipse cx="706" cy="115" fill="#FFFFFF" rx="11" ry="11" style="stroke:#181818;stroke-width:1.0;"/><path d="M705.9375,110.8281 Q705.1875,110.8281 704.625,111.125 Q704.0625,111.4063 703.6719,111.9375 Q703.2813,112.4688 703.0781,113.25 Q702.8906,114.0156 702.8906,114.9688 Q702.8906,115.9375 703.0625,116.7031 Q703.25,117.4531 703.6094,117.9688 Q703.9844,118.4844 704.5625,118.7656 Q705.1406,119.0313 705.9375,119.0313 Q706.6719,119.0313 707.4063,118.8594 Q708.1563,118.6875 709.0313,118.3906 L709.0313,120.5469 Q708.625,120.7031 708.2344,120.8281 Q707.8438,120.9375 707.4375,121.0156 Q707.0313,121.0938 706.6094,121.125 Q706.1875,121.1719 705.6875,121.1719 Q704.2813,121.1719 703.25,120.7188 Q702.2344,120.2656 701.5625,119.4531 Q700.8906,118.6406 700.5625,117.5 Q700.2344,116.3438 700.2344,114.9531 Q700.2344,113.5781 700.6094,112.4219 Q700.9844,111.2656 701.7031,110.4375 Q702.4219,109.6094 703.4844,109.1563 Q704.5469,108.6875 705.9375,108.6875 Q706.8438,108.6875 707.75,108.9219 Q708.6563,109.1406 709.4844,109.5469 L708.6563,111.6406 Q707.9688,111.3125 707.2813,111.0781 Q706.5938,110.8281 705.9375,110.8281 Z " fill="#000000"/><text fill="#000000" font-family="sans-serif" font-size="14" lengthAdjust="spacing" textLength="86" x="720" y="119.8467">ImportClause</text></g><!--class NamedEntity--><g id="elem_NamedEntity"><rect codeLine="62" fill="#CCFFFF" height="32" id="NamedEntity" rx="2.5" ry="2.5" style="stroke:#A9A9A9;stroke-width:0.5;" width="114" x="1327" y="203"/><ellipse cx="1342" cy="219" fill="#FFFFFF" rx="11" ry="11" style="stroke:#181818;stroke-width:1.0;"/><path d="M1341.9375,214.8281 Q1341.1875,214.8281 1340.625,215.125 Q1340.0625,215.4063 1339.6719,215.9375 Q1339.2813,216.4688 1339.0781,217.25 Q1338.8906,218.0156 1338.8906,218.9688 Q1338.8906,219.9375 1339.0625,220.7031 Q1339.25,221.4531 1339.6094,221.9688 Q1339.9844,222.4844 1340.5625,222.7656 Q1341.1406,223.0313 1341.9375,223.0313 Q1342.6719,223.0313 1343.4063,222.8594 Q1344.1563,222.6875 1345.0313,222.3906 L1345.0313,224.5469 Q1344.625,224.7031 1344.2344,224.8281 Q1343.8438,224.9375 1343.4375,225.0156 Q1343.0313,225.0938 1342.6094,225.125 Q1342.1875,225.1719 1341.6875,225.1719 Q1340.2813,225.1719 1339.25,224.7188 Q1338.2344,224.2656 1337.5625,223.4531 Q1336.8906,222.6406 1336.5625,221.5 Q1336.2344,220.3438 1336.2344,218.9531 Q1336.2344,217.5781 1336.6094,216.4219 Q1336.9844,215.2656 1337.7031,214.4375 Q1338.4219,213.6094 1339.4844,213.1563 Q1340.5469,212.6875 1341.9375,212.6875 Q1342.8438,212.6875 1343.75,212.9219 Q1344.6563,213.1406 1345.4844,213.5469 L1344.6563,215.6406 Q1343.9688,215.3125 1343.2813,215.0781 Q1342.5938,214.8281 1341.9375,214.8281 Z " fill="#000000"/><text fill="#000000" font-family="sans-serif" font-size="14" lengthAdjust="spacing" textLength="82" x="1356" y="223.8467">NamedEntity</text></g><!--class Variable--><g id="elem_Variable"><rect codeLine="64" fill="#CCFFFF" height="32" id="Variable" rx="2.5" ry="2.5" style="stroke:#A9A9A9;stroke-width:0.5;" width="84" x="2060" y="459.5"/><ellipse cx="2075" cy="475.5" fill="#FFFFFF" rx="11" ry="11" style="stroke:#181818;stroke-width:1.0;"/><path d="M2074.9375,471.3281 Q2074.1875,471.3281 2073.625,471.625 Q2073.0625,471.9063 2072.6719,472.4375 Q2072.2813,472.9688 2072.0781,473.75 Q2071.8906,474.5156 2071.8906,475.4688 Q2071.8906,476.4375 2072.0625,477.2031 Q2072.25,477.9531 2072.6094,478.4688 Q2072.9844,478.9844 2073.5625,479.2656 Q2074.1406,479.5313 2074.9375,479.5313 Q2075.6719,479.5313 2076.4063,479.3594 Q2077.1563,479.1875 2078.0313,478.8906 L2078.0313,481.0469 Q2077.625,481.2031 2077.2344,481.3281 Q2076.8438,481.4375 2076.4375,481.5156 Q2076.0313,481.5938 2075.6094,481.625 Q2075.1875,481.6719 2074.6875,481.6719 Q2073.2813,481.6719 2072.25,481.2188 Q2071.2344,480.7656 2070.5625,479.9531 Q2069.8906,479.1406 2069.5625,478 Q2069.2344,476.8438 2069.2344,475.4531 Q2069.2344,474.0781 2069.6094,472.9219 Q2069.9844,471.7656 2070.7031,470.9375 Q2071.4219,470.1094 2072.4844,469.6563 Q2073.5469,469.1875 2074.9375,469.1875 Q2075.8438,469.1875 2076.75,469.4219 Q2077.6563,469.6406 2078.4844,470.0469 L2077.6563,472.1406 Q2076.9688,471.8125 2076.2813,471.5781 Q2075.5938,471.3281 2074.9375,471.3281 Z " fill="#000000"/><text fill="#000000" font-family="sans-serif" font-size="14" lengthAdjust="spacing" textLength="52" x="2089" y="480.3467">Variable</text></g><!--class ParametricFunction--><g id="elem_ParametricFunction"><rect codeLine="66" fill="#CCFFFF" height="32" id="ParametricFunction" rx="2.5" ry="2.5" style="stroke:#A9A9A9;stroke-width:0.5;" width="156" x="551" y="680"/><ellipse cx="566" cy="696" fill="#FFFFFF" rx="11" ry="11" style="stroke:#181818;stroke-width:1.0;"/><path d="M565.9375,691.8281 Q565.1875,691.8281 564.625,692.125 Q564.0625,692.4063 563.6719,692.9375 Q563.2813,693.4688 563.0781,694.25 Q562.8906,695.0156 562.8906,695.9688 Q562.8906,696.9375 563.0625,697.7031 Q563.25,698.4531 563.6094,698.9688 Q563.9844,699.4844 564.5625,699.7656 Q565.1406,700.0313 565.9375,700.0313 Q566.6719,700.0313 567.4063,699.8594 Q568.1563,699.6875 569.0313,699.3906 L569.0313,701.5469 Q568.625,701.7031 568.2344,701.8281 Q567.8438,701.9375 567.4375,702.0156 Q567.0313,702.0938 566.6094,702.125 Q566.1875,702.1719 565.6875,702.1719 Q564.2813,702.1719 563.25,701.7188 Q562.2344,701.2656 561.5625,700.4531 Q560.8906,699.6406 560.5625,698.5 Q560.2344,697.3438 560.2344,695.9531 Q560.2344,694.5781 560.6094,693.4219 Q560.9844,692.2656 561.7031,691.4375 Q562.4219,690.6094 563.4844,690.1563 Q564.5469,689.6875 565.9375,689.6875 Q566.8438,689.6875 567.75,689.9219 Q568.6563,690.1406 569.4844,690.5469 L568.6563,692.6406 Q567.9688,692.3125 567.2813,692.0781 Q566.5938,691.8281 565.9375,691.8281 Z " fill="#000000"/><text fill="#000000" font-family="sans-serif" font-size="14" lengthAdjust="spacing" textLength="124" x="580" y="700.8467">ParametricFunction</text></g><!--class Decorator--><g id="elem_Decorator"><rect codeLine="68" fill="#CCFFFF" height="56.2969" id="Decorator" rx="2.5" ry="2.5" style="stroke:#A9A9A9;stroke-width:0.5;" width="122" x="1323" y="307"/><ellipse cx="1349.7" cy="323" fill="#FFFFFF" rx="11" ry="11" style="stroke:#181818;stroke-width:1.0;"/><path d="M1349.6375,318.8281 Q1348.8875,318.8281 1348.325,319.125 Q1347.7625,319.4063 1347.3719,319.9375 Q1346.9813,320.4688 1346.7781,321.25 Q1346.5906,322.0156 1346.5906,322.9688 Q1346.5906,323.9375 1346.7625,324.7031 Q1346.95,325.4531 1347.3094,325.9688 Q1347.6844,326.4844 1348.2625,326.7656 Q1348.8406,327.0313 1349.6375,327.0313 Q1350.3719,327.0313 1351.1063,326.8594 Q1351.8563,326.6875 1352.7313,326.3906 L1352.7313,328.5469 Q1352.325,328.7031 1351.9344,328.8281 Q1351.5438,328.9375 1351.1375,329.0156 Q1350.7313,329.0938 1350.3094,329.125 Q1349.8875,329.1719 1349.3875,329.1719 Q1347.9813,329.1719 1346.95,328.7188 Q1345.9344,328.2656 1345.2625,327.4531 Q1344.5906,326.6406 1344.2625,325.5 Q1343.9344,324.3438 1343.9344,322.9531 Q1343.9344,321.5781 1344.3094,320.4219 Q1344.6844,319.2656 1345.4031,318.4375 Q1346.1219,317.6094 1347.1844,317.1563 Q1348.2469,316.6875 1349.6375,316.6875 Q1350.5438,316.6875 1351.45,316.9219 Q1352.3563,317.1406 1353.1844,317.5469 L1352.3563,319.6406 Q1351.6688,319.3125 1350.9813,319.0781 Q1350.2938,318.8281 1349.6375,318.8281 Z " fill="#000000"/><text fill="#000000" font-family="sans-serif" font-size="14" lengthAdjust="spacing" textLength="64" x="1366.3" y="327.8467">Decorator</text><line style="stroke:#A9A9A9;stroke-width:0.5;" x1="1324" x2="1444" y1="339" y2="339"/><text fill="#000000" font-family="sans-serif" font-size="14" lengthAdjust="spacing" textLength="110" x="1329" y="355.9951">String expression</text></g><!--class Access--><g id="elem_Access"><rect codeLine="71" fill="#CCFFFF" height="32" id="Access" rx="2.5" ry="2.5" style="stroke:#A9A9A9;stroke-width:0.5;" width="73" x="844.5" y="99"/><ellipse cx="859.5" cy="115" fill="#FFFFFF" rx="11" ry="11" style="stroke:#181818;stroke-width:1.0;"/><path d="M859.4375,110.8281 Q858.6875,110.8281 858.125,111.125 Q857.5625,111.4063 857.1719,111.9375 Q856.7813,112.4688 856.5781,113.25 Q856.3906,114.0156 856.3906,114.9688 Q856.3906,115.9375 856.5625,116.7031 Q856.75,117.4531 857.1094,117.9688 Q857.4844,118.4844 858.0625,118.7656 Q858.6406,119.0313 859.4375,119.0313 Q860.1719,119.0313 860.9063,118.8594 Q861.6563,118.6875 862.5313,118.3906 L862.5313,120.5469 Q862.125,120.7031 861.7344,120.8281 Q861.3438,120.9375 860.9375,121.0156 Q860.5313,121.0938 860.1094,121.125 Q859.6875,121.1719 859.1875,121.1719 Q857.7813,121.1719 856.75,120.7188 Q855.7344,120.2656 855.0625,119.4531 Q854.3906,118.6406 854.0625,117.5 Q853.7344,116.3438 853.7344,114.9531 Q853.7344,113.5781 854.1094,112.4219 Q854.4844,111.2656 855.2031,110.4375 Q855.9219,109.6094 856.9844,109.1563 Q858.0469,108.6875 859.4375,108.6875 Q860.3438,108.6875 861.25,108.9219 Q862.1563,109.1406 862.9844,109.5469 L862.1563,111.6406 Q861.4688,111.3125 860.7813,111.0781 Q860.0938,110.8281 859.4375,110.8281 Z " fill="#000000"/><text fill="#000000" font-family="sans-serif" font-size="14" lengthAdjust="spacing" textLength="41" x="873.5" y="119.8467">Access</text></g><!--class Class--><g id="elem_Class"><rect codeLine="73" fill="#CCFFFF" height="32" id="Class" rx="2.5" ry="2.5" style="stroke:#A9A9A9;stroke-width:0.5;" width="63" x="1771.5" y="588"/><ellipse cx="1786.5" cy="604" fill="#FFFFFF" rx="11" ry="11" style="stroke:#181818;stroke-width:1.0;"/><path d="M1786.4375,599.8281 Q1785.6875,599.8281 1785.125,600.125 Q1784.5625,600.4063 1784.1719,600.9375 Q1783.7813,601.4688 1783.5781,602.25 Q1783.3906,603.0156 1783.3906,603.9688 Q1783.3906,604.9375 1783.5625,605.7031 Q1783.75,606.4531 1784.1094,606.9688 Q1784.4844,607.4844 1785.0625,607.7656 Q1785.6406,608.0313 1786.4375,608.0313 Q1787.1719,608.0313 1787.9063,607.8594 Q1788.6563,607.6875 1789.5313,607.3906 L1789.5313,609.5469 Q1789.125,609.7031 1788.7344,609.8281 Q1788.3438,609.9375 1787.9375,610.0156 Q1787.5313,610.0938 1787.1094,610.125 Q1786.6875,610.1719 1786.1875,610.1719 Q1784.7813,610.1719 1783.75,609.7188 Q1782.7344,609.2656 1782.0625,608.4531 Q1781.3906,607.6406 1781.0625,606.5 Q1780.7344,605.3438 1780.7344,603.9531 Q1780.7344,602.5781 1781.1094,601.4219 Q1781.4844,600.2656 1782.2031,599.4375 Q1782.9219,598.6094 1783.9844,598.1563 Q1785.0469,597.6875 1786.4375,597.6875 Q1787.3438,597.6875 1788.25,597.9219 Q1789.1563,598.1406 1789.9844,598.5469 L1789.1563,600.6406 Q1788.4688,600.3125 1787.7813,600.0781 Q1787.0938,599.8281 1786.4375,599.8281 Z " fill="#000000"/><text fill="#000000" font-family="sans-serif" font-size="14" lengthAdjust="spacing" textLength="31" x="1800.5" y="608.8467">Class</text></g><!--class TWithInterfaces--><g id="elem_TWithInterfaces"><rect codeLine="75" fill="#CCFFFF" height="32" id="TWithInterfaces" rx="2.5" ry="2.5" style="stroke:#A9A9A9;stroke-width:0.5;" width="132" x="1104" y="203"/><ellipse cx="1119" cy="219" fill="#FFFFFF" rx="11" ry="11" style="stroke:#181818;stroke-width:1.0;"/><path d="M1120.4531,225.75 L1117.8906,225.75 L1117.8906,215.75 L1114.8438,215.75 L1114.8438,213.6094 L1123.4844,213.6094 L1123.4844,215.75 L1120.4531,215.75 L1120.4531,225.75 Z " fill="#000000"/><text fill="#000000" font-family="sans-serif" font-size="14" lengthAdjust="spacing" textLength="100" x="1133" y="223.8467">TWithInterfaces</text></g><!--class TEntityCreator--><g id="elem_TEntityCreator"><rect codeLine="77" fill="#CCFFFF" height="32" id="TEntityCreator" rx="2.5" ry="2.5" style="stroke:#A9A9A9;stroke-width:0.5;" width="123" x="1734.5" y="7"/><ellipse cx="1749.5" cy="23" fill="#FFFFFF" rx="11" ry="11" style="stroke:#181818;stroke-width:1.0;"/><path d="M1750.9531,29.75 L1748.3906,29.75 L1748.3906,19.75 L1745.3438,19.75 L1745.3438,17.6094 L1753.9844,17.6094 L1753.9844,19.75 L1750.9531,19.75 L1750.9531,29.75 Z " fill="#000000"/><text fill="#000000" font-family="sans-serif" font-size="14" lengthAdjust="spacing" textLength="91" x="1763.5" y="27.8467">TEntityCreator</text></g><!--class Method--><g id="elem_Method"><rect codeLine="79" fill="#CCFFFF" height="32" id="Method" rx="2.5" ry="2.5" style="stroke:#A9A9A9;stroke-width:0.5;" width="81" x="894.5" y="588"/><ellipse cx="909.5" cy="604" fill="#FFFFFF" rx="11" ry="11" style="stroke:#181818;stroke-width:1.0;"/><path d="M909.4375,599.8281 Q908.6875,599.8281 908.125,600.125 Q907.5625,600.4063 907.1719,600.9375 Q906.7813,601.4688 906.5781,602.25 Q906.3906,603.0156 906.3906,603.9688 Q906.3906,604.9375 906.5625,605.7031 Q906.75,606.4531 907.1094,606.9688 Q907.4844,607.4844 908.0625,607.7656 Q908.6406,608.0313 909.4375,608.0313 Q910.1719,608.0313 910.9063,607.8594 Q911.6563,607.6875 912.5313,607.3906 L912.5313,609.5469 Q912.125,609.7031 911.7344,609.8281 Q911.3438,609.9375 910.9375,610.0156 Q910.5313,610.0938 910.1094,610.125 Q909.6875,610.1719 909.1875,610.1719 Q907.7813,610.1719 906.75,609.7188 Q905.7344,609.2656 905.0625,608.4531 Q904.3906,607.6406 904.0625,606.5 Q903.7344,605.3438 903.7344,603.9531 Q903.7344,602.5781 904.1094,601.4219 Q904.4844,600.2656 905.2031,599.4375 Q905.9219,598.6094 906.9844,598.1563 Q908.0469,597.6875 909.4375,597.6875 Q910.3438,597.6875 911.25,597.9219 Q912.1563,598.1406 912.9844,598.5469 L912.1563,600.6406 Q911.4688,600.3125 910.7813,600.0781 Q910.0938,599.8281 909.4375,599.8281 Z " fill="#000000"/><text fill="#000000" font-family="sans-serif" font-size="14" lengthAdjust="spacing" textLength="49" x="923.5" y="608.8467">Method</text></g><!--class File--><g id="elem_File"><rect codeLine="81" fill="#CCFFFF" height="32" id="File" rx="2.5" ry="2.5" style="stroke:#A9A9A9;stroke-width:0.5;" width="55" x="1480.5" y="319"/><ellipse cx="1495.5" cy="335" fill="#FFFFFF" rx="11" ry="11" style="stroke:#181818;stroke-width:1.0;"/><path d="M1495.4375,330.8281 Q1494.6875,330.8281 1494.125,331.125 Q1493.5625,331.4063 1493.1719,331.9375 Q1492.7813,332.4688 1492.5781,333.25 Q1492.3906,334.0156 1492.3906,334.9688 Q1492.3906,335.9375 1492.5625,336.7031 Q1492.75,337.4531 1493.1094,337.9688 Q1493.4844,338.4844 1494.0625,338.7656 Q1494.6406,339.0313 1495.4375,339.0313 Q1496.1719,339.0313 1496.9063,338.8594 Q1497.6563,338.6875 1498.5313,338.3906 L1498.5313,340.5469 Q1498.125,340.7031 1497.7344,340.8281 Q1497.3438,340.9375 1496.9375,341.0156 Q1496.5313,341.0938 1496.1094,341.125 Q1495.6875,341.1719 1495.1875,341.1719 Q1493.7813,341.1719 1492.75,340.7188 Q1491.7344,340.2656 1491.0625,339.4531 Q1490.3906,338.6406 1490.0625,337.5 Q1489.7344,336.3438 1489.7344,334.9531 Q1489.7344,333.5781 1490.1094,332.4219 Q1490.4844,331.2656 1491.2031,330.4375 Q1491.9219,329.6094 1492.9844,329.1563 Q1494.0469,328.6875 1495.4375,328.6875 Q1496.3438,328.6875 1497.25,328.9219 Q1498.1563,329.1406 1498.9844,329.5469 L1498.1563,331.6406 Q1497.4688,331.3125 1496.7813,331.0781 Q1496.0938,330.8281 1495.4375,330.8281 Z " fill="#000000"/><text fill="#000000" font-family="sans-serif" font-size="14" lengthAdjust="spacing" textLength="23" x="1509.5" y="339.8467">File</text></g><!--class Module--><g id="elem_Module"><rect codeLine="83" fill="#CCFFFF" height="32" id="Module" rx="2.5" ry="2.5" style="stroke:#A9A9A9;stroke-width:0.5;" width="80" x="436" y="680"/><ellipse cx="451" cy="696" fill="#FFFFFF" rx="11" ry="11" style="stroke:#181818;stroke-width:1.0;"/><path d="M450.9375,691.8281 Q450.1875,691.8281 449.625,692.125 Q449.0625,692.4063 448.6719,692.9375 Q448.2813,693.4688 448.0781,694.25 Q447.8906,695.0156 447.8906,695.9688 Q447.8906,696.9375 448.0625,697.7031 Q448.25,698.4531 448.6094,698.9688 Q448.9844,699.4844 449.5625,699.7656 Q450.1406,700.0313 450.9375,700.0313 Q451.6719,700.0313 452.4063,699.8594 Q453.1563,699.6875 454.0313,699.3906 L454.0313,701.5469 Q453.625,701.7031 453.2344,701.8281 Q452.8438,701.9375 452.4375,702.0156 Q452.0313,702.0938 451.6094,702.125 Q451.1875,702.1719 450.6875,702.1719 Q449.2813,702.1719 448.25,701.7188 Q447.2344,701.2656 446.5625,700.4531 Q445.8906,699.6406 445.5625,698.5 Q445.2344,697.3438 445.2344,695.9531 Q445.2344,694.5781 445.6094,693.4219 Q445.9844,692.2656 446.7031,691.4375 Q447.4219,690.6094 448.4844,690.1563 Q449.5469,689.6875 450.9375,689.6875 Q451.8438,689.6875 452.75,689.9219 Q453.6563,690.1406 454.4844,690.5469 L453.6563,692.6406 Q452.9688,692.3125 452.2813,692.0781 Q451.5938,691.8281 450.9375,691.8281 Z " fill="#000000"/><text fill="#000000" font-family="sans-serif" font-size="14" lengthAdjust="spacing" textLength="48" x="465" y="700.8467">Module</text></g><!--class IndexedFileAnchor--><g id="elem_IndexedFileAnchor"><rect codeLine="85" fill="#CCFFFF" height="32" id="IndexedFileAnchor" rx="2.5" ry="2.5" style="stroke:#A9A9A9;stroke-width:0.5;" width="152" x="480" y="203"/><ellipse cx="495" cy="219" fill="#FFFFFF" rx="11" ry="11" style="stroke:#181818;stroke-width:1.0;"/><path d="M494.9375,214.8281 Q494.1875,214.8281 493.625,215.125 Q493.0625,215.4063 492.6719,215.9375 Q492.2813,216.4688 492.0781,217.25 Q491.8906,218.0156 491.8906,218.9688 Q491.8906,219.9375 492.0625,220.7031 Q492.25,221.4531 492.6094,221.9688 Q492.9844,222.4844 493.5625,222.7656 Q494.1406,223.0313 494.9375,223.0313 Q495.6719,223.0313 496.4063,222.8594 Q497.1563,222.6875 498.0313,222.3906 L498.0313,224.5469 Q497.625,224.7031 497.2344,224.8281 Q496.8438,224.9375 496.4375,225.0156 Q496.0313,225.0938 495.6094,225.125 Q495.1875,225.1719 494.6875,225.1719 Q493.2813,225.1719 492.25,224.7188 Q491.2344,224.2656 490.5625,223.4531 Q489.8906,222.6406 489.5625,221.5 Q489.2344,220.3438 489.2344,218.9531 Q489.2344,217.5781 489.6094,216.4219 Q489.9844,215.2656 490.7031,214.4375 Q491.4219,213.6094 492.4844,213.1563 Q493.5469,212.6875 494.9375,212.6875 Q495.8438,212.6875 496.75,212.9219 Q497.6563,213.1406 498.4844,213.5469 L497.6563,215.6406 Q496.9688,215.3125 496.2813,215.0781 Q495.5938,214.8281 494.9375,214.8281 Z " fill="#000000"/><text fill="#000000" font-family="sans-serif" font-size="14" lengthAdjust="spacing" textLength="120" x="509" y="223.8467">IndexedFileAnchor</text></g><!--class EnumValue--><g id="elem_EnumValue"><rect codeLine="87" fill="#CCFFFF" height="32" id="EnumValue" rx="2.5" ry="2.5" style="stroke:#A9A9A9;stroke-width:0.5;" width="103" x="1921.5" y="459.5"/><ellipse cx="1936.5" cy="475.5" fill="#FFFFFF" rx="11" ry="11" style="stroke:#181818;stroke-width:1.0;"/><path d="M1936.4375,471.3281 Q1935.6875,471.3281 1935.125,471.625 Q1934.5625,471.9063 1934.1719,472.4375 Q1933.7813,472.9688 1933.5781,473.75 Q1933.3906,474.5156 1933.3906,475.4688 Q1933.3906,476.4375 1933.5625,477.2031 Q1933.75,477.9531 1934.1094,478.4688 Q1934.4844,478.9844 1935.0625,479.2656 Q1935.6406,479.5313 1936.4375,479.5313 Q1937.1719,479.5313 1937.9063,479.3594 Q1938.6563,479.1875 1939.5313,478.8906 L1939.5313,481.0469 Q1939.125,481.2031 1938.7344,481.3281 Q1938.3438,481.4375 1937.9375,481.5156 Q1937.5313,481.5938 1937.1094,481.625 Q1936.6875,481.6719 1936.1875,481.6719 Q1934.7813,481.6719 1933.75,481.2188 Q1932.7344,480.7656 1932.0625,479.9531 Q1931.3906,479.1406 1931.0625,478 Q1930.7344,476.8438 1930.7344,475.4531 Q1930.7344,474.0781 1931.1094,472.9219 Q1931.4844,471.7656 1932.2031,470.9375 Q1932.9219,470.1094 1933.9844,469.6563 Q1935.0469,469.1875 1936.4375,469.1875 Q1937.3438,469.1875 1938.25,469.4219 Q1939.1563,469.6406 1939.9844,470.0469 L1939.1563,472.1406 Q1938.4688,471.8125 1937.7813,471.5781 Q1937.0938,471.3281 1936.4375,471.3281 Z " fill="#000000"/><text fill="#000000" font-family="sans-serif" font-size="14" lengthAdjust="spacing" textLength="71" x="1950.5" y="480.3467">EnumValue</text></g><!--class SourcedEntity--><g id="elem_SourcedEntity"><rect codeLine="89" fill="#CCFFFF" height="32" id="SourcedEntity" rx="2.5" ry="2.5" style="stroke:#A9A9A9;stroke-width:0.5;" width="119" x="952.5" y="99"/><ellipse cx="967.5" cy="115" fill="#FFFFFF" rx="11" ry="11" style="stroke:#181818;stroke-width:1.0;"/><path d="M967.4375,110.8281 Q966.6875,110.8281 966.125,111.125 Q965.5625,111.4063 965.1719,111.9375 Q964.7813,112.4688 964.5781,113.25 Q964.3906,114.0156 964.3906,114.9688 Q964.3906,115.9375 964.5625,116.7031 Q964.75,117.4531 965.1094,117.9688 Q965.4844,118.4844 966.0625,118.7656 Q966.6406,119.0313 967.4375,119.0313 Q968.1719,119.0313 968.9063,118.8594 Q969.6563,118.6875 970.5313,118.3906 L970.5313,120.5469 Q970.125,120.7031 969.7344,120.8281 Q969.3438,120.9375 968.9375,121.0156 Q968.5313,121.0938 968.1094,121.125 Q967.6875,121.1719 967.1875,121.1719 Q965.7813,121.1719 964.75,120.7188 Q963.7344,120.2656 963.0625,119.4531 Q962.3906,118.6406 962.0625,117.5 Q961.7344,116.3438 961.7344,114.9531 Q961.7344,113.5781 962.1094,112.4219 Q962.4844,111.2656 963.2031,110.4375 Q963.9219,109.6094 964.9844,109.1563 Q966.0469,108.6875 967.4375,108.6875 Q968.3438,108.6875 969.25,108.9219 Q970.1563,109.1406 970.9844,109.5469 L970.1563,111.6406 Q969.4688,111.3125 968.7813,111.0781 Q968.0938,110.8281 967.4375,110.8281 Z " fill="#000000"/><text fill="#000000" font-family="sans-serif" font-size="14" lengthAdjust="spacing" textLength="87" x="981.5" y="119.8467">SourcedEntity</text></g><!--class TClassMetrics--><g id="elem_TClassMetrics"><rect codeLine="91" fill="#CCFFFF" height="32" id="TClassMetrics" rx="2.5" ry="2.5" style="stroke:#A9A9A9;stroke-width:0.5;" width="117" x="1769.5" y="459.5"/><ellipse cx="1784.5" cy="475.5" fill="#FFFFFF" rx="11" ry="11" style="stroke:#181818;stroke-width:1.0;"/><path d="M1785.9531,482.25 L1783.3906,482.25 L1783.3906,472.25 L1780.3438,472.25 L1780.3438,470.1094 L1788.9844,470.1094 L1788.9844,472.25 L1785.9531,472.25 L1785.9531,482.25 Z " fill="#000000"/><text fill="#000000" font-family="sans-serif" font-size="14" lengthAdjust="spacing" textLength="85" x="1798.5" y="480.3467">TClassMetrics</text></g><!--class ArrowFunction--><g id="elem_ArrowFunction"><rect codeLine="93" fill="#CCFFFF" height="32" id="ArrowFunction" rx="2.5" ry="2.5" style="stroke:#A9A9A9;stroke-width:0.5;" width="125" x="1010.5" y="588"/><ellipse cx="1025.5" cy="604" fill="#FFFFFF" rx="11" ry="11" style="stroke:#181818;stroke-width:1.0;"/><path d="M1025.4375,599.8281 Q1024.6875,599.8281 1024.125,600.125 Q1023.5625,600.4063 1023.1719,600.9375 Q1022.7813,601.4688 1022.5781,602.25 Q1022.3906,603.0156 1022.3906,603.9688 Q1022.3906,604.9375 1022.5625,605.7031 Q1022.75,606.4531 1023.1094,606.9688 Q1023.4844,607.4844 1024.0625,607.7656 Q1024.6406,608.0313 1025.4375,608.0313 Q1026.1719,608.0313 1026.9063,607.8594 Q1027.6563,607.6875 1028.5313,607.3906 L1028.5313,609.5469 Q1028.125,609.7031 1027.7344,609.8281 Q1027.3438,609.9375 1026.9375,610.0156 Q1026.5313,610.0938 1026.1094,610.125 Q1025.6875,610.1719 1025.1875,610.1719 Q1023.7813,610.1719 1022.75,609.7188 Q1021.7344,609.2656 1021.0625,608.4531 Q1020.3906,607.6406 1020.0625,606.5 Q1019.7344,605.3438 1019.7344,603.9531 Q1019.7344,602.5781 1020.1094,601.4219 Q1020.4844,600.2656 1021.2031,599.4375 Q1021.9219,598.6094 1022.9844,598.1563 Q1024.0469,597.6875 1025.4375,597.6875 Q1026.3438,597.6875 1027.25,597.9219 Q1028.1563,598.1406 1028.9844,598.5469 L1028.1563,600.6406 Q1027.4688,600.3125 1026.7813,600.0781 Q1026.0938,599.8281 1025.4375,599.8281 Z " fill="#000000"/><text fill="#000000" font-family="sans-serif" font-size="14" lengthAdjust="spacing" textLength="93" x="1039.5" y="608.8467">ArrowFunction</text></g><!--class Concretization--><g id="elem_Concretization"><rect codeLine="95" fill="#CCFFFF" height="32" id="Concretization" rx="2.5" ry="2.5" style="stroke:#A9A9A9;stroke-width:0.5;" width="123" x="1106.5" y="99"/><ellipse cx="1121.5" cy="115" fill="#FFFFFF" rx="11" ry="11" style="stroke:#181818;stroke-width:1.0;"/><path d="M1121.4375,110.8281 Q1120.6875,110.8281 1120.125,111.125 Q1119.5625,111.4063 1119.1719,111.9375 Q1118.7813,112.4688 1118.5781,113.25 Q1118.3906,114.0156 1118.3906,114.9688 Q1118.3906,115.9375 1118.5625,116.7031 Q1118.75,117.4531 1119.1094,117.9688 Q1119.4844,118.4844 1120.0625,118.7656 Q1120.6406,119.0313 1121.4375,119.0313 Q1122.1719,119.0313 1122.9063,118.8594 Q1123.6563,118.6875 1124.5313,118.3906 L1124.5313,120.5469 Q1124.125,120.7031 1123.7344,120.8281 Q1123.3438,120.9375 1122.9375,121.0156 Q1122.5313,121.0938 1122.1094,121.125 Q1121.6875,121.1719 1121.1875,121.1719 Q1119.7813,121.1719 1118.75,120.7188 Q1117.7344,120.2656 1117.0625,119.4531 Q1116.3906,118.6406 1116.0625,117.5 Q1115.7344,116.3438 1115.7344,114.9531 Q1115.7344,113.5781 1116.1094,112.4219 Q1116.4844,111.2656 1117.2031,110.4375 Q1117.9219,109.6094 1118.9844,109.1563 Q1120.0469,108.6875 1121.4375,108.6875 Q1122.3438,108.6875 1123.25,108.9219 Q1124.1563,109.1406 1124.9844,109.5469 L1124.1563,111.6406 Q1123.4688,111.3125 1122.7813,111.0781 Q1122.0938,110.8281 1121.4375,110.8281 Z " fill="#000000"/><text fill="#000000" font-family="sans-serif" font-size="14" lengthAdjust="spacing" textLength="91" x="1135.5" y="119.8467">Concretization</text></g><!--class Inheritance--><g id="elem_Inheritance"><rect codeLine="97" fill="#CCFFFF" height="32" id="Inheritance" rx="2.5" ry="2.5" style="stroke:#A9A9A9;stroke-width:0.5;" width="105" x="1264.5" y="99"/><ellipse cx="1279.5" cy="115" fill="#FFFFFF" rx="11" ry="11" style="stroke:#181818;stroke-width:1.0;"/><path d="M1279.4375,110.8281 Q1278.6875,110.8281 1278.125,111.125 Q1277.5625,111.4063 1277.1719,111.9375 Q1276.7813,112.4688 1276.5781,113.25 Q1276.3906,114.0156 1276.3906,114.9688 Q1276.3906,115.9375 1276.5625,116.7031 Q1276.75,117.4531 1277.1094,117.9688 Q1277.4844,118.4844 1278.0625,118.7656 Q1278.6406,119.0313 1279.4375,119.0313 Q1280.1719,119.0313 1280.9063,118.8594 Q1281.6563,118.6875 1282.5313,118.3906 L1282.5313,120.5469 Q1282.125,120.7031 1281.7344,120.8281 Q1281.3438,120.9375 1280.9375,121.0156 Q1280.5313,121.0938 1280.1094,121.125 Q1279.6875,121.1719 1279.1875,121.1719 Q1277.7813,121.1719 1276.75,120.7188 Q1275.7344,120.2656 1275.0625,119.4531 Q1274.3906,118.6406 1274.0625,117.5 Q1273.7344,116.3438 1273.7344,114.9531 Q1273.7344,113.5781 1274.1094,112.4219 Q1274.4844,111.2656 1275.2031,110.4375 Q1275.9219,109.6094 1276.9844,109.1563 Q1278.0469,108.6875 1279.4375,108.6875 Q1280.3438,108.6875 1281.25,108.9219 Q1282.1563,109.1406 1282.9844,109.5469 L1282.1563,111.6406 Q1281.4688,111.3125 1280.7813,111.0781 Q1280.0938,110.8281 1279.4375,110.8281 Z " fill="#000000"/><text fill="#000000" font-family="sans-serif" font-size="14" lengthAdjust="spacing" textLength="73" x="1293.5" y="119.8467">Inheritance</text></g><!--class StructuralEntity--><g id="elem_StructuralEntity"><rect codeLine="99" fill="#CCFFFF" height="32" id="StructuralEntity" rx="2.5" ry="2.5" style="stroke:#A9A9A9;stroke-width:0.5;" width="130" x="1571" y="319"/><ellipse cx="1586" cy="335" fill="#FFFFFF" rx="11" ry="11" style="stroke:#181818;stroke-width:1.0;"/><path d="M1585.9375,330.8281 Q1585.1875,330.8281 1584.625,331.125 Q1584.0625,331.4063 1583.6719,331.9375 Q1583.2813,332.4688 1583.0781,333.25 Q1582.8906,334.0156 1582.8906,334.9688 Q1582.8906,335.9375 1583.0625,336.7031 Q1583.25,337.4531 1583.6094,337.9688 Q1583.9844,338.4844 1584.5625,338.7656 Q1585.1406,339.0313 1585.9375,339.0313 Q1586.6719,339.0313 1587.4063,338.8594 Q1588.1563,338.6875 1589.0313,338.3906 L1589.0313,340.5469 Q1588.625,340.7031 1588.2344,340.8281 Q1587.8438,340.9375 1587.4375,341.0156 Q1587.0313,341.0938 1586.6094,341.125 Q1586.1875,341.1719 1585.6875,341.1719 Q1584.2813,341.1719 1583.25,340.7188 Q1582.2344,340.2656 1581.5625,339.4531 Q1580.8906,338.6406 1580.5625,337.5 Q1580.2344,336.3438 1580.2344,334.9531 Q1580.2344,333.5781 1580.6094,332.4219 Q1580.9844,331.2656 1581.7031,330.4375 Q1582.4219,329.6094 1583.4844,329.1563 Q1584.5469,328.6875 1585.9375,328.6875 Q1586.8438,328.6875 1587.75,328.9219 Q1588.6563,329.1406 1589.4844,329.5469 L1588.6563,331.6406 Q1587.9688,331.3125 1587.2813,331.0781 Q1586.5938,330.8281 1585.9375,330.8281 Z " fill="#000000"/><text fill="#000000" font-family="sans-serif" font-size="14" lengthAdjust="spacing" textLength="98" x="1600" y="339.8467">StructuralEntity</text></g><!--class Accessor--><g id="elem_Accessor"><rect codeLine="101" fill="#CCFFFF" height="32" id="Accessor" rx="2.5" ry="2.5" style="stroke:#A9A9A9;stroke-width:0.5;" width="87" x="742.5" y="680"/><ellipse cx="757.5" cy="696" fill="#FFFFFF" rx="11" ry="11" style="stroke:#181818;stroke-width:1.0;"/><path d="M757.4375,691.8281 Q756.6875,691.8281 756.125,692.125 Q755.5625,692.4063 755.1719,692.9375 Q754.7813,693.4688 754.5781,694.25 Q754.3906,695.0156 754.3906,695.9688 Q754.3906,696.9375 754.5625,697.7031 Q754.75,698.4531 755.1094,698.9688 Q755.4844,699.4844 756.0625,699.7656 Q756.6406,700.0313 757.4375,700.0313 Q758.1719,700.0313 758.9063,699.8594 Q759.6563,699.6875 760.5313,699.3906 L760.5313,701.5469 Q760.125,701.7031 759.7344,701.8281 Q759.3438,701.9375 758.9375,702.0156 Q758.5313,702.0938 758.1094,702.125 Q757.6875,702.1719 757.1875,702.1719 Q755.7813,702.1719 754.75,701.7188 Q753.7344,701.2656 753.0625,700.4531 Q752.3906,699.6406 752.0625,698.5 Q751.7344,697.3438 751.7344,695.9531 Q751.7344,694.5781 752.1094,693.4219 Q752.4844,692.2656 753.2031,691.4375 Q753.9219,690.6094 754.9844,690.1563 Q756.0469,689.6875 757.4375,689.6875 Q758.3438,689.6875 759.25,689.9219 Q760.1563,690.1406 760.9844,690.5469 L760.1563,692.6406 Q759.4688,692.3125 758.7813,692.0781 Q758.0938,691.8281 757.4375,691.8281 Z " fill="#000000"/><text fill="#000000" font-family="sans-serif" font-size="14" lengthAdjust="spacing" textLength="55" x="771.5" y="700.8467">Accessor</text></g><!--class Reference--><g id="elem_Reference"><rect codeLine="103" fill="#CCFFFF" height="32" id="Reference" rx="2.5" ry="2.5" style="stroke:#A9A9A9;stroke-width:0.5;" width="97" x="1404.5" y="99"/><ellipse cx="1419.5" cy="115" fill="#FFFFFF" rx="11" ry="11" style="stroke:#181818;stroke-width:1.0;"/><path d="M1419.4375,110.8281 Q1418.6875,110.8281 1418.125,111.125 Q1417.5625,111.4063 1417.1719,111.9375 Q1416.7813,112.4688 1416.5781,113.25 Q1416.3906,114.0156 1416.3906,114.9688 Q1416.3906,115.9375 1416.5625,116.7031 Q1416.75,117.4531 1417.1094,117.9688 Q1417.4844,118.4844 1418.0625,118.7656 Q1418.6406,119.0313 1419.4375,119.0313 Q1420.1719,119.0313 1420.9063,118.8594 Q1421.6563,118.6875 1422.5313,118.3906 L1422.5313,120.5469 Q1422.125,120.7031 1421.7344,120.8281 Q1421.3438,120.9375 1420.9375,121.0156 Q1420.5313,121.0938 1420.1094,121.125 Q1419.6875,121.1719 1419.1875,121.1719 Q1417.7813,121.1719 1416.75,120.7188 Q1415.7344,120.2656 1415.0625,119.4531 Q1414.3906,118.6406 1414.0625,117.5 Q1413.7344,116.3438 1413.7344,114.9531 Q1413.7344,113.5781 1414.1094,112.4219 Q1414.4844,111.2656 1415.2031,110.4375 Q1415.9219,109.6094 1416.9844,109.1563 Q1418.0469,108.6875 1419.4375,108.6875 Q1420.3438,108.6875 1421.25,108.9219 Q1422.1563,109.1406 1422.9844,109.5469 L1422.1563,111.6406 Q1421.4688,111.3125 1420.7813,111.0781 Q1420.0938,110.8281 1419.4375,110.8281 Z " fill="#000000"/><text fill="#000000" font-family="sans-serif" font-size="14" lengthAdjust="spacing" textLength="65" x="1433.5" y="119.8467">Reference</text></g><!--class ScriptEntity--><g id="elem_ScriptEntity"><rect codeLine="105" fill="#CCFFFF" height="32" id="ScriptEntity" rx="2.5" ry="2.5" style="stroke:#A9A9A9;stroke-width:0.5;" width="104" x="461" y="588"/><ellipse cx="476" cy="604" fill="#FFFFFF" rx="11" ry="11" style="stroke:#181818;stroke-width:1.0;"/><path d="M475.9375,599.8281 Q475.1875,599.8281 474.625,600.125 Q474.0625,600.4063 473.6719,600.9375 Q473.2813,601.4688 473.0781,602.25 Q472.8906,603.0156 472.8906,603.9688 Q472.8906,604.9375 473.0625,605.7031 Q473.25,606.4531 473.6094,606.9688 Q473.9844,607.4844 474.5625,607.7656 Q475.1406,608.0313 475.9375,608.0313 Q476.6719,608.0313 477.4063,607.8594 Q478.1563,607.6875 479.0313,607.3906 L479.0313,609.5469 Q478.625,609.7031 478.2344,609.8281 Q477.8438,609.9375 477.4375,610.0156 Q477.0313,610.0938 476.6094,610.125 Q476.1875,610.1719 475.6875,610.1719 Q474.2813,610.1719 473.25,609.7188 Q472.2344,609.2656 471.5625,608.4531 Q470.8906,607.6406 470.5625,606.5 Q470.2344,605.3438 470.2344,603.9531 Q470.2344,602.5781 470.6094,601.4219 Q470.9844,600.2656 471.7031,599.4375 Q472.4219,598.6094 473.4844,598.1563 Q474.5469,597.6875 475.9375,597.6875 Q476.8438,597.6875 477.75,597.9219 Q478.6563,598.1406 479.4844,598.5469 L478.6563,600.6406 Q477.9688,600.3125 477.2813,600.0781 Q476.5938,599.8281 475.9375,599.8281 Z " fill="#000000"/><text fill="#000000" font-family="sans-serif" font-size="14" lengthAdjust="spacing" textLength="72" x="490" y="608.8467">ScriptEntity</text></g><!--class Implementation--><g id="elem_Implementation"><rect codeLine="107" fill="#CCFFFF" height="32" id="Implementation" rx="2.5" ry="2.5" style="stroke:#A9A9A9;stroke-width:0.5;" width="136" x="1537" y="99"/><ellipse cx="1552" cy="115" fill="#FFFFFF" rx="11" ry="11" style="stroke:#181818;stroke-width:1.0;"/><path d="M1551.9375,110.8281 Q1551.1875,110.8281 1550.625,111.125 Q1550.0625,111.4063 1549.6719,111.9375 Q1549.2813,112.4688 1549.0781,113.25 Q1548.8906,114.0156 1548.8906,114.9688 Q1548.8906,115.9375 1549.0625,116.7031 Q1549.25,117.4531 1549.6094,117.9688 Q1549.9844,118.4844 1550.5625,118.7656 Q1551.1406,119.0313 1551.9375,119.0313 Q1552.6719,119.0313 1553.4063,118.8594 Q1554.1563,118.6875 1555.0313,118.3906 L1555.0313,120.5469 Q1554.625,120.7031 1554.2344,120.8281 Q1553.8438,120.9375 1553.4375,121.0156 Q1553.0313,121.0938 1552.6094,121.125 Q1552.1875,121.1719 1551.6875,121.1719 Q1550.2813,121.1719 1549.25,120.7188 Q1548.2344,120.2656 1547.5625,119.4531 Q1546.8906,118.6406 1546.5625,117.5 Q1546.2344,116.3438 1546.2344,114.9531 Q1546.2344,113.5781 1546.6094,112.4219 Q1546.9844,111.2656 1547.7031,110.4375 Q1548.4219,109.6094 1549.4844,109.1563 Q1550.5469,108.6875 1551.9375,108.6875 Q1552.8438,108.6875 1553.75,108.9219 Q1554.6563,109.1406 1555.4844,109.5469 L1554.6563,111.6406 Q1553.9688,111.3125 1553.2813,111.0781 Q1552.5938,110.8281 1551.9375,110.8281 Z " fill="#000000"/><text fill="#000000" font-family="sans-serif" font-size="14" lengthAdjust="spacing" textLength="104" x="1566" y="119.8467">Implementation</text></g><!--class ScopingEntity--><g id="elem_ScopingEntity"><rect codeLine="109" fill="#CCFFFF" height="32" id="ScopingEntity" rx="2.5" ry="2.5" style="stroke:#A9A9A9;stroke-width:0.5;" width="116" x="613" y="459.5"/><ellipse cx="628" cy="475.5" fill="#FFFFFF" rx="11" ry="11" style="stroke:#181818;stroke-width:1.0;"/><path d="M627.9375,471.3281 Q627.1875,471.3281 626.625,471.625 Q626.0625,471.9063 625.6719,472.4375 Q625.2813,472.9688 625.0781,473.75 Q624.8906,474.5156 624.8906,475.4688 Q624.8906,476.4375 625.0625,477.2031 Q625.25,477.9531 625.6094,478.4688 Q625.9844,478.9844 626.5625,479.2656 Q627.1406,479.5313 627.9375,479.5313 Q628.6719,479.5313 629.4063,479.3594 Q630.1563,479.1875 631.0313,478.8906 L631.0313,481.0469 Q630.625,481.2031 630.2344,481.3281 Q629.8438,481.4375 629.4375,481.5156 Q629.0313,481.5938 628.6094,481.625 Q628.1875,481.6719 627.6875,481.6719 Q626.2813,481.6719 625.25,481.2188 Q624.2344,480.7656 623.5625,479.9531 Q622.8906,479.1406 622.5625,478 Q622.2344,476.8438 622.2344,475.4531 Q622.2344,474.0781 622.6094,472.9219 Q622.9844,471.7656 623.7031,470.9375 Q624.4219,470.1094 625.4844,469.6563 Q626.5469,469.1875 627.9375,469.1875 Q628.8438,469.1875 629.75,469.4219 Q630.6563,469.6406 631.4844,470.0469 L630.6563,472.1406 Q629.9688,471.8125 629.2813,471.5781 Q628.5938,471.3281 627.9375,471.3281 Z " fill="#000000"/><text fill="#000000" font-family="sans-serif" font-size="14" lengthAdjust="spacing" textLength="84" x="642" y="480.3467">ScopingEntity</text></g><!--class ParametricClass--><g id="elem_ParametricClass"><rect codeLine="111" fill="#CCFFFF" height="32" id="ParametricClass" rx="2.5" ry="2.5" style="stroke:#A9A9A9;stroke-width:0.5;" width="133" x="1736.5" y="680"/><ellipse cx="1751.5" cy="696" fill="#FFFFFF" rx="11" ry="11" style="stroke:#181818;stroke-width:1.0;"/><path d="M1751.4375,691.8281 Q1750.6875,691.8281 1750.125,692.125 Q1749.5625,692.4063 1749.1719,692.9375 Q1748.7813,693.4688 1748.5781,694.25 Q1748.3906,695.0156 1748.3906,695.9688 Q1748.3906,696.9375 1748.5625,697.7031 Q1748.75,698.4531 1749.1094,698.9688 Q1749.4844,699.4844 1750.0625,699.7656 Q1750.6406,700.0313 1751.4375,700.0313 Q1752.1719,700.0313 1752.9063,699.8594 Q1753.6563,699.6875 1754.5313,699.3906 L1754.5313,701.5469 Q1754.125,701.7031 1753.7344,701.8281 Q1753.3438,701.9375 1752.9375,702.0156 Q1752.5313,702.0938 1752.1094,702.125 Q1751.6875,702.1719 1751.1875,702.1719 Q1749.7813,702.1719 1748.75,701.7188 Q1747.7344,701.2656 1747.0625,700.4531 Q1746.3906,699.6406 1746.0625,698.5 Q1745.7344,697.3438 1745.7344,695.9531 Q1745.7344,694.5781 1746.1094,693.4219 Q1746.4844,692.2656 1747.2031,691.4375 Q1747.9219,690.6094 1748.9844,690.1563 Q1750.0469,689.6875 1751.4375,689.6875 Q1752.3438,689.6875 1753.25,689.9219 Q1754.1563,690.1406 1754.9844,690.5469 L1754.1563,692.6406 Q1753.4688,692.3125 1752.7813,692.0781 Q1752.0938,691.8281 1751.4375,691.8281 Z " fill="#000000"/><text fill="#000000" font-family="sans-serif" font-size="14" lengthAdjust="spacing" textLength="101" x="1765.5" y="700.8467">ParametricClass</text></g><!--class Function--><g id="elem_Function"><rect codeLine="113" fill="#CCFFFF" height="32" id="Function" rx="2.5" ry="2.5" style="stroke:#A9A9A9;stroke-width:0.5;" width="86" x="768" y="588"/><ellipse cx="783" cy="604" fill="#FFFFFF" rx="11" ry="11" style="stroke:#181818;stroke-width:1.0;"/><path d="M782.9375,599.8281 Q782.1875,599.8281 781.625,600.125 Q781.0625,600.4063 780.6719,600.9375 Q780.2813,601.4688 780.0781,602.25 Q779.8906,603.0156 779.8906,603.9688 Q779.8906,604.9375 780.0625,605.7031 Q780.25,606.4531 780.6094,606.9688 Q780.9844,607.4844 781.5625,607.7656 Q782.1406,608.0313 782.9375,608.0313 Q783.6719,608.0313 784.4063,607.8594 Q785.1563,607.6875 786.0313,607.3906 L786.0313,609.5469 Q785.625,609.7031 785.2344,609.8281 Q784.8438,609.9375 784.4375,610.0156 Q784.0313,610.0938 783.6094,610.125 Q783.1875,610.1719 782.6875,610.1719 Q781.2813,610.1719 780.25,609.7188 Q779.2344,609.2656 778.5625,608.4531 Q777.8906,607.6406 777.5625,606.5 Q777.2344,605.3438 777.2344,603.9531 Q777.2344,602.5781 777.6094,601.4219 Q777.9844,600.2656 778.7031,599.4375 Q779.4219,598.6094 780.4844,598.1563 Q781.5469,597.6875 782.9375,597.6875 Q783.8438,597.6875 784.75,597.9219 Q785.6563,598.1406 786.4844,598.5469 L785.6563,600.6406 Q784.9688,600.3125 784.2813,600.0781 Q783.5938,599.8281 782.9375,599.8281 Z " fill="#000000"/><text fill="#000000" font-family="sans-serif" font-size="14" lengthAdjust="spacing" textLength="54" x="797" y="608.8467">Function</text></g><!--class ParametricArrowFunction--><g id="elem_ParametricArrowFunction"><rect codeLine="115" fill="#CCFFFF" height="32" id="ParametricArrowFunction" rx="2.5" ry="2.5" style="stroke:#A9A9A9;stroke-width:0.5;" width="195" x="1050.5" y="680"/><ellipse cx="1065.5" cy="696" fill="#FFFFFF" rx="11" ry="11" style="stroke:#181818;stroke-width:1.0;"/><path d="M1065.4375,691.8281 Q1064.6875,691.8281 1064.125,692.125 Q1063.5625,692.4063 1063.1719,692.9375 Q1062.7813,693.4688 1062.5781,694.25 Q1062.3906,695.0156 1062.3906,695.9688 Q1062.3906,696.9375 1062.5625,697.7031 Q1062.75,698.4531 1063.1094,698.9688 Q1063.4844,699.4844 1064.0625,699.7656 Q1064.6406,700.0313 1065.4375,700.0313 Q1066.1719,700.0313 1066.9063,699.8594 Q1067.6563,699.6875 1068.5313,699.3906 L1068.5313,701.5469 Q1068.125,701.7031 1067.7344,701.8281 Q1067.3438,701.9375 1066.9375,702.0156 Q1066.5313,702.0938 1066.1094,702.125 Q1065.6875,702.1719 1065.1875,702.1719 Q1063.7813,702.1719 1062.75,701.7188 Q1061.7344,701.2656 1061.0625,700.4531 Q1060.3906,699.6406 1060.0625,698.5 Q1059.7344,697.3438 1059.7344,695.9531 Q1059.7344,694.5781 1060.1094,693.4219 Q1060.4844,692.2656 1061.2031,691.4375 Q1061.9219,690.6094 1062.9844,690.1563 Q1064.0469,689.6875 1065.4375,689.6875 Q1066.3438,689.6875 1067.25,689.9219 Q1068.1563,690.1406 1068.9844,690.5469 L1068.1563,692.6406 Q1067.4688,692.3125 1066.7813,692.0781 Q1066.0938,691.8281 1065.4375,691.8281 Z " fill="#000000"/><text fill="#000000" font-family="sans-serif" font-size="14" lengthAdjust="spacing" textLength="163" x="1079.5" y="700.8467">ParametricArrowFunction</text></g><!--reverse link Entity to SourceLanguage--><g id="link_Entity_SourceLanguage"><path codeLine="117" d="M826.64,28.32 C706.11,38.18 407.46,64.22 159,99 C153.21,99.81 147.22,100.72 141.21,101.68 " fill="none" id="Entity-backto-SourceLanguage" style="stroke:#000000;stroke-width:1.0;"/><polygon fill="none" points="826.2,21.33,846.7,26.69,827.33,35.28,826.2,21.33" style="stroke:#000000;stroke-width:1.0;"/></g><!--reverse link Entity to ParameterConcretization--><g id="link_Entity_ParameterConcretization"><path codeLine="118" d="M826.86,32 C723.58,47.26 497.2,80.72 367.78,99.85 " fill="none" id="Entity-backto-ParameterConcretization" style="stroke:#000000;stroke-width:1.0;"/><polygon fill="none" points="826.14,25.03,846.95,29.03,828.19,38.88,826.14,25.03" style="stroke:#000000;stroke-width:1.0;"/></g><!--reverse link Type to ParameterType--><g id="link_Type_ParameterType"><path codeLine="119" d="M1342.89,511.39 C1347.83,536.37 1354.24,568.8 1357.96,587.62 " fill="none" id="Type-backto-ParameterType" style="stroke:#000000;stroke-width:1.0;"/><polygon fill="none" points="1335.98,512.49,1338.97,491.51,1349.71,509.77,1335.98,512.49" style="stroke:#000000;stroke-width:1.0;"/></g><!--reverse link Variable to implicitVariable--><g id="link_Variable_implicitVariable"><path codeLine="120" d="M2102,511.77 C2102,536.7 2102,568.9 2102,587.62 " fill="none" id="Variable-backto-implicitVariable" style="stroke:#000000;stroke-width:1.0;"/><polygon fill="none" points="2095,511.51,2102,491.51,2109,511.51,2095,511.51" style="stroke:#000000;stroke-width:1.0;"/></g><!--reverse link Entity to SourceAnchor--><g id="link_Entity_SourceAnchor"><path codeLine="121" d="M827.07,35.61 C748.95,52.43 604.76,83.48 523.24,101.03 " fill="none" id="Entity-backto-SourceAnchor" style="stroke:#000000;stroke-width:1.0;"/><polygon fill="none" points="825.77,28.73,846.79,31.37,828.71,42.42,825.77,28.73" style="stroke:#000000;stroke-width:1.0;"/></g><!--reverse link SourcedEntity to JSDoc--><g id="link_SourcedEntity_JSDoc"><path codeLine="122" d="M978.01,143.74 C954.66,162.79 924.57,187.35 905.52,202.89 " fill="none" id="SourcedEntity-backto-JSDoc" style="stroke:#000000;stroke-width:1.0;"/><polygon fill="none" points="973.63,138.27,993.56,131.05,982.49,149.12,973.63,138.27" style="stroke:#000000;stroke-width:1.0;"/></g><!--reverse link SourcedEntity to Comment--><g id="link_SourcedEntity_Comment"><path codeLine="123" d="M1012,151.4 C1012,164.38 1012,178.86 1012,190.99 " fill="none" id="SourcedEntity-backto-Comment" style="stroke:#000000;stroke-width:1.0;"/><polygon fill="none" points="1005,151.05,1012,131.05,1019,151.05,1005,151.05" style="stroke:#000000;stroke-width:1.0;"/></g><!--reverse link Interface to ParametricInterface--><g id="link_Interface_ParametricInterface"><path codeLine="124" d="M1257.55,630.79 C1283.15,646.68 1315.09,666.5 1336.65,679.89 " fill="none" id="Interface-backto-ParametricInterface" style="stroke:#000000;stroke-width:1.0;"/><polygon fill="none" points="1253.57,636.56,1240.27,620.06,1260.95,624.66,1253.57,636.56" style="stroke:#000000;stroke-width:1.0;"/></g><!--reverse link SourceAnchor to SourceTextAnchor--><g id="link_SourceAnchor_SourceTextAnchor"><path codeLine="125" d="M435.96,145.98 C419.09,164.68 398.1,187.95 384.63,202.89 " fill="none" id="SourceAnchor-backto-SourceTextAnchor" style="stroke:#000000;stroke-width:1.0;"/><polygon fill="none" points="430.83,141.21,449.43,131.05,441.23,150.59,430.83,141.21" style="stroke:#000000;stroke-width:1.0;"/></g><!--reverse link ContainerEntity to BehaviouralEntity--><g id="link_ContainerEntity_BehaviouralEntity"><path codeLine="126" d="M1089.34,367.05 C1066.49,395.82 1033.48,437.38 1015.97,459.43 " fill="none" id="ContainerEntity-backto-BehaviouralEntity" style="stroke:#000000;stroke-width:1.0;"/><polygon fill="none" points="1084.1,362.39,1102.02,351.09,1095.06,371.1,1084.1,362.39" style="stroke:#000000;stroke-width:1.0;"/></g><!--reverse link Type to PrimitiveType--><g id="link_Type_PrimitiveType"><path codeLine="127" d="M1361.38,507 C1368.29,514.35 1376.07,521.85 1384,528 C1416.33,553.05 1458.15,574.5 1487.24,587.96 " fill="none" id="Type-backto-PrimitiveType" style="stroke:#000000;stroke-width:1.0;"/><polygon fill="none" points="1355.88,511.35,1347.92,491.72,1366.39,502.1,1355.88,511.35" style="stroke:#000000;stroke-width:1.0;"/></g><!--reverse link NamedEntity to Alias--><g id="link_NamedEntity_Alias"><path codeLine="128" d="M1460.99,234.36 C1529.82,248.53 1632.69,273 1718,307 C1726.21,310.27 1734.78,314.63 1742.41,318.89 " fill="none" id="NamedEntity-backto-Alias" style="stroke:#000000;stroke-width:1.0;"/><polygon fill="none" points="1459.44,241.19,1441.21,230.38,1462.2,227.47,1459.44,241.19" style="stroke:#000000;stroke-width:1.0;"/></g><!--reverse link StructuralEntity to Parameter--><g id="link_StructuralEntity_Parameter"><path codeLine="129" d="M1599.62,363.22 C1576.74,380.35 1546.62,402.94 1520,423 C1503.8,435.21 1485.46,449.1 1471.92,459.38 " fill="none" id="StructuralEntity-backto-Parameter" style="stroke:#000000;stroke-width:1.0;"/><polygon fill="none" points="1595.65,357.44,1615.86,351.06,1604.04,368.65,1595.65,357.44" style="stroke:#000000;stroke-width:1.0;"/></g><!--reverse link ContainerEntity to Type--><g id="link_ContainerEntity_Type"><path codeLine="130" d="M1155.23,361.72 C1201.27,390.45 1274.25,435.98 1311.85,459.43 " fill="none" id="ContainerEntity-backto-Type" style="stroke:#000000;stroke-width:1.0;"/><polygon fill="none" points="1151.44,367.61,1138.18,351.09,1158.85,355.73,1151.44,367.61" style="stroke:#000000;stroke-width:1.0;"/></g><!--reverse link NamedEntity to ContainerEntity--><g id="link_NamedEntity_ContainerEntity"><path codeLine="131" d="M1329.66,242.94 C1276.04,265.58 1195.63,299.53 1149.65,318.95 " fill="none" id="NamedEntity-backto-ContainerEntity" style="stroke:#000000;stroke-width:1.0;"/><polygon fill="none" points="1327.28,236.35,1348.42,235.02,1332.72,249.25,1327.28,236.35" style="stroke:#000000;stroke-width:1.0;"/></g><!--reverse link ScopingEntity to Namespace--><g id="link_ScopingEntity_Namespace"><path codeLine="132" d="M671,511.77 C671,536.7 671,568.9 671,587.62 " fill="none" id="ScopingEntity-backto-Namespace" style="stroke:#000000;stroke-width:1.0;"/><polygon fill="none" points="664,511.51,671,491.51,678,511.51,664,511.51" style="stroke:#000000;stroke-width:1.0;"/></g><!--reverse link StructuralEntity to Property--><g id="link_StructuralEntity_Property"><path codeLine="133" d="M1636,371.27 C1636,386.92 1636,405.65 1636,422.83 " fill="none" id="StructuralEntity-backto-Property" style="stroke:#000000;stroke-width:1.0;"/><polygon fill="none" points="1629,371.09,1636,351.09,1643,371.09,1629,371.09" style="stroke:#000000;stroke-width:1.0;"/></g><!--reverse link Type to Enum--><g id="link_Type_Enum"><path codeLine="134" d="M1359.62,507.37 C1366.74,515.02 1375.06,522.57 1384,528 C1469.16,579.72 1504.13,560.86 1600,588 C1605.79,589.64 1611.93,591.39 1617.89,593.11 " fill="none" id="Type-backto-Enum" style="stroke:#000000;stroke-width:1.0;"/><polygon fill="none" points="1353.99,511.55,1346.52,491.72,1364.73,502.57,1353.99,511.55" style="stroke:#000000;stroke-width:1.0;"/></g><!--reverse link Type to Interface--><g id="link_Type_Interface"><path codeLine="135" d="M1307.85,506.18 C1283.64,531.69 1249.71,567.46 1230.59,587.62 " fill="none" id="Type-backto-Interface" style="stroke:#000000;stroke-width:1.0;"/><polygon fill="none" points="1302.92,501.2,1321.76,491.51,1313.08,510.84,1302.92,501.2" style="stroke:#000000;stroke-width:1.0;"/></g><!--reverse link NamedEntity to Folder--><g id="link_NamedEntity_Folder"><path codeLine="136" d="M1350.81,248.45 C1324.81,270.74 1289.63,300.88 1268.73,318.8 " fill="none" id="NamedEntity-backto-Folder" style="stroke:#000000;stroke-width:1.0;"/><polygon fill="none" points="1346.6,242.84,1366.34,235.14,1355.71,253.47,1346.6,242.84" style="stroke:#000000;stroke-width:1.0;"/></g><!--reverse link Entity to Invocation--><g id="link_Entity_Invocation"><path codeLine="137" d="M827.74,41.49 C776.95,58.18 701.26,83.04 653.02,98.88 " fill="none" id="Entity-backto-Invocation" style="stroke:#000000;stroke-width:1.0;"/><polygon fill="none" points="825.67,34.81,846.85,35.22,830.03,48.11,825.67,34.81" style="stroke:#000000;stroke-width:1.0;"/></g><!--reverse link SourcedEntity to NamedEntity--><g id="link_SourcedEntity_NamedEntity"><path codeLine="138" d="M1086.57,136.45 C1158.28,156.11 1264.98,185.37 1329.19,202.97 " fill="none" id="SourcedEntity-backto-NamedEntity" style="stroke:#000000;stroke-width:1.0;"/><polygon fill="none" points="1084.33,143.09,1066.89,131.05,1088.03,129.59,1084.33,143.09" style="stroke:#000000;stroke-width:1.0;"/></g><!--reverse link Method to ParametricMethod--><g id="link_Method_ParametricMethod"><path codeLine="139" d="M936.98,640.61 C937.74,654.31 938.57,669.22 939.16,679.96 " fill="none" id="Method-backto-ParametricMethod" style="stroke:#000000;stroke-width:1.0;"/><polygon fill="none" points="929.97,640.62,935.85,620.27,943.95,639.85,929.97,640.62" style="stroke:#000000;stroke-width:1.0;"/></g><!--reverse link Entity to ImportClause--><g id="link_Entity_ImportClause"><path codeLine="140" d="M842.45,50.49 C819.49,66.26 791.2,85.7 772,98.89 " fill="none" id="Entity-backto-ImportClause" style="stroke:#000000;stroke-width:1.0;"/><polygon fill="none" points="838.63,44.62,859.07,39.06,846.55,56.16,838.63,44.62" style="stroke:#000000;stroke-width:1.0;"/></g><!--reverse link StructuralEntity to Variable--><g id="link_StructuralEntity_Variable"><path codeLine="141" d="M1697.34,357.19 C1704.27,359.29 1711.26,361.28 1718,363 C1859.87,399.32 1909.89,359.8 2042,423 C2060.33,431.77 2077.52,447.61 2088.76,459.42 " fill="none" id="StructuralEntity-backto-Variable" style="stroke:#000000;stroke-width:1.0;"/><polygon fill="none" points="1695.18,363.85,1678.24,351.12,1699.42,350.51,1695.18,363.85" style="stroke:#000000;stroke-width:1.0;"/></g><!--reverse link Function to ParametricFunction--><g id="link_Function_ParametricFunction"><path codeLine="142" d="M762.55,628.96 C729.85,645.13 687.68,665.98 659.56,679.89 " fill="none" id="Function-backto-ParametricFunction" style="stroke:#000000;stroke-width:1.0;"/><polygon fill="none" points="759.51,622.65,780.54,620.06,765.71,635.2,759.51,622.65" style="stroke:#000000;stroke-width:1.0;"/></g><!--reverse link NamedEntity to Decorator--><g id="link_NamedEntity_Decorator"><path codeLine="143" d="M1372.12,255.21 C1370.73,271.77 1371.01,291.22 1372.93,306.65 " fill="none" id="NamedEntity-backto-Decorator" style="stroke:#000000;stroke-width:1.0;"/><polygon fill="none" points="1365.19,254.18,1374.96,235.37,1379.05,256.16,1365.19,254.18" style="stroke:#000000;stroke-width:1.0;"/></g><!--link NamedEntity to Decorator--><g id="link_NamedEntity_Decorator"><path codeLine="167" d="M1393.58,235.37 C1397.95,253.61 1398.67,284.33 1395.72,306.65 " fill="none" id="NamedEntity-Decorator" style="stroke:#000000;stroke-width:1.0;"/><text fill="#000000" font-family="sans-serif" font-size="13" lengthAdjust="spacing" textLength="92" x="1289.9711" y="255.0666">decoratedEntity</text><text fill="#000000" font-family="sans-serif" font-size="13" lengthAdjust="spacing" textLength="71" x="1319.5181" y="295.8568">decorators*</text></g><!--reverse link Entity to Access--><g id="link_Entity_Access"><path codeLine="144" d="M881,59.61 C881,73.31 881,88.22 881,98.96 " fill="none" id="Entity-backto-Access" style="stroke:#000000;stroke-width:1.0;"/><polygon fill="none" points="874,59.27,881,39.27,888,59.27,874,59.27" style="stroke:#000000;stroke-width:1.0;"/></g><!--reverse link Type to Class--><g id="link_Type_Class"><path codeLine="145" d="M1358.71,507.31 C1365.96,515.18 1374.57,522.86 1384,528 C1401.18,537.36 1676.61,582.55 1771.31,597.89 " fill="none" id="Type-backto-Class" style="stroke:#000000;stroke-width:1.0;"/><polygon fill="none" points="1353.15,511.57,1345.94,491.64,1364,502.72,1353.15,511.57" style="stroke:#000000;stroke-width:1.0;"/></g><!--reverse link BehaviouralEntity to Method--><g id="link_BehaviouralEntity_Method"><path codeLine="146" d="M986.2,509.12 C972.43,534.38 953.97,568.23 943.39,587.62 " fill="none" id="BehaviouralEntity-backto-Method" style="stroke:#000000;stroke-width:1.0;"/><polygon fill="none" points="980.09,505.71,995.81,491.51,992.38,512.42,980.09,505.71" style="stroke:#000000;stroke-width:1.0;"/></g><!--reverse link NamedEntity to File--><g id="link_NamedEntity_File"><path codeLine="147" d="M1415.29,248.76 C1439.5,271.02 1472.07,300.97 1491.47,318.8 " fill="none" id="NamedEntity-backto-File" style="stroke:#000000;stroke-width:1.0;"/><polygon fill="none" points="1410.45,253.83,1400.47,235.14,1419.93,243.52,1410.45,253.83" style="stroke:#000000;stroke-width:1.0;"/></g><!--reverse link ScriptEntity to Module--><g id="link_ScriptEntity_Module"><path codeLine="148" d="M498.97,639.13 C493.17,653.23 486.76,668.83 482.18,679.96 " fill="none" id="ScriptEntity-backto-Module" style="stroke:#000000;stroke-width:1.0;"/><polygon fill="none" points="492.64,636.1,506.72,620.27,505.59,641.43,492.64,636.1" style="stroke:#000000;stroke-width:1.0;"/></g><!--reverse link SourceAnchor to IndexedFileAnchor--><g id="link_SourceAnchor_IndexedFileAnchor"><path codeLine="149" d="M490.34,145.98 C507.39,164.68 528.6,187.95 542.22,202.89 " fill="none" id="SourceAnchor-backto-IndexedFileAnchor" style="stroke:#000000;stroke-width:1.0;"/><polygon fill="none" points="485.02,150.55,476.72,131.05,495.37,141.11,485.02,150.55" style="stroke:#000000;stroke-width:1.0;"/></g><!--reverse link Entity to SourcedEntity--><g id="link_Entity_SourcedEntity"><path codeLine="150" d="M919.55,50.49 C942.51,66.26 970.8,85.7 990,98.89 " fill="none" id="Entity-backto-SourcedEntity" style="stroke:#000000;stroke-width:1.0;"/><polygon fill="none" points="915.45,56.16,902.93,39.06,923.37,44.62,915.45,56.16" style="stroke:#000000;stroke-width:1.0;"/></g><!--reverse link BehaviouralEntity to ArrowFunction--><g id="link_BehaviouralEntity_ArrowFunction"><path codeLine="151" d="M1021.8,509.12 C1035.57,534.38 1054.03,568.23 1064.61,587.62 " fill="none" id="BehaviouralEntity-backto-ArrowFunction" style="stroke:#000000;stroke-width:1.0;"/><polygon fill="none" points="1015.62,512.42,1012.19,491.51,1027.91,505.71,1015.62,512.42" style="stroke:#000000;stroke-width:1.0;"/></g><!--reverse link Entity to Concretization--><g id="link_Entity_Concretization"><path codeLine="152" d="M934.33,40.72 C987.65,57.44 1068.87,82.92 1120.16,99 " fill="none" id="Entity-backto-Concretization" style="stroke:#000000;stroke-width:1.0;"/><polygon fill="none" points="932.04,47.34,915.05,34.68,936.23,33.98,932.04,47.34" style="stroke:#000000;stroke-width:1.0;"/></g><!--reverse link StructuralEntity to EnumValue--><g id="link_StructuralEntity_EnumValue"><path codeLine="153" d="M1700.64,357.33 C1706.51,359.25 1712.36,361.16 1718,363 C1800.59,389.92 1826.82,383.15 1904,423 C1923.26,432.94 1942.84,448.15 1956.19,459.46 " fill="none" id="StructuralEntity-backto-EnumValue" style="stroke:#000000;stroke-width:1.0;"/><polygon fill="none" points="1698.34,363.94,1681.53,351.04,1702.71,350.64,1698.34,363.94" style="stroke:#000000;stroke-width:1.0;"/></g><!--reverse link Entity to Inheritance--><g id="link_Entity_Inheritance"><path codeLine="154" d="M934.86,34.88 C1006.26,49.34 1136.16,75.77 1247,99 C1252.6,100.17 1258.44,101.41 1264.26,102.65 " fill="none" id="Entity-backto-Inheritance" style="stroke:#000000;stroke-width:1.0;"/><polygon fill="none" points="933.3,41.7,915.08,30.88,936.07,27.98,933.3,41.7" style="stroke:#000000;stroke-width:1.0;"/></g><!--reverse link NamedEntity to StructuralEntity--><g id="link_NamedEntity_StructuralEntity"><path codeLine="155" d="M1435.71,243.39 C1485.75,266.03 1560.09,299.66 1602.72,318.95 " fill="none" id="NamedEntity-backto-StructuralEntity" style="stroke:#000000;stroke-width:1.0;"/><polygon fill="none" points="1432.54,249.64,1417.2,235.02,1438.31,236.89,1432.54,249.64" style="stroke:#000000;stroke-width:1.0;"/></g><!--reverse link Method to Accessor--><g id="link_Method_Accessor"><path codeLine="156" d="M892.69,630.56 C866.32,646.49 833.29,666.44 811.02,679.89 " fill="none" id="Method-backto-Accessor" style="stroke:#000000;stroke-width:1.0;"/><polygon fill="none" points="889.32,624.41,910.06,620.06,896.56,636.4,889.32,624.41" style="stroke:#000000;stroke-width:1.0;"/></g><!--reverse link Entity to Reference--><g id="link_Entity_Reference"><path codeLine="157" d="M935.24,30.66 C1028.11,42.37 1223.39,68.33 1387,99 C1392.66,100.06 1398.57,101.27 1404.43,102.52 " fill="none" id="Entity-backto-Reference" style="stroke:#000000;stroke-width:1.0;"/><polygon fill="none" points="934.18,37.58,915.2,28.15,935.92,23.69,934.18,37.58" style="stroke:#000000;stroke-width:1.0;"/></g><!--reverse link ScopingEntity to ScriptEntity--><g id="link_ScopingEntity_ScriptEntity"><path codeLine="158" d="M636.62,504.03 C604.62,529.64 558.1,566.89 532.21,587.62 " fill="none" id="ScopingEntity-backto-ScriptEntity" style="stroke:#000000;stroke-width:1.0;"/><polygon fill="none" points="632.27,498.54,652.25,491.51,641.02,509.47,632.27,498.54" style="stroke:#000000;stroke-width:1.0;"/></g><!--reverse link Entity to Implementation--><g id="link_Entity_Implementation"><path codeLine="159" d="M935.36,29.36 C1045.65,40.46 1303.54,67.57 1519,99 C1524.85,99.85 1530.91,100.79 1536.99,101.78 " fill="none" id="Entity-backto-Implementation" style="stroke:#000000;stroke-width:1.0;"/><polygon fill="none" points="934.53,36.31,915.32,27.36,935.92,22.38,934.53,36.31" style="stroke:#000000;stroke-width:1.0;"/></g><!--reverse link ContainerEntity to ScopingEntity--><g id="link_ContainerEntity_ScopingEntity"><path codeLine="160" d="M1046.49,357.11 C956.21,385.33 798.38,434.68 719.19,459.43 " fill="none" id="ContainerEntity-backto-ScopingEntity" style="stroke:#000000;stroke-width:1.0;"/><polygon fill="none" points="1044.57,350.37,1065.75,351.09,1048.75,363.73,1044.57,350.37" style="stroke:#000000;stroke-width:1.0;"/></g><!--reverse link Class to ParametricClass--><g id="link_Class_ParametricClass"><path codeLine="161" d="M1803,640.61 C1803,654.31 1803,669.22 1803,679.96 " fill="none" id="Class-backto-ParametricClass" style="stroke:#000000;stroke-width:1.0;"/><polygon fill="none" points="1796,640.27,1803,620.27,1810,640.27,1796,640.27" style="stroke:#000000;stroke-width:1.0;"/></g><!--reverse link BehaviouralEntity to Function--><g id="link_BehaviouralEntity_Function"><path codeLine="162" d="M964.36,502.48 C925.11,528.2 866.37,566.71 834.17,587.81 " fill="none" id="BehaviouralEntity-backto-Function" style="stroke:#000000;stroke-width:1.0;"/><polygon fill="none" points="960.54,496.62,981.1,491.51,968.21,508.33,960.54,496.62" style="stroke:#000000;stroke-width:1.0;"/></g><!--reverse link ArrowFunction to ParametricArrowFunction--><g id="link_ArrowFunction_ParametricArrowFunction"><path codeLine="163" d="M1098.61,635.73 C1111.05,650.66 1125.44,667.93 1135.47,679.96 " fill="none" id="ArrowFunction-backto-ParametricArrowFunction" style="stroke:#000000;stroke-width:1.0;"/><polygon fill="none" points="1093.15,640.11,1085.72,620.27,1103.9,631.15,1093.15,640.11" style="stroke:#000000;stroke-width:1.0;"/></g><!--reverse link TEntityCreator to FamixTypeScriptModel--><g id="link_TEntityCreator_FamixTypeScriptModel"><path codeLine="164" d="M1796,59.61 C1796,73.31 1796,88.22 1796,98.96 " fill="none" id="TEntityCreator-backto-FamixTypeScriptModel" style="stroke:#000000;stroke-width:1.0;stroke-dasharray:7.0,7.0;"/><polygon fill="none" points="1789,59.27,1796,39.27,1803,59.27,1789,59.27" style="stroke:#000000;stroke-width:1.0;"/></g><!--reverse link TWithInterfaces to ContainerEntity--><g id="link_TWithInterfaces_ContainerEntity"><path codeLine="165" d="M1153.5,253.59 C1142.87,275.23 1129.57,302.31 1121.43,318.87 " fill="none" id="TWithInterfaces-backto-ContainerEntity" style="stroke:#000000;stroke-width:1.0;stroke-dasharray:7.0,7.0;"/><polygon fill="none" points="1147.35,250.24,1162.45,235.37,1159.91,256.41,1147.35,250.24" style="stroke:#000000;stroke-width:1.0;"/></g><!--reverse link TClassMetrics to Class--><g id="link_TClassMetrics_Class"><path codeLine="166" d="M1821.11,511.39 C1816.17,536.37 1809.76,568.8 1806.04,587.62 " fill="none" id="TClassMetrics-backto-Class" style="stroke:#000000;stroke-width:1.0;stroke-dasharray:7.0,7.0;"/><polygon fill="none" points="1814.29,509.77,1825.03,491.51,1828.02,512.49,1814.29,509.77" style="stroke:#000000;stroke-width:1.0;"/></g><!--SRC=[bLVTJjim5BxtKqJiPfi6Ju2GIg5Jfp6cjMBNnZaq5euTEKvfD_RkivqciPEqEUK2YUClv_SxFsGyXGJomkoJ7F9dq2KfNxaigAPvmWGjo-GlIP9RobutMbKodIkXTFAMSGDMFjDQlTMYPs4n3gfq2hgMfLI_VjLqJ_wHMjTALPh1Toet5Tr0SdtzSVx5w_fqSvDycCyNziSQRE0_dHjWd3h9D1Z-XngkvEHtF2y4PzmyKStfipZ3q7fVJAFhA6QIPJR6AV2trPrYawYvodEGvYZEvLK9e3BXfTVOTrrpjfGsW1VAi06iOMUGGInepdSkDokcUM4UL0fYygDRoEYMMrDKt4l3BSKcow1vpWtV0geCRT4caIXrCy5fEOb2HlB3UbOMc5fOQXlA9MXqZbG1-WGmeWhTqhfaDhLRwdksUxs35oxjzs8_Aqk-aP16pu-5QpOg0g46cZvAiG_IKUMJBkE9kL0YHTIpu_m3c4ob20-sYk5cnp8lb3PpGQiIK6LEaOKxTnZPw1QLP2Ydxu0fJSs9JawIbTKeDmdi2Wsst4fsp6VCIgQPwdzFzjflRhAsuXw_FeclqpUtr3huVnAEBFY28n9jnrY5W2rb2Zj8dKhak7HTyKH5XPt4M0gjVGaUF3UcC-kNCvf2PwxOfSn0SqCbPjqONJ5pnXwe2Ob8z2zu0Gqe7_mKHDgtCq20syUuNAoOAcnhOGTuszwuXa9Ni5EChNpZyVlbPUyqYvwEd66aNgiHmeb8D-dSM_yO6x5QjnNfDODxhs-TaOV3mKI2tH8u4bv393xNEglT_KC6IzYX1lTB671ugP1e3RXdVqkG8U-ZN8rR7LVOWv8UvHoaFJcEsJqS3a4KRau5VtOf6zYl5tDKkcwdZjKdq42QcHqNg9R6AeFTUoIAbaKTlMErZNmOGxia8vlrh0couBkIZ1olxl7Wz30_TZcGUCPukDym8mmSx9IHhcZITyILgCb9ZonXcuudijrHlQAsOtqOP5zHLDXcPaVgslayHjWmNNqQ1EDtl4qYVUGmIMCcd2nacxZUh8nLn3dkdohlLrUZ_ncHmGtaaFqMxYrp3_4UXtc_I6lIDeABnFhN29KkFrzqjFuF]--></g></svg>