<?xml version="1.0" encoding="us-ascii" standalone="no"?><svg xmlns="http://www.w3.org/2000/svg" xmlns:xlink="http://www.w3.org/1999/xlink" contentStyleType="text/css" height="719px" preserveAspectRatio="none" style="width:2217px;height:719px;background:#FFFFFF;" version="1.1" viewBox="0 0 2217 719" width="2217px" zoomAndPan="magnify"><defs/><g><!--class SourceLanguage--><g id="elem_SourceLanguage"><rect codeLine="7" fill="#CCFFFF" height="32" id="SourceLanguage" rx="2.5" ry="2.5" style="stroke:#A9A9A9;stroke-width:0.5;" width="134" x="118.5" y="99"/><ellipse cx="133.5" cy="115" fill="#FFFFFF" rx="11" ry="11" style="stroke:#181818;stroke-width:1.0;"/><path d="M133.4375,110.8281 Q132.6875,110.8281 132.125,111.125 Q131.5625,111.4063 131.1719,111.9375 Q130.7813,112.4688 130.5781,113.25 Q130.3906,114.0156 130.3906,114.9688 Q130.3906,115.9375 130.5625,116.7031 Q130.75,117.4531 131.1094,117.9688 Q131.4844,118.4844 132.0625,118.7656 Q132.6406,119.0313 133.4375,119.0313 Q134.1719,119.0313 134.9063,118.8594 Q135.6563,118.6875 136.5313,118.3906 L136.5313,120.5469 Q136.125,120.7031 135.7344,120.8281 Q135.3438,120.9375 134.9375,121.0156 Q134.5313,121.0938 134.1094,121.125 Q133.6875,121.1719 133.1875,121.1719 Q131.7813,121.1719 130.75,120.7188 Q129.7344,120.2656 129.0625,119.4531 Q128.3906,118.6406 128.0625,117.5 Q127.7344,116.3438 127.7344,114.9531 Q127.7344,113.5781 128.1094,112.4219 Q128.4844,111.2656 129.2031,110.4375 Q129.9219,109.6094 130.9844,109.1563 Q132.0469,108.6875 133.4375,108.6875 Q134.3438,108.6875 135.25,108.9219 Q136.1563,109.1406 136.9844,109.5469 L136.1563,111.6406 Q135.4688,111.3125 134.7813,111.0781 Q134.0938,110.8281 133.4375,110.8281 Z " fill="#000000"/><text fill="#000000" font-family="sans-serif" font-size="14" lengthAdjust="spacing" textLength="102" x="147.5" y="119.8467">SourceLanguage</text></g><!--class ParametricMethod--><g id="elem_ParametricMethod"><rect codeLine="9" fill="#CCFFFF" height="32" id="ParametricMethod" rx="2.5" ry="2.5" style="stroke:#A9A9A9;stroke-width:0.5;" width="151" x="1094" y="680"/><ellipse cx="1109" cy="696" fill="#FFFFFF" rx="11" ry="11" style="stroke:#181818;stroke-width:1.0;"/><path d="M1108.9375,691.8281 Q1108.1875,691.8281 1107.625,692.125 Q1107.0625,692.4063 1106.6719,692.9375 Q1106.2813,693.4688 1106.0781,694.25 Q1105.8906,695.0156 1105.8906,695.9688 Q1105.8906,696.9375 1106.0625,697.7031 Q1106.25,698.4531 1106.6094,698.9688 Q1106.9844,699.4844 1107.5625,699.7656 Q1108.1406,700.0313 1108.9375,700.0313 Q1109.6719,700.0313 1110.4063,699.8594 Q1111.1563,699.6875 1112.0313,699.3906 L1112.0313,701.5469 Q1111.625,701.7031 1111.2344,701.8281 Q1110.8438,701.9375 1110.4375,702.0156 Q1110.0313,702.0938 1109.6094,702.125 Q1109.1875,702.1719 1108.6875,702.1719 Q1107.2813,702.1719 1106.25,701.7188 Q1105.2344,701.2656 1104.5625,700.4531 Q1103.8906,699.6406 1103.5625,698.5 Q1103.2344,697.3438 1103.2344,695.9531 Q1103.2344,694.5781 1103.6094,693.4219 Q1103.9844,692.2656 1104.7031,691.4375 Q1105.4219,690.6094 1106.4844,690.1563 Q1107.5469,689.6875 1108.9375,689.6875 Q1109.8438,689.6875 1110.75,689.9219 Q1111.6563,690.1406 1112.4844,690.5469 L1111.6563,692.6406 Q1110.9688,692.3125 1110.2813,692.0781 Q1109.5938,691.8281 1108.9375,691.8281 Z " fill="#000000"/><text fill="#000000" font-family="sans-serif" font-size="14" lengthAdjust="spacing" textLength="119" x="1123" y="700.8467">ParametricMethod</text></g><!--class ParametricInterface--><g id="elem_ParametricInterface"><rect codeLine="11" fill="#CCFFFF" height="32" id="ParametricInterface" rx="2.5" ry="2.5" style="stroke:#A9A9A9;stroke-width:0.5;" width="160" x="1848.5" y="680"/><ellipse cx="1863.5" cy="696" fill="#FFFFFF" rx="11" ry="11" style="stroke:#181818;stroke-width:1.0;"/><path d="M1863.4375,691.8281 Q1862.6875,691.8281 1862.125,692.125 Q1861.5625,692.4063 1861.1719,692.9375 Q1860.7813,693.4688 1860.5781,694.25 Q1860.3906,695.0156 1860.3906,695.9688 Q1860.3906,696.9375 1860.5625,697.7031 Q1860.75,698.4531 1861.1094,698.9688 Q1861.4844,699.4844 1862.0625,699.7656 Q1862.6406,700.0313 1863.4375,700.0313 Q1864.1719,700.0313 1864.9063,699.8594 Q1865.6563,699.6875 1866.5313,699.3906 L1866.5313,701.5469 Q1866.125,701.7031 1865.7344,701.8281 Q1865.3438,701.9375 1864.9375,702.0156 Q1864.5313,702.0938 1864.1094,702.125 Q1863.6875,702.1719 1863.1875,702.1719 Q1861.7813,702.1719 1860.75,701.7188 Q1859.7344,701.2656 1859.0625,700.4531 Q1858.3906,699.6406 1858.0625,698.5 Q1857.7344,697.3438 1857.7344,695.9531 Q1857.7344,694.5781 1858.1094,693.4219 Q1858.4844,692.2656 1859.2031,691.4375 Q1859.9219,690.6094 1860.9844,690.1563 Q1862.0469,689.6875 1863.4375,689.6875 Q1864.3438,689.6875 1865.25,689.9219 Q1866.1563,690.1406 1866.9844,690.5469 L1866.1563,692.6406 Q1865.4688,692.3125 1864.7813,692.0781 Q1864.0938,691.8281 1863.4375,691.8281 Z " fill="#000000"/><text fill="#000000" font-family="sans-serif" font-size="14" lengthAdjust="spacing" textLength="128" x="1877.5" y="700.8467">ParametricInterface</text></g><!--class Decorator--><g id="elem_Decorator"><rect codeLine="13" fill="#CCFFFF" height="56.2969" id="Decorator" rx="2.5" ry="2.5" style="stroke:#A9A9A9;stroke-width:0.5;" width="122" x="212.5" y="307"/><ellipse cx="239.2" cy="323" fill="#FFFFFF" rx="11" ry="11" style="stroke:#181818;stroke-width:1.0;"/><path d="M239.1375,318.8281 Q238.3875,318.8281 237.825,319.125 Q237.2625,319.4063 236.8719,319.9375 Q236.4813,320.4688 236.2781,321.25 Q236.0906,322.0156 236.0906,322.9688 Q236.0906,323.9375 236.2625,324.7031 Q236.45,325.4531 236.8094,325.9688 Q237.1844,326.4844 237.7625,326.7656 Q238.3406,327.0313 239.1375,327.0313 Q239.8719,327.0313 240.6063,326.8594 Q241.3563,326.6875 242.2313,326.3906 L242.2313,328.5469 Q241.825,328.7031 241.4344,328.8281 Q241.0438,328.9375 240.6375,329.0156 Q240.2313,329.0938 239.8094,329.125 Q239.3875,329.1719 238.8875,329.1719 Q237.4813,329.1719 236.45,328.7188 Q235.4344,328.2656 234.7625,327.4531 Q234.0906,326.6406 233.7625,325.5 Q233.4344,324.3438 233.4344,322.9531 Q233.4344,321.5781 233.8094,320.4219 Q234.1844,319.2656 234.9031,318.4375 Q235.6219,317.6094 236.6844,317.1563 Q237.7469,316.6875 239.1375,316.6875 Q240.0438,316.6875 240.95,316.9219 Q241.8563,317.1406 242.6844,317.5469 L241.8563,319.6406 Q241.1688,319.3125 240.4813,319.0781 Q239.7938,318.8281 239.1375,318.8281 Z " fill="#000000"/><text fill="#000000" font-family="sans-serif" font-size="14" lengthAdjust="spacing" textLength="64" x="255.8" y="327.8467">Decorator</text><line style="stroke:#A9A9A9;stroke-width:0.5;" x1="213.5" x2="333.5" y1="339" y2="339"/><text fill="#000000" font-family="sans-serif" font-size="14" lengthAdjust="spacing" textLength="110" x="218.5" y="355.9951">String expression</text></g><!--class Parameter--><g id="elem_Parameter"><rect codeLine="16" fill="#CCFFFF" height="32" id="Parameter" rx="2.5" ry="2.5" style="stroke:#A9A9A9;stroke-width:0.5;" width="100" x="656.5" y="459.5"/><ellipse cx="671.5" cy="475.5" fill="#FFFFFF" rx="11" ry="11" style="stroke:#181818;stroke-width:1.0;"/><path d="M671.4375,471.3281 Q670.6875,471.3281 670.125,471.625 Q669.5625,471.9063 669.1719,472.4375 Q668.7813,472.9688 668.5781,473.75 Q668.3906,474.5156 668.3906,475.4688 Q668.3906,476.4375 668.5625,477.2031 Q668.75,477.9531 669.1094,478.4688 Q669.4844,478.9844 670.0625,479.2656 Q670.6406,479.5313 671.4375,479.5313 Q672.1719,479.5313 672.9063,479.3594 Q673.6563,479.1875 674.5313,478.8906 L674.5313,481.0469 Q674.125,481.2031 673.7344,481.3281 Q673.3438,481.4375 672.9375,481.5156 Q672.5313,481.5938 672.1094,481.625 Q671.6875,481.6719 671.1875,481.6719 Q669.7813,481.6719 668.75,481.2188 Q667.7344,480.7656 667.0625,479.9531 Q666.3906,479.1406 666.0625,478 Q665.7344,476.8438 665.7344,475.4531 Q665.7344,474.0781 666.1094,472.9219 Q666.4844,471.7656 667.2031,470.9375 Q667.9219,470.1094 668.9844,469.6563 Q670.0469,469.1875 671.4375,469.1875 Q672.3438,469.1875 673.25,469.4219 Q674.1563,469.6406 674.9844,470.0469 L674.1563,472.1406 Q673.4688,471.8125 672.7813,471.5781 Q672.0938,471.3281 671.4375,471.3281 Z " fill="#000000"/><text fill="#000000" font-family="sans-serif" font-size="14" lengthAdjust="spacing" textLength="68" x="685.5" y="480.3467">Parameter</text></g><!--class SourcedEntity--><g id="elem_SourcedEntity"><rect codeLine="18" fill="#CCFFFF" height="32" id="SourcedEntity" rx="2.5" ry="2.5" style="stroke:#A9A9A9;stroke-width:0.5;" width="119" x="288" y="99"/><ellipse cx="303" cy="115" fill="#FFFFFF" rx="11" ry="11" style="stroke:#181818;stroke-width:1.0;"/><path d="M302.9375,110.8281 Q302.1875,110.8281 301.625,111.125 Q301.0625,111.4063 300.6719,111.9375 Q300.2813,112.4688 300.0781,113.25 Q299.8906,114.0156 299.8906,114.9688 Q299.8906,115.9375 300.0625,116.7031 Q300.25,117.4531 300.6094,117.9688 Q300.9844,118.4844 301.5625,118.7656 Q302.1406,119.0313 302.9375,119.0313 Q303.6719,119.0313 304.4063,118.8594 Q305.1563,118.6875 306.0313,118.3906 L306.0313,120.5469 Q305.625,120.7031 305.2344,120.8281 Q304.8438,120.9375 304.4375,121.0156 Q304.0313,121.0938 303.6094,121.125 Q303.1875,121.1719 302.6875,121.1719 Q301.2813,121.1719 300.25,120.7188 Q299.2344,120.2656 298.5625,119.4531 Q297.8906,118.6406 297.5625,117.5 Q297.2344,116.3438 297.2344,114.9531 Q297.2344,113.5781 297.6094,112.4219 Q297.9844,111.2656 298.7031,110.4375 Q299.4219,109.6094 300.4844,109.1563 Q301.5469,108.6875 302.9375,108.6875 Q303.8438,108.6875 304.75,108.9219 Q305.6563,109.1406 306.4844,109.5469 L305.6563,111.6406 Q304.9688,111.3125 304.2813,111.0781 Q303.5938,110.8281 302.9375,110.8281 Z " fill="#000000"/><text fill="#000000" font-family="sans-serif" font-size="14" lengthAdjust="spacing" textLength="87" x="317" y="119.8467">SourcedEntity</text></g><!--class NamedEntity--><g id="elem_NamedEntity"><rect codeLine="20" fill="#CCFFFF" height="32" id="NamedEntity" rx="2.5" ry="2.5" style="stroke:#A9A9A9;stroke-width:0.5;" width="114" x="216.5" y="203"/><ellipse cx="231.5" cy="219" fill="#FFFFFF" rx="11" ry="11" style="stroke:#181818;stroke-width:1.0;"/><path d="M231.4375,214.8281 Q230.6875,214.8281 230.125,215.125 Q229.5625,215.4063 229.1719,215.9375 Q228.7813,216.4688 228.5781,217.25 Q228.3906,218.0156 228.3906,218.9688 Q228.3906,219.9375 228.5625,220.7031 Q228.75,221.4531 229.1094,221.9688 Q229.4844,222.4844 230.0625,222.7656 Q230.6406,223.0313 231.4375,223.0313 Q232.1719,223.0313 232.9063,222.8594 Q233.6563,222.6875 234.5313,222.3906 L234.5313,224.5469 Q234.125,224.7031 233.7344,224.8281 Q233.3438,224.9375 232.9375,225.0156 Q232.5313,225.0938 232.1094,225.125 Q231.6875,225.1719 231.1875,225.1719 Q229.7813,225.1719 228.75,224.7188 Q227.7344,224.2656 227.0625,223.4531 Q226.3906,222.6406 226.0625,221.5 Q225.7344,220.3438 225.7344,218.9531 Q225.7344,217.5781 226.1094,216.4219 Q226.4844,215.2656 227.2031,214.4375 Q227.9219,213.6094 228.9844,213.1563 Q230.0469,212.6875 231.4375,212.6875 Q232.3438,212.6875 233.25,212.9219 Q234.1563,213.1406 234.9844,213.5469 L234.1563,215.6406 Q233.4688,215.3125 232.7813,215.0781 Q232.0938,214.8281 231.4375,214.8281 Z " fill="#000000"/><text fill="#000000" font-family="sans-serif" font-size="14" lengthAdjust="spacing" textLength="82" x="245.5" y="223.8467">NamedEntity</text></g><!--class Class--><g id="elem_Class"><rect codeLine="22" fill="#CCFFFF" height="32" id="Class" rx="2.5" ry="2.5" style="stroke:#A9A9A9;stroke-width:0.5;" width="63" x="2112" y="588"/><ellipse cx="2127" cy="604" fill="#FFFFFF" rx="11" ry="11" style="stroke:#181818;stroke-width:1.0;"/><path d="M2126.9375,599.8281 Q2126.1875,599.8281 2125.625,600.125 Q2125.0625,600.4063 2124.6719,600.9375 Q2124.2813,601.4688 2124.0781,602.25 Q2123.8906,603.0156 2123.8906,603.9688 Q2123.8906,604.9375 2124.0625,605.7031 Q2124.25,606.4531 2124.6094,606.9688 Q2124.9844,607.4844 2125.5625,607.7656 Q2126.1406,608.0313 2126.9375,608.0313 Q2127.6719,608.0313 2128.4063,607.8594 Q2129.1563,607.6875 2130.0313,607.3906 L2130.0313,609.5469 Q2129.625,609.7031 2129.2344,609.8281 Q2128.8438,609.9375 2128.4375,610.0156 Q2128.0313,610.0938 2127.6094,610.125 Q2127.1875,610.1719 2126.6875,610.1719 Q2125.2813,610.1719 2124.25,609.7188 Q2123.2344,609.2656 2122.5625,608.4531 Q2121.8906,607.6406 2121.5625,606.5 Q2121.2344,605.3438 2121.2344,603.9531 Q2121.2344,602.5781 2121.6094,601.4219 Q2121.9844,600.2656 2122.7031,599.4375 Q2123.4219,598.6094 2124.4844,598.1563 Q2125.5469,597.6875 2126.9375,597.6875 Q2127.8438,597.6875 2128.75,597.9219 Q2129.6563,598.1406 2130.4844,598.5469 L2129.6563,600.6406 Q2128.9688,600.3125 2128.2813,600.0781 Q2127.5938,599.8281 2126.9375,599.8281 Z " fill="#000000"/><text fill="#000000" font-family="sans-serif" font-size="14" lengthAdjust="spacing" textLength="31" x="2141" y="608.8467">Class</text></g><!--class Invocation--><g id="elem_Invocation"><rect codeLine="24" fill="#CCFFFF" height="32" id="Invocation" rx="2.5" ry="2.5" style="stroke:#A9A9A9;stroke-width:0.5;" width="98" x="442.5" y="99"/><ellipse cx="457.5" cy="115" fill="#FFFFFF" rx="11" ry="11" style="stroke:#181818;stroke-width:1.0;"/><path d="M457.4375,110.8281 Q456.6875,110.8281 456.125,111.125 Q455.5625,111.4063 455.1719,111.9375 Q454.7813,112.4688 454.5781,113.25 Q454.3906,114.0156 454.3906,114.9688 Q454.3906,115.9375 454.5625,116.7031 Q454.75,117.4531 455.1094,117.9688 Q455.4844,118.4844 456.0625,118.7656 Q456.6406,119.0313 457.4375,119.0313 Q458.1719,119.0313 458.9063,118.8594 Q459.6563,118.6875 460.5313,118.3906 L460.5313,120.5469 Q460.125,120.7031 459.7344,120.8281 Q459.3438,120.9375 458.9375,121.0156 Q458.5313,121.0938 458.1094,121.125 Q457.6875,121.1719 457.1875,121.1719 Q455.7813,121.1719 454.75,120.7188 Q453.7344,120.2656 453.0625,119.4531 Q452.3906,118.6406 452.0625,117.5 Q451.7344,116.3438 451.7344,114.9531 Q451.7344,113.5781 452.1094,112.4219 Q452.4844,111.2656 453.2031,110.4375 Q453.9219,109.6094 454.9844,109.1563 Q456.0469,108.6875 457.4375,108.6875 Q458.3438,108.6875 459.25,108.9219 Q460.1563,109.1406 460.9844,109.5469 L460.1563,111.6406 Q459.4688,111.3125 458.7813,111.0781 Q458.0938,110.8281 457.4375,110.8281 Z " fill="#000000"/><text fill="#000000" font-family="sans-serif" font-size="14" lengthAdjust="spacing" textLength="66" x="471.5" y="119.8467">Invocation</text></g><!--class ParameterConcretization--><g id="elem_ParameterConcretization"><rect codeLine="26" fill="#CCFFFF" height="32" id="ParameterConcretization" rx="2.5" ry="2.5" style="stroke:#A9A9A9;stroke-width:0.5;" width="191" x="576" y="99"/><ellipse cx="591" cy="115" fill="#FFFFFF" rx="11" ry="11" style="stroke:#181818;stroke-width:1.0;"/><path d="M590.9375,110.8281 Q590.1875,110.8281 589.625,111.125 Q589.0625,111.4063 588.6719,111.9375 Q588.2813,112.4688 588.0781,113.25 Q587.8906,114.0156 587.8906,114.9688 Q587.8906,115.9375 588.0625,116.7031 Q588.25,117.4531 588.6094,117.9688 Q588.9844,118.4844 589.5625,118.7656 Q590.1406,119.0313 590.9375,119.0313 Q591.6719,119.0313 592.4063,118.8594 Q593.1563,118.6875 594.0313,118.3906 L594.0313,120.5469 Q593.625,120.7031 593.2344,120.8281 Q592.8438,120.9375 592.4375,121.0156 Q592.0313,121.0938 591.6094,121.125 Q591.1875,121.1719 590.6875,121.1719 Q589.2813,121.1719 588.25,120.7188 Q587.2344,120.2656 586.5625,119.4531 Q585.8906,118.6406 585.5625,117.5 Q585.2344,116.3438 585.2344,114.9531 Q585.2344,113.5781 585.6094,112.4219 Q585.9844,111.2656 586.7031,110.4375 Q587.4219,109.6094 588.4844,109.1563 Q589.5469,108.6875 590.9375,108.6875 Q591.8438,108.6875 592.75,108.9219 Q593.6563,109.1406 594.4844,109.5469 L593.6563,111.6406 Q592.9688,111.3125 592.2813,111.0781 Q591.5938,110.8281 590.9375,110.8281 Z " fill="#000000"/><text fill="#000000" font-family="sans-serif" font-size="14" lengthAdjust="spacing" textLength="159" x="605" y="119.8467">ParameterConcretization</text></g><!--class BehaviouralEntity--><g id="elem_BehaviouralEntity"><rect codeLine="28" fill="#CCFFFF" height="32" id="BehaviouralEntity" rx="2.5" ry="2.5" style="stroke:#A9A9A9;stroke-width:0.5;" width="144" x="1251.5" y="459.5"/><ellipse cx="1266.5" cy="475.5" fill="#FFFFFF" rx="11" ry="11" style="stroke:#181818;stroke-width:1.0;"/><path d="M1266.4375,471.3281 Q1265.6875,471.3281 1265.125,471.625 Q1264.5625,471.9063 1264.1719,472.4375 Q1263.7813,472.9688 1263.5781,473.75 Q1263.3906,474.5156 1263.3906,475.4688 Q1263.3906,476.4375 1263.5625,477.2031 Q1263.75,477.9531 1264.1094,478.4688 Q1264.4844,478.9844 1265.0625,479.2656 Q1265.6406,479.5313 1266.4375,479.5313 Q1267.1719,479.5313 1267.9063,479.3594 Q1268.6563,479.1875 1269.5313,478.8906 L1269.5313,481.0469 Q1269.125,481.2031 1268.7344,481.3281 Q1268.3438,481.4375 1267.9375,481.5156 Q1267.5313,481.5938 1267.1094,481.625 Q1266.6875,481.6719 1266.1875,481.6719 Q1264.7813,481.6719 1263.75,481.2188 Q1262.7344,480.7656 1262.0625,479.9531 Q1261.3906,479.1406 1261.0625,478 Q1260.7344,476.8438 1260.7344,475.4531 Q1260.7344,474.0781 1261.1094,472.9219 Q1261.4844,471.7656 1262.2031,470.9375 Q1262.9219,470.1094 1263.9844,469.6563 Q1265.0469,469.1875 1266.4375,469.1875 Q1267.3438,469.1875 1268.25,469.4219 Q1269.1563,469.6406 1269.9844,470.0469 L1269.1563,472.1406 Q1268.4688,471.8125 1267.7813,471.5781 Q1267.0938,471.3281 1266.4375,471.3281 Z " fill="#000000"/><text fill="#000000" font-family="sans-serif" font-size="14" lengthAdjust="spacing" textLength="112" x="1280.5" y="480.3467">BehaviouralEntity</text></g><!--class Folder--><g id="elem_Folder"><rect codeLine="30" fill="#CCFFFF" height="32" id="Folder" rx="2.5" ry="2.5" style="stroke:#A9A9A9;stroke-width:0.5;" width="73" x="7" y="319"/><ellipse cx="22" cy="335" fill="#FFFFFF" rx="11" ry="11" style="stroke:#181818;stroke-width:1.0;"/><path d="M21.9375,330.8281 Q21.1875,330.8281 20.625,331.125 Q20.0625,331.4063 19.6719,331.9375 Q19.2813,332.4688 19.0781,333.25 Q18.8906,334.0156 18.8906,334.9688 Q18.8906,335.9375 19.0625,336.7031 Q19.25,337.4531 19.6094,337.9688 Q19.9844,338.4844 20.5625,338.7656 Q21.1406,339.0313 21.9375,339.0313 Q22.6719,339.0313 23.4063,338.8594 Q24.1563,338.6875 25.0313,338.3906 L25.0313,340.5469 Q24.625,340.7031 24.2344,340.8281 Q23.8438,340.9375 23.4375,341.0156 Q23.0313,341.0938 22.6094,341.125 Q22.1875,341.1719 21.6875,341.1719 Q20.2813,341.1719 19.25,340.7188 Q18.2344,340.2656 17.5625,339.4531 Q16.8906,338.6406 16.5625,337.5 Q16.2344,336.3438 16.2344,334.9531 Q16.2344,333.5781 16.6094,332.4219 Q16.9844,331.2656 17.7031,330.4375 Q18.4219,329.6094 19.4844,329.1563 Q20.5469,328.6875 21.9375,328.6875 Q22.8438,328.6875 23.75,328.9219 Q24.6563,329.1406 25.4844,329.5469 L24.6563,331.6406 Q23.9688,331.3125 23.2813,331.0781 Q22.5938,330.8281 21.9375,330.8281 Z " fill="#000000"/><text fill="#000000" font-family="sans-serif" font-size="14" lengthAdjust="spacing" textLength="41" x="36" y="339.8467">Folder</text></g><!--class FamixTypeScriptModel--><g id="elem_FamixTypeScriptModel"><rect codeLine="32" fill="#CCFFFF" height="32" id="FamixTypeScriptModel" rx="2.5" ry="2.5" style="stroke:#A9A9A9;stroke-width:0.5;" width="176" x="1821.5" y="99"/><ellipse cx="1836.5" cy="115" fill="#FFFFFF" rx="11" ry="11" style="stroke:#181818;stroke-width:1.0;"/><path d="M1836.4375,110.8281 Q1835.6875,110.8281 1835.125,111.125 Q1834.5625,111.4063 1834.1719,111.9375 Q1833.7813,112.4688 1833.5781,113.25 Q1833.3906,114.0156 1833.3906,114.9688 Q1833.3906,115.9375 1833.5625,116.7031 Q1833.75,117.4531 1834.1094,117.9688 Q1834.4844,118.4844 1835.0625,118.7656 Q1835.6406,119.0313 1836.4375,119.0313 Q1837.1719,119.0313 1837.9063,118.8594 Q1838.6563,118.6875 1839.5313,118.3906 L1839.5313,120.5469 Q1839.125,120.7031 1838.7344,120.8281 Q1838.3438,120.9375 1837.9375,121.0156 Q1837.5313,121.0938 1837.1094,121.125 Q1836.6875,121.1719 1836.1875,121.1719 Q1834.7813,121.1719 1833.75,120.7188 Q1832.7344,120.2656 1832.0625,119.4531 Q1831.3906,118.6406 1831.0625,117.5 Q1830.7344,116.3438 1830.7344,114.9531 Q1830.7344,113.5781 1831.1094,112.4219 Q1831.4844,111.2656 1832.2031,110.4375 Q1832.9219,109.6094 1833.9844,109.1563 Q1835.0469,108.6875 1836.4375,108.6875 Q1837.3438,108.6875 1838.25,108.9219 Q1839.1563,109.1406 1839.9844,109.5469 L1839.1563,111.6406 Q1838.4688,111.3125 1837.7813,111.0781 Q1837.0938,110.8281 1836.4375,110.8281 Z " fill="#000000"/><text fill="#000000" font-family="sans-serif" font-size="14" lengthAdjust="spacing" textLength="144" x="1850.5" y="119.8467">FamixTypeScriptModel</text></g><!--class TClassMetrics--><g id="elem_TClassMetrics"><rect codeLine="34" fill="#CCFFFF" height="32" id="TClassMetrics" rx="2.5" ry="2.5" style="stroke:#A9A9A9;stroke-width:0.5;" width="117" x="2085" y="459.5"/><ellipse cx="2100" cy="475.5" fill="#FFFFFF" rx="11" ry="11" style="stroke:#181818;stroke-width:1.0;"/><path d="M2101.4531,482.25 L2098.8906,482.25 L2098.8906,472.25 L2095.8438,472.25 L2095.8438,470.1094 L2104.4844,470.1094 L2104.4844,472.25 L2101.4531,472.25 L2101.4531,482.25 Z " fill="#000000"/><text fill="#000000" font-family="sans-serif" font-size="14" lengthAdjust="spacing" textLength="85" x="2114" y="480.3467">TClassMetrics</text></g><!--class Type--><g id="elem_Type"><rect codeLine="36" fill="#CCFFFF" height="32" id="Type" rx="2.5" ry="2.5" style="stroke:#A9A9A9;stroke-width:0.5;" width="62" x="1824.5" y="459.5"/><ellipse cx="1839.5" cy="475.5" fill="#FFFFFF" rx="11" ry="11" style="stroke:#181818;stroke-width:1.0;"/><path d="M1839.4375,471.3281 Q1838.6875,471.3281 1838.125,471.625 Q1837.5625,471.9063 1837.1719,472.4375 Q1836.7813,472.9688 1836.5781,473.75 Q1836.3906,474.5156 1836.3906,475.4688 Q1836.3906,476.4375 1836.5625,477.2031 Q1836.75,477.9531 1837.1094,478.4688 Q1837.4844,478.9844 1838.0625,479.2656 Q1838.6406,479.5313 1839.4375,479.5313 Q1840.1719,479.5313 1840.9063,479.3594 Q1841.6563,479.1875 1842.5313,478.8906 L1842.5313,481.0469 Q1842.125,481.2031 1841.7344,481.3281 Q1841.3438,481.4375 1840.9375,481.5156 Q1840.5313,481.5938 1840.1094,481.625 Q1839.6875,481.6719 1839.1875,481.6719 Q1837.7813,481.6719 1836.75,481.2188 Q1835.7344,480.7656 1835.0625,479.9531 Q1834.3906,479.1406 1834.0625,478 Q1833.7344,476.8438 1833.7344,475.4531 Q1833.7344,474.0781 1834.1094,472.9219 Q1834.4844,471.7656 1835.2031,470.9375 Q1835.9219,470.1094 1836.9844,469.6563 Q1838.0469,469.1875 1839.4375,469.1875 Q1840.3438,469.1875 1841.25,469.4219 Q1842.1563,469.6406 1842.9844,470.0469 L1842.1563,472.1406 Q1841.4688,471.8125 1840.7813,471.5781 Q1840.0938,471.3281 1839.4375,471.3281 Z " fill="#000000"/><text fill="#000000" font-family="sans-serif" font-size="14" lengthAdjust="spacing" textLength="30" x="1853.5" y="480.3467">Type</text></g><!--class Comment--><g id="elem_Comment"><rect codeLine="38" fill="#CCFFFF" height="56.2969" id="Comment" rx="2.5" ry="2.5" style="stroke:#A9A9A9;stroke-width:0.5;" width="113" x="366" y="191"/><ellipse cx="389.1" cy="207" fill="#FFFFFF" rx="11" ry="11" style="stroke:#181818;stroke-width:1.0;"/><path d="M389.0375,202.8281 Q388.2875,202.8281 387.725,203.125 Q387.1625,203.4063 386.7719,203.9375 Q386.3813,204.4688 386.1781,205.25 Q385.9906,206.0156 385.9906,206.9688 Q385.9906,207.9375 386.1625,208.7031 Q386.35,209.4531 386.7094,209.9688 Q387.0844,210.4844 387.6625,210.7656 Q388.2406,211.0313 389.0375,211.0313 Q389.7719,211.0313 390.5063,210.8594 Q391.2563,210.6875 392.1313,210.3906 L392.1313,212.5469 Q391.725,212.7031 391.3344,212.8281 Q390.9438,212.9375 390.5375,213.0156 Q390.1313,213.0938 389.7094,213.125 Q389.2875,213.1719 388.7875,213.1719 Q387.3813,213.1719 386.35,212.7188 Q385.3344,212.2656 384.6625,211.4531 Q383.9906,210.6406 383.6625,209.5 Q383.3344,208.3438 383.3344,206.9531 Q383.3344,205.5781 383.7094,204.4219 Q384.0844,203.2656 384.8031,202.4375 Q385.5219,201.6094 386.5844,201.1563 Q387.6469,200.6875 389.0375,200.6875 Q389.9438,200.6875 390.85,200.9219 Q391.7563,201.1406 392.5844,201.5469 L391.7563,203.6406 Q391.0688,203.3125 390.3813,203.0781 Q389.6938,202.8281 389.0375,202.8281 Z " fill="#000000"/><text fill="#000000" font-family="sans-serif" font-size="14" lengthAdjust="spacing" textLength="63" x="404.9" y="211.8467">Comment</text><line style="stroke:#A9A9A9;stroke-width:0.5;" x1="367" x2="478" y1="223" y2="223"/><text fill="#000000" font-family="sans-serif" font-size="14" lengthAdjust="spacing" textLength="101" x="372" y="239.9951">Boolean isJSDoc</text></g><!--class Function--><g id="elem_Function"><rect codeLine="41" fill="#CCFFFF" height="32" id="Function" rx="2.5" ry="2.5" style="stroke:#A9A9A9;stroke-width:0.5;" width="86" x="1280.5" y="588"/><ellipse cx="1295.5" cy="604" fill="#FFFFFF" rx="11" ry="11" style="stroke:#181818;stroke-width:1.0;"/><path d="M1295.4375,599.8281 Q1294.6875,599.8281 1294.125,600.125 Q1293.5625,600.4063 1293.1719,600.9375 Q1292.7813,601.4688 1292.5781,602.25 Q1292.3906,603.0156 1292.3906,603.9688 Q1292.3906,604.9375 1292.5625,605.7031 Q1292.75,606.4531 1293.1094,606.9688 Q1293.4844,607.4844 1294.0625,607.7656 Q1294.6406,608.0313 1295.4375,608.0313 Q1296.1719,608.0313 1296.9063,607.8594 Q1297.6563,607.6875 1298.5313,607.3906 L1298.5313,609.5469 Q1298.125,609.7031 1297.7344,609.8281 Q1297.3438,609.9375 1296.9375,610.0156 Q1296.5313,610.0938 1296.1094,610.125 Q1295.6875,610.1719 1295.1875,610.1719 Q1293.7813,610.1719 1292.75,609.7188 Q1291.7344,609.2656 1291.0625,608.4531 Q1290.3906,607.6406 1290.0625,606.5 Q1289.7344,605.3438 1289.7344,603.9531 Q1289.7344,602.5781 1290.1094,601.4219 Q1290.4844,600.2656 1291.2031,599.4375 Q1291.9219,598.6094 1292.9844,598.1563 Q1294.0469,597.6875 1295.4375,597.6875 Q1296.3438,597.6875 1297.25,597.9219 Q1298.1563,598.1406 1298.9844,598.5469 L1298.1563,600.6406 Q1297.4688,600.3125 1296.7813,600.0781 Q1296.0938,599.8281 1295.4375,599.8281 Z " fill="#000000"/><text fill="#000000" font-family="sans-serif" font-size="14" lengthAdjust="spacing" textLength="54" x="1309.5" y="608.8467">Function</text></g><!--class Reference--><g id="elem_Reference"><rect codeLine="43" fill="#CCFFFF" height="32" id="Reference" rx="2.5" ry="2.5" style="stroke:#A9A9A9;stroke-width:0.5;" width="97" x="802" y="99"/><ellipse cx="817" cy="115" fill="#FFFFFF" rx="11" ry="11" style="stroke:#181818;stroke-width:1.0;"/><path d="M816.9375,110.8281 Q816.1875,110.8281 815.625,111.125 Q815.0625,111.4063 814.6719,111.9375 Q814.2813,112.4688 814.0781,113.25 Q813.8906,114.0156 813.8906,114.9688 Q813.8906,115.9375 814.0625,116.7031 Q814.25,117.4531 814.6094,117.9688 Q814.9844,118.4844 815.5625,118.7656 Q816.1406,119.0313 816.9375,119.0313 Q817.6719,119.0313 818.4063,118.8594 Q819.1563,118.6875 820.0313,118.3906 L820.0313,120.5469 Q819.625,120.7031 819.2344,120.8281 Q818.8438,120.9375 818.4375,121.0156 Q818.0313,121.0938 817.6094,121.125 Q817.1875,121.1719 816.6875,121.1719 Q815.2813,121.1719 814.25,120.7188 Q813.2344,120.2656 812.5625,119.4531 Q811.8906,118.6406 811.5625,117.5 Q811.2344,116.3438 811.2344,114.9531 Q811.2344,113.5781 811.6094,112.4219 Q811.9844,111.2656 812.7031,110.4375 Q813.4219,109.6094 814.4844,109.1563 Q815.5469,108.6875 816.9375,108.6875 Q817.8438,108.6875 818.75,108.9219 Q819.6563,109.1406 820.4844,109.5469 L819.6563,111.6406 Q818.9688,111.3125 818.2813,111.0781 Q817.5938,110.8281 816.9375,110.8281 Z " fill="#000000"/><text fill="#000000" font-family="sans-serif" font-size="14" lengthAdjust="spacing" textLength="65" x="831" y="119.8467">Reference</text></g><!--class ArrowFunction--><g id="elem_ArrowFunction"><rect codeLine="45" fill="#CCFFFF" height="32" id="ArrowFunction" rx="2.5" ry="2.5" style="stroke:#A9A9A9;stroke-width:0.5;" width="125" x="1402" y="588"/><ellipse cx="1417" cy="604" fill="#FFFFFF" rx="11" ry="11" style="stroke:#181818;stroke-width:1.0;"/><path d="M1416.9375,599.8281 Q1416.1875,599.8281 1415.625,600.125 Q1415.0625,600.4063 1414.6719,600.9375 Q1414.2813,601.4688 1414.0781,602.25 Q1413.8906,603.0156 1413.8906,603.9688 Q1413.8906,604.9375 1414.0625,605.7031 Q1414.25,606.4531 1414.6094,606.9688 Q1414.9844,607.4844 1415.5625,607.7656 Q1416.1406,608.0313 1416.9375,608.0313 Q1417.6719,608.0313 1418.4063,607.8594 Q1419.1563,607.6875 1420.0313,607.3906 L1420.0313,609.5469 Q1419.625,609.7031 1419.2344,609.8281 Q1418.8438,609.9375 1418.4375,610.0156 Q1418.0313,610.0938 1417.6094,610.125 Q1417.1875,610.1719 1416.6875,610.1719 Q1415.2813,610.1719 1414.25,609.7188 Q1413.2344,609.2656 1412.5625,608.4531 Q1411.8906,607.6406 1411.5625,606.5 Q1411.2344,605.3438 1411.2344,603.9531 Q1411.2344,602.5781 1411.6094,601.4219 Q1411.9844,600.2656 1412.7031,599.4375 Q1413.4219,598.6094 1414.4844,598.1563 Q1415.5469,597.6875 1416.9375,597.6875 Q1417.8438,597.6875 1418.75,597.9219 Q1419.6563,598.1406 1420.4844,598.5469 L1419.6563,600.6406 Q1418.9688,600.3125 1418.2813,600.0781 Q1417.5938,599.8281 1416.9375,599.8281 Z " fill="#000000"/><text fill="#000000" font-family="sans-serif" font-size="14" lengthAdjust="spacing" textLength="93" x="1431" y="608.8467">ArrowFunction</text></g><!--class Entity--><g id="elem_Entity"><rect codeLine="47" fill="#CCFFFF" height="32" id="Entity" rx="2.5" ry="2.5" style="stroke:#A9A9A9;stroke-width:0.5;" width="68" x="968.5" y="7"/><ellipse cx="983.5" cy="23" fill="#FFFFFF" rx="11" ry="11" style="stroke:#181818;stroke-width:1.0;"/><path d="M983.4375,18.8281 Q982.6875,18.8281 982.125,19.125 Q981.5625,19.4063 981.1719,19.9375 Q980.7813,20.4688 980.5781,21.25 Q980.3906,22.0156 980.3906,22.9688 Q980.3906,23.9375 980.5625,24.7031 Q980.75,25.4531 981.1094,25.9688 Q981.4844,26.4844 982.0625,26.7656 Q982.6406,27.0313 983.4375,27.0313 Q984.1719,27.0313 984.9063,26.8594 Q985.6563,26.6875 986.5313,26.3906 L986.5313,28.5469 Q986.125,28.7031 985.7344,28.8281 Q985.3438,28.9375 984.9375,29.0156 Q984.5313,29.0938 984.1094,29.125 Q983.6875,29.1719 983.1875,29.1719 Q981.7813,29.1719 980.75,28.7188 Q979.7344,28.2656 979.0625,27.4531 Q978.3906,26.6406 978.0625,25.5 Q977.7344,24.3438 977.7344,22.9531 Q977.7344,21.5781 978.1094,20.4219 Q978.4844,19.2656 979.2031,18.4375 Q979.9219,17.6094 980.9844,17.1563 Q982.0469,16.6875 983.4375,16.6875 Q984.3438,16.6875 985.25,16.9219 Q986.1563,17.1406 986.9844,17.5469 L986.1563,19.6406 Q985.4688,19.3125 984.7813,19.0781 Q984.0938,18.8281 983.4375,18.8281 Z " fill="#000000"/><text fill="#000000" font-family="sans-serif" font-size="14" lengthAdjust="spacing" textLength="36" x="997.5" y="27.8467">Entity</text></g><!--class Implementation--><g id="elem_Implementation"><rect codeLine="49" fill="#CCFFFF" height="32" id="Implementation" rx="2.5" ry="2.5" style="stroke:#A9A9A9;stroke-width:0.5;" width="136" x="934.5" y="99"/><ellipse cx="949.5" cy="115" fill="#FFFFFF" rx="11" ry="11" style="stroke:#181818;stroke-width:1.0;"/><path d="M949.4375,110.8281 Q948.6875,110.8281 948.125,111.125 Q947.5625,111.4063 947.1719,111.9375 Q946.7813,112.4688 946.5781,113.25 Q946.3906,114.0156 946.3906,114.9688 Q946.3906,115.9375 946.5625,116.7031 Q946.75,117.4531 947.1094,117.9688 Q947.4844,118.4844 948.0625,118.7656 Q948.6406,119.0313 949.4375,119.0313 Q950.1719,119.0313 950.9063,118.8594 Q951.6563,118.6875 952.5313,118.3906 L952.5313,120.5469 Q952.125,120.7031 951.7344,120.8281 Q951.3438,120.9375 950.9375,121.0156 Q950.5313,121.0938 950.1094,121.125 Q949.6875,121.1719 949.1875,121.1719 Q947.7813,121.1719 946.75,120.7188 Q945.7344,120.2656 945.0625,119.4531 Q944.3906,118.6406 944.0625,117.5 Q943.7344,116.3438 943.7344,114.9531 Q943.7344,113.5781 944.1094,112.4219 Q944.4844,111.2656 945.2031,110.4375 Q945.9219,109.6094 946.9844,109.1563 Q948.0469,108.6875 949.4375,108.6875 Q950.3438,108.6875 951.25,108.9219 Q952.1563,109.1406 952.9844,109.5469 L952.1563,111.6406 Q951.4688,111.3125 950.7813,111.0781 Q950.0938,110.8281 949.4375,110.8281 Z " fill="#000000"/><text fill="#000000" font-family="sans-serif" font-size="14" lengthAdjust="spacing" textLength="104" x="963.5" y="119.8467">Implementation</text></g><!--class Access--><g id="elem_Access"><rect codeLine="51" fill="#CCFFFF" height="32" id="Access" rx="2.5" ry="2.5" style="stroke:#A9A9A9;stroke-width:0.5;" width="73" x="1106" y="99"/><ellipse cx="1121" cy="115" fill="#FFFFFF" rx="11" ry="11" style="stroke:#181818;stroke-width:1.0;"/><path d="M1120.9375,110.8281 Q1120.1875,110.8281 1119.625,111.125 Q1119.0625,111.4063 1118.6719,111.9375 Q1118.2813,112.4688 1118.0781,113.25 Q1117.8906,114.0156 1117.8906,114.9688 Q1117.8906,115.9375 1118.0625,116.7031 Q1118.25,117.4531 1118.6094,117.9688 Q1118.9844,118.4844 1119.5625,118.7656 Q1120.1406,119.0313 1120.9375,119.0313 Q1121.6719,119.0313 1122.4063,118.8594 Q1123.1563,118.6875 1124.0313,118.3906 L1124.0313,120.5469 Q1123.625,120.7031 1123.2344,120.8281 Q1122.8438,120.9375 1122.4375,121.0156 Q1122.0313,121.0938 1121.6094,121.125 Q1121.1875,121.1719 1120.6875,121.1719 Q1119.2813,121.1719 1118.25,120.7188 Q1117.2344,120.2656 1116.5625,119.4531 Q1115.8906,118.6406 1115.5625,117.5 Q1115.2344,116.3438 1115.2344,114.9531 Q1115.2344,113.5781 1115.6094,112.4219 Q1115.9844,111.2656 1116.7031,110.4375 Q1117.4219,109.6094 1118.4844,109.1563 Q1119.5469,108.6875 1120.9375,108.6875 Q1121.8438,108.6875 1122.75,108.9219 Q1123.6563,109.1406 1124.4844,109.5469 L1123.6563,111.6406 Q1122.9688,111.3125 1122.2813,111.0781 Q1121.5938,110.8281 1120.9375,110.8281 Z " fill="#000000"/><text fill="#000000" font-family="sans-serif" font-size="14" lengthAdjust="spacing" textLength="41" x="1135" y="119.8467">Access</text></g><!--class Interface--><g id="elem_Interface"><rect codeLine="53" fill="#CCFFFF" height="32" id="Interface" rx="2.5" ry="2.5" style="stroke:#A9A9A9;stroke-width:0.5;" width="90" x="1883.5" y="588"/><ellipse cx="1898.5" cy="604" fill="#FFFFFF" rx="11" ry="11" style="stroke:#181818;stroke-width:1.0;"/><path d="M1898.4375,599.8281 Q1897.6875,599.8281 1897.125,600.125 Q1896.5625,600.4063 1896.1719,600.9375 Q1895.7813,601.4688 1895.5781,602.25 Q1895.3906,603.0156 1895.3906,603.9688 Q1895.3906,604.9375 1895.5625,605.7031 Q1895.75,606.4531 1896.1094,606.9688 Q1896.4844,607.4844 1897.0625,607.7656 Q1897.6406,608.0313 1898.4375,608.0313 Q1899.1719,608.0313 1899.9063,607.8594 Q1900.6563,607.6875 1901.5313,607.3906 L1901.5313,609.5469 Q1901.125,609.7031 1900.7344,609.8281 Q1900.3438,609.9375 1899.9375,610.0156 Q1899.5313,610.0938 1899.1094,610.125 Q1898.6875,610.1719 1898.1875,610.1719 Q1896.7813,610.1719 1895.75,609.7188 Q1894.7344,609.2656 1894.0625,608.4531 Q1893.3906,607.6406 1893.0625,606.5 Q1892.7344,605.3438 1892.7344,603.9531 Q1892.7344,602.5781 1893.1094,601.4219 Q1893.4844,600.2656 1894.2031,599.4375 Q1894.9219,598.6094 1895.9844,598.1563 Q1897.0469,597.6875 1898.4375,597.6875 Q1899.3438,597.6875 1900.25,597.9219 Q1901.1563,598.1406 1901.9844,598.5469 L1901.1563,600.6406 Q1900.4688,600.3125 1899.7813,600.0781 Q1899.0938,599.8281 1898.4375,599.8281 Z " fill="#000000"/><text fill="#000000" font-family="sans-serif" font-size="14" lengthAdjust="spacing" textLength="58" x="1912.5" y="608.8467">Interface</text></g><!--class EnumValue--><g id="elem_EnumValue"><rect codeLine="55" fill="#CCFFFF" height="32" id="EnumValue" rx="2.5" ry="2.5" style="stroke:#A9A9A9;stroke-width:0.5;" width="103" x="166" y="459.5"/><ellipse cx="181" cy="475.5" fill="#FFFFFF" rx="11" ry="11" style="stroke:#181818;stroke-width:1.0;"/><path d="M180.9375,471.3281 Q180.1875,471.3281 179.625,471.625 Q179.0625,471.9063 178.6719,472.4375 Q178.2813,472.9688 178.0781,473.75 Q177.8906,474.5156 177.8906,475.4688 Q177.8906,476.4375 178.0625,477.2031 Q178.25,477.9531 178.6094,478.4688 Q178.9844,478.9844 179.5625,479.2656 Q180.1406,479.5313 180.9375,479.5313 Q181.6719,479.5313 182.4063,479.3594 Q183.1563,479.1875 184.0313,478.8906 L184.0313,481.0469 Q183.625,481.2031 183.2344,481.3281 Q182.8438,481.4375 182.4375,481.5156 Q182.0313,481.5938 181.6094,481.625 Q181.1875,481.6719 180.6875,481.6719 Q179.2813,481.6719 178.25,481.2188 Q177.2344,480.7656 176.5625,479.9531 Q175.8906,479.1406 175.5625,478 Q175.2344,476.8438 175.2344,475.4531 Q175.2344,474.0781 175.6094,472.9219 Q175.9844,471.7656 176.7031,470.9375 Q177.4219,470.1094 178.4844,469.6563 Q179.5469,469.1875 180.9375,469.1875 Q181.8438,469.1875 182.75,469.4219 Q183.6563,469.6406 184.4844,470.0469 L183.6563,472.1406 Q182.9688,471.8125 182.2813,471.5781 Q181.5938,471.3281 180.9375,471.3281 Z " fill="#000000"/><text fill="#000000" font-family="sans-serif" font-size="14" lengthAdjust="spacing" textLength="71" x="195" y="480.3467">EnumValue</text></g><!--class ImportClause--><g id="elem_ImportClause"><rect codeLine="57" fill="#CCFFFF" height="32" id="ImportClause" rx="2.5" ry="2.5" style="stroke:#A9A9A9;stroke-width:0.5;" width="118" x="1214.5" y="99"/><ellipse cx="1229.5" cy="115" fill="#FFFFFF" rx="11" ry="11" style="stroke:#181818;stroke-width:1.0;"/><path d="M1229.4375,110.8281 Q1228.6875,110.8281 1228.125,111.125 Q1227.5625,111.4063 1227.1719,111.9375 Q1226.7813,112.4688 1226.5781,113.25 Q1226.3906,114.0156 1226.3906,114.9688 Q1226.3906,115.9375 1226.5625,116.7031 Q1226.75,117.4531 1227.1094,117.9688 Q1227.4844,118.4844 1228.0625,118.7656 Q1228.6406,119.0313 1229.4375,119.0313 Q1230.1719,119.0313 1230.9063,118.8594 Q1231.6563,118.6875 1232.5313,118.3906 L1232.5313,120.5469 Q1232.125,120.7031 1231.7344,120.8281 Q1231.3438,120.9375 1230.9375,121.0156 Q1230.5313,121.0938 1230.1094,121.125 Q1229.6875,121.1719 1229.1875,121.1719 Q1227.7813,121.1719 1226.75,120.7188 Q1225.7344,120.2656 1225.0625,119.4531 Q1224.3906,118.6406 1224.0625,117.5 Q1223.7344,116.3438 1223.7344,114.9531 Q1223.7344,113.5781 1224.1094,112.4219 Q1224.4844,111.2656 1225.2031,110.4375 Q1225.9219,109.6094 1226.9844,109.1563 Q1228.0469,108.6875 1229.4375,108.6875 Q1230.3438,108.6875 1231.25,108.9219 Q1232.1563,109.1406 1232.9844,109.5469 L1232.1563,111.6406 Q1231.4688,111.3125 1230.7813,111.0781 Q1230.0938,110.8281 1229.4375,110.8281 Z " fill="#000000"/><text fill="#000000" font-family="sans-serif" font-size="14" lengthAdjust="spacing" textLength="86" x="1243.5" y="119.8467">ImportClause</text></g><!--class Module--><g id="elem_Module"><rect codeLine="59" fill="#CCFFFF" height="32" id="Module" rx="2.5" ry="2.5" style="stroke:#A9A9A9;stroke-width:0.5;" width="80" x="856.5" y="680"/><ellipse cx="871.5" cy="696" fill="#FFFFFF" rx="11" ry="11" style="stroke:#181818;stroke-width:1.0;"/><path d="M871.4375,691.8281 Q870.6875,691.8281 870.125,692.125 Q869.5625,692.4063 869.1719,692.9375 Q868.7813,693.4688 868.5781,694.25 Q868.3906,695.0156 868.3906,695.9688 Q868.3906,696.9375 868.5625,697.7031 Q868.75,698.4531 869.1094,698.9688 Q869.4844,699.4844 870.0625,699.7656 Q870.6406,700.0313 871.4375,700.0313 Q872.1719,700.0313 872.9063,699.8594 Q873.6563,699.6875 874.5313,699.3906 L874.5313,701.5469 Q874.125,701.7031 873.7344,701.8281 Q873.3438,701.9375 872.9375,702.0156 Q872.5313,702.0938 872.1094,702.125 Q871.6875,702.1719 871.1875,702.1719 Q869.7813,702.1719 868.75,701.7188 Q867.7344,701.2656 867.0625,700.4531 Q866.3906,699.6406 866.0625,698.5 Q865.7344,697.3438 865.7344,695.9531 Q865.7344,694.5781 866.1094,693.4219 Q866.4844,692.2656 867.2031,691.4375 Q867.9219,690.6094 868.9844,690.1563 Q870.0469,689.6875 871.4375,689.6875 Q872.3438,689.6875 873.25,689.9219 Q874.1563,690.1406 874.9844,690.5469 L874.1563,692.6406 Q873.4688,692.3125 872.7813,692.0781 Q872.0938,691.8281 871.4375,691.8281 Z " fill="#000000"/><text fill="#000000" font-family="sans-serif" font-size="14" lengthAdjust="spacing" textLength="48" x="885.5" y="700.8467">Module</text></g><!--class IndexedFileAnchor--><g id="elem_IndexedFileAnchor"><rect codeLine="61" fill="#CCFFFF" height="32" id="IndexedFileAnchor" rx="2.5" ry="2.5" style="stroke:#A9A9A9;stroke-width:0.5;" width="152" x="1166.5" y="203"/><ellipse cx="1181.5" cy="219" fill="#FFFFFF" rx="11" ry="11" style="stroke:#181818;stroke-width:1.0;"/><path d="M1181.4375,214.8281 Q1180.6875,214.8281 1180.125,215.125 Q1179.5625,215.4063 1179.1719,215.9375 Q1178.7813,216.4688 1178.5781,217.25 Q1178.3906,218.0156 1178.3906,218.9688 Q1178.3906,219.9375 1178.5625,220.7031 Q1178.75,221.4531 1179.1094,221.9688 Q1179.4844,222.4844 1180.0625,222.7656 Q1180.6406,223.0313 1181.4375,223.0313 Q1182.1719,223.0313 1182.9063,222.8594 Q1183.6563,222.6875 1184.5313,222.3906 L1184.5313,224.5469 Q1184.125,224.7031 1183.7344,224.8281 Q1183.3438,224.9375 1182.9375,225.0156 Q1182.5313,225.0938 1182.1094,225.125 Q1181.6875,225.1719 1181.1875,225.1719 Q1179.7813,225.1719 1178.75,224.7188 Q1177.7344,224.2656 1177.0625,223.4531 Q1176.3906,222.6406 1176.0625,221.5 Q1175.7344,220.3438 1175.7344,218.9531 Q1175.7344,217.5781 1176.1094,216.4219 Q1176.4844,215.2656 1177.2031,214.4375 Q1177.9219,213.6094 1178.9844,213.1563 Q1180.0469,212.6875 1181.4375,212.6875 Q1182.3438,212.6875 1183.25,212.9219 Q1184.1563,213.1406 1184.9844,213.5469 L1184.1563,215.6406 Q1183.4688,215.3125 1182.7813,215.0781 Q1182.0938,214.8281 1181.4375,214.8281 Z " fill="#000000"/><text fill="#000000" font-family="sans-serif" font-size="14" lengthAdjust="spacing" textLength="120" x="1195.5" y="223.8467">IndexedFileAnchor</text></g><!--class Namespace--><g id="elem_Namespace"><rect codeLine="63" fill="#CCFFFF" height="32" id="Namespace" rx="2.5" ry="2.5" style="stroke:#A9A9A9;stroke-width:0.5;" width="105" x="987" y="588"/><ellipse cx="1002" cy="604" fill="#FFFFFF" rx="11" ry="11" style="stroke:#181818;stroke-width:1.0;"/><path d="M1001.9375,599.8281 Q1001.1875,599.8281 1000.625,600.125 Q1000.0625,600.4063 999.6719,600.9375 Q999.2813,601.4688 999.0781,602.25 Q998.8906,603.0156 998.8906,603.9688 Q998.8906,604.9375 999.0625,605.7031 Q999.25,606.4531 999.6094,606.9688 Q999.9844,607.4844 1000.5625,607.7656 Q1001.1406,608.0313 1001.9375,608.0313 Q1002.6719,608.0313 1003.4063,607.8594 Q1004.1563,607.6875 1005.0313,607.3906 L1005.0313,609.5469 Q1004.625,609.7031 1004.2344,609.8281 Q1003.8438,609.9375 1003.4375,610.0156 Q1003.0313,610.0938 1002.6094,610.125 Q1002.1875,610.1719 1001.6875,610.1719 Q1000.2813,610.1719 999.25,609.7188 Q998.2344,609.2656 997.5625,608.4531 Q996.8906,607.6406 996.5625,606.5 Q996.2344,605.3438 996.2344,603.9531 Q996.2344,602.5781 996.6094,601.4219 Q996.9844,600.2656 997.7031,599.4375 Q998.4219,598.6094 999.4844,598.1563 Q1000.5469,597.6875 1001.9375,597.6875 Q1002.8438,597.6875 1003.75,597.9219 Q1004.6563,598.1406 1005.4844,598.5469 L1004.6563,600.6406 Q1003.9688,600.3125 1003.2813,600.0781 Q1002.5938,599.8281 1001.9375,599.8281 Z " fill="#000000"/><text fill="#000000" font-family="sans-serif" font-size="14" lengthAdjust="spacing" textLength="73" x="1016" y="608.8467">Namespace</text></g><!--class JSDoc--><g id="elem_JSDoc"><rect codeLine="65" fill="#CCFFFF" height="32" id="JSDoc" rx="2.5" ry="2.5" style="stroke:#A9A9A9;stroke-width:0.5;" width="67" x="514" y="203"/><ellipse cx="529" cy="219" fill="#FFFFFF" rx="11" ry="11" style="stroke:#181818;stroke-width:1.0;"/><path d="M528.9375,214.8281 Q528.1875,214.8281 527.625,215.125 Q527.0625,215.4063 526.6719,215.9375 Q526.2813,216.4688 526.0781,217.25 Q525.8906,218.0156 525.8906,218.9688 Q525.8906,219.9375 526.0625,220.7031 Q526.25,221.4531 526.6094,221.9688 Q526.9844,222.4844 527.5625,222.7656 Q528.1406,223.0313 528.9375,223.0313 Q529.6719,223.0313 530.4063,222.8594 Q531.1563,222.6875 532.0313,222.3906 L532.0313,224.5469 Q531.625,224.7031 531.2344,224.8281 Q530.8438,224.9375 530.4375,225.0156 Q530.0313,225.0938 529.6094,225.125 Q529.1875,225.1719 528.6875,225.1719 Q527.2813,225.1719 526.25,224.7188 Q525.2344,224.2656 524.5625,223.4531 Q523.8906,222.6406 523.5625,221.5 Q523.2344,220.3438 523.2344,218.9531 Q523.2344,217.5781 523.6094,216.4219 Q523.9844,215.2656 524.7031,214.4375 Q525.4219,213.6094 526.4844,213.1563 Q527.5469,212.6875 528.9375,212.6875 Q529.8438,212.6875 530.75,212.9219 Q531.6563,213.1406 532.4844,213.5469 L531.6563,215.6406 Q530.9688,215.3125 530.2813,215.0781 Q529.5938,214.8281 528.9375,214.8281 Z " fill="#000000"/><text fill="#000000" font-family="sans-serif" font-size="14" lengthAdjust="spacing" textLength="35" x="543" y="223.8467">JSDoc</text></g><!--class Enum--><g id="elem_Enum"><rect codeLine="67" fill="#CCFFFF" height="32" id="Enum" rx="2.5" ry="2.5" style="stroke:#A9A9A9;stroke-width:0.5;" width="68" x="2008.5" y="588"/><ellipse cx="2023.5" cy="604" fill="#FFFFFF" rx="11" ry="11" style="stroke:#181818;stroke-width:1.0;"/><path d="M2023.4375,599.8281 Q2022.6875,599.8281 2022.125,600.125 Q2021.5625,600.4063 2021.1719,600.9375 Q2020.7813,601.4688 2020.5781,602.25 Q2020.3906,603.0156 2020.3906,603.9688 Q2020.3906,604.9375 2020.5625,605.7031 Q2020.75,606.4531 2021.1094,606.9688 Q2021.4844,607.4844 2022.0625,607.7656 Q2022.6406,608.0313 2023.4375,608.0313 Q2024.1719,608.0313 2024.9063,607.8594 Q2025.6563,607.6875 2026.5313,607.3906 L2026.5313,609.5469 Q2026.125,609.7031 2025.7344,609.8281 Q2025.3438,609.9375 2024.9375,610.0156 Q2024.5313,610.0938 2024.1094,610.125 Q2023.6875,610.1719 2023.1875,610.1719 Q2021.7813,610.1719 2020.75,609.7188 Q2019.7344,609.2656 2019.0625,608.4531 Q2018.3906,607.6406 2018.0625,606.5 Q2017.7344,605.3438 2017.7344,603.9531 Q2017.7344,602.5781 2018.1094,601.4219 Q2018.4844,600.2656 2019.2031,599.4375 Q2019.9219,598.6094 2020.9844,598.1563 Q2022.0469,597.6875 2023.4375,597.6875 Q2024.3438,597.6875 2025.25,597.9219 Q2026.1563,598.1406 2026.9844,598.5469 L2026.1563,600.6406 Q2025.4688,600.3125 2024.7813,600.0781 Q2024.0938,599.8281 2023.4375,599.8281 Z " fill="#000000"/><text fill="#000000" font-family="sans-serif" font-size="14" lengthAdjust="spacing" textLength="36" x="2037.5" y="608.8467">Enum</text></g><!--class Alias--><g id="elem_Alias"><rect codeLine="69" fill="#CCFFFF" height="32" id="Alias" rx="2.5" ry="2.5" style="stroke:#A9A9A9;stroke-width:0.5;" width="62" x="115.5" y="319"/><ellipse cx="130.5" cy="335" fill="#FFFFFF" rx="11" ry="11" style="stroke:#181818;stroke-width:1.0;"/><path d="M130.4375,330.8281 Q129.6875,330.8281 129.125,331.125 Q128.5625,331.4063 128.1719,331.9375 Q127.7813,332.4688 127.5781,333.25 Q127.3906,334.0156 127.3906,334.9688 Q127.3906,335.9375 127.5625,336.7031 Q127.75,337.4531 128.1094,337.9688 Q128.4844,338.4844 129.0625,338.7656 Q129.6406,339.0313 130.4375,339.0313 Q131.1719,339.0313 131.9063,338.8594 Q132.6563,338.6875 133.5313,338.3906 L133.5313,340.5469 Q133.125,340.7031 132.7344,340.8281 Q132.3438,340.9375 131.9375,341.0156 Q131.5313,341.0938 131.1094,341.125 Q130.6875,341.1719 130.1875,341.1719 Q128.7813,341.1719 127.75,340.7188 Q126.7344,340.2656 126.0625,339.4531 Q125.3906,338.6406 125.0625,337.5 Q124.7344,336.3438 124.7344,334.9531 Q124.7344,333.5781 125.1094,332.4219 Q125.4844,331.2656 126.2031,330.4375 Q126.9219,329.6094 127.9844,329.1563 Q129.0469,328.6875 130.4375,328.6875 Q131.3438,328.6875 132.25,328.9219 Q133.1563,329.1406 133.9844,329.5469 L133.1563,331.6406 Q132.4688,331.3125 131.7813,331.0781 Q131.0938,330.8281 130.4375,330.8281 Z " fill="#000000"/><text fill="#000000" font-family="sans-serif" font-size="14" lengthAdjust="spacing" textLength="30" x="144.5" y="339.8467">Alias</text></g><!--class SourceTextAnchor--><g id="elem_SourceTextAnchor"><rect codeLine="71" fill="#CCFFFF" height="32" id="SourceTextAnchor" rx="2.5" ry="2.5" style="stroke:#A9A9A9;stroke-width:0.5;" width="147" x="1354" y="203"/><ellipse cx="1369" cy="219" fill="#FFFFFF" rx="11" ry="11" style="stroke:#181818;stroke-width:1.0;"/><path d="M1368.9375,214.8281 Q1368.1875,214.8281 1367.625,215.125 Q1367.0625,215.4063 1366.6719,215.9375 Q1366.2813,216.4688 1366.0781,217.25 Q1365.8906,218.0156 1365.8906,218.9688 Q1365.8906,219.9375 1366.0625,220.7031 Q1366.25,221.4531 1366.6094,221.9688 Q1366.9844,222.4844 1367.5625,222.7656 Q1368.1406,223.0313 1368.9375,223.0313 Q1369.6719,223.0313 1370.4063,222.8594 Q1371.1563,222.6875 1372.0313,222.3906 L1372.0313,224.5469 Q1371.625,224.7031 1371.2344,224.8281 Q1370.8438,224.9375 1370.4375,225.0156 Q1370.0313,225.0938 1369.6094,225.125 Q1369.1875,225.1719 1368.6875,225.1719 Q1367.2813,225.1719 1366.25,224.7188 Q1365.2344,224.2656 1364.5625,223.4531 Q1363.8906,222.6406 1363.5625,221.5 Q1363.2344,220.3438 1363.2344,218.9531 Q1363.2344,217.5781 1363.6094,216.4219 Q1363.9844,215.2656 1364.7031,214.4375 Q1365.4219,213.6094 1366.4844,213.1563 Q1367.5469,212.6875 1368.9375,212.6875 Q1369.8438,212.6875 1370.75,212.9219 Q1371.6563,213.1406 1372.4844,213.5469 L1371.6563,215.6406 Q1370.9688,215.3125 1370.2813,215.0781 Q1369.5938,214.8281 1368.9375,214.8281 Z " fill="#000000"/><text fill="#000000" font-family="sans-serif" font-size="14" lengthAdjust="spacing" textLength="115" x="1383" y="223.8467">SourceTextAnchor</text></g><!--class Variable--><g id="elem_Variable"><rect codeLine="73" fill="#CCFFFF" height="32" id="Variable" rx="2.5" ry="2.5" style="stroke:#A9A9A9;stroke-width:0.5;" width="84" x="304.5" y="459.5"/><ellipse cx="319.5" cy="475.5" fill="#FFFFFF" rx="11" ry="11" style="stroke:#181818;stroke-width:1.0;"/><path d="M319.4375,471.3281 Q318.6875,471.3281 318.125,471.625 Q317.5625,471.9063 317.1719,472.4375 Q316.7813,472.9688 316.5781,473.75 Q316.3906,474.5156 316.3906,475.4688 Q316.3906,476.4375 316.5625,477.2031 Q316.75,477.9531 317.1094,478.4688 Q317.4844,478.9844 318.0625,479.2656 Q318.6406,479.5313 319.4375,479.5313 Q320.1719,479.5313 320.9063,479.3594 Q321.6563,479.1875 322.5313,478.8906 L322.5313,481.0469 Q322.125,481.2031 321.7344,481.3281 Q321.3438,481.4375 320.9375,481.5156 Q320.5313,481.5938 320.1094,481.625 Q319.6875,481.6719 319.1875,481.6719 Q317.7813,481.6719 316.75,481.2188 Q315.7344,480.7656 315.0625,479.9531 Q314.3906,479.1406 314.0625,478 Q313.7344,476.8438 313.7344,475.4531 Q313.7344,474.0781 314.1094,472.9219 Q314.4844,471.7656 315.2031,470.9375 Q315.9219,470.1094 316.9844,469.6563 Q318.0469,469.1875 319.4375,469.1875 Q320.3438,469.1875 321.25,469.4219 Q322.1563,469.6406 322.9844,470.0469 L322.1563,472.1406 Q321.4688,471.8125 320.7813,471.5781 Q320.0938,471.3281 319.4375,471.3281 Z " fill="#000000"/><text fill="#000000" font-family="sans-serif" font-size="14" lengthAdjust="spacing" textLength="52" x="333.5" y="480.3467">Variable</text></g><!--class SourceAnchor--><g id="elem_SourceAnchor"><rect codeLine="75" fill="#CCFFFF" height="32" id="SourceAnchor" rx="2.5" ry="2.5" style="stroke:#A9A9A9;stroke-width:0.5;" width="120" x="1367.5" y="99"/><ellipse cx="1382.5" cy="115" fill="#FFFFFF" rx="11" ry="11" style="stroke:#181818;stroke-width:1.0;"/><path d="M1382.4375,110.8281 Q1381.6875,110.8281 1381.125,111.125 Q1380.5625,111.4063 1380.1719,111.9375 Q1379.7813,112.4688 1379.5781,113.25 Q1379.3906,114.0156 1379.3906,114.9688 Q1379.3906,115.9375 1379.5625,116.7031 Q1379.75,117.4531 1380.1094,117.9688 Q1380.4844,118.4844 1381.0625,118.7656 Q1381.6406,119.0313 1382.4375,119.0313 Q1383.1719,119.0313 1383.9063,118.8594 Q1384.6563,118.6875 1385.5313,118.3906 L1385.5313,120.5469 Q1385.125,120.7031 1384.7344,120.8281 Q1384.3438,120.9375 1383.9375,121.0156 Q1383.5313,121.0938 1383.1094,121.125 Q1382.6875,121.1719 1382.1875,121.1719 Q1380.7813,121.1719 1379.75,120.7188 Q1378.7344,120.2656 1378.0625,119.4531 Q1377.3906,118.6406 1377.0625,117.5 Q1376.7344,116.3438 1376.7344,114.9531 Q1376.7344,113.5781 1377.1094,112.4219 Q1377.4844,111.2656 1378.2031,110.4375 Q1378.9219,109.6094 1379.9844,109.1563 Q1381.0469,108.6875 1382.4375,108.6875 Q1383.3438,108.6875 1384.25,108.9219 Q1385.1563,109.1406 1385.9844,109.5469 L1385.1563,111.6406 Q1384.4688,111.3125 1383.7813,111.0781 Q1383.0938,110.8281 1382.4375,110.8281 Z " fill="#000000"/><text fill="#000000" font-family="sans-serif" font-size="14" lengthAdjust="spacing" textLength="88" x="1396.5" y="119.8467">SourceAnchor</text></g><!--class Concretization--><g id="elem_Concretization"><rect codeLine="77" fill="#CCFFFF" height="32" id="Concretization" rx="2.5" ry="2.5" style="stroke:#A9A9A9;stroke-width:0.5;" width="123" x="1523" y="99"/><ellipse cx="1538" cy="115" fill="#FFFFFF" rx="11" ry="11" style="stroke:#181818;stroke-width:1.0;"/><path d="M1537.9375,110.8281 Q1537.1875,110.8281 1536.625,111.125 Q1536.0625,111.4063 1535.6719,111.9375 Q1535.2813,112.4688 1535.0781,113.25 Q1534.8906,114.0156 1534.8906,114.9688 Q1534.8906,115.9375 1535.0625,116.7031 Q1535.25,117.4531 1535.6094,117.9688 Q1535.9844,118.4844 1536.5625,118.7656 Q1537.1406,119.0313 1537.9375,119.0313 Q1538.6719,119.0313 1539.4063,118.8594 Q1540.1563,118.6875 1541.0313,118.3906 L1541.0313,120.5469 Q1540.625,120.7031 1540.2344,120.8281 Q1539.8438,120.9375 1539.4375,121.0156 Q1539.0313,121.0938 1538.6094,121.125 Q1538.1875,121.1719 1537.6875,121.1719 Q1536.2813,121.1719 1535.25,120.7188 Q1534.2344,120.2656 1533.5625,119.4531 Q1532.8906,118.6406 1532.5625,117.5 Q1532.2344,116.3438 1532.2344,114.9531 Q1532.2344,113.5781 1532.6094,112.4219 Q1532.9844,111.2656 1533.7031,110.4375 Q1534.4219,109.6094 1535.4844,109.1563 Q1536.5469,108.6875 1537.9375,108.6875 Q1538.8438,108.6875 1539.75,108.9219 Q1540.6563,109.1406 1541.4844,109.5469 L1540.6563,111.6406 Q1539.9688,111.3125 1539.2813,111.0781 Q1538.5938,110.8281 1537.9375,110.8281 Z " fill="#000000"/><text fill="#000000" font-family="sans-serif" font-size="14" lengthAdjust="spacing" textLength="91" x="1552" y="119.8467">Concretization</text></g><!--class ParametricArrowFunction--><g id="elem_ParametricArrowFunction"><rect codeLine="79" fill="#CCFFFF" height="32" id="ParametricArrowFunction" rx="2.5" ry="2.5" style="stroke:#A9A9A9;stroke-width:0.5;" width="195" x="1472" y="680"/><ellipse cx="1487" cy="696" fill="#FFFFFF" rx="11" ry="11" style="stroke:#181818;stroke-width:1.0;"/><path d="M1486.9375,691.8281 Q1486.1875,691.8281 1485.625,692.125 Q1485.0625,692.4063 1484.6719,692.9375 Q1484.2813,693.4688 1484.0781,694.25 Q1483.8906,695.0156 1483.8906,695.9688 Q1483.8906,696.9375 1484.0625,697.7031 Q1484.25,698.4531 1484.6094,698.9688 Q1484.9844,699.4844 1485.5625,699.7656 Q1486.1406,700.0313 1486.9375,700.0313 Q1487.6719,700.0313 1488.4063,699.8594 Q1489.1563,699.6875 1490.0313,699.3906 L1490.0313,701.5469 Q1489.625,701.7031 1489.2344,701.8281 Q1488.8438,701.9375 1488.4375,702.0156 Q1488.0313,702.0938 1487.6094,702.125 Q1487.1875,702.1719 1486.6875,702.1719 Q1485.2813,702.1719 1484.25,701.7188 Q1483.2344,701.2656 1482.5625,700.4531 Q1481.8906,699.6406 1481.5625,698.5 Q1481.2344,697.3438 1481.2344,695.9531 Q1481.2344,694.5781 1481.6094,693.4219 Q1481.9844,692.2656 1482.7031,691.4375 Q1483.4219,690.6094 1484.4844,690.1563 Q1485.5469,689.6875 1486.9375,689.6875 Q1487.8438,689.6875 1488.75,689.9219 Q1489.6563,690.1406 1490.4844,690.5469 L1489.6563,692.6406 Q1488.9688,692.3125 1488.2813,692.0781 Q1487.5938,691.8281 1486.9375,691.8281 Z " fill="#000000"/><text fill="#000000" font-family="sans-serif" font-size="14" lengthAdjust="spacing" textLength="163" x="1501" y="700.8467">ParametricArrowFunction</text></g><!--class TWithInterfaces--><g id="elem_TWithInterfaces"><rect codeLine="81" fill="#CCFFFF" height="32" id="TWithInterfaces" rx="2.5" ry="2.5" style="stroke:#A9A9A9;stroke-width:0.5;" width="132" x="1536.5" y="203"/><ellipse cx="1551.5" cy="219" fill="#FFFFFF" rx="11" ry="11" style="stroke:#181818;stroke-width:1.0;"/><path d="M1552.9531,225.75 L1550.3906,225.75 L1550.3906,215.75 L1547.3438,215.75 L1547.3438,213.6094 L1555.9844,213.6094 L1555.9844,215.75 L1552.9531,215.75 L1552.9531,225.75 Z " fill="#000000"/><text fill="#000000" font-family="sans-serif" font-size="14" lengthAdjust="spacing" textLength="100" x="1565.5" y="223.8467">TWithInterfaces</text></g><!--class Inheritance--><g id="elem_Inheritance"><rect codeLine="83" fill="#CCFFFF" height="32" id="Inheritance" rx="2.5" ry="2.5" style="stroke:#A9A9A9;stroke-width:0.5;" width="105" x="1681" y="99"/><ellipse cx="1696" cy="115" fill="#FFFFFF" rx="11" ry="11" style="stroke:#181818;stroke-width:1.0;"/><path d="M1695.9375,110.8281 Q1695.1875,110.8281 1694.625,111.125 Q1694.0625,111.4063 1693.6719,111.9375 Q1693.2813,112.4688 1693.0781,113.25 Q1692.8906,114.0156 1692.8906,114.9688 Q1692.8906,115.9375 1693.0625,116.7031 Q1693.25,117.4531 1693.6094,117.9688 Q1693.9844,118.4844 1694.5625,118.7656 Q1695.1406,119.0313 1695.9375,119.0313 Q1696.6719,119.0313 1697.4063,118.8594 Q1698.1563,118.6875 1699.0313,118.3906 L1699.0313,120.5469 Q1698.625,120.7031 1698.2344,120.8281 Q1697.8438,120.9375 1697.4375,121.0156 Q1697.0313,121.0938 1696.6094,121.125 Q1696.1875,121.1719 1695.6875,121.1719 Q1694.2813,121.1719 1693.25,120.7188 Q1692.2344,120.2656 1691.5625,119.4531 Q1690.8906,118.6406 1690.5625,117.5 Q1690.2344,116.3438 1690.2344,114.9531 Q1690.2344,113.5781 1690.6094,112.4219 Q1690.9844,111.2656 1691.7031,110.4375 Q1692.4219,109.6094 1693.4844,109.1563 Q1694.5469,108.6875 1695.9375,108.6875 Q1696.8438,108.6875 1697.75,108.9219 Q1698.6563,109.1406 1699.4844,109.5469 L1698.6563,111.6406 Q1697.9688,111.3125 1697.2813,111.0781 Q1696.5938,110.8281 1695.9375,110.8281 Z " fill="#000000"/><text fill="#000000" font-family="sans-serif" font-size="14" lengthAdjust="spacing" textLength="73" x="1710" y="119.8467">Inheritance</text></g><!--class TEntityCreator--><g id="elem_TEntityCreator"><rect codeLine="85" fill="#CCFFFF" height="32" id="TEntityCreator" rx="2.5" ry="2.5" style="stroke:#A9A9A9;stroke-width:0.5;" width="123" x="1848" y="7"/><ellipse cx="1863" cy="23" fill="#FFFFFF" rx="11" ry="11" style="stroke:#181818;stroke-width:1.0;"/><path d="M1864.4531,29.75 L1861.8906,29.75 L1861.8906,19.75 L1858.8438,19.75 L1858.8438,17.6094 L1867.4844,17.6094 L1867.4844,19.75 L1864.4531,19.75 L1864.4531,29.75 Z " fill="#000000"/><text fill="#000000" font-family="sans-serif" font-size="14" lengthAdjust="spacing" textLength="91" x="1877" y="27.8467">TEntityCreator</text></g><!--class ScopingEntity--><g id="elem_ScopingEntity"><rect codeLine="87" fill="#CCFFFF" height="32" id="ScopingEntity" rx="2.5" ry="2.5" style="stroke:#A9A9A9;stroke-width:0.5;" width="116" x="981.5" y="459.5"/><ellipse cx="996.5" cy="475.5" fill="#FFFFFF" rx="11" ry="11" style="stroke:#181818;stroke-width:1.0;"/><path d="M996.4375,471.3281 Q995.6875,471.3281 995.125,471.625 Q994.5625,471.9063 994.1719,472.4375 Q993.7813,472.9688 993.5781,473.75 Q993.3906,474.5156 993.3906,475.4688 Q993.3906,476.4375 993.5625,477.2031 Q993.75,477.9531 994.1094,478.4688 Q994.4844,478.9844 995.0625,479.2656 Q995.6406,479.5313 996.4375,479.5313 Q997.1719,479.5313 997.9063,479.3594 Q998.6563,479.1875 999.5313,478.8906 L999.5313,481.0469 Q999.125,481.2031 998.7344,481.3281 Q998.3438,481.4375 997.9375,481.5156 Q997.5313,481.5938 997.1094,481.625 Q996.6875,481.6719 996.1875,481.6719 Q994.7813,481.6719 993.75,481.2188 Q992.7344,480.7656 992.0625,479.9531 Q991.3906,479.1406 991.0625,478 Q990.7344,476.8438 990.7344,475.4531 Q990.7344,474.0781 991.1094,472.9219 Q991.4844,471.7656 992.2031,470.9375 Q992.9219,470.1094 993.9844,469.6563 Q995.0469,469.1875 996.4375,469.1875 Q997.3438,469.1875 998.25,469.4219 Q999.1563,469.6406 999.9844,470.0469 L999.1563,472.1406 Q998.4688,471.8125 997.7813,471.5781 Q997.0938,471.3281 996.4375,471.3281 Z " fill="#000000"/><text fill="#000000" font-family="sans-serif" font-size="14" lengthAdjust="spacing" textLength="84" x="1010.5" y="480.3467">ScopingEntity</text></g><!--class ParametricClass--><g id="elem_ParametricClass"><rect codeLine="89" fill="#CCFFFF" height="32" id="ParametricClass" rx="2.5" ry="2.5" style="stroke:#A9A9A9;stroke-width:0.5;" width="133" x="2077" y="680"/><ellipse cx="2092" cy="696" fill="#FFFFFF" rx="11" ry="11" style="stroke:#181818;stroke-width:1.0;"/><path d="M2091.9375,691.8281 Q2091.1875,691.8281 2090.625,692.125 Q2090.0625,692.4063 2089.6719,692.9375 Q2089.2813,693.4688 2089.0781,694.25 Q2088.8906,695.0156 2088.8906,695.9688 Q2088.8906,696.9375 2089.0625,697.7031 Q2089.25,698.4531 2089.6094,698.9688 Q2089.9844,699.4844 2090.5625,699.7656 Q2091.1406,700.0313 2091.9375,700.0313 Q2092.6719,700.0313 2093.4063,699.8594 Q2094.1563,699.6875 2095.0313,699.3906 L2095.0313,701.5469 Q2094.625,701.7031 2094.2344,701.8281 Q2093.8438,701.9375 2093.4375,702.0156 Q2093.0313,702.0938 2092.6094,702.125 Q2092.1875,702.1719 2091.6875,702.1719 Q2090.2813,702.1719 2089.25,701.7188 Q2088.2344,701.2656 2087.5625,700.4531 Q2086.8906,699.6406 2086.5625,698.5 Q2086.2344,697.3438 2086.2344,695.9531 Q2086.2344,694.5781 2086.6094,693.4219 Q2086.9844,692.2656 2087.7031,691.4375 Q2088.4219,690.6094 2089.4844,690.1563 Q2090.5469,689.6875 2091.9375,689.6875 Q2092.8438,689.6875 2093.75,689.9219 Q2094.6563,690.1406 2095.4844,690.5469 L2094.6563,692.6406 Q2093.9688,692.3125 2093.2813,692.0781 Q2092.5938,691.8281 2091.9375,691.8281 Z " fill="#000000"/><text fill="#000000" font-family="sans-serif" font-size="14" lengthAdjust="spacing" textLength="101" x="2106" y="700.8467">ParametricClass</text></g><!--class ContainerEntity--><g id="elem_ContainerEntity"><rect codeLine="91" fill="#CCFFFF" height="32" id="ContainerEntity" rx="2.5" ry="2.5" style="stroke:#A9A9A9;stroke-width:0.5;" width="130" x="1258.5" y="319"/><ellipse cx="1273.5" cy="335" fill="#FFFFFF" rx="11" ry="11" style="stroke:#181818;stroke-width:1.0;"/><path d="M1273.4375,330.8281 Q1272.6875,330.8281 1272.125,331.125 Q1271.5625,331.4063 1271.1719,331.9375 Q1270.7813,332.4688 1270.5781,333.25 Q1270.3906,334.0156 1270.3906,334.9688 Q1270.3906,335.9375 1270.5625,336.7031 Q1270.75,337.4531 1271.1094,337.9688 Q1271.4844,338.4844 1272.0625,338.7656 Q1272.6406,339.0313 1273.4375,339.0313 Q1274.1719,339.0313 1274.9063,338.8594 Q1275.6563,338.6875 1276.5313,338.3906 L1276.5313,340.5469 Q1276.125,340.7031 1275.7344,340.8281 Q1275.3438,340.9375 1274.9375,341.0156 Q1274.5313,341.0938 1274.1094,341.125 Q1273.6875,341.1719 1273.1875,341.1719 Q1271.7813,341.1719 1270.75,340.7188 Q1269.7344,340.2656 1269.0625,339.4531 Q1268.3906,338.6406 1268.0625,337.5 Q1267.7344,336.3438 1267.7344,334.9531 Q1267.7344,333.5781 1268.1094,332.4219 Q1268.4844,331.2656 1269.2031,330.4375 Q1269.9219,329.6094 1270.9844,329.1563 Q1272.0469,328.6875 1273.4375,328.6875 Q1274.3438,328.6875 1275.25,328.9219 Q1276.1563,329.1406 1276.9844,329.5469 L1276.1563,331.6406 Q1275.4688,331.3125 1274.7813,331.0781 Q1274.0938,330.8281 1273.4375,330.8281 Z " fill="#000000"/><text fill="#000000" font-family="sans-serif" font-size="14" lengthAdjust="spacing" textLength="98" x="1287.5" y="339.8467">ContainerEntity</text></g><!--class PrimitiveType--><g id="elem_PrimitiveType"><rect codeLine="93" fill="#CCFFFF" height="32" id="PrimitiveType" rx="2.5" ry="2.5" style="stroke:#A9A9A9;stroke-width:0.5;" width="121" x="1562" y="588"/><ellipse cx="1577" cy="604" fill="#FFFFFF" rx="11" ry="11" style="stroke:#181818;stroke-width:1.0;"/><path d="M1576.9375,599.8281 Q1576.1875,599.8281 1575.625,600.125 Q1575.0625,600.4063 1574.6719,600.9375 Q1574.2813,601.4688 1574.0781,602.25 Q1573.8906,603.0156 1573.8906,603.9688 Q1573.8906,604.9375 1574.0625,605.7031 Q1574.25,606.4531 1574.6094,606.9688 Q1574.9844,607.4844 1575.5625,607.7656 Q1576.1406,608.0313 1576.9375,608.0313 Q1577.6719,608.0313 1578.4063,607.8594 Q1579.1563,607.6875 1580.0313,607.3906 L1580.0313,609.5469 Q1579.625,609.7031 1579.2344,609.8281 Q1578.8438,609.9375 1578.4375,610.0156 Q1578.0313,610.0938 1577.6094,610.125 Q1577.1875,610.1719 1576.6875,610.1719 Q1575.2813,610.1719 1574.25,609.7188 Q1573.2344,609.2656 1572.5625,608.4531 Q1571.8906,607.6406 1571.5625,606.5 Q1571.2344,605.3438 1571.2344,603.9531 Q1571.2344,602.5781 1571.6094,601.4219 Q1571.9844,600.2656 1572.7031,599.4375 Q1573.4219,598.6094 1574.4844,598.1563 Q1575.5469,597.6875 1576.9375,597.6875 Q1577.8438,597.6875 1578.75,597.9219 Q1579.6563,598.1406 1580.4844,598.5469 L1579.6563,600.6406 Q1578.9688,600.3125 1578.2813,600.0781 Q1577.5938,599.8281 1576.9375,599.8281 Z " fill="#000000"/><text fill="#000000" font-family="sans-serif" font-size="14" lengthAdjust="spacing" textLength="89" x="1591" y="608.8467">PrimitiveType</text></g><!--class Accessor--><g id="elem_Accessor"><rect codeLine="95" fill="#CCFFFF" height="32" id="Accessor" rx="2.5" ry="2.5" style="stroke:#A9A9A9;stroke-width:0.5;" width="87" x="972" y="680"/><ellipse cx="987" cy="696" fill="#FFFFFF" rx="11" ry="11" style="stroke:#181818;stroke-width:1.0;"/><path d="M986.9375,691.8281 Q986.1875,691.8281 985.625,692.125 Q985.0625,692.4063 984.6719,692.9375 Q984.2813,693.4688 984.0781,694.25 Q983.8906,695.0156 983.8906,695.9688 Q983.8906,696.9375 984.0625,697.7031 Q984.25,698.4531 984.6094,698.9688 Q984.9844,699.4844 985.5625,699.7656 Q986.1406,700.0313 986.9375,700.0313 Q987.6719,700.0313 988.4063,699.8594 Q989.1563,699.6875 990.0313,699.3906 L990.0313,701.5469 Q989.625,701.7031 989.2344,701.8281 Q988.8438,701.9375 988.4375,702.0156 Q988.0313,702.0938 987.6094,702.125 Q987.1875,702.1719 986.6875,702.1719 Q985.2813,702.1719 984.25,701.7188 Q983.2344,701.2656 982.5625,700.4531 Q981.8906,699.6406 981.5625,698.5 Q981.2344,697.3438 981.2344,695.9531 Q981.2344,694.5781 981.6094,693.4219 Q981.9844,692.2656 982.7031,691.4375 Q983.4219,690.6094 984.4844,690.1563 Q985.5469,689.6875 986.9375,689.6875 Q987.8438,689.6875 988.75,689.9219 Q989.6563,690.1406 990.4844,690.5469 L989.6563,692.6406 Q988.9688,692.3125 988.2813,692.0781 Q987.5938,691.8281 986.9375,691.8281 Z " fill="#000000"/><text fill="#000000" font-family="sans-serif" font-size="14" lengthAdjust="spacing" textLength="55" x="1001" y="700.8467">Accessor</text></g><!--class ParametricFunction--><g id="elem_ParametricFunction"><rect codeLine="97" fill="#CCFFFF" height="32" id="ParametricFunction" rx="2.5" ry="2.5" style="stroke:#A9A9A9;stroke-width:0.5;" width="156" x="1280.5" y="680"/><ellipse cx="1295.5" cy="696" fill="#FFFFFF" rx="11" ry="11" style="stroke:#181818;stroke-width:1.0;"/><path d="M1295.4375,691.8281 Q1294.6875,691.8281 1294.125,692.125 Q1293.5625,692.4063 1293.1719,692.9375 Q1292.7813,693.4688 1292.5781,694.25 Q1292.3906,695.0156 1292.3906,695.9688 Q1292.3906,696.9375 1292.5625,697.7031 Q1292.75,698.4531 1293.1094,698.9688 Q1293.4844,699.4844 1294.0625,699.7656 Q1294.6406,700.0313 1295.4375,700.0313 Q1296.1719,700.0313 1296.9063,699.8594 Q1297.6563,699.6875 1298.5313,699.3906 L1298.5313,701.5469 Q1298.125,701.7031 1297.7344,701.8281 Q1297.3438,701.9375 1296.9375,702.0156 Q1296.5313,702.0938 1296.1094,702.125 Q1295.6875,702.1719 1295.1875,702.1719 Q1293.7813,702.1719 1292.75,701.7188 Q1291.7344,701.2656 1291.0625,700.4531 Q1290.3906,699.6406 1290.0625,698.5 Q1289.7344,697.3438 1289.7344,695.9531 Q1289.7344,694.5781 1290.1094,693.4219 Q1290.4844,692.2656 1291.2031,691.4375 Q1291.9219,690.6094 1292.9844,690.1563 Q1294.0469,689.6875 1295.4375,689.6875 Q1296.3438,689.6875 1297.25,689.9219 Q1298.1563,690.1406 1298.9844,690.5469 L1298.1563,692.6406 Q1297.4688,692.3125 1296.7813,692.0781 Q1296.0938,691.8281 1295.4375,691.8281 Z " fill="#000000"/><text fill="#000000" font-family="sans-serif" font-size="14" lengthAdjust="spacing" textLength="124" x="1309.5" y="700.8467">ParametricFunction</text></g><!--class Method--><g id="elem_Method"><rect codeLine="99" fill="#CCFFFF" height="32" id="Method" rx="2.5" ry="2.5" style="stroke:#A9A9A9;stroke-width:0.5;" width="81" x="1129" y="588"/><ellipse cx="1144" cy="604" fill="#FFFFFF" rx="11" ry="11" style="stroke:#181818;stroke-width:1.0;"/><path d="M1143.9375,599.8281 Q1143.1875,599.8281 1142.625,600.125 Q1142.0625,600.4063 1141.6719,600.9375 Q1141.2813,601.4688 1141.0781,602.25 Q1140.8906,603.0156 1140.8906,603.9688 Q1140.8906,604.9375 1141.0625,605.7031 Q1141.25,606.4531 1141.6094,606.9688 Q1141.9844,607.4844 1142.5625,607.7656 Q1143.1406,608.0313 1143.9375,608.0313 Q1144.6719,608.0313 1145.4063,607.8594 Q1146.1563,607.6875 1147.0313,607.3906 L1147.0313,609.5469 Q1146.625,609.7031 1146.2344,609.8281 Q1145.8438,609.9375 1145.4375,610.0156 Q1145.0313,610.0938 1144.6094,610.125 Q1144.1875,610.1719 1143.6875,610.1719 Q1142.2813,610.1719 1141.25,609.7188 Q1140.2344,609.2656 1139.5625,608.4531 Q1138.8906,607.6406 1138.5625,606.5 Q1138.2344,605.3438 1138.2344,603.9531 Q1138.2344,602.5781 1138.6094,601.4219 Q1138.9844,600.2656 1139.7031,599.4375 Q1140.4219,598.6094 1141.4844,598.1563 Q1142.5469,597.6875 1143.9375,597.6875 Q1144.8438,597.6875 1145.75,597.9219 Q1146.6563,598.1406 1147.4844,598.5469 L1146.6563,600.6406 Q1145.9688,600.3125 1145.2813,600.0781 Q1144.5938,599.8281 1143.9375,599.8281 Z " fill="#000000"/><text fill="#000000" font-family="sans-serif" font-size="14" lengthAdjust="spacing" textLength="49" x="1158" y="608.8467">Method</text></g><!--class ParameterType--><g id="elem_ParameterType"><rect codeLine="101" fill="#CCFFFF" height="32" id="ParameterType" rx="2.5" ry="2.5" style="stroke:#A9A9A9;stroke-width:0.5;" width="130" x="1718.5" y="588"/><ellipse cx="1733.5" cy="604" fill="#FFFFFF" rx="11" ry="11" style="stroke:#181818;stroke-width:1.0;"/><path d="M1733.4375,599.8281 Q1732.6875,599.8281 1732.125,600.125 Q1731.5625,600.4063 1731.1719,600.9375 Q1730.7813,601.4688 1730.5781,602.25 Q1730.3906,603.0156 1730.3906,603.9688 Q1730.3906,604.9375 1730.5625,605.7031 Q1730.75,606.4531 1731.1094,606.9688 Q1731.4844,607.4844 1732.0625,607.7656 Q1732.6406,608.0313 1733.4375,608.0313 Q1734.1719,608.0313 1734.9063,607.8594 Q1735.6563,607.6875 1736.5313,607.3906 L1736.5313,609.5469 Q1736.125,609.7031 1735.7344,609.8281 Q1735.3438,609.9375 1734.9375,610.0156 Q1734.5313,610.0938 1734.1094,610.125 Q1733.6875,610.1719 1733.1875,610.1719 Q1731.7813,610.1719 1730.75,609.7188 Q1729.7344,609.2656 1729.0625,608.4531 Q1728.3906,607.6406 1728.0625,606.5 Q1727.7344,605.3438 1727.7344,603.9531 Q1727.7344,602.5781 1728.1094,601.4219 Q1728.4844,600.2656 1729.2031,599.4375 Q1729.9219,598.6094 1730.9844,598.1563 Q1732.0469,597.6875 1733.4375,597.6875 Q1734.3438,597.6875 1735.25,597.9219 Q1736.1563,598.1406 1736.9844,598.5469 L1736.1563,600.6406 Q1735.4688,600.3125 1734.7813,600.0781 Q1734.0938,599.8281 1733.4375,599.8281 Z " fill="#000000"/><text fill="#000000" font-family="sans-serif" font-size="14" lengthAdjust="spacing" textLength="98" x="1747.5" y="608.8467">ParameterType</text></g><!--class ScriptEntity--><g id="elem_ScriptEntity"><rect codeLine="103" fill="#CCFFFF" height="32" id="ScriptEntity" rx="2.5" ry="2.5" style="stroke:#A9A9A9;stroke-width:0.5;" width="104" x="845.5" y="588"/><ellipse cx="860.5" cy="604" fill="#FFFFFF" rx="11" ry="11" style="stroke:#181818;stroke-width:1.0;"/><path d="M860.4375,599.8281 Q859.6875,599.8281 859.125,600.125 Q858.5625,600.4063 858.1719,600.9375 Q857.7813,601.4688 857.5781,602.25 Q857.3906,603.0156 857.3906,603.9688 Q857.3906,604.9375 857.5625,605.7031 Q857.75,606.4531 858.1094,606.9688 Q858.4844,607.4844 859.0625,607.7656 Q859.6406,608.0313 860.4375,608.0313 Q861.1719,608.0313 861.9063,607.8594 Q862.6563,607.6875 863.5313,607.3906 L863.5313,609.5469 Q863.125,609.7031 862.7344,609.8281 Q862.3438,609.9375 861.9375,610.0156 Q861.5313,610.0938 861.1094,610.125 Q860.6875,610.1719 860.1875,610.1719 Q858.7813,610.1719 857.75,609.7188 Q856.7344,609.2656 856.0625,608.4531 Q855.3906,607.6406 855.0625,606.5 Q854.7344,605.3438 854.7344,603.9531 Q854.7344,602.5781 855.1094,601.4219 Q855.4844,600.2656 856.2031,599.4375 Q856.9219,598.6094 857.9844,598.1563 Q859.0469,597.6875 860.4375,597.6875 Q861.3438,597.6875 862.25,597.9219 Q863.1563,598.1406 863.9844,598.5469 L863.1563,600.6406 Q862.4688,600.3125 861.7813,600.0781 Q861.0938,599.8281 860.4375,599.8281 Z " fill="#000000"/><text fill="#000000" font-family="sans-serif" font-size="14" lengthAdjust="spacing" textLength="72" x="874.5" y="608.8467">ScriptEntity</text></g><!--class Property--><g id="elem_Property"><rect codeLine="105" fill="#CCFFFF" height="105.1875" id="Property" rx="2.5" ry="2.5" style="stroke:#A9A9A9;stroke-width:0.5;" width="197" x="424" y="423"/><ellipse cx="490.25" cy="439" fill="#FFFFFF" rx="11" ry="11" style="stroke:#181818;stroke-width:1.0;"/><path d="M490.1875,434.8281 Q489.4375,434.8281 488.875,435.125 Q488.3125,435.4063 487.9219,435.9375 Q487.5313,436.4688 487.3281,437.25 Q487.1406,438.0156 487.1406,438.9688 Q487.1406,439.9375 487.3125,440.7031 Q487.5,441.4531 487.8594,441.9688 Q488.2344,442.4844 488.8125,442.7656 Q489.3906,443.0313 490.1875,443.0313 Q490.9219,443.0313 491.6563,442.8594 Q492.4063,442.6875 493.2813,442.3906 L493.2813,444.5469 Q492.875,444.7031 492.4844,444.8281 Q492.0938,444.9375 491.6875,445.0156 Q491.2813,445.0938 490.8594,445.125 Q490.4375,445.1719 489.9375,445.1719 Q488.5313,445.1719 487.5,444.7188 Q486.4844,444.2656 485.8125,443.4531 Q485.1406,442.6406 484.8125,441.5 Q484.4844,440.3438 484.4844,438.9531 Q484.4844,437.5781 484.8594,436.4219 Q485.2344,435.2656 485.9531,434.4375 Q486.6719,433.6094 487.7344,433.1563 Q488.7969,432.6875 490.1875,432.6875 Q491.0938,432.6875 492,432.9219 Q492.9063,433.1406 493.7344,433.5469 L492.9063,435.6406 Q492.2188,435.3125 491.5313,435.0781 Q490.8438,434.8281 490.1875,434.8281 Z " fill="#000000"/><text fill="#000000" font-family="sans-serif" font-size="14" lengthAdjust="spacing" textLength="56" x="510.75" y="443.8467">Property</text><line style="stroke:#A9A9A9;stroke-width:0.5;" x1="425" x2="620" y1="455" y2="455"/><text fill="#000000" font-family="sans-serif" font-size="14" lengthAdjust="spacing" textLength="120" x="430" y="471.9951">Boolean isOptional</text><text fill="#000000" font-family="sans-serif" font-size="14" lengthAdjust="spacing" textLength="114" x="430" y="488.292">Boolean readOnly</text><text fill="#000000" font-family="sans-serif" font-size="14" lengthAdjust="spacing" textLength="185" x="430" y="504.5889">Boolean isDefinitelyAssigned</text><text fill="#000000" font-family="sans-serif" font-size="14" lengthAdjust="spacing" textLength="172" x="430" y="520.8857">Boolean isJavaScriptPrivate</text></g><!--class implicitVariable--><g id="elem_implicitVariable"><rect codeLine="111" fill="#CCFFFF" height="32" id="implicitVariable" rx="2.5" ry="2.5" style="stroke:#A9A9A9;stroke-width:0.5;" width="132" x="280.5" y="588"/><ellipse cx="295.5" cy="604" fill="#FFFFFF" rx="11" ry="11" style="stroke:#181818;stroke-width:1.0;"/><path d="M295.4375,599.8281 Q294.6875,599.8281 294.125,600.125 Q293.5625,600.4063 293.1719,600.9375 Q292.7813,601.4688 292.5781,602.25 Q292.3906,603.0156 292.3906,603.9688 Q292.3906,604.9375 292.5625,605.7031 Q292.75,606.4531 293.1094,606.9688 Q293.4844,607.4844 294.0625,607.7656 Q294.6406,608.0313 295.4375,608.0313 Q296.1719,608.0313 296.9063,607.8594 Q297.6563,607.6875 298.5313,607.3906 L298.5313,609.5469 Q298.125,609.7031 297.7344,609.8281 Q297.3438,609.9375 296.9375,610.0156 Q296.5313,610.0938 296.1094,610.125 Q295.6875,610.1719 295.1875,610.1719 Q293.7813,610.1719 292.75,609.7188 Q291.7344,609.2656 291.0625,608.4531 Q290.3906,607.6406 290.0625,606.5 Q289.7344,605.3438 289.7344,603.9531 Q289.7344,602.5781 290.1094,601.4219 Q290.4844,600.2656 291.2031,599.4375 Q291.9219,598.6094 292.9844,598.1563 Q294.0469,597.6875 295.4375,597.6875 Q296.3438,597.6875 297.25,597.9219 Q298.1563,598.1406 298.9844,598.5469 L298.1563,600.6406 Q297.4688,600.3125 296.7813,600.0781 Q296.0938,599.8281 295.4375,599.8281 Z " fill="#000000"/><text fill="#000000" font-family="sans-serif" font-size="14" lengthAdjust="spacing" textLength="100" x="309.5" y="608.8467">implicitVariable</text></g><!--class StructuralEntity--><g id="elem_StructuralEntity"><rect codeLine="113" fill="#CCFFFF" height="32" id="StructuralEntity" rx="2.5" ry="2.5" style="stroke:#A9A9A9;stroke-width:0.5;" width="130" x="369.5" y="319"/><ellipse cx="384.5" cy="335" fill="#FFFFFF" rx="11" ry="11" style="stroke:#181818;stroke-width:1.0;"/><path d="M384.4375,330.8281 Q383.6875,330.8281 383.125,331.125 Q382.5625,331.4063 382.1719,331.9375 Q381.7813,332.4688 381.5781,333.25 Q381.3906,334.0156 381.3906,334.9688 Q381.3906,335.9375 381.5625,336.7031 Q381.75,337.4531 382.1094,337.9688 Q382.4844,338.4844 383.0625,338.7656 Q383.6406,339.0313 384.4375,339.0313 Q385.1719,339.0313 385.9063,338.8594 Q386.6563,338.6875 387.5313,338.3906 L387.5313,340.5469 Q387.125,340.7031 386.7344,340.8281 Q386.3438,340.9375 385.9375,341.0156 Q385.5313,341.0938 385.1094,341.125 Q384.6875,341.1719 384.1875,341.1719 Q382.7813,341.1719 381.75,340.7188 Q380.7344,340.2656 380.0625,339.4531 Q379.3906,338.6406 379.0625,337.5 Q378.7344,336.3438 378.7344,334.9531 Q378.7344,333.5781 379.1094,332.4219 Q379.4844,331.2656 380.2031,330.4375 Q380.9219,329.6094 381.9844,329.1563 Q383.0469,328.6875 384.4375,328.6875 Q385.3438,328.6875 386.25,328.9219 Q387.1563,329.1406 387.9844,329.5469 L387.1563,331.6406 Q386.4688,331.3125 385.7813,331.0781 Q385.0938,330.8281 384.4375,330.8281 Z " fill="#000000"/><text fill="#000000" font-family="sans-serif" font-size="14" lengthAdjust="spacing" textLength="98" x="398.5" y="339.8467">StructuralEntity</text></g><!--class File--><g id="elem_File"><rect codeLine="115" fill="#CCFFFF" height="32" id="File" rx="2.5" ry="2.5" style="stroke:#A9A9A9;stroke-width:0.5;" width="55" x="535" y="319"/><ellipse cx="550" cy="335" fill="#FFFFFF" rx="11" ry="11" style="stroke:#181818;stroke-width:1.0;"/><path d="M549.9375,330.8281 Q549.1875,330.8281 548.625,331.125 Q548.0625,331.4063 547.6719,331.9375 Q547.2813,332.4688 547.0781,333.25 Q546.8906,334.0156 546.8906,334.9688 Q546.8906,335.9375 547.0625,336.7031 Q547.25,337.4531 547.6094,337.9688 Q547.9844,338.4844 548.5625,338.7656 Q549.1406,339.0313 549.9375,339.0313 Q550.6719,339.0313 551.4063,338.8594 Q552.1563,338.6875 553.0313,338.3906 L553.0313,340.5469 Q552.625,340.7031 552.2344,340.8281 Q551.8438,340.9375 551.4375,341.0156 Q551.0313,341.0938 550.6094,341.125 Q550.1875,341.1719 549.6875,341.1719 Q548.2813,341.1719 547.25,340.7188 Q546.2344,340.2656 545.5625,339.4531 Q544.8906,338.6406 544.5625,337.5 Q544.2344,336.3438 544.2344,334.9531 Q544.2344,333.5781 544.6094,332.4219 Q544.9844,331.2656 545.7031,330.4375 Q546.4219,329.6094 547.4844,329.1563 Q548.5469,328.6875 549.9375,328.6875 Q550.8438,328.6875 551.75,328.9219 Q552.6563,329.1406 553.4844,329.5469 L552.6563,331.6406 Q551.9688,331.3125 551.2813,331.0781 Q550.5938,330.8281 549.9375,330.8281 Z " fill="#000000"/><text fill="#000000" font-family="sans-serif" font-size="14" lengthAdjust="spacing" textLength="23" x="564" y="339.8467">File</text></g><!--reverse link Entity to SourceLanguage--><g id="link_Entity_SourceLanguage"><path codeLine="117" d="M948.25,28.2 C826.62,37.92 522.98,63.83 270.5,99 C264.71,99.81 258.71,100.71 252.71,101.68 " fill="none" id="Entity-backto-SourceLanguage" style="stroke:#000000;stroke-width:1.0;"/><polygon fill="none" points="947.97,21.2,968.46,26.6,949.08,35.16,947.97,21.2" style="stroke:#000000;stroke-width:1.0;"/></g><!--reverse link NamedEntity to File--><g id="link_NamedEntity_File"><path codeLine="118" d="M334.21,241.87 C339.05,243.61 343.85,245.33 348.5,247 C423.13,273.76 444.66,273.45 516.5,307 C523.88,310.45 531.63,314.72 538.61,318.83 " fill="none" id="NamedEntity-backto-File" style="stroke:#000000;stroke-width:1.0;"/><polygon fill="none" points="331.6,248.37,315.15,235.01,336.34,235.2,331.6,248.37" style="stroke:#000000;stroke-width:1.0;"/></g><!--reverse link Method to ParametricMethod--><g id="link_Method_ParametricMethod"><path codeLine="119" d="M1169.5,640.61 C1169.5,654.31 1169.5,669.22 1169.5,679.96 " fill="none" id="Method-backto-ParametricMethod" style="stroke:#000000;stroke-width:1.0;"/><polygon fill="none" points="1162.5,640.27,1169.5,620.27,1176.5,640.27,1162.5,640.27" style="stroke:#000000;stroke-width:1.0;"/></g><!--reverse link Interface to ParametricInterface--><g id="link_Interface_ParametricInterface"><path codeLine="120" d="M1928.5,640.61 C1928.5,654.31 1928.5,669.22 1928.5,679.96 " fill="none" id="Interface-backto-ParametricInterface" style="stroke:#000000;stroke-width:1.0;"/><polygon fill="none" points="1921.5,640.27,1928.5,620.27,1935.5,640.27,1921.5,640.27" style="stroke:#000000;stroke-width:1.0;"/></g><!--reverse link NamedEntity to Decorator--><g id="link_NamedEntity_Decorator"><path codeLine="121" d="M261.62,255.21 C260.23,271.77 260.51,291.22 262.43,306.65 " fill="none" id="NamedEntity-backto-Decorator" style="stroke:#000000;stroke-width:1.0;"/><polygon fill="none" points="254.69,254.18,264.46,235.37,268.55,256.16,254.69,254.18" style="stroke:#000000;stroke-width:1.0;"/></g><!--link Decorator to NamedEntity--><g id="link_Decorator_NamedEntity"><path codeLine="167" d="M285.22,306.65 C288.17,284.33 287.45,253.61 283.08,235.37 " fill="none" id="Decorator-NamedEntity" style="stroke:#000000;stroke-width:1.0;"/><text fill="#000000" font-family="sans-serif" font-size="13" lengthAdjust="spacing" textLength="71" x="209.0181" y="295.8568">decorators*</text><text fill="#000000" font-family="sans-serif" font-size="13" lengthAdjust="spacing" textLength="92" x="179.4711" y="255.0666">decoratedEntity</text></g><!--reverse link StructuralEntity to Parameter--><g id="link_StructuralEntity_Parameter"><path codeLine="122" d="M497.01,358.08 C538.39,373.78 593.18,396.71 638.5,423 C656.82,433.63 675.89,448.45 689.16,459.47 " fill="none" id="StructuralEntity-backto-Parameter" style="stroke:#000000;stroke-width:1.0;"/><polygon fill="none" points="494.47,364.6,478.16,351.07,499.35,351.48,494.47,364.6" style="stroke:#000000;stroke-width:1.0;"/></g><!--reverse link Entity to SourcedEntity--><g id="link_Entity_SourcedEntity"><path codeLine="123" d="M948.29,29.87 C845.72,41.24 616.36,67.9 424.5,99 C418.85,99.92 412.99,100.93 407.13,102 " fill="none" id="Entity-backto-SourcedEntity" style="stroke:#000000;stroke-width:1.0;"/><polygon fill="none" points="947.54,22.91,968.19,27.68,949.07,36.83,947.54,22.91" style="stroke:#000000;stroke-width:1.0;"/></g><!--reverse link SourcedEntity to NamedEntity--><g id="link_SourcedEntity_NamedEntity"><path codeLine="124" d="M324.71,147.41 C311.33,165.85 295.03,188.33 284.46,202.89 " fill="none" id="SourcedEntity-backto-NamedEntity" style="stroke:#000000;stroke-width:1.0;"/><polygon fill="none" points="319.17,143.13,336.58,131.05,330.5,151.35,319.17,143.13" style="stroke:#000000;stroke-width:1.0;"/></g><!--reverse link Type to Class--><g id="link_Type_Class"><path codeLine="125" d="M1905.1,498.29 C1964.33,524.3 2061.66,567.05 2111.66,589.01 " fill="none" id="Type-backto-Class" style="stroke:#000000;stroke-width:1.0;"/><polygon fill="none" points="1902.09,504.61,1886.59,490.16,1907.72,491.79,1902.09,504.61" style="stroke:#000000;stroke-width:1.0;"/></g><!--reverse link Entity to Invocation--><g id="link_Entity_Invocation"><path codeLine="126" d="M948.48,32.18 C864.73,45.08 698.58,71.51 558.5,99 C552.77,100.12 546.78,101.37 540.83,102.64 " fill="none" id="Entity-backto-Invocation" style="stroke:#000000;stroke-width:1.0;"/><polygon fill="none" points="947.58,25.24,968.41,29.13,949.7,39.08,947.58,25.24" style="stroke:#000000;stroke-width:1.0;"/></g><!--reverse link Entity to ParameterConcretization--><g id="link_Entity_ParameterConcretization"><path codeLine="127" d="M948.82,38.6 C887.77,55.2 788.58,82.16 726.85,98.95 " fill="none" id="Entity-backto-ParameterConcretization" style="stroke:#000000;stroke-width:1.0;"/><polygon fill="none" points="947.19,31.79,968.32,33.29,950.86,45.29,947.19,31.79" style="stroke:#000000;stroke-width:1.0;"/></g><!--reverse link ContainerEntity to BehaviouralEntity--><g id="link_ContainerEntity_BehaviouralEntity"><path codeLine="128" d="M1323.5,371.21 C1323.5,399.7 1323.5,438.42 1323.5,459.43 " fill="none" id="ContainerEntity-backto-BehaviouralEntity" style="stroke:#000000;stroke-width:1.0;"/><polygon fill="none" points="1316.5,371.09,1323.5,351.09,1330.5,371.09,1316.5,371.09" style="stroke:#000000;stroke-width:1.0;"/></g><!--reverse link NamedEntity to Folder--><g id="link_NamedEntity_Folder"><path codeLine="129" d="M224.84,243.98 C189.49,261.42 140.51,285.62 97.5,307 C89.71,310.87 81.29,315.07 73.48,318.98 " fill="none" id="NamedEntity-backto-Folder" style="stroke:#000000;stroke-width:1.0;"/><polygon fill="none" points="221.92,237.61,242.96,235.05,228.11,250.17,221.92,237.61" style="stroke:#000000;stroke-width:1.0;"/></g><!--reverse link ContainerEntity to Type--><g id="link_ContainerEntity_Type"><path codeLine="130" d="M1400.76,356.11 C1519.77,387.1 1742.75,445.15 1824.47,466.42 " fill="none" id="ContainerEntity-backto-Type" style="stroke:#000000;stroke-width:1.0;"/><polygon fill="none" points="1398.78,362.83,1381.19,351.02,1402.31,349.28,1398.78,362.83" style="stroke:#000000;stroke-width:1.0;"/></g><!--reverse link SourcedEntity to Comment--><g id="link_SourcedEntity_Comment"><path codeLine="131" d="M370.73,147.6 C380.95,161.5 392.84,177.66 402.64,190.99 " fill="none" id="SourcedEntity-backto-Comment" style="stroke:#000000;stroke-width:1.0;"/><polygon fill="none" points="364.77,151.31,358.57,131.05,376.05,143.02,364.77,151.31" style="stroke:#000000;stroke-width:1.0;"/></g><!--reverse link BehaviouralEntity to Function--><g id="link_BehaviouralEntity_Function"><path codeLine="132" d="M1323.5,511.77 C1323.5,536.7 1323.5,568.9 1323.5,587.62 " fill="none" id="BehaviouralEntity-backto-Function" style="stroke:#000000;stroke-width:1.0;"/><polygon fill="none" points="1316.5,511.51,1323.5,491.51,1330.5,511.51,1316.5,511.51" style="stroke:#000000;stroke-width:1.0;"/></g><!--reverse link Entity to Reference--><g id="link_Entity_Reference"><path codeLine="133" d="M959.72,49.33 C932.76,65.29 898.85,85.37 876.02,98.89 " fill="none" id="Entity-backto-Reference" style="stroke:#000000;stroke-width:1.0;"/><polygon fill="none" points="956.28,43.23,977.06,39.06,963.42,55.28,956.28,43.23" style="stroke:#000000;stroke-width:1.0;"/></g><!--reverse link BehaviouralEntity to ArrowFunction--><g id="link_BehaviouralEntity_ArrowFunction"><path codeLine="134" d="M1355.38,505.1 C1383.88,530.67 1424.57,567.18 1447.35,587.62 " fill="none" id="BehaviouralEntity-backto-ArrowFunction" style="stroke:#000000;stroke-width:1.0;"/><polygon fill="none" points="1350.44,510.07,1340.23,491.51,1359.79,499.65,1350.44,510.07" style="stroke:#000000;stroke-width:1.0;"/></g><!--reverse link Entity to Implementation--><g id="link_Entity_Implementation"><path codeLine="135" d="M1002.5,59.61 C1002.5,73.31 1002.5,88.22 1002.5,98.96 " fill="none" id="Entity-backto-Implementation" style="stroke:#000000;stroke-width:1.0;"/><polygon fill="none" points="995.5,59.27,1002.5,39.27,1009.5,59.27,995.5,59.27" style="stroke:#000000;stroke-width:1.0;"/></g><!--reverse link Entity to Access--><g id="link_Entity_Access"><path codeLine="136" d="M1042.98,50.02 C1067.63,65.87 1098.27,85.57 1118.99,98.89 " fill="none" id="Entity-backto-Access" style="stroke:#000000;stroke-width:1.0;"/><polygon fill="none" points="1038.97,55.77,1025.93,39.06,1046.54,43.99,1038.97,55.77" style="stroke:#000000;stroke-width:1.0;"/></g><!--reverse link StructuralEntity to EnumValue--><g id="link_StructuralEntity_EnumValue"><path codeLine="137" d="M389.41,360.8 C359.68,377.56 320.16,400.64 286.5,423 C269.07,434.58 250.07,448.9 236.43,459.49 " fill="none" id="StructuralEntity-backto-EnumValue" style="stroke:#000000;stroke-width:1.0;"/><polygon fill="none" points="386.07,354.65,406.95,351,392.9,366.87,386.07,354.65" style="stroke:#000000;stroke-width:1.0;"/></g><!--reverse link Type to Interface--><g id="link_Type_Interface"><path codeLine="138" d="M1874.33,509.12 C1888.9,534.38 1908.43,568.23 1919.62,587.62 " fill="none" id="Type-backto-Interface" style="stroke:#000000;stroke-width:1.0;"/><polygon fill="none" points="1868.09,512.33,1864.16,491.51,1880.22,505.33,1868.09,512.33" style="stroke:#000000;stroke-width:1.0;"/></g><!--reverse link Entity to ImportClause--><g id="link_Entity_ImportClause"><path codeLine="139" d="M1055.81,41.7 C1106.07,58.4 1180.58,83.14 1228.08,98.92 " fill="none" id="Entity-backto-ImportClause" style="stroke:#000000;stroke-width:1.0;"/><polygon fill="none" points="1053.32,48.25,1036.55,35.31,1057.73,34.97,1053.32,48.25" style="stroke:#000000;stroke-width:1.0;"/></g><!--reverse link ScriptEntity to Module--><g id="link_ScriptEntity_Module"><path codeLine="140" d="M897.1,640.61 C896.95,654.31 896.79,669.22 896.67,679.96 " fill="none" id="ScriptEntity-backto-Module" style="stroke:#000000;stroke-width:1.0;"/><polygon fill="none" points="890.11,640.19,897.33,620.27,904.11,640.34,890.11,640.19" style="stroke:#000000;stroke-width:1.0;"/></g><!--reverse link SourceAnchor to IndexedFileAnchor--><g id="link_SourceAnchor_IndexedFileAnchor"><path codeLine="141" d="M1382.63,140.74 C1347.44,160.14 1299.6,186.52 1269.91,202.89 " fill="none" id="SourceAnchor-backto-IndexedFileAnchor" style="stroke:#000000;stroke-width:1.0;"/><polygon fill="none" points="1379.31,134.58,1400.2,131.05,1386.07,146.84,1379.31,134.58" style="stroke:#000000;stroke-width:1.0;"/></g><!--reverse link ScopingEntity to Namespace--><g id="link_ScopingEntity_Namespace"><path codeLine="142" d="M1039.5,511.77 C1039.5,536.7 1039.5,568.9 1039.5,587.62 " fill="none" id="ScopingEntity-backto-Namespace" style="stroke:#000000;stroke-width:1.0;"/><polygon fill="none" points="1032.5,511.51,1039.5,491.51,1046.5,511.51,1032.5,511.51" style="stroke:#000000;stroke-width:1.0;"/></g><!--reverse link SourcedEntity to JSDoc--><g id="link_SourcedEntity_JSDoc"><path codeLine="143" d="M396.07,140.13 C425.26,154.71 463.1,173.75 496.5,191 C503.89,194.81 511.85,198.99 519.23,202.9 " fill="none" id="SourcedEntity-backto-JSDoc" style="stroke:#000000;stroke-width:1.0;"/><polygon fill="none" points="392.62,146.23,377.84,131.04,398.86,133.7,392.62,146.23" style="stroke:#000000;stroke-width:1.0;"/></g><!--reverse link NamedEntity to Alias--><g id="link_NamedEntity_Alias"><path codeLine="144" d="M241.46,248.76 C216.66,271.02 183.3,300.97 163.43,318.8 " fill="none" id="NamedEntity-backto-Alias" style="stroke:#000000;stroke-width:1.0;"/><polygon fill="none" points="237.08,243.29,256.64,235.14,246.43,253.71,237.08,243.29" style="stroke:#000000;stroke-width:1.0;"/></g><!--reverse link SourceAnchor to SourceTextAnchor--><g id="link_SourceAnchor_SourceTextAnchor"><path codeLine="145" d="M1427.5,151.19 C1427.5,168.84 1427.5,189.31 1427.5,202.89 " fill="none" id="SourceAnchor-backto-SourceTextAnchor" style="stroke:#000000;stroke-width:1.0;"/><polygon fill="none" points="1420.5,151.05,1427.5,131.05,1434.5,151.05,1420.5,151.05" style="stroke:#000000;stroke-width:1.0;"/></g><!--reverse link StructuralEntity to Variable--><g id="link_StructuralEntity_Variable"><path codeLine="146" d="M413.99,368.28 C395.75,396.99 369.89,437.69 356.07,459.43 " fill="none" id="StructuralEntity-backto-Variable" style="stroke:#000000;stroke-width:1.0;"/><polygon fill="none" points="408.28,364.21,424.91,351.09,420.1,371.72,408.28,364.21" style="stroke:#000000;stroke-width:1.0;"/></g><!--reverse link Type to Enum--><g id="link_Type_Enum"><path codeLine="147" d="M1894.43,502.83 C1932.45,528.55 1988.99,566.8 2020.05,587.81 " fill="none" id="Type-backto-Enum" style="stroke:#000000;stroke-width:1.0;"/><polygon fill="none" points="1890.33,508.51,1877.69,491.51,1898.17,496.92,1890.33,508.51" style="stroke:#000000;stroke-width:1.0;"/></g><!--reverse link Entity to Concretization--><g id="link_Entity_Concretization"><path codeLine="148" d="M1056.53,31.4 C1148.62,44.17 1341.82,71.61 1504.5,99 C1510.49,100.01 1516.73,101.1 1522.96,102.22 " fill="none" id="Entity-backto-Concretization" style="stroke:#000000;stroke-width:1.0;"/><polygon fill="none" points="1055.51,38.33,1036.66,28.66,1057.42,24.46,1055.51,38.33" style="stroke:#000000;stroke-width:1.0;"/></g><!--reverse link Entity to SourceAnchor--><g id="link_Entity_SourceAnchor"><path codeLine="149" d="M1056.13,35.36 C1135.66,52.2 1284.41,83.7 1367.48,101.29 " fill="none" id="Entity-backto-SourceAnchor" style="stroke:#000000;stroke-width:1.0;"/><polygon fill="none" points="1054.68,42.2,1036.56,31.21,1057.58,28.51,1054.68,42.2" style="stroke:#000000;stroke-width:1.0;"/></g><!--reverse link ArrowFunction to ParametricArrowFunction--><g id="link_ArrowFunction_ParametricArrowFunction"><path codeLine="150" d="M1497.56,633.34 C1515.58,648.79 1537.16,667.28 1551.95,679.96 " fill="none" id="ArrowFunction-backto-ParametricArrowFunction" style="stroke:#000000;stroke-width:1.0;"/><polygon fill="none" points="1492.94,638.6,1482.31,620.27,1502.05,627.97,1492.94,638.6" style="stroke:#000000;stroke-width:1.0;"/></g><!--reverse link Entity to Inheritance--><g id="link_Entity_Inheritance"><path codeLine="151" d="M1056.94,28.36 C1170.28,37.82 1439.67,62.41 1663.5,99 C1669.14,99.92 1675.02,101 1680.86,102.14 " fill="none" id="Entity-backto-Inheritance" style="stroke:#000000;stroke-width:1.0;"/><polygon fill="none" points="1056.08,35.31,1036.72,26.69,1057.23,21.36,1056.08,35.31" style="stroke:#000000;stroke-width:1.0;"/></g><!--reverse link ContainerEntity to ScopingEntity--><g id="link_ContainerEntity_ScopingEntity"><path codeLine="152" d="M1274.24,360.02 C1215.6,388.62 1119.45,435.51 1070.4,459.43 " fill="none" id="ContainerEntity-backto-ScopingEntity" style="stroke:#000000;stroke-width:1.0;"/><polygon fill="none" points="1271.52,353.56,1292.57,351.09,1277.66,366.14,1271.52,353.56" style="stroke:#000000;stroke-width:1.0;"/></g><!--reverse link Class to ParametricClass--><g id="link_Class_ParametricClass"><path codeLine="153" d="M2143.5,640.61 C2143.5,654.31 2143.5,669.22 2143.5,679.96 " fill="none" id="Class-backto-ParametricClass" style="stroke:#000000;stroke-width:1.0;"/><polygon fill="none" points="2136.5,640.27,2143.5,620.27,2150.5,640.27,2136.5,640.27" style="stroke:#000000;stroke-width:1.0;"/></g><!--reverse link NamedEntity to ContainerEntity--><g id="link_NamedEntity_ContainerEntity"><path codeLine="154" d="M328.73,241.67 C335.32,243.72 342.01,245.57 348.5,247 C685.17,321.32 1100.55,332.48 1258.46,333.92 " fill="none" id="NamedEntity-backto-ContainerEntity" style="stroke:#000000;stroke-width:1.0;"/><polygon fill="none" points="326.22,248.21,309.57,235.1,330.76,234.97,326.22,248.21" style="stroke:#000000;stroke-width:1.0;"/></g><!--reverse link Type to PrimitiveType--><g id="link_Type_PrimitiveType"><path codeLine="155" d="M1810.19,501.1 C1762.84,526.81 1690.05,566.33 1650.47,587.81 " fill="none" id="Type-backto-PrimitiveType" style="stroke:#000000;stroke-width:1.0;"/><polygon fill="none" points="1806.94,494.9,1827.86,491.51,1813.62,507.2,1806.94,494.9" style="stroke:#000000;stroke-width:1.0;"/></g><!--reverse link Method to Accessor--><g id="link_Method_Accessor"><path codeLine="156" d="M1126.16,630.33 C1098.84,646.29 1064.48,666.37 1041.36,679.89 " fill="none" id="Method-backto-Accessor" style="stroke:#000000;stroke-width:1.0;"/><polygon fill="none" points="1122.92,624.11,1143.72,620.06,1129.99,636.2,1122.92,624.11" style="stroke:#000000;stroke-width:1.0;"/></g><!--reverse link Function to ParametricFunction--><g id="link_Function_ParametricFunction"><path codeLine="157" d="M1336.77,639.13 C1342.25,653.23 1348.32,668.83 1352.65,679.96 " fill="none" id="Function-backto-ParametricFunction" style="stroke:#000000;stroke-width:1.0;"/><polygon fill="none" points="1330.16,641.44,1329.44,620.27,1343.21,636.37,1330.16,641.44" style="stroke:#000000;stroke-width:1.0;"/></g><!--reverse link ScopingEntity to ScriptEntity--><g id="link_ScopingEntity_ScriptEntity"><path codeLine="158" d="M1007.4,505.1 C978.69,530.67 937.71,567.18 914.77,587.62 " fill="none" id="ScopingEntity-backto-ScriptEntity" style="stroke:#000000;stroke-width:1.0;"/><polygon fill="none" points="1003.06,499.58,1022.65,491.51,1012.38,510.04,1003.06,499.58" style="stroke:#000000;stroke-width:1.0;"/></g><!--reverse link Type to ParameterType--><g id="link_Type_ParameterType"><path codeLine="159" d="M1836.93,509.12 C1822.56,534.38 1803.29,568.23 1792.26,587.62 " fill="none" id="Type-backto-ParameterType" style="stroke:#000000;stroke-width:1.0;"/><polygon fill="none" points="1830.98,505.43,1846.96,491.51,1843.15,512.35,1830.98,505.43" style="stroke:#000000;stroke-width:1.0;"/></g><!--reverse link BehaviouralEntity to Method--><g id="link_BehaviouralEntity_Method"><path codeLine="160" d="M1289.55,504.38 C1258.39,529.99 1213.34,566.99 1188.23,587.62 " fill="none" id="BehaviouralEntity-backto-Method" style="stroke:#000000;stroke-width:1.0;"/><polygon fill="none" points="1285.33,498.79,1305.23,491.51,1294.22,509.61,1285.33,498.79" style="stroke:#000000;stroke-width:1.0;"/></g><!--reverse link StructuralEntity to Property--><g id="link_StructuralEntity_Property"><path codeLine="161" d="M454.86,368.04 C465.19,384.3 477.99,404.45 489.67,422.83 " fill="none" id="StructuralEntity-backto-Property" style="stroke:#000000;stroke-width:1.0;"/><polygon fill="none" points="448.9,371.72,444.09,351.09,460.72,364.21,448.9,371.72" style="stroke:#000000;stroke-width:1.0;"/></g><!--reverse link Variable to implicitVariable--><g id="link_Variable_implicitVariable"><path codeLine="162" d="M346.5,511.77 C346.5,536.7 346.5,568.9 346.5,587.62 " fill="none" id="Variable-backto-implicitVariable" style="stroke:#000000;stroke-width:1.0;"/><polygon fill="none" points="339.5,511.51,346.5,491.51,353.5,511.51,339.5,511.51" style="stroke:#000000;stroke-width:1.0;"/></g><!--reverse link NamedEntity to StructuralEntity--><g id="link_NamedEntity_StructuralEntity"><path codeLine="163" d="M311.49,246.9 C343.27,269.4 387.43,300.67 413.29,318.98 " fill="none" id="NamedEntity-backto-StructuralEntity" style="stroke:#000000;stroke-width:1.0;"/><polygon fill="none" points="307.16,252.41,294.88,235.14,315.25,240.98,307.16,252.41" style="stroke:#000000;stroke-width:1.0;"/></g><!--reverse link TClassMetrics to Class--><g id="link_TClassMetrics_Class"><path codeLine="164" d="M2143.5,511.77 C2143.5,536.7 2143.5,568.9 2143.5,587.62 " fill="none" id="TClassMetrics-backto-Class" style="stroke:#000000;stroke-width:1.0;stroke-dasharray:7.0,7.0;"/><polygon fill="none" points="2136.5,511.51,2143.5,491.51,2150.5,511.51,2136.5,511.51" style="stroke:#000000;stroke-width:1.0;"/></g><!--reverse link TEntityCreator to FamixTypeScriptModel--><g id="link_TEntityCreator_FamixTypeScriptModel"><path codeLine="165" d="M1909.5,59.61 C1909.5,73.31 1909.5,88.22 1909.5,98.96 " fill="none" id="TEntityCreator-backto-FamixTypeScriptModel" style="stroke:#000000;stroke-width:1.0;stroke-dasharray:7.0,7.0;"/><polygon fill="none" points="1902.5,59.27,1909.5,39.27,1916.5,59.27,1902.5,59.27" style="stroke:#000000;stroke-width:1.0;"/></g><!--reverse link TWithInterfaces to ContainerEntity--><g id="link_TWithInterfaces_ContainerEntity"><path codeLine="166" d="M1547.07,242.65 C1491.68,265.28 1408.06,299.45 1360.34,318.95 " fill="none" id="TWithInterfaces-backto-ContainerEntity" style="stroke:#000000;stroke-width:1.0;stroke-dasharray:7.0,7.0;"/><polygon fill="none" points="1544.58,236.11,1565.74,235.02,1549.87,249.07,1544.58,236.11" style="stroke:#000000;stroke-width:1.0;"/></g><!--SRC=[bLVTJjim5BxtKqJiPfi6Ju2GIg5Jfp6cjMBNnZcq5euTEKvfD_Rki-EaYPsaEUMYGlRnT_xFTxBbAIIGvUQGP90zWov8ySfbJZND4YPeKIH_IPBSKlQwqQgKwLm9fPEtBJTWpsTQgpT_z2oiZ1DLEWNjprAgNxzgUY3_YCTQgL8p-4xbfgGRIAwlFyw_L5YVRcwI3_FvmlvPXOtuJsS66CtP0vYjIizui9G6z0jbqqhkW2bDZJLtJ399LXPIRXBOvngAWYiPQmGzgSVxdjvBmssqfwH_M5IixBpwdP9QofrYr5ZZiM5qQPHCW-5_SEzkOKjttFf91TBqXH8f8dOBcl7z-f33YccUcmULWfXyjAxYyb2LGnMUzKbfYpuTQPLb8Cs9IhbLIW2L2I- -hUuKQpqe9KF5y1UyW0Q9ADog-T2uo8Giiro0yn6NyHbZWAezR3VUop9xeg84ZALA6vlZifWMjXLJ2WIcJ64FwO8Bc4csLHhLfqMEyQog1vJ_qr4Nd1R8WRE6lK7wyaGrfy-8C7ba9EgPCwGTuUVLz_etDzjZdKtt-r9kGND3CPssziqprz3mn4de5LEvfGjanxKEu-QuZQUXN8B6uckUSSDtW9fmlg4HQMtDHgVeF187ZJBOCm8w5Ye7VKAmEy0VS-SL5Pr3Mm3fenI7GEuENhYqIE8mixl1Ha8QyW3TKM-apSIEshsfiORRMSiPD_Y-CxfavXnwvITH6vJtoyjeDIF1_k7k7HHfCkWEukMCT8PyU7-ywACUbo_Izwq30dh0rXg8H8kL4-Ze8RwAt6dLNm5GknEHGQtXx2AzrdF2lQLd87RLbZFyt9atv4AzQf21dQg2h9ikiFkuEuoz2aPg68c0zuChFn964dJawqwSstn76evyJSAkTTUUeKb8BHujucGIpTScuHKD3uNIRsAzh5GiEg0mviqHpvkkxJZkWa7290Rrqw_XMaD4TM7xd4XQos73nHL4YjJy4gBxfkW59uBhE1dmIJ0H6kuWOvuSdHZ8OBSYkjgwP31MrlK06XaXzSmdxPXrn_7mxOSWXYFH1yNxrLKzKkBzmDqCVRAGtf9IOKIXRZz8BzBct-BpHM9DQWuQGo-wa-u_]--></g></svg>