<?xml version="1.0" encoding="us-ascii" standalone="no"?><svg xmlns="http://www.w3.org/2000/svg" xmlns:xlink="http://www.w3.org/1999/xlink" contentStyleType="text/css" height="622px" preserveAspectRatio="none" style="width:2248px;height:622px;background:#FFFFFF;" version="1.1" viewBox="0 0 2248 622" width="2248px" zoomAndPan="magnify"><defs/><g><!--class Concretization--><g id="elem_Concretization"><rect codeLine="7" fill="#CCFFFF" height="32" id="Concretization" rx="2.5" ry="2.5" style="stroke:#A9A9A9;stroke-width:0.5;" width="123" x="7" y="99"/><ellipse cx="22" cy="115" fill="#FFFFFF" rx="11" ry="11" style="stroke:#181818;stroke-width:1.0;"/><path d="M21.9375,110.8281 Q21.1875,110.8281 20.625,111.125 Q20.0625,111.4063 19.6719,111.9375 Q19.2813,112.4688 19.0781,113.25 Q18.8906,114.0156 18.8906,114.9688 Q18.8906,115.9375 19.0625,116.7031 Q19.25,117.4531 19.6094,117.9688 Q19.9844,118.4844 20.5625,118.7656 Q21.1406,119.0313 21.9375,119.0313 Q22.6719,119.0313 23.4063,118.8594 Q24.1563,118.6875 25.0313,118.3906 L25.0313,120.5469 Q24.625,120.7031 24.2344,120.8281 Q23.8438,120.9375 23.4375,121.0156 Q23.0313,121.0938 22.6094,121.125 Q22.1875,121.1719 21.6875,121.1719 Q20.2813,121.1719 19.25,120.7188 Q18.2344,120.2656 17.5625,119.4531 Q16.8906,118.6406 16.5625,117.5 Q16.2344,116.3438 16.2344,114.9531 Q16.2344,113.5781 16.6094,112.4219 Q16.9844,111.2656 17.7031,110.4375 Q18.4219,109.6094 19.4844,109.1563 Q20.5469,108.6875 21.9375,108.6875 Q22.8438,108.6875 23.75,108.9219 Q24.6563,109.1406 25.4844,109.5469 L24.6563,111.6406 Q23.9688,111.3125 23.2813,111.0781 Q22.5938,110.8281 21.9375,110.8281 Z " fill="#000000"/><text fill="#000000" font-family="sans-serif" font-size="14" lengthAdjust="spacing" textLength="91" x="36" y="119.8467">Concretization</text></g><!--class TWithInterfaces--><g id="elem_TWithInterfaces"><rect codeLine="9" fill="#CCFFFF" height="32" id="TWithInterfaces" rx="2.5" ry="2.5" style="stroke:#A9A9A9;stroke-width:0.5;" width="132" x="1517.5" y="191"/><ellipse cx="1532.5" cy="207" fill="#FFFFFF" rx="11" ry="11" style="stroke:#181818;stroke-width:1.0;"/><path d="M1533.9531,213.75 L1531.3906,213.75 L1531.3906,203.75 L1528.3438,203.75 L1528.3438,201.6094 L1536.9844,201.6094 L1536.9844,203.75 L1533.9531,203.75 L1533.9531,213.75 Z " fill="#000000"/><text fill="#000000" font-family="sans-serif" font-size="14" lengthAdjust="spacing" textLength="100" x="1546.5" y="211.8467">TWithInterfaces</text></g><!--class Access--><g id="elem_Access"><rect codeLine="11" fill="#CCFFFF" height="32" id="Access" rx="2.5" ry="2.5" style="stroke:#A9A9A9;stroke-width:0.5;" width="73" x="165" y="99"/><ellipse cx="180" cy="115" fill="#FFFFFF" rx="11" ry="11" style="stroke:#181818;stroke-width:1.0;"/><path d="M179.9375,110.8281 Q179.1875,110.8281 178.625,111.125 Q178.0625,111.4063 177.6719,111.9375 Q177.2813,112.4688 177.0781,113.25 Q176.8906,114.0156 176.8906,114.9688 Q176.8906,115.9375 177.0625,116.7031 Q177.25,117.4531 177.6094,117.9688 Q177.9844,118.4844 178.5625,118.7656 Q179.1406,119.0313 179.9375,119.0313 Q180.6719,119.0313 181.4063,118.8594 Q182.1563,118.6875 183.0313,118.3906 L183.0313,120.5469 Q182.625,120.7031 182.2344,120.8281 Q181.8438,120.9375 181.4375,121.0156 Q181.0313,121.0938 180.6094,121.125 Q180.1875,121.1719 179.6875,121.1719 Q178.2813,121.1719 177.25,120.7188 Q176.2344,120.2656 175.5625,119.4531 Q174.8906,118.6406 174.5625,117.5 Q174.2344,116.3438 174.2344,114.9531 Q174.2344,113.5781 174.6094,112.4219 Q174.9844,111.2656 175.7031,110.4375 Q176.4219,109.6094 177.4844,109.1563 Q178.5469,108.6875 179.9375,108.6875 Q180.8438,108.6875 181.75,108.9219 Q182.6563,109.1406 183.4844,109.5469 L182.6563,111.6406 Q181.9688,111.3125 181.2813,111.0781 Q180.5938,110.8281 179.9375,110.8281 Z " fill="#000000"/><text fill="#000000" font-family="sans-serif" font-size="14" lengthAdjust="spacing" textLength="41" x="194" y="119.8467">Access</text></g><!--class Reference--><g id="elem_Reference"><rect codeLine="13" fill="#CCFFFF" height="32" id="Reference" rx="2.5" ry="2.5" style="stroke:#A9A9A9;stroke-width:0.5;" width="97" x="273" y="99"/><ellipse cx="288" cy="115" fill="#FFFFFF" rx="11" ry="11" style="stroke:#181818;stroke-width:1.0;"/><path d="M287.9375,110.8281 Q287.1875,110.8281 286.625,111.125 Q286.0625,111.4063 285.6719,111.9375 Q285.2813,112.4688 285.0781,113.25 Q284.8906,114.0156 284.8906,114.9688 Q284.8906,115.9375 285.0625,116.7031 Q285.25,117.4531 285.6094,117.9688 Q285.9844,118.4844 286.5625,118.7656 Q287.1406,119.0313 287.9375,119.0313 Q288.6719,119.0313 289.4063,118.8594 Q290.1563,118.6875 291.0313,118.3906 L291.0313,120.5469 Q290.625,120.7031 290.2344,120.8281 Q289.8438,120.9375 289.4375,121.0156 Q289.0313,121.0938 288.6094,121.125 Q288.1875,121.1719 287.6875,121.1719 Q286.2813,121.1719 285.25,120.7188 Q284.2344,120.2656 283.5625,119.4531 Q282.8906,118.6406 282.5625,117.5 Q282.2344,116.3438 282.2344,114.9531 Q282.2344,113.5781 282.6094,112.4219 Q282.9844,111.2656 283.7031,110.4375 Q284.4219,109.6094 285.4844,109.1563 Q286.5469,108.6875 287.9375,108.6875 Q288.8438,108.6875 289.75,108.9219 Q290.6563,109.1406 291.4844,109.5469 L290.6563,111.6406 Q289.9688,111.3125 289.2813,111.0781 Q288.5938,110.8281 287.9375,110.8281 Z " fill="#000000"/><text fill="#000000" font-family="sans-serif" font-size="14" lengthAdjust="spacing" textLength="65" x="302" y="119.8467">Reference</text></g><!--class Method--><g id="elem_Method"><rect codeLine="15" fill="#CCFFFF" height="32" id="Method" rx="2.5" ry="2.5" style="stroke:#A9A9A9;stroke-width:0.5;" width="81" x="1880" y="399"/><ellipse cx="1895" cy="415" fill="#FFFFFF" rx="11" ry="11" style="stroke:#181818;stroke-width:1.0;"/><path d="M1894.9375,410.8281 Q1894.1875,410.8281 1893.625,411.125 Q1893.0625,411.4063 1892.6719,411.9375 Q1892.2813,412.4688 1892.0781,413.25 Q1891.8906,414.0156 1891.8906,414.9688 Q1891.8906,415.9375 1892.0625,416.7031 Q1892.25,417.4531 1892.6094,417.9688 Q1892.9844,418.4844 1893.5625,418.7656 Q1894.1406,419.0313 1894.9375,419.0313 Q1895.6719,419.0313 1896.4063,418.8594 Q1897.1563,418.6875 1898.0313,418.3906 L1898.0313,420.5469 Q1897.625,420.7031 1897.2344,420.8281 Q1896.8438,420.9375 1896.4375,421.0156 Q1896.0313,421.0938 1895.6094,421.125 Q1895.1875,421.1719 1894.6875,421.1719 Q1893.2813,421.1719 1892.25,420.7188 Q1891.2344,420.2656 1890.5625,419.4531 Q1889.8906,418.6406 1889.5625,417.5 Q1889.2344,416.3438 1889.2344,414.9531 Q1889.2344,413.5781 1889.6094,412.4219 Q1889.9844,411.2656 1890.7031,410.4375 Q1891.4219,409.6094 1892.4844,409.1563 Q1893.5469,408.6875 1894.9375,408.6875 Q1895.8438,408.6875 1896.75,408.9219 Q1897.6563,409.1406 1898.4844,409.5469 L1897.6563,411.6406 Q1896.9688,411.3125 1896.2813,411.0781 Q1895.5938,410.8281 1894.9375,410.8281 Z " fill="#000000"/><text fill="#000000" font-family="sans-serif" font-size="14" lengthAdjust="spacing" textLength="49" x="1909" y="419.8467">Method</text></g><!--class IndexedFileAnchor--><g id="elem_IndexedFileAnchor"><rect codeLine="17" fill="#CCFFFF" height="32" id="IndexedFileAnchor" rx="2.5" ry="2.5" style="stroke:#A9A9A9;stroke-width:0.5;" width="152" x="296.5" y="191"/><ellipse cx="311.5" cy="207" fill="#FFFFFF" rx="11" ry="11" style="stroke:#181818;stroke-width:1.0;"/><path d="M311.4375,202.8281 Q310.6875,202.8281 310.125,203.125 Q309.5625,203.4063 309.1719,203.9375 Q308.7813,204.4688 308.5781,205.25 Q308.3906,206.0156 308.3906,206.9688 Q308.3906,207.9375 308.5625,208.7031 Q308.75,209.4531 309.1094,209.9688 Q309.4844,210.4844 310.0625,210.7656 Q310.6406,211.0313 311.4375,211.0313 Q312.1719,211.0313 312.9063,210.8594 Q313.6563,210.6875 314.5313,210.3906 L314.5313,212.5469 Q314.125,212.7031 313.7344,212.8281 Q313.3438,212.9375 312.9375,213.0156 Q312.5313,213.0938 312.1094,213.125 Q311.6875,213.1719 311.1875,213.1719 Q309.7813,213.1719 308.75,212.7188 Q307.7344,212.2656 307.0625,211.4531 Q306.3906,210.6406 306.0625,209.5 Q305.7344,208.3438 305.7344,206.9531 Q305.7344,205.5781 306.1094,204.4219 Q306.4844,203.2656 307.2031,202.4375 Q307.9219,201.6094 308.9844,201.1563 Q310.0469,200.6875 311.4375,200.6875 Q312.3438,200.6875 313.25,200.9219 Q314.1563,201.1406 314.9844,201.5469 L314.1563,203.6406 Q313.4688,203.3125 312.7813,203.0781 Q312.0938,202.8281 311.4375,202.8281 Z " fill="#000000"/><text fill="#000000" font-family="sans-serif" font-size="14" lengthAdjust="spacing" textLength="120" x="325.5" y="211.8467">IndexedFileAnchor</text></g><!--class Module--><g id="elem_Module"><rect codeLine="19" fill="#CCFFFF" height="32" id="Module" rx="2.5" ry="2.5" style="stroke:#A9A9A9;stroke-width:0.5;" width="80" x="2161.5" y="491"/><ellipse cx="2176.5" cy="507" fill="#FFFFFF" rx="11" ry="11" style="stroke:#181818;stroke-width:1.0;"/><path d="M2176.4375,502.8281 Q2175.6875,502.8281 2175.125,503.125 Q2174.5625,503.4063 2174.1719,503.9375 Q2173.7813,504.4688 2173.5781,505.25 Q2173.3906,506.0156 2173.3906,506.9688 Q2173.3906,507.9375 2173.5625,508.7031 Q2173.75,509.4531 2174.1094,509.9688 Q2174.4844,510.4844 2175.0625,510.7656 Q2175.6406,511.0313 2176.4375,511.0313 Q2177.1719,511.0313 2177.9063,510.8594 Q2178.6563,510.6875 2179.5313,510.3906 L2179.5313,512.5469 Q2179.125,512.7031 2178.7344,512.8281 Q2178.3438,512.9375 2177.9375,513.0156 Q2177.5313,513.0938 2177.1094,513.125 Q2176.6875,513.1719 2176.1875,513.1719 Q2174.7813,513.1719 2173.75,512.7188 Q2172.7344,512.2656 2172.0625,511.4531 Q2171.3906,510.6406 2171.0625,509.5 Q2170.7344,508.3438 2170.7344,506.9531 Q2170.7344,505.5781 2171.1094,504.4219 Q2171.4844,503.2656 2172.2031,502.4375 Q2172.9219,501.6094 2173.9844,501.1563 Q2175.0469,500.6875 2176.4375,500.6875 Q2177.3438,500.6875 2178.25,500.9219 Q2179.1563,501.1406 2179.9844,501.5469 L2179.1563,503.6406 Q2178.4688,503.3125 2177.7813,503.0781 Q2177.0938,502.8281 2176.4375,502.8281 Z " fill="#000000"/><text fill="#000000" font-family="sans-serif" font-size="14" lengthAdjust="spacing" textLength="48" x="2190.5" y="511.8467">Module</text></g><!--class Enum--><g id="elem_Enum"><rect codeLine="21" fill="#CCFFFF" height="32" id="Enum" rx="2.5" ry="2.5" style="stroke:#A9A9A9;stroke-width:0.5;" width="68" x="1526.5" y="491"/><ellipse cx="1541.5" cy="507" fill="#FFFFFF" rx="11" ry="11" style="stroke:#181818;stroke-width:1.0;"/><path d="M1541.4375,502.8281 Q1540.6875,502.8281 1540.125,503.125 Q1539.5625,503.4063 1539.1719,503.9375 Q1538.7813,504.4688 1538.5781,505.25 Q1538.3906,506.0156 1538.3906,506.9688 Q1538.3906,507.9375 1538.5625,508.7031 Q1538.75,509.4531 1539.1094,509.9688 Q1539.4844,510.4844 1540.0625,510.7656 Q1540.6406,511.0313 1541.4375,511.0313 Q1542.1719,511.0313 1542.9063,510.8594 Q1543.6563,510.6875 1544.5313,510.3906 L1544.5313,512.5469 Q1544.125,512.7031 1543.7344,512.8281 Q1543.3438,512.9375 1542.9375,513.0156 Q1542.5313,513.0938 1542.1094,513.125 Q1541.6875,513.1719 1541.1875,513.1719 Q1539.7813,513.1719 1538.75,512.7188 Q1537.7344,512.2656 1537.0625,511.4531 Q1536.3906,510.6406 1536.0625,509.5 Q1535.7344,508.3438 1535.7344,506.9531 Q1535.7344,505.5781 1536.1094,504.4219 Q1536.4844,503.2656 1537.2031,502.4375 Q1537.9219,501.6094 1538.9844,501.1563 Q1540.0469,500.6875 1541.4375,500.6875 Q1542.3438,500.6875 1543.25,500.9219 Q1544.1563,501.1406 1544.9844,501.5469 L1544.1563,503.6406 Q1543.4688,503.3125 1542.7813,503.0781 Q1542.0938,502.8281 1541.4375,502.8281 Z " fill="#000000"/><text fill="#000000" font-family="sans-serif" font-size="14" lengthAdjust="spacing" textLength="36" x="1555.5" y="511.8467">Enum</text></g><!--class Interface--><g id="elem_Interface"><rect codeLine="23" fill="#CCFFFF" height="32" id="Interface" rx="2.5" ry="2.5" style="stroke:#A9A9A9;stroke-width:0.5;" width="90" x="1629.5" y="491"/><ellipse cx="1644.5" cy="507" fill="#FFFFFF" rx="11" ry="11" style="stroke:#181818;stroke-width:1.0;"/><path d="M1644.4375,502.8281 Q1643.6875,502.8281 1643.125,503.125 Q1642.5625,503.4063 1642.1719,503.9375 Q1641.7813,504.4688 1641.5781,505.25 Q1641.3906,506.0156 1641.3906,506.9688 Q1641.3906,507.9375 1641.5625,508.7031 Q1641.75,509.4531 1642.1094,509.9688 Q1642.4844,510.4844 1643.0625,510.7656 Q1643.6406,511.0313 1644.4375,511.0313 Q1645.1719,511.0313 1645.9063,510.8594 Q1646.6563,510.6875 1647.5313,510.3906 L1647.5313,512.5469 Q1647.125,512.7031 1646.7344,512.8281 Q1646.3438,512.9375 1645.9375,513.0156 Q1645.5313,513.0938 1645.1094,513.125 Q1644.6875,513.1719 1644.1875,513.1719 Q1642.7813,513.1719 1641.75,512.7188 Q1640.7344,512.2656 1640.0625,511.4531 Q1639.3906,510.6406 1639.0625,509.5 Q1638.7344,508.3438 1638.7344,506.9531 Q1638.7344,505.5781 1639.1094,504.4219 Q1639.4844,503.2656 1640.2031,502.4375 Q1640.9219,501.6094 1641.9844,501.1563 Q1643.0469,500.6875 1644.4375,500.6875 Q1645.3438,500.6875 1646.25,500.9219 Q1647.1563,501.1406 1647.9844,501.5469 L1647.1563,503.6406 Q1646.4688,503.3125 1645.7813,503.0781 Q1645.0938,502.8281 1644.4375,502.8281 Z " fill="#000000"/><text fill="#000000" font-family="sans-serif" font-size="14" lengthAdjust="spacing" textLength="58" x="1658.5" y="511.8467">Interface</text></g><!--class FamixTypeScriptModel--><g id="elem_FamixTypeScriptModel"><rect codeLine="25" fill="#CCFFFF" height="32" id="FamixTypeScriptModel" rx="2.5" ry="2.5" style="stroke:#A9A9A9;stroke-width:0.5;" width="176" x="1667.5" y="99"/><ellipse cx="1682.5" cy="115" fill="#FFFFFF" rx="11" ry="11" style="stroke:#181818;stroke-width:1.0;"/><path d="M1682.4375,110.8281 Q1681.6875,110.8281 1681.125,111.125 Q1680.5625,111.4063 1680.1719,111.9375 Q1679.7813,112.4688 1679.5781,113.25 Q1679.3906,114.0156 1679.3906,114.9688 Q1679.3906,115.9375 1679.5625,116.7031 Q1679.75,117.4531 1680.1094,117.9688 Q1680.4844,118.4844 1681.0625,118.7656 Q1681.6406,119.0313 1682.4375,119.0313 Q1683.1719,119.0313 1683.9063,118.8594 Q1684.6563,118.6875 1685.5313,118.3906 L1685.5313,120.5469 Q1685.125,120.7031 1684.7344,120.8281 Q1684.3438,120.9375 1683.9375,121.0156 Q1683.5313,121.0938 1683.1094,121.125 Q1682.6875,121.1719 1682.1875,121.1719 Q1680.7813,121.1719 1679.75,120.7188 Q1678.7344,120.2656 1678.0625,119.4531 Q1677.3906,118.6406 1677.0625,117.5 Q1676.7344,116.3438 1676.7344,114.9531 Q1676.7344,113.5781 1677.1094,112.4219 Q1677.4844,111.2656 1678.2031,110.4375 Q1678.9219,109.6094 1679.9844,109.1563 Q1681.0469,108.6875 1682.4375,108.6875 Q1683.3438,108.6875 1684.25,108.9219 Q1685.1563,109.1406 1685.9844,109.5469 L1685.1563,111.6406 Q1684.4688,111.3125 1683.7813,111.0781 Q1683.0938,110.8281 1682.4375,110.8281 Z " fill="#000000"/><text fill="#000000" font-family="sans-serif" font-size="14" lengthAdjust="spacing" textLength="144" x="1696.5" y="119.8467">FamixTypeScriptModel</text></g><!--class Decorator--><g id="elem_Decorator"><rect codeLine="27" fill="#CCFFFF" height="56.2969" id="Decorator" rx="2.5" ry="2.5" style="stroke:#A9A9A9;stroke-width:0.5;" width="122" x="1127.5" y="283"/><ellipse cx="1154.2" cy="299" fill="#FFFFFF" rx="11" ry="11" style="stroke:#181818;stroke-width:1.0;"/><path d="M1154.1375,294.8281 Q1153.3875,294.8281 1152.825,295.125 Q1152.2625,295.4063 1151.8719,295.9375 Q1151.4813,296.4688 1151.2781,297.25 Q1151.0906,298.0156 1151.0906,298.9688 Q1151.0906,299.9375 1151.2625,300.7031 Q1151.45,301.4531 1151.8094,301.9688 Q1152.1844,302.4844 1152.7625,302.7656 Q1153.3406,303.0313 1154.1375,303.0313 Q1154.8719,303.0313 1155.6063,302.8594 Q1156.3563,302.6875 1157.2313,302.3906 L1157.2313,304.5469 Q1156.825,304.7031 1156.4344,304.8281 Q1156.0438,304.9375 1155.6375,305.0156 Q1155.2313,305.0938 1154.8094,305.125 Q1154.3875,305.1719 1153.8875,305.1719 Q1152.4813,305.1719 1151.45,304.7188 Q1150.4344,304.2656 1149.7625,303.4531 Q1149.0906,302.6406 1148.7625,301.5 Q1148.4344,300.3438 1148.4344,298.9531 Q1148.4344,297.5781 1148.8094,296.4219 Q1149.1844,295.2656 1149.9031,294.4375 Q1150.6219,293.6094 1151.6844,293.1563 Q1152.7469,292.6875 1154.1375,292.6875 Q1155.0438,292.6875 1155.95,292.9219 Q1156.8563,293.1406 1157.6844,293.5469 L1156.8563,295.6406 Q1156.1688,295.3125 1155.4813,295.0781 Q1154.7938,294.8281 1154.1375,294.8281 Z " fill="#000000"/><text fill="#000000" font-family="sans-serif" font-size="14" lengthAdjust="spacing" textLength="64" x="1170.8" y="303.8467">Decorator</text><line style="stroke:#A9A9A9;stroke-width:0.5;" x1="1128.5" x2="1248.5" y1="315" y2="315"/><text fill="#000000" font-family="sans-serif" font-size="14" lengthAdjust="spacing" textLength="110" x="1133.5" y="331.9951">String expression</text></g><!--class NamedEntity--><g id="elem_NamedEntity"><rect codeLine="30" fill="#CCFFFF" height="32" id="NamedEntity" rx="2.5" ry="2.5" style="stroke:#A9A9A9;stroke-width:0.5;" width="114" x="852.5" y="191"/><ellipse cx="867.5" cy="207" fill="#FFFFFF" rx="11" ry="11" style="stroke:#181818;stroke-width:1.0;"/><path d="M867.4375,202.8281 Q866.6875,202.8281 866.125,203.125 Q865.5625,203.4063 865.1719,203.9375 Q864.7813,204.4688 864.5781,205.25 Q864.3906,206.0156 864.3906,206.9688 Q864.3906,207.9375 864.5625,208.7031 Q864.75,209.4531 865.1094,209.9688 Q865.4844,210.4844 866.0625,210.7656 Q866.6406,211.0313 867.4375,211.0313 Q868.1719,211.0313 868.9063,210.8594 Q869.6563,210.6875 870.5313,210.3906 L870.5313,212.5469 Q870.125,212.7031 869.7344,212.8281 Q869.3438,212.9375 868.9375,213.0156 Q868.5313,213.0938 868.1094,213.125 Q867.6875,213.1719 867.1875,213.1719 Q865.7813,213.1719 864.75,212.7188 Q863.7344,212.2656 863.0625,211.4531 Q862.3906,210.6406 862.0625,209.5 Q861.7344,208.3438 861.7344,206.9531 Q861.7344,205.5781 862.1094,204.4219 Q862.4844,203.2656 863.2031,202.4375 Q863.9219,201.6094 864.9844,201.1563 Q866.0469,200.6875 867.4375,200.6875 Q868.3438,200.6875 869.25,200.9219 Q870.1563,201.1406 870.9844,201.5469 L870.1563,203.6406 Q869.4688,203.3125 868.7813,203.0781 Q868.0938,202.8281 867.4375,202.8281 Z " fill="#000000"/><text fill="#000000" font-family="sans-serif" font-size="14" lengthAdjust="spacing" textLength="82" x="881.5" y="211.8467">NamedEntity</text></g><!--class implicitVariable--><g id="elem_implicitVariable"><rect codeLine="32" fill="#CCFFFF" height="32" id="implicitVariable" rx="2.5" ry="2.5" style="stroke:#A9A9A9;stroke-width:0.5;" width="132" x="1202.5" y="399"/><ellipse cx="1217.5" cy="415" fill="#FFFFFF" rx="11" ry="11" style="stroke:#181818;stroke-width:1.0;"/><path d="M1217.4375,410.8281 Q1216.6875,410.8281 1216.125,411.125 Q1215.5625,411.4063 1215.1719,411.9375 Q1214.7813,412.4688 1214.5781,413.25 Q1214.3906,414.0156 1214.3906,414.9688 Q1214.3906,415.9375 1214.5625,416.7031 Q1214.75,417.4531 1215.1094,417.9688 Q1215.4844,418.4844 1216.0625,418.7656 Q1216.6406,419.0313 1217.4375,419.0313 Q1218.1719,419.0313 1218.9063,418.8594 Q1219.6563,418.6875 1220.5313,418.3906 L1220.5313,420.5469 Q1220.125,420.7031 1219.7344,420.8281 Q1219.3438,420.9375 1218.9375,421.0156 Q1218.5313,421.0938 1218.1094,421.125 Q1217.6875,421.1719 1217.1875,421.1719 Q1215.7813,421.1719 1214.75,420.7188 Q1213.7344,420.2656 1213.0625,419.4531 Q1212.3906,418.6406 1212.0625,417.5 Q1211.7344,416.3438 1211.7344,414.9531 Q1211.7344,413.5781 1212.1094,412.4219 Q1212.4844,411.2656 1213.2031,410.4375 Q1213.9219,409.6094 1214.9844,409.1563 Q1216.0469,408.6875 1217.4375,408.6875 Q1218.3438,408.6875 1219.25,408.9219 Q1220.1563,409.1406 1220.9844,409.5469 L1220.1563,411.6406 Q1219.4688,411.3125 1218.7813,411.0781 Q1218.0938,410.8281 1217.4375,410.8281 Z " fill="#000000"/><text fill="#000000" font-family="sans-serif" font-size="14" lengthAdjust="spacing" textLength="100" x="1231.5" y="419.8467">implicitVariable</text></g><!--class ScriptEntity--><g id="elem_ScriptEntity"><rect codeLine="34" fill="#CCFFFF" height="32" id="ScriptEntity" rx="2.5" ry="2.5" style="stroke:#A9A9A9;stroke-width:0.5;" width="104" x="2072.5" y="399"/><ellipse cx="2087.5" cy="415" fill="#FFFFFF" rx="11" ry="11" style="stroke:#181818;stroke-width:1.0;"/><path d="M2087.4375,410.8281 Q2086.6875,410.8281 2086.125,411.125 Q2085.5625,411.4063 2085.1719,411.9375 Q2084.7813,412.4688 2084.5781,413.25 Q2084.3906,414.0156 2084.3906,414.9688 Q2084.3906,415.9375 2084.5625,416.7031 Q2084.75,417.4531 2085.1094,417.9688 Q2085.4844,418.4844 2086.0625,418.7656 Q2086.6406,419.0313 2087.4375,419.0313 Q2088.1719,419.0313 2088.9063,418.8594 Q2089.6563,418.6875 2090.5313,418.3906 L2090.5313,420.5469 Q2090.125,420.7031 2089.7344,420.8281 Q2089.3438,420.9375 2088.9375,421.0156 Q2088.5313,421.0938 2088.1094,421.125 Q2087.6875,421.1719 2087.1875,421.1719 Q2085.7813,421.1719 2084.75,420.7188 Q2083.7344,420.2656 2083.0625,419.4531 Q2082.3906,418.6406 2082.0625,417.5 Q2081.7344,416.3438 2081.7344,414.9531 Q2081.7344,413.5781 2082.1094,412.4219 Q2082.4844,411.2656 2083.2031,410.4375 Q2083.9219,409.6094 2084.9844,409.1563 Q2086.0469,408.6875 2087.4375,408.6875 Q2088.3438,408.6875 2089.25,408.9219 Q2090.1563,409.1406 2090.9844,409.5469 L2090.1563,411.6406 Q2089.4688,411.3125 2088.7813,411.0781 Q2088.0938,410.8281 2087.4375,410.8281 Z " fill="#000000"/><text fill="#000000" font-family="sans-serif" font-size="14" lengthAdjust="spacing" textLength="72" x="2101.5" y="419.8467">ScriptEntity</text></g><!--class ParametricClass--><g id="elem_ParametricClass"><rect codeLine="36" fill="#CCFFFF" height="32" id="ParametricClass" rx="2.5" ry="2.5" style="stroke:#A9A9A9;stroke-width:0.5;" width="133" x="1755" y="583"/><ellipse cx="1770" cy="599" fill="#FFFFFF" rx="11" ry="11" style="stroke:#181818;stroke-width:1.0;"/><path d="M1769.9375,594.8281 Q1769.1875,594.8281 1768.625,595.125 Q1768.0625,595.4063 1767.6719,595.9375 Q1767.2813,596.4688 1767.0781,597.25 Q1766.8906,598.0156 1766.8906,598.9688 Q1766.8906,599.9375 1767.0625,600.7031 Q1767.25,601.4531 1767.6094,601.9688 Q1767.9844,602.4844 1768.5625,602.7656 Q1769.1406,603.0313 1769.9375,603.0313 Q1770.6719,603.0313 1771.4063,602.8594 Q1772.1563,602.6875 1773.0313,602.3906 L1773.0313,604.5469 Q1772.625,604.7031 1772.2344,604.8281 Q1771.8438,604.9375 1771.4375,605.0156 Q1771.0313,605.0938 1770.6094,605.125 Q1770.1875,605.1719 1769.6875,605.1719 Q1768.2813,605.1719 1767.25,604.7188 Q1766.2344,604.2656 1765.5625,603.4531 Q1764.8906,602.6406 1764.5625,601.5 Q1764.2344,600.3438 1764.2344,598.9531 Q1764.2344,597.5781 1764.6094,596.4219 Q1764.9844,595.2656 1765.7031,594.4375 Q1766.4219,593.6094 1767.4844,593.1563 Q1768.5469,592.6875 1769.9375,592.6875 Q1770.8438,592.6875 1771.75,592.9219 Q1772.6563,593.1406 1773.4844,593.5469 L1772.6563,595.6406 Q1771.9688,595.3125 1771.2813,595.0781 Q1770.5938,594.8281 1769.9375,594.8281 Z " fill="#000000"/><text fill="#000000" font-family="sans-serif" font-size="14" lengthAdjust="spacing" textLength="101" x="1784" y="603.8467">ParametricClass</text></g><!--class Function--><g id="elem_Function"><rect codeLine="38" fill="#CCFFFF" height="32" id="Function" rx="2.5" ry="2.5" style="stroke:#A9A9A9;stroke-width:0.5;" width="86" x="1369.5" y="399"/><ellipse cx="1384.5" cy="415" fill="#FFFFFF" rx="11" ry="11" style="stroke:#181818;stroke-width:1.0;"/><path d="M1384.4375,410.8281 Q1383.6875,410.8281 1383.125,411.125 Q1382.5625,411.4063 1382.1719,411.9375 Q1381.7813,412.4688 1381.5781,413.25 Q1381.3906,414.0156 1381.3906,414.9688 Q1381.3906,415.9375 1381.5625,416.7031 Q1381.75,417.4531 1382.1094,417.9688 Q1382.4844,418.4844 1383.0625,418.7656 Q1383.6406,419.0313 1384.4375,419.0313 Q1385.1719,419.0313 1385.9063,418.8594 Q1386.6563,418.6875 1387.5313,418.3906 L1387.5313,420.5469 Q1387.125,420.7031 1386.7344,420.8281 Q1386.3438,420.9375 1385.9375,421.0156 Q1385.5313,421.0938 1385.1094,421.125 Q1384.6875,421.1719 1384.1875,421.1719 Q1382.7813,421.1719 1381.75,420.7188 Q1380.7344,420.2656 1380.0625,419.4531 Q1379.3906,418.6406 1379.0625,417.5 Q1378.7344,416.3438 1378.7344,414.9531 Q1378.7344,413.5781 1379.1094,412.4219 Q1379.4844,411.2656 1380.2031,410.4375 Q1380.9219,409.6094 1381.9844,409.1563 Q1383.0469,408.6875 1384.4375,408.6875 Q1385.3438,408.6875 1386.25,408.9219 Q1387.1563,409.1406 1387.9844,409.5469 L1387.1563,411.6406 Q1386.4688,411.3125 1385.7813,411.0781 Q1385.0938,410.8281 1384.4375,410.8281 Z " fill="#000000"/><text fill="#000000" font-family="sans-serif" font-size="14" lengthAdjust="spacing" textLength="54" x="1398.5" y="419.8467">Function</text></g><!--class TClassMetrics--><g id="elem_TClassMetrics"><rect codeLine="40" fill="#CCFFFF" height="32" id="TClassMetrics" rx="2.5" ry="2.5" style="stroke:#A9A9A9;stroke-width:0.5;" width="117" x="1728" y="399"/><ellipse cx="1743" cy="415" fill="#FFFFFF" rx="11" ry="11" style="stroke:#181818;stroke-width:1.0;"/><path d="M1744.4531,421.75 L1741.8906,421.75 L1741.8906,411.75 L1738.8438,411.75 L1738.8438,409.6094 L1747.4844,409.6094 L1747.4844,411.75 L1744.4531,411.75 L1744.4531,421.75 Z " fill="#000000"/><text fill="#000000" font-family="sans-serif" font-size="14" lengthAdjust="spacing" textLength="85" x="1757" y="419.8467">TClassMetrics</text></g><!--class Parameter--><g id="elem_Parameter"><rect codeLine="42" fill="#CCFFFF" height="32" id="Parameter" rx="2.5" ry="2.5" style="stroke:#A9A9A9;stroke-width:0.5;" width="100" x="309.5" y="295"/><ellipse cx="324.5" cy="311" fill="#FFFFFF" rx="11" ry="11" style="stroke:#181818;stroke-width:1.0;"/><path d="M324.4375,306.8281 Q323.6875,306.8281 323.125,307.125 Q322.5625,307.4063 322.1719,307.9375 Q321.7813,308.4688 321.5781,309.25 Q321.3906,310.0156 321.3906,310.9688 Q321.3906,311.9375 321.5625,312.7031 Q321.75,313.4531 322.1094,313.9688 Q322.4844,314.4844 323.0625,314.7656 Q323.6406,315.0313 324.4375,315.0313 Q325.1719,315.0313 325.9063,314.8594 Q326.6563,314.6875 327.5313,314.3906 L327.5313,316.5469 Q327.125,316.7031 326.7344,316.8281 Q326.3438,316.9375 325.9375,317.0156 Q325.5313,317.0938 325.1094,317.125 Q324.6875,317.1719 324.1875,317.1719 Q322.7813,317.1719 321.75,316.7188 Q320.7344,316.2656 320.0625,315.4531 Q319.3906,314.6406 319.0625,313.5 Q318.7344,312.3438 318.7344,310.9531 Q318.7344,309.5781 319.1094,308.4219 Q319.4844,307.2656 320.2031,306.4375 Q320.9219,305.6094 321.9844,305.1563 Q323.0469,304.6875 324.4375,304.6875 Q325.3438,304.6875 326.25,304.9219 Q327.1563,305.1406 327.9844,305.5469 L327.1563,307.6406 Q326.4688,307.3125 325.7813,307.0781 Q325.0938,306.8281 324.4375,306.8281 Z " fill="#000000"/><text fill="#000000" font-family="sans-serif" font-size="14" lengthAdjust="spacing" textLength="68" x="338.5" y="315.8467">Parameter</text></g><!--class JSDoc--><g id="elem_JSDoc"><rect codeLine="44" fill="#CCFFFF" height="32" id="JSDoc" rx="2.5" ry="2.5" style="stroke:#A9A9A9;stroke-width:0.5;" width="67" x="1002" y="191"/><ellipse cx="1017" cy="207" fill="#FFFFFF" rx="11" ry="11" style="stroke:#181818;stroke-width:1.0;"/><path d="M1016.9375,202.8281 Q1016.1875,202.8281 1015.625,203.125 Q1015.0625,203.4063 1014.6719,203.9375 Q1014.2813,204.4688 1014.0781,205.25 Q1013.8906,206.0156 1013.8906,206.9688 Q1013.8906,207.9375 1014.0625,208.7031 Q1014.25,209.4531 1014.6094,209.9688 Q1014.9844,210.4844 1015.5625,210.7656 Q1016.1406,211.0313 1016.9375,211.0313 Q1017.6719,211.0313 1018.4063,210.8594 Q1019.1563,210.6875 1020.0313,210.3906 L1020.0313,212.5469 Q1019.625,212.7031 1019.2344,212.8281 Q1018.8438,212.9375 1018.4375,213.0156 Q1018.0313,213.0938 1017.6094,213.125 Q1017.1875,213.1719 1016.6875,213.1719 Q1015.2813,213.1719 1014.25,212.7188 Q1013.2344,212.2656 1012.5625,211.4531 Q1011.8906,210.6406 1011.5625,209.5 Q1011.2344,208.3438 1011.2344,206.9531 Q1011.2344,205.5781 1011.6094,204.4219 Q1011.9844,203.2656 1012.7031,202.4375 Q1013.4219,201.6094 1014.4844,201.1563 Q1015.5469,200.6875 1016.9375,200.6875 Q1017.8438,200.6875 1018.75,200.9219 Q1019.6563,201.1406 1020.4844,201.5469 L1019.6563,203.6406 Q1018.9688,203.3125 1018.2813,203.0781 Q1017.5938,202.8281 1016.9375,202.8281 Z " fill="#000000"/><text fill="#000000" font-family="sans-serif" font-size="14" lengthAdjust="spacing" textLength="35" x="1031" y="211.8467">JSDoc</text></g><!--class Alias--><g id="elem_Alias"><rect codeLine="46" fill="#CCFFFF" height="32" id="Alias" rx="2.5" ry="2.5" style="stroke:#A9A9A9;stroke-width:0.5;" width="62" x="444.5" y="295"/><ellipse cx="459.5" cy="311" fill="#FFFFFF" rx="11" ry="11" style="stroke:#181818;stroke-width:1.0;"/><path d="M459.4375,306.8281 Q458.6875,306.8281 458.125,307.125 Q457.5625,307.4063 457.1719,307.9375 Q456.7813,308.4688 456.5781,309.25 Q456.3906,310.0156 456.3906,310.9688 Q456.3906,311.9375 456.5625,312.7031 Q456.75,313.4531 457.1094,313.9688 Q457.4844,314.4844 458.0625,314.7656 Q458.6406,315.0313 459.4375,315.0313 Q460.1719,315.0313 460.9063,314.8594 Q461.6563,314.6875 462.5313,314.3906 L462.5313,316.5469 Q462.125,316.7031 461.7344,316.8281 Q461.3438,316.9375 460.9375,317.0156 Q460.5313,317.0938 460.1094,317.125 Q459.6875,317.1719 459.1875,317.1719 Q457.7813,317.1719 456.75,316.7188 Q455.7344,316.2656 455.0625,315.4531 Q454.3906,314.6406 454.0625,313.5 Q453.7344,312.3438 453.7344,310.9531 Q453.7344,309.5781 454.1094,308.4219 Q454.4844,307.2656 455.2031,306.4375 Q455.9219,305.6094 456.9844,305.1563 Q458.0469,304.6875 459.4375,304.6875 Q460.3438,304.6875 461.25,304.9219 Q462.1563,305.1406 462.9844,305.5469 L462.1563,307.6406 Q461.4688,307.3125 460.7813,307.0781 Q460.0938,306.8281 459.4375,306.8281 Z " fill="#000000"/><text fill="#000000" font-family="sans-serif" font-size="14" lengthAdjust="spacing" textLength="30" x="473.5" y="315.8467">Alias</text></g><!--class SourceAnchor--><g id="elem_SourceAnchor"><rect codeLine="48" fill="#CCFFFF" height="32" id="SourceAnchor" rx="2.5" ry="2.5" style="stroke:#A9A9A9;stroke-width:0.5;" width="120" x="405.5" y="99"/><ellipse cx="420.5" cy="115" fill="#FFFFFF" rx="11" ry="11" style="stroke:#181818;stroke-width:1.0;"/><path d="M420.4375,110.8281 Q419.6875,110.8281 419.125,111.125 Q418.5625,111.4063 418.1719,111.9375 Q417.7813,112.4688 417.5781,113.25 Q417.3906,114.0156 417.3906,114.9688 Q417.3906,115.9375 417.5625,116.7031 Q417.75,117.4531 418.1094,117.9688 Q418.4844,118.4844 419.0625,118.7656 Q419.6406,119.0313 420.4375,119.0313 Q421.1719,119.0313 421.9063,118.8594 Q422.6563,118.6875 423.5313,118.3906 L423.5313,120.5469 Q423.125,120.7031 422.7344,120.8281 Q422.3438,120.9375 421.9375,121.0156 Q421.5313,121.0938 421.1094,121.125 Q420.6875,121.1719 420.1875,121.1719 Q418.7813,121.1719 417.75,120.7188 Q416.7344,120.2656 416.0625,119.4531 Q415.3906,118.6406 415.0625,117.5 Q414.7344,116.3438 414.7344,114.9531 Q414.7344,113.5781 415.1094,112.4219 Q415.4844,111.2656 416.2031,110.4375 Q416.9219,109.6094 417.9844,109.1563 Q419.0469,108.6875 420.4375,108.6875 Q421.3438,108.6875 422.25,108.9219 Q423.1563,109.1406 423.9844,109.5469 L423.1563,111.6406 Q422.4688,111.3125 421.7813,111.0781 Q421.0938,110.8281 420.4375,110.8281 Z " fill="#000000"/><text fill="#000000" font-family="sans-serif" font-size="14" lengthAdjust="spacing" textLength="88" x="434.5" y="119.8467">SourceAnchor</text></g><!--class Attribute--><g id="elem_Attribute"><rect codeLine="50" fill="#CCFFFF" height="32" id="Attribute" rx="2.5" ry="2.5" style="stroke:#A9A9A9;stroke-width:0.5;" width="90" x="541.5" y="295"/><ellipse cx="556.5" cy="311" fill="#FFFFFF" rx="11" ry="11" style="stroke:#181818;stroke-width:1.0;"/><path d="M556.4375,306.8281 Q555.6875,306.8281 555.125,307.125 Q554.5625,307.4063 554.1719,307.9375 Q553.7813,308.4688 553.5781,309.25 Q553.3906,310.0156 553.3906,310.9688 Q553.3906,311.9375 553.5625,312.7031 Q553.75,313.4531 554.1094,313.9688 Q554.4844,314.4844 555.0625,314.7656 Q555.6406,315.0313 556.4375,315.0313 Q557.1719,315.0313 557.9063,314.8594 Q558.6563,314.6875 559.5313,314.3906 L559.5313,316.5469 Q559.125,316.7031 558.7344,316.8281 Q558.3438,316.9375 557.9375,317.0156 Q557.5313,317.0938 557.1094,317.125 Q556.6875,317.1719 556.1875,317.1719 Q554.7813,317.1719 553.75,316.7188 Q552.7344,316.2656 552.0625,315.4531 Q551.3906,314.6406 551.0625,313.5 Q550.7344,312.3438 550.7344,310.9531 Q550.7344,309.5781 551.1094,308.4219 Q551.4844,307.2656 552.2031,306.4375 Q552.9219,305.6094 553.9844,305.1563 Q555.0469,304.6875 556.4375,304.6875 Q557.3438,304.6875 558.25,304.9219 Q559.1563,305.1406 559.9844,305.5469 L559.1563,307.6406 Q558.4688,307.3125 557.7813,307.0781 Q557.0938,306.8281 556.4375,306.8281 Z " fill="#000000"/><text fill="#000000" font-family="sans-serif" font-size="14" lengthAdjust="spacing" textLength="58" x="570.5" y="315.8467">Attribute</text></g><!--class ParametricInterface--><g id="elem_ParametricInterface"><rect codeLine="52" fill="#CCFFFF" height="32" id="ParametricInterface" rx="2.5" ry="2.5" style="stroke:#A9A9A9;stroke-width:0.5;" width="160" x="1559.5" y="583"/><ellipse cx="1574.5" cy="599" fill="#FFFFFF" rx="11" ry="11" style="stroke:#181818;stroke-width:1.0;"/><path d="M1574.4375,594.8281 Q1573.6875,594.8281 1573.125,595.125 Q1572.5625,595.4063 1572.1719,595.9375 Q1571.7813,596.4688 1571.5781,597.25 Q1571.3906,598.0156 1571.3906,598.9688 Q1571.3906,599.9375 1571.5625,600.7031 Q1571.75,601.4531 1572.1094,601.9688 Q1572.4844,602.4844 1573.0625,602.7656 Q1573.6406,603.0313 1574.4375,603.0313 Q1575.1719,603.0313 1575.9063,602.8594 Q1576.6563,602.6875 1577.5313,602.3906 L1577.5313,604.5469 Q1577.125,604.7031 1576.7344,604.8281 Q1576.3438,604.9375 1575.9375,605.0156 Q1575.5313,605.0938 1575.1094,605.125 Q1574.6875,605.1719 1574.1875,605.1719 Q1572.7813,605.1719 1571.75,604.7188 Q1570.7344,604.2656 1570.0625,603.4531 Q1569.3906,602.6406 1569.0625,601.5 Q1568.7344,600.3438 1568.7344,598.9531 Q1568.7344,597.5781 1569.1094,596.4219 Q1569.4844,595.2656 1570.2031,594.4375 Q1570.9219,593.6094 1571.9844,593.1563 Q1573.0469,592.6875 1574.4375,592.6875 Q1575.3438,592.6875 1576.25,592.9219 Q1577.1563,593.1406 1577.9844,593.5469 L1577.1563,595.6406 Q1576.4688,595.3125 1575.7813,595.0781 Q1575.0938,594.8281 1574.4375,594.8281 Z " fill="#000000"/><text fill="#000000" font-family="sans-serif" font-size="14" lengthAdjust="spacing" textLength="128" x="1588.5" y="603.8467">ParametricInterface</text></g><!--class Folder--><g id="elem_Folder"><rect codeLine="54" fill="#CCFFFF" height="32" id="Folder" rx="2.5" ry="2.5" style="stroke:#A9A9A9;stroke-width:0.5;" width="73" x="667" y="295"/><ellipse cx="682" cy="311" fill="#FFFFFF" rx="11" ry="11" style="stroke:#181818;stroke-width:1.0;"/><path d="M681.9375,306.8281 Q681.1875,306.8281 680.625,307.125 Q680.0625,307.4063 679.6719,307.9375 Q679.2813,308.4688 679.0781,309.25 Q678.8906,310.0156 678.8906,310.9688 Q678.8906,311.9375 679.0625,312.7031 Q679.25,313.4531 679.6094,313.9688 Q679.9844,314.4844 680.5625,314.7656 Q681.1406,315.0313 681.9375,315.0313 Q682.6719,315.0313 683.4063,314.8594 Q684.1563,314.6875 685.0313,314.3906 L685.0313,316.5469 Q684.625,316.7031 684.2344,316.8281 Q683.8438,316.9375 683.4375,317.0156 Q683.0313,317.0938 682.6094,317.125 Q682.1875,317.1719 681.6875,317.1719 Q680.2813,317.1719 679.25,316.7188 Q678.2344,316.2656 677.5625,315.4531 Q676.8906,314.6406 676.5625,313.5 Q676.2344,312.3438 676.2344,310.9531 Q676.2344,309.5781 676.6094,308.4219 Q676.9844,307.2656 677.7031,306.4375 Q678.4219,305.6094 679.4844,305.1563 Q680.5469,304.6875 681.9375,304.6875 Q682.8438,304.6875 683.75,304.9219 Q684.6563,305.1406 685.4844,305.5469 L684.6563,307.6406 Q683.9688,307.3125 683.2813,307.0781 Q682.5938,306.8281 681.9375,306.8281 Z " fill="#000000"/><text fill="#000000" font-family="sans-serif" font-size="14" lengthAdjust="spacing" textLength="41" x="696" y="315.8467">Folder</text></g><!--class ContainerEntity--><g id="elem_ContainerEntity"><rect codeLine="56" fill="#CCFFFF" height="32" id="ContainerEntity" rx="2.5" ry="2.5" style="stroke:#A9A9A9;stroke-width:0.5;" width="130" x="1518.5" y="295"/><ellipse cx="1533.5" cy="311" fill="#FFFFFF" rx="11" ry="11" style="stroke:#181818;stroke-width:1.0;"/><path d="M1533.4375,306.8281 Q1532.6875,306.8281 1532.125,307.125 Q1531.5625,307.4063 1531.1719,307.9375 Q1530.7813,308.4688 1530.5781,309.25 Q1530.3906,310.0156 1530.3906,310.9688 Q1530.3906,311.9375 1530.5625,312.7031 Q1530.75,313.4531 1531.1094,313.9688 Q1531.4844,314.4844 1532.0625,314.7656 Q1532.6406,315.0313 1533.4375,315.0313 Q1534.1719,315.0313 1534.9063,314.8594 Q1535.6563,314.6875 1536.5313,314.3906 L1536.5313,316.5469 Q1536.125,316.7031 1535.7344,316.8281 Q1535.3438,316.9375 1534.9375,317.0156 Q1534.5313,317.0938 1534.1094,317.125 Q1533.6875,317.1719 1533.1875,317.1719 Q1531.7813,317.1719 1530.75,316.7188 Q1529.7344,316.2656 1529.0625,315.4531 Q1528.3906,314.6406 1528.0625,313.5 Q1527.7344,312.3438 1527.7344,310.9531 Q1527.7344,309.5781 1528.1094,308.4219 Q1528.4844,307.2656 1529.2031,306.4375 Q1529.9219,305.6094 1530.9844,305.1563 Q1532.0469,304.6875 1533.4375,304.6875 Q1534.3438,304.6875 1535.25,304.9219 Q1536.1563,305.1406 1536.9844,305.5469 L1536.1563,307.6406 Q1535.4688,307.3125 1534.7813,307.0781 Q1534.0938,306.8281 1533.4375,306.8281 Z " fill="#000000"/><text fill="#000000" font-family="sans-serif" font-size="14" lengthAdjust="spacing" textLength="98" x="1547.5" y="315.8467">ContainerEntity</text></g><!--class File--><g id="elem_File"><rect codeLine="58" fill="#CCFFFF" height="32" id="File" rx="2.5" ry="2.5" style="stroke:#A9A9A9;stroke-width:0.5;" width="55" x="775" y="295"/><ellipse cx="790" cy="311" fill="#FFFFFF" rx="11" ry="11" style="stroke:#181818;stroke-width:1.0;"/><path d="M789.9375,306.8281 Q789.1875,306.8281 788.625,307.125 Q788.0625,307.4063 787.6719,307.9375 Q787.2813,308.4688 787.0781,309.25 Q786.8906,310.0156 786.8906,310.9688 Q786.8906,311.9375 787.0625,312.7031 Q787.25,313.4531 787.6094,313.9688 Q787.9844,314.4844 788.5625,314.7656 Q789.1406,315.0313 789.9375,315.0313 Q790.6719,315.0313 791.4063,314.8594 Q792.1563,314.6875 793.0313,314.3906 L793.0313,316.5469 Q792.625,316.7031 792.2344,316.8281 Q791.8438,316.9375 791.4375,317.0156 Q791.0313,317.0938 790.6094,317.125 Q790.1875,317.1719 789.6875,317.1719 Q788.2813,317.1719 787.25,316.7188 Q786.2344,316.2656 785.5625,315.4531 Q784.8906,314.6406 784.5625,313.5 Q784.2344,312.3438 784.2344,310.9531 Q784.2344,309.5781 784.6094,308.4219 Q784.9844,307.2656 785.7031,306.4375 Q786.4219,305.6094 787.4844,305.1563 Q788.5469,304.6875 789.9375,304.6875 Q790.8438,304.6875 791.75,304.9219 Q792.6563,305.1406 793.4844,305.5469 L792.6563,307.6406 Q791.9688,307.3125 791.2813,307.0781 Q790.5938,306.8281 789.9375,306.8281 Z " fill="#000000"/><text fill="#000000" font-family="sans-serif" font-size="14" lengthAdjust="spacing" textLength="23" x="804" y="315.8467">File</text></g><!--class Class--><g id="elem_Class"><rect codeLine="60" fill="#CCFFFF" height="32" id="Class" rx="2.5" ry="2.5" style="stroke:#A9A9A9;stroke-width:0.5;" width="63" x="1755" y="491"/><ellipse cx="1770" cy="507" fill="#FFFFFF" rx="11" ry="11" style="stroke:#181818;stroke-width:1.0;"/><path d="M1769.9375,502.8281 Q1769.1875,502.8281 1768.625,503.125 Q1768.0625,503.4063 1767.6719,503.9375 Q1767.2813,504.4688 1767.0781,505.25 Q1766.8906,506.0156 1766.8906,506.9688 Q1766.8906,507.9375 1767.0625,508.7031 Q1767.25,509.4531 1767.6094,509.9688 Q1767.9844,510.4844 1768.5625,510.7656 Q1769.1406,511.0313 1769.9375,511.0313 Q1770.6719,511.0313 1771.4063,510.8594 Q1772.1563,510.6875 1773.0313,510.3906 L1773.0313,512.5469 Q1772.625,512.7031 1772.2344,512.8281 Q1771.8438,512.9375 1771.4375,513.0156 Q1771.0313,513.0938 1770.6094,513.125 Q1770.1875,513.1719 1769.6875,513.1719 Q1768.2813,513.1719 1767.25,512.7188 Q1766.2344,512.2656 1765.5625,511.4531 Q1764.8906,510.6406 1764.5625,509.5 Q1764.2344,508.3438 1764.2344,506.9531 Q1764.2344,505.5781 1764.6094,504.4219 Q1764.9844,503.2656 1765.7031,502.4375 Q1766.4219,501.6094 1767.4844,501.1563 Q1768.5469,500.6875 1769.9375,500.6875 Q1770.8438,500.6875 1771.75,500.9219 Q1772.6563,501.1406 1773.4844,501.5469 L1772.6563,503.6406 Q1771.9688,503.3125 1771.2813,503.0781 Q1770.5938,502.8281 1769.9375,502.8281 Z " fill="#000000"/><text fill="#000000" font-family="sans-serif" font-size="14" lengthAdjust="spacing" textLength="31" x="1784" y="511.8467">Class</text></g><!--class Type--><g id="elem_Type"><rect codeLine="62" fill="#CCFFFF" height="32" id="Type" rx="2.5" ry="2.5" style="stroke:#A9A9A9;stroke-width:0.5;" width="62" x="1490.5" y="399"/><ellipse cx="1505.5" cy="415" fill="#FFFFFF" rx="11" ry="11" style="stroke:#181818;stroke-width:1.0;"/><path d="M1505.4375,410.8281 Q1504.6875,410.8281 1504.125,411.125 Q1503.5625,411.4063 1503.1719,411.9375 Q1502.7813,412.4688 1502.5781,413.25 Q1502.3906,414.0156 1502.3906,414.9688 Q1502.3906,415.9375 1502.5625,416.7031 Q1502.75,417.4531 1503.1094,417.9688 Q1503.4844,418.4844 1504.0625,418.7656 Q1504.6406,419.0313 1505.4375,419.0313 Q1506.1719,419.0313 1506.9063,418.8594 Q1507.6563,418.6875 1508.5313,418.3906 L1508.5313,420.5469 Q1508.125,420.7031 1507.7344,420.8281 Q1507.3438,420.9375 1506.9375,421.0156 Q1506.5313,421.0938 1506.1094,421.125 Q1505.6875,421.1719 1505.1875,421.1719 Q1503.7813,421.1719 1502.75,420.7188 Q1501.7344,420.2656 1501.0625,419.4531 Q1500.3906,418.6406 1500.0625,417.5 Q1499.7344,416.3438 1499.7344,414.9531 Q1499.7344,413.5781 1500.1094,412.4219 Q1500.4844,411.2656 1501.2031,410.4375 Q1501.9219,409.6094 1502.9844,409.1563 Q1504.0469,408.6875 1505.4375,408.6875 Q1506.3438,408.6875 1507.25,408.9219 Q1508.1563,409.1406 1508.9844,409.5469 L1508.1563,411.6406 Q1507.4688,411.3125 1506.7813,411.0781 Q1506.0938,410.8281 1505.4375,410.8281 Z " fill="#000000"/><text fill="#000000" font-family="sans-serif" font-size="14" lengthAdjust="spacing" textLength="30" x="1519.5" y="419.8467">Type</text></g><!--class ParametricMethod--><g id="elem_ParametricMethod"><rect codeLine="64" fill="#CCFFFF" height="32" id="ParametricMethod" rx="2.5" ry="2.5" style="stroke:#A9A9A9;stroke-width:0.5;" width="151" x="1975" y="491"/><ellipse cx="1990" cy="507" fill="#FFFFFF" rx="11" ry="11" style="stroke:#181818;stroke-width:1.0;"/><path d="M1989.9375,502.8281 Q1989.1875,502.8281 1988.625,503.125 Q1988.0625,503.4063 1987.6719,503.9375 Q1987.2813,504.4688 1987.0781,505.25 Q1986.8906,506.0156 1986.8906,506.9688 Q1986.8906,507.9375 1987.0625,508.7031 Q1987.25,509.4531 1987.6094,509.9688 Q1987.9844,510.4844 1988.5625,510.7656 Q1989.1406,511.0313 1989.9375,511.0313 Q1990.6719,511.0313 1991.4063,510.8594 Q1992.1563,510.6875 1993.0313,510.3906 L1993.0313,512.5469 Q1992.625,512.7031 1992.2344,512.8281 Q1991.8438,512.9375 1991.4375,513.0156 Q1991.0313,513.0938 1990.6094,513.125 Q1990.1875,513.1719 1989.6875,513.1719 Q1988.2813,513.1719 1987.25,512.7188 Q1986.2344,512.2656 1985.5625,511.4531 Q1984.8906,510.6406 1984.5625,509.5 Q1984.2344,508.3438 1984.2344,506.9531 Q1984.2344,505.5781 1984.6094,504.4219 Q1984.9844,503.2656 1985.7031,502.4375 Q1986.4219,501.6094 1987.4844,501.1563 Q1988.5469,500.6875 1989.9375,500.6875 Q1990.8438,500.6875 1991.75,500.9219 Q1992.6563,501.1406 1993.4844,501.5469 L1992.6563,503.6406 Q1991.9688,503.3125 1991.2813,503.0781 Q1990.5938,502.8281 1989.9375,502.8281 Z " fill="#000000"/><text fill="#000000" font-family="sans-serif" font-size="14" lengthAdjust="spacing" textLength="119" x="2004" y="511.8467">ParametricMethod</text></g><!--class Import--><g id="elem_Import"><rect codeLine="66" fill="#CCFFFF" height="32" id="Import" rx="2.5" ry="2.5" style="stroke:#A9A9A9;stroke-width:0.5;" width="77" x="561" y="99"/><ellipse cx="576" cy="115" fill="#FFFFFF" rx="11" ry="11" style="stroke:#181818;stroke-width:1.0;"/><path d="M575.9375,110.8281 Q575.1875,110.8281 574.625,111.125 Q574.0625,111.4063 573.6719,111.9375 Q573.2813,112.4688 573.0781,113.25 Q572.8906,114.0156 572.8906,114.9688 Q572.8906,115.9375 573.0625,116.7031 Q573.25,117.4531 573.6094,117.9688 Q573.9844,118.4844 574.5625,118.7656 Q575.1406,119.0313 575.9375,119.0313 Q576.6719,119.0313 577.4063,118.8594 Q578.1563,118.6875 579.0313,118.3906 L579.0313,120.5469 Q578.625,120.7031 578.2344,120.8281 Q577.8438,120.9375 577.4375,121.0156 Q577.0313,121.0938 576.6094,121.125 Q576.1875,121.1719 575.6875,121.1719 Q574.2813,121.1719 573.25,120.7188 Q572.2344,120.2656 571.5625,119.4531 Q570.8906,118.6406 570.5625,117.5 Q570.2344,116.3438 570.2344,114.9531 Q570.2344,113.5781 570.6094,112.4219 Q570.9844,111.2656 571.7031,110.4375 Q572.4219,109.6094 573.4844,109.1563 Q574.5469,108.6875 575.9375,108.6875 Q576.8438,108.6875 577.75,108.9219 Q578.6563,109.1406 579.4844,109.5469 L578.6563,111.6406 Q577.9688,111.3125 577.2813,111.0781 Q576.5938,110.8281 575.9375,110.8281 Z " fill="#000000"/><text fill="#000000" font-family="sans-serif" font-size="14" lengthAdjust="spacing" textLength="45" x="590" y="119.8467">Import</text></g><!--class ParametricFunction--><g id="elem_ParametricFunction"><rect codeLine="68" fill="#CCFFFF" height="32" id="ParametricFunction" rx="2.5" ry="2.5" style="stroke:#A9A9A9;stroke-width:0.5;" width="156" x="829.5" y="491"/><ellipse cx="844.5" cy="507" fill="#FFFFFF" rx="11" ry="11" style="stroke:#181818;stroke-width:1.0;"/><path d="M844.4375,502.8281 Q843.6875,502.8281 843.125,503.125 Q842.5625,503.4063 842.1719,503.9375 Q841.7813,504.4688 841.5781,505.25 Q841.3906,506.0156 841.3906,506.9688 Q841.3906,507.9375 841.5625,508.7031 Q841.75,509.4531 842.1094,509.9688 Q842.4844,510.4844 843.0625,510.7656 Q843.6406,511.0313 844.4375,511.0313 Q845.1719,511.0313 845.9063,510.8594 Q846.6563,510.6875 847.5313,510.3906 L847.5313,512.5469 Q847.125,512.7031 846.7344,512.8281 Q846.3438,512.9375 845.9375,513.0156 Q845.5313,513.0938 845.1094,513.125 Q844.6875,513.1719 844.1875,513.1719 Q842.7813,513.1719 841.75,512.7188 Q840.7344,512.2656 840.0625,511.4531 Q839.3906,510.6406 839.0625,509.5 Q838.7344,508.3438 838.7344,506.9531 Q838.7344,505.5781 839.1094,504.4219 Q839.4844,503.2656 840.2031,502.4375 Q840.9219,501.6094 841.9844,501.1563 Q843.0469,500.6875 844.4375,500.6875 Q845.3438,500.6875 846.25,500.9219 Q847.1563,501.1406 847.9844,501.5469 L847.1563,503.6406 Q846.4688,503.3125 845.7813,503.0781 Q845.0938,502.8281 844.4375,502.8281 Z " fill="#000000"/><text fill="#000000" font-family="sans-serif" font-size="14" lengthAdjust="spacing" textLength="124" x="858.5" y="511.8467">ParametricFunction</text></g><!--class Property--><g id="elem_Property"><rect codeLine="70" fill="#CCFFFF" height="32" id="Property" rx="2.5" ry="2.5" style="stroke:#A9A9A9;stroke-width:0.5;" width="88" x="865.5" y="295"/><ellipse cx="880.5" cy="311" fill="#FFFFFF" rx="11" ry="11" style="stroke:#181818;stroke-width:1.0;"/><path d="M880.4375,306.8281 Q879.6875,306.8281 879.125,307.125 Q878.5625,307.4063 878.1719,307.9375 Q877.7813,308.4688 877.5781,309.25 Q877.3906,310.0156 877.3906,310.9688 Q877.3906,311.9375 877.5625,312.7031 Q877.75,313.4531 878.1094,313.9688 Q878.4844,314.4844 879.0625,314.7656 Q879.6406,315.0313 880.4375,315.0313 Q881.1719,315.0313 881.9063,314.8594 Q882.6563,314.6875 883.5313,314.3906 L883.5313,316.5469 Q883.125,316.7031 882.7344,316.8281 Q882.3438,316.9375 881.9375,317.0156 Q881.5313,317.0938 881.1094,317.125 Q880.6875,317.1719 880.1875,317.1719 Q878.7813,317.1719 877.75,316.7188 Q876.7344,316.2656 876.0625,315.4531 Q875.3906,314.6406 875.0625,313.5 Q874.7344,312.3438 874.7344,310.9531 Q874.7344,309.5781 875.1094,308.4219 Q875.4844,307.2656 876.2031,306.4375 Q876.9219,305.6094 877.9844,305.1563 Q879.0469,304.6875 880.4375,304.6875 Q881.3438,304.6875 882.25,304.9219 Q883.1563,305.1406 883.9844,305.5469 L883.1563,307.6406 Q882.4688,307.3125 881.7813,307.0781 Q881.0938,306.8281 880.4375,306.8281 Z " fill="#000000"/><text fill="#000000" font-family="sans-serif" font-size="14" lengthAdjust="spacing" textLength="56" x="894.5" y="315.8467">Property</text></g><!--class Invocation--><g id="elem_Invocation"><rect codeLine="72" fill="#CCFFFF" height="32" id="Invocation" rx="2.5" ry="2.5" style="stroke:#A9A9A9;stroke-width:0.5;" width="98" x="673.5" y="99"/><ellipse cx="688.5" cy="115" fill="#FFFFFF" rx="11" ry="11" style="stroke:#181818;stroke-width:1.0;"/><path d="M688.4375,110.8281 Q687.6875,110.8281 687.125,111.125 Q686.5625,111.4063 686.1719,111.9375 Q685.7813,112.4688 685.5781,113.25 Q685.3906,114.0156 685.3906,114.9688 Q685.3906,115.9375 685.5625,116.7031 Q685.75,117.4531 686.1094,117.9688 Q686.4844,118.4844 687.0625,118.7656 Q687.6406,119.0313 688.4375,119.0313 Q689.1719,119.0313 689.9063,118.8594 Q690.6563,118.6875 691.5313,118.3906 L691.5313,120.5469 Q691.125,120.7031 690.7344,120.8281 Q690.3438,120.9375 689.9375,121.0156 Q689.5313,121.0938 689.1094,121.125 Q688.6875,121.1719 688.1875,121.1719 Q686.7813,121.1719 685.75,120.7188 Q684.7344,120.2656 684.0625,119.4531 Q683.3906,118.6406 683.0625,117.5 Q682.7344,116.3438 682.7344,114.9531 Q682.7344,113.5781 683.1094,112.4219 Q683.4844,111.2656 684.2031,110.4375 Q684.9219,109.6094 685.9844,109.1563 Q687.0469,108.6875 688.4375,108.6875 Q689.3438,108.6875 690.25,108.9219 Q691.1563,109.1406 691.9844,109.5469 L691.1563,111.6406 Q690.4688,111.3125 689.7813,111.0781 Q689.0938,110.8281 688.4375,110.8281 Z " fill="#000000"/><text fill="#000000" font-family="sans-serif" font-size="14" lengthAdjust="spacing" textLength="66" x="702.5" y="119.8467">Invocation</text></g><!--class Entity--><g id="elem_Entity"><rect codeLine="74" fill="#CCFFFF" height="32" id="Entity" rx="2.5" ry="2.5" style="stroke:#A9A9A9;stroke-width:0.5;" width="68" x="688.5" y="7"/><ellipse cx="703.5" cy="23" fill="#FFFFFF" rx="11" ry="11" style="stroke:#181818;stroke-width:1.0;"/><path d="M703.4375,18.8281 Q702.6875,18.8281 702.125,19.125 Q701.5625,19.4063 701.1719,19.9375 Q700.7813,20.4688 700.5781,21.25 Q700.3906,22.0156 700.3906,22.9688 Q700.3906,23.9375 700.5625,24.7031 Q700.75,25.4531 701.1094,25.9688 Q701.4844,26.4844 702.0625,26.7656 Q702.6406,27.0313 703.4375,27.0313 Q704.1719,27.0313 704.9063,26.8594 Q705.6563,26.6875 706.5313,26.3906 L706.5313,28.5469 Q706.125,28.7031 705.7344,28.8281 Q705.3438,28.9375 704.9375,29.0156 Q704.5313,29.0938 704.1094,29.125 Q703.6875,29.1719 703.1875,29.1719 Q701.7813,29.1719 700.75,28.7188 Q699.7344,28.2656 699.0625,27.4531 Q698.3906,26.6406 698.0625,25.5 Q697.7344,24.3438 697.7344,22.9531 Q697.7344,21.5781 698.1094,20.4219 Q698.4844,19.2656 699.2031,18.4375 Q699.9219,17.6094 700.9844,17.1563 Q702.0469,16.6875 703.4375,16.6875 Q704.3438,16.6875 705.25,16.9219 Q706.1563,17.1406 706.9844,17.5469 L706.1563,19.6406 Q705.4688,19.3125 704.7813,19.0781 Q704.0938,18.8281 703.4375,18.8281 Z " fill="#000000"/><text fill="#000000" font-family="sans-serif" font-size="14" lengthAdjust="spacing" textLength="36" x="717.5" y="27.8467">Entity</text></g><!--class Accessor--><g id="elem_Accessor"><rect codeLine="76" fill="#CCFFFF" height="32" id="Accessor" rx="2.5" ry="2.5" style="stroke:#A9A9A9;stroke-width:0.5;" width="87" x="1853" y="491"/><ellipse cx="1868" cy="507" fill="#FFFFFF" rx="11" ry="11" style="stroke:#181818;stroke-width:1.0;"/><path d="M1867.9375,502.8281 Q1867.1875,502.8281 1866.625,503.125 Q1866.0625,503.4063 1865.6719,503.9375 Q1865.2813,504.4688 1865.0781,505.25 Q1864.8906,506.0156 1864.8906,506.9688 Q1864.8906,507.9375 1865.0625,508.7031 Q1865.25,509.4531 1865.6094,509.9688 Q1865.9844,510.4844 1866.5625,510.7656 Q1867.1406,511.0313 1867.9375,511.0313 Q1868.6719,511.0313 1869.4063,510.8594 Q1870.1563,510.6875 1871.0313,510.3906 L1871.0313,512.5469 Q1870.625,512.7031 1870.2344,512.8281 Q1869.8438,512.9375 1869.4375,513.0156 Q1869.0313,513.0938 1868.6094,513.125 Q1868.1875,513.1719 1867.6875,513.1719 Q1866.2813,513.1719 1865.25,512.7188 Q1864.2344,512.2656 1863.5625,511.4531 Q1862.8906,510.6406 1862.5625,509.5 Q1862.2344,508.3438 1862.2344,506.9531 Q1862.2344,505.5781 1862.6094,504.4219 Q1862.9844,503.2656 1863.7031,502.4375 Q1864.4219,501.6094 1865.4844,501.1563 Q1866.5469,500.6875 1867.9375,500.6875 Q1868.8438,500.6875 1869.75,500.9219 Q1870.6563,501.1406 1871.4844,501.5469 L1870.6563,503.6406 Q1869.9688,503.3125 1869.2813,503.0781 Q1868.5938,502.8281 1867.9375,502.8281 Z " fill="#000000"/><text fill="#000000" font-family="sans-serif" font-size="14" lengthAdjust="spacing" textLength="55" x="1882" y="511.8467">Accessor</text></g><!--class VariableStatement--><g id="elem_VariableStatement"><rect codeLine="78" fill="#CCFFFF" height="32" id="VariableStatement" rx="2.5" ry="2.5" style="stroke:#A9A9A9;stroke-width:0.5;" width="150" x="1020.5" y="491"/><ellipse cx="1035.5" cy="507" fill="#FFFFFF" rx="11" ry="11" style="stroke:#181818;stroke-width:1.0;"/><path d="M1035.4375,502.8281 Q1034.6875,502.8281 1034.125,503.125 Q1033.5625,503.4063 1033.1719,503.9375 Q1032.7813,504.4688 1032.5781,505.25 Q1032.3906,506.0156 1032.3906,506.9688 Q1032.3906,507.9375 1032.5625,508.7031 Q1032.75,509.4531 1033.1094,509.9688 Q1033.4844,510.4844 1034.0625,510.7656 Q1034.6406,511.0313 1035.4375,511.0313 Q1036.1719,511.0313 1036.9063,510.8594 Q1037.6563,510.6875 1038.5313,510.3906 L1038.5313,512.5469 Q1038.125,512.7031 1037.7344,512.8281 Q1037.3438,512.9375 1036.9375,513.0156 Q1036.5313,513.0938 1036.1094,513.125 Q1035.6875,513.1719 1035.1875,513.1719 Q1033.7813,513.1719 1032.75,512.7188 Q1031.7344,512.2656 1031.0625,511.4531 Q1030.3906,510.6406 1030.0625,509.5 Q1029.7344,508.3438 1029.7344,506.9531 Q1029.7344,505.5781 1030.1094,504.4219 Q1030.4844,503.2656 1031.2031,502.4375 Q1031.9219,501.6094 1032.9844,501.1563 Q1034.0469,500.6875 1035.4375,500.6875 Q1036.3438,500.6875 1037.25,500.9219 Q1038.1563,501.1406 1038.9844,501.5469 L1038.1563,503.6406 Q1037.4688,503.3125 1036.7813,503.0781 Q1036.0938,502.8281 1035.4375,502.8281 Z " fill="#000000"/><text fill="#000000" font-family="sans-serif" font-size="14" lengthAdjust="spacing" textLength="118" x="1049.5" y="511.8467">VariableStatement</text></g><!--class PrimitiveType--><g id="elem_PrimitiveType"><rect codeLine="80" fill="#CCFFFF" height="32" id="PrimitiveType" rx="2.5" ry="2.5" style="stroke:#A9A9A9;stroke-width:0.5;" width="121" x="1205" y="491"/><ellipse cx="1220" cy="507" fill="#FFFFFF" rx="11" ry="11" style="stroke:#181818;stroke-width:1.0;"/><path d="M1219.9375,502.8281 Q1219.1875,502.8281 1218.625,503.125 Q1218.0625,503.4063 1217.6719,503.9375 Q1217.2813,504.4688 1217.0781,505.25 Q1216.8906,506.0156 1216.8906,506.9688 Q1216.8906,507.9375 1217.0625,508.7031 Q1217.25,509.4531 1217.6094,509.9688 Q1217.9844,510.4844 1218.5625,510.7656 Q1219.1406,511.0313 1219.9375,511.0313 Q1220.6719,511.0313 1221.4063,510.8594 Q1222.1563,510.6875 1223.0313,510.3906 L1223.0313,512.5469 Q1222.625,512.7031 1222.2344,512.8281 Q1221.8438,512.9375 1221.4375,513.0156 Q1221.0313,513.0938 1220.6094,513.125 Q1220.1875,513.1719 1219.6875,513.1719 Q1218.2813,513.1719 1217.25,512.7188 Q1216.2344,512.2656 1215.5625,511.4531 Q1214.8906,510.6406 1214.5625,509.5 Q1214.2344,508.3438 1214.2344,506.9531 Q1214.2344,505.5781 1214.6094,504.4219 Q1214.9844,503.2656 1215.7031,502.4375 Q1216.4219,501.6094 1217.4844,501.1563 Q1218.5469,500.6875 1219.9375,500.6875 Q1220.8438,500.6875 1221.75,500.9219 Q1222.6563,501.1406 1223.4844,501.5469 L1222.6563,503.6406 Q1221.9688,503.3125 1221.2813,503.0781 Q1220.5938,502.8281 1219.9375,502.8281 Z " fill="#000000"/><text fill="#000000" font-family="sans-serif" font-size="14" lengthAdjust="spacing" textLength="89" x="1234" y="511.8467">PrimitiveType</text></g><!--class Comment--><g id="elem_Comment"><rect codeLine="82" fill="#CCFFFF" height="32" id="Comment" rx="2.5" ry="2.5" style="stroke:#A9A9A9;stroke-width:0.5;" width="95" x="1104" y="191"/><ellipse cx="1119" cy="207" fill="#FFFFFF" rx="11" ry="11" style="stroke:#181818;stroke-width:1.0;"/><path d="M1118.9375,202.8281 Q1118.1875,202.8281 1117.625,203.125 Q1117.0625,203.4063 1116.6719,203.9375 Q1116.2813,204.4688 1116.0781,205.25 Q1115.8906,206.0156 1115.8906,206.9688 Q1115.8906,207.9375 1116.0625,208.7031 Q1116.25,209.4531 1116.6094,209.9688 Q1116.9844,210.4844 1117.5625,210.7656 Q1118.1406,211.0313 1118.9375,211.0313 Q1119.6719,211.0313 1120.4063,210.8594 Q1121.1563,210.6875 1122.0313,210.3906 L1122.0313,212.5469 Q1121.625,212.7031 1121.2344,212.8281 Q1120.8438,212.9375 1120.4375,213.0156 Q1120.0313,213.0938 1119.6094,213.125 Q1119.1875,213.1719 1118.6875,213.1719 Q1117.2813,213.1719 1116.25,212.7188 Q1115.2344,212.2656 1114.5625,211.4531 Q1113.8906,210.6406 1113.5625,209.5 Q1113.2344,208.3438 1113.2344,206.9531 Q1113.2344,205.5781 1113.6094,204.4219 Q1113.9844,203.2656 1114.7031,202.4375 Q1115.4219,201.6094 1116.4844,201.1563 Q1117.5469,200.6875 1118.9375,200.6875 Q1119.8438,200.6875 1120.75,200.9219 Q1121.6563,201.1406 1122.4844,201.5469 L1121.6563,203.6406 Q1120.9688,203.3125 1120.2813,203.0781 Q1119.5938,202.8281 1118.9375,202.8281 Z " fill="#000000"/><text fill="#000000" font-family="sans-serif" font-size="14" lengthAdjust="spacing" textLength="63" x="1133" y="211.8467">Comment</text></g><!--class SourceLanguage--><g id="elem_SourceLanguage"><rect codeLine="84" fill="#CCFFFF" height="32" id="SourceLanguage" rx="2.5" ry="2.5" style="stroke:#A9A9A9;stroke-width:0.5;" width="134" x="806.5" y="99"/><ellipse cx="821.5" cy="115" fill="#FFFFFF" rx="11" ry="11" style="stroke:#181818;stroke-width:1.0;"/><path d="M821.4375,110.8281 Q820.6875,110.8281 820.125,111.125 Q819.5625,111.4063 819.1719,111.9375 Q818.7813,112.4688 818.5781,113.25 Q818.3906,114.0156 818.3906,114.9688 Q818.3906,115.9375 818.5625,116.7031 Q818.75,117.4531 819.1094,117.9688 Q819.4844,118.4844 820.0625,118.7656 Q820.6406,119.0313 821.4375,119.0313 Q822.1719,119.0313 822.9063,118.8594 Q823.6563,118.6875 824.5313,118.3906 L824.5313,120.5469 Q824.125,120.7031 823.7344,120.8281 Q823.3438,120.9375 822.9375,121.0156 Q822.5313,121.0938 822.1094,121.125 Q821.6875,121.1719 821.1875,121.1719 Q819.7813,121.1719 818.75,120.7188 Q817.7344,120.2656 817.0625,119.4531 Q816.3906,118.6406 816.0625,117.5 Q815.7344,116.3438 815.7344,114.9531 Q815.7344,113.5781 816.1094,112.4219 Q816.4844,111.2656 817.2031,110.4375 Q817.9219,109.6094 818.9844,109.1563 Q820.0469,108.6875 821.4375,108.6875 Q822.3438,108.6875 823.25,108.9219 Q824.1563,109.1406 824.9844,109.5469 L824.1563,111.6406 Q823.4688,111.3125 822.7813,111.0781 Q822.0938,110.8281 821.4375,110.8281 Z " fill="#000000"/><text fill="#000000" font-family="sans-serif" font-size="14" lengthAdjust="spacing" textLength="102" x="835.5" y="119.8467">SourceLanguage</text></g><!--class EnumValue--><g id="elem_EnumValue"><rect codeLine="86" fill="#CCFFFF" height="32" id="EnumValue" rx="2.5" ry="2.5" style="stroke:#A9A9A9;stroke-width:0.5;" width="103" x="989" y="295"/><ellipse cx="1004" cy="311" fill="#FFFFFF" rx="11" ry="11" style="stroke:#181818;stroke-width:1.0;"/><path d="M1003.9375,306.8281 Q1003.1875,306.8281 1002.625,307.125 Q1002.0625,307.4063 1001.6719,307.9375 Q1001.2813,308.4688 1001.0781,309.25 Q1000.8906,310.0156 1000.8906,310.9688 Q1000.8906,311.9375 1001.0625,312.7031 Q1001.25,313.4531 1001.6094,313.9688 Q1001.9844,314.4844 1002.5625,314.7656 Q1003.1406,315.0313 1003.9375,315.0313 Q1004.6719,315.0313 1005.4063,314.8594 Q1006.1563,314.6875 1007.0313,314.3906 L1007.0313,316.5469 Q1006.625,316.7031 1006.2344,316.8281 Q1005.8438,316.9375 1005.4375,317.0156 Q1005.0313,317.0938 1004.6094,317.125 Q1004.1875,317.1719 1003.6875,317.1719 Q1002.2813,317.1719 1001.25,316.7188 Q1000.2344,316.2656 999.5625,315.4531 Q998.8906,314.6406 998.5625,313.5 Q998.2344,312.3438 998.2344,310.9531 Q998.2344,309.5781 998.6094,308.4219 Q998.9844,307.2656 999.7031,306.4375 Q1000.4219,305.6094 1001.4844,305.1563 Q1002.5469,304.6875 1003.9375,304.6875 Q1004.8438,304.6875 1005.75,304.9219 Q1006.6563,305.1406 1007.4844,305.5469 L1006.6563,307.6406 Q1005.9688,307.3125 1005.2813,307.0781 Q1004.5938,306.8281 1003.9375,306.8281 Z " fill="#000000"/><text fill="#000000" font-family="sans-serif" font-size="14" lengthAdjust="spacing" textLength="71" x="1018" y="315.8467">EnumValue</text></g><!--class SourcedEntity--><g id="elem_SourcedEntity"><rect codeLine="88" fill="#CCFFFF" height="32" id="SourcedEntity" rx="2.5" ry="2.5" style="stroke:#A9A9A9;stroke-width:0.5;" width="119" x="976" y="99"/><ellipse cx="991" cy="115" fill="#FFFFFF" rx="11" ry="11" style="stroke:#181818;stroke-width:1.0;"/><path d="M990.9375,110.8281 Q990.1875,110.8281 989.625,111.125 Q989.0625,111.4063 988.6719,111.9375 Q988.2813,112.4688 988.0781,113.25 Q987.8906,114.0156 987.8906,114.9688 Q987.8906,115.9375 988.0625,116.7031 Q988.25,117.4531 988.6094,117.9688 Q988.9844,118.4844 989.5625,118.7656 Q990.1406,119.0313 990.9375,119.0313 Q991.6719,119.0313 992.4063,118.8594 Q993.1563,118.6875 994.0313,118.3906 L994.0313,120.5469 Q993.625,120.7031 993.2344,120.8281 Q992.8438,120.9375 992.4375,121.0156 Q992.0313,121.0938 991.6094,121.125 Q991.1875,121.1719 990.6875,121.1719 Q989.2813,121.1719 988.25,120.7188 Q987.2344,120.2656 986.5625,119.4531 Q985.8906,118.6406 985.5625,117.5 Q985.2344,116.3438 985.2344,114.9531 Q985.2344,113.5781 985.6094,112.4219 Q985.9844,111.2656 986.7031,110.4375 Q987.4219,109.6094 988.4844,109.1563 Q989.5469,108.6875 990.9375,108.6875 Q991.8438,108.6875 992.75,108.9219 Q993.6563,109.1406 994.4844,109.5469 L993.6563,111.6406 Q992.9688,111.3125 992.2813,111.0781 Q991.5938,110.8281 990.9375,110.8281 Z " fill="#000000"/><text fill="#000000" font-family="sans-serif" font-size="14" lengthAdjust="spacing" textLength="87" x="1005" y="119.8467">SourcedEntity</text></g><!--class ParameterConcretization--><g id="elem_ParameterConcretization"><rect codeLine="90" fill="#CCFFFF" height="32" id="ParameterConcretization" rx="2.5" ry="2.5" style="stroke:#A9A9A9;stroke-width:0.5;" width="191" x="1130" y="99"/><ellipse cx="1145" cy="115" fill="#FFFFFF" rx="11" ry="11" style="stroke:#181818;stroke-width:1.0;"/><path d="M1144.9375,110.8281 Q1144.1875,110.8281 1143.625,111.125 Q1143.0625,111.4063 1142.6719,111.9375 Q1142.2813,112.4688 1142.0781,113.25 Q1141.8906,114.0156 1141.8906,114.9688 Q1141.8906,115.9375 1142.0625,116.7031 Q1142.25,117.4531 1142.6094,117.9688 Q1142.9844,118.4844 1143.5625,118.7656 Q1144.1406,119.0313 1144.9375,119.0313 Q1145.6719,119.0313 1146.4063,118.8594 Q1147.1563,118.6875 1148.0313,118.3906 L1148.0313,120.5469 Q1147.625,120.7031 1147.2344,120.8281 Q1146.8438,120.9375 1146.4375,121.0156 Q1146.0313,121.0938 1145.6094,121.125 Q1145.1875,121.1719 1144.6875,121.1719 Q1143.2813,121.1719 1142.25,120.7188 Q1141.2344,120.2656 1140.5625,119.4531 Q1139.8906,118.6406 1139.5625,117.5 Q1139.2344,116.3438 1139.2344,114.9531 Q1139.2344,113.5781 1139.6094,112.4219 Q1139.9844,111.2656 1140.7031,110.4375 Q1141.4219,109.6094 1142.4844,109.1563 Q1143.5469,108.6875 1144.9375,108.6875 Q1145.8438,108.6875 1146.75,108.9219 Q1147.6563,109.1406 1148.4844,109.5469 L1147.6563,111.6406 Q1146.9688,111.3125 1146.2813,111.0781 Q1145.5938,110.8281 1144.9375,110.8281 Z " fill="#000000"/><text fill="#000000" font-family="sans-serif" font-size="14" lengthAdjust="spacing" textLength="159" x="1159" y="119.8467">ParameterConcretization</text></g><!--class Inheritance--><g id="elem_Inheritance"><rect codeLine="92" fill="#CCFFFF" height="32" id="Inheritance" rx="2.5" ry="2.5" style="stroke:#A9A9A9;stroke-width:0.5;" width="105" x="1356" y="99"/><ellipse cx="1371" cy="115" fill="#FFFFFF" rx="11" ry="11" style="stroke:#181818;stroke-width:1.0;"/><path d="M1370.9375,110.8281 Q1370.1875,110.8281 1369.625,111.125 Q1369.0625,111.4063 1368.6719,111.9375 Q1368.2813,112.4688 1368.0781,113.25 Q1367.8906,114.0156 1367.8906,114.9688 Q1367.8906,115.9375 1368.0625,116.7031 Q1368.25,117.4531 1368.6094,117.9688 Q1368.9844,118.4844 1369.5625,118.7656 Q1370.1406,119.0313 1370.9375,119.0313 Q1371.6719,119.0313 1372.4063,118.8594 Q1373.1563,118.6875 1374.0313,118.3906 L1374.0313,120.5469 Q1373.625,120.7031 1373.2344,120.8281 Q1372.8438,120.9375 1372.4375,121.0156 Q1372.0313,121.0938 1371.6094,121.125 Q1371.1875,121.1719 1370.6875,121.1719 Q1369.2813,121.1719 1368.25,120.7188 Q1367.2344,120.2656 1366.5625,119.4531 Q1365.8906,118.6406 1365.5625,117.5 Q1365.2344,116.3438 1365.2344,114.9531 Q1365.2344,113.5781 1365.6094,112.4219 Q1365.9844,111.2656 1366.7031,110.4375 Q1367.4219,109.6094 1368.4844,109.1563 Q1369.5469,108.6875 1370.9375,108.6875 Q1371.8438,108.6875 1372.75,108.9219 Q1373.6563,109.1406 1374.4844,109.5469 L1373.6563,111.6406 Q1372.9688,111.3125 1372.2813,111.0781 Q1371.5938,110.8281 1370.9375,110.8281 Z " fill="#000000"/><text fill="#000000" font-family="sans-serif" font-size="14" lengthAdjust="spacing" textLength="73" x="1385" y="119.8467">Inheritance</text></g><!--class TEntityCreator--><g id="elem_TEntityCreator"><rect codeLine="94" fill="#CCFFFF" height="32" id="TEntityCreator" rx="2.5" ry="2.5" style="stroke:#A9A9A9;stroke-width:0.5;" width="123" x="1694" y="7"/><ellipse cx="1709" cy="23" fill="#FFFFFF" rx="11" ry="11" style="stroke:#181818;stroke-width:1.0;"/><path d="M1710.4531,29.75 L1707.8906,29.75 L1707.8906,19.75 L1704.8438,19.75 L1704.8438,17.6094 L1713.4844,17.6094 L1713.4844,19.75 L1710.4531,19.75 L1710.4531,29.75 Z " fill="#000000"/><text fill="#000000" font-family="sans-serif" font-size="14" lengthAdjust="spacing" textLength="91" x="1723" y="27.8467">TEntityCreator</text></g><!--class Implementation--><g id="elem_Implementation"><rect codeLine="96" fill="#CCFFFF" height="32" id="Implementation" rx="2.5" ry="2.5" style="stroke:#A9A9A9;stroke-width:0.5;" width="136" x="1496.5" y="99"/><ellipse cx="1511.5" cy="115" fill="#FFFFFF" rx="11" ry="11" style="stroke:#181818;stroke-width:1.0;"/><path d="M1511.4375,110.8281 Q1510.6875,110.8281 1510.125,111.125 Q1509.5625,111.4063 1509.1719,111.9375 Q1508.7813,112.4688 1508.5781,113.25 Q1508.3906,114.0156 1508.3906,114.9688 Q1508.3906,115.9375 1508.5625,116.7031 Q1508.75,117.4531 1509.1094,117.9688 Q1509.4844,118.4844 1510.0625,118.7656 Q1510.6406,119.0313 1511.4375,119.0313 Q1512.1719,119.0313 1512.9063,118.8594 Q1513.6563,118.6875 1514.5313,118.3906 L1514.5313,120.5469 Q1514.125,120.7031 1513.7344,120.8281 Q1513.3438,120.9375 1512.9375,121.0156 Q1512.5313,121.0938 1512.1094,121.125 Q1511.6875,121.1719 1511.1875,121.1719 Q1509.7813,121.1719 1508.75,120.7188 Q1507.7344,120.2656 1507.0625,119.4531 Q1506.3906,118.6406 1506.0625,117.5 Q1505.7344,116.3438 1505.7344,114.9531 Q1505.7344,113.5781 1506.1094,112.4219 Q1506.4844,111.2656 1507.2031,110.4375 Q1507.9219,109.6094 1508.9844,109.1563 Q1510.0469,108.6875 1511.4375,108.6875 Q1512.3438,108.6875 1513.25,108.9219 Q1514.1563,109.1406 1514.9844,109.5469 L1514.1563,111.6406 Q1513.4688,111.3125 1512.7813,111.0781 Q1512.0938,110.8281 1511.4375,110.8281 Z " fill="#000000"/><text fill="#000000" font-family="sans-serif" font-size="14" lengthAdjust="spacing" textLength="104" x="1525.5" y="119.8467">Implementation</text></g><!--class SourceTextAnchor--><g id="elem_SourceTextAnchor"><rect codeLine="98" fill="#CCFFFF" height="32" id="SourceTextAnchor" rx="2.5" ry="2.5" style="stroke:#A9A9A9;stroke-width:0.5;" width="147" x="484" y="191"/><ellipse cx="499" cy="207" fill="#FFFFFF" rx="11" ry="11" style="stroke:#181818;stroke-width:1.0;"/><path d="M498.9375,202.8281 Q498.1875,202.8281 497.625,203.125 Q497.0625,203.4063 496.6719,203.9375 Q496.2813,204.4688 496.0781,205.25 Q495.8906,206.0156 495.8906,206.9688 Q495.8906,207.9375 496.0625,208.7031 Q496.25,209.4531 496.6094,209.9688 Q496.9844,210.4844 497.5625,210.7656 Q498.1406,211.0313 498.9375,211.0313 Q499.6719,211.0313 500.4063,210.8594 Q501.1563,210.6875 502.0313,210.3906 L502.0313,212.5469 Q501.625,212.7031 501.2344,212.8281 Q500.8438,212.9375 500.4375,213.0156 Q500.0313,213.0938 499.6094,213.125 Q499.1875,213.1719 498.6875,213.1719 Q497.2813,213.1719 496.25,212.7188 Q495.2344,212.2656 494.5625,211.4531 Q493.8906,210.6406 493.5625,209.5 Q493.2344,208.3438 493.2344,206.9531 Q493.2344,205.5781 493.6094,204.4219 Q493.9844,203.2656 494.7031,202.4375 Q495.4219,201.6094 496.4844,201.1563 Q497.5469,200.6875 498.9375,200.6875 Q499.8438,200.6875 500.75,200.9219 Q501.6563,201.1406 502.4844,201.5469 L501.6563,203.6406 Q500.9688,203.3125 500.2813,203.0781 Q499.5938,202.8281 498.9375,202.8281 Z " fill="#000000"/><text fill="#000000" font-family="sans-serif" font-size="14" lengthAdjust="spacing" textLength="115" x="513" y="211.8467">SourceTextAnchor</text></g><!--class Variable--><g id="elem_Variable"><rect codeLine="100" fill="#CCFFFF" height="32" id="Variable" rx="2.5" ry="2.5" style="stroke:#A9A9A9;stroke-width:0.5;" width="84" x="1284.5" y="295"/><ellipse cx="1299.5" cy="311" fill="#FFFFFF" rx="11" ry="11" style="stroke:#181818;stroke-width:1.0;"/><path d="M1299.4375,306.8281 Q1298.6875,306.8281 1298.125,307.125 Q1297.5625,307.4063 1297.1719,307.9375 Q1296.7813,308.4688 1296.5781,309.25 Q1296.3906,310.0156 1296.3906,310.9688 Q1296.3906,311.9375 1296.5625,312.7031 Q1296.75,313.4531 1297.1094,313.9688 Q1297.4844,314.4844 1298.0625,314.7656 Q1298.6406,315.0313 1299.4375,315.0313 Q1300.1719,315.0313 1300.9063,314.8594 Q1301.6563,314.6875 1302.5313,314.3906 L1302.5313,316.5469 Q1302.125,316.7031 1301.7344,316.8281 Q1301.3438,316.9375 1300.9375,317.0156 Q1300.5313,317.0938 1300.1094,317.125 Q1299.6875,317.1719 1299.1875,317.1719 Q1297.7813,317.1719 1296.75,316.7188 Q1295.7344,316.2656 1295.0625,315.4531 Q1294.3906,314.6406 1294.0625,313.5 Q1293.7344,312.3438 1293.7344,310.9531 Q1293.7344,309.5781 1294.1094,308.4219 Q1294.4844,307.2656 1295.2031,306.4375 Q1295.9219,305.6094 1296.9844,305.1563 Q1298.0469,304.6875 1299.4375,304.6875 Q1300.3438,304.6875 1301.25,304.9219 Q1302.1563,305.1406 1302.9844,305.5469 L1302.1563,307.6406 Q1301.4688,307.3125 1300.7813,307.0781 Q1300.0938,306.8281 1299.4375,306.8281 Z " fill="#000000"/><text fill="#000000" font-family="sans-serif" font-size="14" lengthAdjust="spacing" textLength="52" x="1313.5" y="315.8467">Variable</text></g><!--class ParameterType--><g id="elem_ParameterType"><rect codeLine="102" fill="#CCFFFF" height="32" id="ParameterType" rx="2.5" ry="2.5" style="stroke:#A9A9A9;stroke-width:0.5;" width="130" x="1361.5" y="491"/><ellipse cx="1376.5" cy="507" fill="#FFFFFF" rx="11" ry="11" style="stroke:#181818;stroke-width:1.0;"/><path d="M1376.4375,502.8281 Q1375.6875,502.8281 1375.125,503.125 Q1374.5625,503.4063 1374.1719,503.9375 Q1373.7813,504.4688 1373.5781,505.25 Q1373.3906,506.0156 1373.3906,506.9688 Q1373.3906,507.9375 1373.5625,508.7031 Q1373.75,509.4531 1374.1094,509.9688 Q1374.4844,510.4844 1375.0625,510.7656 Q1375.6406,511.0313 1376.4375,511.0313 Q1377.1719,511.0313 1377.9063,510.8594 Q1378.6563,510.6875 1379.5313,510.3906 L1379.5313,512.5469 Q1379.125,512.7031 1378.7344,512.8281 Q1378.3438,512.9375 1377.9375,513.0156 Q1377.5313,513.0938 1377.1094,513.125 Q1376.6875,513.1719 1376.1875,513.1719 Q1374.7813,513.1719 1373.75,512.7188 Q1372.7344,512.2656 1372.0625,511.4531 Q1371.3906,510.6406 1371.0625,509.5 Q1370.7344,508.3438 1370.7344,506.9531 Q1370.7344,505.5781 1371.1094,504.4219 Q1371.4844,503.2656 1372.2031,502.4375 Q1372.9219,501.6094 1373.9844,501.1563 Q1375.0469,500.6875 1376.4375,500.6875 Q1377.3438,500.6875 1378.25,500.9219 Q1379.1563,501.1406 1379.9844,501.5469 L1379.1563,503.6406 Q1378.4688,503.3125 1377.7813,503.0781 Q1377.0938,502.8281 1376.4375,502.8281 Z " fill="#000000"/><text fill="#000000" font-family="sans-serif" font-size="14" lengthAdjust="spacing" textLength="98" x="1390.5" y="511.8467">ParameterType</text></g><!--class Namespace--><g id="elem_Namespace"><rect codeLine="104" fill="#CCFFFF" height="32" id="Namespace" rx="2.5" ry="2.5" style="stroke:#A9A9A9;stroke-width:0.5;" width="105" x="1588" y="399"/><ellipse cx="1603" cy="415" fill="#FFFFFF" rx="11" ry="11" style="stroke:#181818;stroke-width:1.0;"/><path d="M1602.9375,410.8281 Q1602.1875,410.8281 1601.625,411.125 Q1601.0625,411.4063 1600.6719,411.9375 Q1600.2813,412.4688 1600.0781,413.25 Q1599.8906,414.0156 1599.8906,414.9688 Q1599.8906,415.9375 1600.0625,416.7031 Q1600.25,417.4531 1600.6094,417.9688 Q1600.9844,418.4844 1601.5625,418.7656 Q1602.1406,419.0313 1602.9375,419.0313 Q1603.6719,419.0313 1604.4063,418.8594 Q1605.1563,418.6875 1606.0313,418.3906 L1606.0313,420.5469 Q1605.625,420.7031 1605.2344,420.8281 Q1604.8438,420.9375 1604.4375,421.0156 Q1604.0313,421.0938 1603.6094,421.125 Q1603.1875,421.1719 1602.6875,421.1719 Q1601.2813,421.1719 1600.25,420.7188 Q1599.2344,420.2656 1598.5625,419.4531 Q1597.8906,418.6406 1597.5625,417.5 Q1597.2344,416.3438 1597.2344,414.9531 Q1597.2344,413.5781 1597.6094,412.4219 Q1597.9844,411.2656 1598.7031,410.4375 Q1599.4219,409.6094 1600.4844,409.1563 Q1601.5469,408.6875 1602.9375,408.6875 Q1603.8438,408.6875 1604.75,408.9219 Q1605.6563,409.1406 1606.4844,409.5469 L1605.6563,411.6406 Q1604.9688,411.3125 1604.2813,411.0781 Q1603.5938,410.8281 1602.9375,410.8281 Z " fill="#000000"/><text fill="#000000" font-family="sans-serif" font-size="14" lengthAdjust="spacing" textLength="73" x="1617" y="419.8467">Namespace</text></g><!--reverse link Entity to Concretization--><g id="link_Entity_Concretization"><path codeLine="106" d="M668.26,30.01 C566.1,41.57 338.25,68.48 147.5,99 C141.85,99.9 135.98,100.9 130.11,101.94 " fill="none" id="Entity-backto-Concretization" style="stroke:#000000;stroke-width:1.0;"/><polygon fill="none" points="667.72,23.03,688.38,27.75,669.28,36.94,667.72,23.03" style="stroke:#000000;stroke-width:1.0;"/></g><!--reverse link Entity to Reference--><g id="link_Entity_Reference"><path codeLine="107" d="M668.58,36.02 C602.37,50.78 486.65,76.63 387.5,99 C381.88,100.27 376,101.6 370.15,102.92 " fill="none" id="Entity-backto-Reference" style="stroke:#000000;stroke-width:1.0;"/><polygon fill="none" points="667.21,29.15,688.25,31.63,670.25,42.81,667.21,29.15" style="stroke:#000000;stroke-width:1.0;"/></g><!--reverse link ContainerEntity to Method--><g id="link_ContainerEntity_Method"><path codeLine="108" d="M1652.42,332.86 C1720.86,353.57 1823.48,384.64 1879.84,401.69 " fill="none" id="ContainerEntity-backto-Method" style="stroke:#000000;stroke-width:1.0;"/><polygon fill="none" points="1650.34,339.54,1633.23,327.05,1654.4,326.14,1650.34,339.54" style="stroke:#000000;stroke-width:1.0;"/></g><!--reverse link Entity to Access--><g id="link_Entity_Access"><path codeLine="109" d="M668.3,30.7 C580.88,41.96 403.57,66.65 255.5,99 C249.89,100.23 244,101.68 238.25,103.2 " fill="none" id="Entity-backto-Access" style="stroke:#000000;stroke-width:1.0;"/><polygon fill="none" points="667.55,23.74,688.27,28.16,669.31,37.63,667.55,23.74" style="stroke:#000000;stroke-width:1.0;"/></g><!--reverse link SourceAnchor to IndexedFileAnchor--><g id="link_SourceAnchor_IndexedFileAnchor"><path codeLine="110" d="M435.23,145.29 C419.48,160.54 400.88,178.54 388.04,190.96 " fill="none" id="SourceAnchor-backto-IndexedFileAnchor" style="stroke:#000000;stroke-width:1.0;"/><polygon fill="none" points="430.48,140.15,449.72,131.27,440.22,150.21,430.48,140.15" style="stroke:#000000;stroke-width:1.0;"/></g><!--reverse link ScriptEntity to Module--><g id="link_ScriptEntity_Module"><path codeLine="111" d="M2150.79,446.73 C2163.56,461.66 2178.34,478.93 2188.63,490.96 " fill="none" id="ScriptEntity-backto-Module" style="stroke:#000000;stroke-width:1.0;"/><polygon fill="none" points="2145.24,451.02,2137.56,431.27,2155.88,441.91,2145.24,451.02" style="stroke:#000000;stroke-width:1.0;"/></g><!--reverse link Type to Enum--><g id="link_Type_Enum"><path codeLine="112" d="M1536.08,449.64 C1542.24,463.86 1549.1,479.7 1553.98,490.96 " fill="none" id="Type-backto-Enum" style="stroke:#000000;stroke-width:1.0;"/><polygon fill="none" points="1529.65,452.4,1528.12,431.27,1542.49,446.84,1529.65,452.4" style="stroke:#000000;stroke-width:1.0;"/></g><!--reverse link Type to Interface--><g id="link_Type_Interface"><path codeLine="113" d="M1564.56,441.33 C1591.7,457.29 1625.83,477.37 1648.81,490.89 " fill="none" id="Type-backto-Interface" style="stroke:#000000;stroke-width:1.0;"/><polygon fill="none" points="1560.8,447.24,1547.11,431.06,1567.9,435.17,1560.8,447.24" style="stroke:#000000;stroke-width:1.0;"/></g><!--reverse link NamedEntity to Decorator--><g id="link_NamedEntity_Decorator"><path codeLine="114" d="M959.98,230.39 C1007.1,248.66 1077.07,274.16 1127.32,291.34 " fill="none" id="NamedEntity-backto-Decorator" style="stroke:#000000;stroke-width:1.0;"/><polygon fill="none" points="957.36,236.88,941.31,223.05,962.48,223.85,957.36,236.88" style="stroke:#000000;stroke-width:1.0;"/></g><!--link Decorator to NamedEntity--><g id="link_Decorator_NamedEntity"><path codeLine="153" d="M1127.49,283.3 C1077.45,264.08 1007.78,238.87 960.58,223.05 " fill="none" id="Decorator-NamedEntity" style="stroke:#000000;stroke-width:1.0;"/><text fill="#000000" font-family="sans-serif" font-size="13" lengthAdjust="spacing" textLength="71" x="1048.4978" y="277.4451">decorators*</text><text fill="#000000" font-family="sans-serif" font-size="13" lengthAdjust="spacing" textLength="92" x="870.2628" y="242.9398">decoratedEntity</text></g><!--reverse link SourcedEntity to NamedEntity--><g id="link_SourcedEntity_NamedEntity"><path codeLine="115" d="M998.09,142.72 C976.07,158.45 949.03,177.76 930.66,190.89 " fill="none" id="SourcedEntity-backto-NamedEntity" style="stroke:#000000;stroke-width:1.0;"/><polygon fill="none" points="994.07,136.99,1014.41,131.06,1002.2,148.38,994.07,136.99" style="stroke:#000000;stroke-width:1.0;"/></g><!--reverse link Variable to implicitVariable--><g id="link_Variable_implicitVariable"><path codeLine="116" d="M1307.99,344.56 C1297.63,362.78 1285.2,384.63 1277.09,398.89 " fill="none" id="Variable-backto-implicitVariable" style="stroke:#000000;stroke-width:1.0;"/><polygon fill="none" points="1301.97,340.98,1317.94,327.05,1314.14,347.9,1301.97,340.98" style="stroke:#000000;stroke-width:1.0;"/></g><!--reverse link ContainerEntity to ScriptEntity--><g id="link_ContainerEntity_ScriptEntity"><path codeLine="117" d="M1668.56,328.04 C1781.85,349.4 1978.82,386.53 2072.34,404.17 " fill="none" id="ContainerEntity-backto-ScriptEntity" style="stroke:#000000;stroke-width:1.0;"/><polygon fill="none" points="1667.11,334.89,1648.76,324.3,1669.71,321.13,1667.11,334.89" style="stroke:#000000;stroke-width:1.0;"/></g><!--reverse link Class to ParametricClass--><g id="link_Class_ParametricClass"><path codeLine="118" d="M1799.77,542.13 C1805.25,556.23 1811.32,571.83 1815.65,582.96 " fill="none" id="Class-backto-ParametricClass" style="stroke:#000000;stroke-width:1.0;"/><polygon fill="none" points="1793.16,544.44,1792.44,523.27,1806.21,539.37,1793.16,544.44" style="stroke:#000000;stroke-width:1.0;"/></g><!--reverse link ContainerEntity to Function--><g id="link_ContainerEntity_Function"><path codeLine="119" d="M1540.67,337.55 C1508.28,356.87 1464.9,382.74 1437.84,398.89 " fill="none" id="ContainerEntity-backto-Function" style="stroke:#000000;stroke-width:1.0;"/><polygon fill="none" points="1537.51,331.28,1558.27,327.05,1544.68,343.31,1537.51,331.28" style="stroke:#000000;stroke-width:1.0;"/></g><!--reverse link NamedEntity to Parameter--><g id="link_NamedEntity_Parameter"><path codeLine="120" d="M832.49,214.47 C736.2,223.81 566.94,244.35 426.5,283 C415.26,286.09 403.34,290.5 392.72,294.86 " fill="none" id="NamedEntity-backto-Parameter" style="stroke:#000000;stroke-width:1.0;"/><polygon fill="none" points="831.9,207.5,852.47,212.6,833.21,221.44,831.9,207.5" style="stroke:#000000;stroke-width:1.0;"/></g><!--reverse link SourcedEntity to JSDoc--><g id="link_SourcedEntity_JSDoc"><path codeLine="121" d="M1035.5,151.61 C1035.5,165.31 1035.5,180.22 1035.5,190.96 " fill="none" id="SourcedEntity-backto-JSDoc" style="stroke:#000000;stroke-width:1.0;"/><polygon fill="none" points="1028.5,151.27,1035.5,131.27,1042.5,151.27,1028.5,151.27" style="stroke:#000000;stroke-width:1.0;"/></g><!--reverse link NamedEntity to Alias--><g id="link_NamedEntity_Alias"><path codeLine="122" d="M832.26,215.64 C752.9,225.17 626.73,245.07 523.5,283 C515.06,286.1 506.35,290.56 498.7,294.97 " fill="none" id="NamedEntity-backto-Alias" style="stroke:#000000;stroke-width:1.0;"/><polygon fill="none" points="831.69,208.66,852.36,213.33,833.29,222.57,831.69,208.66" style="stroke:#000000;stroke-width:1.0;"/></g><!--reverse link Entity to SourceAnchor--><g id="link_Entity_SourceAnchor"><path codeLine="123" d="M669.38,42.6 C621.69,59.3 552.58,83.51 508.34,99 " fill="none" id="Entity-backto-SourceAnchor" style="stroke:#000000;stroke-width:1.0;"/><polygon fill="none" points="667.18,35.96,688.37,35.95,671.81,49.17,667.18,35.96" style="stroke:#000000;stroke-width:1.0;"/></g><!--reverse link NamedEntity to Attribute--><g id="link_NamedEntity_Attribute"><path codeLine="124" d="M832.89,227.42 C780.68,241.3 710.27,261.31 649.5,283 C639.64,286.52 629.11,290.81 619.54,294.93 " fill="none" id="NamedEntity-backto-Attribute" style="stroke:#000000;stroke-width:1.0;"/><polygon fill="none" points="831.18,220.63,852.3,222.31,834.74,234.17,831.18,220.63" style="stroke:#000000;stroke-width:1.0;"/></g><!--reverse link Interface to ParametricInterface--><g id="link_Interface_ParametricInterface"><path codeLine="125" d="M1661.23,542.13 C1655.75,556.23 1649.68,571.83 1645.35,582.96 " fill="none" id="Interface-backto-ParametricInterface" style="stroke:#000000;stroke-width:1.0;"/><polygon fill="none" points="1654.79,539.37,1668.56,523.27,1667.84,544.44,1654.79,539.37" style="stroke:#000000;stroke-width:1.0;"/></g><!--reverse link NamedEntity to Folder--><g id="link_NamedEntity_Folder"><path codeLine="126" d="M860.76,231.97 C830.92,246.66 791.98,265.87 757.5,283 C749.71,286.87 741.29,291.07 733.48,294.98 " fill="none" id="NamedEntity-backto-Folder" style="stroke:#000000;stroke-width:1.0;"/><polygon fill="none" points="857.87,225.59,878.91,223.04,864.05,238.15,857.87,225.59" style="stroke:#000000;stroke-width:1.0;"/></g><!--reverse link NamedEntity to ContainerEntity--><g id="link_NamedEntity_ContainerEntity"><path codeLine="127" d="M986.74,223.17 C1116.89,244.85 1392.35,283.48 1518.46,301 " fill="none" id="NamedEntity-backto-ContainerEntity" style="stroke:#000000;stroke-width:1.0;"/><polygon fill="none" points="985.31,230.03,966.77,219.78,987.66,216.23,985.31,230.03" style="stroke:#000000;stroke-width:1.0;"/></g><!--reverse link NamedEntity to File--><g id="link_NamedEntity_File"><path codeLine="128" d="M879.23,236.85 C859.42,255.74 834.34,279.65 818.35,294.89 " fill="none" id="NamedEntity-backto-File" style="stroke:#000000;stroke-width:1.0;"/><polygon fill="none" points="874.41,231.78,893.71,223.05,884.07,241.92,874.41,231.78" style="stroke:#000000;stroke-width:1.0;"/></g><!--reverse link Type to Class--><g id="link_Type_Class"><path codeLine="129" d="M1571.68,433.04 C1625.46,451.31 1709.21,479.75 1754.62,495.17 " fill="none" id="Type-backto-Class" style="stroke:#000000;stroke-width:1.0;"/><polygon fill="none" points="1569.36,439.65,1552.68,426.59,1573.87,426.39,1569.36,439.65" style="stroke:#000000;stroke-width:1.0;"/></g><!--reverse link ContainerEntity to Type--><g id="link_ContainerEntity_Type"><path codeLine="130" d="M1563.88,344.27 C1552.77,362.55 1539.4,384.55 1530.69,398.89 " fill="none" id="ContainerEntity-backto-Type" style="stroke:#000000;stroke-width:1.0;"/><polygon fill="none" points="1557.98,340.5,1574.35,327.05,1569.94,347.78,1557.98,340.5" style="stroke:#000000;stroke-width:1.0;"/></g><!--reverse link Method to ParametricMethod--><g id="link_Method_ParametricMethod"><path codeLine="131" d="M1958.76,442.49 C1981.54,458.26 2009.62,477.7 2028.67,490.89 " fill="none" id="Method-backto-ParametricMethod" style="stroke:#000000;stroke-width:1.0;"/><polygon fill="none" points="1954.72,448.2,1942.26,431.06,1962.69,436.69,1954.72,448.2" style="stroke:#000000;stroke-width:1.0;"/></g><!--reverse link Entity to Import--><g id="link_Entity_Import"><path codeLine="132" d="M685.66,50.95 C664.23,66.64 638,85.83 620.15,98.89 " fill="none" id="Entity-backto-Import" style="stroke:#000000;stroke-width:1.0;"/><polygon fill="none" points="681.64,45.22,701.91,39.06,689.91,56.52,681.64,45.22" style="stroke:#000000;stroke-width:1.0;"/></g><!--reverse link Function to ParametricFunction--><g id="link_Function_ParametricFunction"><path codeLine="133" d="M1349.62,431.05 C1256.86,449.46 1086.14,477.34 985.7,493.5 " fill="none" id="Function-backto-ParametricFunction" style="stroke:#000000;stroke-width:1.0;"/><polygon fill="none" points="1348.27,424.18,1369.27,427.05,1351.07,437.9,1348.27,424.18" style="stroke:#000000;stroke-width:1.0;"/></g><!--reverse link NamedEntity to Property--><g id="link_NamedEntity_Property"><path codeLine="134" d="M909.5,243.19 C909.5,260.84 909.5,281.31 909.5,294.89 " fill="none" id="NamedEntity-backto-Property" style="stroke:#000000;stroke-width:1.0;"/><polygon fill="none" points="902.5,243.05,909.5,223.05,916.5,243.05,902.5,243.05" style="stroke:#000000;stroke-width:1.0;"/></g><!--reverse link Entity to Invocation--><g id="link_Entity_Invocation"><path codeLine="135" d="M722.5,59.61 C722.5,73.31 722.5,88.22 722.5,98.96 " fill="none" id="Entity-backto-Invocation" style="stroke:#000000;stroke-width:1.0;"/><polygon fill="none" points="715.5,59.27,722.5,39.27,729.5,59.27,715.5,59.27" style="stroke:#000000;stroke-width:1.0;"/></g><!--reverse link Type to VariableStatement--><g id="link_Type_VariableStatement"><path codeLine="136" d="M1470.7,431.01 C1355.87,459.54 1243.09,480.65 1170.75,493.33 " fill="none" id="Type-backto-VariableStatement" style="stroke:#000000;stroke-width:1.0;"/><polygon fill="none" points="1469.16,424.17,1490.26,426.08,1472.58,437.75,1469.16,424.17" style="stroke:#000000;stroke-width:1.0;"/></g><!--reverse link Method to Accessor--><g id="link_Method_Accessor"><path codeLine="137" d="M1911.27,450.63 C1907.54,464.59 1903.44,479.96 1900.51,490.96 " fill="none" id="Method-backto-Accessor" style="stroke:#000000;stroke-width:1.0;"/><polygon fill="none" points="1904.51,448.79,1916.43,431.27,1918.04,452.4,1904.51,448.79" style="stroke:#000000;stroke-width:1.0;"/></g><!--reverse link Type to PrimitiveType--><g id="link_Type_PrimitiveType"><path codeLine="138" d="M1471.25,433.67 C1423.75,450.37 1353.24,475.15 1308.34,490.94 " fill="none" id="Type-backto-PrimitiveType" style="stroke:#000000;stroke-width:1.0;"/><polygon fill="none" points="1469.18,426.98,1490.37,426.95,1473.82,440.18,1469.18,426.98" style="stroke:#000000;stroke-width:1.0;"/></g><!--reverse link SourcedEntity to Comment--><g id="link_SourcedEntity_Comment"><path codeLine="139" d="M1070.85,143.42 C1090.95,159.02 1115.36,177.96 1132.02,190.89 " fill="none" id="SourcedEntity-backto-Comment" style="stroke:#000000;stroke-width:1.0;"/><polygon fill="none" points="1066.43,148.85,1054.92,131.06,1075.01,137.79,1066.43,148.85" style="stroke:#000000;stroke-width:1.0;"/></g><!--reverse link Entity to SourceLanguage--><g id="link_Entity_SourceLanguage"><path codeLine="140" d="M765,49.33 C791.78,65.29 825.47,85.37 848.14,98.89 " fill="none" id="Entity-backto-SourceLanguage" style="stroke:#000000;stroke-width:1.0;"/><polygon fill="none" points="761.37,55.32,747.77,39.06,768.54,43.29,761.37,55.32" style="stroke:#000000;stroke-width:1.0;"/></g><!--reverse link NamedEntity to EnumValue--><g id="link_NamedEntity_EnumValue"><path codeLine="141" d="M944.77,235.46 C969.28,254.55 1001.03,279.27 1021.09,294.89 " fill="none" id="NamedEntity-backto-EnumValue" style="stroke:#000000;stroke-width:1.0;"/><polygon fill="none" points="940.31,240.86,928.83,223.05,948.91,229.81,940.31,240.86" style="stroke:#000000;stroke-width:1.0;"/></g><!--reverse link Entity to ParameterConcretization--><g id="link_Entity_ParameterConcretization"><path codeLine="142" d="M776.49,33.66 C864.06,49.33 1037.67,80.39 1141.48,98.97 " fill="none" id="Entity-backto-ParameterConcretization" style="stroke:#000000;stroke-width:1.0;"/><polygon fill="none" points="775.13,40.53,756.68,30.12,777.6,26.75,775.13,40.53" style="stroke:#000000;stroke-width:1.0;"/></g><!--reverse link Entity to SourcedEntity--><g id="link_Entity_SourcedEntity"><path codeLine="143" d="M775.92,39.36 C833.88,56.03 925.81,82.46 983.29,98.99 " fill="none" id="Entity-backto-SourcedEntity" style="stroke:#000000;stroke-width:1.0;"/><polygon fill="none" points="773.88,46.06,756.59,33.8,777.75,32.6,773.88,46.06" style="stroke:#000000;stroke-width:1.0;"/></g><!--reverse link Entity to Implementation--><g id="link_Entity_Implementation"><path codeLine="144" d="M776.81,28 C901.27,37.48 1216.53,63.21 1478.5,99 C1484.21,99.78 1490.11,100.66 1496.04,101.59 " fill="none" id="Entity-backto-Implementation" style="stroke:#000000;stroke-width:1.0;"/><polygon fill="none" points="775.93,34.96,756.51,26.47,776.98,21,775.93,34.96" style="stroke:#000000;stroke-width:1.0;"/></g><!--reverse link SourceAnchor to SourceTextAnchor--><g id="link_SourceAnchor_SourceTextAnchor"><path codeLine="145" d="M495.44,145.29 C511.03,160.54 529.43,178.54 542.12,190.96 " fill="none" id="SourceAnchor-backto-SourceTextAnchor" style="stroke:#000000;stroke-width:1.0;"/><polygon fill="none" points="490.51,150.26,481.11,131.27,500.3,140.25,490.51,150.26" style="stroke:#000000;stroke-width:1.0;"/></g><!--reverse link Entity to Inheritance--><g id="link_Entity_Inheritance"><path codeLine="146" d="M776.91,28.97 C884.58,39.16 1132.24,64.42 1338.5,99 C1344.14,99.95 1350.01,101.04 1355.85,102.19 " fill="none" id="Entity-backto-Inheritance" style="stroke:#000000;stroke-width:1.0;"/><polygon fill="none" points="775.97,35.91,756.71,27.08,777.28,21.97,775.97,35.91" style="stroke:#000000;stroke-width:1.0;"/></g><!--reverse link NamedEntity to Variable--><g id="link_NamedEntity_Variable"><path codeLine="147" d="M986.61,223.76 C1087.52,244.45 1253.17,278.66 1266.5,283 C1276.49,286.26 1287.05,290.66 1296.48,294.96 " fill="none" id="NamedEntity-backto-Variable" style="stroke:#000000;stroke-width:1.0;"/><polygon fill="none" points="984.94,230.56,966.75,219.69,987.75,216.85,984.94,230.56" style="stroke:#000000;stroke-width:1.0;"/></g><!--reverse link Type to ParameterType--><g id="link_Type_ParameterType"><path codeLine="148" d="M1490.83,445.05 C1474.69,460.35 1455.56,478.47 1442.38,490.96 " fill="none" id="Type-backto-ParameterType" style="stroke:#000000;stroke-width:1.0;"/><polygon fill="none" points="1486.05,439.94,1505.38,431.27,1495.68,450.1,1486.05,439.94" style="stroke:#000000;stroke-width:1.0;"/></g><!--reverse link ContainerEntity to Namespace--><g id="link_ContainerEntity_Namespace"><path codeLine="149" d="M1601.7,344.56 C1611.88,362.78 1624.09,384.63 1632.05,398.89 " fill="none" id="ContainerEntity-backto-Namespace" style="stroke:#000000;stroke-width:1.0;"/><polygon fill="none" points="1595.56,347.92,1591.91,327.05,1607.78,341.09,1595.56,347.92" style="stroke:#000000;stroke-width:1.0;"/></g><!--reverse link TEntityCreator to FamixTypeScriptModel--><g id="link_TEntityCreator_FamixTypeScriptModel"><path codeLine="150" d="M1755.5,59.61 C1755.5,73.31 1755.5,88.22 1755.5,98.96 " fill="none" id="TEntityCreator-backto-FamixTypeScriptModel" style="stroke:#000000;stroke-width:1.0;stroke-dasharray:7.0,7.0;"/><polygon fill="none" points="1748.5,59.27,1755.5,39.27,1762.5,59.27,1748.5,59.27" style="stroke:#000000;stroke-width:1.0;"/></g><!--reverse link TWithInterfaces to ContainerEntity--><g id="link_TWithInterfaces_ContainerEntity"><path codeLine="151" d="M1583.5,243.19 C1583.5,260.84 1583.5,281.31 1583.5,294.89 " fill="none" id="TWithInterfaces-backto-ContainerEntity" style="stroke:#000000;stroke-width:1.0;stroke-dasharray:7.0,7.0;"/><polygon fill="none" points="1576.5,243.05,1583.5,223.05,1590.5,243.05,1576.5,243.05" style="stroke:#000000;stroke-width:1.0;"/></g><!--reverse link TClassMetrics to Class--><g id="link_TClassMetrics_Class"><path codeLine="152" d="M1786.5,451.61 C1786.5,465.31 1786.5,480.22 1786.5,490.96 " fill="none" id="TClassMetrics-backto-Class" style="stroke:#000000;stroke-width:1.0;stroke-dasharray:7.0,7.0;"/><polygon fill="none" points="1779.5,451.27,1786.5,431.27,1793.5,451.27,1779.5,451.27" style="stroke:#000000;stroke-width:1.0;"/></g><!--SRC=[bLV1Rjim3BthAuJkiWrhlw0eaBdDa64TYYNepehCna9ioQ3bDjcwVvzanOvb6vQIKoAH5Fb8lQTa8WKAHQcFj81Y2rYHQYzaoP0LbEUigkXVGkbNnlSxLBLC4vKhf6-Pq63M5uZgpIrjSsDZJHMcW6ujPRZ_Xkn8_X4NAr6I8sZnXscX9Bsz_PXyQM9zkhkZ7v9aQJxcmDPyyrleR2Kru0lZK5dxpPpzWXkhAXZs5xm0WkGGj7m4dQaqQBQIAHmWNOeS5f9dfl9WO9NMUVZy1raN4QUV00fQBbaX3fjZ2MkEejGc2SY3JlV05J8zKnIbQur2xYWSIZGDCAtjl7-o0j87gOMPiD19eYXpmOL-PYZODW8ULqPaz2Sxqs0IvKdpEmXMBNdSb3Rn7flGuHazfG7X6Vc-lbSyQBN81GiNirOryjZXN6XJohRMS06c5moXojE8wWrLQ2OaO6HxxUKB1utglBqX5vGUIn95gL1V43Tw09zGbO0H6Atag-9nr1k9kcFSY9bgx_HQCmq5o0WWK1H2YrU8QaUYYgYexYByO79NirqS0J-pl8R8mEbbP6I5yY95NCaCK6WM8ruRbqk2qBBt9Z2VUTEPk4nSlHiuw4XMYMRr3fkenbk1gSfvuccRydvzFNY2U5lTku2CoCTkktlkURZn9pwxsetHYu3uMjN4Qzu0n5Lf5-omzNvsb4ey4RLRdIQJmTZPpPurEODkTuO2ErrdFrDoOaoxFX3GQUUMjCOvTssTohdHkh5F8suUudse9-nRvI8zFV9pdq7LATDuVL3eXAFm-ZW3ZpKYhM3uYKsCbvCCSXO2tsC6wvCY-D4wzk_bEk9bBxkMtdiE7YrFjVB4n1DTQrbtd6z7isHoOcRkh9V04BmUdqtSqI633S3gY7QSRdT_Uh3qIMkwznrJaI4plz_SJBxDoUWFaBKSZkFW_TcOD1DuVhbVfUtNwlCLDRcq2srTLttM-0y0]--></g></svg>